G04*
G04 #@! TF.GenerationSoftware,Altium Limited,Altium Designer,24.4.1 (13)*
G04*
G04 Layer_Color=32896*
%FSLAX44Y44*%
%MOMM*%
G71*
G04*
G04 #@! TF.SameCoordinates,FE180870-32F7-4A95-A59D-FA59A3482B45*
G04*
G04*
G04 #@! TF.FilePolarity,Positive*
G04*
G01*
G75*
%ADD10C,0.1524*%
%ADD11C,0.1000*%
%ADD12C,0.2000*%
%ADD13C,0.2500*%
%ADD15C,0.1500*%
%ADD17C,0.0762*%
G36*
X-186285Y109880D02*
X-187813Y107851D01*
X-184771Y105558D01*
X-183242Y107587D01*
X-186285Y109880D01*
D02*
G37*
D10*
X-61050Y-2502D02*
G03*
X-61050Y-2502I-1016J0D01*
G01*
X133950Y-127502D02*
G03*
X133950Y-127502I-1016J0D01*
G01*
X-200263Y134248D02*
X-197965Y132516D01*
X-163953Y106886D02*
X-149737Y125752D01*
X-166251Y108618D02*
X-163953Y106886D01*
X-200263Y134248D02*
X-186047Y153114D01*
X-183749Y151382D01*
X-152035Y127484D02*
X-149737Y125752D01*
X-52747Y17319D02*
X-37253D01*
X-52747Y-7319D02*
X-37253D01*
X142253Y-107681D02*
X157747D01*
X142253Y-132319D02*
X157747D01*
D11*
X-93500Y203000D02*
G03*
X-93500Y203000I-500J0D01*
G01*
X-81000D02*
G03*
X-81000Y203000I-500J0D01*
G01*
X-160500Y-7000D02*
G03*
X-160500Y-7000I-500J0D01*
G01*
X-133500Y33000D02*
G03*
X-133500Y33000I-500J0D01*
G01*
X70000Y-60500D02*
G03*
X70000Y-60500I-500J0D01*
G01*
D12*
X170250Y57150D02*
G03*
X170250Y57150I-1000J0D01*
G01*
X-229750D02*
G03*
X-229750Y57150I-1000J0D01*
G01*
X-104000Y209260D02*
Y210740D01*
X-96002Y209260D02*
Y210740D01*
X-91500Y209260D02*
Y210740D01*
X-83502Y209260D02*
Y210740D01*
X-109500Y185500D02*
Y189500D01*
X-95500Y185500D02*
Y189500D01*
X-94500Y185500D02*
Y189500D01*
X-80500Y185500D02*
Y189500D01*
X86750Y125000D02*
Y128500D01*
X78750D02*
X86750D01*
Y106500D02*
Y110000D01*
X78750Y106500D02*
X86750D01*
X-38000Y185500D02*
Y189500D01*
X-52000Y185500D02*
Y189500D01*
X-114500Y107000D02*
X-110500D01*
X-114500Y93000D02*
X-110500D01*
X-89500Y78000D02*
X-85500D01*
X-89500Y92000D02*
X-85500D01*
X-114500Y78000D02*
X-110500D01*
X-114500Y92000D02*
X-110500D01*
X49000Y63250D02*
Y71250D01*
Y63250D02*
X52500D01*
X71000D02*
Y71250D01*
X67500Y63250D02*
X71000D01*
X-152000Y175500D02*
Y179500D01*
X-138000Y175500D02*
Y179500D01*
X90138Y59138D02*
Y75862D01*
X104862Y59138D02*
Y75862D01*
X42500Y-142250D02*
Y-137750D01*
X57500Y-142250D02*
Y-137750D01*
X157750Y-157500D02*
X162250D01*
X157750Y-142500D02*
X162250D01*
X162750Y87500D02*
X167250D01*
X162750Y102500D02*
X167250D01*
X-157000Y-7000D02*
Y-5750D01*
Y25750D02*
Y27000D01*
X-123000Y-7000D02*
Y-5750D01*
Y25750D02*
Y27000D01*
X-157000Y-7000D02*
X-151100D01*
X-128900D02*
X-123000D01*
X-157000Y27000D02*
X-151100D01*
X-128900D02*
X-123000D01*
X6750Y-105750D02*
Y-101650D01*
Y-78350D02*
Y-74250D01*
X47450D02*
X48250D01*
X6750D02*
X7550D01*
X48250Y-105750D02*
Y-101650D01*
Y-78350D02*
Y-74250D01*
X47450Y-105750D02*
X48250D01*
X6750D02*
X7550D01*
X45500Y140500D02*
Y144500D01*
X59500Y140500D02*
Y144500D01*
X22000Y-172000D02*
Y-168000D01*
X8000Y-172000D02*
Y-168000D01*
X173000Y154500D02*
X177000D01*
X173000Y140500D02*
X177000D01*
X23000Y-172000D02*
Y-168000D01*
X37000Y-172000D02*
Y-168000D01*
X-67000Y185500D02*
Y189500D01*
X-53000Y185500D02*
Y189500D01*
X8000Y183000D02*
Y187000D01*
X22000Y183000D02*
Y187000D01*
X37000Y183000D02*
Y187000D01*
X23000Y183000D02*
Y187000D01*
X-82000Y-7000D02*
X-78000D01*
X-82000Y7000D02*
X-78000D01*
X-82000Y8000D02*
X-78000D01*
X-82000Y22000D02*
X-78000D01*
X155500Y118000D02*
X159500D01*
X155500Y132000D02*
X159500D01*
X155500Y117000D02*
X159500D01*
X155500Y103000D02*
X159500D01*
X-99862Y99138D02*
Y115862D01*
X-85138Y99138D02*
Y115862D01*
X37000Y208000D02*
Y212000D01*
X23000Y208000D02*
Y212000D01*
X55750Y199000D02*
X59250D01*
X55750Y221000D02*
X59250D01*
X100500Y169500D02*
X104500D01*
X100500Y155500D02*
X104500D01*
X100500Y184500D02*
X104500D01*
X100500Y170500D02*
X104500D01*
X-162000Y38000D02*
Y42000D01*
X-148000Y38000D02*
Y42000D01*
X-134500Y53000D02*
X-130500D01*
X-134500Y67000D02*
X-130500D01*
X-136002Y39260D02*
Y40740D01*
X-144000Y39260D02*
Y40740D01*
X30500Y93000D02*
Y97000D01*
X44500Y93000D02*
Y97000D01*
X29500Y93000D02*
Y97000D01*
X15500Y93000D02*
Y97000D01*
X-177638Y-155862D02*
Y-139138D01*
X-192362Y-155862D02*
Y-139138D01*
X-162638Y-155862D02*
Y-139138D01*
X-177362Y-155862D02*
Y-139138D01*
X-201750Y-86500D02*
X-193750D01*
X-201750Y-90000D02*
Y-86500D01*
Y-108500D02*
X-193750D01*
X-201750D02*
Y-105000D01*
X-68000Y140500D02*
Y144500D01*
X-82000Y140500D02*
Y144500D01*
X-163000Y-99500D02*
Y-95500D01*
X-177000Y-99500D02*
Y-95500D01*
X-192362Y-133362D02*
Y-116638D01*
X-177638Y-133362D02*
Y-116638D01*
X-177362Y-133362D02*
Y-116638D01*
X-162638Y-133362D02*
Y-116638D01*
X-160000Y-146000D02*
Y-14000D01*
X-108000D01*
X-20000Y-136000D02*
Y-14000D01*
X-145000Y-166000D02*
X-20000D01*
X-30000Y-14000D02*
X-20000D01*
Y-166000D02*
Y-163000D01*
X-87000Y-14000D02*
X-63400D01*
X-52000Y210500D02*
Y214500D01*
X-38000Y210500D02*
Y214500D01*
X-37000Y210500D02*
Y214500D01*
X-23000Y210500D02*
Y214500D01*
X-67000Y210500D02*
Y214500D01*
X-53000Y210500D02*
Y214500D01*
X-22000Y210500D02*
Y214500D01*
X-8000Y210500D02*
Y214500D01*
X-7000Y210500D02*
Y214500D01*
X7000Y210500D02*
Y214500D01*
X203000Y-102000D02*
Y-98000D01*
X217000Y-102000D02*
Y-98000D01*
X15500Y63000D02*
Y67000D01*
X29500Y63000D02*
Y67000D01*
X-176109Y164153D02*
X-162752Y154088D01*
X-167248Y175912D02*
X-153891Y165847D01*
X-147248Y160912D02*
X-133891Y150847D01*
X-156109Y149153D02*
X-142752Y139088D01*
X-215810Y100613D02*
X-212615Y98206D01*
X-207385Y111794D02*
X-204190Y109387D01*
X-23000Y38000D02*
Y42000D01*
X-37000Y38000D02*
Y42000D01*
X31750Y17500D02*
X38250D01*
X31750Y-12500D02*
X38250D01*
X2500Y2500D02*
X7500D01*
X5000Y0D02*
Y5000D01*
X30500Y63000D02*
Y67000D01*
X44500Y63000D02*
Y67000D01*
X10750Y29000D02*
X14250D01*
X10750Y51000D02*
X14250D01*
X-8000Y38000D02*
Y42000D01*
X-22000Y38000D02*
Y42000D01*
X105138Y59138D02*
Y75862D01*
X119862Y59138D02*
Y75862D01*
X126638Y87638D02*
X143362D01*
X126638Y102362D02*
X143362D01*
X127500Y78000D02*
Y80000D01*
X130520D01*
X127500Y50000D02*
X130520D01*
X127500D02*
Y52000D01*
X157500Y50000D02*
Y52000D01*
X146520Y50000D02*
X157500D01*
X146520Y80000D02*
X157500D01*
Y78000D02*
Y80000D01*
X120930Y-28430D02*
X127320D01*
X157680D02*
X164070D01*
Y-71570D02*
Y-28430D01*
X120930Y-71570D02*
X127320D01*
X157680D02*
X164070D01*
X120930D02*
Y-28430D01*
X78000Y-17000D02*
X82000D01*
X78000Y-3000D02*
X82000D01*
X137969Y-78719D02*
X167031D01*
X137969Y-101281D02*
X167031D01*
X102969D02*
X132031D01*
X102969Y-78719D02*
X132031D01*
X99138Y12362D02*
X115862D01*
X99138Y-2362D02*
X115862D01*
X44500Y38000D02*
Y42000D01*
X30500Y38000D02*
Y42000D01*
X99138Y12638D02*
X115862D01*
X99138Y27362D02*
X115862D01*
X141750Y40250D02*
X144250D01*
X141750Y25750D02*
X144250D01*
X126750Y-15750D02*
Y-12900D01*
Y-15750D02*
X129600D01*
X126750Y12900D02*
Y15750D01*
X129600D01*
X155400D02*
X158250D01*
Y12900D02*
Y15750D01*
Y-15750D02*
Y-12900D01*
X155400Y-15750D02*
X158250D01*
X52000Y183000D02*
Y187000D01*
X38000Y183000D02*
Y187000D01*
X158000Y-163000D02*
X162000D01*
X158000Y-177000D02*
X162000D01*
X132000Y-122000D02*
Y-118000D01*
X118000Y-122000D02*
Y-118000D01*
X170000Y-113250D02*
Y-106750D01*
X200000Y-113250D02*
Y-106750D01*
X185000Y-142500D02*
Y-137500D01*
X182500Y-140000D02*
X187500D01*
X19250Y-151000D02*
Y-129000D01*
X40827Y-150947D02*
Y-128947D01*
X105500Y-77000D02*
X109500D01*
X105500Y-63000D02*
X109500D01*
X69000Y-50750D02*
X91000D01*
X68947Y-29173D02*
X90947D01*
X105500Y-18000D02*
X109500D01*
X105500Y-32000D02*
X109500D01*
X105500Y-3000D02*
X109500D01*
X105500Y-17000D02*
X109500D01*
X105500Y-47000D02*
X109500D01*
X105500Y-33000D02*
X109500D01*
X105500Y-62000D02*
X109500D01*
X105500Y-48000D02*
X109500D01*
X-500Y-117000D02*
Y-113000D01*
X-14500Y-117000D02*
Y-113000D01*
X-500Y-57250D02*
Y-52750D01*
X-14500Y-57250D02*
Y-52750D01*
X-750Y-151000D02*
Y-129000D01*
X20827Y-150947D02*
Y-128947D01*
X-14500Y-87250D02*
Y-82750D01*
X-500Y-87250D02*
Y-82750D01*
X-14500Y-27250D02*
Y-22750D01*
X-500Y-27250D02*
Y-22750D01*
X-138Y-148362D02*
Y-131638D01*
X-14862Y-148362D02*
Y-131638D01*
X56570Y-24820D02*
Y-18430D01*
Y-61570D02*
Y-55180D01*
X13430Y-61570D02*
X56570D01*
X13430Y-24820D02*
Y-18430D01*
Y-61570D02*
Y-55180D01*
Y-18430D02*
X56570D01*
X95000Y-135000D02*
Y-133000D01*
X91980Y-135000D02*
X95000D01*
X91980Y-105000D02*
X95000D01*
Y-107000D02*
Y-105000D01*
X65000Y-107000D02*
Y-105000D01*
X75980D01*
X65000Y-135000D02*
X75980D01*
X65000D02*
Y-133000D01*
X102638Y-128362D02*
Y-111638D01*
X117362Y-128362D02*
Y-111638D01*
X7638Y204138D02*
Y220862D01*
X22362Y204138D02*
Y220862D01*
X-22362Y136638D02*
Y153362D01*
X-7638Y136638D02*
Y153362D01*
X-7362Y136638D02*
Y153362D01*
X7362Y136638D02*
Y153362D01*
X-55138Y99138D02*
Y115862D01*
X-69862Y99138D02*
Y115862D01*
X-70138Y99138D02*
Y115862D01*
X-84862Y99138D02*
Y115862D01*
X-82362Y204138D02*
Y220862D01*
X-67638Y204138D02*
Y220862D01*
X-36250Y179750D02*
Y190250D01*
X-23750Y179750D02*
Y190250D01*
X-7362Y176638D02*
Y193362D01*
X7362Y176638D02*
Y193362D01*
Y156638D02*
Y173362D01*
X-7362Y156638D02*
Y173362D01*
X-7638Y156638D02*
Y173362D01*
X-22362Y156638D02*
Y173362D01*
Y176638D02*
Y193362D01*
X-7638Y176638D02*
Y193362D01*
X-122362Y169138D02*
Y185862D01*
X-107638Y169138D02*
Y185862D01*
X-137000Y175500D02*
Y179500D01*
X-123000Y175500D02*
Y179500D01*
X78000Y13000D02*
X82000D01*
X78000Y27000D02*
X82000D01*
X71638Y12362D02*
X88362D01*
X71638Y-2362D02*
X88362D01*
X45500Y115500D02*
Y119500D01*
X59500Y115500D02*
Y119500D01*
X88750Y137250D02*
Y147750D01*
X76250Y137250D02*
Y147750D01*
X78000Y104500D02*
X82000D01*
X78000Y90500D02*
X82000D01*
X126638Y117362D02*
X143362D01*
X126638Y102638D02*
X143362D01*
X99138Y99862D02*
X115862D01*
X99138Y85138D02*
X115862D01*
X126638Y132362D02*
X143362D01*
X126638Y117638D02*
X143362D01*
X126638Y147362D02*
X143362D01*
X126638Y132638D02*
X143362D01*
X117362Y134138D02*
Y150862D01*
X102638Y134138D02*
Y150862D01*
X102362Y134138D02*
Y150862D01*
X87638Y134138D02*
Y150862D01*
X89862Y59138D02*
Y75862D01*
X75138Y59138D02*
Y75862D01*
X99138Y115138D02*
X115862D01*
X99138Y129862D02*
X115862D01*
X126638Y162362D02*
X143362D01*
X126638Y147638D02*
X143362D01*
X105138Y31638D02*
Y48362D01*
X119862Y31638D02*
Y48362D01*
X59500Y38000D02*
Y42000D01*
X45500Y38000D02*
Y42000D01*
X60500Y38000D02*
Y42000D01*
X74500Y38000D02*
Y42000D01*
X-124500Y150500D02*
X-120500Y150500D01*
X-124500Y164500D02*
X-120500Y164500D01*
X92000Y198000D02*
Y202000D01*
X78000Y198000D02*
Y202000D01*
X-193362Y102362D02*
X-176638D01*
X-193362Y87638D02*
X-176638D01*
X107000Y198000D02*
Y202000D01*
X93000Y198000D02*
Y202000D01*
X122362Y196638D02*
Y213362D01*
X107638Y196638D02*
Y213362D01*
X138000Y182000D02*
X142000D01*
X138000Y168000D02*
X142000D01*
X138000Y197000D02*
X142000D01*
X138000Y183000D02*
X142000D01*
X188000Y125500D02*
X192000D01*
X188000Y139500D02*
X192000D01*
X188000Y110500D02*
X192000D01*
X188000Y124500D02*
X192000D01*
X163000Y155500D02*
X167000D01*
X163000Y169500D02*
X167000D01*
X-107000Y7000D02*
X-103000D01*
X-107000Y-7000D02*
X-103000D01*
X-132362Y31638D02*
Y48362D01*
X-117638Y31638D02*
Y48362D01*
X-113362Y37362D02*
X-96638D01*
X-113362Y22638D02*
X-96638D01*
X-107000Y22000D02*
X-103000D01*
X-107000Y8000D02*
X-103000D01*
X75500Y38000D02*
Y42000D01*
X89500Y38000D02*
Y42000D01*
X104500Y38000D02*
Y42000D01*
X90500Y38000D02*
Y42000D01*
X215250Y-65400D02*
Y-64350D01*
Y64350D02*
Y65400D01*
X184750Y-65400D02*
Y-64350D01*
Y64350D02*
Y65400D01*
X193650D01*
X184750Y-65400D02*
X193650D01*
X206350Y65400D02*
X215250D01*
X206350Y-65400D02*
X215250D01*
X-184750D02*
Y-64350D01*
Y64350D02*
Y65400D01*
X-215250Y-65400D02*
Y-64350D01*
Y64350D02*
Y65400D01*
X-206350D01*
X-215250Y-65400D02*
X-206350D01*
X-193650Y65400D02*
X-184750D01*
X-193650Y-65400D02*
X-184750D01*
D13*
X71750Y102000D02*
G03*
X71750Y102000I-1250J0D01*
G01*
X45750Y79500D02*
G03*
X45750Y79500I-1250J0D01*
G01*
X1000Y-75250D02*
G03*
X1000Y-75250I-1250J0D01*
G01*
X78000Y216500D02*
G03*
X78000Y216500I-1250J0D01*
G01*
X-184250Y-82000D02*
G03*
X-184250Y-82000I-1250J0D01*
G01*
X-165250Y-126600D02*
G03*
X-165250Y-126600I-1250J0D01*
G01*
X-5500Y33500D02*
G03*
X-5500Y33500I-1250J0D01*
G01*
X169270Y71820D02*
G03*
X169270Y71820I-1250J0D01*
G01*
X158000Y-22250D02*
G03*
X158000Y-22250I-1250J0D01*
G01*
X55730Y-126820D02*
G03*
X55730Y-126820I-1250J0D01*
G01*
D15*
X129000Y-170000D02*
X133998D01*
X68500D02*
X63502D01*
X66001Y-167501D02*
Y-172499D01*
X128741Y-153500D02*
Y-148502D01*
X126242Y-146002D01*
X123742Y-148502D01*
Y-153500D01*
Y-149751D01*
X128741D01*
X121243Y-146002D02*
Y-152250D01*
X119994Y-153500D01*
X117494D01*
X116245Y-152250D01*
Y-146002D01*
X113746D02*
X108747Y-153500D01*
Y-146002D02*
X113746Y-153500D01*
X98750Y-146002D02*
Y-153500D01*
X95002D01*
X93752Y-152250D01*
Y-151001D01*
X95002Y-149751D01*
X98750D01*
X95002D01*
X93752Y-148502D01*
Y-147252D01*
X95002Y-146002D01*
X98750D01*
X91253Y-153500D02*
Y-148502D01*
X88754Y-146002D01*
X86254Y-148502D01*
Y-153500D01*
Y-149751D01*
X91253D01*
X83755Y-146002D02*
X78757D01*
X81256D01*
Y-153500D01*
X76258Y-146002D02*
X71259D01*
X73758D01*
Y-153500D01*
D17*
X-184126Y163354D02*
X-182460Y151501D01*
X-177367Y158260D02*
X-189220Y156595D01*
X-180746Y160807D02*
X-185840Y154048D01*
X-179914Y154881D02*
X-186673Y159974D01*
M02*
