M48
;Layer_Color=9474304
;FILE_FORMAT=4:4
METRIC,LZ
;TYPE=PLATED
T01F00S00C0.3000
T02F00S00C0.5000
T03F00S00C0.7100
T04F00S00C0.7500
T05F00S00C1.0000
T06F00S00C1.5000
T07F00S00C1.7000
;TYPE=NON_PLATED
T08F00S00C1.4000
%
T01
X-00245Y0
X-002425Y000225
X-00241Y00042
X-00215Y000875
X-0021Y001225
X-0018198Y00124027
X-00181Y00135
X-00188968
X-00172949Y00130565
X-0016698Y00121527
Y00114027
X-00174Y00115
X-0015948Y00116527
X-0016008Y00155118
X-00151752Y00148841
X-00135Y0015
Y0015875
X-0012Y0017
X-001Y001675
Y001575
X-00099952Y00147741
X-00075064Y001525
Y001625
Y001725
X-00075Y0018
Y001875
X-0005Y001725
X-0004Y0018
X-000325
X-00015Y001675
Y0015
X-000375Y00145
X-0004Y0013
Y001225
X-00046984
X-000475Y0013
Y001375
X-000325Y001225
X-00025
X-00002714Y001275
X000075
X00015Y001575
Y001675
X000075
X00015Y001775
Y00185
X0004Y001825
X00039984Y001725
Y001625
X0007Y00165
Y001575
Y00135
X0006Y00130214
X00055Y0012
X00044Y001075
X0002Y001
Y000925
X-000025
X-0001
X-000175
X-00025
X-000325
X-0004Y0009
X-00065
X-000725
X-000995Y001
X-001275Y000925
X-00128Y00078
X-00138
X-00145
X-00162Y0007
X-001525Y000475
X-00148Y00042
X-00142198Y0004493
X-00136Y00040903
X-001275Y000375
Y00045
X-001075Y000425
X-00106Y00066
X-0009725
Y-000065
X-000625
X-000475Y-0001
X-000275
X-0002Y-00005
X-0001Y00005
X-00005Y0001
X0Y00005
Y00015
X-0001
X0001Y0003
X00025Y00035
Y00015
Y-00009786
X-00003965Y-00045964
X-000135Y-00055
X-000245Y-00045
X-00041136Y-00050114
X-00041Y-0007
X-00025Y-000725
X00000351Y-00078005
X-000075Y-0011
X-00007Y-00126
X0Y-00175
X0004Y-001775
X000475Y-0018
X00045Y-001725
X0005125Y-001445
X000775
X00075Y-0009975
X00071984Y-000925
X000525Y-00076
X00052125Y-000615
X000625Y-000375
X0007Y-00039602
X000925Y-00035
X001
X00112286Y-00025
X001175Y-0005
X000875Y-000575
X0012Y-001025
Y-0011
X001275Y-001425
X0014
X0016Y-00095
X00164914Y-00087585
X00165Y-00079893
X001625Y-000125
Y-00005
X0011Y0003
X000775Y000275
X00071Y0008
X001225Y000825
X00122Y00065
X00131
X0016Y00100214
X001765Y001095
X001735Y00125
Y0014
X0018Y00151
X00178Y001595
X001775Y001675
X001575Y001825
X00148Y001805
Y001895
X00149894Y00156263
X001405Y001595
X00145Y00145
X00148Y0014
X00146Y00127
X00145Y0012
X001Y0013
X000825Y001325
X00093Y00115
X00099Y00162
X000225Y0007
X00025Y0006
X0Y0006
X-00005Y00055
X0Y0005
X-0001
Y0006
X-0002Y0004
X-000275Y000375
X-00045Y00035
X-0006Y00024
X-001275Y0001
Y000025
X-00136Y00005903
X-00142198Y0000993
X-00148Y00007
X-00153Y00002
X-001525Y000125
X-00153076Y0003794
X-00185Y00085
X-00196178Y0009212
X-00065Y001225
X-00113Y00190048
X0001Y000725
X-00060214Y-0006
X-00119786
X-001025Y-000825
Y-001
Y-001075
Y-00115
Y-00125
Y-001325
X-000825Y-001275
X-001625Y-0014
Y-001475
X-0016Y-00104786
X-001825Y-0009
X-0019Y-001275
X-00141Y-0003
X0004Y-001025
X002115Y-0009
X00213Y000905
Y000995
X00198Y001205
Y001295
X00094722Y001935
X00105Y0020625
X0006Y00215
X000275Y0021
X00007286Y0021
X-00015Y0021
X-000225
X-000275Y002025
X-0001
X-000125Y00235
X-00005
X000025
X0001
X0004Y001925
X-00045Y0021
X-00055
X-000775Y00209968
X-00075Y002025
Y00195
X-001Y001975
X-00135Y0019125
T02
X-0021365Y-0005715
Y-0004445
Y-0003175
Y-0001905
Y-0000635
Y0000635
Y0001905
Y0003175
Y0004445
Y0005715
X-0018635
Y0004445
Y0003175
Y0001905
Y0000635
Y-0000635
Y-0001905
Y-0003175
Y-0004445
Y-0005715
X0018635
Y-0004445
Y-0003175
Y-0001905
Y-0000635
Y0000635
Y0001905
Y0003175
Y0004445
Y0005715
X0021365
Y0004445
Y0003175
Y0001905
Y0000635
Y-0000635
Y-0001905
Y-0003175
Y-0004445
Y-0005715
T03
X-00165286Y00089715
X-00155143Y00082072
X-001475Y00092214
X-00157643Y00099857
X-0015Y0011
X-00139857Y00102357
X-00132214Y001125
X-00142357Y00120143
X-00134714Y00130285
X-00124571Y00122642
T04
X001625Y0008
X002Y-001075
T05
X-00145Y-0013
X-00035
T06
X0014Y00045
T07
X-00115Y-0003
X-00065
T08
X-002Y-0007305
Y0007305
X002
Y-0007305
M30
