G04*
G04 #@! TF.GenerationSoftware,Altium Limited,Altium Designer,24.4.1 (13)*
G04*
G04 Layer_Physical_Order=2*
G04 Layer_Color=36540*
%FSLAX44Y44*%
%MOMM*%
G71*
G04*
G04 #@! TF.SameCoordinates,740DF4E5-9B0E-41A3-91D6-8293D7FF8DF9*
G04*
G04*
G04 #@! TF.FilePolarity,Positive*
G04*
G01*
G75*
%ADD10C,0.2000*%
%ADD74C,0.3000*%
%ADD81C,1.4000*%
%ADD83C,2.5500*%
%ADD84C,1.5080*%
%ADD85C,1.0600*%
%ADD86P,1.4991X4X98.0*%
%ADD87C,0.5000*%
%ADD88C,1.0000*%
%ADD89C,2.0000*%
%ADD90C,0.7000*%
%ADD91C,0.5000*%
%ADD92C,0.7500*%
G36*
X3656Y212704D02*
X3850Y212159D01*
X3480Y211264D01*
X-31699Y176085D01*
X-36462D01*
X-36988Y177355D01*
X-36609Y177734D01*
X-36000Y179204D01*
Y180796D01*
X-36609Y182266D01*
X-37734Y183391D01*
X-39204Y184000D01*
X-40796D01*
X-42266Y183391D01*
X-43391Y182266D01*
X-44000Y180796D01*
Y179204D01*
X-43391Y177734D01*
X-43012Y177355D01*
X-43538Y176085D01*
X-46415D01*
Y189000D01*
X-46688Y190372D01*
X-47465Y191535D01*
X-68089Y212159D01*
X-67563Y213428D01*
X-59024D01*
X-58630Y212704D01*
X-58436Y212159D01*
X-59000Y210796D01*
Y209204D01*
X-58391Y207734D01*
X-57266Y206609D01*
X-55796Y206000D01*
X-54204D01*
X-52734Y206609D01*
X-51609Y207734D01*
X-51000Y209204D01*
Y210796D01*
X-51564Y212159D01*
X-51370Y212704D01*
X-50976Y213428D01*
X-49024D01*
X-48630Y212704D01*
X-48436Y212159D01*
X-49000Y210796D01*
Y209204D01*
X-48391Y207734D01*
X-47266Y206609D01*
X-45796Y206000D01*
X-44204D01*
X-42734Y206609D01*
X-41609Y207734D01*
X-41000Y209204D01*
Y210796D01*
X-41564Y212159D01*
X-41370Y212704D01*
X-40976Y213428D01*
X-26524D01*
X-26130Y212704D01*
X-25935Y212159D01*
X-26500Y210796D01*
Y209204D01*
X-25891Y207734D01*
X-24766Y206609D01*
X-23296Y206000D01*
X-21704D01*
X-20234Y206609D01*
X-19573Y207270D01*
X-18750Y207593D01*
X-17927Y207270D01*
X-17266Y206609D01*
X-15796Y206000D01*
X-14204D01*
X-12734Y206609D01*
X-11609Y207734D01*
X-11000Y209204D01*
Y210796D01*
X-11565Y212159D01*
X-11370Y212704D01*
X-10976Y213428D01*
X3261D01*
X3656Y212704D01*
D02*
G37*
G36*
X23338Y247741D02*
X38851Y245786D01*
X54211Y242861D01*
X69356Y238977D01*
X84228Y234149D01*
X98767Y228397D01*
X112917Y221743D01*
X126620Y214214D01*
X139824Y205838D01*
X152475Y196651D01*
X164524Y186686D01*
X175924Y175985D01*
X179197Y172501D01*
X178458Y171433D01*
X178296Y171500D01*
X176704D01*
X175234Y170891D01*
X174109Y169766D01*
X173500Y168296D01*
Y166704D01*
X174109Y165234D01*
X175234Y164109D01*
X175295Y164084D01*
X175434Y163706D01*
X175477Y162634D01*
X174609Y161766D01*
X174000Y160296D01*
Y158704D01*
X174609Y157234D01*
X175734Y156109D01*
X177190Y155506D01*
X177434Y155006D01*
X177573Y154230D01*
X176609Y153266D01*
X176000Y151796D01*
Y151424D01*
X174730Y150898D01*
X158814Y166814D01*
X157982Y167370D01*
X157000Y167565D01*
X129771D01*
X128789Y167370D01*
X127957Y166814D01*
X125708Y164565D01*
X102092D01*
X101565Y165091D01*
Y188937D01*
X102064Y189436D01*
X102620Y190268D01*
X102815Y191250D01*
Y195778D01*
X102620Y196760D01*
X102064Y197592D01*
X97842Y201814D01*
X97010Y202370D01*
X96028Y202565D01*
X53063D01*
X27298Y228330D01*
X26466Y228886D01*
X25484Y229081D01*
X-93580D01*
X-93823Y230351D01*
X-84389Y234091D01*
X-69521Y238929D01*
X-54377Y242824D01*
X-39020Y245759D01*
X-23508Y247725D01*
X-7903Y248712D01*
X7732Y248717D01*
X23338Y247741D01*
D02*
G37*
G36*
X-126911Y193261D02*
X-156117Y164056D01*
X-162000D01*
X-162000Y164056D01*
X-162787Y163899D01*
X-163454Y163454D01*
X-168454Y158454D01*
X-168899Y157787D01*
X-169056Y157000D01*
X-169056Y157000D01*
Y134124D01*
X-170326Y133598D01*
X-170683Y133956D01*
X-172154Y134565D01*
X-173745D01*
X-175215Y133956D01*
X-176091Y133081D01*
X-177167Y133800D01*
X-177000Y134204D01*
Y135796D01*
X-177609Y137266D01*
X-178734Y138391D01*
X-180204Y139000D01*
X-181796D01*
X-183266Y138391D01*
X-184258Y137399D01*
X-184984Y137326D01*
X-185710Y137399D01*
X-186702Y138391D01*
X-188172Y139000D01*
X-189604D01*
X-189928Y139417D01*
X-190227Y140173D01*
X-135966Y194435D01*
X-127397D01*
X-126911Y193261D01*
D02*
G37*
G36*
X19944Y212149D02*
Y186834D01*
X18674Y186581D01*
X18391Y187266D01*
X17266Y188391D01*
X15796Y189000D01*
X14204D01*
X12734Y188391D01*
X11609Y187266D01*
X11000Y185796D01*
Y184204D01*
X11609Y182734D01*
X12270Y182073D01*
X12593Y181250D01*
X12270Y180427D01*
X11609Y179766D01*
X11000Y178296D01*
Y176704D01*
X11609Y175234D01*
X12734Y174109D01*
X14204Y173500D01*
X15796D01*
X17266Y174109D01*
X18391Y175234D01*
X18674Y175919D01*
X19944Y175666D01*
Y169334D01*
X18674Y169081D01*
X18391Y169766D01*
X17266Y170891D01*
X15796Y171500D01*
X14204D01*
X12734Y170891D01*
X11609Y169766D01*
X11000Y168296D01*
Y166704D01*
X11609Y165234D01*
X12734Y164109D01*
X14204Y163500D01*
X15796D01*
X16652Y163855D01*
X17371Y162778D01*
X16006Y161413D01*
X15796Y161500D01*
X14204D01*
X12734Y160891D01*
X11609Y159766D01*
X11000Y158296D01*
Y156704D01*
X11609Y155234D01*
X12734Y154109D01*
X14204Y153500D01*
X15796D01*
X17266Y154109D01*
X18391Y155234D01*
X19000Y156704D01*
Y158296D01*
X18913Y158506D01*
X23453Y163046D01*
X23454Y163046D01*
X23899Y163713D01*
X24056Y164500D01*
X24056Y164500D01*
Y205992D01*
X25234Y206609D01*
X26704Y206000D01*
X28296D01*
X29766Y206609D01*
X29904Y206747D01*
X38977Y197673D01*
X38603Y196251D01*
X37734Y195891D01*
X36609Y194766D01*
X36000Y193296D01*
Y191704D01*
X36609Y190234D01*
X37734Y189109D01*
X39204Y188500D01*
X40796D01*
X42266Y189109D01*
X43391Y190234D01*
X43751Y191103D01*
X45173Y191477D01*
X45980Y190670D01*
X46812Y190114D01*
X47794Y189919D01*
X85937D01*
X90435Y185421D01*
Y158222D01*
X90630Y157240D01*
X91186Y156408D01*
X96561Y151032D01*
X96075Y149859D01*
X58000D01*
X56140Y149489D01*
X54564Y148436D01*
X48564Y142436D01*
X48564Y142436D01*
X38487Y132359D01*
X-2987D01*
X-38370Y167742D01*
X-37884Y168915D01*
X-30214D01*
X-28842Y169188D01*
X-27680Y169965D01*
X8549Y206194D01*
X9551Y206609D01*
X10677Y207734D01*
X11286Y209204D01*
Y210796D01*
X10721Y212159D01*
X10915Y212704D01*
X11310Y213428D01*
X18665D01*
X19944Y212149D01*
D02*
G37*
G36*
X-168250Y53450D02*
X-231750D01*
Y60850D01*
X-168250D01*
Y53450D01*
D02*
G37*
G36*
X222945Y-60850D02*
X168250D01*
Y-15350D01*
X222945D01*
Y-60850D01*
D02*
G37*
G36*
X-98955Y226911D02*
X-126300Y199565D01*
X-137028D01*
X-138010Y199370D01*
X-138842Y198814D01*
X-197992Y139664D01*
X-198548Y138832D01*
X-198743Y137850D01*
Y95211D01*
X-199569Y94386D01*
X-200178Y92916D01*
Y91324D01*
X-199569Y89854D01*
X-198444Y88729D01*
X-196974Y88120D01*
X-195382D01*
X-193912Y88729D01*
X-192787Y89854D01*
X-192178Y91324D01*
Y92916D01*
X-192787Y94386D01*
X-193613Y95211D01*
Y132442D01*
X-192436Y132716D01*
X-192343Y132718D01*
X-191234Y131609D01*
X-189764Y131000D01*
X-188172D01*
X-186702Y131609D01*
X-185710Y132601D01*
X-184984Y132674D01*
X-184258Y132601D01*
X-183266Y131609D01*
X-181796Y131000D01*
X-180204D01*
X-178734Y131609D01*
X-177858Y132485D01*
X-176782Y131765D01*
X-176949Y131361D01*
Y129770D01*
X-176340Y128299D01*
X-175215Y127174D01*
X-174310Y126799D01*
X-173921Y125392D01*
X-175453Y123859D01*
X-175899Y123193D01*
X-176056Y122406D01*
X-176056Y122406D01*
Y118478D01*
X-176266Y118391D01*
X-177391Y117266D01*
X-178000Y115796D01*
Y114204D01*
X-177391Y112734D01*
X-176266Y111609D01*
X-174796Y111000D01*
X-173204D01*
X-171734Y111609D01*
X-171381Y111962D01*
X-170371Y111761D01*
X-169245Y110636D01*
X-167775Y110027D01*
X-166184D01*
X-164714Y110636D01*
X-163589Y111761D01*
X-163172Y112767D01*
X-161944Y113154D01*
X-161748Y113139D01*
X-161745Y113136D01*
X-160275Y112527D01*
X-158684D01*
X-157214Y113136D01*
X-156088Y114261D01*
X-155479Y115731D01*
Y117323D01*
X-156088Y118793D01*
X-157214Y119918D01*
X-158684Y120527D01*
X-160275D01*
X-161745Y119918D01*
X-162081Y119583D01*
X-163157Y120302D01*
X-162980Y120731D01*
Y122323D01*
X-163589Y123793D01*
X-164714Y124918D01*
X-166184Y125527D01*
X-166702Y126797D01*
X-165547Y127952D01*
X-165546Y127952D01*
X-165101Y128619D01*
X-164944Y129406D01*
X-164944Y129406D01*
Y153089D01*
X-163675Y153342D01*
X-163471Y152852D01*
X-162346Y151727D01*
X-160876Y151118D01*
X-159285D01*
X-157815Y151727D01*
X-156689Y152852D01*
X-156080Y154322D01*
Y154949D01*
X-155110Y155919D01*
X-153809D01*
X-152827Y156114D01*
X-151995Y156670D01*
X-118270Y190395D01*
X-117000Y189869D01*
Y189252D01*
X-116391Y187782D01*
X-115266Y186657D01*
X-115056Y186570D01*
Y167851D01*
X-118469Y164438D01*
X-118915Y163771D01*
X-119072Y162984D01*
X-119072Y162984D01*
Y131029D01*
X-119156Y128060D01*
X-120443Y127440D01*
X-121774Y128442D01*
X-124206Y129072D01*
X-126358Y128769D01*
X-127076Y129688D01*
X-127138Y129845D01*
X-125869Y131529D01*
X-135957Y139131D01*
X-143559Y129042D01*
X-133471Y121440D01*
X-132202Y123124D01*
X-132035Y123108D01*
X-130953Y122671D01*
X-130651Y120519D01*
X-130242Y119825D01*
X-131069Y118727D01*
X-131849Y118929D01*
X-134337Y118579D01*
X-136502Y117304D01*
X-138014Y115297D01*
X-138644Y112865D01*
X-138294Y110377D01*
X-137885Y109683D01*
X-138712Y108585D01*
X-139492Y108786D01*
X-141980Y108437D01*
X-144145Y107161D01*
X-145658Y105155D01*
X-146287Y102722D01*
X-145937Y100234D01*
X-145528Y99540D01*
X-146355Y98442D01*
X-147135Y98644D01*
X-149623Y98294D01*
X-150317Y97885D01*
X-151415Y98713D01*
X-151214Y99492D01*
X-151563Y101980D01*
X-152839Y104145D01*
X-154845Y105658D01*
X-157278Y106287D01*
X-159766Y105937D01*
X-161931Y104662D01*
X-163443Y102655D01*
X-164072Y100222D01*
X-163723Y97734D01*
X-163314Y97040D01*
X-164141Y95942D01*
X-164921Y96144D01*
X-167409Y95794D01*
X-169574Y94519D01*
X-171086Y92512D01*
X-171716Y90080D01*
X-171366Y87591D01*
X-170091Y85427D01*
X-168084Y83914D01*
X-165651Y83285D01*
X-163163Y83635D01*
X-162469Y84044D01*
X-161371Y83216D01*
X-161573Y82437D01*
X-161223Y79949D01*
X-159948Y77783D01*
X-157941Y76271D01*
X-155508Y75642D01*
X-153020Y75992D01*
X-150855Y77267D01*
X-150270Y78044D01*
X-149000Y77619D01*
Y77204D01*
X-148391Y75734D01*
X-147266Y74609D01*
X-145796Y74000D01*
X-144204D01*
X-142734Y74609D01*
X-142330Y75013D01*
X-141500Y75651D01*
X-140670Y75013D01*
X-140266Y74609D01*
X-139387Y74245D01*
X-139009Y72827D01*
X-152630Y59205D01*
X-167150D01*
Y60850D01*
X-167472Y61628D01*
X-168250Y61950D01*
X-184872D01*
X-185355Y62150D01*
X-187345D01*
X-187828Y61950D01*
X-212172D01*
X-212656Y62150D01*
X-214645D01*
X-215128Y61950D01*
X-231750D01*
X-232528Y61628D01*
X-232850Y60850D01*
Y53450D01*
X-232528Y52672D01*
X-231750Y52350D01*
X-215128D01*
X-214645Y52150D01*
X-212656D01*
X-212172Y52350D01*
X-187828D01*
X-187345Y52150D01*
X-185355D01*
X-184872Y52350D01*
X-168250D01*
X-167472Y52672D01*
X-167150Y53450D01*
Y55094D01*
X-151779D01*
X-151779Y55094D01*
X-150992Y55251D01*
X-150325Y55697D01*
X-131546Y74475D01*
X-130266Y74609D01*
X-128796Y74000D01*
X-128203D01*
X-127842Y73496D01*
X-127603Y72730D01*
X-127899Y72287D01*
X-128055Y71500D01*
X-128055Y71500D01*
Y49000D01*
X-128296D01*
X-129766Y48391D01*
X-130891Y47266D01*
X-131500Y45796D01*
Y44204D01*
X-130891Y42734D01*
X-130230Y42073D01*
X-129907Y41250D01*
X-130185Y40542D01*
X-130735Y40303D01*
X-132000Y41080D01*
Y41699D01*
X-132609Y43169D01*
X-133734Y44294D01*
X-135204Y44903D01*
X-136796D01*
X-138266Y44294D01*
X-139391Y43169D01*
X-140000Y41699D01*
Y40107D01*
X-139391Y38637D01*
X-138266Y37512D01*
X-136796Y36903D01*
X-135204D01*
X-133734Y37512D01*
X-132673Y38573D01*
X-132303Y38485D01*
X-131500Y38087D01*
Y36704D01*
X-131136Y35826D01*
X-131872Y34555D01*
X-137649D01*
X-144087Y40994D01*
X-144000Y41204D01*
Y42796D01*
X-144609Y44266D01*
X-145734Y45391D01*
X-147204Y46000D01*
X-148029D01*
X-148500Y46704D01*
Y48296D01*
X-149109Y49766D01*
X-150234Y50891D01*
X-151704Y51500D01*
X-153296D01*
X-154766Y50891D01*
X-155891Y49766D01*
X-156500Y48296D01*
Y46704D01*
X-155891Y45234D01*
X-154766Y44109D01*
X-153497Y43583D01*
X-153181Y43254D01*
X-152703Y42230D01*
X-152831Y41940D01*
X-153871D01*
X-155342Y41330D01*
X-156467Y40205D01*
X-157076Y38735D01*
Y37144D01*
X-156467Y35674D01*
X-155342Y34548D01*
X-153871Y33939D01*
X-152280D01*
X-150810Y34548D01*
X-149685Y35674D01*
X-149076Y37144D01*
Y37813D01*
X-148796Y38000D01*
X-147204D01*
X-146994Y38087D01*
X-139953Y31047D01*
X-139287Y30601D01*
X-138500Y30445D01*
X-125000D01*
X-125000Y30445D01*
X-124213Y30601D01*
X-123546Y31047D01*
X-122713Y31880D01*
X-121539Y31394D01*
Y18867D01*
X-126494Y13913D01*
X-126704Y14000D01*
X-128296D01*
X-129766Y13391D01*
X-130891Y12266D01*
X-131500Y10796D01*
Y9204D01*
X-130891Y7734D01*
X-130230Y7073D01*
X-129907Y6250D01*
X-130185Y5542D01*
X-130735Y5303D01*
X-132000Y6080D01*
Y6699D01*
X-132609Y8169D01*
X-133734Y9294D01*
X-135204Y9903D01*
X-136796D01*
X-138266Y9294D01*
X-139391Y8169D01*
X-140000Y6699D01*
Y5107D01*
X-139391Y3637D01*
X-138266Y2512D01*
X-136796Y1903D01*
X-135204D01*
X-133734Y2512D01*
X-132673Y3573D01*
X-132303Y3485D01*
X-131500Y3087D01*
Y1704D01*
X-131136Y825D01*
X-131872Y-444D01*
X-137649D01*
X-144087Y5994D01*
X-144000Y6204D01*
Y7796D01*
X-144609Y9266D01*
X-145734Y10391D01*
X-147204Y11000D01*
X-148029D01*
X-148500Y11704D01*
Y13296D01*
X-149109Y14766D01*
X-150234Y15891D01*
X-151704Y16500D01*
X-153296D01*
X-154766Y15891D01*
X-155891Y14766D01*
X-156500Y13296D01*
Y11704D01*
X-155891Y10234D01*
X-154766Y9109D01*
X-153296Y8500D01*
X-152471D01*
X-152000Y7796D01*
Y7173D01*
X-152174Y6174D01*
X-153173Y6000D01*
X-153796D01*
X-155266Y5391D01*
X-156391Y4266D01*
X-157000Y2796D01*
Y1204D01*
X-156391Y-266D01*
X-155266Y-1391D01*
X-153796Y-2000D01*
X-152204D01*
X-150734Y-1391D01*
X-149609Y-266D01*
X-149000Y1204D01*
Y1827D01*
X-148826Y2826D01*
X-147827Y3000D01*
X-147204D01*
X-146994Y3087D01*
X-139953Y-3954D01*
X-139287Y-4399D01*
X-138500Y-4555D01*
X-125429D01*
X-125429Y-4555D01*
X-124642Y-4399D01*
X-123975Y-3954D01*
X-116229Y3793D01*
X-115056Y3307D01*
Y-1149D01*
X-139994Y-26087D01*
X-140204Y-26000D01*
X-141796D01*
X-143266Y-26609D01*
X-144391Y-27734D01*
X-145000Y-29204D01*
Y-30796D01*
X-144391Y-32266D01*
X-143266Y-33391D01*
X-141796Y-34000D01*
X-140204D01*
X-138734Y-33391D01*
X-137609Y-32266D01*
X-137000Y-30796D01*
Y-29204D01*
X-137087Y-28994D01*
X-111547Y-3453D01*
X-111546Y-3453D01*
X-111101Y-2787D01*
X-110944Y-2000D01*
X-110944Y-2000D01*
Y38492D01*
X-109766Y39109D01*
X-108296Y38500D01*
X-106704D01*
X-105234Y39109D01*
X-104109Y40234D01*
X-103500Y41704D01*
Y43296D01*
X-104109Y44766D01*
X-105234Y45891D01*
X-106704Y46500D01*
X-108296D01*
X-109766Y45891D01*
X-110944Y46508D01*
Y66149D01*
X-108467Y68626D01*
X-108021Y69293D01*
X-107865Y70080D01*
Y97228D01*
X-104770Y100323D01*
X-103500Y99797D01*
Y99204D01*
X-102891Y97734D01*
X-101766Y96609D01*
X-100296Y96000D01*
X-98704D01*
X-97234Y96609D01*
X-96109Y97734D01*
X-95500Y99204D01*
Y100796D01*
X-96109Y102266D01*
X-97234Y103391D01*
X-98704Y104000D01*
X-99297D01*
X-99823Y105270D01*
X-93499Y111594D01*
X-93499Y111594D01*
X-93053Y112261D01*
X-92896Y113048D01*
Y144867D01*
X-87319Y150444D01*
X-78542D01*
X-78455Y150234D01*
X-77330Y149109D01*
X-75860Y148500D01*
X-74268D01*
X-72798Y149109D01*
X-71673Y150234D01*
X-71064Y151704D01*
Y153296D01*
X-71673Y154766D01*
X-72798Y155891D01*
X-74268Y156500D01*
X-75860D01*
X-77330Y155891D01*
X-78455Y154766D01*
X-78542Y154556D01*
X-88170D01*
X-88957Y154399D01*
X-89623Y153954D01*
X-89623Y153953D01*
X-94779Y148798D01*
X-96211Y149162D01*
X-96561Y150007D01*
X-97686Y151132D01*
X-99156Y151741D01*
X-100748D01*
X-101274Y151523D01*
X-101993Y152600D01*
X-101006Y153587D01*
X-100796Y153500D01*
X-99204D01*
X-97734Y154109D01*
X-96609Y155234D01*
X-96000Y156704D01*
Y158296D01*
X-96364Y159174D01*
X-95628Y160445D01*
X-78542D01*
X-78455Y160234D01*
X-77330Y159109D01*
X-75860Y158500D01*
X-74268D01*
X-72798Y159109D01*
X-71673Y160234D01*
X-71064Y161704D01*
Y163296D01*
X-71673Y164766D01*
X-72798Y165891D01*
X-74268Y166500D01*
X-75860D01*
X-77330Y165891D01*
X-78455Y164766D01*
X-78542Y164555D01*
X-95628D01*
X-96364Y165826D01*
X-96000Y166704D01*
Y168296D01*
X-96364Y169174D01*
X-95628Y170445D01*
X-78542D01*
X-78455Y170234D01*
X-77330Y169109D01*
X-75860Y168500D01*
X-74268D01*
X-72798Y169109D01*
X-71673Y170234D01*
X-71064Y171704D01*
Y173296D01*
X-71673Y174766D01*
X-72315Y175408D01*
X-72624Y176292D01*
X-72295Y177048D01*
X-71609Y177734D01*
X-71000Y179204D01*
Y180796D01*
X-71609Y182266D01*
X-72270Y182927D01*
X-72593Y183750D01*
X-72270Y184573D01*
X-71609Y185234D01*
X-71000Y186704D01*
Y188296D01*
X-71609Y189766D01*
X-72270Y190427D01*
X-72593Y191250D01*
X-72270Y192073D01*
X-71609Y192734D01*
X-71000Y194204D01*
Y195796D01*
X-71609Y197266D01*
X-72270Y197927D01*
X-72593Y198750D01*
X-72270Y199573D01*
X-71609Y200234D01*
X-71000Y201704D01*
Y203134D01*
X-70577Y203462D01*
X-69827Y203757D01*
X-53585Y187515D01*
Y175713D01*
X-54489Y174360D01*
X-54807Y172763D01*
X-67535Y160035D01*
X-68312Y158872D01*
X-68585Y157500D01*
Y124298D01*
X-69000Y123296D01*
Y121704D01*
X-68391Y120234D01*
X-67266Y119109D01*
X-65796Y118500D01*
X-64204D01*
X-62734Y119109D01*
X-61609Y120234D01*
X-61000Y121704D01*
Y123296D01*
X-61415Y124298D01*
Y156015D01*
X-50901Y166529D01*
X-8436Y124064D01*
X-6860Y123011D01*
X-5000Y122641D01*
X40500D01*
X42360Y123011D01*
X43936Y124064D01*
X47242Y127370D01*
X48415Y126884D01*
Y123000D01*
X48688Y121628D01*
X49465Y120465D01*
X51194Y118736D01*
X51364Y118326D01*
X50628Y117056D01*
X-10000D01*
X-10000Y117056D01*
X-10787Y116899D01*
X-11453Y116454D01*
X-11453Y116453D01*
X-31494Y96413D01*
X-31704Y96500D01*
X-33296D01*
X-34766Y95891D01*
X-35891Y94766D01*
X-36500Y93296D01*
Y91704D01*
X-35891Y90234D01*
X-34766Y89109D01*
X-33296Y88500D01*
X-31704D01*
X-30234Y89109D01*
X-29573Y89770D01*
X-28750Y90093D01*
X-27927Y89770D01*
X-27266Y89109D01*
X-25796Y88500D01*
X-24204D01*
X-22734Y89109D01*
X-22073Y89770D01*
X-21250Y90093D01*
X-20427Y89770D01*
X-19766Y89109D01*
X-18296Y88500D01*
X-16704D01*
X-15234Y89109D01*
X-14573Y89770D01*
X-13750Y90093D01*
X-12927Y89770D01*
X-12266Y89109D01*
X-10796Y88500D01*
X-9204D01*
X-7734Y89109D01*
X-7073Y89770D01*
X-6250Y90093D01*
X-5427Y89770D01*
X-4766Y89109D01*
X-3296Y88500D01*
X-1704D01*
X-234Y89109D01*
X891Y90234D01*
X1500Y91704D01*
Y93296D01*
X891Y94766D01*
X-234Y95891D01*
X-1704Y96500D01*
X-3296D01*
X-4766Y95891D01*
X-5427Y95230D01*
X-6250Y94907D01*
X-7073Y95230D01*
X-7734Y95891D01*
X-9204Y96500D01*
X-10796D01*
X-12266Y95891D01*
X-12927Y95230D01*
X-13750Y94907D01*
X-14573Y95230D01*
X-15234Y95891D01*
X-16704Y96500D01*
X-18296D01*
X-19766Y95891D01*
X-20427Y95230D01*
X-21250Y94907D01*
X-22073Y95230D01*
X-22734Y95891D01*
X-23916Y96381D01*
X-24420Y97673D01*
X-9149Y112944D01*
X89522D01*
X89609Y112734D01*
X90734Y111609D01*
X92204Y111000D01*
X93796D01*
X95266Y111609D01*
X96391Y112734D01*
X97000Y114204D01*
Y115796D01*
X96391Y117266D01*
X95266Y118391D01*
X93796Y119000D01*
X92204D01*
X90734Y118391D01*
X89609Y117266D01*
X89522Y117056D01*
X59372D01*
X58636Y118326D01*
X59000Y119204D01*
Y120796D01*
X58391Y122266D01*
X57266Y123391D01*
X56264Y123806D01*
X55585Y124485D01*
Y135713D01*
X60013Y140140D01*
X68639D01*
X68892Y138870D01*
X67734Y138391D01*
X66609Y137266D01*
X66000Y135796D01*
Y134204D01*
X66609Y132734D01*
X67734Y131609D01*
X69204Y131000D01*
X70796D01*
X72266Y131609D01*
X73391Y132734D01*
X74000Y134204D01*
Y135796D01*
X73391Y137266D01*
X72266Y138391D01*
X71108Y138870D01*
X71361Y140140D01*
X140987D01*
X144564Y136564D01*
X144866Y136362D01*
X145465Y135465D01*
X172694Y108236D01*
X173109Y107234D01*
X174234Y106109D01*
X175103Y105749D01*
X175477Y104327D01*
X173930Y102780D01*
X163092D01*
X162266Y103605D01*
X160796Y104214D01*
X159204D01*
X157734Y103605D01*
X156609Y102480D01*
X156000Y101010D01*
Y99419D01*
X156609Y97949D01*
X157734Y96823D01*
X158912Y96335D01*
X158660Y95065D01*
X23091D01*
X22266Y95891D01*
X20796Y96500D01*
X19204D01*
X17734Y95891D01*
X16609Y94766D01*
X16000Y93296D01*
Y91704D01*
X16609Y90234D01*
X17734Y89109D01*
X17736Y89108D01*
X18146Y87572D01*
X17749Y87056D01*
X-41649D01*
X-50444Y95851D01*
Y118508D01*
X-49250Y119109D01*
X-47780Y118500D01*
X-46188D01*
X-44718Y119109D01*
X-44322Y119506D01*
X-43492Y120155D01*
X-42662Y119506D01*
X-42266Y119109D01*
X-40796Y118500D01*
X-39204D01*
X-37734Y119109D01*
X-37073Y119770D01*
X-36250Y120093D01*
X-35427Y119770D01*
X-34766Y119109D01*
X-33296Y118500D01*
X-31704D01*
X-30234Y119109D01*
X-29109Y120234D01*
X-28500Y121704D01*
Y123296D01*
X-29109Y124766D01*
X-30234Y125891D01*
X-31704Y126500D01*
X-33296D01*
X-34766Y125891D01*
X-35427Y125230D01*
X-36250Y124907D01*
X-37073Y125230D01*
X-37734Y125891D01*
X-39204Y126500D01*
X-40796D01*
X-42266Y125891D01*
X-42662Y125494D01*
X-43492Y124845D01*
X-44322Y125494D01*
X-44506Y125678D01*
X-44714Y125945D01*
X-44619Y127225D01*
X-44109Y127734D01*
X-43500Y129204D01*
Y130796D01*
X-44109Y132266D01*
X-44770Y132927D01*
X-45093Y133750D01*
X-44770Y134573D01*
X-44109Y135234D01*
X-43500Y136704D01*
Y138296D01*
X-44109Y139766D01*
X-45234Y140891D01*
X-46704Y141500D01*
X-48296D01*
X-49766Y140891D01*
X-50891Y139766D01*
X-51500Y138296D01*
Y136704D01*
X-51413Y136494D01*
X-53953Y133954D01*
X-54399Y133287D01*
X-54556Y132500D01*
X-54556Y132500D01*
Y95000D01*
X-54556Y95000D01*
X-54399Y94213D01*
X-53953Y93546D01*
X-43953Y83547D01*
X-43953Y83546D01*
X-43287Y83101D01*
X-42500Y82944D01*
X19571D01*
X19571Y82944D01*
X20358Y83101D01*
X21024Y83546D01*
X24387Y86909D01*
X110744D01*
X113754Y83899D01*
Y39857D01*
X113754Y39857D01*
X113911Y39070D01*
X114356Y38403D01*
X128713Y24046D01*
X129380Y23601D01*
X130166Y23444D01*
X130167Y23444D01*
X218801D01*
X222945Y19301D01*
Y-14250D01*
X215128D01*
X214645Y-14050D01*
X212656D01*
X212172Y-14250D01*
X187828D01*
X187345Y-14050D01*
X185355D01*
X184872Y-14250D01*
X168250D01*
X167472Y-14572D01*
X167150Y-15350D01*
Y-60850D01*
X167472Y-61628D01*
X168250Y-61950D01*
X184872D01*
X185355Y-62150D01*
X187345D01*
X187828Y-61950D01*
X212172D01*
X212656Y-62150D01*
X214645D01*
X215128Y-61950D01*
X222945D01*
Y-75649D01*
X212506Y-86087D01*
X212296Y-86000D01*
X210704D01*
X209234Y-86609D01*
X208109Y-87734D01*
X207500Y-89204D01*
Y-90796D01*
X208109Y-92266D01*
X209234Y-93391D01*
X210704Y-94000D01*
X212296D01*
X213766Y-93391D01*
X214891Y-92266D01*
X215500Y-90796D01*
Y-89204D01*
X215413Y-88994D01*
X226453Y-77954D01*
X226453Y-77953D01*
X226899Y-77287D01*
X227055Y-76500D01*
Y20153D01*
X226899Y20939D01*
X226453Y21606D01*
X226453Y21606D01*
X221106Y26953D01*
X220439Y27399D01*
X219653Y27555D01*
X219653Y27555D01*
X131018D01*
X117865Y40708D01*
Y61682D01*
X119135Y62208D01*
X119734Y61609D01*
X121204Y61000D01*
X122796D01*
X124266Y61609D01*
X125391Y62734D01*
X126000Y64204D01*
Y65796D01*
X125391Y67266D01*
X124266Y68391D01*
X122796Y69000D01*
X121204D01*
X119734Y68391D01*
X119135Y67792D01*
X117865Y68318D01*
Y79918D01*
X118989Y80204D01*
X119135Y80208D01*
X120234Y79109D01*
X121704Y78500D01*
X123296D01*
X124766Y79109D01*
X125891Y80234D01*
X126500Y81704D01*
Y83296D01*
X125891Y84766D01*
X124766Y85891D01*
X123296Y86500D01*
X121704D01*
X120234Y85891D01*
X119123Y84780D01*
X118434Y84763D01*
X117821Y84974D01*
X117709Y85537D01*
X117263Y86203D01*
X114705Y88761D01*
X115191Y89935D01*
X174500D01*
X175482Y90130D01*
X176314Y90686D01*
X178261Y92633D01*
X179435Y92148D01*
Y88063D01*
X169980Y78608D01*
X168770Y79194D01*
Y81247D01*
X167815Y83552D01*
X166052Y85315D01*
X163747Y86270D01*
X161253D01*
X158948Y85315D01*
X157185Y83552D01*
X156230Y81247D01*
Y78753D01*
X157185Y76448D01*
X158948Y74685D01*
X161253Y73730D01*
X163306D01*
X163892Y72520D01*
X145950Y54578D01*
X144350Y55502D01*
X141484Y56270D01*
X138516D01*
X135650Y55502D01*
X133080Y54018D01*
X130982Y51920D01*
X129498Y49350D01*
X128730Y46484D01*
Y43516D01*
X129498Y40650D01*
X130982Y38080D01*
X133080Y35982D01*
X135650Y34498D01*
X138516Y33730D01*
X141484D01*
X144350Y34498D01*
X146920Y35982D01*
X149018Y38080D01*
X150502Y40650D01*
X151270Y43516D01*
Y46484D01*
X150502Y49350D01*
X149578Y50950D01*
X183814Y85186D01*
X184370Y86018D01*
X184565Y87000D01*
Y93258D01*
X191846Y100539D01*
X192402Y101371D01*
X192597Y102353D01*
Y129148D01*
X192402Y130129D01*
X191846Y130962D01*
X181565Y141242D01*
Y143000D01*
X181370Y143982D01*
X180814Y144814D01*
X179898Y145730D01*
X180424Y147000D01*
X180796D01*
X182266Y147609D01*
X183391Y148734D01*
X184000Y150204D01*
Y151796D01*
X183391Y153266D01*
X182266Y154391D01*
X180810Y154994D01*
X180566Y155494D01*
X180427Y156270D01*
X181391Y157234D01*
X182000Y158704D01*
Y160296D01*
X181391Y161766D01*
X180266Y162891D01*
X180205Y162916D01*
X180066Y163295D01*
X180023Y164366D01*
X180891Y165234D01*
X181500Y166704D01*
Y168195D01*
X181756Y168410D01*
X182659Y168815D01*
X186630Y164589D01*
X196598Y152543D01*
X205790Y139894D01*
X214170Y126694D01*
X221704Y112993D01*
X228363Y98846D01*
X234120Y84308D01*
X238953Y69438D01*
X242842Y54294D01*
X245773Y38935D01*
X247733Y23422D01*
X248715Y7818D01*
Y-0D01*
X248715Y-6372D01*
X248062Y-19099D01*
X246759Y-31775D01*
X244808Y-44368D01*
X242215Y-56845D01*
X238987Y-69172D01*
X235132Y-81319D01*
X230659Y-93252D01*
X225582Y-104939D01*
X219913Y-116353D01*
X213667Y-127460D01*
X206860Y-138233D01*
X199511Y-148644D01*
X191638Y-158665D01*
X183263Y-168269D01*
X174406Y-177432D01*
X169893Y-181647D01*
X169815Y-181695D01*
X169707Y-181797D01*
X169577Y-181869D01*
X167661Y-183498D01*
X163319Y-186037D01*
X158602Y-187783D01*
X153654Y-188682D01*
X151139Y-188694D01*
X151044Y-188714D01*
X151004Y-188710D01*
X151000Y-188709D01*
X150996D01*
X150947Y-188704D01*
X150899Y-188709D01*
X-15000Y-188715D01*
X-15858Y-188715D01*
X-17542Y-188380D01*
X-19128Y-187723D01*
X-20555Y-186769D01*
X-21769Y-185555D01*
X-22723Y-184128D01*
X-23380Y-182542D01*
X-23715Y-180858D01*
Y-170000D01*
X-23725Y-169950D01*
X-23717Y-169900D01*
X-23762Y-168994D01*
X-23798Y-168848D01*
X-23798Y-168696D01*
X-24152Y-166919D01*
X-24228Y-166734D01*
X-24268Y-166537D01*
X-24961Y-164863D01*
X-25072Y-164696D01*
X-25149Y-164510D01*
X-26155Y-163004D01*
X-26297Y-162862D01*
X-26409Y-162695D01*
X-27689Y-161413D01*
X-27856Y-161302D01*
X-27998Y-161160D01*
X-29504Y-160153D01*
X-29690Y-160076D01*
X-29857Y-159964D01*
X-31530Y-159270D01*
X-31727Y-159231D01*
X-31913Y-159154D01*
X-33689Y-158799D01*
X-33840Y-158799D01*
X-33987Y-158762D01*
X-34893Y-158717D01*
X-34944Y-158725D01*
X-34994Y-158715D01*
X-177508Y-158715D01*
X-179233Y-158714D01*
X-182656Y-158301D01*
X-186006Y-157480D01*
X-189233Y-156265D01*
X-192292Y-154672D01*
X-195138Y-152725D01*
X-197731Y-150451D01*
X-200033Y-147883D01*
X-201022Y-146470D01*
X-201035Y-146458D01*
X-201042Y-146441D01*
X-205694Y-140037D01*
X-214083Y-126841D01*
X-221627Y-113145D01*
X-228295Y-99003D01*
X-234062Y-84469D01*
X-238905Y-69602D01*
X-242805Y-54461D01*
X-245746Y-39104D01*
X-247717Y-23593D01*
X-248709Y-7989D01*
X-248720Y7647D01*
X-247749Y23252D01*
X-245799Y38766D01*
X-242879Y54127D01*
X-239001Y69274D01*
X-234178Y84148D01*
X-228431Y98689D01*
X-221782Y112840D01*
X-214257Y126546D01*
X-205886Y139753D01*
X-196703Y152408D01*
X-186743Y164460D01*
X-176046Y175864D01*
X-164653Y186573D01*
X-152610Y196546D01*
X-139965Y205742D01*
X-126768Y214126D01*
X-113069Y221665D01*
X-99696Y227965D01*
X-98955Y226911D01*
D02*
G37*
%LPC*%
G36*
X10796Y239000D02*
X9204D01*
X7734Y238391D01*
X7073Y237730D01*
X6250Y237407D01*
X5427Y237730D01*
X4766Y238391D01*
X3296Y239000D01*
X1704D01*
X234Y238391D01*
X-891Y237266D01*
X-1500Y235796D01*
Y234204D01*
X-891Y232734D01*
X234Y231609D01*
X1704Y231000D01*
X3296D01*
X4766Y231609D01*
X5427Y232270D01*
X6250Y232593D01*
X7073Y232270D01*
X7734Y231609D01*
X9204Y231000D01*
X10796D01*
X12266Y231609D01*
X13391Y232734D01*
X14000Y234204D01*
Y235796D01*
X13391Y237266D01*
X12266Y238391D01*
X10796Y239000D01*
D02*
G37*
G36*
X-11704D02*
X-13296D01*
X-14766Y238391D01*
X-15891Y237266D01*
X-16500Y235796D01*
Y234204D01*
X-15891Y232734D01*
X-14766Y231609D01*
X-13296Y231000D01*
X-11704D01*
X-10234Y231609D01*
X-9109Y232734D01*
X-8500Y234204D01*
Y235796D01*
X-9109Y237266D01*
X-10234Y238391D01*
X-11704Y239000D01*
D02*
G37*
G36*
X105796Y210250D02*
X104204D01*
X102734Y209641D01*
X101609Y208516D01*
X101000Y207046D01*
Y205454D01*
X101609Y203984D01*
X102734Y202859D01*
X104204Y202250D01*
X105796D01*
X107266Y202859D01*
X108391Y203984D01*
X109000Y205454D01*
Y207046D01*
X108391Y208516D01*
X107266Y209641D01*
X105796Y210250D01*
D02*
G37*
G36*
X158296Y186500D02*
X156704D01*
X155234Y185891D01*
X154109Y184766D01*
X153500Y183296D01*
Y181704D01*
X154109Y180234D01*
X155234Y179109D01*
X156704Y178500D01*
X158296D01*
X159766Y179109D01*
X160891Y180234D01*
X161500Y181704D01*
Y183296D01*
X160891Y184766D01*
X159766Y185891D01*
X158296Y186500D01*
D02*
G37*
G36*
X148796Y193500D02*
X147204D01*
X145734Y192891D01*
X144609Y191766D01*
X144000Y190296D01*
Y188704D01*
X144609Y187234D01*
X145734Y186109D01*
X146786Y185673D01*
Y184327D01*
X145734Y183891D01*
X144609Y182766D01*
X144000Y181296D01*
Y179704D01*
X144609Y178234D01*
X145734Y177109D01*
X147204Y176500D01*
X148796D01*
X150266Y177109D01*
X151391Y178234D01*
X152000Y179704D01*
Y181296D01*
X151391Y182766D01*
X150266Y183891D01*
X149214Y184327D01*
Y185673D01*
X150266Y186109D01*
X151391Y187234D01*
X152000Y188704D01*
Y190296D01*
X151391Y191766D01*
X150266Y192891D01*
X148796Y193500D01*
D02*
G37*
G36*
X40796Y186500D02*
X39204D01*
X37734Y185891D01*
X36609Y184766D01*
X36000Y183296D01*
Y181704D01*
X36609Y180234D01*
X37734Y179109D01*
X39204Y178500D01*
X40796D01*
X42266Y179109D01*
X43391Y180234D01*
X44000Y181704D01*
Y183296D01*
X43391Y184766D01*
X42266Y185891D01*
X40796Y186500D01*
D02*
G37*
G36*
X40780Y176500D02*
X39188D01*
X37718Y175891D01*
X36593Y174766D01*
X35984Y173296D01*
Y171704D01*
X36593Y170234D01*
X37718Y169109D01*
X39188Y168500D01*
X40780D01*
X42250Y169109D01*
X43375Y170234D01*
X43984Y171704D01*
Y173296D01*
X43375Y174766D01*
X42250Y175891D01*
X40780Y176500D01*
D02*
G37*
G36*
Y166500D02*
X39188D01*
X37718Y165891D01*
X36593Y164766D01*
X35984Y163296D01*
Y161704D01*
X36593Y160234D01*
X37718Y159109D01*
X39188Y158500D01*
X40780D01*
X42250Y159109D01*
X43375Y160234D01*
X43984Y161704D01*
Y163296D01*
X43375Y164766D01*
X42250Y165891D01*
X40780Y166500D01*
D02*
G37*
G36*
X70796Y169000D02*
X69204D01*
X67734Y168391D01*
X66609Y167266D01*
X66000Y165796D01*
Y164204D01*
X66609Y162734D01*
X67270Y162073D01*
X67593Y161250D01*
X67270Y160427D01*
X66609Y159766D01*
X66000Y158296D01*
Y156704D01*
X66609Y155234D01*
X67734Y154109D01*
X69204Y153500D01*
X70796D01*
X72266Y154109D01*
X73391Y155234D01*
X74000Y156704D01*
Y158296D01*
X73391Y159766D01*
X72730Y160427D01*
X72407Y161250D01*
X72730Y162073D01*
X73391Y162734D01*
X74000Y164204D01*
Y165796D01*
X73391Y167266D01*
X72266Y168391D01*
X70796Y169000D01*
D02*
G37*
G36*
X-134204Y162750D02*
X-135796D01*
X-137266Y162141D01*
X-138391Y161016D01*
X-139000Y159546D01*
Y157954D01*
X-138391Y156484D01*
X-137266Y155359D01*
X-135796Y154750D01*
X-134204D01*
X-132734Y155359D01*
X-131609Y156484D01*
X-131000Y157954D01*
Y159546D01*
X-131609Y161016D01*
X-132734Y162141D01*
X-134204Y162750D01*
D02*
G37*
G36*
X-150956Y152841D02*
X-152547D01*
X-154017Y152232D01*
X-155143Y151107D01*
X-155752Y149637D01*
Y148046D01*
X-155143Y146576D01*
X-154017Y145450D01*
X-152547Y144841D01*
X-150956D01*
X-149486Y145450D01*
X-148361Y146576D01*
X-147752Y148046D01*
Y149637D01*
X-148361Y151107D01*
X-149486Y152232D01*
X-150956Y152841D01*
D02*
G37*
G36*
X-181184Y128027D02*
X-182775D01*
X-184245Y127418D01*
X-185371Y126293D01*
X-185979Y124823D01*
Y123231D01*
X-185371Y121761D01*
X-184245Y120636D01*
X-182775Y120027D01*
X-181184D01*
X-179714Y120636D01*
X-178589Y121761D01*
X-177980Y123231D01*
Y124823D01*
X-178589Y126293D01*
X-179714Y127418D01*
X-181184Y128027D01*
D02*
G37*
G36*
X198796Y133500D02*
X197204D01*
X195734Y132891D01*
X194609Y131766D01*
X194000Y130296D01*
Y128704D01*
X194609Y127234D01*
X195734Y126109D01*
X196786Y125673D01*
Y124327D01*
X195734Y123891D01*
X194609Y122766D01*
X194000Y121296D01*
Y119704D01*
X194609Y118234D01*
X195734Y117109D01*
X197204Y116500D01*
X198796D01*
X200266Y117109D01*
X201391Y118234D01*
X202000Y119704D01*
Y121296D01*
X201391Y122766D01*
X200266Y123891D01*
X199214Y124327D01*
Y125673D01*
X200266Y126109D01*
X201391Y127234D01*
X202000Y128704D01*
Y130296D01*
X201391Y131766D01*
X200266Y132891D01*
X198796Y133500D01*
D02*
G37*
G36*
X145796Y124000D02*
X144204D01*
X142734Y123391D01*
X141609Y122266D01*
X141000Y120796D01*
Y119204D01*
X141609Y117734D01*
X142734Y116609D01*
X144204Y116000D01*
X145796D01*
X147266Y116609D01*
X148391Y117734D01*
X149000Y119204D01*
Y120796D01*
X148391Y122266D01*
X147266Y123391D01*
X145796Y124000D01*
D02*
G37*
G36*
X44796Y111500D02*
X43204D01*
X41734Y110891D01*
X40609Y109766D01*
X40000Y108296D01*
Y106704D01*
X40609Y105234D01*
X41734Y104109D01*
X43204Y103500D01*
X44796D01*
X46266Y104109D01*
X47391Y105234D01*
X48000Y106704D01*
Y108296D01*
X47391Y109766D01*
X46266Y110891D01*
X44796Y111500D01*
D02*
G37*
G36*
X213796Y103500D02*
X212204D01*
X210734Y102891D01*
X209609Y101766D01*
X209000Y100296D01*
Y98704D01*
X209609Y97234D01*
X210734Y96109D01*
X211786Y95673D01*
Y94327D01*
X210734Y93891D01*
X209609Y92766D01*
X209000Y91296D01*
Y89704D01*
X209609Y88234D01*
X210734Y87109D01*
X212204Y86500D01*
X213796D01*
X215266Y87109D01*
X216391Y88234D01*
X217000Y89704D01*
Y91296D01*
X216391Y92766D01*
X215266Y93891D01*
X214214Y94327D01*
Y95673D01*
X215266Y96109D01*
X216391Y97234D01*
X217000Y98704D01*
Y100296D01*
X216391Y101766D01*
X215266Y102891D01*
X213796Y103500D01*
D02*
G37*
G36*
X10796Y76500D02*
X9204D01*
X7734Y75891D01*
X6609Y74766D01*
X6000Y73296D01*
Y71704D01*
X6609Y70234D01*
X7734Y69109D01*
X9204Y68500D01*
X10796D01*
X12266Y69109D01*
X13391Y70234D01*
X14000Y71704D01*
Y73296D01*
X13391Y74766D01*
X12266Y75891D01*
X10796Y76500D01*
D02*
G37*
G36*
X-161204Y74000D02*
X-162796D01*
X-164266Y73391D01*
X-165391Y72266D01*
X-166000Y70796D01*
Y69204D01*
X-165391Y67734D01*
X-164266Y66609D01*
X-162796Y66000D01*
X-161204D01*
X-159734Y66609D01*
X-158609Y67734D01*
X-158000Y69204D01*
Y70796D01*
X-158609Y72266D01*
X-159734Y73391D01*
X-161204Y74000D01*
D02*
G37*
G36*
X201251Y82550D02*
X198749D01*
X196333Y81903D01*
X194167Y80652D01*
X192398Y78883D01*
X191147Y76717D01*
X190500Y74301D01*
Y71799D01*
X191147Y69383D01*
X192398Y67217D01*
X194167Y65448D01*
X196333Y64197D01*
X198749Y63550D01*
X201251D01*
X203667Y64197D01*
X205833Y65448D01*
X207602Y67217D01*
X208853Y69383D01*
X209500Y71799D01*
Y74301D01*
X208853Y76717D01*
X207602Y78883D01*
X205833Y80652D01*
X203667Y81903D01*
X201251Y82550D01*
D02*
G37*
G36*
X-198749D02*
X-201251D01*
X-203667Y81903D01*
X-205833Y80652D01*
X-207602Y78883D01*
X-208853Y76717D01*
X-209500Y74301D01*
Y71799D01*
X-208853Y69383D01*
X-207602Y67217D01*
X-205833Y65448D01*
X-203667Y64197D01*
X-201251Y63550D01*
X-198749D01*
X-196333Y64197D01*
X-194167Y65448D01*
X-192398Y67217D01*
X-191147Y69383D01*
X-190500Y71799D01*
Y74301D01*
X-191147Y76717D01*
X-192398Y78883D01*
X-194167Y80652D01*
X-196333Y81903D01*
X-198749Y82550D01*
D02*
G37*
G36*
X25796Y64000D02*
X24204D01*
X22734Y63391D01*
X21609Y62266D01*
X21000Y60796D01*
Y59204D01*
X21609Y57734D01*
X22734Y56609D01*
X24204Y56000D01*
X25796D01*
X27266Y56609D01*
X28391Y57734D01*
X29000Y59204D01*
Y60796D01*
X28391Y62266D01*
X27266Y63391D01*
X25796Y64000D01*
D02*
G37*
G36*
X-185355Y49450D02*
X-187345D01*
X-187828Y49250D01*
X-212172D01*
X-212656Y49450D01*
X-214645D01*
X-215128Y49250D01*
X-231750D01*
X-232528Y48928D01*
X-232850Y48150D01*
Y28050D01*
X-232528Y27272D01*
X-231750Y26950D01*
X-215128D01*
X-214645Y26750D01*
X-212656D01*
X-212172Y26950D01*
X-187828D01*
X-187345Y26750D01*
X-185355D01*
X-184872Y26950D01*
X-168250D01*
X-167472Y27272D01*
X-167150Y28050D01*
Y48150D01*
X-167472Y48928D01*
X-168250Y49250D01*
X-184872D01*
X-185355Y49450D01*
D02*
G37*
G36*
X-19204Y44000D02*
X-20796D01*
X-22266Y43391D01*
X-23391Y42266D01*
X-24000Y40796D01*
Y39204D01*
X-23391Y37734D01*
X-22266Y36609D01*
X-20796Y36000D01*
X-19204D01*
X-17734Y36609D01*
X-16609Y37734D01*
X-16000Y39204D01*
Y40796D01*
X-16609Y42266D01*
X-17734Y43391D01*
X-19204Y44000D01*
D02*
G37*
G36*
X110796Y34000D02*
X109204D01*
X107734Y33391D01*
X106609Y32266D01*
X106000Y30796D01*
Y29204D01*
X106609Y27734D01*
X107734Y26609D01*
X109204Y26000D01*
X110796D01*
X112266Y26609D01*
X113391Y27734D01*
X114000Y29204D01*
Y30796D01*
X113391Y32266D01*
X112266Y33391D01*
X110796Y34000D01*
D02*
G37*
G36*
X10796D02*
X9204D01*
X7734Y33391D01*
X6609Y32266D01*
X6000Y30796D01*
Y29204D01*
X6609Y27734D01*
X7734Y26609D01*
X9204Y26000D01*
X10796D01*
X12266Y26609D01*
X13391Y27734D01*
X14000Y29204D01*
Y30796D01*
X13391Y32266D01*
X12266Y33391D01*
X10796Y34000D01*
D02*
G37*
G36*
X-185355Y11350D02*
X-187345D01*
X-187828Y11150D01*
X-212172D01*
X-212656Y11350D01*
X-214645D01*
X-215128Y11150D01*
X-231750D01*
X-232528Y10828D01*
X-232850Y10050D01*
Y-10050D01*
X-232528Y-10828D01*
X-231750Y-11150D01*
X-215128D01*
X-214645Y-11350D01*
X-212656D01*
X-212172Y-11150D01*
X-187828D01*
X-187345Y-11350D01*
X-185355D01*
X-184872Y-11150D01*
X-168250D01*
X-167472Y-10828D01*
X-167150Y-10050D01*
Y10050D01*
X-167472Y10828D01*
X-168250Y11150D01*
X-184872D01*
X-185355Y11350D01*
D02*
G37*
G36*
X25796Y19000D02*
X24204D01*
X22734Y18391D01*
X21609Y17266D01*
X21000Y15796D01*
Y14204D01*
X21609Y12734D01*
X22734Y11609D01*
X24204Y11000D01*
X25796D01*
X27266Y11609D01*
X28391Y12734D01*
X29000Y14204D01*
Y15796D01*
X28391Y17266D01*
X27266Y18391D01*
X25796Y19000D01*
D02*
G37*
G36*
X-19204Y-1000D02*
X-20796D01*
X-22266Y-1609D01*
X-23391Y-2734D01*
X-24000Y-4204D01*
Y-5796D01*
X-23391Y-7266D01*
X-22266Y-8391D01*
X-20796Y-9000D01*
X-19204D01*
X-17734Y-8391D01*
X-16609Y-7266D01*
X-16000Y-5796D01*
Y-4204D01*
X-16609Y-2734D01*
X-17734Y-1609D01*
X-19204Y-1000D01*
D02*
G37*
G36*
X-61704Y-2500D02*
X-63296D01*
X-64766Y-3109D01*
X-65891Y-4234D01*
X-66500Y-5704D01*
Y-7296D01*
X-65891Y-8766D01*
X-64766Y-9891D01*
X-63296Y-10500D01*
X-61704D01*
X-60234Y-9891D01*
X-59109Y-8766D01*
X-58500Y-7296D01*
Y-5704D01*
X-59109Y-4234D01*
X-60234Y-3109D01*
X-61704Y-2500D01*
D02*
G37*
G36*
X-96454D02*
X-98046D01*
X-99516Y-3109D01*
X-100641Y-4234D01*
X-101250Y-5704D01*
Y-7296D01*
X-100641Y-8766D01*
X-99516Y-9891D01*
X-98046Y-10500D01*
X-96454D01*
X-94984Y-9891D01*
X-93859Y-8766D01*
X-93250Y-7296D01*
Y-5704D01*
X-93859Y-4234D01*
X-94984Y-3109D01*
X-96454Y-2500D01*
D02*
G37*
G36*
X163296Y-1000D02*
X161704D01*
X160234Y-1609D01*
X159109Y-2734D01*
X158500Y-4204D01*
Y-5796D01*
X159109Y-7266D01*
X159770Y-7927D01*
X160093Y-8750D01*
X159770Y-9573D01*
X159109Y-10234D01*
X158500Y-11704D01*
Y-13296D01*
X159109Y-14766D01*
X160234Y-15891D01*
X161704Y-16500D01*
X163296D01*
X164766Y-15891D01*
X165891Y-14766D01*
X166500Y-13296D01*
Y-11704D01*
X165891Y-10234D01*
X165230Y-9573D01*
X164907Y-8750D01*
X165230Y-7927D01*
X165891Y-7266D01*
X166500Y-5796D01*
Y-4204D01*
X165891Y-2734D01*
X164766Y-1609D01*
X163296Y-1000D01*
D02*
G37*
G36*
X113081Y-21000D02*
X111490D01*
X110020Y-21609D01*
X108895Y-22734D01*
X108286Y-24204D01*
Y-25796D01*
X108701Y-26798D01*
Y-31230D01*
X105270Y-34660D01*
X104000Y-34204D01*
X103391Y-32734D01*
X102266Y-31609D01*
X100796Y-31000D01*
X99204D01*
X97734Y-31609D01*
X96609Y-32734D01*
X96000Y-34204D01*
Y-35796D01*
X96609Y-37266D01*
X97734Y-38391D01*
X99204Y-39000D01*
X99660Y-40270D01*
X86236Y-53694D01*
X85702Y-53915D01*
X68985D01*
X47535Y-32465D01*
X46372Y-31688D01*
X45000Y-31415D01*
X-35214D01*
X-36586Y-31688D01*
X-37749Y-32465D01*
X-61478Y-56194D01*
X-62012Y-56415D01*
X-117988D01*
X-118990Y-56000D01*
X-120581D01*
X-122051Y-56609D01*
X-123177Y-57734D01*
X-123786Y-59204D01*
Y-60796D01*
X-123177Y-62266D01*
X-122734Y-62709D01*
Y-63891D01*
X-159628Y-100786D01*
X-160796D01*
X-162266Y-101395D01*
X-163391Y-102520D01*
X-164000Y-103990D01*
Y-105581D01*
X-163391Y-107051D01*
X-162266Y-108177D01*
X-160796Y-108786D01*
X-159204D01*
X-157734Y-108177D01*
X-156609Y-107051D01*
X-156000Y-105581D01*
Y-104413D01*
X-118354Y-66768D01*
X-117798Y-65936D01*
X-117603Y-64954D01*
Y-63585D01*
X-62012D01*
X-61010Y-64000D01*
X-59419D01*
X-57949Y-63391D01*
X-56823Y-62266D01*
X-56408Y-61264D01*
X-46309Y-51165D01*
X-44879Y-51530D01*
X-44527Y-52380D01*
X-43402Y-53505D01*
X-41932Y-54114D01*
X-40340D01*
X-38870Y-53505D01*
X-37745Y-52380D01*
X-37136Y-50910D01*
Y-49318D01*
X-37745Y-47848D01*
X-38870Y-46723D01*
X-39720Y-46371D01*
X-40085Y-44941D01*
X-33730Y-38585D01*
X43515D01*
X64965Y-60035D01*
X66128Y-60812D01*
X67500Y-61085D01*
X85702D01*
X86704Y-61500D01*
X88296D01*
X89766Y-60891D01*
X90891Y-59766D01*
X91306Y-58764D01*
X114820Y-35249D01*
X115598Y-34086D01*
X115871Y-32714D01*
Y-26798D01*
X116286Y-25796D01*
Y-24204D01*
X115677Y-22734D01*
X114551Y-21609D01*
X113081Y-21000D01*
D02*
G37*
G36*
X-185355Y-26750D02*
X-187345D01*
X-189182Y-27511D01*
X-190589Y-28918D01*
X-191350Y-30755D01*
Y-32745D01*
X-190589Y-34582D01*
X-189182Y-35989D01*
X-187345Y-36750D01*
X-185355D01*
X-183518Y-35989D01*
X-182111Y-34582D01*
X-181350Y-32745D01*
Y-30755D01*
X-182111Y-28918D01*
X-183518Y-27511D01*
X-185355Y-26750D01*
D02*
G37*
G36*
X-212656D02*
X-214645D01*
X-216482Y-27511D01*
X-217889Y-28918D01*
X-218650Y-30755D01*
Y-32745D01*
X-217889Y-34582D01*
X-216482Y-35989D01*
X-214645Y-36750D01*
X-212656D01*
X-210818Y-35989D01*
X-209411Y-34582D01*
X-208650Y-32745D01*
Y-30755D01*
X-209411Y-28918D01*
X-210818Y-27511D01*
X-212656Y-26750D01*
D02*
G37*
G36*
X63296Y-33500D02*
X61704D01*
X60234Y-34109D01*
X59109Y-35234D01*
X58500Y-36704D01*
Y-38296D01*
X59109Y-39766D01*
X60234Y-40891D01*
X61704Y-41500D01*
X63296D01*
X64766Y-40891D01*
X64827Y-40830D01*
X66309Y-41144D01*
X66609Y-41867D01*
X67734Y-42993D01*
X69204Y-43601D01*
X70796D01*
X72266Y-42993D01*
X73391Y-41867D01*
X74000Y-40397D01*
Y-38806D01*
X73391Y-37336D01*
X72266Y-36210D01*
X70796Y-35602D01*
X69204D01*
X67734Y-36210D01*
X67673Y-36271D01*
X66191Y-35958D01*
X65891Y-35234D01*
X64766Y-34109D01*
X63296Y-33500D01*
D02*
G37*
G36*
X-63188Y-16234D02*
X-66812D01*
X-70314Y-17172D01*
X-73453Y-18984D01*
X-76016Y-21548D01*
X-77828Y-24687D01*
X-78766Y-28188D01*
Y-31812D01*
X-77828Y-35313D01*
X-76016Y-38452D01*
X-73453Y-41016D01*
X-70314Y-42828D01*
X-66812Y-43766D01*
X-63188D01*
X-59686Y-42828D01*
X-56547Y-41016D01*
X-53984Y-38452D01*
X-52172Y-35313D01*
X-51234Y-31812D01*
Y-28188D01*
X-52172Y-24687D01*
X-53984Y-21548D01*
X-56547Y-18984D01*
X-59686Y-17172D01*
X-63188Y-16234D01*
D02*
G37*
G36*
X-23704Y-41000D02*
X-25296D01*
X-26766Y-41609D01*
X-27891Y-42734D01*
X-28500Y-44204D01*
Y-45796D01*
X-27891Y-47266D01*
X-26766Y-48391D01*
X-25296Y-49000D01*
X-23704D01*
X-22234Y-48391D01*
X-21109Y-47266D01*
X-20500Y-45796D01*
Y-44204D01*
X-21109Y-42734D01*
X-22234Y-41609D01*
X-23704Y-41000D01*
D02*
G37*
G36*
X-3169Y-41965D02*
X-4760D01*
X-6230Y-42573D01*
X-7355Y-43699D01*
X-7965Y-45169D01*
Y-46760D01*
X-7355Y-48230D01*
X-6230Y-49356D01*
X-4760Y-49964D01*
X-3169D01*
X-1699Y-49356D01*
X-573Y-48230D01*
X36Y-46760D01*
Y-45169D01*
X-573Y-43699D01*
X-1699Y-42573D01*
X-3169Y-41965D01*
D02*
G37*
G36*
X-12704Y-51000D02*
X-14296D01*
X-15766Y-51609D01*
X-16891Y-52734D01*
X-17500Y-54204D01*
Y-55796D01*
X-16891Y-57266D01*
X-15766Y-58391D01*
X-14296Y-59000D01*
X-12704D01*
X-11234Y-58391D01*
X-10109Y-57266D01*
X-9500Y-55796D01*
Y-54204D01*
X-10109Y-52734D01*
X-11234Y-51609D01*
X-12704Y-51000D01*
D02*
G37*
G36*
X-185355Y-52150D02*
X-187345D01*
X-189182Y-52911D01*
X-190589Y-54318D01*
X-191350Y-56155D01*
Y-58145D01*
X-190589Y-59982D01*
X-189182Y-61389D01*
X-187345Y-62150D01*
X-185355D01*
X-183518Y-61389D01*
X-182111Y-59982D01*
X-181350Y-58145D01*
Y-56155D01*
X-182111Y-54318D01*
X-183518Y-52911D01*
X-185355Y-52150D01*
D02*
G37*
G36*
X-212656D02*
X-214645D01*
X-216482Y-52911D01*
X-217889Y-54318D01*
X-218650Y-56155D01*
Y-58145D01*
X-217889Y-59982D01*
X-216482Y-61389D01*
X-214645Y-62150D01*
X-212656D01*
X-210818Y-61389D01*
X-209411Y-59982D01*
X-208650Y-58145D01*
Y-56155D01*
X-209411Y-54318D01*
X-210818Y-52911D01*
X-212656Y-52150D01*
D02*
G37*
G36*
X52921Y-57500D02*
X51329D01*
X49859Y-58109D01*
X48734Y-59234D01*
X48125Y-60704D01*
Y-62296D01*
X48734Y-63766D01*
X49859Y-64891D01*
X51329Y-65500D01*
X52921D01*
X54391Y-64891D01*
X55516Y-63766D01*
X56125Y-62296D01*
Y-60704D01*
X55516Y-59234D01*
X54391Y-58109D01*
X52921Y-57500D01*
D02*
G37*
G36*
X-24204Y-68500D02*
X-25796D01*
X-27266Y-69109D01*
X-28391Y-70234D01*
X-29000Y-71704D01*
Y-73296D01*
X-28391Y-74766D01*
X-27266Y-75891D01*
X-25796Y-76500D01*
X-24204D01*
X-22734Y-75891D01*
X-21609Y-74766D01*
X-21000Y-73296D01*
Y-71704D01*
X-21609Y-70234D01*
X-22734Y-69109D01*
X-24204Y-68500D01*
D02*
G37*
G36*
X53296Y-72000D02*
X51704D01*
X50234Y-72609D01*
X49109Y-73734D01*
X48500Y-75204D01*
Y-76796D01*
X49109Y-78266D01*
X50234Y-79391D01*
X51704Y-80000D01*
X53296D01*
X54766Y-79391D01*
X55891Y-78266D01*
X56500Y-76796D01*
Y-75204D01*
X55891Y-73734D01*
X54766Y-72609D01*
X53296Y-72000D01*
D02*
G37*
G36*
X1147Y-74005D02*
X-445D01*
X-1915Y-74614D01*
X-3040Y-75739D01*
X-3649Y-77209D01*
Y-78801D01*
X-3040Y-80271D01*
X-1915Y-81396D01*
X-445Y-82005D01*
X1147D01*
X2617Y-81396D01*
X3742Y-80271D01*
X4351Y-78801D01*
Y-77209D01*
X3742Y-75739D01*
X2617Y-74614D01*
X1147Y-74005D01*
D02*
G37*
G36*
X201251Y-63550D02*
X198749D01*
X196333Y-64197D01*
X194167Y-65448D01*
X192398Y-67217D01*
X191147Y-69383D01*
X190500Y-71799D01*
Y-74301D01*
X191147Y-76717D01*
X192398Y-78883D01*
X194167Y-80652D01*
X196333Y-81903D01*
X198749Y-82550D01*
X201251D01*
X203667Y-81903D01*
X205833Y-80652D01*
X207602Y-78883D01*
X208853Y-76717D01*
X209500Y-74301D01*
Y-71799D01*
X208853Y-69383D01*
X207602Y-67217D01*
X205833Y-65448D01*
X203667Y-64197D01*
X201251Y-63550D01*
D02*
G37*
G36*
X-198749D02*
X-201251D01*
X-203667Y-64197D01*
X-205833Y-65448D01*
X-207602Y-67217D01*
X-208853Y-69383D01*
X-209500Y-71799D01*
Y-74301D01*
X-208853Y-76717D01*
X-207602Y-78883D01*
X-205833Y-80652D01*
X-203667Y-81903D01*
X-201251Y-82550D01*
X-198749D01*
X-196333Y-81903D01*
X-194167Y-80652D01*
X-192398Y-78883D01*
X-191147Y-76717D01*
X-190500Y-74301D01*
Y-71799D01*
X-191147Y-69383D01*
X-192398Y-67217D01*
X-194167Y-65448D01*
X-196333Y-64197D01*
X-198749Y-63550D01*
D02*
G37*
G36*
X165796Y-75893D02*
X164204D01*
X162734Y-76502D01*
X161609Y-77627D01*
X161000Y-79097D01*
Y-80688D01*
X161609Y-82159D01*
X162381Y-82931D01*
X162567Y-83807D01*
X162346Y-84497D01*
X161523Y-85320D01*
X160914Y-86790D01*
Y-88381D01*
X161523Y-89851D01*
X161653Y-89980D01*
X160933Y-91057D01*
X160796Y-91000D01*
X159204D01*
X157734Y-91609D01*
X156609Y-92734D01*
X156000Y-94204D01*
Y-95796D01*
X156609Y-97266D01*
X157734Y-98391D01*
X159204Y-99000D01*
X160796D01*
X162266Y-98391D01*
X163391Y-97266D01*
X164000Y-95796D01*
Y-94204D01*
X163391Y-92734D01*
X163262Y-92605D01*
X163981Y-91529D01*
X164119Y-91586D01*
X165710D01*
X167180Y-90976D01*
X168306Y-89851D01*
X168915Y-88381D01*
Y-86790D01*
X168306Y-85320D01*
X167533Y-84548D01*
X167348Y-83671D01*
X167569Y-82981D01*
X168391Y-82159D01*
X169000Y-80688D01*
Y-79097D01*
X168391Y-77627D01*
X167266Y-76502D01*
X165796Y-75893D01*
D02*
G37*
G36*
X72780Y-88500D02*
X71188D01*
X69718Y-89109D01*
X68593Y-90234D01*
X67984Y-91704D01*
Y-93296D01*
X68593Y-94766D01*
X69718Y-95891D01*
X70912Y-96385D01*
X71311Y-97014D01*
X71491Y-97770D01*
X71000Y-98954D01*
Y-100546D01*
X71609Y-102016D01*
X72734Y-103141D01*
X74204Y-103750D01*
X75796D01*
X77266Y-103141D01*
X78391Y-102016D01*
X79000Y-100546D01*
Y-98954D01*
X78391Y-97484D01*
X77266Y-96359D01*
X76072Y-95865D01*
X75673Y-95236D01*
X75493Y-94480D01*
X75984Y-93296D01*
Y-91704D01*
X75375Y-90234D01*
X74250Y-89109D01*
X72780Y-88500D01*
D02*
G37*
G36*
X120796Y-98500D02*
X119204D01*
X117734Y-99109D01*
X116609Y-100234D01*
X116000Y-101704D01*
Y-103296D01*
X116609Y-104766D01*
X117734Y-105891D01*
X119204Y-106500D01*
X120796D01*
X122266Y-105891D01*
X123391Y-104766D01*
X124000Y-103296D01*
Y-101704D01*
X123391Y-100234D01*
X122266Y-99109D01*
X120796Y-98500D01*
D02*
G37*
G36*
X201247Y-101230D02*
X198753D01*
X196448Y-102185D01*
X194685Y-103948D01*
X193730Y-106253D01*
Y-108747D01*
X194685Y-111052D01*
X196448Y-112815D01*
X198753Y-113770D01*
X201247D01*
X203552Y-112815D01*
X205315Y-111052D01*
X206270Y-108747D01*
Y-106253D01*
X205315Y-103948D01*
X203552Y-102185D01*
X201247Y-101230D01*
D02*
G37*
G36*
X-101704Y-96000D02*
X-103296D01*
X-104766Y-96609D01*
X-105891Y-97734D01*
X-106500Y-99204D01*
Y-100796D01*
X-105891Y-102266D01*
X-105230Y-102927D01*
X-104907Y-103750D01*
X-105230Y-104573D01*
X-105891Y-105234D01*
X-106500Y-106704D01*
Y-108296D01*
X-105891Y-109766D01*
X-105230Y-110427D01*
X-104907Y-111250D01*
X-105230Y-112073D01*
X-105891Y-112734D01*
X-106500Y-114204D01*
Y-115796D01*
X-105891Y-117266D01*
X-104766Y-118391D01*
X-103296Y-119000D01*
X-101704D01*
X-100234Y-118391D01*
X-99109Y-117266D01*
X-98500Y-115796D01*
Y-114204D01*
X-99109Y-112734D01*
X-99770Y-112073D01*
X-100093Y-111250D01*
X-99770Y-110427D01*
X-99109Y-109766D01*
X-98500Y-108296D01*
Y-106704D01*
X-99109Y-105234D01*
X-99770Y-104573D01*
X-100093Y-103750D01*
X-99770Y-102927D01*
X-99109Y-102266D01*
X-98500Y-100796D01*
Y-99204D01*
X-99109Y-97734D01*
X-100234Y-96609D01*
X-101704Y-96000D01*
D02*
G37*
G36*
Y-121000D02*
X-103296D01*
X-104766Y-121609D01*
X-105891Y-122734D01*
X-106500Y-124204D01*
Y-125796D01*
X-105891Y-127266D01*
X-105230Y-127927D01*
X-104907Y-128750D01*
X-105230Y-129573D01*
X-105891Y-130234D01*
X-106500Y-131704D01*
Y-133296D01*
X-105891Y-134766D01*
X-104766Y-135891D01*
X-103296Y-136500D01*
X-101704D01*
X-100234Y-135891D01*
X-99109Y-134766D01*
X-98500Y-133296D01*
Y-131704D01*
X-99109Y-130234D01*
X-99770Y-129573D01*
X-100093Y-128750D01*
X-99770Y-127927D01*
X-99109Y-127266D01*
X-98500Y-125796D01*
Y-124204D01*
X-99109Y-122734D01*
X-100234Y-121609D01*
X-101704Y-121000D01*
D02*
G37*
G36*
X140796Y-138500D02*
X139204D01*
X137734Y-139109D01*
X136609Y-140234D01*
X136000Y-141704D01*
Y-143296D01*
X136609Y-144766D01*
X137734Y-145891D01*
X139204Y-146500D01*
X140796D01*
X142266Y-145891D01*
X143391Y-144766D01*
X144000Y-143296D01*
Y-141704D01*
X143391Y-140234D01*
X142266Y-139109D01*
X140796Y-138500D01*
D02*
G37*
G36*
X128296D02*
X126704D01*
X125234Y-139109D01*
X124109Y-140234D01*
X123500Y-141704D01*
Y-143296D01*
X124109Y-144766D01*
X125234Y-145891D01*
X126704Y-146500D01*
X128296D01*
X129766Y-145891D01*
X130891Y-144766D01*
X131500Y-143296D01*
Y-141704D01*
X130891Y-140234D01*
X129766Y-139109D01*
X128296Y-138500D01*
D02*
G37*
G36*
X-161704Y-136000D02*
X-163296D01*
X-164766Y-136609D01*
X-165891Y-137734D01*
X-166500Y-139204D01*
Y-140796D01*
X-165891Y-142266D01*
X-165230Y-142927D01*
X-164907Y-143750D01*
X-165230Y-144573D01*
X-165891Y-145234D01*
X-166500Y-146704D01*
Y-148296D01*
X-165891Y-149766D01*
X-164766Y-150891D01*
X-163296Y-151500D01*
X-161704D01*
X-160234Y-150891D01*
X-159109Y-149766D01*
X-158500Y-148296D01*
Y-146704D01*
X-159109Y-145234D01*
X-159770Y-144573D01*
X-160093Y-143750D01*
X-159770Y-142927D01*
X-159109Y-142266D01*
X-158500Y-140796D01*
Y-139204D01*
X-159109Y-137734D01*
X-160234Y-136609D01*
X-161704Y-136000D01*
D02*
G37*
G36*
X796Y-171000D02*
X-796D01*
X-2266Y-171609D01*
X-3391Y-172734D01*
X-4000Y-174204D01*
Y-175796D01*
X-3391Y-177266D01*
X-2266Y-178391D01*
X-796Y-179000D01*
X796D01*
X2266Y-178391D01*
X3391Y-177266D01*
X4000Y-175796D01*
Y-174204D01*
X3391Y-172734D01*
X2266Y-171609D01*
X796Y-171000D01*
D02*
G37*
G36*
X45796Y-168500D02*
X44204D01*
X42734Y-169109D01*
X41609Y-170234D01*
X41000Y-171704D01*
Y-172327D01*
X40826Y-173326D01*
X39827Y-173500D01*
X39204D01*
X37734Y-174109D01*
X36609Y-175234D01*
X36000Y-176704D01*
Y-178296D01*
X36609Y-179766D01*
X37734Y-180891D01*
X39204Y-181500D01*
X40796D01*
X42266Y-180891D01*
X42268Y-180888D01*
X42465Y-180874D01*
X43692Y-181260D01*
X44109Y-182266D01*
X45234Y-183391D01*
X46704Y-184000D01*
X48296D01*
X49766Y-183391D01*
X50891Y-182266D01*
X51500Y-180796D01*
Y-179204D01*
X50891Y-177734D01*
X49766Y-176609D01*
X48760Y-176192D01*
X48374Y-174965D01*
X48388Y-174768D01*
X48391Y-174766D01*
X49000Y-173296D01*
Y-171704D01*
X48391Y-170234D01*
X47266Y-169109D01*
X45796Y-168500D01*
D02*
G37*
%LPD*%
G36*
X-168250Y28050D02*
X-231750D01*
Y48150D01*
X-168250D01*
Y28050D01*
D02*
G37*
G36*
Y-10050D02*
X-231750D01*
Y10050D01*
X-168250D01*
Y-10050D01*
D02*
G37*
D10*
X-117254Y122569D02*
G03*
X-117255Y122513I1999J-56D01*
G01*
X115810Y39857D02*
X130166Y25500D01*
X219653D02*
X225000Y20153D01*
X130166Y25500D02*
X219653D01*
X115810Y39857D02*
Y84750D01*
X225000Y-76500D02*
Y20153D01*
X211500Y-90000D02*
X225000Y-76500D01*
X111595Y88965D02*
X115810Y84750D01*
X23535Y88965D02*
X111595D01*
X19571Y85000D02*
X23535Y88965D01*
X-42500Y85000D02*
X19571D01*
X-52500Y95000D02*
X-42500Y85000D01*
X-52500Y95000D02*
Y132500D01*
X-47500Y137500D01*
X-148000Y7000D02*
X-138500Y-2500D01*
X-113000Y-2000D02*
Y67000D01*
X-119484Y18016D02*
Y69486D01*
X-122500Y35000D02*
Y70735D01*
X-126000Y47312D02*
Y71500D01*
X-121984Y75516D01*
X-109920Y70080D02*
Y98080D01*
X-118968Y74267D02*
Y101828D01*
X-122500Y70735D02*
X-118968Y74267D01*
X-113000Y67000D02*
X-109920Y70080D01*
X-116016Y6913D02*
Y68249D01*
X-121984Y75516D02*
Y103077D01*
X-116016Y68249D02*
X-112936Y71329D01*
X-115952Y73018D02*
Y100578D01*
X-112936Y71329D02*
Y99329D01*
X-119484Y69486D02*
X-115952Y73018D01*
X-113000Y167000D02*
Y194000D01*
X-91516Y215484D02*
X19516D01*
X-113000Y194000D02*
X-91516Y215484D01*
X-94265Y223000D02*
X23000D01*
X-162000Y162000D02*
X-155265D01*
X-98265Y219000D02*
X-94265Y223000D01*
X-155265Y162000D02*
X-98265Y219000D01*
X22000Y164500D02*
Y213000D01*
X19516Y215484D02*
X22000Y213000D01*
X15000Y157500D02*
X22000Y164500D01*
X-117254Y122569D02*
X-117016Y131000D01*
Y162984D02*
X-113000Y167000D01*
X-117016Y131000D02*
Y162984D01*
X-114000Y161000D02*
X-102500Y172500D01*
X-114000Y116102D02*
Y161000D01*
X-107968Y156603D02*
X-102071Y162500D01*
X-110984Y114077D02*
Y157852D01*
X-101336Y167500D01*
X-107968Y112828D02*
Y156603D01*
X-167000Y157000D02*
X-162000Y162000D01*
X-167000Y129406D02*
Y157000D01*
X92050Y196000D02*
X94550Y193500D01*
X50000Y196000D02*
X92050D01*
X94550Y193500D02*
X94722D01*
X23000Y223000D02*
X50000Y196000D01*
X-101336Y167500D02*
X-100000D01*
X-104952Y152548D02*
X-100000Y157500D01*
X-102071Y162500D02*
X-75064D01*
X-121984Y103077D02*
X-110984Y114077D01*
X-104952Y111579D02*
Y152548D01*
X-118968Y101828D02*
X-107968Y112828D01*
X-129525Y100577D02*
X-114000Y116102D01*
X-109920Y98080D02*
X-94952Y113048D01*
X-115952Y100578D02*
X-104952Y111579D01*
X-132541Y101826D02*
X-117255Y117112D01*
X-99952Y112313D02*
Y147741D01*
X-117255Y117112D02*
Y122513D01*
X-112936Y99329D02*
X-99952Y112313D01*
X-94952Y113048D02*
Y145718D01*
X-137168Y90434D02*
X-129525Y98077D01*
X-137168Y87935D02*
Y90434D01*
X-144426Y80677D02*
X-137168Y87935D01*
X-129525Y98077D02*
Y100577D01*
X-155143Y82072D02*
X-154215Y83000D01*
X-145000Y78000D02*
X-144426Y78574D01*
X-140184Y91684D02*
X-132541Y99327D01*
X-146368Y83000D02*
X-140184Y89184D01*
X-144426Y78574D02*
Y80677D01*
X-132541Y99327D02*
Y101826D01*
X-140184Y89184D02*
Y91684D01*
X-154215Y83000D02*
X-146368D01*
X-94952Y145718D02*
X-88170Y152500D01*
X-32500Y92500D02*
X-10000Y115000D01*
X93000D01*
X-174000Y122406D02*
X-167000Y129406D01*
X-174000Y115000D02*
Y122406D01*
X-102500Y172500D02*
X-75064D01*
X-88170Y152500D02*
X-75064D01*
X-127500Y45812D02*
X-126000Y47312D01*
X-127500Y45000D02*
Y45812D01*
X-133000Y75929D02*
Y87000D01*
X-127500Y92500D01*
X-151779Y57150D02*
X-133000Y75929D01*
X-127500Y10000D02*
X-119484Y18016D01*
X-125429Y-2500D02*
X-116016Y6913D01*
X-141000Y-30000D02*
X-113000Y-2000D01*
X-138500Y-2500D02*
X-125429D01*
X-125000Y32500D02*
X-122500Y35000D01*
X-138500Y32500D02*
X-125000D01*
X-148000Y42000D02*
X-138500Y32500D01*
X-186350Y57150D02*
X-151779D01*
D74*
X21278Y219000D02*
X47794Y192484D01*
X99000Y190000D02*
X100250Y191250D01*
X129771Y165000D02*
X157000D01*
X99000Y162000D02*
X126771D01*
X99000D02*
Y190000D01*
X126771Y162000D02*
X129771Y165000D01*
X93000Y158222D02*
X99956Y151266D01*
X93000Y158222D02*
Y186484D01*
X87000Y192484D02*
X93000Y186484D01*
X-95722Y226516D02*
X25484D01*
X-156173Y158484D02*
X-153809D01*
X-93293Y219000D01*
X-125238Y197000D02*
X-95722Y226516D01*
X-93293Y219000D02*
X21278D01*
X-137028Y197000D02*
X-125238D01*
X-159539Y155118D02*
X-156173Y158484D01*
X-160080Y155118D02*
X-159539D01*
X-196178Y137850D02*
X-137028Y197000D01*
X96028Y200000D02*
X100250Y195778D01*
X25484Y226516D02*
X52000Y200000D01*
X96028D01*
X47794Y192484D02*
X87000D01*
X99956Y151266D02*
X147595D01*
X168361Y130500D02*
X175778D01*
X147595Y151266D02*
X168361Y130500D01*
X157000Y165000D02*
X179000Y143000D01*
Y140180D02*
Y143000D01*
Y140180D02*
X190032Y129148D01*
Y102353D02*
Y129148D01*
X173500Y140000D02*
X186000Y127500D01*
Y113458D02*
Y127500D01*
X182000Y94320D02*
X190032Y102353D01*
X140000Y45000D02*
X182000Y87000D01*
Y94320D01*
X181984Y111794D02*
Y124294D01*
X186000Y104000D02*
Y105542D01*
X186016Y105558D02*
Y113442D01*
X186000Y105542D02*
X186016Y105558D01*
X186000Y113458D02*
X186016Y113442D01*
X182000Y107222D02*
Y111778D01*
X181984Y111794D02*
X182000Y111778D01*
X174500Y92500D02*
X186000Y104000D01*
X174993Y100214D02*
X182000Y107222D01*
X175778Y130500D02*
X181984Y124294D01*
X100250Y191250D02*
Y195778D01*
X-196178Y92120D02*
Y137850D01*
X160000Y100214D02*
X174993D01*
X20000Y92500D02*
X174500D01*
X-120168Y-64954D02*
Y-60383D01*
X-160000Y-104786D02*
X-120168Y-64954D01*
Y-60383D02*
X-119786Y-60000D01*
D81*
X200000Y-73050D02*
D03*
Y73050D02*
D03*
X-200000Y-73050D02*
D03*
Y73050D02*
D03*
X200000Y-73050D02*
D03*
Y73050D02*
D03*
X-200000Y-73050D02*
D03*
Y73050D02*
D03*
D83*
X-65000Y-30000D02*
D03*
X-115000D02*
D03*
D84*
X-145000Y-130000D02*
D03*
X-35000D02*
D03*
D85*
X-155143Y82072D02*
D03*
X-165286Y89715D02*
D03*
X-147500Y92214D02*
D03*
X-157643Y99857D02*
D03*
X-139857Y102357D02*
D03*
X-150000Y110000D02*
D03*
X-132214Y112500D02*
D03*
X-142357Y120143D02*
D03*
X-124571Y122642D02*
D03*
D86*
X-134714Y130285D02*
D03*
D87*
X-12500Y235000D02*
D03*
X27500Y210000D02*
D03*
X60000Y215000D02*
D03*
X40000Y-177500D02*
D03*
X-60000Y24000D02*
D03*
X-7500Y-110000D02*
D03*
X10000Y72500D02*
D03*
X-2500Y92500D02*
D03*
X-17500D02*
D03*
X40000Y-102500D02*
D03*
X-100000Y197500D02*
D03*
X140000Y-142500D02*
D03*
X127500D02*
D03*
X-7000Y-126000D02*
D03*
X77500Y-144500D02*
D03*
X51250D02*
D03*
X47500Y-180000D02*
D03*
X45000Y-172500D02*
D03*
X0Y-175000D02*
D03*
X211500Y-90000D02*
D03*
X-45000Y35000D02*
D03*
X-46984Y122500D02*
D03*
X-65000Y90000D02*
D03*
X-40000Y130000D02*
D03*
X-47500Y137500D02*
D03*
X165000Y-79893D02*
D03*
X-41136Y-50114D02*
D03*
X-41000Y-70000D02*
D03*
X100000Y130000D02*
D03*
X82500Y132500D02*
D03*
X-37500Y145000D02*
D03*
X-15000Y150000D02*
D03*
Y167500D02*
D03*
X7500D02*
D03*
X-47500Y130000D02*
D03*
X-185000Y85000D02*
D03*
X-47500Y-10000D02*
D03*
X-27500D02*
D03*
X25000Y-9786D02*
D03*
Y35000D02*
D03*
X-27500Y37500D02*
D03*
X-241000Y42000D02*
D03*
X-245000Y0D02*
D03*
X-242500Y22500D02*
D03*
X-215000Y87500D02*
D03*
X-210000Y122500D02*
D03*
X-25000D02*
D03*
X-10000Y202500D02*
D03*
X-27500D02*
D03*
X-32500Y180000D02*
D03*
X-5000Y235000D02*
D03*
X120000Y-110000D02*
D03*
X-182500Y-90000D02*
D03*
X-190000Y-127500D02*
D03*
X-102500Y-82500D02*
D03*
X-82500Y-127500D02*
D03*
X-40000Y90000D02*
D03*
X-72500D02*
D03*
X-153000Y2000D02*
D03*
X-148000Y7000D02*
D03*
X-142198Y9930D02*
D03*
X-153076Y37940D02*
D03*
X148000Y140000D02*
D03*
X145000Y120000D02*
D03*
X-106000Y66000D02*
D03*
X-3965Y-45964D02*
D03*
X99000Y162000D02*
D03*
X-97250Y66000D02*
D03*
X-113000Y190048D02*
D03*
X40000Y192500D02*
D03*
X-100000Y157500D02*
D03*
X-99500Y100000D02*
D03*
X-99952Y147741D02*
D03*
X70000Y165000D02*
D03*
Y157500D02*
D03*
Y135000D02*
D03*
X77500Y27500D02*
D03*
X22500Y70000D02*
D03*
X-120000Y170000D02*
D03*
X-135000Y150000D02*
D03*
X71000Y80000D02*
D03*
X60000Y130214D02*
D03*
X93000Y115000D02*
D03*
X149894Y156263D02*
D03*
X15000Y157500D02*
D03*
X146000Y127000D02*
D03*
X-77500Y209968D02*
D03*
X140500Y159500D02*
D03*
X177500Y167500D02*
D03*
X180000Y151000D02*
D03*
X94722Y193500D02*
D03*
X-196178Y92120D02*
D03*
X160000Y100214D02*
D03*
X2500Y235000D02*
D03*
X122000Y65000D02*
D03*
X122500Y82500D02*
D03*
X110000Y30000D02*
D03*
X62500Y-37500D02*
D03*
X-160000Y-104786D02*
D03*
X-40000Y180000D02*
D03*
X10000Y235000D02*
D03*
X157500Y182500D02*
D03*
X173500Y140000D02*
D03*
X162500Y-5000D02*
D03*
X75000Y-99750D02*
D03*
X71984Y-92500D02*
D03*
X87500Y-57500D02*
D03*
X117500Y-50000D02*
D03*
X70000Y-39602D02*
D03*
X40000Y182500D02*
D03*
X39984Y162500D02*
D03*
Y172500D02*
D03*
X92500Y-35000D02*
D03*
X120000Y-102500D02*
D03*
X-75064Y162500D02*
D03*
Y172500D02*
D03*
Y152500D02*
D03*
X-97250Y-6500D02*
D03*
X-24500Y-45000D02*
D03*
X-40000Y122500D02*
D03*
X-15000Y210000D02*
D03*
X-22500D02*
D03*
X-75000Y202500D02*
D03*
Y195000D02*
D03*
Y187500D02*
D03*
Y180000D02*
D03*
X100000Y-35000D02*
D03*
X55000Y120000D02*
D03*
X15000Y167500D02*
D03*
Y185000D02*
D03*
Y177500D02*
D03*
X-102500Y-132500D02*
D03*
Y-125000D02*
D03*
Y-115000D02*
D03*
Y-100000D02*
D03*
Y-107500D02*
D03*
X160000Y-95000D02*
D03*
X-25000Y-72500D02*
D03*
X20000Y100000D02*
D03*
Y92500D02*
D03*
X-32500Y122500D02*
D03*
Y92500D02*
D03*
X-10000D02*
D03*
X44000Y107500D02*
D03*
X-25000Y92500D02*
D03*
X-127500D02*
D03*
X-128000Y78000D02*
D03*
X-138000D02*
D03*
X-107500Y42500D02*
D03*
X-127500Y2500D02*
D03*
X-136000Y5903D02*
D03*
X-100000Y167500D02*
D03*
X-188968Y135000D02*
D03*
X-181980Y124027D02*
D03*
X-174000Y115000D02*
D03*
X-166980Y114027D02*
D03*
X-172949Y130565D02*
D03*
X-181000Y135000D02*
D03*
X-159480Y116527D02*
D03*
X-166980Y121527D02*
D03*
X7286Y210000D02*
D03*
X145000Y145000D02*
D03*
X-62500Y-6500D02*
D03*
X-162500Y-147500D02*
D03*
Y-140000D02*
D03*
X-20000Y40000D02*
D03*
X-127500Y45000D02*
D03*
X176500Y109500D02*
D03*
X173500Y125000D02*
D03*
X105000Y206250D02*
D03*
X148000Y189500D02*
D03*
Y180500D02*
D03*
X213000Y90500D02*
D03*
Y99500D02*
D03*
X198000Y120500D02*
D03*
Y129500D02*
D03*
X178000Y159500D02*
D03*
X-160080Y155118D02*
D03*
X-151752Y148841D02*
D03*
X-135000Y158750D02*
D03*
X-20000Y-5000D02*
D03*
X-13500Y-55000D02*
D03*
X52125Y-61500D02*
D03*
X52500Y-76000D02*
D03*
X351Y-78005D02*
D03*
X164914Y-87585D02*
D03*
X-119786Y-60000D02*
D03*
X-60214D02*
D03*
X-50000Y172500D02*
D03*
X-65000Y122500D02*
D03*
X-2714Y127500D02*
D03*
X7500D02*
D03*
X-45000Y210000D02*
D03*
X-55000D02*
D03*
X-145000Y78000D02*
D03*
X-162000Y70000D02*
D03*
X-141000Y-30000D02*
D03*
X-152500Y12500D02*
D03*
X-127500Y10000D02*
D03*
X-136000Y40903D02*
D03*
X-142198Y44930D02*
D03*
X-148000Y42000D02*
D03*
X-127500Y37500D02*
D03*
X-152500Y47500D02*
D03*
X131000Y65000D02*
D03*
X10000Y30000D02*
D03*
X25000Y15000D02*
D03*
Y60000D02*
D03*
X162500Y-12500D02*
D03*
X112286Y-25000D02*
D03*
X-135000Y191250D02*
D03*
X-5000Y55000D02*
D03*
X0Y50000D02*
D03*
Y60000D02*
D03*
X-10000D02*
D03*
Y50000D02*
D03*
X-5000Y10000D02*
D03*
X0Y5000D02*
D03*
Y15000D02*
D03*
X-10000D02*
D03*
Y5000D02*
D03*
D88*
X200000Y-107500D02*
D03*
X162500Y80000D02*
D03*
D89*
X140000Y45000D02*
D03*
D90*
X186350Y-57150D02*
D03*
X213650D02*
D03*
Y-44450D02*
D03*
X186350D02*
D03*
Y-31750D02*
D03*
X213650D02*
D03*
Y-19050D02*
D03*
X186350D02*
D03*
Y-6350D02*
D03*
X213650D02*
D03*
Y6350D02*
D03*
X186350D02*
D03*
Y19050D02*
D03*
X213650D02*
D03*
Y31750D02*
D03*
X186350D02*
D03*
Y44450D02*
D03*
X213650D02*
D03*
Y57150D02*
D03*
X186350D02*
D03*
X-213650D02*
D03*
X-186350D02*
D03*
Y44450D02*
D03*
X-213650D02*
D03*
Y31750D02*
D03*
X-186350D02*
D03*
Y19050D02*
D03*
X-213650D02*
D03*
Y6350D02*
D03*
X-186350D02*
D03*
Y-6350D02*
D03*
X-213650D02*
D03*
Y-19050D02*
D03*
X-186350D02*
D03*
Y-31750D02*
D03*
X-213650D02*
D03*
Y-44450D02*
D03*
X-186350D02*
D03*
Y-57150D02*
D03*
X-213650D02*
D03*
D91*
X-35214Y-35000D02*
X45000D01*
X-60214Y-60000D02*
X-35214Y-35000D01*
X148000Y138000D02*
Y140000D01*
Y138000D02*
X176500Y109500D01*
X52000Y123000D02*
Y139000D01*
Y123000D02*
X55000Y120000D01*
X-71000Y210000D02*
X-50000Y189000D01*
X-77500Y209968D02*
X-77468Y210000D01*
X-71000D01*
X45000Y-35000D02*
X67500Y-57500D01*
X87500D01*
X-119786Y-60000D02*
X-60214D01*
X112286Y-32714D02*
Y-25000D01*
X87500Y-57500D02*
X112286Y-32714D01*
X-50000Y172500D02*
X-30214D01*
X-65000Y157500D02*
X-50000Y172500D01*
X-65000Y122500D02*
Y157500D01*
X-30214Y172500D02*
X7286Y210000D01*
X-50000Y172500D02*
Y189000D01*
D92*
X144250Y143750D02*
X148000Y140000D01*
X7500Y127500D02*
X40500D01*
X52000Y139000D01*
X-2714Y127500D02*
X7500D01*
X58000Y145000D02*
X145000D01*
X52000Y139000D02*
X58000Y145000D01*
X-5000Y127500D02*
X-2714D01*
X-50000Y172500D02*
X-5000Y127500D01*
M02*
