G04*
G04 #@! TF.GenerationSoftware,Altium Limited,Altium Designer,24.4.1 (13)*
G04*
G04 Layer_Physical_Order=4*
G04 Layer_Color=16711680*
%FSLAX44Y44*%
%MOMM*%
G71*
G04*
G04 #@! TF.SameCoordinates,740DF4E5-9B0E-41A3-91D6-8293D7FF8DF9*
G04*
G04*
G04 #@! TF.FilePolarity,Positive*
G04*
G01*
G75*
%ADD10C,0.2000*%
G04:AMPARAMS|DCode=19|XSize=0.95mm|YSize=0.8mm|CornerRadius=0.1mm|HoleSize=0mm|Usage=FLASHONLY|Rotation=90.000|XOffset=0mm|YOffset=0mm|HoleType=Round|Shape=RoundedRectangle|*
%AMROUNDEDRECTD19*
21,1,0.9500,0.6000,0,0,90.0*
21,1,0.7500,0.8000,0,0,90.0*
1,1,0.2000,0.3000,0.3750*
1,1,0.2000,0.3000,-0.3750*
1,1,0.2000,-0.3000,-0.3750*
1,1,0.2000,-0.3000,0.3750*
%
%ADD19ROUNDEDRECTD19*%
%ADD21R,0.3000X0.8500*%
%ADD22R,0.8500X0.3000*%
%ADD25R,0.7154X0.6725*%
%ADD26R,0.6725X0.7154*%
%ADD32R,1.2500X1.0000*%
%ADD34R,0.3500X0.5000*%
G04:AMPARAMS|DCode=43|XSize=0.95mm|YSize=0.8mm|CornerRadius=0.1mm|HoleSize=0mm|Usage=FLASHONLY|Rotation=0.000|XOffset=0mm|YOffset=0mm|HoleType=Round|Shape=RoundedRectangle|*
%AMROUNDEDRECTD43*
21,1,0.9500,0.6000,0,0,0.0*
21,1,0.7500,0.8000,0,0,0.0*
1,1,0.2000,0.3750,-0.3000*
1,1,0.2000,-0.3750,-0.3000*
1,1,0.2000,-0.3750,0.3000*
1,1,0.2000,0.3750,0.3000*
%
%ADD43ROUNDEDRECTD43*%
%ADD45R,1.0000X1.8000*%
%ADD74C,0.3000*%
%ADD81C,1.4000*%
%ADD82R,2.5500X2.5500*%
%ADD83C,2.5500*%
%ADD84C,1.5080*%
%ADD85C,1.0600*%
%ADD86P,1.4991X4X98.0*%
%ADD87C,0.5000*%
%ADD88C,1.0000*%
%ADD89C,2.0000*%
%ADD90C,0.7000*%
%ADD91C,0.5000*%
%ADD92C,0.7500*%
%ADD94C,0.2000*%
%ADD95R,0.4800X0.4000*%
%ADD96O,1.6000X0.4500*%
%ADD97R,0.4000X0.9000*%
%ADD98R,0.7000X0.9000*%
G04:AMPARAMS|DCode=99|XSize=0.7154mm|YSize=0.6725mm|CornerRadius=0mm|HoleSize=0mm|Usage=FLASHONLY|Rotation=143.000|XOffset=0mm|YOffset=0mm|HoleType=Round|Shape=Rectangle|*
%AMROTATEDRECTD99*
4,1,4,0.4880,0.0533,0.0833,-0.4838,-0.4880,-0.0533,-0.0833,0.4838,0.4880,0.0533,0.0*
%
%ADD99ROTATEDRECTD99*%

%ADD100R,1.0000X0.7000*%
%ADD101R,0.9000X0.7000*%
%AMCUSTOMSHAPE102*
4,1,28,1.2250,-1.1400,1.2250,-0.7250,1.6050,-0.7250,1.6050,-0.2950,1.2250,-0.2950,1.2250,0.8400,1.1750,0.8400,1.1750,1.1400,0.7750,1.1400,0.7750,0.8400,0.5250,0.8400,0.5250,1.1400,0.1250,1.1400,0.1250,0.8400,-0.1250,0.8400,-0.1250,1.1400,-0.5250,1.1400,-0.5250,0.8400,-0.7750,0.8400,-0.7750,1.1400,-1.1750,1.1400,-1.1750,0.8400,-1.2250,0.8400,-1.2250,-0.2950,-1.6050,-0.2950,-1.6050,-0.7250,-1.2250,-0.7250,-1.2250,-1.1400,1.2250,-1.1400,0.0*%
%ADD102CUSTOMSHAPE102*%

%AMCUSTOMSHAPE103*
4,1,28,-1.2250,1.1400,-1.2250,0.7250,-1.6050,0.7250,-1.6050,0.2950,-1.2250,0.2950,-1.2250,-0.8400,-1.1750,-0.8400,-1.1750,-1.1400,-0.7750,-1.1400,-0.7750,-0.8400,-0.5250,-0.8400,-0.5250,-1.1400,-0.1250,-1.1400,-0.1250,-0.8400,0.1250,-0.8400,0.1250,-1.1400,0.5250,-1.1400,0.5250,-0.8400,0.7750,-0.8400,0.7750,-1.1400,1.1750,-1.1400,1.1750,-0.8400,1.2250,-0.8400,1.2250,0.2950,1.6050,0.2950,1.6050,0.7250,1.2250,0.7250,1.2250,1.1400,-1.2250,1.1400,0.0*%
%ADD103CUSTOMSHAPE103*%

G04:AMPARAMS|DCode=104|XSize=0.9779mm|YSize=0.3048mm|CornerRadius=0mm|HoleSize=0mm|Usage=FLASHONLY|Rotation=233.000|XOffset=0mm|YOffset=0mm|HoleType=Round|Shape=Rectangle|*
%AMROTATEDRECTD104*
4,1,4,0.1725,0.4822,0.4160,0.2988,-0.1725,-0.4822,-0.4160,-0.2988,0.1725,0.4822,0.0*
%
%ADD104ROTATEDRECTD104*%

%ADD105R,0.5000X0.4000*%
%ADD106R,0.4000X0.8000*%
%ADD107R,0.8000X0.4000*%
%ADD108R,0.5000X0.3000*%
%ADD109R,0.5298X1.2052*%
G04:AMPARAMS|DCode=110|XSize=1.2052mm|YSize=0.5298mm|CornerRadius=0.2649mm|HoleSize=0mm|Usage=FLASHONLY|Rotation=270.000|XOffset=0mm|YOffset=0mm|HoleType=Round|Shape=RoundedRectangle|*
%AMROUNDEDRECTD110*
21,1,1.2052,0.0000,0,0,270.0*
21,1,0.6754,0.5298,0,0,270.0*
1,1,0.5298,0.0000,-0.3377*
1,1,0.5298,0.0000,0.3377*
1,1,0.5298,0.0000,0.3377*
1,1,0.5298,0.0000,-0.3377*
%
%ADD110ROUNDEDRECTD110*%
%ADD111R,0.9100X1.2200*%
%ADD112R,2.2200X0.7400*%
%ADD113R,1.3000X0.8000*%
G36*
X23338Y247741D02*
X38851Y245786D01*
X54211Y242861D01*
X69356Y238977D01*
X84228Y234149D01*
X98767Y228397D01*
X112917Y221743D01*
X126620Y214214D01*
X139824Y205838D01*
X152475Y196651D01*
X164524Y186686D01*
X175924Y175985D01*
X179197Y172501D01*
X178458Y171433D01*
X178296Y171500D01*
X176704D01*
X175234Y170891D01*
X174109Y169766D01*
X173500Y168296D01*
Y167080D01*
X172422Y166489D01*
X171556Y167215D01*
Y173750D01*
X171399Y174537D01*
X170954Y175203D01*
X170287Y175649D01*
X169500Y175805D01*
X163500D01*
X162713Y175649D01*
X162047Y175203D01*
X161601Y174537D01*
X161444Y173750D01*
Y166250D01*
X161601Y165463D01*
X162047Y164797D01*
X162713Y164351D01*
X163500Y164195D01*
X168649D01*
X171432Y161411D01*
X170622Y160425D01*
X170287Y160649D01*
X169500Y160805D01*
X163500D01*
X162713Y160649D01*
X162047Y160203D01*
X161601Y159537D01*
X161444Y158750D01*
Y151250D01*
X161601Y150463D01*
X162047Y149796D01*
X162713Y149351D01*
X163500Y149194D01*
X169500D01*
X170287Y149351D01*
X170954Y149796D01*
X171399Y150463D01*
X171556Y151250D01*
Y152944D01*
X174578D01*
X176000Y151522D01*
Y150204D01*
X176609Y148734D01*
X177734Y147609D01*
X179204Y147000D01*
X180796D01*
X182266Y147609D01*
X183391Y148734D01*
X184000Y150204D01*
Y151796D01*
X183391Y153266D01*
X182266Y154391D01*
X180810Y154994D01*
X180566Y155494D01*
X180427Y156270D01*
X181391Y157234D01*
X182000Y158704D01*
Y160296D01*
X181391Y161766D01*
X180266Y162891D01*
X180205Y162916D01*
X180066Y163295D01*
X180023Y164366D01*
X180891Y165234D01*
X181500Y166704D01*
Y168195D01*
X181756Y168410D01*
X182659Y168815D01*
X186630Y164589D01*
X196598Y152543D01*
X205790Y139894D01*
X214170Y126694D01*
X221704Y112993D01*
X228363Y98846D01*
X234120Y84308D01*
X238953Y69438D01*
X242842Y54294D01*
X245773Y38935D01*
X247733Y23422D01*
X248715Y7818D01*
Y-0D01*
X248715Y-6372D01*
X248062Y-19099D01*
X246759Y-31775D01*
X244808Y-44368D01*
X242215Y-56845D01*
X238987Y-69172D01*
X235132Y-81319D01*
X230659Y-93252D01*
X225582Y-104939D01*
X219913Y-116353D01*
X213667Y-127460D01*
X206860Y-138233D01*
X199511Y-148644D01*
X191638Y-158665D01*
X183263Y-168269D01*
X174406Y-177432D01*
X169893Y-181647D01*
X169815Y-181695D01*
X169707Y-181797D01*
X169577Y-181869D01*
X167661Y-183498D01*
X163319Y-186037D01*
X158602Y-187783D01*
X153654Y-188682D01*
X151139Y-188694D01*
X151044Y-188714D01*
X151004Y-188710D01*
X151000Y-188709D01*
X150996D01*
X150947Y-188704D01*
X150899Y-188709D01*
X-15000Y-188715D01*
X-15858Y-188715D01*
X-17542Y-188380D01*
X-19128Y-187723D01*
X-20555Y-186769D01*
X-21769Y-185555D01*
X-22723Y-184128D01*
X-23380Y-182542D01*
X-23715Y-180858D01*
Y-170000D01*
X-23725Y-169950D01*
X-23717Y-169900D01*
X-23762Y-168994D01*
X-23798Y-168848D01*
X-23798Y-168696D01*
X-24152Y-166919D01*
X-24228Y-166734D01*
X-24268Y-166537D01*
X-24961Y-164863D01*
X-25072Y-164696D01*
X-25149Y-164510D01*
X-26155Y-163004D01*
X-26297Y-162862D01*
X-26409Y-162695D01*
X-27689Y-161413D01*
X-27856Y-161302D01*
X-27998Y-161160D01*
X-29504Y-160153D01*
X-29690Y-160076D01*
X-29857Y-159964D01*
X-31530Y-159270D01*
X-31727Y-159231D01*
X-31913Y-159154D01*
X-33689Y-158799D01*
X-33840Y-158799D01*
X-33987Y-158762D01*
X-34893Y-158717D01*
X-34944Y-158725D01*
X-34994Y-158715D01*
X-177508Y-158715D01*
X-179233Y-158714D01*
X-182656Y-158301D01*
X-186006Y-157480D01*
X-189233Y-156265D01*
X-192292Y-154672D01*
X-195138Y-152725D01*
X-197731Y-150451D01*
X-200033Y-147883D01*
X-201022Y-146470D01*
X-201035Y-146458D01*
X-201042Y-146441D01*
X-205694Y-140037D01*
X-214083Y-126841D01*
X-221627Y-113145D01*
X-228295Y-99003D01*
X-234062Y-84469D01*
X-238905Y-69602D01*
X-242805Y-54461D01*
X-245746Y-39104D01*
X-247717Y-23593D01*
X-248709Y-7989D01*
X-248720Y7647D01*
X-247749Y23252D01*
X-245799Y38766D01*
X-242879Y54127D01*
X-239001Y69274D01*
X-234178Y84148D01*
X-228431Y98689D01*
X-221782Y112840D01*
X-214257Y126546D01*
X-205886Y139753D01*
X-196703Y152408D01*
X-186743Y164460D01*
X-176046Y175864D01*
X-164653Y186573D01*
X-152610Y196546D01*
X-139965Y205742D01*
X-126768Y214126D01*
X-113069Y221665D01*
X-98924Y228329D01*
X-84389Y234091D01*
X-69521Y238929D01*
X-54377Y242824D01*
X-39020Y245759D01*
X-23508Y247725D01*
X-7903Y248712D01*
X7732Y248717D01*
X23338Y247741D01*
D02*
G37*
%LPC*%
G36*
X10796Y239000D02*
X9204D01*
X7734Y238391D01*
X7073Y237730D01*
X6250Y237407D01*
X5427Y237730D01*
X4766Y238391D01*
X3296Y239000D01*
X1704D01*
X234Y238391D01*
X-891Y237266D01*
X-1500Y235796D01*
Y234204D01*
X-891Y232734D01*
X-73Y231916D01*
X-698Y230746D01*
X-1000Y230805D01*
X-6149D01*
X-8807Y233464D01*
X-8500Y234204D01*
Y235796D01*
X-9109Y237266D01*
X-10234Y238391D01*
X-11704Y239000D01*
X-13296D01*
X-14766Y238391D01*
X-15891Y237266D01*
X-16500Y235796D01*
Y234204D01*
X-15891Y232734D01*
X-14766Y231609D01*
X-13296Y231000D01*
X-12157D01*
X-9482Y228326D01*
X-10008Y227055D01*
X-28444D01*
Y228750D01*
X-28601Y229537D01*
X-29047Y230203D01*
X-29713Y230649D01*
X-30500Y230805D01*
X-36500D01*
X-37287Y230649D01*
X-37954Y230203D01*
X-38399Y229537D01*
X-38556Y228750D01*
Y221250D01*
X-38399Y220463D01*
X-37954Y219797D01*
X-37287Y219351D01*
X-36500Y219195D01*
X-30500D01*
X-29713Y219351D01*
X-29047Y219797D01*
X-28601Y220463D01*
X-28444Y221250D01*
Y222945D01*
X-9056D01*
Y221250D01*
X-8899Y220463D01*
X-8454Y219797D01*
X-7787Y219351D01*
X-7000Y219195D01*
X-1000D01*
X-213Y219351D01*
X453Y219797D01*
X899Y220463D01*
X1055Y221250D01*
Y228750D01*
X899Y229537D01*
X509Y230121D01*
X532Y230211D01*
X1656Y231020D01*
X1704Y231000D01*
X3296D01*
X3344Y231020D01*
X4467Y230211D01*
X4491Y230121D01*
X4101Y229537D01*
X3945Y228750D01*
Y221250D01*
X4101Y220463D01*
X4547Y219797D01*
X5213Y219351D01*
X6000Y219195D01*
X12000D01*
X12787Y219351D01*
X13453Y219797D01*
X14907Y219686D01*
X23587Y211006D01*
X23500Y210796D01*
Y209204D01*
X24109Y207734D01*
X25234Y206609D01*
X26704Y206000D01*
X28296D01*
X29766Y206609D01*
X30891Y207734D01*
X31500Y209204D01*
Y210796D01*
X30891Y212266D01*
X29766Y213391D01*
X28296Y214000D01*
X26704D01*
X26494Y213913D01*
X16467Y223939D01*
X15801Y224385D01*
X15014Y224541D01*
X14056Y225312D01*
Y228750D01*
X13899Y229537D01*
X13453Y230203D01*
X12894Y230578D01*
X12866Y230624D01*
X12722Y231198D01*
X12632Y231975D01*
X13391Y232734D01*
X14000Y234204D01*
Y235796D01*
X13391Y237266D01*
X12266Y238391D01*
X10796Y239000D01*
D02*
G37*
G36*
X108750Y211556D02*
X101250D01*
X100463Y211399D01*
X99796Y210954D01*
X99351Y210287D01*
X99194Y209500D01*
Y208556D01*
X95806D01*
Y209500D01*
X95649Y210287D01*
X95204Y210954D01*
X94537Y211399D01*
X93750Y211556D01*
X86250D01*
X85463Y211399D01*
X84797Y210954D01*
X84351Y210287D01*
X84194Y209500D01*
Y208556D01*
X79378D01*
Y209378D01*
X70622D01*
Y200193D01*
X79378D01*
Y204445D01*
X84194D01*
Y203500D01*
X84351Y202713D01*
X84797Y202047D01*
X85463Y201601D01*
X86250Y201444D01*
X93750D01*
X94537Y201601D01*
X95204Y202047D01*
X95649Y202713D01*
X95806Y203500D01*
Y204445D01*
X99194D01*
Y203500D01*
X99351Y202713D01*
X99796Y202047D01*
X100463Y201601D01*
X101250Y201444D01*
X108750D01*
X109537Y201601D01*
X110204Y202047D01*
X110649Y202713D01*
X110806Y203500D01*
Y209500D01*
X110649Y210287D01*
X110204Y210954D01*
X109537Y211399D01*
X108750Y211556D01*
D02*
G37*
G36*
X-73122Y214378D02*
X-82307D01*
Y205622D01*
X-79195D01*
X-78563Y204352D01*
X-79000Y203296D01*
Y201704D01*
X-78391Y200234D01*
X-77730Y199573D01*
X-77407Y198750D01*
X-77730Y197927D01*
X-78391Y197266D01*
X-79000Y195796D01*
Y194204D01*
X-78391Y192734D01*
X-77730Y192073D01*
X-77407Y191250D01*
X-77730Y190427D01*
X-78391Y189766D01*
X-79000Y188296D01*
Y186704D01*
X-78391Y185234D01*
X-77730Y184573D01*
X-77407Y183750D01*
X-77730Y182927D01*
X-78391Y182266D01*
X-79000Y180796D01*
Y179204D01*
X-78391Y177734D01*
X-77749Y177092D01*
X-77440Y176208D01*
X-77769Y175452D01*
X-78455Y174766D01*
X-79064Y173296D01*
Y171704D01*
X-78455Y170234D01*
X-77330Y169109D01*
X-75860Y168500D01*
X-74268D01*
X-74013Y168606D01*
X-72584Y167177D01*
X-73303Y166100D01*
X-74268Y166500D01*
X-75860D01*
X-77330Y165891D01*
X-78455Y164766D01*
X-79064Y163296D01*
Y161704D01*
X-78958Y161449D01*
X-81454Y158954D01*
X-81899Y158287D01*
X-82056Y157500D01*
X-82056Y157500D01*
Y154893D01*
X-82120Y154571D01*
X-82120Y154571D01*
Y150429D01*
X-82120Y150429D01*
X-82056Y150107D01*
Y139056D01*
X-83750D01*
X-84537Y138899D01*
X-85204Y138454D01*
X-85649Y137787D01*
X-85806Y137000D01*
Y131000D01*
X-85649Y130213D01*
X-85204Y129547D01*
X-84537Y129101D01*
X-83750Y128945D01*
X-76250D01*
X-75463Y129101D01*
X-74797Y129547D01*
X-74351Y130213D01*
X-74194Y131000D01*
Y137000D01*
X-74351Y137787D01*
X-74797Y138454D01*
X-75463Y138899D01*
X-76250Y139056D01*
X-77944D01*
Y148064D01*
X-76674Y148837D01*
X-75860Y148500D01*
X-74268D01*
X-72798Y149109D01*
X-71961Y149946D01*
X-71900Y150007D01*
X-70705Y149505D01*
X-70743Y149314D01*
X-70806Y149000D01*
Y143000D01*
X-70649Y142213D01*
X-70203Y141547D01*
X-69537Y141101D01*
X-68750Y140944D01*
X-61250D01*
X-61227Y140949D01*
X-60707Y140634D01*
X-60072Y139952D01*
Y128349D01*
X-60622Y127307D01*
X-61342Y127307D01*
X-69378D01*
Y125442D01*
X-74789D01*
X-74797Y125454D01*
X-75463Y125899D01*
X-76250Y126055D01*
X-83750D01*
X-84537Y125899D01*
X-85204Y125454D01*
X-85649Y124787D01*
X-85689Y124585D01*
X-89311D01*
X-89351Y124787D01*
X-89796Y125454D01*
X-90463Y125899D01*
X-91250Y126055D01*
X-94746D01*
X-94894Y126085D01*
X-96265D01*
X-97855Y127675D01*
X-97329Y128945D01*
X-91250D01*
X-90463Y129101D01*
X-89796Y129547D01*
X-89351Y130213D01*
X-89194Y131000D01*
Y137000D01*
X-89351Y137787D01*
X-89796Y138454D01*
X-90463Y138899D01*
X-91250Y139056D01*
X-92944D01*
Y142789D01*
X-92944Y142789D01*
X-93101Y143576D01*
X-93546Y144242D01*
X-96039Y146735D01*
X-95952Y146945D01*
Y148537D01*
X-96561Y150007D01*
X-97686Y151132D01*
X-99156Y151741D01*
X-100748D01*
X-102218Y151132D01*
X-103343Y150007D01*
X-103952Y148537D01*
Y146945D01*
X-103343Y145475D01*
X-102218Y144350D01*
X-100748Y143741D01*
X-99156D01*
X-98946Y143828D01*
X-97056Y141938D01*
Y139056D01*
X-98750D01*
X-99537Y138899D01*
X-100204Y138454D01*
X-100649Y137787D01*
X-100806Y137000D01*
Y132421D01*
X-102076Y131895D01*
X-104194Y134014D01*
Y137000D01*
X-104351Y137787D01*
X-104796Y138453D01*
X-105463Y138899D01*
X-106250Y139056D01*
X-113750D01*
X-114537Y138899D01*
X-115204Y138453D01*
X-115649Y137787D01*
X-115689Y137585D01*
X-126862D01*
X-128234Y137312D01*
X-129397Y136535D01*
X-130736Y135196D01*
X-135957Y139131D01*
X-143559Y129042D01*
X-133471Y121440D01*
X-132202Y123124D01*
X-132035Y123108D01*
X-130953Y122671D01*
X-130651Y120519D01*
X-130242Y119825D01*
X-131069Y118727D01*
X-131849Y118929D01*
X-134337Y118579D01*
X-136502Y117304D01*
X-138014Y115297D01*
X-138644Y112865D01*
X-138294Y110377D01*
X-137885Y109683D01*
X-138712Y108585D01*
X-139492Y108786D01*
X-141980Y108437D01*
X-144145Y107161D01*
X-145658Y105155D01*
X-146287Y102722D01*
X-145937Y100234D01*
X-145528Y99540D01*
X-146355Y98442D01*
X-147135Y98644D01*
X-149623Y98294D01*
X-150317Y97885D01*
X-151415Y98713D01*
X-151214Y99492D01*
X-151563Y101980D01*
X-152839Y104145D01*
X-154845Y105658D01*
X-157278Y106287D01*
X-159766Y105937D01*
X-161931Y104662D01*
X-163443Y102655D01*
X-164072Y100222D01*
X-163723Y97734D01*
X-163314Y97040D01*
X-164141Y95942D01*
X-164921Y96144D01*
X-167409Y95794D01*
X-169574Y94519D01*
X-171086Y92512D01*
X-171716Y90080D01*
X-171366Y87591D01*
X-170091Y85427D01*
X-168084Y83914D01*
X-165651Y83285D01*
X-163163Y83635D01*
X-162469Y84044D01*
X-161371Y83216D01*
X-161573Y82437D01*
X-161223Y79949D01*
X-159948Y77783D01*
X-157941Y76271D01*
X-155508Y75642D01*
X-153020Y75992D01*
X-150855Y77267D01*
X-150270Y78044D01*
X-149000Y77619D01*
Y77204D01*
X-148391Y75734D01*
X-147266Y74609D01*
X-145796Y74000D01*
X-144204D01*
X-142734Y74609D01*
X-142330Y75013D01*
X-141500Y75651D01*
X-140670Y75013D01*
X-140266Y74609D01*
X-140185Y74576D01*
X-140438Y73306D01*
X-141500D01*
X-142287Y73149D01*
X-142953Y72703D01*
X-143399Y72037D01*
X-143555Y71250D01*
Y64601D01*
X-145334Y62823D01*
X-146504Y63449D01*
X-146445Y63750D01*
Y71250D01*
X-146601Y72037D01*
X-147046Y72703D01*
X-147713Y73149D01*
X-148500Y73306D01*
X-154500D01*
X-155287Y73149D01*
X-155953Y72703D01*
X-156399Y72037D01*
X-156556Y71250D01*
Y64601D01*
X-165977Y55180D01*
X-167150Y55666D01*
Y60850D01*
X-167472Y61628D01*
X-168250Y61950D01*
X-184872D01*
X-185355Y62150D01*
X-187345D01*
X-187828Y61950D01*
X-212172D01*
X-212656Y62150D01*
X-214645D01*
X-215128Y61950D01*
X-227293D01*
X-228145Y62891D01*
X-228094Y63403D01*
X-227884Y64621D01*
X-227876Y64640D01*
X-227666Y65862D01*
X-223392Y82944D01*
X-223383Y82978D01*
X-222997Y84153D01*
X-222997Y84153D01*
X-222410Y85178D01*
X-214097Y97645D01*
X-214084Y97665D01*
X-213329Y98624D01*
X-213318Y98652D01*
X-213329Y98764D01*
X-209742Y102345D01*
X-208774Y103171D01*
X-207705Y103657D01*
X-203953Y105043D01*
X-202734Y105400D01*
X-202725Y105403D01*
X-201536Y105843D01*
X-196186Y107410D01*
X-196185Y107408D01*
X-194627Y108054D01*
X-193158Y109181D01*
X-193002Y109385D01*
X-191848Y108516D01*
X-188610Y106076D01*
X-188433Y104818D01*
X-194706Y96493D01*
X-197211Y98381D01*
X-202481Y91387D01*
X-195145Y85859D01*
X-189875Y92853D01*
X-190609Y93406D01*
X-183795Y102448D01*
X-179866Y99487D01*
Y99487D01*
X-175809Y96429D01*
X-168701Y105862D01*
X-169584Y106528D01*
X-167210Y110027D01*
X-166184D01*
X-164714Y110636D01*
X-163589Y111761D01*
X-163172Y112767D01*
X-161944Y113154D01*
X-161748Y113139D01*
X-161745Y113136D01*
X-160275Y112527D01*
X-158684D01*
X-157214Y113136D01*
X-156088Y114261D01*
X-155479Y115731D01*
Y117323D01*
X-156088Y118793D01*
X-156652Y119356D01*
X-155716Y123094D01*
X-150128Y130509D01*
X-153108Y132754D01*
X-154122Y133519D01*
X-155137Y134283D01*
X-158078Y136499D01*
X-152490Y143915D01*
X-150719Y142581D01*
X-145449Y149574D01*
X-150332Y153254D01*
Y163444D01*
X-146250D01*
X-145463Y163601D01*
X-144796Y164046D01*
X-144351Y164713D01*
X-144194Y165500D01*
Y171500D01*
X-144351Y172287D01*
X-144796Y172953D01*
X-145463Y173399D01*
X-146250Y173556D01*
X-153750D01*
X-154537Y173399D01*
X-155204Y172953D01*
X-155649Y172287D01*
X-155806Y171500D01*
Y165500D01*
X-155649Y164713D01*
X-155204Y164046D01*
X-154537Y163601D01*
X-154443Y163582D01*
Y157775D01*
X-155580Y157208D01*
X-161113Y161378D01*
X-166383Y154385D01*
X-164613Y153051D01*
X-171716Y143626D01*
X-171719Y143617D01*
X-171726Y143611D01*
X-173747Y140890D01*
X-173801Y140777D01*
X-176377Y137358D01*
X-177853Y137510D01*
X-178734Y138391D01*
X-179830Y138845D01*
X-180307Y139921D01*
X-180346Y140270D01*
X-178335Y142939D01*
X-178222Y143052D01*
X-178222Y143052D01*
X-178006Y143376D01*
X-174093Y148568D01*
X-178150Y151625D01*
X-185258Y142192D01*
Y142192D01*
X-185235Y141853D01*
X-188113Y138975D01*
X-188172Y139000D01*
X-189764D01*
X-191234Y138391D01*
X-192359Y137266D01*
X-192968Y135796D01*
Y134204D01*
X-192359Y132734D01*
X-191982Y132357D01*
X-191926Y130625D01*
X-196067Y126484D01*
X-196723Y126978D01*
X-203831Y117546D01*
X-200366Y114935D01*
X-200621Y113537D01*
X-204774Y112320D01*
X-204839Y112294D01*
X-205226Y112170D01*
X-206019Y111877D01*
X-210251Y110314D01*
X-211434Y109916D01*
X-211434Y109916D01*
X-211434Y109915D01*
X-211450Y109886D01*
X-212430Y109423D01*
X-212468Y109393D01*
X-213894Y108299D01*
X-213881Y108284D01*
X-217596Y104574D01*
X-218451Y103738D01*
X-218484Y103771D01*
X-218487Y103769D01*
X-218520Y103719D01*
X-219247Y102731D01*
X-219322Y102656D01*
X-229027Y88102D01*
X-229061Y88020D01*
X-229280Y87734D01*
X-229989Y86024D01*
X-230004Y85906D01*
X-230305Y84675D01*
X-234884Y66372D01*
X-234885Y66372D01*
X-234891Y66374D01*
X-235059Y65378D01*
X-235081Y65157D01*
X-235081Y65156D01*
Y65156D01*
X-239981Y16157D01*
X-240037Y15604D01*
X-240090Y14923D01*
X-240077Y14923D01*
X-240072Y14916D01*
Y-23092D01*
X-240066Y-23120D01*
X-240071Y-23149D01*
X-239988Y-23513D01*
X-239915Y-23879D01*
X-239899Y-23903D01*
X-239893Y-23931D01*
X-239677Y-24235D01*
X-239470Y-24546D01*
X-239446Y-24562D01*
X-239429Y-24585D01*
X-233496Y-30199D01*
X-233472Y-30215D01*
X-233455Y-30238D01*
X-233133Y-30428D01*
X-232817Y-30626D01*
X-232789Y-30631D01*
X-232764Y-30646D01*
X-232395Y-30698D01*
X-232027Y-30761D01*
X-231999Y-30755D01*
X-231970Y-30759D01*
X-226893Y-30479D01*
X-225766Y-30894D01*
Y-36466D01*
X-215330D01*
X-214645Y-36750D01*
X-212656D01*
X-211970Y-36466D01*
X-201534D01*
Y-29882D01*
X-200443Y-29231D01*
X-198466Y-30298D01*
Y-36466D01*
X-188030D01*
X-187345Y-36750D01*
X-185355D01*
X-184670Y-36466D01*
X-174234D01*
Y-27034D01*
X-184670D01*
X-185355Y-26750D01*
X-187345D01*
X-188030Y-27034D01*
X-195858D01*
X-202511Y-23445D01*
X-202612Y-23414D01*
X-202701Y-23355D01*
X-202993Y-23297D01*
X-203278Y-23209D01*
X-203383Y-23219D01*
X-203487Y-23198D01*
X-224254D01*
X-224311Y-23210D01*
X-224368Y-23201D01*
X-228297Y-23418D01*
X-232945Y-19020D01*
Y-12030D01*
X-231750Y-11150D01*
X-231674Y-11150D01*
X-215128D01*
X-214645Y-11350D01*
X-212656D01*
X-212172Y-11150D01*
X-187828D01*
X-187345Y-11350D01*
X-185355D01*
X-184872Y-11150D01*
X-169257D01*
X-164953Y-15453D01*
X-164953Y-15453D01*
X-164287Y-15899D01*
X-163500Y-16056D01*
X-158306D01*
Y-17000D01*
X-158149Y-17787D01*
X-157704Y-18454D01*
X-157037Y-18899D01*
X-156250Y-19056D01*
X-148750D01*
X-148615Y-19188D01*
X-148469Y-20679D01*
X-148915Y-21346D01*
X-149072Y-22133D01*
X-149072Y-22133D01*
Y-38234D01*
X-149072Y-38234D01*
X-148915Y-39021D01*
X-148469Y-39688D01*
X-146055Y-42101D01*
Y-48750D01*
X-145899Y-49537D01*
X-145454Y-50203D01*
X-144787Y-50649D01*
X-144000Y-50806D01*
X-138000D01*
X-137213Y-50649D01*
X-136547Y-50203D01*
X-136101Y-49537D01*
X-135944Y-48750D01*
Y-41250D01*
X-136101Y-40463D01*
X-136547Y-39797D01*
X-137213Y-39351D01*
X-138000Y-39195D01*
X-143149D01*
X-144960Y-37383D01*
Y-36909D01*
X-144000Y-35805D01*
X-138000D01*
X-137213Y-35649D01*
X-136547Y-35203D01*
X-136101Y-34537D01*
X-135944Y-33750D01*
Y-26250D01*
X-136101Y-25463D01*
X-136547Y-24797D01*
X-137213Y-24351D01*
X-138000Y-24195D01*
X-144000D01*
X-144960Y-23091D01*
Y-22984D01*
X-144281Y-22304D01*
X-143835Y-21637D01*
X-143679Y-20851D01*
X-143679Y-20851D01*
Y-7016D01*
X-143679Y-7016D01*
X-143835Y-6229D01*
X-144281Y-5562D01*
X-146694Y-3149D01*
Y2000D01*
X-146851Y2787D01*
X-146726Y3198D01*
X-145734Y3609D01*
X-144609Y4734D01*
X-144000Y6204D01*
Y7796D01*
X-144609Y9266D01*
X-145734Y10391D01*
X-147204Y11000D01*
X-148122D01*
Y19807D01*
X-156878D01*
Y10622D01*
X-156052D01*
X-155891Y10234D01*
X-154766Y9109D01*
X-153296Y8500D01*
X-152471D01*
X-152000Y7796D01*
Y7173D01*
X-152174Y6174D01*
X-153173Y6000D01*
X-153796D01*
X-155266Y5391D01*
X-156391Y4266D01*
X-156499Y4006D01*
X-157037Y3899D01*
X-157704Y3453D01*
X-158149Y2787D01*
X-158306Y2000D01*
Y-4000D01*
X-158149Y-4787D01*
X-157704Y-5454D01*
X-157037Y-5899D01*
X-156250Y-6055D01*
X-149601D01*
X-147789Y-7867D01*
X-148750Y-8945D01*
X-156250D01*
X-157037Y-9101D01*
X-157704Y-9546D01*
X-158149Y-10213D01*
X-158306Y-11000D01*
Y-11945D01*
X-162649D01*
X-167150Y-7443D01*
Y10050D01*
X-167472Y10828D01*
X-168250Y11150D01*
X-184872D01*
X-185355Y11350D01*
X-187345D01*
X-187828Y11150D01*
X-212172D01*
X-212656Y11350D01*
X-214645D01*
X-215128Y11150D01*
X-231674D01*
X-231750Y11150D01*
X-232945Y12030D01*
Y13632D01*
X-232851Y14885D01*
X-232846Y14899D01*
X-232818Y16161D01*
X-231837Y25975D01*
X-231831Y25988D01*
X-231082Y26787D01*
X-230872Y26950D01*
X-215128D01*
X-214645Y26750D01*
X-212656D01*
X-212172Y26950D01*
X-187828D01*
X-187345Y26750D01*
X-185355D01*
X-184872Y26950D01*
X-168250D01*
X-167472Y27272D01*
X-167150Y28050D01*
Y48150D01*
X-167163Y48180D01*
X-160826Y54518D01*
X-159556Y53991D01*
Y42708D01*
X-159556Y42708D01*
X-159399Y41921D01*
X-158954Y41254D01*
X-156888Y39188D01*
X-157076Y38735D01*
Y37144D01*
X-156467Y35674D01*
X-155342Y34548D01*
X-153871Y33939D01*
X-152280D01*
X-150810Y34548D01*
X-149685Y35674D01*
X-149076Y37144D01*
Y37813D01*
X-148796Y38000D01*
X-147204D01*
X-145734Y38609D01*
X-144609Y39734D01*
X-144000Y41204D01*
Y42796D01*
X-144609Y44266D01*
X-145734Y45391D01*
X-147204Y46000D01*
X-148029D01*
X-148500Y46704D01*
Y48122D01*
X-145193D01*
Y56760D01*
X-145193Y56878D01*
X-144879Y58018D01*
X-144463Y58101D01*
X-143797Y58547D01*
X-140649Y61694D01*
X-135500D01*
X-134713Y61851D01*
X-134046Y62297D01*
X-133601Y62963D01*
X-133444Y63750D01*
Y64570D01*
X-128306D01*
Y63500D01*
X-128149Y62713D01*
X-127704Y62046D01*
X-127037Y61601D01*
X-126250Y61445D01*
X-118750D01*
X-118075Y61579D01*
X-116899Y61213D01*
X-116454Y60546D01*
X-114453Y58547D01*
X-114453Y58547D01*
X-113787Y58101D01*
X-113149Y57287D01*
X-113306Y56500D01*
Y51351D01*
X-117601Y47056D01*
X-124022D01*
X-124109Y47266D01*
X-125234Y48391D01*
X-126704Y49000D01*
X-128296D01*
X-129766Y48391D01*
X-130891Y47266D01*
X-131500Y45796D01*
Y44204D01*
X-130891Y42734D01*
X-130230Y42073D01*
X-129907Y41250D01*
X-130185Y40542D01*
X-130735Y40303D01*
X-132000Y41080D01*
Y41699D01*
X-132609Y43169D01*
X-133734Y44294D01*
X-135204Y44903D01*
X-136796D01*
X-138266Y44294D01*
X-139391Y43169D01*
X-140000Y41699D01*
Y40107D01*
X-140703Y39056D01*
X-141250D01*
X-142037Y38899D01*
X-142704Y38453D01*
X-143149Y37787D01*
X-143306Y37000D01*
Y31000D01*
X-143149Y30213D01*
X-142704Y29546D01*
X-142037Y29101D01*
X-141250Y28944D01*
X-134500D01*
X-134500Y28944D01*
X-134101D01*
X-128306Y23149D01*
Y18000D01*
X-128149Y17213D01*
X-127704Y16546D01*
X-127037Y16101D01*
X-126250Y15944D01*
X-126122D01*
X-125636Y14771D01*
X-126494Y13913D01*
X-126704Y14000D01*
X-128296D01*
X-129766Y13391D01*
X-130891Y12266D01*
X-131500Y10796D01*
Y9204D01*
X-130891Y7734D01*
X-130230Y7073D01*
X-129907Y6250D01*
X-130185Y5542D01*
X-130735Y5303D01*
X-132000Y6080D01*
Y6699D01*
X-132609Y8169D01*
X-133734Y9294D01*
X-135204Y9903D01*
X-136796D01*
X-138266Y9294D01*
X-139391Y8169D01*
X-140000Y6699D01*
Y5107D01*
X-140703Y4056D01*
X-141250D01*
X-142037Y3899D01*
X-142704Y3453D01*
X-143149Y2787D01*
X-143306Y2000D01*
Y-4000D01*
X-143149Y-4787D01*
X-142704Y-5454D01*
X-142037Y-5899D01*
X-141250Y-6055D01*
X-133750D01*
X-132963Y-5899D01*
X-132296Y-5454D01*
X-131851Y-4787D01*
X-131805Y-4555D01*
X-113306D01*
Y-9500D01*
X-113149Y-10287D01*
X-112704Y-10954D01*
X-112037Y-11399D01*
X-111250Y-11556D01*
X-103750D01*
X-102963Y-11399D01*
X-102296Y-10954D01*
X-101851Y-10287D01*
X-101694Y-9500D01*
Y-9372D01*
X-101446Y-9229D01*
X-100424Y-8982D01*
X-99516Y-9891D01*
X-98046Y-10500D01*
X-98006D01*
X-97704Y-10953D01*
X-97037Y-11399D01*
X-96250Y-11556D01*
X-88750D01*
X-87963Y-11399D01*
X-87296Y-10953D01*
X-86851Y-10287D01*
X-86694Y-9500D01*
Y-3500D01*
X-86851Y-2713D01*
X-87296Y-2046D01*
X-87963Y-1601D01*
X-88750Y-1444D01*
X-96250D01*
X-97037Y-1601D01*
X-97704Y-2046D01*
X-98006Y-2500D01*
X-98046D01*
X-99516Y-3109D01*
X-100424Y-4018D01*
X-101446Y-3771D01*
X-101694Y-3628D01*
Y-3500D01*
X-101851Y-2713D01*
X-102296Y-2047D01*
X-102963Y-1601D01*
X-103750Y-1444D01*
X-110399D01*
X-110796Y-1046D01*
X-111463Y-601D01*
X-112250Y-444D01*
X-112250Y-444D01*
X-123128D01*
X-123864Y825D01*
X-123500Y1704D01*
Y2781D01*
X-121837Y4444D01*
X-113306D01*
Y3500D01*
X-113149Y2713D01*
X-112704Y2046D01*
X-112037Y1601D01*
X-111250Y1444D01*
X-103750D01*
X-102963Y1601D01*
X-102296Y2046D01*
X-101851Y2713D01*
X-101694Y3500D01*
Y4444D01*
X-98306D01*
Y3500D01*
X-98149Y2713D01*
X-97704Y2047D01*
X-97037Y1601D01*
X-96250Y1444D01*
X-88750D01*
X-87963Y1601D01*
X-87296Y2047D01*
X-86851Y2713D01*
X-86694Y3500D01*
Y9500D01*
X-86851Y10287D01*
X-87296Y10954D01*
X-87963Y11399D01*
X-88750Y11556D01*
X-96250D01*
X-97037Y11399D01*
X-97704Y10954D01*
X-98149Y10287D01*
X-98306Y9500D01*
Y8555D01*
X-101694D01*
Y9500D01*
X-101851Y10287D01*
X-102296Y10953D01*
X-102963Y11399D01*
X-103750Y11556D01*
X-111250D01*
X-112037Y11399D01*
X-112704Y10953D01*
X-113149Y10287D01*
X-113306Y9500D01*
Y8555D01*
X-122394D01*
X-122901Y8853D01*
X-123500Y9689D01*
Y10796D01*
X-123587Y11006D01*
X-121665Y12929D01*
X-102501D01*
X-102501Y12928D01*
X-102420Y12945D01*
X-99250D01*
X-99250Y12945D01*
X-98463Y13101D01*
X-97796Y13547D01*
X-95399Y15944D01*
X-88750D01*
X-87963Y16101D01*
X-87296Y16547D01*
X-86851Y17213D01*
X-86694Y18000D01*
Y24000D01*
X-86851Y24787D01*
X-87296Y25454D01*
X-87963Y25899D01*
X-88750Y26056D01*
X-96250D01*
X-97037Y25899D01*
X-97704Y25454D01*
X-98149Y24787D01*
X-98306Y24000D01*
Y18851D01*
X-100101Y17055D01*
X-100588D01*
X-101694Y18000D01*
Y23149D01*
X-99281Y25563D01*
X-98835Y26229D01*
X-98679Y27016D01*
X-98679Y27016D01*
Y38249D01*
X-98835Y39036D01*
X-98928Y39174D01*
X-98279Y40444D01*
X-87601D01*
X-83306Y36149D01*
Y31000D01*
X-83149Y30213D01*
X-82704Y29546D01*
X-82037Y29101D01*
X-81250Y28944D01*
X-73750D01*
X-72963Y29101D01*
X-72297Y29546D01*
X-71851Y30213D01*
X-71694Y31000D01*
Y37000D01*
X-71851Y37787D01*
X-72297Y38453D01*
X-72963Y38899D01*
X-73750Y39056D01*
X-80399D01*
X-85296Y43953D01*
X-85963Y44399D01*
X-86750Y44556D01*
X-86750Y44556D01*
X-104022D01*
X-104109Y44766D01*
X-105234Y45891D01*
X-106704Y46500D01*
X-108296D01*
X-109766Y45891D01*
X-110891Y44766D01*
X-111500Y43296D01*
Y41704D01*
X-110891Y40234D01*
X-111018Y39818D01*
X-111466Y39013D01*
X-112037Y38899D01*
X-112704Y38454D01*
X-113149Y37787D01*
X-113306Y37000D01*
Y36056D01*
X-116694D01*
Y37000D01*
X-116851Y37787D01*
X-117296Y38453D01*
X-117963Y38899D01*
X-118750Y39056D01*
X-123815D01*
X-124109Y39766D01*
X-124770Y40427D01*
X-125093Y41250D01*
X-124770Y42073D01*
X-124109Y42734D01*
X-124022Y42944D01*
X-116750D01*
X-116750Y42944D01*
X-115963Y43101D01*
X-115296Y43547D01*
X-110399Y48444D01*
X-103750D01*
X-102963Y48601D01*
X-102296Y49047D01*
X-101851Y49713D01*
X-101694Y50500D01*
Y56500D01*
X-100616Y57121D01*
X-99852Y57196D01*
X-98306Y55649D01*
Y50500D01*
X-98149Y49713D01*
X-97704Y49047D01*
X-97037Y48601D01*
X-96250Y48444D01*
X-88750D01*
X-87963Y48601D01*
X-87296Y49047D01*
X-86851Y49713D01*
X-86694Y50500D01*
Y51445D01*
X-83306D01*
Y50500D01*
X-83149Y49713D01*
X-82704Y49047D01*
X-82037Y48601D01*
X-81250Y48444D01*
X-73750D01*
X-72963Y48601D01*
X-72297Y49047D01*
X-71851Y49713D01*
X-71694Y50500D01*
Y56500D01*
X-71851Y57287D01*
X-72297Y57954D01*
X-72963Y58399D01*
X-73750Y58555D01*
X-81250D01*
X-82037Y58399D01*
X-82704Y57954D01*
X-83149Y57287D01*
X-83306Y56500D01*
Y55556D01*
X-86694D01*
Y56500D01*
X-86851Y57287D01*
X-87296Y57954D01*
X-87963Y58399D01*
X-88750Y58555D01*
X-95399D01*
X-98296Y61453D01*
X-98963Y61899D01*
X-99750Y62056D01*
X-99750Y62056D01*
X-112149D01*
X-112944Y62851D01*
Y71000D01*
X-113101Y71787D01*
X-113546Y72453D01*
X-113547Y72453D01*
X-115547Y74454D01*
X-115877Y74675D01*
X-115492Y75944D01*
X-90601D01*
X-83306Y68649D01*
Y63500D01*
X-83149Y62713D01*
X-82704Y62046D01*
X-82037Y61601D01*
X-81250Y61445D01*
X-73750D01*
X-72963Y61601D01*
X-72297Y62046D01*
X-71851Y62713D01*
X-71694Y63500D01*
Y69500D01*
X-71851Y70287D01*
X-72297Y70953D01*
X-72963Y71399D01*
X-73750Y71556D01*
X-80399D01*
X-88296Y79454D01*
X-88963Y79899D01*
X-89750Y80056D01*
X-89750Y80056D01*
X-124522D01*
X-124609Y80266D01*
X-125734Y81391D01*
X-127204Y82000D01*
X-128796D01*
X-130266Y81391D01*
X-131391Y80266D01*
X-132000Y78796D01*
Y77204D01*
X-131656Y76375D01*
X-132733Y75655D01*
X-132797Y75719D01*
X-132843Y75750D01*
X-134087Y76994D01*
X-134000Y77204D01*
Y78796D01*
X-134609Y80266D01*
X-135734Y81391D01*
X-137204Y82000D01*
X-138796D01*
X-140266Y81391D01*
X-140670Y80986D01*
X-141500Y80350D01*
X-142330Y80986D01*
X-142734Y81391D01*
X-144204Y82000D01*
X-145796D01*
X-147266Y81391D01*
X-147560Y81097D01*
X-148602Y81648D01*
X-148718Y81735D01*
X-149064Y84195D01*
X-149473Y84889D01*
X-148645Y85987D01*
X-147865Y85785D01*
X-145377Y86135D01*
X-143212Y87410D01*
X-141700Y89417D01*
X-141071Y91849D01*
X-141421Y94337D01*
X-141830Y95031D01*
X-141002Y96129D01*
X-140222Y95928D01*
X-137734Y96277D01*
X-135569Y97552D01*
X-134057Y99559D01*
X-133428Y101992D01*
X-133778Y104480D01*
X-134186Y105174D01*
X-133359Y106272D01*
X-132579Y106070D01*
X-130091Y106420D01*
X-127926Y107695D01*
X-126414Y109702D01*
X-126105Y110897D01*
X-118797D01*
X-118797Y110897D01*
X-118011Y111054D01*
X-117344Y111499D01*
X-112899Y115944D01*
X-106250D01*
X-105463Y116101D01*
X-104796Y116546D01*
X-104351Y117213D01*
X-104194Y118000D01*
Y122079D01*
X-102924Y122605D01*
X-100806Y120486D01*
Y118000D01*
X-100649Y117213D01*
X-100204Y116547D01*
X-99537Y116101D01*
X-98750Y115944D01*
X-91250D01*
X-90463Y116101D01*
X-89796Y116547D01*
X-89351Y117213D01*
X-89311Y117415D01*
X-85689D01*
X-85649Y117213D01*
X-85204Y116547D01*
X-84537Y116101D01*
X-83750Y115944D01*
X-76250D01*
X-75463Y116101D01*
X-74797Y116547D01*
X-74351Y117213D01*
X-74194Y118000D01*
Y118272D01*
X-69378D01*
Y118122D01*
X-60622Y118122D01*
X-60072Y117079D01*
Y35335D01*
X-70567Y24840D01*
X-70912Y24826D01*
X-72077Y25126D01*
X-72297Y25453D01*
X-72963Y25899D01*
X-73750Y26056D01*
X-81250D01*
X-82037Y25899D01*
X-82704Y25453D01*
X-83149Y24787D01*
X-83306Y24000D01*
Y18000D01*
X-83149Y17213D01*
X-82704Y16546D01*
X-82037Y16101D01*
X-81250Y15944D01*
X-79556D01*
Y11556D01*
X-81250D01*
X-82037Y11399D01*
X-82704Y10953D01*
X-83149Y10287D01*
X-83306Y9500D01*
Y3500D01*
X-83149Y2713D01*
X-82704Y2046D01*
X-82037Y1601D01*
X-81250Y1444D01*
X-73750D01*
X-72963Y1601D01*
X-72297Y2046D01*
X-71851Y2713D01*
X-71694Y3500D01*
Y9500D01*
X-71851Y10287D01*
X-72297Y10953D01*
X-72963Y11399D01*
X-73750Y11556D01*
X-75444D01*
Y15944D01*
X-73750D01*
X-72963Y16101D01*
X-72297Y16546D01*
X-71851Y17213D01*
X-71694Y18000D01*
Y18628D01*
X-70922Y19523D01*
X-70135Y19679D01*
X-69468Y20125D01*
X-58229Y31364D01*
X-57056Y30878D01*
Y14102D01*
X-59601Y11556D01*
X-66250D01*
X-67037Y11399D01*
X-67703Y10954D01*
X-68149Y10287D01*
X-68306Y9500D01*
Y3500D01*
X-68149Y2713D01*
X-67703Y2047D01*
X-67037Y1601D01*
X-66250Y1444D01*
X-58750D01*
X-57963Y1601D01*
X-57297Y2047D01*
X-56851Y2713D01*
X-56694Y3500D01*
Y4444D01*
X-53306D01*
Y3500D01*
X-53149Y2713D01*
X-52703Y2046D01*
X-52037Y1601D01*
X-51250Y1444D01*
X-43750D01*
X-43326Y1529D01*
X-42321Y950D01*
X-42056Y680D01*
Y-11649D01*
X-43351Y-12945D01*
X-80750D01*
X-80750Y-12945D01*
X-81537Y-13101D01*
X-82204Y-13547D01*
X-87101Y-18444D01*
X-93750D01*
X-94537Y-18601D01*
X-95204Y-19046D01*
X-95649Y-19713D01*
X-95806Y-20500D01*
Y-26500D01*
X-95649Y-27287D01*
X-95204Y-27954D01*
X-94537Y-28399D01*
X-93750Y-28556D01*
X-86250D01*
X-85463Y-28399D01*
X-84796Y-27954D01*
X-84351Y-27287D01*
X-84194Y-26500D01*
Y-21351D01*
X-80036Y-17193D01*
X-78766Y-17387D01*
Y-43766D01*
X-51234D01*
Y-17055D01*
X-47843D01*
X-46916Y-17884D01*
X-46916Y-18326D01*
Y-32116D01*
X-43555D01*
Y-39195D01*
X-44500D01*
X-45287Y-39351D01*
X-45953Y-39797D01*
X-46399Y-40463D01*
X-46556Y-41250D01*
Y-48750D01*
X-46399Y-49537D01*
X-45953Y-50203D01*
X-45287Y-50649D01*
X-45136Y-50679D01*
Y-50910D01*
X-44527Y-52380D01*
X-43402Y-53505D01*
X-41932Y-54114D01*
X-40340D01*
X-38870Y-53505D01*
X-38326Y-52960D01*
X-37055Y-53486D01*
Y-57984D01*
X-38016D01*
Y-68016D01*
X-32719D01*
X-32193Y-69286D01*
X-35851Y-72944D01*
X-38500D01*
X-38500Y-72944D01*
X-39287Y-73101D01*
X-39953Y-73547D01*
X-39953Y-73547D01*
X-41954Y-75547D01*
X-42399Y-76213D01*
X-42552Y-76984D01*
X-43945D01*
Y-57000D01*
X-43945Y-57000D01*
X-44101Y-56213D01*
X-44546Y-55546D01*
X-44547Y-55546D01*
X-49047Y-51047D01*
X-49713Y-50601D01*
X-50500Y-50444D01*
X-50500Y-50444D01*
X-76000D01*
X-76000Y-50444D01*
X-76787Y-50601D01*
X-77453Y-51047D01*
X-77453Y-51047D01*
X-80175Y-53768D01*
X-81445Y-53242D01*
Y-42250D01*
X-81601Y-41463D01*
X-82046Y-40797D01*
X-82047Y-40796D01*
X-84194Y-38649D01*
Y-33500D01*
X-84351Y-32713D01*
X-84796Y-32046D01*
X-85463Y-31601D01*
X-86250Y-31444D01*
X-93750D01*
X-94537Y-31601D01*
X-95204Y-32046D01*
X-95649Y-32713D01*
X-95806Y-33500D01*
Y-39500D01*
X-95649Y-40287D01*
X-95204Y-40953D01*
X-94537Y-41399D01*
X-93750Y-41556D01*
X-87101D01*
X-85555Y-43101D01*
Y-54194D01*
X-86500D01*
X-87287Y-54351D01*
X-87953Y-54797D01*
X-88399Y-55463D01*
X-88555Y-56250D01*
Y-63750D01*
X-88399Y-64537D01*
X-87953Y-65203D01*
X-87287Y-65649D01*
X-86500Y-65806D01*
X-80500D01*
X-79713Y-65649D01*
X-79047Y-65203D01*
X-78601Y-64537D01*
X-78444Y-63750D01*
Y-57802D01*
X-78296Y-57703D01*
X-75149Y-54556D01*
X-65299D01*
X-64807Y-55622D01*
X-64807Y-55826D01*
Y-64378D01*
X-62780D01*
Y-72420D01*
X-65250D01*
X-66524Y-72674D01*
X-67605Y-73395D01*
X-68327Y-74476D01*
X-68580Y-75750D01*
X-68327Y-77024D01*
X-67605Y-78105D01*
X-66524Y-78826D01*
X-65250Y-79080D01*
X-53750D01*
X-52476Y-78826D01*
X-51395Y-78105D01*
X-50673Y-77024D01*
X-50420Y-75750D01*
X-50673Y-74476D01*
X-51395Y-73395D01*
X-52476Y-72674D01*
X-53750Y-72420D01*
X-57649D01*
Y-64378D01*
X-55622D01*
Y-55826D01*
X-55622Y-55622D01*
X-55129Y-54556D01*
X-51351D01*
X-48056Y-57851D01*
Y-86351D01*
X-48056Y-86351D01*
X-47899Y-87138D01*
X-47453Y-87804D01*
X-45789Y-89469D01*
X-45788Y-89469D01*
X-45122Y-89915D01*
X-44335Y-90071D01*
X-37337D01*
X-37337Y-90071D01*
X-36550Y-89915D01*
X-35883Y-89469D01*
X-34546Y-88133D01*
X-34101Y-87466D01*
X-34011Y-87016D01*
X-31984D01*
Y-76984D01*
X-32281D01*
X-32807Y-75714D01*
X-30173Y-73080D01*
X-28881Y-73584D01*
X-28391Y-74766D01*
X-27266Y-75891D01*
X-25796Y-76500D01*
X-24204D01*
X-22734Y-75891D01*
X-21609Y-74766D01*
X-21000Y-73296D01*
Y-71704D01*
X-21609Y-70234D01*
X-22734Y-69109D01*
X-23419Y-68825D01*
X-23166Y-67555D01*
X-18305D01*
Y-69500D01*
X-18149Y-70287D01*
X-17703Y-70953D01*
X-17037Y-71399D01*
X-16250Y-71556D01*
X-8750D01*
X-7963Y-71399D01*
X-7297Y-70953D01*
X-6851Y-70287D01*
X-6694Y-69500D01*
Y-63500D01*
X-6851Y-62713D01*
X-7297Y-62046D01*
X-7963Y-61601D01*
X-8750Y-61445D01*
X-16250D01*
X-17037Y-61601D01*
X-17703Y-62046D01*
X-18149Y-62713D01*
X-18295Y-63444D01*
X-25484D01*
Y-57984D01*
X-32046Y-57984D01*
X-32945Y-57086D01*
Y-53101D01*
X-30649Y-50806D01*
X-25500D01*
X-24713Y-50649D01*
X-24047Y-50203D01*
X-23601Y-49537D01*
X-23475Y-48905D01*
X-22234Y-48391D01*
X-21109Y-47266D01*
X-20500Y-45796D01*
Y-44204D01*
X-21109Y-42734D01*
X-22234Y-41609D01*
X-23475Y-41095D01*
X-23601Y-40463D01*
X-24047Y-39797D01*
X-24713Y-39351D01*
X-25500Y-39195D01*
X-31500D01*
X-32287Y-39351D01*
X-32954Y-39797D01*
X-33399Y-40463D01*
X-33556Y-41250D01*
Y-47899D01*
X-35334Y-49677D01*
X-36504Y-49051D01*
X-36444Y-48750D01*
Y-41250D01*
X-36601Y-40463D01*
X-37047Y-39797D01*
X-37713Y-39351D01*
X-38500Y-39195D01*
X-39444D01*
Y-32116D01*
X-35784D01*
Y-17884D01*
X-40902D01*
X-41287Y-16614D01*
X-41047Y-16453D01*
X-38547Y-13953D01*
X-38101Y-13287D01*
X-37945Y-12500D01*
X-37945Y-12500D01*
Y10015D01*
X-37945Y10015D01*
X-38101Y10802D01*
X-38547Y11469D01*
X-38547Y11469D01*
X-49928Y22851D01*
Y118128D01*
X-48658Y118864D01*
X-47780Y118500D01*
X-46407D01*
X-35422Y107514D01*
X-34755Y107069D01*
X-33968Y106912D01*
X-33968Y106912D01*
X8165D01*
X9929Y105149D01*
Y89180D01*
X9929Y89180D01*
X10085Y88393D01*
X10531Y87726D01*
X15226Y83031D01*
X15893Y82585D01*
X16680Y82429D01*
X27883D01*
X28163Y82149D01*
Y75502D01*
X28163Y75501D01*
X28319Y74715D01*
X28765Y74048D01*
X32298Y70514D01*
X32965Y70069D01*
X33751Y69913D01*
X33752Y69913D01*
X40415D01*
X44412Y65915D01*
Y24319D01*
X41265Y21172D01*
X40819Y20505D01*
X40662Y19718D01*
X40662Y19718D01*
Y-27259D01*
X40461Y-27460D01*
X12617D01*
X10805Y-25649D01*
Y-20500D01*
X10649Y-19713D01*
X10203Y-19046D01*
X9537Y-18601D01*
X8750Y-18444D01*
X1250D01*
X463Y-18601D01*
X-203Y-19046D01*
X-649Y-19713D01*
X-806Y-20500D01*
Y-26500D01*
X-649Y-27287D01*
X-203Y-27954D01*
X463Y-28399D01*
X1250Y-28556D01*
X7899D01*
X9677Y-30334D01*
X9051Y-31504D01*
X8750Y-31444D01*
X1250D01*
X463Y-31601D01*
X-203Y-32046D01*
X-649Y-32713D01*
X-806Y-33500D01*
Y-39500D01*
X-649Y-40287D01*
X-203Y-40953D01*
X463Y-41399D01*
X1250Y-41556D01*
X8750D01*
X9537Y-41399D01*
X10203Y-40953D01*
X10649Y-40287D01*
X10805Y-39500D01*
Y-38556D01*
X14195D01*
Y-39500D01*
X14351Y-40287D01*
X14797Y-40953D01*
X15463Y-41399D01*
X16250Y-41556D01*
X23750D01*
X24537Y-41399D01*
X25203Y-40953D01*
X25649Y-40287D01*
X25805Y-39500D01*
Y-38556D01*
X29984D01*
Y-41016D01*
X41016D01*
Y-32785D01*
X41241Y-31862D01*
X42054Y-31424D01*
X42099Y-31415D01*
X42766Y-30970D01*
X44171Y-29564D01*
X44172Y-29564D01*
X44617Y-28897D01*
X44774Y-28110D01*
X44774Y-28110D01*
Y5152D01*
X46009Y5742D01*
X46724Y5264D01*
X46754Y4298D01*
X46694Y4000D01*
Y-2000D01*
X46851Y-2787D01*
X47297Y-3453D01*
X47963Y-3899D01*
X48750Y-4056D01*
X56250D01*
X57037Y-3899D01*
X57703Y-3453D01*
X58149Y-2787D01*
X58306Y-2000D01*
Y-1055D01*
X62484D01*
Y-3516D01*
X68444D01*
Y-7000D01*
X68444Y-7000D01*
X68444Y-7000D01*
Y-13750D01*
X68601Y-14537D01*
X69047Y-15203D01*
X69713Y-15649D01*
X70500Y-15805D01*
X76500D01*
X77287Y-15649D01*
X77953Y-15203D01*
X78399Y-14537D01*
X78555Y-13750D01*
Y-6250D01*
X78399Y-5463D01*
X77953Y-4796D01*
X77287Y-4351D01*
X76500Y-4195D01*
X74505D01*
X73516Y-3516D01*
X73516Y4550D01*
Y4592D01*
D01*
X73516Y4781D01*
X73839Y4915D01*
X74786Y5307D01*
X81445Y-1351D01*
Y-6485D01*
X81444Y-6485D01*
X81445Y-6485D01*
Y-13750D01*
X81601Y-14537D01*
X82046Y-15203D01*
X82713Y-15649D01*
X83500Y-15805D01*
X89500D01*
X90287Y-15649D01*
X90953Y-15203D01*
X91399Y-14537D01*
X91556Y-13750D01*
Y-8540D01*
X93500D01*
X93500Y-8540D01*
X94287Y-8384D01*
X94953Y-7938D01*
X97602Y-5289D01*
X104398D01*
X105444Y-6336D01*
Y-14515D01*
X105444Y-14515D01*
X105601Y-15302D01*
X106046Y-15969D01*
X109031Y-18953D01*
X109031Y-18953D01*
X109627Y-19352D01*
X109642Y-19445D01*
X109050Y-20622D01*
X107693D01*
Y-27105D01*
X107307Y-28279D01*
X99221D01*
Y-25000D01*
X98899Y-24222D01*
X98122Y-23900D01*
X95000D01*
X94222Y-24222D01*
X93900Y-25000D01*
Y-31843D01*
X94222Y-32621D01*
X94649Y-33047D01*
X94860Y-33135D01*
X95025Y-33293D01*
X95908Y-34119D01*
X96000Y-34884D01*
Y-35116D01*
X95908Y-35881D01*
X95025Y-36707D01*
X94860Y-36865D01*
X94649Y-36953D01*
X94222Y-37379D01*
X93900Y-38157D01*
Y-60000D01*
X94128Y-60550D01*
X93900Y-61100D01*
Y-80000D01*
X94222Y-80778D01*
X95000Y-81100D01*
X133552D01*
X133913Y-81973D01*
X133998Y-82370D01*
X133601Y-82963D01*
X133444Y-83750D01*
Y-91250D01*
X133601Y-92037D01*
X134046Y-92704D01*
X134713Y-93149D01*
X135500Y-93306D01*
X141500D01*
X142287Y-93149D01*
X142954Y-92704D01*
X143399Y-92037D01*
X143555Y-91250D01*
Y-83750D01*
X143399Y-82963D01*
X143002Y-82370D01*
X143087Y-81973D01*
X143448Y-81100D01*
X146552D01*
X146913Y-81973D01*
X146998Y-82370D01*
X146601Y-82963D01*
X146445Y-83750D01*
Y-91250D01*
X146601Y-92037D01*
X147046Y-92704D01*
X147713Y-93149D01*
X148500Y-93306D01*
X149445D01*
Y-96694D01*
X148500D01*
X147713Y-96851D01*
X147046Y-97296D01*
X146601Y-97963D01*
X146445Y-98750D01*
Y-106250D01*
X146601Y-107037D01*
X147046Y-107704D01*
X147713Y-108149D01*
X148500Y-108306D01*
X154500D01*
X155287Y-108149D01*
X155953Y-107704D01*
X156399Y-107037D01*
X156556Y-106250D01*
Y-99008D01*
X157278Y-98530D01*
X157734Y-98391D01*
X159204Y-99000D01*
X160796D01*
X162266Y-98391D01*
X163391Y-97266D01*
X164000Y-95796D01*
Y-94204D01*
X163391Y-92734D01*
X163262Y-92605D01*
X163981Y-91529D01*
X164119Y-91586D01*
X165710D01*
X167180Y-90976D01*
X168306Y-89851D01*
X168487Y-89413D01*
X169807Y-89094D01*
X170622Y-89777D01*
Y-94378D01*
X179807D01*
Y-85622D01*
X174249D01*
X172444Y-83816D01*
X172229Y-83493D01*
X171008Y-82273D01*
X171494Y-81100D01*
X190000D01*
X190778Y-80778D01*
X191100Y-80000D01*
Y-79174D01*
X192370Y-78834D01*
X192398Y-78883D01*
X194167Y-80652D01*
X196333Y-81903D01*
X198749Y-82550D01*
X201251D01*
X203667Y-81903D01*
X205833Y-80652D01*
X207602Y-78883D01*
X208853Y-76717D01*
X209500Y-74301D01*
Y-71799D01*
X208853Y-69383D01*
X207690Y-67370D01*
X208073Y-66100D01*
X230000D01*
X230778Y-65778D01*
X231100Y-65000D01*
Y-12500D01*
X230778Y-11722D01*
X230000Y-11400D01*
X168974D01*
X168487Y-10227D01*
X168953Y-9761D01*
X168953Y-9761D01*
X169399Y-9094D01*
X169555Y-8308D01*
Y60000D01*
X169399Y60787D01*
X168953Y61453D01*
X168953Y61453D01*
X157056Y73351D01*
Y74781D01*
X158326Y75307D01*
X158948Y74685D01*
X161253Y73730D01*
X163747D01*
X166052Y74685D01*
X167815Y76448D01*
X168770Y78753D01*
Y81247D01*
X167815Y83552D01*
X167556Y83811D01*
X168042Y84984D01*
X174516D01*
Y92421D01*
X174704Y92547D01*
X182666Y100509D01*
X182733Y100524D01*
X183380Y99909D01*
X183601Y99537D01*
X183596Y99512D01*
X183444Y98750D01*
Y91250D01*
X183601Y90463D01*
X184046Y89796D01*
X184713Y89351D01*
X185500Y89194D01*
X191500D01*
X192287Y89351D01*
X192953Y89796D01*
X193399Y90463D01*
X193556Y91250D01*
Y97899D01*
X195334Y99677D01*
X196504Y99052D01*
X196444Y98750D01*
Y91250D01*
X196601Y90463D01*
X197047Y89796D01*
X197713Y89351D01*
X198500Y89194D01*
X204500D01*
X205287Y89351D01*
X205954Y89796D01*
X206399Y90463D01*
X206556Y91250D01*
Y92517D01*
X207826Y92768D01*
X209087Y91506D01*
X209000Y91296D01*
Y89704D01*
X209609Y88234D01*
X210734Y87109D01*
X212204Y86500D01*
X213796D01*
X215266Y87109D01*
X216391Y88234D01*
X217000Y89704D01*
Y91296D01*
X216391Y92766D01*
X215266Y93891D01*
X214214Y94327D01*
Y95673D01*
X215266Y96109D01*
X216391Y97234D01*
X217000Y98704D01*
Y100296D01*
X216391Y101766D01*
X215266Y102891D01*
X213796Y103500D01*
X212204D01*
X211994Y103413D01*
X207657Y107750D01*
X206990Y108196D01*
X206556Y108282D01*
Y113750D01*
X206399Y114537D01*
X205954Y115204D01*
X205287Y115649D01*
X204500Y115806D01*
X200438D01*
X200185Y117076D01*
X200266Y117109D01*
X201391Y118234D01*
X202000Y119704D01*
Y121296D01*
X201391Y122766D01*
X200266Y123891D01*
X199214Y124327D01*
Y125673D01*
X200266Y126109D01*
X201391Y127234D01*
X202000Y128704D01*
Y130296D01*
X201391Y131766D01*
X200266Y132891D01*
X198796Y133500D01*
X197204D01*
X196994Y133413D01*
X192657Y137750D01*
X191990Y138196D01*
X191556Y138282D01*
Y143750D01*
X191399Y144537D01*
X190954Y145204D01*
X190287Y145649D01*
X189500Y145806D01*
X183500D01*
X182713Y145649D01*
X182047Y145204D01*
X181601Y144537D01*
X181444Y143750D01*
Y136250D01*
X181601Y135463D01*
X182047Y134796D01*
X182713Y134351D01*
X183500Y134194D01*
X189500D01*
X189734Y134241D01*
X190352D01*
X194087Y130506D01*
X194000Y130296D01*
Y128704D01*
X194205Y128210D01*
X193769Y127495D01*
X193308Y127056D01*
X191556D01*
Y128750D01*
X191399Y129537D01*
X190954Y130204D01*
X190287Y130649D01*
X189500Y130806D01*
X183500D01*
X183326Y130771D01*
X182318Y131213D01*
X181984Y131689D01*
X181899Y132115D01*
X181453Y132782D01*
X181453Y132782D01*
X180282Y133954D01*
X179615Y134399D01*
X179262Y134469D01*
X178656Y135167D01*
X178471Y135826D01*
X178556Y136250D01*
Y143750D01*
X178399Y144537D01*
X177953Y145204D01*
X177287Y145649D01*
X176500Y145806D01*
X170500D01*
X169713Y145649D01*
X169047Y145204D01*
X168601Y144537D01*
X168444Y143750D01*
Y136250D01*
X168529Y135826D01*
X167950Y134821D01*
X167795Y134668D01*
X166489Y134752D01*
X165771Y135826D01*
X165805Y136000D01*
Y142000D01*
X165649Y142787D01*
X165203Y143453D01*
X164537Y143899D01*
X163750Y144056D01*
X161823D01*
Y145743D01*
X161627Y146724D01*
X161071Y147557D01*
X158565Y150063D01*
Y152500D01*
X158555Y152549D01*
Y158750D01*
X158399Y159537D01*
X157954Y160203D01*
X157287Y160649D01*
X156500Y160805D01*
X156065D01*
Y164195D01*
X156500D01*
X157287Y164351D01*
X157954Y164797D01*
X158399Y165463D01*
X158555Y166250D01*
Y173750D01*
X158399Y174537D01*
X157954Y175203D01*
X157287Y175649D01*
X156500Y175805D01*
X150500D01*
X150414Y175788D01*
X150380Y175782D01*
X150214Y176328D01*
X150632Y177475D01*
X151391Y178234D01*
X152000Y179704D01*
Y181296D01*
X151391Y182766D01*
X150266Y183891D01*
X149214Y184327D01*
Y185673D01*
X150266Y186109D01*
X151391Y187234D01*
X152000Y188704D01*
Y190296D01*
X151391Y191766D01*
X150266Y192891D01*
X148796Y193500D01*
X147204D01*
X145734Y192891D01*
X144609Y191766D01*
X144522Y191556D01*
X141556D01*
Y193750D01*
X141399Y194537D01*
X140954Y195203D01*
X140287Y195649D01*
X139500Y195805D01*
X133500D01*
X132713Y195649D01*
X132047Y195203D01*
X131601Y194537D01*
X131445Y193750D01*
Y186250D01*
X131601Y185463D01*
X132047Y184797D01*
X132713Y184351D01*
X133500Y184195D01*
X139500D01*
X140287Y184351D01*
X140954Y184797D01*
X141399Y185463D01*
X141556Y186250D01*
Y187444D01*
X144522D01*
X144609Y187234D01*
X145734Y186109D01*
X146786Y185673D01*
Y184327D01*
X145734Y183891D01*
X144609Y182766D01*
X144000Y181296D01*
Y179704D01*
X144087Y179494D01*
X142825Y178232D01*
X141556Y178750D01*
X141399Y179537D01*
X140954Y180203D01*
X140287Y180649D01*
X139500Y180805D01*
X133500D01*
X132713Y180649D01*
X132047Y180203D01*
X131601Y179537D01*
X131445Y178750D01*
Y171730D01*
X130208Y171170D01*
X128555Y172822D01*
Y178750D01*
X128399Y179537D01*
X127954Y180203D01*
X127287Y180649D01*
X126500Y180805D01*
X120500D01*
X119713Y180649D01*
X119047Y180203D01*
X118601Y179537D01*
X118444Y178750D01*
Y171250D01*
X118601Y170463D01*
X119047Y169797D01*
X119713Y169351D01*
X120500Y169195D01*
X124928D01*
X127151Y166971D01*
X126526Y165800D01*
X126500Y165805D01*
X120500D01*
X119713Y165649D01*
X119046Y165203D01*
X118601Y164537D01*
X118444Y163750D01*
Y162055D01*
X116016D01*
Y166016D01*
X109891D01*
X103193Y172714D01*
X103443Y173652D01*
X103676Y173984D01*
X109516D01*
Y181388D01*
X115563Y187435D01*
X118444D01*
Y186250D01*
X118601Y185463D01*
X119047Y184797D01*
X119713Y184351D01*
X120500Y184195D01*
X126500D01*
X127287Y184351D01*
X127954Y184797D01*
X128399Y185463D01*
X128555Y186250D01*
Y193750D01*
X128399Y194537D01*
X127954Y195203D01*
X127287Y195649D01*
X126500Y195805D01*
X120500D01*
X119713Y195649D01*
X119047Y195203D01*
X118601Y194537D01*
X118444Y193750D01*
Y192565D01*
X114500D01*
X113518Y192370D01*
X112686Y191814D01*
X112076Y191203D01*
X110806Y191729D01*
Y196500D01*
X110649Y197287D01*
X110204Y197953D01*
X109537Y198399D01*
X108750Y198556D01*
X101250D01*
X100463Y198399D01*
X99796Y197953D01*
X99351Y197287D01*
X99194Y196500D01*
Y196344D01*
X98816Y196141D01*
X97924Y195954D01*
X96988Y196891D01*
X95518Y197500D01*
X95506D01*
X95204Y197953D01*
X94537Y198399D01*
X93750Y198556D01*
X86250D01*
X85463Y198399D01*
X84797Y197953D01*
X84351Y197287D01*
X84194Y196500D01*
Y190500D01*
X84351Y189713D01*
X84797Y189047D01*
X85463Y188601D01*
X86250Y188444D01*
X93750D01*
X94537Y188601D01*
X94872Y188825D01*
X95682Y187839D01*
X93377Y185534D01*
X85256D01*
X85256Y185534D01*
X84469Y185377D01*
X83802Y184932D01*
X78229Y179358D01*
X77056Y179844D01*
Y182500D01*
X77056Y182500D01*
X76899Y183287D01*
X76453Y183953D01*
X73953Y186453D01*
X73287Y186899D01*
X72500Y187055D01*
X72500Y187055D01*
X60000D01*
X59213Y186899D01*
X58547Y186453D01*
X58547Y186453D01*
X55546Y183454D01*
X55101Y182787D01*
X54945Y182000D01*
X53857Y181516D01*
X52984D01*
Y170484D01*
X59016D01*
X59435Y169387D01*
Y168063D01*
X58937Y167565D01*
X54257D01*
X53276Y167370D01*
X52443Y166814D01*
X48186Y162557D01*
X47630Y161724D01*
X47435Y160743D01*
Y125000D01*
X47630Y124018D01*
X48186Y123186D01*
X51000Y120372D01*
Y119204D01*
X51364Y118326D01*
X50628Y117056D01*
X-24149D01*
X-28587Y121494D01*
X-28500Y121704D01*
Y123296D01*
X-29109Y124766D01*
X-30234Y125891D01*
X-31704Y126500D01*
X-33296D01*
X-34766Y125891D01*
X-35427Y125230D01*
X-36250Y124907D01*
X-37073Y125230D01*
X-37734Y125891D01*
X-39204Y126500D01*
X-40796D01*
X-42266Y125891D01*
X-42662Y125494D01*
X-43492Y124845D01*
X-44322Y125494D01*
X-44506Y125678D01*
X-44714Y125945D01*
X-44619Y127225D01*
X-44109Y127734D01*
X-43500Y129204D01*
Y130796D01*
X-44109Y132266D01*
X-44770Y132927D01*
X-45093Y133750D01*
X-44770Y134573D01*
X-44109Y135234D01*
X-43500Y136704D01*
Y138296D01*
X-44109Y139766D01*
X-45234Y140891D01*
X-46704Y141500D01*
X-47797D01*
X-48342Y142751D01*
X-17547Y173547D01*
X-17546Y173547D01*
X-17101Y174213D01*
X-16945Y175000D01*
Y205149D01*
X-16006Y206087D01*
X-15796Y206000D01*
X-14204D01*
X-12734Y206609D01*
X-11609Y207734D01*
X-11000Y209204D01*
Y210796D01*
X-11609Y212266D01*
X-12734Y213391D01*
X-14204Y214000D01*
X-15796D01*
X-17266Y213391D01*
X-17927Y212730D01*
X-18750Y212407D01*
X-19573Y212730D01*
X-20234Y213391D01*
X-21704Y214000D01*
X-23296D01*
X-24766Y213391D01*
X-25891Y212266D01*
X-26500Y210796D01*
Y209204D01*
X-25891Y207734D01*
X-24766Y206609D01*
X-24555Y206522D01*
Y176617D01*
X-57924Y143248D01*
X-59194Y143774D01*
Y148149D01*
X-48547Y158797D01*
X-48547Y158797D01*
X-48101Y159463D01*
X-47944Y160250D01*
X-47944Y160250D01*
Y169022D01*
X-47734Y169109D01*
X-46609Y170234D01*
X-46000Y171704D01*
Y173296D01*
X-46484Y174464D01*
Y179016D01*
X-53516D01*
Y174464D01*
X-54000Y173296D01*
Y171704D01*
X-53391Y170234D01*
X-52266Y169109D01*
X-52056Y169022D01*
Y161101D01*
X-58084Y155073D01*
X-59254Y155698D01*
X-59194Y156000D01*
Y162000D01*
X-59351Y162787D01*
X-59797Y163454D01*
X-60463Y163899D01*
X-61250Y164056D01*
X-66445D01*
Y166000D01*
X-66445Y166000D01*
X-66601Y166787D01*
X-67047Y167453D01*
X-71132Y171539D01*
X-71064Y171704D01*
Y173296D01*
X-71673Y174766D01*
X-72315Y175408D01*
X-72624Y176292D01*
X-72295Y177048D01*
X-71609Y177734D01*
X-71000Y179204D01*
Y180796D01*
X-71609Y182266D01*
X-72270Y182927D01*
X-72593Y183750D01*
X-72270Y184573D01*
X-71609Y185234D01*
X-71000Y186704D01*
Y188296D01*
X-71609Y189766D01*
X-72270Y190427D01*
X-72593Y191250D01*
X-72270Y192073D01*
X-71609Y192734D01*
X-71000Y194204D01*
Y195796D01*
X-71609Y197266D01*
X-72270Y197927D01*
X-72593Y198750D01*
X-72270Y199573D01*
X-71609Y200234D01*
X-71000Y201704D01*
Y203296D01*
X-71609Y204766D01*
X-72734Y205891D01*
X-73122Y206052D01*
Y214378D01*
D02*
G37*
G36*
X11878Y214378D02*
X2693D01*
Y205622D01*
X4720D01*
Y199378D01*
X2693D01*
Y190622D01*
X11878D01*
Y199378D01*
X9851D01*
Y205622D01*
X11878D01*
Y214378D01*
D02*
G37*
G36*
X40796Y196500D02*
X39204D01*
X37734Y195891D01*
X36609Y194766D01*
X36000Y193296D01*
Y191704D01*
X36609Y190234D01*
X37734Y189109D01*
X39204Y188500D01*
X40796D01*
X42266Y189109D01*
X43391Y190234D01*
X44000Y191704D01*
Y193296D01*
X43391Y194766D01*
X42266Y195891D01*
X40796Y196500D01*
D02*
G37*
G36*
X-112204Y194048D02*
X-113796D01*
X-115266Y193439D01*
X-116391Y192314D01*
X-117000Y190844D01*
Y189252D01*
X-116899Y189008D01*
X-119091Y186816D01*
X-119537Y186149D01*
X-119693Y185362D01*
X-120447Y184378D01*
X-124378D01*
Y181976D01*
X-129194D01*
Y184500D01*
X-129351Y185287D01*
X-129796Y185954D01*
X-130463Y186399D01*
X-131250Y186556D01*
X-138750D01*
X-139537Y186399D01*
X-140204Y185954D01*
X-140649Y185287D01*
X-140806Y184500D01*
Y181976D01*
X-144194D01*
Y184500D01*
X-144351Y185287D01*
X-144796Y185954D01*
X-145463Y186399D01*
X-146250Y186556D01*
X-153750D01*
X-154537Y186399D01*
X-155204Y185954D01*
X-155649Y185287D01*
X-155806Y184500D01*
Y178500D01*
X-155649Y177713D01*
X-155204Y177047D01*
X-154537Y176601D01*
X-153750Y176444D01*
X-146250D01*
X-145463Y176601D01*
X-144796Y177047D01*
X-144351Y177713D01*
X-144321Y177865D01*
X-140679D01*
X-140649Y177713D01*
X-140204Y177047D01*
X-139537Y176601D01*
X-138750Y176444D01*
X-131250D01*
X-130463Y176601D01*
X-129796Y177047D01*
X-129351Y177713D01*
X-129321Y177865D01*
X-124378D01*
Y175193D01*
X-115622D01*
Y181949D01*
X-115582Y182148D01*
X-115582Y182148D01*
Y184511D01*
X-113972Y186121D01*
X-113796Y186048D01*
X-112204D01*
X-110734Y186657D01*
X-109609Y187782D01*
X-109000Y189252D01*
Y190844D01*
X-109609Y192314D01*
X-110734Y193439D01*
X-112204Y194048D01*
D02*
G37*
G36*
X-50622Y214378D02*
X-50622Y214378D01*
X-59807D01*
Y205622D01*
X-57565D01*
Y199378D01*
X-59807D01*
Y190622D01*
X-57565D01*
Y188500D01*
X-57370Y187518D01*
X-56814Y186686D01*
X-53516Y183388D01*
Y180984D01*
X-46484D01*
Y183388D01*
X-42972Y186900D01*
X-42416Y187733D01*
X-42220Y188714D01*
Y190622D01*
X-40193D01*
Y199378D01*
X-42220D01*
Y205622D01*
X-40193D01*
Y214378D01*
X-49378D01*
X-49378Y214378D01*
Y214378D01*
X-50622D01*
Y214378D01*
D02*
G37*
G36*
X158296Y186500D02*
X156704D01*
X155234Y185891D01*
X154109Y184766D01*
X153500Y183296D01*
Y181704D01*
X154109Y180234D01*
X155234Y179109D01*
X156704Y178500D01*
X158296D01*
X159766Y179109D01*
X160891Y180234D01*
X161500Y181704D01*
Y183296D01*
X160891Y184766D01*
X159766Y185891D01*
X158296Y186500D01*
D02*
G37*
G36*
X40796D02*
X39204D01*
X37734Y185891D01*
X36609Y184766D01*
X36000Y183296D01*
Y181704D01*
X36609Y180234D01*
X37734Y179109D01*
X39204Y178500D01*
X40796D01*
X42266Y179109D01*
X43391Y180234D01*
X44000Y181704D01*
Y183296D01*
X43391Y184766D01*
X42266Y185891D01*
X40796Y186500D01*
D02*
G37*
G36*
X-39204Y184000D02*
X-40796D01*
X-42266Y183391D01*
X-43391Y182266D01*
X-44000Y180796D01*
Y179204D01*
X-43391Y177734D01*
X-42266Y176609D01*
X-40796Y176000D01*
X-39204D01*
X-37734Y176609D01*
X-36609Y177734D01*
X-36000Y179204D01*
Y180796D01*
X-36609Y182266D01*
X-37734Y183391D01*
X-39204Y184000D01*
D02*
G37*
G36*
X15796Y189000D02*
X14204D01*
X12734Y188391D01*
X11609Y187266D01*
X11000Y185796D01*
Y184204D01*
X11609Y182734D01*
X12270Y182073D01*
X12593Y181250D01*
X12270Y180427D01*
X11609Y179766D01*
X11000Y178296D01*
Y176704D01*
X11609Y175234D01*
X12734Y174109D01*
X14204Y173500D01*
X15796D01*
X17266Y174109D01*
X18391Y175234D01*
X19000Y176704D01*
Y178296D01*
X18391Y179766D01*
X17730Y180427D01*
X17407Y181250D01*
X17730Y182073D01*
X18391Y182734D01*
X19000Y184204D01*
Y185796D01*
X18391Y187266D01*
X17266Y188391D01*
X15796Y189000D01*
D02*
G37*
G36*
X40780Y176500D02*
X39188D01*
X37718Y175891D01*
X36593Y174766D01*
X35984Y173296D01*
Y171704D01*
X36593Y170234D01*
X37718Y169109D01*
X39188Y168500D01*
X40780D01*
X42250Y169109D01*
X43375Y170234D01*
X43984Y171704D01*
Y173296D01*
X43375Y174766D01*
X42250Y175891D01*
X40780Y176500D01*
D02*
G37*
G36*
X15796Y171500D02*
X14204D01*
X12734Y170891D01*
X11609Y169766D01*
X11000Y168296D01*
Y166704D01*
X11609Y165234D01*
X12734Y164109D01*
X14204Y163500D01*
X15796D01*
X17266Y164109D01*
X18391Y165234D01*
X19000Y166704D01*
Y168296D01*
X18391Y169766D01*
X17266Y170891D01*
X15796Y171500D01*
D02*
G37*
G36*
X-99204Y201500D02*
X-100796D01*
X-102266Y200891D01*
X-103391Y199766D01*
X-104000Y198296D01*
Y196704D01*
X-103391Y195234D01*
X-102266Y194109D01*
X-102056Y194022D01*
Y170978D01*
X-102266Y170891D01*
X-103391Y169766D01*
X-104000Y168296D01*
Y166704D01*
X-103391Y165234D01*
X-102266Y164109D01*
X-100796Y163500D01*
X-99204D01*
X-97734Y164109D01*
X-96609Y165234D01*
X-96000Y166704D01*
Y168296D01*
X-96609Y169766D01*
X-97734Y170891D01*
X-97944Y170978D01*
Y194022D01*
X-97734Y194109D01*
X-96609Y195234D01*
X-96000Y196704D01*
Y198296D01*
X-96609Y199766D01*
X-97734Y200891D01*
X-99204Y201500D01*
D02*
G37*
G36*
X40780Y166500D02*
X39188D01*
X37718Y165891D01*
X36593Y164766D01*
X35984Y163296D01*
Y161704D01*
X36593Y160234D01*
X37718Y159109D01*
X39188Y158500D01*
X40780D01*
X42250Y159109D01*
X43375Y160234D01*
X43984Y161704D01*
Y163296D01*
X43375Y164766D01*
X42250Y165891D01*
X40780Y166500D01*
D02*
G37*
G36*
X-131250Y173556D02*
X-138750D01*
X-139537Y173399D01*
X-140204Y172953D01*
X-140649Y172287D01*
X-140806Y171500D01*
Y165500D01*
X-140649Y164713D01*
X-140204Y164047D01*
X-139537Y163601D01*
X-138750Y163444D01*
X-137056D01*
Y162228D01*
X-137266Y162141D01*
X-138391Y161016D01*
X-139000Y159546D01*
Y157954D01*
X-138391Y156484D01*
X-137266Y155359D01*
X-135796Y154750D01*
X-134204D01*
X-132734Y155359D01*
X-131609Y156484D01*
X-131000Y157954D01*
Y159546D01*
X-131609Y161016D01*
X-132734Y162141D01*
X-132944Y162228D01*
Y163444D01*
X-131250D01*
X-130463Y163601D01*
X-129796Y164047D01*
X-129351Y164713D01*
X-129194Y165500D01*
Y171500D01*
X-129351Y172287D01*
X-129796Y172953D01*
X-130463Y173399D01*
X-131250Y173556D01*
D02*
G37*
G36*
X15796Y161500D02*
X14204D01*
X12734Y160891D01*
X11609Y159766D01*
X11000Y158296D01*
Y156704D01*
X11609Y155234D01*
X12734Y154109D01*
X14204Y153500D01*
X15796D01*
X17266Y154109D01*
X18391Y155234D01*
X19000Y156704D01*
Y158296D01*
X18391Y159766D01*
X17266Y160891D01*
X15796Y161500D01*
D02*
G37*
G36*
X-99204D02*
X-100796D01*
X-102266Y160891D01*
X-103391Y159766D01*
X-104000Y158296D01*
Y156704D01*
X-103391Y155234D01*
X-102266Y154109D01*
X-100796Y153500D01*
X-99204D01*
X-97734Y154109D01*
X-96609Y155234D01*
X-96000Y156704D01*
Y158296D01*
X-96609Y159766D01*
X-97734Y160891D01*
X-99204Y161500D01*
D02*
G37*
G36*
X12307Y146878D02*
X3122D01*
Y138122D01*
X4720D01*
Y131878D01*
X3148D01*
X3122Y131878D01*
X1878D01*
X1852Y131878D01*
X-7307D01*
Y123122D01*
X1852D01*
X1878Y123122D01*
X3122D01*
X3148Y123122D01*
X12307D01*
Y131878D01*
X9851D01*
Y138122D01*
X12307D01*
Y146878D01*
D02*
G37*
G36*
X-113500Y105806D02*
X-119500D01*
X-120287Y105649D01*
X-120954Y105204D01*
X-121399Y104537D01*
X-121556Y103750D01*
Y102056D01*
X-125000D01*
X-125000Y102056D01*
X-125787Y101899D01*
X-126454Y101454D01*
X-126454Y101453D01*
X-128454Y99453D01*
X-128899Y98787D01*
X-129056Y98000D01*
X-129056Y98000D01*
Y96185D01*
X-129766Y95891D01*
X-130891Y94766D01*
X-131500Y93296D01*
Y91704D01*
X-130891Y90234D01*
X-129766Y89109D01*
X-128296Y88500D01*
X-126704D01*
X-125234Y89109D01*
X-124109Y90234D01*
X-123500Y91704D01*
Y93296D01*
X-124109Y94766D01*
X-124944Y95601D01*
Y97149D01*
X-124149Y97944D01*
X-121556D01*
Y96250D01*
X-121399Y95463D01*
X-120954Y94796D01*
X-120287Y94351D01*
X-119500Y94194D01*
X-113500D01*
X-112713Y94351D01*
X-112046Y94796D01*
X-111601Y95463D01*
X-111445Y96250D01*
Y103750D01*
X-111601Y104537D01*
X-112046Y105204D01*
X-112713Y105649D01*
X-113500Y105806D01*
D02*
G37*
G36*
X-1704Y96500D02*
X-3296D01*
X-4766Y95891D01*
X-5427Y95230D01*
X-6250Y94907D01*
X-7073Y95230D01*
X-7734Y95891D01*
X-9204Y96500D01*
X-10796D01*
X-12266Y95891D01*
X-12927Y95230D01*
X-13750Y94907D01*
X-14573Y95230D01*
X-15234Y95891D01*
X-16704Y96500D01*
X-18296D01*
X-19766Y95891D01*
X-20427Y95230D01*
X-21250Y94907D01*
X-22073Y95230D01*
X-22734Y95891D01*
X-24204Y96500D01*
X-25796D01*
X-27266Y95891D01*
X-27927Y95230D01*
X-28750Y94907D01*
X-29573Y95230D01*
X-30234Y95891D01*
X-31704Y96500D01*
X-33296D01*
X-34766Y95891D01*
X-35891Y94766D01*
X-36500Y93296D01*
Y91704D01*
X-35891Y90234D01*
X-34766Y89109D01*
X-33296Y88500D01*
X-31704D01*
X-31494Y88587D01*
X-22055Y79149D01*
Y43478D01*
X-22266Y43391D01*
X-23391Y42266D01*
X-24000Y40796D01*
Y39204D01*
X-23391Y37734D01*
X-22266Y36609D01*
X-22055Y36522D01*
Y-1522D01*
X-22266Y-1609D01*
X-23391Y-2734D01*
X-24000Y-4204D01*
Y-5796D01*
X-23391Y-7266D01*
X-22266Y-8391D01*
X-20796Y-9000D01*
X-19204D01*
X-17734Y-8391D01*
X-17318Y-8518D01*
X-16513Y-8965D01*
X-16399Y-9537D01*
X-15953Y-10203D01*
X-15287Y-10649D01*
X-14500Y-10805D01*
X-13556D01*
Y-17884D01*
X-14216D01*
Y-32116D01*
X-7156D01*
Y-43499D01*
X-7355Y-43699D01*
X-7965Y-45169D01*
Y-46760D01*
X-7718Y-47355D01*
X-8632Y-48468D01*
X-8750Y-48444D01*
X-16250D01*
X-17037Y-48601D01*
X-17703Y-49047D01*
X-18149Y-49713D01*
X-18305Y-50500D01*
Y-56500D01*
X-18149Y-57287D01*
X-17703Y-57954D01*
X-17037Y-58399D01*
X-16250Y-58555D01*
X-15369D01*
X-14296Y-59000D01*
X-12704D01*
X-11631Y-58555D01*
X-8750D01*
X-7963Y-58399D01*
X-7297Y-57954D01*
X-6851Y-57287D01*
X-6694Y-56500D01*
Y-50500D01*
X-5573Y-49628D01*
X-4760Y-49964D01*
X-3169D01*
X-1699Y-49356D01*
X-1592Y-49405D01*
X-665Y-50118D01*
X-665Y-51155D01*
Y-64037D01*
X6665D01*
Y-52860D01*
X8970Y-50556D01*
X18111D01*
X18790Y-51825D01*
X18548Y-52188D01*
X18263Y-53618D01*
Y-60372D01*
X18548Y-61802D01*
X19358Y-63015D01*
X20570Y-63825D01*
X22000Y-64109D01*
X23430Y-63825D01*
X24642Y-63015D01*
X25452Y-61802D01*
X25737Y-60372D01*
Y-57056D01*
X30879D01*
X31729Y-58326D01*
X31695Y-58500D01*
Y-64500D01*
X31851Y-65287D01*
X32297Y-65953D01*
X32963Y-66399D01*
X33750Y-66556D01*
X35445D01*
Y-73122D01*
X33122D01*
Y-75804D01*
X25737D01*
Y-74628D01*
X25452Y-73198D01*
X24642Y-71985D01*
X23430Y-71175D01*
X22000Y-70891D01*
X20570Y-71175D01*
X19358Y-71985D01*
X18548Y-73198D01*
X18263Y-74628D01*
Y-81382D01*
X18548Y-82812D01*
X19358Y-84024D01*
X20570Y-84834D01*
X22000Y-85119D01*
X23430Y-84834D01*
X24642Y-84024D01*
X25452Y-82812D01*
X25737Y-81382D01*
Y-79915D01*
X33122D01*
Y-82307D01*
X39664D01*
X39862Y-82347D01*
X39862Y-82347D01*
X42190D01*
X46694Y-86851D01*
Y-92000D01*
X46851Y-92787D01*
X47297Y-93454D01*
X47963Y-93899D01*
X48750Y-94056D01*
X56250D01*
X57037Y-93899D01*
X57703Y-93454D01*
X58149Y-92787D01*
X58306Y-92000D01*
Y-86000D01*
X58149Y-85213D01*
X57703Y-84546D01*
X57037Y-84101D01*
X56250Y-83945D01*
X49601D01*
X47823Y-82166D01*
X48449Y-80996D01*
X48750Y-81055D01*
X56250D01*
X56836Y-80939D01*
X58001Y-80799D01*
X58476Y-81348D01*
X58547Y-81454D01*
X68222Y-91129D01*
X67984Y-91704D01*
Y-93296D01*
X68307Y-94076D01*
X68101Y-94385D01*
X67944Y-95172D01*
X67944Y-95172D01*
Y-101821D01*
X67944Y-101821D01*
X68101Y-102608D01*
X68547Y-103274D01*
X70665Y-105393D01*
X70139Y-106663D01*
X31500D01*
X22352Y-97514D01*
X21685Y-97069D01*
X20898Y-96912D01*
X20898Y-96912D01*
X-42681D01*
X-50490Y-89103D01*
X-50420Y-88750D01*
X-50673Y-87476D01*
X-51395Y-86395D01*
X-52476Y-85674D01*
X-53750Y-85420D01*
X-65250D01*
X-66524Y-85674D01*
X-67605Y-86395D01*
X-68327Y-87476D01*
X-68580Y-88750D01*
X-68327Y-90024D01*
X-67605Y-91105D01*
X-66524Y-91826D01*
X-65250Y-92080D01*
X-53750D01*
X-53397Y-92010D01*
X-46652Y-98755D01*
X-47138Y-99929D01*
X-47484D01*
X-47484Y-99929D01*
X-48271Y-100085D01*
X-48938Y-100531D01*
X-48938Y-100531D01*
X-53397Y-104990D01*
X-53750Y-104920D01*
X-65250D01*
X-66524Y-105174D01*
X-67605Y-105895D01*
X-68327Y-106976D01*
X-68580Y-108250D01*
X-68327Y-109524D01*
X-67605Y-110605D01*
X-67408Y-110736D01*
Y-112264D01*
X-67605Y-112395D01*
X-68327Y-113476D01*
X-68580Y-114750D01*
X-68327Y-116024D01*
X-67605Y-117105D01*
X-66524Y-117826D01*
X-65250Y-118080D01*
X-53750D01*
X-52476Y-117826D01*
X-51395Y-117105D01*
X-50673Y-116024D01*
X-50420Y-114750D01*
X-50462Y-114540D01*
X-42977Y-107056D01*
X17549D01*
X29984Y-119491D01*
Y-123016D01*
X31344D01*
Y-128122D01*
X30622D01*
Y-134664D01*
X30582Y-134862D01*
X30582Y-134862D01*
Y-143444D01*
X28750D01*
X27963Y-143601D01*
X27297Y-144046D01*
X26851Y-144713D01*
X26695Y-145500D01*
Y-151500D01*
X26851Y-152287D01*
X27297Y-152953D01*
X27963Y-153399D01*
X28750Y-153555D01*
X35399D01*
X37177Y-155334D01*
X36551Y-156504D01*
X36250Y-156445D01*
X28750D01*
X27963Y-156601D01*
X27297Y-157046D01*
X26851Y-157713D01*
X26695Y-158500D01*
Y-164500D01*
X26851Y-165287D01*
X27297Y-165953D01*
X27963Y-166399D01*
X28750Y-166556D01*
X35399D01*
X37945Y-169101D01*
Y-174022D01*
X37734Y-174109D01*
X36609Y-175234D01*
X36000Y-176704D01*
Y-178296D01*
X36609Y-179766D01*
X37734Y-180891D01*
X39204Y-181500D01*
X40796D01*
X42266Y-180891D01*
X42268Y-180888D01*
X42465Y-180874D01*
X43692Y-181260D01*
X44109Y-182266D01*
X45234Y-183391D01*
X46704Y-184000D01*
X48296D01*
X49766Y-183391D01*
X50891Y-182266D01*
X51500Y-180796D01*
Y-179204D01*
X51413Y-178994D01*
X53407Y-177000D01*
X53453Y-176970D01*
X60851Y-169571D01*
X85734D01*
X85734Y-169571D01*
X86521Y-169415D01*
X87188Y-168969D01*
X89601Y-166556D01*
X96250D01*
X97037Y-166399D01*
X97704Y-165953D01*
X98149Y-165287D01*
X98306Y-164500D01*
Y-158500D01*
X98245Y-158198D01*
X99416Y-157573D01*
X101694Y-159851D01*
Y-164500D01*
X101851Y-165287D01*
X102296Y-165954D01*
X102963Y-166399D01*
X103750Y-166556D01*
X111250D01*
X112037Y-166399D01*
X112704Y-165954D01*
X113149Y-165287D01*
X113306Y-164500D01*
Y-158500D01*
X113149Y-157713D01*
X112704Y-157046D01*
X112037Y-156601D01*
X111250Y-156445D01*
X104500D01*
X104500Y-156445D01*
X104500Y-156445D01*
X104101D01*
X98306Y-150649D01*
Y-145500D01*
X98149Y-144713D01*
X97704Y-144046D01*
X97037Y-143601D01*
X96250Y-143444D01*
X94693D01*
Y-136878D01*
X99807D01*
Y-128122D01*
X95856D01*
Y-123016D01*
X96816D01*
Y-116984D01*
X92891D01*
X83982Y-108076D01*
X84508Y-106805D01*
X87339D01*
X87339Y-106805D01*
X88126Y-106649D01*
X88793Y-106203D01*
X90441Y-104556D01*
X93444D01*
Y-106250D01*
X93601Y-107037D01*
X94046Y-107704D01*
X94713Y-108149D01*
X95500Y-108306D01*
X101500D01*
X102287Y-108149D01*
X102954Y-107704D01*
X103399Y-107037D01*
X103555Y-106250D01*
Y-98750D01*
X103399Y-97963D01*
X102954Y-97296D01*
X102287Y-96851D01*
X101500Y-96694D01*
X95500D01*
X94713Y-96851D01*
X94046Y-97296D01*
X93601Y-97963D01*
X93444Y-98750D01*
Y-100444D01*
X89590D01*
X89589Y-100444D01*
X88803Y-100601D01*
X88136Y-101046D01*
X86488Y-102695D01*
X80615D01*
X79881Y-101425D01*
X79992Y-101231D01*
X80083D01*
X80083Y-101231D01*
X80870Y-101075D01*
X81537Y-100629D01*
X84973Y-97193D01*
X84973Y-97193D01*
X85419Y-96526D01*
X85576Y-95739D01*
X85576Y-95739D01*
Y-79766D01*
X86036D01*
Y-69234D01*
X81004D01*
Y-79766D01*
X81465D01*
Y-94888D01*
X79232Y-97121D01*
X78027D01*
X77266Y-96359D01*
X76072Y-95865D01*
X75673Y-95236D01*
X75493Y-94480D01*
X75984Y-93296D01*
Y-91704D01*
X75375Y-90234D01*
X74250Y-89109D01*
X72780Y-88500D01*
X71407D01*
X62056Y-79149D01*
Y-55250D01*
X62056Y-55250D01*
X61899Y-54463D01*
X61453Y-53797D01*
X58306Y-50649D01*
Y-45500D01*
X58149Y-44713D01*
X57703Y-44047D01*
X57037Y-43601D01*
X56250Y-43444D01*
X54556D01*
Y-34516D01*
X58168D01*
X58880Y-35786D01*
X58500Y-36704D01*
Y-38296D01*
X59109Y-39766D01*
X60234Y-40891D01*
X61704Y-41500D01*
X63296D01*
X64766Y-40891D01*
X64827Y-40830D01*
X66309Y-41144D01*
X66609Y-41867D01*
X67734Y-42993D01*
X69204Y-43601D01*
X70796D01*
X72266Y-42993D01*
X73391Y-41867D01*
X74000Y-40397D01*
Y-38806D01*
X74858Y-37558D01*
X75356Y-37492D01*
X81004Y-43141D01*
Y-50766D01*
X85955D01*
Y-53811D01*
X85234Y-54109D01*
X84109Y-55234D01*
X83500Y-56704D01*
Y-58296D01*
X84109Y-59766D01*
X85234Y-60891D01*
X86704Y-61500D01*
X88296D01*
X89766Y-60891D01*
X90891Y-59766D01*
X91500Y-58296D01*
Y-56704D01*
X91085Y-55703D01*
Y-45500D01*
Y-39520D01*
X90890Y-38538D01*
X90334Y-37706D01*
X84856Y-32229D01*
Y-26862D01*
X84807Y-26614D01*
Y-20622D01*
X75622D01*
Y-29378D01*
X79726D01*
Y-33291D01*
X79921Y-34273D01*
X80274Y-34801D01*
X79288Y-35611D01*
X76825Y-33148D01*
X76158Y-32703D01*
X75371Y-32546D01*
X75371Y-32546D01*
X66210D01*
X66210Y-32546D01*
X65424Y-32703D01*
X64757Y-33148D01*
X64757Y-33148D01*
X64080Y-33825D01*
X63296Y-33500D01*
X61704D01*
X61286Y-33673D01*
X60016Y-32825D01*
Y-25484D01*
X48984D01*
Y-34516D01*
X50444D01*
Y-43444D01*
X48750D01*
X47963Y-43601D01*
X47297Y-44047D01*
X46851Y-44713D01*
X46694Y-45500D01*
Y-46445D01*
X43306D01*
Y-45500D01*
X43149Y-44713D01*
X42703Y-44047D01*
X42037Y-43601D01*
X41250Y-43444D01*
X33750D01*
X32963Y-43601D01*
X32297Y-44047D01*
X31851Y-44713D01*
X31695Y-45500D01*
Y-46445D01*
X8118D01*
X7331Y-46601D01*
X6665Y-47046D01*
X6665Y-47047D01*
X3758Y-49953D01*
X594D01*
X-500Y-49953D01*
X-1281Y-48938D01*
X-573Y-48230D01*
X36Y-46760D01*
Y-45169D01*
X-573Y-43699D01*
X-1699Y-42573D01*
X-3045Y-42016D01*
Y-28550D01*
X-3084Y-28351D01*
Y-17884D01*
X-9445D01*
Y-10805D01*
X-8500D01*
X-7713Y-10649D01*
X-7046Y-10203D01*
X-6601Y-9537D01*
X-6445Y-8750D01*
Y-1250D01*
X-6601Y-463D01*
X-7046Y203D01*
X-7713Y649D01*
X-8500Y806D01*
X-14500D01*
X-15287Y649D01*
X-15953Y203D01*
X-16399Y-463D01*
X-17706Y-523D01*
X-17913Y-402D01*
X-17945Y-345D01*
Y35345D01*
X-17913Y35402D01*
X-17706Y35523D01*
X-16399Y35463D01*
X-15954Y34797D01*
X-15287Y34351D01*
X-14500Y34195D01*
X-13556D01*
Y30805D01*
X-14500D01*
X-15287Y30649D01*
X-15953Y30203D01*
X-16399Y29537D01*
X-16556Y28750D01*
Y21250D01*
X-16399Y20463D01*
X-15953Y19797D01*
X-15287Y19351D01*
X-14500Y19195D01*
X-8500D01*
X-7713Y19351D01*
X-7046Y19797D01*
X-6601Y20463D01*
X-6445Y21250D01*
Y28750D01*
X-6601Y29537D01*
X-7046Y30203D01*
X-7713Y30649D01*
X-8500Y30805D01*
X-9445D01*
Y34195D01*
X-8500D01*
X-7713Y34351D01*
X-7046Y34797D01*
X-6601Y35463D01*
X-6445Y36250D01*
Y43750D01*
X-6601Y44537D01*
X-7046Y45203D01*
X-7713Y45649D01*
X-8500Y45806D01*
X-13649D01*
X-14928Y47085D01*
Y64718D01*
X-13658Y65104D01*
X-13453Y64797D01*
X-12787Y64351D01*
X-12000Y64194D01*
X-6000D01*
X-5213Y64351D01*
X-4547Y64797D01*
X-4101Y65463D01*
X-3945Y66250D01*
Y73750D01*
X-4101Y74537D01*
X-4547Y75203D01*
X-5213Y75649D01*
X-5503Y75707D01*
Y77002D01*
X-5158Y77070D01*
X-4491Y77516D01*
X-4045Y78183D01*
X-3889Y78969D01*
Y86469D01*
X-4045Y87256D01*
X-4354Y87717D01*
Y87739D01*
X-3506Y88587D01*
X-3296Y88500D01*
X-1704D01*
X-234Y89109D01*
X891Y90234D01*
X1500Y91704D01*
Y93296D01*
X891Y94766D01*
X-234Y95891D01*
X-1704Y96500D01*
D02*
G37*
G36*
X-100500Y105806D02*
X-106500D01*
X-107287Y105649D01*
X-107954Y105204D01*
X-108399Y104537D01*
X-108555Y103750D01*
Y96250D01*
X-108399Y95463D01*
X-107954Y94796D01*
X-107287Y94351D01*
X-106500Y94194D01*
X-100500D01*
X-99713Y94351D01*
X-99046Y94796D01*
X-98601Y95463D01*
X-98475Y96095D01*
X-97234Y96609D01*
X-96109Y97734D01*
X-95500Y99204D01*
Y100796D01*
X-96109Y102266D01*
X-97234Y103391D01*
X-98475Y103905D01*
X-98601Y104537D01*
X-99046Y105204D01*
X-99713Y105649D01*
X-100500Y105806D01*
D02*
G37*
G36*
X10796Y76500D02*
X9204D01*
X7734Y75891D01*
X7541Y75698D01*
X7000Y75806D01*
X1000D01*
X213Y75649D01*
X-453Y75203D01*
X-899Y74537D01*
X-1055Y73750D01*
Y66250D01*
X-899Y65463D01*
X-453Y64797D01*
X213Y64351D01*
X1000Y64194D01*
X7000D01*
X7787Y64351D01*
X8454Y64797D01*
X8899Y65463D01*
X9056Y66250D01*
Y68401D01*
X9204Y68500D01*
X10796D01*
X12266Y69109D01*
X13391Y70234D01*
X14000Y71704D01*
Y73296D01*
X13391Y74766D01*
X12266Y75891D01*
X10796Y76500D01*
D02*
G37*
G36*
X-161204Y74000D02*
X-162796D01*
X-164266Y73391D01*
X-165391Y72266D01*
X-166000Y70796D01*
Y69204D01*
X-165391Y67734D01*
X-164266Y66609D01*
X-162796Y66000D01*
X-161204D01*
X-159734Y66609D01*
X-158609Y67734D01*
X-158000Y69204D01*
Y70796D01*
X-158609Y72266D01*
X-159734Y73391D01*
X-161204Y74000D01*
D02*
G37*
G36*
X201251Y82550D02*
X198749D01*
X196333Y81903D01*
X194167Y80652D01*
X192398Y78883D01*
X191147Y76717D01*
X190500Y74301D01*
Y71799D01*
X191147Y69383D01*
X192398Y67217D01*
X194167Y65448D01*
X196333Y64197D01*
X198749Y63550D01*
X201251D01*
X203667Y64197D01*
X205833Y65448D01*
X207602Y67217D01*
X208853Y69383D01*
X209500Y71799D01*
Y74301D01*
X208853Y76717D01*
X207602Y78883D01*
X205833Y80652D01*
X203667Y81903D01*
X201251Y82550D01*
D02*
G37*
G36*
X-198749D02*
X-201251D01*
X-203667Y81903D01*
X-205833Y80652D01*
X-207602Y78883D01*
X-208853Y76717D01*
X-209500Y74301D01*
Y71799D01*
X-208853Y69383D01*
X-207602Y67217D01*
X-205833Y65448D01*
X-203667Y64197D01*
X-201251Y63550D01*
X-198749D01*
X-196333Y64197D01*
X-194167Y65448D01*
X-192398Y67217D01*
X-191147Y69383D01*
X-190500Y71799D01*
Y74301D01*
X-191147Y76717D01*
X-192398Y78883D01*
X-194167Y80652D01*
X-196333Y81903D01*
X-198749Y82550D01*
D02*
G37*
G36*
X32266Y66016D02*
X17734D01*
Y53984D01*
X32266D01*
Y66016D01*
D02*
G37*
G36*
X10796Y34000D02*
X9204D01*
X7734Y33391D01*
X6609Y32266D01*
X6522Y32055D01*
X5750D01*
X4963Y31899D01*
X4297Y31453D01*
X4297Y31453D01*
X3649Y30805D01*
X-1500D01*
X-2287Y30649D01*
X-2953Y30203D01*
X-3399Y29537D01*
X-3555Y28750D01*
Y21250D01*
X-3399Y20463D01*
X-2953Y19797D01*
X-2287Y19351D01*
X-1500Y19195D01*
X4500D01*
X5287Y19351D01*
X5954Y19797D01*
X6399Y20463D01*
X6556Y21250D01*
Y25992D01*
X7734Y26609D01*
X9204Y26000D01*
X10796D01*
X12266Y26609D01*
X13391Y27734D01*
X14000Y29204D01*
Y30796D01*
X13391Y32266D01*
X12266Y33391D01*
X10796Y34000D01*
D02*
G37*
G36*
X32266Y21016D02*
X17734D01*
Y8984D01*
X32266D01*
Y21016D01*
D02*
G37*
G36*
X-58750Y-1444D02*
X-66250D01*
X-67037Y-1601D01*
X-67703Y-2046D01*
X-68149Y-2713D01*
X-68306Y-3500D01*
Y-9500D01*
X-68149Y-10287D01*
X-67703Y-10953D01*
X-67037Y-11399D01*
X-66250Y-11556D01*
X-58750D01*
X-57963Y-11399D01*
X-57297Y-10953D01*
X-56851Y-10287D01*
X-56694Y-9500D01*
Y-3500D01*
X-56851Y-2713D01*
X-57297Y-2046D01*
X-57963Y-1601D01*
X-58750Y-1444D01*
D02*
G37*
G36*
X-185355Y-52150D02*
X-187345D01*
X-188030Y-52434D01*
X-198466D01*
Y-61866D01*
X-188030D01*
X-187345Y-62150D01*
X-185355D01*
X-184670Y-61866D01*
X-174234D01*
Y-52434D01*
X-184670D01*
X-185355Y-52150D01*
D02*
G37*
G36*
X-212656D02*
X-214645D01*
X-215330Y-52434D01*
X-225766D01*
Y-61866D01*
X-215330D01*
X-214645Y-62150D01*
X-212656D01*
X-211970Y-61866D01*
X-201534D01*
Y-52434D01*
X-211970D01*
X-212656Y-52150D01*
D02*
G37*
G36*
X3000Y-70891D02*
X1570Y-71175D01*
X358Y-71985D01*
X-452Y-73198D01*
X-628Y-74081D01*
X-1915Y-74614D01*
X-2595Y-75294D01*
X-8122D01*
Y-73122D01*
X-16878D01*
Y-82307D01*
X-8122D01*
Y-80425D01*
X-2886D01*
X-1915Y-81396D01*
X-628Y-81929D01*
X-452Y-82812D01*
X358Y-84024D01*
X1570Y-84834D01*
X3000Y-85119D01*
X4430Y-84834D01*
X5642Y-84024D01*
X6452Y-82812D01*
X6737Y-81382D01*
Y-74628D01*
X6452Y-73198D01*
X5642Y-71985D01*
X4430Y-71175D01*
X3000Y-70891D01*
D02*
G37*
G36*
X-115193Y-55622D02*
X-124378D01*
Y-64378D01*
X-122351D01*
Y-72420D01*
X-126250D01*
X-127524Y-72674D01*
X-128605Y-73395D01*
X-129326Y-74476D01*
X-129580Y-75750D01*
X-129326Y-77024D01*
X-128605Y-78105D01*
X-127524Y-78826D01*
X-126250Y-79080D01*
X-114750D01*
X-113476Y-78826D01*
X-112395Y-78105D01*
X-111673Y-77024D01*
X-111420Y-75750D01*
X-111673Y-74476D01*
X-112395Y-73395D01*
X-113476Y-72674D01*
X-114750Y-72420D01*
X-117220D01*
Y-64378D01*
X-115193D01*
Y-55622D01*
D02*
G37*
G36*
X-198749Y-63550D02*
X-201251D01*
X-203667Y-64197D01*
X-205833Y-65448D01*
X-207602Y-67217D01*
X-208853Y-69383D01*
X-209500Y-71799D01*
Y-74301D01*
X-208853Y-76717D01*
X-207602Y-78883D01*
X-205833Y-80652D01*
X-203667Y-81903D01*
X-201251Y-82550D01*
X-198749D01*
X-196333Y-81903D01*
X-194167Y-80652D01*
X-192398Y-78883D01*
X-191147Y-76717D01*
X-190500Y-74301D01*
Y-71799D01*
X-191147Y-69383D01*
X-192398Y-67217D01*
X-194167Y-65448D01*
X-196333Y-64197D01*
X-198749Y-63550D01*
D02*
G37*
G36*
X214500Y-84194D02*
X208500D01*
X207713Y-84351D01*
X207047Y-84796D01*
X206601Y-85463D01*
X206444Y-86250D01*
Y-93750D01*
X206601Y-94537D01*
X207047Y-95204D01*
X207713Y-95649D01*
X208500Y-95806D01*
X214500D01*
X215287Y-95649D01*
X215953Y-95204D01*
X216399Y-94537D01*
X216556Y-93750D01*
Y-86250D01*
X216399Y-85463D01*
X215953Y-84796D01*
X215287Y-84351D01*
X214500Y-84194D01*
D02*
G37*
G36*
X201500D02*
X195500D01*
X194713Y-84351D01*
X194046Y-84796D01*
X193601Y-85463D01*
X193444Y-86250D01*
Y-92198D01*
X193297Y-92296D01*
X188675Y-96918D01*
X181276D01*
X180490Y-97075D01*
X179823Y-97520D01*
X175649Y-101694D01*
X170500D01*
X169713Y-101851D01*
X169046Y-102296D01*
X168601Y-102963D01*
X168444Y-103750D01*
Y-104664D01*
X167500Y-105444D01*
X166713Y-105601D01*
X166047Y-106046D01*
X161109Y-110984D01*
X151984D01*
Y-117720D01*
X150811Y-118206D01*
X146651Y-114046D01*
X145985Y-113601D01*
X145198Y-113444D01*
X145198Y-113444D01*
X138016D01*
Y-110984D01*
X125984D01*
Y-120016D01*
X138016D01*
Y-117556D01*
X144347D01*
X148928Y-122137D01*
Y-140984D01*
X148928Y-140984D01*
X149085Y-141771D01*
X149530Y-142437D01*
X156445Y-149351D01*
Y-159194D01*
X155500D01*
X154713Y-159351D01*
X154047Y-159796D01*
X153601Y-160463D01*
X153444Y-161250D01*
Y-168750D01*
X153601Y-169537D01*
X154047Y-170203D01*
X154713Y-170649D01*
X155500Y-170805D01*
X161500D01*
X162287Y-170649D01*
X162953Y-170203D01*
X163399Y-169537D01*
X163556Y-168750D01*
Y-161250D01*
X163399Y-160463D01*
X162953Y-159796D01*
X162287Y-159351D01*
X161500Y-159194D01*
X160555D01*
Y-148500D01*
X160555Y-148500D01*
X160399Y-147713D01*
X159953Y-147046D01*
X159953Y-147046D01*
X153193Y-140286D01*
X153410Y-139016D01*
X164016D01*
Y-138332D01*
X165189Y-137846D01*
X169195Y-141851D01*
Y-147000D01*
X169351Y-147787D01*
X169445Y-147927D01*
Y-159194D01*
X168500D01*
X167713Y-159351D01*
X167047Y-159796D01*
X166601Y-160463D01*
X166444Y-161250D01*
Y-168750D01*
X166601Y-169537D01*
X167047Y-170203D01*
X167713Y-170649D01*
X168500Y-170805D01*
X174500D01*
X175287Y-170649D01*
X175954Y-170203D01*
X176399Y-169537D01*
X176556Y-168750D01*
Y-161250D01*
X176399Y-160463D01*
X175954Y-159796D01*
X175287Y-159351D01*
X174500Y-159194D01*
X173556D01*
Y-149056D01*
X178750D01*
X179537Y-148899D01*
X180203Y-148454D01*
X180649Y-147787D01*
X180805Y-147000D01*
Y-141000D01*
X180649Y-140213D01*
X180203Y-139547D01*
X179537Y-139101D01*
X178750Y-138945D01*
X172101D01*
X170323Y-137166D01*
X170949Y-135996D01*
X171250Y-136055D01*
X178750D01*
X179537Y-135899D01*
X180203Y-135454D01*
X180649Y-134787D01*
X180805Y-134000D01*
Y-129859D01*
X190000D01*
X191860Y-129489D01*
X193436Y-128436D01*
X203196Y-118677D01*
X204249Y-117100D01*
X204619Y-115240D01*
Y-111748D01*
X205315Y-111052D01*
X206270Y-108747D01*
Y-106253D01*
X205315Y-103948D01*
X203552Y-102185D01*
X201247Y-101230D01*
X198753D01*
X196448Y-102185D01*
X194685Y-103948D01*
X193730Y-106253D01*
Y-108747D01*
X194685Y-111052D01*
X194900Y-111267D01*
Y-113228D01*
X187987Y-120141D01*
X165234D01*
X164016Y-120016D01*
Y-113891D01*
X167174Y-110732D01*
X168444Y-111250D01*
X168601Y-112037D01*
X169046Y-112704D01*
X169713Y-113149D01*
X170500Y-113306D01*
X176500D01*
X177287Y-113149D01*
X177953Y-112704D01*
X178399Y-112037D01*
X178556Y-111250D01*
Y-104601D01*
X182128Y-101029D01*
X189526D01*
X189526Y-101029D01*
X190313Y-100873D01*
X190980Y-100427D01*
X195601Y-95806D01*
X201500D01*
X202287Y-95649D01*
X202953Y-95204D01*
X203399Y-94537D01*
X203556Y-93750D01*
Y-86250D01*
X203399Y-85463D01*
X202953Y-84796D01*
X202287Y-84351D01*
X201500Y-84194D01*
D02*
G37*
G36*
X101816Y-84484D02*
X94984D01*
Y-90516D01*
X98609D01*
X106445Y-98351D01*
Y-99500D01*
X106445Y-99500D01*
X106445Y-99500D01*
Y-106250D01*
X106601Y-107037D01*
X107046Y-107704D01*
X107713Y-108149D01*
X108500Y-108306D01*
X114500D01*
X115287Y-108149D01*
X115954Y-107704D01*
X116399Y-107037D01*
X116513Y-106466D01*
X117318Y-106018D01*
X117734Y-105891D01*
X119204Y-106500D01*
X120796D01*
X122266Y-105891D01*
X123391Y-104766D01*
X124000Y-103296D01*
Y-101704D01*
X123391Y-100234D01*
X122266Y-99109D01*
X120796Y-98500D01*
X119204D01*
X117734Y-99109D01*
X117318Y-98982D01*
X116513Y-98534D01*
X116399Y-97963D01*
X115954Y-97296D01*
X115287Y-96851D01*
X114500Y-96694D01*
X110386D01*
X109953Y-96046D01*
X109953Y-96046D01*
X101816Y-87909D01*
Y-84484D01*
D02*
G37*
G36*
X-159204Y-100786D02*
X-160796D01*
X-162266Y-101395D01*
X-163391Y-102520D01*
X-164000Y-103990D01*
Y-105581D01*
X-163391Y-107051D01*
X-162266Y-108177D01*
X-160796Y-108786D01*
X-159204D01*
X-157734Y-108177D01*
X-156609Y-107051D01*
X-156000Y-105581D01*
Y-103990D01*
X-156609Y-102520D01*
X-157734Y-101395D01*
X-159204Y-100786D01*
D02*
G37*
G36*
X-140622Y-80193D02*
X-149378D01*
Y-89378D01*
X-144249D01*
X-143064Y-90564D01*
X-142232Y-91120D01*
X-141250Y-91315D01*
X-129451D01*
X-129108Y-91707D01*
X-128605Y-92895D01*
X-129326Y-93976D01*
X-129580Y-95250D01*
X-129326Y-96524D01*
X-128605Y-97605D01*
X-128408Y-97736D01*
Y-99264D01*
X-128605Y-99395D01*
X-129326Y-100476D01*
X-129580Y-101750D01*
X-129326Y-103024D01*
X-128605Y-104105D01*
X-128408Y-104236D01*
Y-105764D01*
X-128605Y-105895D01*
X-129326Y-106976D01*
X-129580Y-108250D01*
X-129326Y-109524D01*
X-128605Y-110605D01*
X-128408Y-110736D01*
Y-112264D01*
X-128605Y-112395D01*
X-129326Y-113476D01*
X-129580Y-114750D01*
X-129326Y-116024D01*
X-128605Y-117105D01*
X-128408Y-117236D01*
Y-118764D01*
X-128605Y-118895D01*
X-129326Y-119976D01*
X-129580Y-121250D01*
X-129326Y-122524D01*
X-128605Y-123605D01*
X-128408Y-123736D01*
Y-125264D01*
X-128605Y-125395D01*
X-129326Y-126476D01*
X-129580Y-127750D01*
X-129326Y-129024D01*
X-128605Y-130105D01*
X-128408Y-130236D01*
Y-131764D01*
X-128605Y-131895D01*
X-129326Y-132976D01*
X-129580Y-134250D01*
X-129326Y-135524D01*
X-128605Y-136605D01*
X-127524Y-137326D01*
X-126250Y-137580D01*
X-114750D01*
X-113476Y-137326D01*
X-112395Y-136605D01*
X-112196Y-136306D01*
X-105062D01*
X-105062Y-136306D01*
X-104275Y-136149D01*
X-104225Y-136115D01*
X-103296Y-136500D01*
X-101704D01*
X-100234Y-135891D01*
X-99109Y-134766D01*
X-98500Y-133296D01*
Y-131704D01*
X-99109Y-130234D01*
X-99770Y-129573D01*
X-100093Y-128750D01*
X-99770Y-127927D01*
X-99109Y-127266D01*
X-98500Y-125796D01*
Y-124204D01*
X-99109Y-122734D01*
X-100234Y-121609D01*
X-101704Y-121000D01*
X-103296D01*
X-104766Y-121609D01*
X-105891Y-122734D01*
X-106500Y-124204D01*
Y-125281D01*
X-106913Y-125695D01*
X-112196D01*
X-112395Y-125395D01*
X-112592Y-125264D01*
Y-123736D01*
X-112395Y-123605D01*
X-111673Y-122524D01*
X-111420Y-121250D01*
X-111673Y-119976D01*
X-112395Y-118895D01*
X-112172Y-117651D01*
X-111449Y-116931D01*
X-106030D01*
X-105891Y-117266D01*
X-104766Y-118391D01*
X-103296Y-119000D01*
X-101704D01*
X-100234Y-118391D01*
X-99109Y-117266D01*
X-98500Y-115796D01*
Y-114204D01*
X-99109Y-112734D01*
X-99770Y-112073D01*
X-100093Y-111250D01*
X-99770Y-110427D01*
X-99109Y-109766D01*
X-98500Y-108296D01*
Y-106704D01*
X-99109Y-105234D01*
X-99770Y-104573D01*
X-100093Y-103750D01*
X-99770Y-102927D01*
X-99109Y-102266D01*
X-98500Y-100796D01*
Y-99204D01*
X-99109Y-97734D01*
X-100234Y-96609D01*
X-101704Y-96000D01*
X-103296D01*
X-104766Y-96609D01*
X-105891Y-97734D01*
X-106500Y-99204D01*
Y-99694D01*
X-112196D01*
X-112395Y-99395D01*
X-112592Y-99264D01*
Y-97736D01*
X-112395Y-97605D01*
X-111673Y-96524D01*
X-111420Y-95250D01*
X-111673Y-93976D01*
X-112395Y-92895D01*
X-112592Y-92764D01*
Y-91236D01*
X-112395Y-91105D01*
X-111673Y-90024D01*
X-111420Y-88750D01*
X-111673Y-87476D01*
X-112395Y-86395D01*
X-113476Y-85674D01*
X-114750Y-85420D01*
X-126250D01*
X-127524Y-85674D01*
X-128289Y-86185D01*
X-140187D01*
X-140622Y-85751D01*
Y-80193D01*
D02*
G37*
G36*
X6816Y-116984D02*
X-16D01*
Y-123016D01*
X1345D01*
Y-128122D01*
X622D01*
Y-130444D01*
X-19037D01*
X-19824Y-130601D01*
X-20490Y-131046D01*
X-20491Y-131047D01*
X-29888Y-140444D01*
X-44649D01*
X-50490Y-134603D01*
X-50420Y-134250D01*
X-50673Y-132976D01*
X-51395Y-131895D01*
X-52476Y-131173D01*
X-53750Y-130920D01*
X-65250D01*
X-66524Y-131173D01*
X-67605Y-131895D01*
X-68327Y-132976D01*
X-68580Y-134250D01*
X-68327Y-135524D01*
X-67605Y-136605D01*
X-66524Y-137326D01*
X-65250Y-137580D01*
X-53750D01*
X-53397Y-137510D01*
X-46954Y-143953D01*
X-46954Y-143954D01*
X-46287Y-144399D01*
X-45500Y-144556D01*
X-29037D01*
X-29037Y-144556D01*
X-28250Y-144399D01*
X-27583Y-143954D01*
X-18185Y-134556D01*
X-652D01*
X582Y-134862D01*
X582Y-134862D01*
Y-143444D01*
X-1250D01*
X-2037Y-143601D01*
X-2704Y-144046D01*
X-3149Y-144713D01*
X-3305Y-145500D01*
Y-151500D01*
X-3149Y-152287D01*
X-2704Y-152953D01*
X-2037Y-153399D01*
X-1250Y-153555D01*
X5398D01*
X7177Y-155334D01*
X6551Y-156504D01*
X6250Y-156445D01*
X-1250D01*
X-2037Y-156601D01*
X-2704Y-157046D01*
X-3149Y-157713D01*
X-3305Y-158500D01*
Y-164500D01*
X-3149Y-165287D01*
X-2704Y-165953D01*
X-2056Y-166386D01*
Y-171522D01*
X-2266Y-171609D01*
X-3391Y-172734D01*
X-4000Y-174204D01*
Y-175796D01*
X-3391Y-177266D01*
X-2266Y-178391D01*
X-796Y-179000D01*
X796D01*
X2266Y-178391D01*
X3391Y-177266D01*
X4000Y-175796D01*
Y-174204D01*
X3391Y-172734D01*
X2266Y-171609D01*
X2056Y-171522D01*
Y-166556D01*
X6250D01*
X7037Y-166399D01*
X7703Y-165953D01*
X8149Y-165287D01*
X8306Y-164500D01*
Y-158500D01*
X8245Y-158198D01*
X9416Y-157573D01*
X11695Y-159851D01*
Y-164500D01*
X11851Y-165287D01*
X12297Y-165954D01*
X12963Y-166399D01*
X13750Y-166556D01*
X21250D01*
X22037Y-166399D01*
X22703Y-165954D01*
X23149Y-165287D01*
X23305Y-164500D01*
Y-158500D01*
X23149Y-157713D01*
X22703Y-157046D01*
X22037Y-156601D01*
X21250Y-156445D01*
X14500D01*
X14500Y-156445D01*
X14500Y-156445D01*
X14101D01*
X8306Y-150649D01*
Y-145500D01*
X8149Y-144713D01*
X7703Y-144046D01*
X7037Y-143601D01*
X6250Y-143444D01*
X4693D01*
Y-136878D01*
X9807D01*
Y-128122D01*
X5455D01*
Y-123016D01*
X6816D01*
Y-116984D01*
D02*
G37*
G36*
X-161704Y-136000D02*
X-163296D01*
X-164766Y-136609D01*
X-165891Y-137734D01*
X-166500Y-139204D01*
Y-140796D01*
X-165891Y-142266D01*
X-165230Y-142927D01*
X-164907Y-143750D01*
X-165230Y-144573D01*
X-165891Y-145234D01*
X-166500Y-146704D01*
Y-148296D01*
X-165891Y-149766D01*
X-164766Y-150891D01*
X-163296Y-151500D01*
X-161704D01*
X-160234Y-150891D01*
X-159109Y-149766D01*
X-158500Y-148296D01*
Y-146704D01*
X-159109Y-145234D01*
X-159770Y-144573D01*
X-160093Y-143750D01*
X-159770Y-142927D01*
X-159109Y-142266D01*
X-158500Y-140796D01*
Y-139204D01*
X-159109Y-137734D01*
X-160234Y-136609D01*
X-161704Y-136000D01*
D02*
G37*
G36*
X145000Y-128900D02*
X122500D01*
X121722Y-129222D01*
X121400Y-130000D01*
Y-152500D01*
X121722Y-153278D01*
X122500Y-153600D01*
X145000D01*
X145778Y-153278D01*
X146100Y-152500D01*
Y-130000D01*
X145778Y-129222D01*
X145000Y-128900D01*
D02*
G37*
%LPD*%
G36*
X67445Y168101D02*
X66609Y167266D01*
X66000Y165796D01*
Y164204D01*
X66609Y162734D01*
X67270Y162073D01*
X67593Y161250D01*
X67270Y160427D01*
X66609Y159766D01*
X66505Y159516D01*
X65984D01*
Y148484D01*
X72016D01*
Y154005D01*
X72266Y154109D01*
X73052Y154895D01*
X73391Y155234D01*
X74642Y154936D01*
X87031Y142547D01*
X87031Y142547D01*
X87698Y142101D01*
X88485Y141945D01*
X88485Y141945D01*
X98500D01*
X98500Y141945D01*
X99287Y142101D01*
X99953Y142547D01*
X103021Y145614D01*
X104194Y145128D01*
Y141000D01*
X104351Y140213D01*
X104796Y139547D01*
X105463Y139101D01*
X106250Y138945D01*
X112899D01*
X114677Y137166D01*
X114052Y135996D01*
X113750Y136055D01*
X106250D01*
X105463Y135899D01*
X104796Y135454D01*
X104351Y134787D01*
X104194Y134000D01*
Y128851D01*
X100415Y125071D01*
X80000D01*
X79213Y124915D01*
X78547Y124469D01*
X78547Y124469D01*
X75133Y121055D01*
X69000D01*
X68213Y120899D01*
X67547Y120454D01*
X67547Y120453D01*
X64149Y117056D01*
X59372D01*
X58636Y118326D01*
X59000Y119204D01*
Y120796D01*
X58391Y122266D01*
X57266Y123391D01*
X55796Y124000D01*
X54628D01*
X52565Y126063D01*
Y147387D01*
X52984Y148484D01*
X53642Y148484D01*
X54816Y148129D01*
X54972Y147342D01*
X55418Y146675D01*
X66087Y136006D01*
X66000Y135796D01*
Y134204D01*
X66609Y132734D01*
X67734Y131609D01*
X69204Y131000D01*
X70796D01*
X72266Y131609D01*
X73391Y132734D01*
X74000Y134204D01*
Y135796D01*
X73391Y137266D01*
X72266Y138391D01*
X70796Y139000D01*
X69204D01*
X68994Y138913D01*
X59016Y148891D01*
Y159516D01*
X54197D01*
X53671Y160786D01*
X55320Y162435D01*
X60000D01*
X60982Y162630D01*
X61814Y163186D01*
X63814Y165186D01*
X64370Y166018D01*
X64565Y167000D01*
Y169713D01*
X65516Y170484D01*
X65984D01*
Y170484D01*
X67445D01*
Y168101D01*
D02*
G37*
G36*
X132713Y139351D02*
X133500Y139194D01*
X138649D01*
X151343Y126500D01*
X151343Y126500D01*
X152010Y126054D01*
X152797Y125898D01*
X152797Y125898D01*
X154194D01*
Y123000D01*
X154351Y122213D01*
X154796Y121546D01*
X155463Y121101D01*
X156250Y120944D01*
X161444D01*
Y115016D01*
X158984D01*
Y104921D01*
X158306Y104538D01*
X157056Y105267D01*
Y105351D01*
X156899Y106138D01*
X156454Y106805D01*
X152804Y110453D01*
X152138Y110899D01*
X151351Y111055D01*
X151351Y111055D01*
X133516D01*
Y113516D01*
X122484D01*
Y104484D01*
X130609D01*
X132460Y102633D01*
Y100516D01*
X122484D01*
Y97056D01*
X119056D01*
Y98750D01*
X118899Y99537D01*
X118454Y100204D01*
X117787Y100649D01*
X117000Y100806D01*
X116055D01*
Y104194D01*
X117000D01*
X117787Y104351D01*
X118454Y104796D01*
X118899Y105463D01*
X119056Y106250D01*
Y113750D01*
X120048Y114929D01*
X125764D01*
X125765Y114929D01*
X126551Y115085D01*
X127218Y115531D01*
X129632Y117944D01*
X141522D01*
X141609Y117734D01*
X142734Y116609D01*
X144204Y116000D01*
X145796D01*
X147266Y116609D01*
X148391Y117734D01*
X149000Y119204D01*
Y120796D01*
X148391Y122266D01*
X147266Y123391D01*
X145796Y124000D01*
X144204D01*
X142734Y123391D01*
X141609Y122266D01*
X141522Y122056D01*
X131137D01*
X130651Y123229D01*
X130969Y123547D01*
X130969Y123547D01*
X131415Y124214D01*
X131572Y125001D01*
X131572Y125001D01*
Y138234D01*
X131572Y138234D01*
X131491Y138640D01*
X132108Y139256D01*
X132506Y139474D01*
X132520Y139480D01*
X132713Y139351D01*
D02*
G37*
G36*
X74484Y106984D02*
X79714D01*
X80516Y106984D01*
Y106984D01*
X80984D01*
Y106984D01*
X87016D01*
Y107944D01*
X95944D01*
Y106250D01*
X96101Y105463D01*
X96382Y105043D01*
X96172Y104069D01*
X95964Y103665D01*
X95297Y103219D01*
X95297Y103219D01*
X93531Y101453D01*
X93085Y100786D01*
X92928Y99999D01*
X92928Y99999D01*
Y71766D01*
X92928Y71766D01*
X93085Y70979D01*
X93531Y70312D01*
X95944Y67899D01*
Y61250D01*
X94962Y60055D01*
X91101D01*
X89056Y62101D01*
Y68750D01*
X88899Y69537D01*
X88454Y70203D01*
X87787Y70649D01*
X87000Y70806D01*
X82872D01*
X82576Y71520D01*
X82473Y72076D01*
X82899Y72713D01*
X83055Y73500D01*
Y74194D01*
X87000D01*
X87787Y74351D01*
X88453Y74797D01*
X88899Y75463D01*
X89056Y76250D01*
Y83750D01*
X88899Y84537D01*
X88453Y85204D01*
X87787Y85649D01*
X87000Y85806D01*
X81000D01*
X80213Y85649D01*
X79003Y85777D01*
X78727Y86067D01*
X78470Y86453D01*
X78469Y86453D01*
X78112Y86811D01*
X78597Y87984D01*
X80516D01*
Y98016D01*
X78555D01*
Y98500D01*
X78399Y99287D01*
X77954Y99953D01*
X77953Y99953D01*
X76453Y101454D01*
X75787Y101899D01*
X75000Y102056D01*
X75000Y102056D01*
X61750D01*
X61750Y102056D01*
X60963Y101899D01*
X60297Y101454D01*
X57899Y99056D01*
X51250D01*
X50463Y98899D01*
X49797Y98453D01*
X49351Y97787D01*
X49194Y97000D01*
Y92351D01*
X46916Y90073D01*
X45746Y90698D01*
X45806Y91000D01*
Y97000D01*
X45649Y97787D01*
X45203Y98453D01*
X44537Y98899D01*
X43750Y99056D01*
X36250D01*
X35463Y98899D01*
X34797Y98453D01*
X34351Y97787D01*
X34195Y97000D01*
Y94556D01*
X23478D01*
X23391Y94766D01*
X22266Y95891D01*
X20796Y96500D01*
X19204D01*
X18326Y96136D01*
X17055Y96872D01*
Y107500D01*
X16899Y108287D01*
X16453Y108954D01*
X16453Y108954D01*
X13636Y111771D01*
X14122Y112944D01*
X65000D01*
X65000Y112944D01*
X65787Y113101D01*
X66453Y113546D01*
X69851Y116945D01*
X74484D01*
Y106984D01*
D02*
G37*
G36*
X67984Y87984D02*
X68739D01*
X69945Y87937D01*
X70101Y87151D01*
X70546Y86484D01*
X71718Y85313D01*
X71718Y85312D01*
X72385Y84867D01*
X73172Y84711D01*
X73172Y84711D01*
X74398D01*
X74960Y84148D01*
Y75852D01*
X73664Y74556D01*
X55000D01*
X55000Y74556D01*
X54213Y74399D01*
X53547Y73953D01*
X51047Y71453D01*
X50928Y71275D01*
X49589Y70997D01*
X49362Y71045D01*
X45314Y75093D01*
X45203Y76547D01*
X45649Y77213D01*
X45806Y78000D01*
Y83149D01*
X51601Y88945D01*
X52000D01*
X52000Y88944D01*
X52000Y88945D01*
X58750D01*
X59537Y89101D01*
X60203Y89546D01*
X60649Y90213D01*
X60806Y91000D01*
Y96149D01*
X62601Y97944D01*
X67984D01*
Y87984D01*
D02*
G37*
G36*
X124213Y70601D02*
X125000Y70444D01*
X133664D01*
X134960Y69148D01*
Y60852D01*
X134938Y60830D01*
X134812Y60778D01*
X134769Y60674D01*
X134675Y60611D01*
X134661Y60589D01*
X134358Y60387D01*
X133892Y60294D01*
X128108D01*
X127642Y60387D01*
X127339Y60589D01*
X127325Y60611D01*
X127231Y60674D01*
X127188Y60778D01*
X126892Y60900D01*
X126625Y61079D01*
X126515Y61057D01*
X126411Y61100D01*
X125553D01*
X125027Y62370D01*
X125391Y62734D01*
X126000Y64204D01*
Y65796D01*
X125391Y67266D01*
X124266Y68391D01*
X123454Y68727D01*
X123325Y69376D01*
X122879Y70043D01*
X123805Y70874D01*
X124213Y70601D01*
D02*
G37*
G36*
X160000Y59593D02*
Y0D01*
X155419D01*
X155415Y22D01*
X154970Y689D01*
X154969Y689D01*
X153788Y1869D01*
X153122Y2315D01*
X152991Y2341D01*
X152335Y2472D01*
X152335Y2472D01*
X134016D01*
X134016Y2472D01*
X133360Y2341D01*
X133229Y2315D01*
X132563Y1869D01*
X132563Y1869D01*
X130693Y0D01*
X120000D01*
Y60000D01*
X126411D01*
X126546Y59797D01*
X127213Y59351D01*
X128000Y59194D01*
X134000D01*
X134787Y59351D01*
X135454Y59797D01*
X135589Y60000D01*
X139411D01*
X139546Y59797D01*
X140213Y59351D01*
X141000Y59194D01*
X147000D01*
X147787Y59351D01*
X148453Y59797D01*
X148589Y60000D01*
X159593D01*
X160000Y59593D01*
D02*
G37*
G36*
X110213Y59351D02*
X111000Y59194D01*
X111945D01*
Y55806D01*
X111000D01*
X110213Y55649D01*
X109546Y55203D01*
X109101Y54537D01*
X108945Y53750D01*
Y47101D01*
X106773Y44930D01*
X97859D01*
X97073Y44774D01*
X96406Y44328D01*
X96406Y44328D01*
X93031Y40953D01*
X92585Y40286D01*
X92429Y39499D01*
X92429Y39499D01*
Y36615D01*
X92016Y35516D01*
X81984D01*
Y29484D01*
X81984D01*
Y29016D01*
X81984D01*
Y22984D01*
X92016D01*
Y23155D01*
X92829Y24023D01*
X93615Y24179D01*
X94282Y24625D01*
X95339Y25682D01*
X96325Y24872D01*
X96101Y24537D01*
X95944Y23750D01*
Y16250D01*
X96101Y15463D01*
X96546Y14797D01*
X97213Y14351D01*
X98000Y14195D01*
X104000D01*
X104787Y14351D01*
X105454Y14797D01*
X105899Y15463D01*
X106055Y16250D01*
Y22899D01*
X107834Y24677D01*
X109004Y24051D01*
X108945Y23750D01*
Y16250D01*
X109101Y15463D01*
X109546Y14797D01*
X110213Y14351D01*
X111000Y14195D01*
X117000D01*
X117630Y14320D01*
X117982Y14213D01*
X118900Y13568D01*
Y11432D01*
X117982Y10787D01*
X117630Y10680D01*
X117000Y10805D01*
X111000D01*
X110213Y10649D01*
X109546Y10203D01*
X109101Y9537D01*
X108945Y8750D01*
Y1250D01*
X109101Y463D01*
X109546Y-203D01*
X110213Y-649D01*
X111000Y-806D01*
X111945D01*
Y-4195D01*
X111000D01*
X110213Y-4351D01*
X109453Y-4675D01*
X108953Y-4031D01*
X108953Y-4031D01*
X106703Y-1780D01*
X106036Y-1335D01*
X105823Y-921D01*
X105618Y43D01*
X105899Y463D01*
X106055Y1250D01*
Y8750D01*
X105899Y9537D01*
X105454Y10203D01*
X104787Y10649D01*
X104000Y10805D01*
X98000D01*
X97213Y10649D01*
X96546Y10203D01*
X96114Y9556D01*
X92516D01*
Y12016D01*
X81484D01*
Y6082D01*
X80311Y5596D01*
X73516Y12391D01*
Y18516D01*
X69199D01*
X69000Y18556D01*
X68000D01*
X67801Y18516D01*
X62484D01*
X62056Y19609D01*
Y28660D01*
X62984Y29484D01*
X73016D01*
Y29576D01*
X73829Y30445D01*
X74615Y30601D01*
X75282Y31047D01*
X76453Y32218D01*
X76453Y32218D01*
X76899Y32885D01*
X77056Y33672D01*
X77056Y33672D01*
Y37149D01*
X82750Y42843D01*
X82750Y42843D01*
X83196Y43510D01*
X83332Y44194D01*
X87000D01*
X87787Y44351D01*
X88454Y44797D01*
X88899Y45463D01*
X89056Y46250D01*
Y53750D01*
X88899Y54537D01*
X88454Y55203D01*
X87787Y55649D01*
X87000Y55806D01*
X84995D01*
X83844Y56196D01*
X83688Y56982D01*
X83242Y57649D01*
X83242Y57649D01*
X82871Y58021D01*
X83357Y59194D01*
X86149D01*
X88797Y56547D01*
X88797Y56547D01*
X89463Y56101D01*
X90250Y55944D01*
X90250Y55944D01*
X105015D01*
X105015Y55944D01*
X105802Y56101D01*
X106469Y56547D01*
X108750Y58827D01*
X108750Y58828D01*
X108791Y58890D01*
X109284Y59482D01*
X110213Y59351D01*
D02*
G37*
G36*
X-168250Y53450D02*
X-228332D01*
X-229014Y54203D01*
X-228349Y60850D01*
X-168250D01*
Y53450D01*
D02*
G37*
G36*
Y28050D02*
X-230872D01*
X-231554Y28803D01*
X-229619Y48150D01*
X-168250D01*
Y28050D01*
D02*
G37*
G36*
Y-10050D02*
X-231750D01*
Y10050D01*
X-168250D01*
Y-10050D01*
D02*
G37*
G36*
X230000Y-65000D02*
X205057D01*
X203667Y-64197D01*
X201251Y-63550D01*
X198749D01*
X196333Y-64197D01*
X194943Y-65000D01*
X190000D01*
Y-80000D01*
X169000D01*
Y-79097D01*
X168391Y-77627D01*
X167266Y-76502D01*
X165796Y-75893D01*
X164204D01*
X162734Y-76502D01*
X161609Y-77627D01*
X161000Y-79097D01*
Y-80000D01*
X141100D01*
Y-61100D01*
X146484D01*
X146523Y-61084D01*
X157500D01*
X158278Y-60762D01*
X158600Y-59984D01*
Y-25000D01*
X158278Y-24222D01*
X157500Y-23900D01*
Y-14200D01*
X158770Y-13947D01*
X159109Y-14766D01*
X160234Y-15891D01*
X161704Y-16500D01*
X163296D01*
X164766Y-15891D01*
X165891Y-14766D01*
X166500Y-13296D01*
Y-12500D01*
X230000D01*
Y-65000D01*
D02*
G37*
G36*
X151461Y-6672D02*
X145000Y-18400D01*
Y-23400D01*
X128500D01*
Y-18400D01*
X135000Y-6600D01*
Y-1639D01*
X151461D01*
Y-6672D01*
D02*
G37*
G36*
X157500Y-59984D02*
X146484D01*
Y-60000D01*
X133516D01*
Y-59984D01*
X121484D01*
Y-60000D01*
X110261D01*
X110020Y-59900D01*
X97020D01*
X96779Y-60000D01*
X95000D01*
Y-38157D01*
X95427Y-37730D01*
X96250Y-37407D01*
X97073Y-37730D01*
X97734Y-38391D01*
X99204Y-39000D01*
X100796D01*
X102266Y-38391D01*
X103391Y-37266D01*
X104000Y-35796D01*
Y-34204D01*
X103391Y-32734D01*
X102266Y-31609D01*
X100796Y-31000D01*
X99204D01*
X97734Y-31609D01*
X97073Y-32270D01*
X96250Y-32593D01*
X95427Y-32270D01*
X95000Y-31843D01*
Y-25000D01*
X98122D01*
Y-29378D01*
X107307D01*
Y-29378D01*
X107693D01*
Y-29378D01*
X116878D01*
Y-25000D01*
X157500D01*
Y-59984D01*
D02*
G37*
G36*
X109840Y-61016D02*
X110058D01*
X110261Y-61100D01*
X121484D01*
X121523Y-61084D01*
X133477D01*
X133516Y-61100D01*
X140000D01*
Y-80000D01*
X95000D01*
Y-61100D01*
X96779D01*
X96981Y-61016D01*
X97200D01*
X97239Y-61000D01*
X109801D01*
X109840Y-61016D01*
D02*
G37*
%LPC*%
G36*
X44796Y111500D02*
X43204D01*
X41734Y110891D01*
X40609Y109766D01*
X40000Y108296D01*
Y106704D01*
X40609Y105234D01*
X41734Y104109D01*
X43204Y103500D01*
X44796D01*
X46266Y104109D01*
X47391Y105234D01*
X48000Y106704D01*
Y108296D01*
X47391Y109766D01*
X46266Y110891D01*
X44796Y111500D01*
D02*
G37*
G36*
X118296Y-46000D02*
X116704D01*
X115234Y-46609D01*
X114109Y-47734D01*
X113500Y-49204D01*
Y-50796D01*
X114109Y-52266D01*
X115234Y-53391D01*
X116704Y-54000D01*
X118296D01*
X119766Y-53391D01*
X120891Y-52266D01*
X121500Y-50796D01*
Y-49204D01*
X120891Y-47734D01*
X119766Y-46609D01*
X118296Y-46000D01*
D02*
G37*
%LPD*%
G36*
X119143Y-47541D02*
X119959Y-48357D01*
X120400Y-49423D01*
Y-50577D01*
X119959Y-51643D01*
X119143Y-52459D01*
X118077Y-52900D01*
X116923D01*
X115857Y-52459D01*
X115041Y-51643D01*
X114600Y-50577D01*
Y-49423D01*
X115041Y-48357D01*
X115857Y-47541D01*
X116923Y-47100D01*
X118077D01*
X119143Y-47541D01*
D02*
G37*
G36*
X89984Y-119891D02*
Y-123016D01*
X91744D01*
Y-128122D01*
X90622D01*
Y-134664D01*
X90582Y-134862D01*
X90582Y-134862D01*
Y-143444D01*
X88750D01*
X87963Y-143601D01*
X87296Y-144046D01*
X86851Y-144713D01*
X86694Y-145500D01*
Y-151500D01*
X86851Y-152287D01*
X87296Y-152953D01*
X87963Y-153399D01*
X88750Y-153555D01*
X95399D01*
X97177Y-155334D01*
X96552Y-156504D01*
X96250Y-156445D01*
X88750D01*
X87963Y-156601D01*
X87296Y-157046D01*
X86851Y-157713D01*
X86694Y-158500D01*
Y-163649D01*
X84883Y-165460D01*
X84409D01*
X83306Y-164500D01*
Y-158500D01*
X83149Y-157713D01*
X82704Y-157046D01*
X82037Y-156601D01*
X81250Y-156445D01*
X74500D01*
X74500Y-156445D01*
X74500Y-156445D01*
X74101D01*
X68306Y-150649D01*
Y-145500D01*
X68149Y-144713D01*
X67703Y-144046D01*
X67037Y-143601D01*
X66250Y-143444D01*
X64693D01*
Y-136878D01*
X69807D01*
Y-128122D01*
X65455D01*
Y-123016D01*
X66816D01*
Y-116984D01*
X63291D01*
X58254Y-111947D01*
X58740Y-110773D01*
X80867D01*
X89984Y-119891D01*
D02*
G37*
G36*
X59984Y-119491D02*
Y-123016D01*
X61344D01*
Y-128122D01*
X60622D01*
Y-134664D01*
X60582Y-134862D01*
X60582Y-134862D01*
Y-143444D01*
X58750D01*
X57963Y-143601D01*
X57297Y-144046D01*
X56851Y-144713D01*
X56694Y-145500D01*
Y-151500D01*
X56851Y-152287D01*
X57297Y-152953D01*
X57963Y-153399D01*
X58750Y-153555D01*
X65399D01*
X67177Y-155334D01*
X66551Y-156504D01*
X66250Y-156445D01*
X58750D01*
X57963Y-156601D01*
X57297Y-157046D01*
X56851Y-157713D01*
X56694Y-158500D01*
Y-163649D01*
X53911Y-166432D01*
X52925Y-165622D01*
X53149Y-165287D01*
X53306Y-164500D01*
Y-158500D01*
X53149Y-157713D01*
X52703Y-157046D01*
X52037Y-156601D01*
X51250Y-156445D01*
X44500D01*
X44500Y-156445D01*
X44500Y-156445D01*
X44101D01*
X38305Y-150649D01*
Y-145500D01*
X38149Y-144713D01*
X37703Y-144046D01*
X37037Y-143601D01*
X36250Y-143444D01*
X34693D01*
Y-136878D01*
X39807D01*
Y-128122D01*
X35456D01*
Y-123016D01*
X36816D01*
Y-116984D01*
X33291D01*
X31270Y-114963D01*
X31756Y-113790D01*
X54283D01*
X59984Y-119491D01*
D02*
G37*
G36*
X145000Y-152500D02*
X122500D01*
Y-130000D01*
X145000D01*
Y-152500D01*
D02*
G37*
D10*
X-197611Y112277D02*
G03*
X-197610Y112277I-563J1919D01*
G01*
X-196576Y112992D02*
G03*
X-196176Y114296I-1597J1204D01*
G01*
X-197610Y112277D02*
G03*
X-196576Y112992I-564J1919D01*
G01*
X-210678Y107964D02*
G03*
X-212427Y106830I1795J-4684D01*
G01*
X-217017Y102248D02*
G03*
X-217612Y101515I3578J-3516D01*
G01*
X-227337Y86932D02*
G03*
X-228004Y85405I4199J-2744D01*
G01*
X-237991Y15399D02*
G03*
X-237992Y15393I3001J-300D01*
G01*
X-193019Y111923D02*
G03*
X-194168Y111177I449J-1949D01*
G01*
X-196764Y109382D02*
G03*
X-194168Y111177I-1410J4814D01*
G01*
X-203349Y107453D02*
G03*
X-203476Y107410I573J-1916D01*
G01*
X-209589Y105152D02*
G03*
X-210294Y104698I706J-1871D01*
G01*
D02*
G03*
X-210296Y104696I1411J-1418D01*
G01*
X-214859Y100140D02*
G03*
X-215102Y99843I1420J-1408D01*
G01*
D02*
G03*
X-215103Y99842I1663J-1111D01*
G01*
X-224808Y85288D02*
G03*
X-225078Y84673I1670J-1100D01*
G01*
X-234990Y15099D02*
G03*
X-235000Y14910I1990J-199D01*
G01*
X-237992Y15393D02*
G03*
X-238016Y14916I4992J-493D01*
G01*
X-229966Y65135D02*
G03*
X-229965Y65141I-2924J738D01*
G01*
X-232890Y65873D02*
G03*
X-233014Y65174I4866J-1217D01*
G01*
X-229966Y65135D02*
G03*
X-230013Y64867I1942J-479D01*
G01*
X-227317Y86961D02*
G03*
X-227337Y86932I2509J-1673D01*
G01*
X-216990Y102275D02*
G03*
X-217017Y102248I2131J-2134D01*
G01*
X-210634Y107981D02*
G03*
X-210678Y107964I1045J-2829D01*
G01*
X-204196Y110348D02*
G03*
X-204241Y110334I848J-2894D01*
G01*
D02*
G03*
X-204514Y110242I1465J-4797D01*
G01*
X-12500Y234250D02*
X-4000Y225750D01*
Y225000D02*
Y225750D01*
X-12500Y234250D02*
Y235000D01*
X-33500Y225000D02*
X-4000D01*
X15014Y222486D02*
X27500Y210000D01*
X11500Y222486D02*
X15014D01*
X9000Y224986D02*
Y225000D01*
Y224986D02*
X11500Y222486D01*
X3400Y-130900D02*
X5000Y-132500D01*
X3400Y-130900D02*
Y-120000D01*
X33400Y-130900D02*
X35000Y-132500D01*
X33400Y-130900D02*
Y-120000D01*
X32000Y-119000D02*
Y-118600D01*
Y-119000D02*
X33000Y-120000D01*
X33400D01*
X-43828Y-105000D02*
X18400D01*
X-47484Y-101984D02*
X19649D01*
X29399Y-111734D01*
X30649Y-108718D02*
X81718D01*
X29399Y-111734D02*
X55134D01*
X18400Y-105000D02*
X32000Y-118600D01*
X-43532Y-98968D02*
X20898D01*
X30649Y-108718D01*
X63000Y-120000D02*
X63400D01*
X55134Y-111734D02*
X62000Y-118600D01*
Y-119000D02*
X63000Y-120000D01*
X62000Y-119000D02*
Y-118600D01*
X63400Y-130686D02*
Y-120000D01*
Y-130686D02*
X65214Y-132500D01*
X93800Y-131086D02*
X95214Y-132500D01*
X93800Y-131086D02*
Y-120000D01*
X81718Y-108718D02*
X93200Y-120200D01*
X93400Y-120000D02*
X93800D01*
X108500Y-99500D02*
Y-97500D01*
X99800Y-88800D02*
Y-88500D01*
X98500Y-87500D02*
X98800D01*
X108500Y-99500D02*
X111500Y-102500D01*
X99800Y-88800D02*
X108500Y-97500D01*
X98800Y-87500D02*
X99800Y-88500D01*
X-232083Y-28707D02*
X-226601Y-28404D01*
X-229067Y-25519D02*
X-224254Y-25254D01*
X-235000Y-19905D02*
Y14910D01*
X-238016Y-23092D02*
X-232083Y-28707D01*
X-238016Y-23092D02*
Y14916D01*
X-235000Y-19905D02*
X-229067Y-25519D01*
X-235000Y14910D02*
Y14910D01*
X-226601Y-28404D02*
X-224562Y-29050D01*
X-223750Y-29050D01*
X-222905D01*
X-197612Y112277D02*
X-197611Y112277D01*
X-203487Y-25254D02*
X-196450Y-29050D01*
X-224254Y-25254D02*
X-203487D01*
X40000Y-177500D02*
Y-168250D01*
X33250Y-161500D02*
X40000Y-168250D01*
X32500Y-161500D02*
X33250D01*
X51999Y-175516D02*
X59999Y-167516D01*
X85734D01*
X47500Y-180000D02*
X51984Y-175516D01*
X85734Y-167516D02*
X91750Y-161500D01*
X51984Y-175516D02*
X51999D01*
X91750Y-161500D02*
X92500D01*
X45000Y-172500D02*
X50750D01*
X61750Y-161500D02*
X62500D01*
X50750Y-172500D02*
X61750Y-161500D01*
X-76922Y21578D02*
X-70922D01*
X-58016Y34484D02*
Y140249D01*
X-77500Y21000D02*
X-76922Y21578D01*
X-70922D02*
X-58016Y34484D01*
X-55000Y13250D02*
Y139000D01*
X-61750Y6500D02*
X-55000Y13250D01*
X-62500Y6500D02*
X-61750D01*
X-59500Y-108250D02*
X-53750D01*
X-47484Y-101984D01*
X-53750Y-88750D02*
X-43532Y-98968D01*
X-53578Y-114750D02*
X-43828Y-105000D01*
X-32500Y92500D02*
X-20000Y80000D01*
X-16984Y46234D02*
X-11500Y40750D01*
X-20000Y-5000D02*
Y80000D01*
X-16984Y46234D02*
Y85695D01*
X-10179Y92500D01*
X-11500Y25000D02*
Y40000D01*
X-11500D02*
Y40750D01*
X1500Y70750D02*
X3250Y72500D01*
X10000D01*
X-8945Y82719D02*
X-6409Y85254D01*
Y88591D02*
X-2500Y92500D01*
X-6409Y85254D02*
Y88591D01*
X-10179Y92500D02*
X-10000D01*
X-8945Y82719D02*
Y83469D01*
X-9597Y70597D02*
Y82719D01*
Y70597D02*
X-9000Y70000D01*
X-19037Y-132500D02*
X5000D01*
X-59500Y-114750D02*
X-53578D01*
X-29037Y-142500D02*
X-19037Y-132500D01*
X-54000Y-134000D02*
X-45500Y-142500D01*
X-29037D01*
X-100000Y167500D02*
Y197500D01*
X-59500Y-88750D02*
X-53750D01*
X-58000Y-134000D02*
X-54000D01*
X0Y-164000D02*
X2500Y-161500D01*
X0Y-175000D02*
Y-164000D01*
X14500Y-158500D02*
X17500Y-161500D01*
X13250Y-158500D02*
X14500D01*
X3250Y-148500D02*
X13250Y-158500D01*
X2500Y-148500D02*
X3250D01*
X2500D02*
X2638Y-148362D01*
Y-134862D01*
X5000Y-132500D01*
X104500Y-158500D02*
X107500Y-161500D01*
X103250Y-158500D02*
X104500D01*
X93250Y-148500D02*
X103250Y-158500D01*
X92500Y-148500D02*
X93250D01*
X92500D02*
X92638Y-148362D01*
Y-134862D01*
X95000Y-132500D01*
X74500Y-158500D02*
X77500Y-161500D01*
X73250Y-158500D02*
X74500D01*
X63250Y-148500D02*
X73250Y-158500D01*
X62500Y-148500D02*
X63250D01*
X62500D02*
X62638Y-148362D01*
Y-134862D01*
X65000Y-132500D01*
X44500Y-158500D02*
X47500Y-161500D01*
X43250Y-158500D02*
X44500D01*
X33250Y-148500D02*
X43250Y-158500D01*
X32500Y-148500D02*
X33250D01*
X32500D02*
X32638Y-148362D01*
Y-134862D01*
X35000Y-132500D01*
X158500Y-165000D02*
Y-148500D01*
X150984Y-140984D02*
X158500Y-148500D01*
X150984Y-140984D02*
Y-121286D01*
X145198Y-115500D02*
X150984Y-121286D01*
X132000Y-115500D02*
X145198D01*
X158000Y-134500D02*
X158078Y-134578D01*
X164828D02*
X174250Y-144000D01*
X158078Y-134578D02*
X164828D01*
X171500Y-165000D02*
Y-147000D01*
X174500Y-144000D01*
X175000D01*
X174250D02*
X175000D01*
X-90000Y-23500D02*
X-89250D01*
X-80750Y-15000D01*
X-42500D01*
X-40000Y-12500D01*
Y10015D01*
X-51984Y21999D02*
X-40000Y10015D01*
X-51984Y21999D02*
Y125516D01*
X-47500Y130000D01*
X-46984Y121984D02*
Y122500D01*
Y121984D02*
X-33968Y108968D01*
X-58016Y140249D02*
X-22500Y175765D01*
X-55000Y139000D02*
X-19000Y175000D01*
X198500Y-90750D02*
Y-90000D01*
X195500Y-93750D02*
X198500Y-90750D01*
X189526Y-98974D02*
X194750Y-93750D01*
X181276Y-98974D02*
X189526D01*
X194750Y-93750D02*
X195500D01*
X173500Y-106750D02*
X181276Y-98974D01*
X173500Y-107500D02*
Y-106750D01*
X160000Y-115000D02*
Y-115000D01*
X167500Y-107500D01*
X173500D01*
X-44335Y-88016D02*
X-37337D01*
X-46000Y-86351D02*
X-44335Y-88016D01*
X-46000Y-86351D02*
Y-57000D01*
X-153076Y37940D02*
Y38283D01*
X-157500Y42708D02*
X-153076Y38283D01*
X-157500Y42708D02*
Y55000D01*
X-50500Y-52500D02*
X-46000Y-57000D01*
X152797Y127953D02*
X158546D01*
X163500Y123000D01*
X136500Y144250D02*
X152797Y127953D01*
X128780Y120000D02*
X145000D01*
X109969Y116984D02*
X125765D01*
X128780Y120000D01*
X-5100Y-44088D02*
X-3965Y-45224D01*
Y-45964D02*
Y-45224D01*
X-5100Y-44088D02*
Y-28550D01*
X-120000Y179786D02*
X-117638Y182148D01*
Y185362D02*
X-113000Y190000D01*
X-117638Y182148D02*
Y185362D01*
X-113000Y190000D02*
Y190048D01*
X-95000Y134000D02*
Y142789D01*
X-99952Y147741D02*
X-95000Y142789D01*
X57000Y177000D02*
Y182000D01*
X56000Y176000D02*
X57000Y177000D01*
Y182000D02*
X60000Y185000D01*
X72500D01*
X75000Y182500D01*
Y166462D02*
Y182500D01*
Y166462D02*
X75169Y166293D01*
X56000Y154000D02*
X56871Y153129D01*
Y148129D02*
X70000Y135000D01*
X56871Y148129D02*
Y153129D01*
X69500Y165500D02*
Y175500D01*
Y165500D02*
X70000Y165000D01*
X69000Y176000D02*
X69500Y175500D01*
X88485Y144000D02*
X98500D01*
X75169Y157316D02*
Y166293D01*
X78234Y164516D02*
Y176456D01*
Y164516D02*
X84250Y158500D01*
X75169Y157316D02*
X88485Y144000D01*
X78234Y176456D02*
X85256Y183478D01*
X118250Y124000D02*
X123500Y129250D01*
X107000Y124000D02*
X118250D01*
X93000Y115000D02*
X93812D01*
X95796Y116984D01*
X104984D01*
X103000Y120000D02*
X107000Y124000D01*
X101266Y123016D02*
X109250Y131000D01*
X81249Y120000D02*
X103000D01*
X80000Y123016D02*
X101266D01*
X104984Y116984D02*
X108213Y120213D01*
X107016Y114031D02*
X109969Y116984D01*
X124728Y120213D02*
X129516Y125001D01*
X108213Y120213D02*
X124728D01*
X123500Y144250D02*
X129516Y138234D01*
X123500Y144250D02*
Y145000D01*
X129516Y125001D02*
Y138234D01*
X107016Y104782D02*
Y114031D01*
X104000Y101766D02*
X107016Y104782D01*
X94984Y71766D02*
Y99999D01*
X96751Y101766D01*
X104000D01*
X101000Y65000D02*
Y65750D01*
X94984Y71766D02*
X101000Y65750D01*
X121426Y65574D02*
Y68589D01*
X107296Y72954D02*
X117062D01*
X121426Y65574D02*
X122000Y65000D01*
X117062Y72954D02*
X121426Y68589D01*
X101000Y79250D02*
X107296Y72954D01*
X105015Y58000D02*
X107296Y60281D01*
X101000Y79250D02*
Y80000D01*
X107296Y60281D02*
Y72954D01*
X84000Y64250D02*
X90250Y58000D01*
X84000Y64250D02*
Y65000D01*
X90250Y58000D02*
X105015D01*
X-146250Y179921D02*
X-122362D01*
X144651Y152500D02*
X153234Y143917D01*
X98500Y144000D02*
X107000Y152500D01*
X144651D01*
X177426Y160074D02*
X178000Y159500D01*
X166500Y169250D02*
X175676Y160074D01*
X177426D01*
X166500Y169250D02*
Y170000D01*
Y155000D02*
X175429D01*
X179429Y151000D01*
X180000D01*
X153234Y134751D02*
Y143917D01*
X134516Y88672D02*
Y103484D01*
X133344Y87500D02*
X134516Y88672D01*
X128000Y109000D02*
X129000D01*
X101000Y94250D02*
X107750Y87500D01*
X133344D01*
X125000Y53479D02*
X129521Y58000D01*
X110000Y29750D02*
Y30000D01*
X101000Y20750D02*
X110000Y29750D01*
X63312Y-37500D02*
X66210Y-34602D01*
X62500Y-37500D02*
X63312D01*
X125000Y72500D02*
X134515D01*
X116328Y77672D02*
X119828D01*
X125000Y72500D01*
X114000Y80000D02*
X116328Y77672D01*
X167500Y-8308D02*
Y60000D01*
X162500Y-5000D02*
Y60000D01*
X75000Y-99750D02*
X75574Y-99176D01*
X80083D01*
X70000Y-95172D02*
X72500Y-92672D01*
Y-92500D01*
X70000Y-101821D02*
Y-95172D01*
X71984Y-92500D02*
Y-91984D01*
X80083Y-99176D02*
X83520Y-95739D01*
X60000Y-80000D02*
X71984Y-91984D01*
X70000Y-101821D02*
X72929Y-104750D01*
X87339D01*
X83520Y-95739D02*
Y-74500D01*
X87339Y-104750D02*
X89589Y-102500D01*
X98500D01*
X75371Y-34602D02*
X83520Y-42750D01*
X66210Y-34602D02*
X75371D01*
X46468Y23468D02*
Y66767D01*
X41267Y71968D02*
X46468Y66767D01*
X42718Y-28110D02*
Y19718D01*
X45734Y9266D02*
X47500Y7500D01*
X49484Y22219D02*
Y68016D01*
X42718Y19718D02*
X46468Y23468D01*
X45734Y9266D02*
Y18469D01*
X49484Y22219D01*
X41312Y-29516D02*
X42718Y-28110D01*
X11766Y-29516D02*
X41312D01*
X5750Y-23500D02*
X11766Y-29516D01*
X5000Y-23500D02*
X5750D01*
X42516Y74984D02*
X49484Y68016D01*
X33751Y71968D02*
X41267D01*
X30218Y75501D02*
Y83000D01*
Y75501D02*
X33751Y71968D01*
X28734Y84484D02*
X30218Y83000D01*
X16680Y84484D02*
X28734D01*
X11984Y89180D02*
X16680Y84484D01*
X11984Y89180D02*
Y106000D01*
X9016Y108968D02*
X11984Y106000D01*
X-33968Y108968D02*
X9016D01*
X-40000Y122500D02*
X-29484Y111984D01*
X-32500Y122500D02*
X-25000Y115000D01*
X65000D01*
X-29484Y111984D02*
X10516D01*
X111500Y-102500D02*
X120000D01*
X-75000Y172500D02*
X-68500Y166000D01*
X-75064Y162436D02*
Y162500D01*
Y172500D02*
X-75000D01*
X-80000Y157500D02*
X-75064Y162436D01*
X-80064Y150429D02*
X-80000Y150365D01*
Y154635D02*
Y157500D01*
X-80064Y154571D02*
X-80000Y154635D01*
Y134000D02*
Y150365D01*
X-80064Y150429D02*
Y154571D01*
X-28500Y-45000D02*
X-24500D01*
X-35000Y-52250D02*
X-28500Y-45750D01*
Y-45000D01*
X-35000Y-65500D02*
Y-52250D01*
X-19000Y206000D02*
X-15000Y210000D01*
X-19000Y175000D02*
Y206000D01*
X-22500Y175765D02*
Y210000D01*
X-50000Y160250D02*
Y172500D01*
X-65000Y146000D02*
X-64250D01*
X-50000Y160250D01*
X-47500Y6500D02*
X-47500Y6500D01*
X-62500Y6500D02*
X-47500D01*
X-186350Y-6350D02*
X-171150D01*
X-105062Y-101750D02*
X-103312Y-100000D01*
X-102500D01*
X-120500Y-101750D02*
X-105062D01*
X-120125Y-107875D02*
X-102875D01*
X-120500Y-108250D02*
X-120125Y-107875D01*
X-102875D02*
X-102500Y-107500D01*
X-120375Y-114875D02*
X-102625D01*
X-120500Y-114750D02*
X-120375Y-114875D01*
X-102625D02*
X-102500Y-115000D01*
X-105062Y-134250D02*
X-103312Y-132500D01*
X-120500Y-134250D02*
X-105062D01*
X-103312Y-132500D02*
X-102500D01*
X-103312Y-125000D02*
X-102500D01*
X-120500Y-127750D02*
X-106062D01*
X-103312Y-125000D01*
X83520Y-45500D02*
Y-42750D01*
X151500Y-88203D02*
X154500Y-91203D01*
X156203D02*
X160000Y-95000D01*
X151500Y-88203D02*
Y-87500D01*
X154500Y-91203D02*
X156203D01*
X-29500Y-69500D02*
Y-66000D01*
X-35000Y-75000D02*
X-29500Y-69500D01*
X-38500Y-75000D02*
X-35000D01*
X-29500Y-66000D02*
X-28851Y-65351D01*
X-28500D02*
Y-63000D01*
X-28851Y-65351D02*
X-28500D01*
X60000Y10734D02*
Y42500D01*
X65000Y47500D02*
X68500D01*
X60000Y42500D02*
X65000Y47500D01*
X68500D02*
X71000Y50000D01*
X55000Y72500D02*
X74515D01*
X52500Y70000D02*
X55000Y72500D01*
X52500Y14000D02*
Y70000D01*
X30000Y87500D02*
X33234Y84266D01*
X35001Y74984D02*
X42516D01*
X17929Y87500D02*
X30000D01*
X33234Y76751D02*
X35001Y74984D01*
X33234Y76751D02*
Y84266D01*
X15000Y90429D02*
Y107500D01*
X10516Y111984D02*
X15000Y107500D01*
Y90429D02*
X17929Y87500D01*
X20000Y92500D02*
X38500D01*
X40000Y94000D01*
X59266Y9751D02*
Y10000D01*
X60000Y10734D01*
X57015Y7500D02*
X59266Y9751D01*
X47500Y7500D02*
X57015D01*
X73172Y86766D02*
X75249D01*
X72000Y87938D02*
Y92000D01*
X71000Y93000D02*
X72000Y92000D01*
Y87938D02*
X73172Y86766D01*
X75249D02*
X77016Y84999D01*
X65000Y115000D02*
X69000Y119000D01*
X75984D01*
X80000Y123016D01*
X78500Y113000D02*
Y117251D01*
X81249Y120000D01*
X77500Y112000D02*
X78500Y113000D01*
X109250Y131000D02*
X110000D01*
X-68500Y162000D02*
X-65500Y159000D01*
X-65000D01*
X-68500Y162000D02*
Y166000D01*
X-118797Y112953D02*
X-110750Y121000D01*
X-131761Y112953D02*
X-118797D01*
X-110750Y121000D02*
X-110000D01*
X-127500Y92500D02*
X-127000Y93000D01*
Y98000D01*
X-128000Y78000D02*
X-89750D01*
X-127000Y98000D02*
X-125000Y100000D01*
X-116500D01*
X-107500Y42500D02*
X-86750D01*
X-107500D02*
X-106926Y41926D01*
X-104411D01*
X-100734Y38249D01*
X-127500Y2500D02*
X-126688D01*
X-122688Y6500D01*
X-137500Y-1000D02*
X-136000Y500D01*
Y5903D01*
X-188968Y135213D02*
X-179676Y144505D01*
X-188968Y135000D02*
Y135213D01*
X-179676Y144505D02*
Y145380D01*
X-184344Y115126D02*
X-181980Y124027D01*
X-178277Y105684D02*
Y106974D01*
X-174574Y110678D01*
Y114426D01*
X-174000Y115000D01*
X-172883Y130565D02*
X-167693Y135755D01*
Y136351D01*
X-172949Y130565D02*
X-172883D01*
X-198248Y121396D02*
X-189644Y130000D01*
X-185192D02*
X-181000Y134192D01*
X-189644Y130000D02*
X-185192D01*
X-181000Y134192D02*
Y135000D01*
X-198248Y120733D02*
Y121396D01*
X-186266Y111704D02*
X-184344Y115126D01*
X-174283Y102674D02*
X-172361Y106096D01*
X-166980Y114027D01*
X-159480Y116527D02*
X-157633Y123899D01*
X-155711Y127321D01*
X-166980Y121527D02*
X-162454Y127533D01*
X-159705Y130331D01*
X137500Y-75000D02*
X138500Y-76000D01*
Y-87500D02*
Y-76000D01*
X151500Y-87500D02*
X151500Y-87500D01*
X151500Y-102500D02*
Y-87500D01*
X155485Y132500D02*
X178828D01*
X153234Y134751D02*
X155485Y132500D01*
X-196176Y114302D02*
X-196176Y114296D01*
X-204196Y110348D02*
X-197612Y112277D01*
X-216990Y102275D02*
X-212427Y106830D01*
X-227317Y86961D02*
X-217612Y101515D01*
X-232890Y65873D02*
X-228004Y85405D01*
X-237991Y15399D02*
X-233014Y65174D01*
X-222905Y-29050D02*
X-213650Y-31750D01*
X-193019Y111923D02*
X-190260Y114714D01*
X-203349Y107453D02*
X-196764Y109382D01*
X-203349Y107453D02*
Y107453D01*
X-209589Y105152D02*
X-203476Y107410D01*
X-210296Y104696D02*
X-210294Y104698D01*
X-214859Y100141D02*
X-210296Y104696D01*
X-215103Y99842D02*
X-215102Y99843D01*
X-224808Y85288D02*
X-215103Y99842D01*
X-229965Y65141D02*
X-225078Y84673D01*
X-234990Y15099D02*
X-230013Y64867D01*
X-11500Y-22150D02*
Y-5000D01*
Y-22150D02*
X-8650Y-25000D01*
X-5100Y-28550D01*
X-78250Y66500D02*
X-77500D01*
X-89750Y78000D02*
X-78250Y66500D01*
X-134266Y74266D02*
X-134251D01*
X-132985Y73000D02*
X-117000D01*
X-138000Y78000D02*
X-134266Y74266D01*
X-134251D02*
X-132985Y73000D01*
X-117000D02*
X-115000Y71000D01*
Y62000D02*
Y71000D01*
Y62000D02*
X-113000Y60000D01*
X-99750D02*
X-93250Y53500D01*
X-92500D01*
X-113000Y60000D02*
X-99750D01*
X-92500Y53500D02*
X-77500D01*
X-92500Y53500D02*
X-92500Y53500D01*
X-116750Y45000D02*
X-108250Y53500D01*
X-107500D01*
X-127500Y45000D02*
X-116750D01*
X-157500Y55000D02*
X-152500Y60000D01*
X-145250D02*
X-138500Y66750D01*
X-152500Y60000D02*
X-145250D01*
X-137625Y66625D02*
X-122625D01*
X-138500Y67500D02*
X-137625Y66625D01*
X-122625D02*
X-122500Y66500D01*
X-86750Y42500D02*
X-78250Y34000D01*
X-77500D01*
Y7500D02*
Y21000D01*
X55750Y94000D02*
X61750Y100000D01*
X75000D01*
X55000Y94000D02*
X55750D01*
X52000Y91000D02*
X55000Y94000D01*
X76500D02*
Y98500D01*
Y94000D02*
X77500Y93000D01*
X75000Y100000D02*
X76500Y98500D01*
X40750Y81000D02*
X50750Y91000D01*
X40000Y81000D02*
X40750D01*
X50750Y91000D02*
X52000D01*
X188500Y95750D02*
X195000Y102250D01*
X188500Y95000D02*
Y95750D01*
X195000Y102250D02*
Y115000D01*
X192500Y117500D02*
X195000Y115000D01*
X180000Y118672D02*
X181172Y117500D01*
X192500D01*
X180000Y118672D02*
Y131328D01*
X178828Y132500D02*
X180000Y131328D01*
X136500Y144250D02*
Y145000D01*
X123500Y129250D02*
Y130000D01*
X110750Y144000D02*
X120500Y134250D01*
Y133000D02*
X123500Y130000D01*
X110000Y144000D02*
X110750D01*
X120500Y133000D02*
Y134250D01*
X163500Y109500D02*
Y123000D01*
X170000Y90500D02*
Y91500D01*
X172500Y94000D02*
X173250D01*
X170000Y91500D02*
X172500Y94000D01*
X173250D02*
X188500Y109250D01*
Y110000D01*
X142500Y175000D02*
X148000Y180500D01*
X136500Y175000D02*
X142500D01*
X137000Y189500D02*
X148000D01*
X136500Y190000D02*
X137000Y189500D01*
X201500Y109297D02*
X204500Y106297D01*
X206203D02*
X213000Y99500D01*
X201500Y109297D02*
Y110000D01*
X204500Y106297D02*
X206203D01*
X186500Y139297D02*
Y140000D01*
X191203Y136297D02*
X198000Y129500D01*
X189500Y136297D02*
X191203D01*
X198000Y129500D02*
X198000D01*
X186500Y139297D02*
X189500Y136297D01*
X186500Y125000D02*
X193500D01*
X198000Y120500D01*
X208500Y95000D02*
X213000Y90500D01*
X201500Y95000D02*
X208500D01*
X76714Y206500D02*
X105000D01*
X105000Y206250D02*
Y206500D01*
X105000Y206500D01*
X112000Y160000D02*
X123500D01*
X111500Y160500D02*
X112000Y160000D01*
X94228Y183478D02*
X104250Y193500D01*
X85256Y183478D02*
X94228D01*
X101500Y171500D02*
X111500Y161500D01*
X85000Y171500D02*
X101500D01*
X111500Y160500D02*
Y161500D01*
X75000Y204786D02*
X76714Y206500D01*
X-152388Y152279D02*
Y165500D01*
X-150000Y168500D01*
X-152388Y152279D02*
X-151752Y148841D01*
X-150000Y181500D02*
X-146250Y179921D01*
X-122362D02*
X-120000Y179786D01*
X-135000Y158750D02*
Y168500D01*
X-196450Y-29050D02*
X-186350Y-31750D01*
X-210634Y107981D02*
X-204514Y110242D01*
X-196176Y114302D02*
X-194254Y117724D01*
X-132214Y112500D02*
X-131761Y112953D01*
X-13500Y-65500D02*
X-12500Y-66500D01*
X-29000Y-65500D02*
X-13500D01*
X-40500Y-83500D02*
Y-77000D01*
X-41500Y-84500D02*
X-40500Y-83500D01*
Y-77000D02*
X-38500Y-75000D01*
X-76000Y-52500D02*
X-50500D01*
X-35500Y-84500D02*
X-35000D01*
X-37337Y-88016D02*
X-36000Y-86679D01*
Y-85000D01*
X-35500Y-84500D01*
X-83500Y-59250D02*
Y-42250D01*
Y-60000D02*
Y-59250D01*
X-89250Y-36500D02*
X-83500Y-42250D01*
X-90000Y-36500D02*
X-89250D01*
X-80500Y-56250D02*
X-79750D01*
X-83500Y-59250D02*
X-80500Y-56250D01*
X-79750D02*
X-76000Y-52500D01*
X-41500Y-25150D02*
X-41350Y-25000D01*
X-41500Y-45000D02*
Y-25150D01*
X37500Y-48500D02*
X52500D01*
X8118D02*
X37500D01*
X3000Y-53618D02*
X8118Y-48500D01*
X60000Y-80000D02*
Y-55250D01*
X35500Y-36500D02*
X35500Y-36500D01*
X20000Y-36500D02*
X35500D01*
X5000D02*
X20000D01*
X5000Y-36500D02*
X5000Y-36500D01*
X52500Y-48500D02*
Y-32000D01*
X54500Y-30000D01*
X45250Y-55000D02*
X51750Y-61500D01*
X22000Y-56523D02*
X23523Y-55000D01*
X22000Y-56995D02*
Y-56523D01*
X23523Y-55000D02*
X45250D01*
X51750Y-61500D02*
X52500D01*
X52500Y-48500D02*
X52500Y-48500D01*
X3000Y-56995D02*
Y-53618D01*
X37500Y-77929D02*
X39862Y-80291D01*
X43041D02*
X51750Y-89000D01*
X37500Y-77929D02*
Y-77714D01*
X39862Y-80291D02*
X43041D01*
X51750Y-89000D02*
X52500D01*
X37500Y-77714D02*
Y-61500D01*
X22145Y-77860D02*
X37355D01*
X53250Y-48500D02*
X60000Y-55250D01*
X52500Y-48500D02*
X53250D01*
X-136000Y-2500D02*
X-112250D01*
X-108250Y-6500D02*
X-107500D01*
X-137500Y-1000D02*
X-136000Y-2500D01*
X-112250D02*
X-108250Y-6500D01*
X-122688Y6500D02*
X-92500D01*
X-122516Y14984D02*
X-102501D01*
X-102485Y15000D01*
X-99250D02*
X-93250Y21000D01*
X-102485Y15000D02*
X-99250D01*
X-127500Y10000D02*
X-122516Y14984D01*
X-141000Y-45000D02*
Y-44250D01*
X-147016Y-38234D02*
X-141000Y-44250D01*
X-147016Y-22133D02*
X-145734Y-20851D01*
X-147016Y-38234D02*
Y-22133D01*
X-145734Y-20851D02*
Y-7016D01*
X-151750Y-1000D02*
X-145734Y-7016D01*
X-152500Y-1000D02*
X-151750D01*
X-171100Y47150D02*
X-151500Y66750D01*
X-183650Y47150D02*
X-171100D01*
X-151500Y66750D02*
Y67500D01*
X-186350Y44450D02*
X-183650Y47150D01*
X-171150Y-6350D02*
X-163500Y-14000D01*
X-152500D01*
X-93250Y21000D02*
X-92500D01*
X-100734Y27016D02*
Y38249D01*
X-107500Y21000D02*
X-106750D01*
X-100734Y27016D01*
X-122500Y34000D02*
X-107500D01*
X-107500Y34000D01*
X-133250Y31000D02*
X-123250Y21000D01*
X-137500Y34000D02*
X-134500Y31000D01*
X-123250Y21000D02*
X-122500D01*
X-134500Y31000D02*
X-133250D01*
X-136000Y35500D02*
Y40903D01*
X-137500Y34000D02*
X-136000Y35500D01*
X129521Y58000D02*
X135015D01*
X134515Y72500D02*
X137016Y69999D01*
Y60001D02*
Y69999D01*
X135015Y58000D02*
X137016Y60001D01*
X5750Y30000D02*
X10000D01*
X1500Y25750D02*
X5750Y30000D01*
X1500Y25000D02*
Y25750D01*
X74515Y72500D02*
X77016Y75001D01*
Y84999D01*
X129000Y109000D02*
X134516Y103484D01*
X155000Y72500D02*
X167500Y60000D01*
X155000Y72500D02*
Y105351D01*
X151351Y109000D02*
X155000Y105351D01*
X128000Y109000D02*
X151351D01*
X84000Y111000D02*
X85000Y110000D01*
X101000D01*
X84000Y111000D02*
Y112000D01*
X114000Y95000D02*
Y110000D01*
X77984Y70484D02*
X81000Y73500D01*
Y77000D01*
X84000Y80000D01*
X77984Y60001D02*
Y70484D01*
X69000Y14000D02*
X83500Y-500D01*
X52500Y1000D02*
X68000D01*
X114000Y95000D02*
X126500D01*
X128000Y93500D01*
X163308Y-12500D02*
X167500Y-8308D01*
X162500Y-12500D02*
X163308D01*
X157500Y65000D02*
X162500Y60000D01*
X144000Y65000D02*
X157500D01*
X144000Y80000D02*
X144000Y80000D01*
X144000Y65000D02*
Y80000D01*
X131000Y80750D02*
X143500Y93250D01*
Y97500D02*
X146000Y100000D01*
X147000D01*
X131000Y80000D02*
Y80750D01*
X143500Y93250D02*
Y97500D01*
X101000Y94250D02*
Y95000D01*
X77984Y60001D02*
X81789Y56196D01*
Y52211D02*
Y56196D01*
Y52211D02*
X84000Y50000D01*
X74000Y59719D02*
Y62000D01*
X71000Y65000D02*
X74000Y62000D01*
Y59719D02*
X77016Y56703D01*
Y45001D02*
Y56703D01*
X85887Y26079D02*
X92828D01*
X101000Y34250D01*
X85809Y26000D02*
X85887Y26079D01*
X85970Y32500D02*
X93312D01*
X94484Y33672D01*
Y39499D01*
X72015Y40000D02*
X77016Y45001D01*
X69000Y40000D02*
X72015D01*
X68000Y39000D02*
X69000Y40000D01*
X81297Y47297D02*
X84000Y50000D01*
X75000Y33672D02*
Y38000D01*
X81297Y44297D02*
Y47297D01*
X75000Y38000D02*
X81297Y44297D01*
X73828Y32500D02*
X75000Y33672D01*
X68000Y32500D02*
X73828D01*
X98500Y7500D02*
X101000Y5000D01*
X87000Y7500D02*
X98500D01*
X70500Y-7000D02*
X73500Y-10000D01*
X69000Y1000D02*
X70500Y-500D01*
Y-7000D02*
Y-500D01*
X83500Y-6485D02*
Y-500D01*
X68000Y14000D02*
X69000D01*
X68000Y16500D02*
X69000D01*
X83500Y-6485D02*
X86500Y-9485D01*
X114000Y65000D02*
X114000Y65000D01*
X114000Y50000D02*
Y65000D01*
Y49250D02*
Y50000D01*
X107625Y42875D02*
X114000Y49250D01*
X97859Y42875D02*
X107625D01*
X94484Y39499D02*
X97859Y42875D01*
X101000Y34250D02*
Y35000D01*
X114000Y20000D02*
X125000D01*
X101000D02*
Y20750D01*
X129500Y-19400D02*
X130250Y-20150D01*
X127378Y-17500D02*
X129278Y-19400D01*
X107500Y-14515D02*
X110485Y-17500D01*
X127378D01*
X130250Y-20900D02*
Y-20150D01*
X129278Y-19400D02*
X129500D01*
X107500Y-14515D02*
Y-5485D01*
X105249Y-3234D02*
X107500Y-5485D01*
X96751Y-3234D02*
X105249D01*
X93500Y-6485D02*
X96751Y-3234D01*
X89500Y-6485D02*
X93500D01*
X86500Y-9485D02*
X89500Y-6485D01*
X114000Y-9250D02*
Y5000D01*
Y-9250D02*
X117000Y-6250D01*
X117750D02*
X119900Y-4100D01*
X114000Y-10000D02*
Y-9250D01*
X117000Y-6250D02*
X117750D01*
X119900Y-4100D02*
X130250D01*
X114000Y5000D02*
X114000Y5000D01*
X149750Y-20900D02*
Y-20150D01*
X153516Y-16384D01*
Y-765D01*
X152335Y416D02*
X153516Y-765D01*
X130250Y-3350D02*
X134016Y416D01*
X152335D01*
X130250Y-4100D02*
Y-3350D01*
D19*
X9000Y225000D02*
D03*
X-4000D02*
D03*
X-33500D02*
D03*
X-46500D02*
D03*
X-9000Y70000D02*
D03*
X4000D02*
D03*
X4056Y82719D02*
D03*
X-8945D02*
D03*
X1500Y40000D02*
D03*
X-11500D02*
D03*
X173500Y-107500D02*
D03*
X186500D02*
D03*
X111500Y-102500D02*
D03*
X98500D02*
D03*
X136500Y145000D02*
D03*
X123500D02*
D03*
X173500Y125000D02*
D03*
X186500D02*
D03*
X173500Y140000D02*
D03*
X186500D02*
D03*
X188500Y95000D02*
D03*
X201500D02*
D03*
X188500Y110000D02*
D03*
X201500D02*
D03*
X-83500Y-60000D02*
D03*
X-96500D02*
D03*
X-116500Y100000D02*
D03*
X-103500D02*
D03*
X-138500Y67500D02*
D03*
X-151500D02*
D03*
X211500Y-90000D02*
D03*
X198500D02*
D03*
X158500Y-165000D02*
D03*
X171500D02*
D03*
X-141000Y-45000D02*
D03*
X-154000D02*
D03*
X-141000Y-30000D02*
D03*
X-154000D02*
D03*
X114000Y80000D02*
D03*
X101000D02*
D03*
X114000Y20000D02*
D03*
X101000D02*
D03*
X131000Y65000D02*
D03*
X144000D02*
D03*
X131000Y80000D02*
D03*
X144000D02*
D03*
X1500Y25000D02*
D03*
X-11500D02*
D03*
X136500Y160000D02*
D03*
X123500D02*
D03*
X123500Y175000D02*
D03*
X136500D02*
D03*
X123500Y190000D02*
D03*
X136500D02*
D03*
X166500Y170000D02*
D03*
X153500D02*
D03*
X166500Y155000D02*
D03*
X153500D02*
D03*
X136500Y130000D02*
D03*
X123500D02*
D03*
X114000Y5000D02*
D03*
X101000D02*
D03*
X73500Y-10000D02*
D03*
X86500D02*
D03*
X114000Y95000D02*
D03*
X101000D02*
D03*
X114000Y110000D02*
D03*
X101000D02*
D03*
X114000Y35000D02*
D03*
X101000D02*
D03*
X84000Y50000D02*
D03*
X71000D02*
D03*
X71000Y80000D02*
D03*
X84000D02*
D03*
X101000Y50000D02*
D03*
X114000D02*
D03*
X114000Y65000D02*
D03*
X101000D02*
D03*
X84000D02*
D03*
X71000D02*
D03*
X101000Y-10000D02*
D03*
X114000D02*
D03*
X138500Y-87500D02*
D03*
X151500D02*
D03*
X-28500Y-45000D02*
D03*
X-41500D02*
D03*
X151500Y-102500D02*
D03*
X138500D02*
D03*
X-11500Y-5000D02*
D03*
X1500D02*
D03*
D21*
X83520Y-45500D02*
D03*
X88520D02*
D03*
X83520Y-74500D02*
D03*
X88520D02*
D03*
D22*
X76520Y-67500D02*
D03*
Y-62500D02*
D03*
Y-57500D02*
D03*
Y-52500D02*
D03*
D25*
X184786Y-90000D02*
D03*
X175214D02*
D03*
X104786Y-132500D02*
D03*
X95214D02*
D03*
X74786D02*
D03*
X65214D02*
D03*
X44786D02*
D03*
X35214D02*
D03*
X14786D02*
D03*
X5214D02*
D03*
X102714Y-25000D02*
D03*
X112286D02*
D03*
X-60214Y-60000D02*
D03*
X-69786D02*
D03*
X-119786D02*
D03*
X-110214D02*
D03*
X7286Y210000D02*
D03*
X-2286D02*
D03*
X-35214Y210000D02*
D03*
X-44786D02*
D03*
X-140214Y52500D02*
D03*
X-149786D02*
D03*
X7714Y142500D02*
D03*
X17286D02*
D03*
X7714Y127500D02*
D03*
X17286D02*
D03*
X-2714D02*
D03*
X-12286D02*
D03*
X-55214Y195000D02*
D03*
X-64786D02*
D03*
X-55214Y210000D02*
D03*
X-64786D02*
D03*
X-77714D02*
D03*
X-87286D02*
D03*
X7286Y195000D02*
D03*
X-2286D02*
D03*
X-44786D02*
D03*
X-35214D02*
D03*
X80214Y-25000D02*
D03*
X89786D02*
D03*
D26*
X-145000Y-84786D02*
D03*
Y-75214D02*
D03*
X-152500Y15214D02*
D03*
Y24786D02*
D03*
X-120000Y179786D02*
D03*
Y170214D02*
D03*
X75000Y204786D02*
D03*
Y195214D02*
D03*
X-65000Y122714D02*
D03*
Y132286D02*
D03*
X37500Y-77714D02*
D03*
Y-87286D02*
D03*
X-12500Y-77714D02*
D03*
Y-87286D02*
D03*
D32*
X25000Y-5000D02*
D03*
Y15000D02*
D03*
Y40000D02*
D03*
Y60000D02*
D03*
D34*
X130250Y-4100D02*
D03*
X136750D02*
D03*
X143250D02*
D03*
X149750D02*
D03*
Y-20900D02*
D03*
X143250D02*
D03*
X136750D02*
D03*
X130250D02*
D03*
D43*
X2500Y-161500D02*
D03*
Y-148500D02*
D03*
X32500Y-161500D02*
D03*
Y-148500D02*
D03*
X107500Y-161500D02*
D03*
Y-148500D02*
D03*
X62500Y-148500D02*
D03*
Y-161500D02*
D03*
X77500Y-161500D02*
D03*
Y-148500D02*
D03*
X47500D02*
D03*
Y-161500D02*
D03*
X-107500Y66500D02*
D03*
Y53500D02*
D03*
X160000Y126000D02*
D03*
Y139000D02*
D03*
X52500Y-48500D02*
D03*
Y-61500D02*
D03*
X17500Y-161500D02*
D03*
Y-148500D02*
D03*
X92500Y-161500D02*
D03*
Y-148500D02*
D03*
X-92500Y-6500D02*
D03*
Y6500D02*
D03*
X-152500Y-14000D02*
D03*
Y-1000D02*
D03*
X-122500Y53500D02*
D03*
Y66500D02*
D03*
X-107500Y21000D02*
D03*
Y34000D02*
D03*
X-122500Y34000D02*
D03*
Y21000D02*
D03*
X-107500Y6500D02*
D03*
Y-6500D02*
D03*
X-92500Y21000D02*
D03*
Y34000D02*
D03*
X-137500Y-1000D02*
D03*
Y-14000D02*
D03*
Y34000D02*
D03*
Y21000D02*
D03*
X-80000Y121000D02*
D03*
Y134000D02*
D03*
X-92500Y53500D02*
D03*
Y66500D02*
D03*
X175000Y-131000D02*
D03*
Y-144000D02*
D03*
X-77500Y6500D02*
D03*
Y-6500D02*
D03*
Y34000D02*
D03*
Y21000D02*
D03*
X-62500Y-6500D02*
D03*
Y6500D02*
D03*
X-47500Y6500D02*
D03*
Y-6500D02*
D03*
X-110000Y121000D02*
D03*
Y134000D02*
D03*
X-65000Y159000D02*
D03*
Y146000D02*
D03*
X85000Y158500D02*
D03*
Y171500D02*
D03*
X-150000Y168500D02*
D03*
Y181500D02*
D03*
X-135000Y181500D02*
D03*
Y168500D02*
D03*
X90000Y206500D02*
D03*
Y193500D02*
D03*
X105000Y206500D02*
D03*
Y193500D02*
D03*
X-77500Y53500D02*
D03*
Y66500D02*
D03*
X-95000Y134000D02*
D03*
Y121000D02*
D03*
X110000Y144000D02*
D03*
Y131000D02*
D03*
X40000Y81000D02*
D03*
Y94000D02*
D03*
X55000Y81000D02*
D03*
Y94000D02*
D03*
X52500Y1000D02*
D03*
Y14000D02*
D03*
X5000Y-36500D02*
D03*
Y-23500D02*
D03*
X20000Y-23500D02*
D03*
Y-36500D02*
D03*
X37500Y-48500D02*
D03*
Y-61500D02*
D03*
X52500Y-89000D02*
D03*
Y-76000D02*
D03*
X-12500Y-66500D02*
D03*
Y-53500D02*
D03*
X-90000Y-23500D02*
D03*
Y-36500D02*
D03*
D45*
X152500Y-70000D02*
D03*
X127500D02*
D03*
D74*
X153500Y155000D02*
Y170000D01*
X122750Y175000D02*
X130016Y167734D01*
X7286Y127714D02*
Y142500D01*
X-12355Y-77860D02*
X2855D01*
X170415Y-85414D02*
X175000Y-90000D01*
X170415Y-85414D02*
Y-85307D01*
X165000Y-79893D02*
X170415Y-85307D01*
X84250Y158500D02*
X96500D01*
X98500Y160500D02*
Y161500D01*
X99000Y162000D01*
X96500Y158500D02*
X98500Y160500D01*
X50000Y125000D02*
X55000Y120000D01*
X50000Y125000D02*
Y160743D01*
X54257Y165000D02*
X60000D01*
X50000Y160743D02*
X54257Y165000D01*
X60000D02*
X62000Y167000D01*
Y175500D02*
X62500Y176000D01*
X62000Y167000D02*
Y175500D01*
X159257Y139743D02*
Y145743D01*
X153500Y155000D02*
X156000Y152500D01*
X159257Y139743D02*
X160000Y139000D01*
X156000Y149000D02*
X159257Y145743D01*
X156000Y149000D02*
Y152500D01*
X122500Y175000D02*
X122750D01*
X151234Y167734D02*
X153500Y170000D01*
X130016Y167734D02*
X151234D01*
X87500Y-57500D02*
Y-56959D01*
X88520Y-55939D01*
Y-45500D02*
Y-39520D01*
Y-55939D02*
Y-45500D01*
X7286Y195000D02*
Y210000D01*
X105000Y180500D02*
X114500Y190000D01*
X105000Y179500D02*
Y180500D01*
X114500Y190000D02*
X123500D01*
X104250Y193500D02*
X105000D01*
X-184330Y106001D02*
X-182272Y108694D01*
X-194172Y92940D02*
X-184330Y106001D01*
X-196178Y92120D02*
X-194172Y92940D01*
X-161641Y136034D02*
X-153024Y147468D01*
X-163699Y133341D02*
X-161641Y136034D01*
X-153024Y147468D02*
X-151752Y148841D01*
X-169667Y142082D02*
X-161050Y153516D01*
X-160080Y155118D01*
X-171687Y139360D02*
X-169667Y142082D01*
X2855Y-77860D02*
X3000Y-78005D01*
X-12500Y-77714D02*
X-12355Y-77860D01*
X22000Y-78005D02*
X22145Y-77860D01*
X-60214Y-75057D02*
X-59521Y-75750D01*
X-59500D01*
X-60214Y-75057D02*
Y-60000D01*
X-120478Y-75750D02*
X-119786Y-75057D01*
X-120500Y-75750D02*
X-120478D01*
X-119786Y-75057D02*
Y-60000D01*
X-145000Y-85000D02*
X-141250Y-88750D01*
X-120500D01*
X-145000Y-85000D02*
Y-84786D01*
X7286Y127714D02*
X7500Y127500D01*
X-50000Y184000D02*
X-49500Y184500D01*
X-44786Y188714D02*
Y209786D01*
X-49500Y184500D02*
X-49000D01*
X-44786Y188714D01*
X-45000Y210000D02*
X-44786Y209786D01*
X-55000Y188500D02*
Y210000D01*
Y188500D02*
X-50500Y184000D01*
X-50000D01*
X82291Y-33291D02*
X88520Y-39520D01*
X82291Y-33291D02*
Y-26862D01*
X80429Y-25000D02*
X82291Y-26862D01*
X80214Y-25000D02*
X80429D01*
D81*
X200000Y-73050D02*
D03*
Y73050D02*
D03*
X-200000Y-73050D02*
D03*
Y73050D02*
D03*
X200000Y-73050D02*
D03*
Y73050D02*
D03*
X-200000Y-73050D02*
D03*
Y73050D02*
D03*
D82*
X-65000Y-30000D02*
D03*
D83*
X-115000D02*
D03*
D84*
X-145000Y-130000D02*
D03*
X-35000D02*
D03*
D85*
X-155143Y82072D02*
D03*
X-165286Y89715D02*
D03*
X-147500Y92214D02*
D03*
X-157643Y99857D02*
D03*
X-139857Y102357D02*
D03*
X-150000Y110000D02*
D03*
X-132214Y112500D02*
D03*
X-142357Y120143D02*
D03*
X-124571Y122642D02*
D03*
D86*
X-134714Y130285D02*
D03*
D87*
X-12500Y235000D02*
D03*
X27500Y210000D02*
D03*
X60000Y215000D02*
D03*
X40000Y-177500D02*
D03*
X-60000Y24000D02*
D03*
X-7500Y-110000D02*
D03*
X10000Y72500D02*
D03*
X-2500Y92500D02*
D03*
X-17500D02*
D03*
X40000Y-102500D02*
D03*
X-100000Y197500D02*
D03*
X140000Y-142500D02*
D03*
X127500D02*
D03*
X-7000Y-126000D02*
D03*
X77500Y-144500D02*
D03*
X51250D02*
D03*
X47500Y-180000D02*
D03*
X45000Y-172500D02*
D03*
X0Y-175000D02*
D03*
X211500Y-90000D02*
D03*
X-45000Y35000D02*
D03*
X-46984Y122500D02*
D03*
X-65000Y90000D02*
D03*
X-40000Y130000D02*
D03*
X-47500Y137500D02*
D03*
X165000Y-79893D02*
D03*
X-41136Y-50114D02*
D03*
X-41000Y-70000D02*
D03*
X100000Y130000D02*
D03*
X82500Y132500D02*
D03*
X-37500Y145000D02*
D03*
X-15000Y150000D02*
D03*
Y167500D02*
D03*
X7500D02*
D03*
X-47500Y130000D02*
D03*
X-185000Y85000D02*
D03*
X-47500Y-10000D02*
D03*
X-27500D02*
D03*
X25000Y-9786D02*
D03*
Y35000D02*
D03*
X-27500Y37500D02*
D03*
X-241000Y42000D02*
D03*
X-245000Y0D02*
D03*
X-242500Y22500D02*
D03*
X-215000Y87500D02*
D03*
X-210000Y122500D02*
D03*
X-25000D02*
D03*
X-10000Y202500D02*
D03*
X-27500D02*
D03*
X-32500Y180000D02*
D03*
X-5000Y235000D02*
D03*
X120000Y-110000D02*
D03*
X-182500Y-90000D02*
D03*
X-190000Y-127500D02*
D03*
X-102500Y-82500D02*
D03*
X-82500Y-127500D02*
D03*
X-40000Y90000D02*
D03*
X-72500D02*
D03*
X-153000Y2000D02*
D03*
X-148000Y7000D02*
D03*
X-142198Y9930D02*
D03*
X-153076Y37940D02*
D03*
X148000Y140000D02*
D03*
X145000Y120000D02*
D03*
X-106000Y66000D02*
D03*
X-3965Y-45964D02*
D03*
X99000Y162000D02*
D03*
X-97250Y66000D02*
D03*
X-113000Y190048D02*
D03*
X40000Y192500D02*
D03*
X-100000Y157500D02*
D03*
X-99500Y100000D02*
D03*
X-99952Y147741D02*
D03*
X70000Y165000D02*
D03*
Y157500D02*
D03*
Y135000D02*
D03*
X77500Y27500D02*
D03*
X22500Y70000D02*
D03*
X-120000Y170000D02*
D03*
X-135000Y150000D02*
D03*
X71000Y80000D02*
D03*
X60000Y130214D02*
D03*
X93000Y115000D02*
D03*
X149894Y156263D02*
D03*
X15000Y157500D02*
D03*
X146000Y127000D02*
D03*
X-77500Y209968D02*
D03*
X140500Y159500D02*
D03*
X177500Y167500D02*
D03*
X180000Y151000D02*
D03*
X94722Y193500D02*
D03*
X-196178Y92120D02*
D03*
X160000Y100214D02*
D03*
X2500Y235000D02*
D03*
X122000Y65000D02*
D03*
X122500Y82500D02*
D03*
X110000Y30000D02*
D03*
X62500Y-37500D02*
D03*
X-160000Y-104786D02*
D03*
X-40000Y180000D02*
D03*
X10000Y235000D02*
D03*
X157500Y182500D02*
D03*
X173500Y140000D02*
D03*
X162500Y-5000D02*
D03*
X75000Y-99750D02*
D03*
X71984Y-92500D02*
D03*
X87500Y-57500D02*
D03*
X117500Y-50000D02*
D03*
X70000Y-39602D02*
D03*
X40000Y182500D02*
D03*
X39984Y162500D02*
D03*
Y172500D02*
D03*
X92500Y-35000D02*
D03*
X120000Y-102500D02*
D03*
X-75064Y162500D02*
D03*
Y172500D02*
D03*
Y152500D02*
D03*
X-97250Y-6500D02*
D03*
X-24500Y-45000D02*
D03*
X-40000Y122500D02*
D03*
X-15000Y210000D02*
D03*
X-22500D02*
D03*
X-75000Y202500D02*
D03*
Y195000D02*
D03*
Y187500D02*
D03*
Y180000D02*
D03*
X100000Y-35000D02*
D03*
X55000Y120000D02*
D03*
X15000Y167500D02*
D03*
Y185000D02*
D03*
Y177500D02*
D03*
X-102500Y-132500D02*
D03*
Y-125000D02*
D03*
Y-115000D02*
D03*
Y-100000D02*
D03*
Y-107500D02*
D03*
X160000Y-95000D02*
D03*
X-25000Y-72500D02*
D03*
X20000Y100000D02*
D03*
Y92500D02*
D03*
X-32500Y122500D02*
D03*
Y92500D02*
D03*
X-10000D02*
D03*
X44000Y107500D02*
D03*
X-25000Y92500D02*
D03*
X-127500D02*
D03*
X-128000Y78000D02*
D03*
X-138000D02*
D03*
X-107500Y42500D02*
D03*
X-127500Y2500D02*
D03*
X-136000Y5903D02*
D03*
X-100000Y167500D02*
D03*
X-188968Y135000D02*
D03*
X-181980Y124027D02*
D03*
X-174000Y115000D02*
D03*
X-166980Y114027D02*
D03*
X-172949Y130565D02*
D03*
X-181000Y135000D02*
D03*
X-159480Y116527D02*
D03*
X-166980Y121527D02*
D03*
X7286Y210000D02*
D03*
X145000Y145000D02*
D03*
X-62500Y-6500D02*
D03*
X-162500Y-147500D02*
D03*
Y-140000D02*
D03*
X-20000Y40000D02*
D03*
X-127500Y45000D02*
D03*
X176500Y109500D02*
D03*
X173500Y125000D02*
D03*
X105000Y206250D02*
D03*
X148000Y189500D02*
D03*
Y180500D02*
D03*
X213000Y90500D02*
D03*
Y99500D02*
D03*
X198000Y120500D02*
D03*
Y129500D02*
D03*
X178000Y159500D02*
D03*
X-160080Y155118D02*
D03*
X-151752Y148841D02*
D03*
X-135000Y158750D02*
D03*
X-20000Y-5000D02*
D03*
X-13500Y-55000D02*
D03*
X52125Y-61500D02*
D03*
X52500Y-76000D02*
D03*
X351Y-78005D02*
D03*
X164914Y-87585D02*
D03*
X-119786Y-60000D02*
D03*
X-60214D02*
D03*
X-50000Y172500D02*
D03*
X-65000Y122500D02*
D03*
X-2714Y127500D02*
D03*
X7500D02*
D03*
X-45000Y210000D02*
D03*
X-55000D02*
D03*
X-145000Y78000D02*
D03*
X-162000Y70000D02*
D03*
X-141000Y-30000D02*
D03*
X-152500Y12500D02*
D03*
X-127500Y10000D02*
D03*
X-136000Y40903D02*
D03*
X-142198Y44930D02*
D03*
X-148000Y42000D02*
D03*
X-127500Y37500D02*
D03*
X-152500Y47500D02*
D03*
X131000Y65000D02*
D03*
X10000Y30000D02*
D03*
X25000Y15000D02*
D03*
Y60000D02*
D03*
X162500Y-12500D02*
D03*
X112286Y-25000D02*
D03*
X-135000Y191250D02*
D03*
X-5000Y55000D02*
D03*
X0Y50000D02*
D03*
Y60000D02*
D03*
X-10000D02*
D03*
Y50000D02*
D03*
X-5000Y10000D02*
D03*
X0Y5000D02*
D03*
Y15000D02*
D03*
X-10000D02*
D03*
Y5000D02*
D03*
D88*
X200000Y-107500D02*
D03*
X162500Y80000D02*
D03*
D89*
X140000Y45000D02*
D03*
D90*
X186350Y-57150D02*
D03*
X213650D02*
D03*
Y-44450D02*
D03*
X186350D02*
D03*
Y-31750D02*
D03*
X213650D02*
D03*
Y-19050D02*
D03*
X186350D02*
D03*
Y-6350D02*
D03*
X213650D02*
D03*
Y6350D02*
D03*
X186350D02*
D03*
Y19050D02*
D03*
X213650D02*
D03*
Y31750D02*
D03*
X186350D02*
D03*
Y44450D02*
D03*
X213650D02*
D03*
Y57150D02*
D03*
X186350D02*
D03*
X-213650D02*
D03*
X-186350D02*
D03*
Y44450D02*
D03*
X-213650D02*
D03*
Y31750D02*
D03*
X-186350D02*
D03*
Y19050D02*
D03*
X-213650D02*
D03*
Y6350D02*
D03*
X-186350D02*
D03*
Y-6350D02*
D03*
X-213650D02*
D03*
Y-19050D02*
D03*
X-186350D02*
D03*
Y-31750D02*
D03*
X-213650D02*
D03*
Y-44450D02*
D03*
X-186350D02*
D03*
Y-57150D02*
D03*
X-213650D02*
D03*
D91*
X-97750Y122500D02*
X-94894D01*
X-110000Y134000D02*
X-109250D01*
X-126862D02*
X-110000D01*
X-100928Y125678D02*
Y125678D01*
X-107750Y132500D02*
X-100928Y125678D01*
X-107750Y132500D02*
Y132500D01*
X-100928Y125678D02*
X-97750Y122500D01*
X-94894D02*
X-94542Y122148D01*
X-109250Y134000D02*
X-107750Y132500D01*
X-130577Y130285D02*
X-126862Y134000D01*
X-134714Y130285D02*
X-130577D01*
X-65643Y121857D02*
X-65000Y122500D01*
X-79143Y121857D02*
X-65643D01*
X-80000Y121000D02*
X-79143Y121857D01*
X-95000Y121000D02*
X-80000D01*
D92*
X190000Y-125000D02*
X199760Y-115240D01*
Y-107740D02*
X200000Y-107500D01*
X158000Y-125000D02*
X190000D01*
X199760Y-115240D02*
Y-107740D01*
D94*
X-232890Y65873D02*
D03*
D95*
X16600Y-120000D02*
D03*
X3400D02*
D03*
X46600D02*
D03*
X33400D02*
D03*
X76600D02*
D03*
X63400D02*
D03*
X106600D02*
D03*
X93400D02*
D03*
X111600Y-87500D02*
D03*
X98400D02*
D03*
D96*
X-120500Y-134250D02*
D03*
Y-127750D02*
D03*
Y-121250D02*
D03*
Y-114750D02*
D03*
Y-108250D02*
D03*
Y-101750D02*
D03*
Y-95250D02*
D03*
Y-88750D02*
D03*
Y-82250D02*
D03*
Y-75750D02*
D03*
X-59500Y-134250D02*
D03*
Y-127750D02*
D03*
Y-121250D02*
D03*
Y-114750D02*
D03*
Y-108250D02*
D03*
Y-101750D02*
D03*
Y-95250D02*
D03*
Y-88750D02*
D03*
Y-82250D02*
D03*
Y-75750D02*
D03*
D97*
X69000Y176000D02*
D03*
X62500D02*
D03*
X56000D02*
D03*
Y154000D02*
D03*
X62500D02*
D03*
X69000D02*
D03*
D98*
X163500Y109500D02*
D03*
X176500D02*
D03*
X170000Y90500D02*
D03*
X105000Y179500D02*
D03*
X98500Y160500D02*
D03*
X111500D02*
D03*
D99*
X-196178Y92120D02*
D03*
X-203822Y97880D02*
D03*
X-151752Y148841D02*
D03*
X-144108Y143081D02*
D03*
X-160080Y155118D02*
D03*
X-167724Y160878D02*
D03*
D100*
X132000Y-115500D02*
D03*
Y-125000D02*
D03*
Y-134500D02*
D03*
X158000D02*
D03*
Y-125000D02*
D03*
Y-115500D02*
D03*
D101*
X87000Y7500D02*
D03*
X68000Y14000D02*
D03*
Y1000D02*
D03*
X128000Y96000D02*
D03*
Y109000D02*
D03*
X147000Y102500D02*
D03*
X35500Y-36500D02*
D03*
Y-23500D02*
D03*
X54500Y-30000D02*
D03*
D102*
X140000Y15000D02*
D03*
D103*
Y-40000D02*
D03*
D104*
X-179676Y145380D02*
D03*
X-175682Y142370D02*
D03*
X-171687Y139360D02*
D03*
X-167693Y136351D02*
D03*
X-163699Y133341D02*
D03*
X-159705Y130331D02*
D03*
X-155711Y127321D02*
D03*
X-174283Y102674D02*
D03*
X-178277Y105684D02*
D03*
X-182272Y108694D02*
D03*
X-186266Y111704D02*
D03*
X-190260Y114714D02*
D03*
X-194254Y117724D02*
D03*
X-198248Y120733D02*
D03*
D105*
X-50000Y176000D02*
D03*
Y184000D02*
D03*
D106*
X71000Y112000D02*
D03*
X77500D02*
D03*
X84000D02*
D03*
Y93000D02*
D03*
X77500D02*
D03*
X71000D02*
D03*
X-28500Y-63000D02*
D03*
X-35000D02*
D03*
X-41500D02*
D03*
Y-82000D02*
D03*
X-35000D02*
D03*
X-28500D02*
D03*
D107*
X68000Y26000D02*
D03*
Y32500D02*
D03*
Y39000D02*
D03*
X87000D02*
D03*
Y32500D02*
D03*
Y26000D02*
D03*
D108*
X103480Y-63180D02*
D03*
Y-66990D02*
D03*
Y-56990D02*
D03*
Y-53180D02*
D03*
D109*
X3000Y-56995D02*
D03*
D110*
X12500D02*
D03*
X22000D02*
D03*
Y-78005D02*
D03*
X12500D02*
D03*
X3000D02*
D03*
D111*
X-8650Y-25000D02*
D03*
X-41350D02*
D03*
D112*
X213650Y-57150D02*
D03*
Y-44450D02*
D03*
Y-31750D02*
D03*
Y-19050D02*
D03*
Y-6350D02*
D03*
Y6350D02*
D03*
Y19050D02*
D03*
Y31750D02*
D03*
Y44450D02*
D03*
Y57150D02*
D03*
X186350Y-57150D02*
D03*
Y-44450D02*
D03*
Y-31750D02*
D03*
Y-19050D02*
D03*
Y-6350D02*
D03*
Y6350D02*
D03*
Y19050D02*
D03*
Y31750D02*
D03*
Y44450D02*
D03*
Y57150D02*
D03*
X-186350Y-57150D02*
D03*
Y-44450D02*
D03*
Y-31750D02*
D03*
Y-19050D02*
D03*
Y-6350D02*
D03*
Y6350D02*
D03*
Y19050D02*
D03*
Y31750D02*
D03*
Y44450D02*
D03*
Y57150D02*
D03*
X-213650Y-57150D02*
D03*
Y-44450D02*
D03*
Y-31750D02*
D03*
Y-19050D02*
D03*
Y-6350D02*
D03*
Y6350D02*
D03*
Y19050D02*
D03*
Y31750D02*
D03*
Y44450D02*
D03*
Y57150D02*
D03*
D113*
X103520Y-65000D02*
D03*
Y-55000D02*
D03*
M02*
