G04*
G04 #@! TF.GenerationSoftware,Altium Limited,Altium Designer,24.4.1 (13)*
G04*
G04 Layer_Color=8388736*
%FSLAX44Y44*%
%MOMM*%
G71*
G04*
G04 #@! TF.SameCoordinates,740DF4E5-9B0E-41A3-91D6-8293D7FF8DF9*
G04*
G04*
G04 #@! TF.FilePolarity,Negative*
G04*
G01*
G75*
%ADD17R,1.0000X2.7000*%
%ADD18R,0.6000X1.7000*%
%ADD23R,1.1938X0.3048*%
%ADD24R,0.3048X1.1938*%
%ADD25R,0.7154X0.6725*%
%ADD26R,0.6725X0.7154*%
%ADD27R,1.1400X0.5750*%
%ADD28R,1.4000X1.2000*%
G04:AMPARAMS|DCode=31|XSize=0.6mm|YSize=0.25mm|CornerRadius=0.05mm|HoleSize=0mm|Usage=FLASHONLY|Rotation=270.000|XOffset=0mm|YOffset=0mm|HoleType=Round|Shape=RoundedRectangle|*
%AMROUNDEDRECTD31*
21,1,0.6000,0.1500,0,0,270.0*
21,1,0.5000,0.2500,0,0,270.0*
1,1,0.1000,-0.0750,-0.2500*
1,1,0.1000,-0.0750,0.2500*
1,1,0.1000,0.0750,0.2500*
1,1,0.1000,0.0750,-0.2500*
%
%ADD31ROUNDEDRECTD31*%
%ADD32R,1.2500X1.0000*%
%ADD33R,1.4562X1.2546*%
%ADD34R,0.3500X0.5000*%
%ADD35R,0.5000X0.3500*%
%ADD36R,1.5000X1.0000*%
%ADD37R,1.0000X1.5000*%
G04:AMPARAMS|DCode=38|XSize=1.1mm|YSize=0.45mm|CornerRadius=0mm|HoleSize=0mm|Usage=FLASHONLY|Rotation=125.000|XOffset=0mm|YOffset=0mm|HoleType=Round|Shape=Rectangle|*
%AMROTATEDRECTD38*
4,1,4,0.4998,-0.3215,0.1312,-0.5796,-0.4998,0.3215,-0.1312,0.5796,0.4998,-0.3215,0.0*
%
%ADD38ROTATEDRECTD38*%

%ADD41R,1.5000X1.2000*%
%ADD42R,1.9300X1.6500*%
%ADD44R,1.5000X0.5500*%
%ADD45R,1.0000X1.8000*%
G04:AMPARAMS|DCode=50|XSize=1.1mm|YSize=0.95mm|CornerRadius=0.175mm|HoleSize=0mm|Usage=FLASHONLY|Rotation=90.000|XOffset=0mm|YOffset=0mm|HoleType=Round|Shape=RoundedRectangle|*
%AMROUNDEDRECTD50*
21,1,1.1000,0.6000,0,0,90.0*
21,1,0.7500,0.9500,0,0,90.0*
1,1,0.3500,0.3000,0.3750*
1,1,0.3500,0.3000,-0.3750*
1,1,0.3500,-0.3000,-0.3750*
1,1,0.3500,-0.3000,0.3750*
%
%ADD50ROUNDEDRECTD50*%
%ADD51R,3.0700X0.8900*%
%ADD52R,0.4500X1.0000*%
%ADD53R,1.0000X0.4500*%
%ADD54R,0.7500X1.3500*%
%ADD55R,0.9500X0.6500*%
G04:AMPARAMS|DCode=56|XSize=0.3mm|YSize=2.4mm|CornerRadius=0.0495mm|HoleSize=0mm|Usage=FLASHONLY|Rotation=270.000|XOffset=0mm|YOffset=0mm|HoleType=Round|Shape=RoundedRectangle|*
%AMROUNDEDRECTD56*
21,1,0.3000,2.3010,0,0,270.0*
21,1,0.2010,2.4000,0,0,270.0*
1,1,0.0990,-1.1505,-0.1005*
1,1,0.0990,-1.1505,0.1005*
1,1,0.0990,1.1505,0.1005*
1,1,0.0990,1.1505,-0.1005*
%
%ADD56ROUNDEDRECTD56*%
%ADD57C,0.2700*%
%ADD58C,0.2546*%
%ADD59C,0.2700*%
G04:AMPARAMS|DCode=60|XSize=0.4mm|YSize=0.75mm|CornerRadius=0.125mm|HoleSize=0mm|Usage=FLASHONLY|Rotation=90.000|XOffset=0mm|YOffset=0mm|HoleType=Round|Shape=RoundedRectangle|*
%AMROUNDEDRECTD60*
21,1,0.4000,0.5000,0,0,90.0*
21,1,0.1500,0.7500,0,0,90.0*
1,1,0.2500,0.2500,0.0750*
1,1,0.2500,0.2500,-0.0750*
1,1,0.2500,-0.2500,-0.0750*
1,1,0.2500,-0.2500,0.0750*
%
%ADD60ROUNDEDRECTD60*%
G04:AMPARAMS|DCode=61|XSize=0.4mm|YSize=0.75mm|CornerRadius=0.125mm|HoleSize=0mm|Usage=FLASHONLY|Rotation=0.000|XOffset=0mm|YOffset=0mm|HoleType=Round|Shape=RoundedRectangle|*
%AMROUNDEDRECTD61*
21,1,0.4000,0.5000,0,0,0.0*
21,1,0.1500,0.7500,0,0,0.0*
1,1,0.2500,0.0750,-0.2500*
1,1,0.2500,-0.0750,-0.2500*
1,1,0.2500,-0.0750,0.2500*
1,1,0.2500,0.0750,0.2500*
%
%ADD61ROUNDEDRECTD61*%
G04:AMPARAMS|DCode=62|XSize=1.85mm|YSize=1.85mm|CornerRadius=0.126mm|HoleSize=0mm|Usage=FLASHONLY|Rotation=0.000|XOffset=0mm|YOffset=0mm|HoleType=Round|Shape=RoundedRectangle|*
%AMROUNDEDRECTD62*
21,1,1.8500,1.5980,0,0,0.0*
21,1,1.5980,1.8500,0,0,0.0*
1,1,0.2520,0.7990,-0.7990*
1,1,0.2520,-0.7990,-0.7990*
1,1,0.2520,-0.7990,0.7990*
1,1,0.2520,0.7990,0.7990*
%
%ADD62ROUNDEDRECTD62*%
G04:AMPARAMS|DCode=63|XSize=1.1mm|YSize=0.95mm|CornerRadius=0.175mm|HoleSize=0mm|Usage=FLASHONLY|Rotation=0.000|XOffset=0mm|YOffset=0mm|HoleType=Round|Shape=RoundedRectangle|*
%AMROUNDEDRECTD63*
21,1,1.1000,0.6000,0,0,0.0*
21,1,0.7500,0.9500,0,0,0.0*
1,1,0.3500,0.3750,-0.3000*
1,1,0.3500,-0.3750,-0.3000*
1,1,0.3500,-0.3750,0.3000*
1,1,0.3500,0.3750,0.3000*
%
%ADD63ROUNDEDRECTD63*%
%ADD64R,0.9500X1.4500*%
%ADD65R,0.9500X1.4500*%
%ADD66R,0.9500X1.4500*%
%ADD67R,0.9500X1.4500*%
%ADD68C,1.5500*%
%ADD69R,2.7000X2.7000*%
%ADD70C,2.7000*%
%ADD71C,1.6580*%
%ADD72C,1.2100*%
%ADD73P,1.7112X4X98.0*%
G36*
X-132000Y72000D02*
X-131901D01*
X-131717Y71924D01*
X-131576Y71783D01*
X-131500Y71599D01*
Y71500D01*
X-131500Y71500D01*
Y68500D01*
X-128500Y68500D01*
X-128401D01*
X-128217Y68424D01*
X-128076Y68283D01*
X-128000Y68099D01*
Y68000D01*
X-128000Y68000D01*
X-128000Y66500D01*
X-128000Y66400D01*
X-128076Y66217D01*
X-128217Y66076D01*
X-128401Y66000D01*
X-128500Y66000D01*
X-128500D01*
X-134000Y66000D01*
X-134100Y66000D01*
X-134283Y66076D01*
X-134424Y66217D01*
X-134500Y66401D01*
X-134500Y66500D01*
X-134500Y66500D01*
Y71500D01*
X-134500Y71599D01*
X-134424Y71783D01*
X-134283Y71924D01*
X-134100Y72000D01*
X-134000Y72000D01*
Y72000D01*
X-132000Y72000D01*
D02*
G37*
G36*
X-145717Y71924D02*
X-145576Y71783D01*
X-145500Y71599D01*
X-145500Y71500D01*
X-145500Y66500D01*
X-145500Y66500D01*
X-145500Y66400D01*
X-145576Y66217D01*
X-145717Y66076D01*
X-145900Y66000D01*
X-146000Y66000D01*
X-151500D01*
X-151600Y66000D01*
X-151783Y66076D01*
X-151924Y66217D01*
X-152000Y66400D01*
X-152000Y66500D01*
Y68000D01*
X-152000Y68099D01*
X-151924Y68283D01*
X-151783Y68424D01*
X-151600Y68500D01*
X-151500Y68500D01*
X-148500Y68500D01*
Y71500D01*
X-148500Y71599D01*
X-148424Y71783D01*
X-148283Y71924D01*
X-148099Y72000D01*
X-148000Y72000D01*
X-146000Y72000D01*
X-146000Y72000D01*
X-145900Y72000D01*
X-145717Y71924D01*
D02*
G37*
G36*
X-128217Y53924D02*
X-128076Y53783D01*
X-128000Y53599D01*
X-128000Y53500D01*
X-128000Y52000D01*
X-128000D01*
X-128000Y51901D01*
X-128076Y51717D01*
X-128217Y51576D01*
X-128401Y51500D01*
X-128500Y51500D01*
X-131500D01*
Y48500D01*
X-131500D01*
X-131500Y48401D01*
X-131576Y48217D01*
X-131717Y48076D01*
X-131901Y48000D01*
X-132000Y48000D01*
X-134000Y48000D01*
X-134100Y48000D01*
X-134283Y48076D01*
X-134424Y48217D01*
X-134500Y48401D01*
X-134500Y48500D01*
Y53500D01*
X-134500D01*
X-134500Y53599D01*
X-134424Y53783D01*
X-134283Y53924D01*
X-134100Y54000D01*
X-134000Y54000D01*
X-128500Y54000D01*
X-128500Y54000D01*
X-128401Y54000D01*
X-128217Y53924D01*
D02*
G37*
G36*
X-146000Y54000D02*
X-145901Y54000D01*
X-145717Y53924D01*
X-145576Y53783D01*
X-145500Y53599D01*
X-145500Y53500D01*
X-145500D01*
X-145500Y48500D01*
X-145500Y48401D01*
X-145576Y48217D01*
X-145717Y48076D01*
X-145900Y48000D01*
X-146000Y48000D01*
X-146000D01*
X-148000Y48000D01*
X-148099Y48000D01*
X-148283Y48076D01*
X-148424Y48217D01*
X-148500Y48401D01*
X-148500Y48500D01*
X-148500D01*
Y51500D01*
X-151500D01*
X-151600Y51500D01*
X-151783Y51576D01*
X-151924Y51717D01*
X-152000Y51901D01*
X-152000Y52000D01*
Y53500D01*
X-152000Y53599D01*
X-151924Y53783D01*
X-151783Y53924D01*
X-151600Y54000D01*
X-151500Y54000D01*
Y54000D01*
X-146000Y54000D01*
D02*
G37*
G36*
X-132000Y37000D02*
X-131901D01*
X-131717Y36924D01*
X-131576Y36783D01*
X-131500Y36599D01*
Y36500D01*
X-131500Y36500D01*
Y33500D01*
X-128500Y33500D01*
X-128401D01*
X-128217Y33424D01*
X-128076Y33283D01*
X-128000Y33099D01*
Y33000D01*
X-128000Y33000D01*
X-128000Y31500D01*
X-128000Y31400D01*
X-128076Y31217D01*
X-128217Y31076D01*
X-128401Y31000D01*
X-128500Y31000D01*
X-128500D01*
X-134000Y31000D01*
X-134100Y31000D01*
X-134283Y31076D01*
X-134424Y31217D01*
X-134500Y31400D01*
X-134500Y31500D01*
X-134500Y31500D01*
Y36500D01*
X-134500Y36599D01*
X-134424Y36783D01*
X-134283Y36924D01*
X-134100Y37000D01*
X-134000Y37000D01*
Y37000D01*
X-132000Y37000D01*
D02*
G37*
G36*
X-145717Y36924D02*
X-145576Y36783D01*
X-145500Y36599D01*
X-145500Y36500D01*
X-145500Y31500D01*
X-145500Y31500D01*
X-145500Y31400D01*
X-145576Y31217D01*
X-145717Y31076D01*
X-145901Y31000D01*
X-146000Y31000D01*
X-151500D01*
X-151600Y31000D01*
X-151783Y31076D01*
X-151924Y31217D01*
X-152000Y31400D01*
X-152000Y31500D01*
Y33000D01*
X-152000Y33100D01*
X-151924Y33283D01*
X-151783Y33424D01*
X-151600Y33500D01*
X-151500Y33500D01*
X-148500Y33500D01*
Y36500D01*
X-148500Y36599D01*
X-148424Y36783D01*
X-148283Y36924D01*
X-148099Y37000D01*
X-148000Y37000D01*
X-146000Y37000D01*
X-146000Y37000D01*
X-145901Y37000D01*
X-145717Y36924D01*
D02*
G37*
G36*
X97250Y62250D02*
X101400D01*
Y37750D01*
X97250D01*
Y33950D01*
X92950D01*
Y37750D01*
X81600D01*
Y38250D01*
X78600D01*
Y42250D01*
X81600D01*
Y44750D01*
X78600D01*
Y48750D01*
X81600D01*
Y51250D01*
X78600D01*
Y55250D01*
X81600D01*
Y57750D01*
X78600D01*
Y61750D01*
X81600D01*
Y62250D01*
X92950D01*
Y66050D01*
X97250D01*
Y62250D01*
D02*
G37*
G36*
X151750Y23400D02*
X152250D01*
Y12050D01*
X156050D01*
Y7750D01*
X152250D01*
Y3600D01*
X127750D01*
Y7750D01*
X123950D01*
Y12050D01*
X127750D01*
Y23400D01*
X128250D01*
Y26400D01*
X132250D01*
Y23400D01*
X134750D01*
Y26400D01*
X138750D01*
Y23400D01*
X141250D01*
Y26400D01*
X145250D01*
Y23400D01*
X147750D01*
Y26400D01*
X151750D01*
Y23400D01*
D02*
G37*
G36*
X-128217Y18924D02*
X-128076Y18783D01*
X-128000Y18599D01*
X-128000Y18500D01*
X-128000Y17000D01*
X-128000D01*
X-128000Y16901D01*
X-128076Y16717D01*
X-128217Y16576D01*
X-128401Y16500D01*
X-128500Y16500D01*
X-131500D01*
Y13500D01*
X-131500D01*
X-131500Y13400D01*
X-131576Y13217D01*
X-131717Y13076D01*
X-131901Y13000D01*
X-132000Y13000D01*
X-134000Y13000D01*
X-134100Y13000D01*
X-134283Y13076D01*
X-134424Y13217D01*
X-134500Y13400D01*
X-134500Y13500D01*
Y18500D01*
X-134500D01*
X-134500Y18599D01*
X-134424Y18783D01*
X-134283Y18924D01*
X-134100Y19000D01*
X-134000Y19000D01*
X-128500Y19000D01*
X-128500Y19000D01*
X-128401Y19000D01*
X-128217Y18924D01*
D02*
G37*
G36*
X-146000Y19000D02*
X-145901Y19000D01*
X-145717Y18924D01*
X-145576Y18783D01*
X-145500Y18599D01*
X-145500Y18500D01*
X-145500D01*
X-145500Y13500D01*
X-145500Y13400D01*
X-145576Y13217D01*
X-145717Y13076D01*
X-145901Y13000D01*
X-146000Y13000D01*
X-146000D01*
X-148000Y13000D01*
X-148099Y13000D01*
X-148283Y13076D01*
X-148424Y13217D01*
X-148500Y13400D01*
X-148500Y13500D01*
X-148500D01*
Y16500D01*
X-151500D01*
X-151600Y16500D01*
X-151783Y16576D01*
X-151924Y16717D01*
X-152000Y16901D01*
X-152000Y17000D01*
Y18500D01*
X-152000Y18599D01*
X-151924Y18783D01*
X-151783Y18924D01*
X-151600Y19000D01*
X-151500Y19000D01*
Y19000D01*
X-146000Y19000D01*
D02*
G37*
G36*
X-132000Y2000D02*
X-131901D01*
X-131717Y1924D01*
X-131576Y1783D01*
X-131500Y1599D01*
Y1500D01*
X-131500Y1500D01*
Y-1500D01*
X-128500Y-1500D01*
X-128401D01*
X-128217Y-1576D01*
X-128076Y-1717D01*
X-128000Y-1901D01*
Y-2000D01*
X-128000Y-2000D01*
X-128000Y-3500D01*
X-128000Y-3600D01*
X-128076Y-3783D01*
X-128217Y-3924D01*
X-128401Y-4000D01*
X-128500Y-4000D01*
X-128500D01*
X-134000Y-4000D01*
X-134100Y-4000D01*
X-134283Y-3924D01*
X-134424Y-3783D01*
X-134500Y-3600D01*
X-134500Y-3500D01*
X-134500Y-3500D01*
Y1500D01*
X-134500Y1599D01*
X-134424Y1783D01*
X-134283Y1924D01*
X-134100Y2000D01*
X-134000Y2000D01*
Y2000D01*
X-132000Y2000D01*
D02*
G37*
G36*
X-145717Y1924D02*
X-145576Y1783D01*
X-145500Y1599D01*
X-145500Y1500D01*
X-145500Y-3500D01*
X-145500Y-3500D01*
X-145500Y-3600D01*
X-145576Y-3783D01*
X-145717Y-3924D01*
X-145900Y-4000D01*
X-146000Y-4000D01*
X-151500D01*
X-151600Y-4000D01*
X-151783Y-3924D01*
X-151924Y-3783D01*
X-152000Y-3600D01*
X-152000Y-3500D01*
Y-2000D01*
X-152000Y-1901D01*
X-151924Y-1717D01*
X-151783Y-1576D01*
X-151600Y-1500D01*
X-151500Y-1500D01*
X-148500Y-1500D01*
Y1500D01*
X-148500Y1599D01*
X-148424Y1783D01*
X-148283Y1924D01*
X-148099Y2000D01*
X-148000Y2000D01*
X-146000Y2000D01*
X-146000Y2000D01*
X-145900Y2000D01*
X-145717Y1924D01*
D02*
G37*
G36*
X97150Y22625D02*
X101300D01*
Y-1875D01*
X97150D01*
Y-5675D01*
X92850D01*
Y-1875D01*
X81500D01*
Y-1375D01*
X78500D01*
Y2625D01*
X81500D01*
Y5125D01*
X78500D01*
Y9125D01*
X81500D01*
Y11625D01*
X78500D01*
Y15625D01*
X81500D01*
Y18125D01*
X78500D01*
Y22125D01*
X81500D01*
Y22625D01*
X92850D01*
Y26425D01*
X97150D01*
Y22625D01*
D02*
G37*
G36*
X-128217Y-16076D02*
X-128076Y-16217D01*
X-128000Y-16401D01*
X-128000Y-16500D01*
X-128000Y-18000D01*
X-128000D01*
X-128000Y-18099D01*
X-128076Y-18283D01*
X-128217Y-18424D01*
X-128401Y-18500D01*
X-128500Y-18500D01*
X-131500D01*
Y-21500D01*
X-131500D01*
X-131500Y-21600D01*
X-131576Y-21783D01*
X-131717Y-21924D01*
X-131901Y-22000D01*
X-132000Y-22000D01*
X-134000Y-22000D01*
X-134100Y-22000D01*
X-134283Y-21924D01*
X-134424Y-21783D01*
X-134500Y-21600D01*
X-134500Y-21500D01*
Y-16500D01*
X-134500D01*
X-134500Y-16401D01*
X-134424Y-16217D01*
X-134283Y-16076D01*
X-134100Y-16000D01*
X-134000Y-16000D01*
X-128500Y-16000D01*
X-128500Y-16000D01*
X-128401Y-16000D01*
X-128217Y-16076D01*
D02*
G37*
G36*
X-146000Y-16000D02*
X-145901Y-16000D01*
X-145717Y-16076D01*
X-145576Y-16217D01*
X-145500Y-16401D01*
X-145500Y-16500D01*
X-145500D01*
X-145500Y-21500D01*
X-145500Y-21600D01*
X-145576Y-21783D01*
X-145717Y-21924D01*
X-145900Y-22000D01*
X-146000Y-22000D01*
X-146000D01*
X-148000Y-22000D01*
X-148099Y-22000D01*
X-148283Y-21924D01*
X-148424Y-21783D01*
X-148500Y-21600D01*
X-148500Y-21500D01*
X-148500D01*
Y-18500D01*
X-151500D01*
X-151600Y-18500D01*
X-151783Y-18424D01*
X-151924Y-18283D01*
X-152000Y-18099D01*
X-152000Y-18000D01*
Y-16500D01*
X-152000Y-16401D01*
X-151924Y-16217D01*
X-151783Y-16076D01*
X-151600Y-16000D01*
X-151500Y-16000D01*
Y-16000D01*
X-146000Y-16000D01*
D02*
G37*
G36*
X26750Y-21600D02*
X27250D01*
Y-32950D01*
X31050D01*
Y-37250D01*
X27250D01*
Y-41400D01*
X2750D01*
Y-37250D01*
X-1050D01*
Y-32950D01*
X2750D01*
Y-21600D01*
X3250D01*
Y-18600D01*
X7250D01*
Y-21600D01*
X9750D01*
Y-18600D01*
X13750D01*
Y-21600D01*
X16250D01*
Y-18600D01*
X20250D01*
Y-21600D01*
X22750D01*
Y-18600D01*
X26750D01*
Y-21600D01*
D02*
G37*
G36*
X152250Y-32750D02*
X156050D01*
Y-37050D01*
X152250D01*
Y-48400D01*
X151750D01*
Y-51400D01*
X147750D01*
Y-48400D01*
X145250D01*
Y-51400D01*
X141250D01*
Y-48400D01*
X138750D01*
Y-51400D01*
X134750D01*
Y-48400D01*
X132250D01*
Y-51400D01*
X128250D01*
Y-48400D01*
X127750D01*
Y-37050D01*
X123950D01*
Y-32750D01*
X127750D01*
Y-28600D01*
X152250D01*
Y-32750D01*
D02*
G37*
G36*
X27250Y-77750D02*
X31050D01*
Y-82050D01*
X27250D01*
Y-93400D01*
X26750D01*
Y-96400D01*
X22750D01*
Y-93400D01*
X20250D01*
Y-96400D01*
X16250D01*
Y-93400D01*
X13750D01*
Y-96400D01*
X9750D01*
Y-93400D01*
X7250D01*
Y-96400D01*
X3250D01*
Y-93400D01*
X2750D01*
Y-82050D01*
X-1050D01*
Y-77750D01*
X2750D01*
Y-73600D01*
X27250D01*
Y-77750D01*
D02*
G37*
G36*
X97150Y-68125D02*
X108500D01*
Y-68625D01*
X111500D01*
Y-72625D01*
X108500D01*
Y-75125D01*
X111500D01*
Y-79125D01*
X108500D01*
Y-81625D01*
X111500D01*
Y-85625D01*
X108500D01*
Y-88125D01*
X111500D01*
Y-92125D01*
X108500D01*
Y-92625D01*
X97150D01*
Y-96425D01*
X92850D01*
Y-92625D01*
X88700D01*
Y-68125D01*
X92850D01*
Y-64325D01*
X97150D01*
Y-68125D01*
D02*
G37*
D17*
X71500Y-174250D02*
D03*
X158500D02*
D03*
X-17250D02*
D03*
X57250D02*
D03*
D18*
X140000Y-142250D02*
D03*
X127500D02*
D03*
X115000D02*
D03*
X102500D02*
D03*
X90000D02*
D03*
X1250D02*
D03*
X13750D02*
D03*
X26250D02*
D03*
X38750D02*
D03*
D23*
X27500Y127500D02*
D03*
Y132500D02*
D03*
Y137500D02*
D03*
Y142500D02*
D03*
Y147500D02*
D03*
Y152500D02*
D03*
Y157500D02*
D03*
Y162500D02*
D03*
Y167500D02*
D03*
Y172500D02*
D03*
Y177500D02*
D03*
Y182500D02*
D03*
Y187500D02*
D03*
Y192500D02*
D03*
Y197500D02*
D03*
Y202500D02*
D03*
X-87500D02*
D03*
Y197500D02*
D03*
Y192500D02*
D03*
Y187500D02*
D03*
Y182500D02*
D03*
Y177500D02*
D03*
Y172500D02*
D03*
Y167500D02*
D03*
Y162500D02*
D03*
Y157500D02*
D03*
Y152500D02*
D03*
Y147500D02*
D03*
Y142500D02*
D03*
Y137500D02*
D03*
Y132500D02*
D03*
Y127500D02*
D03*
D24*
X7500Y222500D02*
D03*
X2500D02*
D03*
X-2500D02*
D03*
X-7500D02*
D03*
X-12500D02*
D03*
X-17500D02*
D03*
X-22500D02*
D03*
X-27500D02*
D03*
X-32500D02*
D03*
X-37500D02*
D03*
X-42500D02*
D03*
X-47500D02*
D03*
X-52500D02*
D03*
X-57500D02*
D03*
X-62500D02*
D03*
X-67500D02*
D03*
Y107500D02*
D03*
X-62500D02*
D03*
X-57500D02*
D03*
X-52500D02*
D03*
X-47500D02*
D03*
X-42500D02*
D03*
X-37500D02*
D03*
X-32500D02*
D03*
X-27500D02*
D03*
X-22500D02*
D03*
X-17500D02*
D03*
X-12500D02*
D03*
X-7500D02*
D03*
X-2500D02*
D03*
X2500D02*
D03*
X7500D02*
D03*
D25*
X65000Y180000D02*
D03*
X55429D02*
D03*
D26*
X60000Y150214D02*
D03*
Y159786D02*
D03*
X80000Y179786D02*
D03*
Y170214D02*
D03*
X60000Y130214D02*
D03*
Y139786D02*
D03*
X105000Y145214D02*
D03*
Y154786D02*
D03*
X-152500Y-42286D02*
D03*
Y-32714D02*
D03*
X160000Y125214D02*
D03*
Y134786D02*
D03*
Y109786D02*
D03*
Y100214D02*
D03*
X-160000Y-104786D02*
D03*
Y-95214D02*
D03*
X25000Y35214D02*
D03*
Y44786D02*
D03*
Y60214D02*
D03*
Y69786D02*
D03*
Y-9786D02*
D03*
Y-214D02*
D03*
Y15214D02*
D03*
Y24786D02*
D03*
X105000Y119786D02*
D03*
Y110214D02*
D03*
D27*
X80000Y140875D02*
D03*
Y149125D02*
D03*
D28*
X59000Y196500D02*
D03*
X81000D02*
D03*
Y213500D02*
D03*
X59000D02*
D03*
D31*
X-137750Y-19000D02*
D03*
X-142250D02*
D03*
Y-1000D02*
D03*
X-137750D02*
D03*
X-137750Y34000D02*
D03*
X-142250D02*
D03*
Y16000D02*
D03*
X-137750D02*
D03*
X-137750Y69000D02*
D03*
X-142250D02*
D03*
Y51000D02*
D03*
X-137750D02*
D03*
D32*
X-110000Y20000D02*
D03*
Y0D02*
D03*
Y65000D02*
D03*
Y45000D02*
D03*
D33*
X-90000Y18258D02*
D03*
Y1742D02*
D03*
Y63258D02*
D03*
Y46742D02*
D03*
D34*
X130250Y-20900D02*
D03*
X136750D02*
D03*
X143250D02*
D03*
X149750D02*
D03*
X130250Y-4100D02*
D03*
X136750D02*
D03*
X143250D02*
D03*
X149750D02*
D03*
X5250Y-65900D02*
D03*
X11750D02*
D03*
X18250D02*
D03*
X24750D02*
D03*
X24750Y-49100D02*
D03*
X18250D02*
D03*
X11750D02*
D03*
X5250D02*
D03*
D35*
X109000Y20125D02*
D03*
Y13625D02*
D03*
Y7125D02*
D03*
Y625D02*
D03*
X109100Y40250D02*
D03*
Y46750D02*
D03*
Y53250D02*
D03*
Y59750D02*
D03*
X81000Y-90125D02*
D03*
Y-83625D02*
D03*
Y-77125D02*
D03*
Y-70625D02*
D03*
D36*
X85000Y96000D02*
D03*
Y74000D02*
D03*
X65000Y61000D02*
D03*
Y39000D02*
D03*
D37*
X44000Y20000D02*
D03*
X66000D02*
D03*
X44000Y-25000D02*
D03*
X66000D02*
D03*
X121500Y77500D02*
D03*
X143500D02*
D03*
D38*
X-185530Y-141241D02*
D03*
X-180206Y-137513D02*
D03*
X-174881Y-133785D02*
D03*
X-169557Y-130057D02*
D03*
X-184470Y-108759D02*
D03*
X-189794Y-112487D02*
D03*
X-195119Y-116215D02*
D03*
X-200443Y-119943D02*
D03*
D41*
X-41500Y55000D02*
D03*
X-68500D02*
D03*
X-41500Y10000D02*
D03*
X-68500D02*
D03*
D42*
X55000Y-87250D02*
D03*
Y-52750D02*
D03*
D44*
X-135000Y191250D02*
D03*
Y158750D02*
D03*
X105000Y211250D02*
D03*
Y178750D02*
D03*
D45*
X-12500Y-30000D02*
D03*
X-37500D02*
D03*
D50*
X-26500Y-100000D02*
D03*
X-13500D02*
D03*
X-116500Y100000D02*
D03*
X-103500D02*
D03*
Y85000D02*
D03*
X-116500D02*
D03*
X-193500Y-95000D02*
D03*
X-206500D02*
D03*
X-13500Y-55000D02*
D03*
X-26500D02*
D03*
X-13500Y-70000D02*
D03*
X-26500D02*
D03*
X-26500Y-85000D02*
D03*
X-13500D02*
D03*
X69000Y107500D02*
D03*
X56000D02*
D03*
X44000D02*
D03*
X31000D02*
D03*
X69000Y92500D02*
D03*
X56000D02*
D03*
X44000D02*
D03*
X31000D02*
D03*
D51*
X217150Y-57150D02*
D03*
X182850D02*
D03*
X217150Y-44450D02*
D03*
X182850D02*
D03*
X217150Y-31750D02*
D03*
X182850D02*
D03*
X217150Y-19050D02*
D03*
X182850D02*
D03*
X217150Y-6350D02*
D03*
X182850D02*
D03*
X217150Y6350D02*
D03*
X182850D02*
D03*
X217150Y19050D02*
D03*
X182850D02*
D03*
X217150Y31750D02*
D03*
X182850D02*
D03*
X217150Y44450D02*
D03*
X182850D02*
D03*
X217150Y57150D02*
D03*
X182850D02*
D03*
X-182850Y-57150D02*
D03*
X-217150D02*
D03*
X-182850Y-44450D02*
D03*
X-217150D02*
D03*
X-182850Y-31750D02*
D03*
X-217150D02*
D03*
X-182850Y-19050D02*
D03*
X-217150D02*
D03*
X-182850Y-6350D02*
D03*
X-217150D02*
D03*
X-182850Y6350D02*
D03*
X-217150D02*
D03*
X-182850Y19050D02*
D03*
X-217150D02*
D03*
X-182850Y31750D02*
D03*
X-217150D02*
D03*
X-182850Y44450D02*
D03*
X-217150D02*
D03*
X-182850Y57150D02*
D03*
X-217150D02*
D03*
D52*
X87500Y-48480D02*
D03*
X92500D02*
D03*
X97500D02*
D03*
X102500D02*
D03*
X147500Y-93480D02*
D03*
X142500D02*
D03*
X137500D02*
D03*
X132500D02*
D03*
D53*
X109500Y-41480D02*
D03*
Y-36480D02*
D03*
X80500Y-41480D02*
D03*
Y-36480D02*
D03*
X125500Y-81480D02*
D03*
Y-86480D02*
D03*
X154500Y-81480D02*
D03*
Y-86480D02*
D03*
D54*
X123500Y142000D02*
D03*
X141500D02*
D03*
X132500Y168000D02*
D03*
Y123000D02*
D03*
X141500Y97000D02*
D03*
X123500D02*
D03*
D55*
X182000Y129500D02*
D03*
X198000D02*
D03*
X182000Y120500D02*
D03*
X198000D02*
D03*
X197000Y99500D02*
D03*
X213000D02*
D03*
X197000Y90500D02*
D03*
X213000D02*
D03*
X132000Y189500D02*
D03*
X148000D02*
D03*
X132000Y180500D02*
D03*
X148000D02*
D03*
X162000Y159500D02*
D03*
X178000D02*
D03*
X162000Y150500D02*
D03*
X178000D02*
D03*
D56*
X-140000Y-12500D02*
D03*
Y-7500D02*
D03*
X-140000Y27500D02*
D03*
Y22500D02*
D03*
X-140000Y62500D02*
D03*
Y57500D02*
D03*
D57*
X-133000Y-17500D02*
D03*
X-133000Y17500D02*
D03*
X-133000Y52500D02*
D03*
D58*
X-147500Y-17500D02*
D03*
Y-2500D02*
D03*
X-147500Y32500D02*
D03*
Y17500D02*
D03*
X-147500Y67500D02*
D03*
Y52500D02*
D03*
D59*
X-133000Y500D02*
D03*
X-133000Y35500D02*
D03*
X-133000Y70500D02*
D03*
D60*
X-19000Y62500D02*
D03*
Y57500D02*
D03*
Y52500D02*
D03*
Y47500D02*
D03*
X9000D02*
D03*
Y52500D02*
D03*
Y57500D02*
D03*
Y62500D02*
D03*
X-19000Y17500D02*
D03*
Y12500D02*
D03*
Y7500D02*
D03*
Y2500D02*
D03*
X9000D02*
D03*
Y7500D02*
D03*
Y12500D02*
D03*
Y17500D02*
D03*
D61*
X-12500Y41000D02*
D03*
X-7500D02*
D03*
X-2500D02*
D03*
X2500D02*
D03*
Y69000D02*
D03*
X-2500D02*
D03*
X-7500D02*
D03*
X-12500D02*
D03*
Y-4000D02*
D03*
X-7500D02*
D03*
X-2500D02*
D03*
X2500D02*
D03*
Y24000D02*
D03*
X-2500D02*
D03*
X-7500D02*
D03*
X-12500D02*
D03*
D62*
X-5000Y55000D02*
D03*
Y10000D02*
D03*
D63*
X-152500Y-71500D02*
D03*
Y-58500D02*
D03*
D64*
X90000Y-21480D02*
D03*
D65*
X100000D02*
D03*
D66*
X145000Y-66480D02*
D03*
D67*
X135000D02*
D03*
D68*
X200000Y-73050D02*
D03*
Y73050D02*
D03*
X-200000Y-73050D02*
D03*
Y73050D02*
D03*
X200000Y-73050D02*
D03*
Y73050D02*
D03*
X-200000Y-73050D02*
D03*
Y73050D02*
D03*
D69*
X-65000Y-30000D02*
D03*
D70*
X-115000D02*
D03*
D71*
X-145000Y-130000D02*
D03*
X-35000D02*
D03*
D72*
X-155143Y82072D02*
D03*
X-165286Y89715D02*
D03*
X-147500Y92214D02*
D03*
X-157643Y99857D02*
D03*
X-139857Y102357D02*
D03*
X-150000Y110000D02*
D03*
X-132214Y112500D02*
D03*
X-142357Y120143D02*
D03*
X-124571Y122642D02*
D03*
D73*
X-134714Y130285D02*
D03*
M02*
