G04*
G04 #@! TF.GenerationSoftware,Altium Limited,Altium Designer,24.4.1 (13)*
G04*
G04 Layer_Color=128*
%FSLAX44Y44*%
%MOMM*%
G71*
G04*
G04 #@! TF.SameCoordinates,740DF4E5-9B0E-41A3-91D6-8293D7FF8DF9*
G04*
G04*
G04 #@! TF.FilePolarity,Positive*
G04*
G01*
G75*
G04:AMPARAMS|DCode=19|XSize=0.95mm|YSize=0.8mm|CornerRadius=0.1mm|HoleSize=0mm|Usage=FLASHONLY|Rotation=90.000|XOffset=0mm|YOffset=0mm|HoleType=Round|Shape=RoundedRectangle|*
%AMROUNDEDRECTD19*
21,1,0.9500,0.6000,0,0,90.0*
21,1,0.7500,0.8000,0,0,90.0*
1,1,0.2000,0.3000,0.3750*
1,1,0.2000,0.3000,-0.3750*
1,1,0.2000,-0.3000,-0.3750*
1,1,0.2000,-0.3000,0.3750*
%
%ADD19ROUNDEDRECTD19*%
%ADD21R,0.3000X0.8500*%
%ADD22R,0.8500X0.3000*%
%ADD25R,0.7154X0.6725*%
%ADD26R,0.6725X0.7154*%
%ADD32R,1.2500X1.0000*%
%ADD34R,0.3500X0.5000*%
G04:AMPARAMS|DCode=43|XSize=0.95mm|YSize=0.8mm|CornerRadius=0.1mm|HoleSize=0mm|Usage=FLASHONLY|Rotation=0.000|XOffset=0mm|YOffset=0mm|HoleType=Round|Shape=RoundedRectangle|*
%AMROUNDEDRECTD43*
21,1,0.9500,0.6000,0,0,0.0*
21,1,0.7500,0.8000,0,0,0.0*
1,1,0.2000,0.3750,-0.3000*
1,1,0.2000,-0.3750,-0.3000*
1,1,0.2000,-0.3750,0.3000*
1,1,0.2000,0.3750,0.3000*
%
%ADD43ROUNDEDRECTD43*%
%ADD45R,1.0000X1.8000*%
%ADD95R,0.4800X0.4000*%
%ADD96O,1.6000X0.4500*%
%ADD98R,0.7000X0.9000*%
G04:AMPARAMS|DCode=99|XSize=0.7154mm|YSize=0.6725mm|CornerRadius=0mm|HoleSize=0mm|Usage=FLASHONLY|Rotation=143.000|XOffset=0mm|YOffset=0mm|HoleType=Round|Shape=Rectangle|*
%AMROTATEDRECTD99*
4,1,4,0.4880,0.0533,0.0833,-0.4838,-0.4880,-0.0533,-0.0833,0.4838,0.4880,0.0533,0.0*
%
%ADD99ROTATEDRECTD99*%

%ADD100R,1.0000X0.7000*%
%ADD101R,0.9000X0.7000*%
G04:AMPARAMS|DCode=104|XSize=0.9779mm|YSize=0.3048mm|CornerRadius=0mm|HoleSize=0mm|Usage=FLASHONLY|Rotation=233.000|XOffset=0mm|YOffset=0mm|HoleType=Round|Shape=Rectangle|*
%AMROTATEDRECTD104*
4,1,4,0.1725,0.4822,0.4160,0.2988,-0.1725,-0.4822,-0.4160,-0.2988,0.1725,0.4822,0.0*
%
%ADD104ROTATEDRECTD104*%

%ADD105R,0.5000X0.4000*%
%ADD106R,0.4000X0.8000*%
%ADD107R,0.8000X0.4000*%
%ADD109R,0.5298X1.2052*%
G04:AMPARAMS|DCode=110|XSize=1.2052mm|YSize=0.5298mm|CornerRadius=0.2649mm|HoleSize=0mm|Usage=FLASHONLY|Rotation=270.000|XOffset=0mm|YOffset=0mm|HoleType=Round|Shape=RoundedRectangle|*
%AMROUNDEDRECTD110*
21,1,1.2052,0.0000,0,0,270.0*
21,1,0.6754,0.5298,0,0,270.0*
1,1,0.5298,0.0000,-0.3377*
1,1,0.5298,0.0000,0.3377*
1,1,0.5298,0.0000,0.3377*
1,1,0.5298,0.0000,-0.3377*
%
%ADD110ROUNDEDRECTD110*%
%ADD111R,0.9100X1.2200*%
%ADD112R,2.2200X0.7400*%
%ADD113R,1.3000X0.8000*%
%ADD122R,0.3500X0.8500*%
%ADD123R,0.3500X0.8500*%
G36*
X152250Y-32750D02*
X156050D01*
Y-37050D01*
X152250D01*
Y-48400D01*
X151750D01*
Y-51400D01*
X147750D01*
Y-48400D01*
X145250D01*
Y-51400D01*
X141250D01*
Y-48400D01*
X138750D01*
Y-51400D01*
X134750D01*
Y-48400D01*
X132250D01*
Y-51400D01*
X128250D01*
Y-48400D01*
X127750D01*
Y-37050D01*
X123950D01*
Y-32750D01*
X127750D01*
Y-28600D01*
X152250D01*
Y-32750D01*
D02*
G37*
G36*
X151750Y23400D02*
X152250D01*
Y12050D01*
X156050D01*
Y7750D01*
X152250D01*
Y3600D01*
X127750D01*
Y7750D01*
X123950D01*
Y12050D01*
X127750D01*
Y23400D01*
X128250D01*
Y26400D01*
X132250D01*
Y23400D01*
X134750D01*
Y26400D01*
X138750D01*
Y23400D01*
X141250D01*
Y26400D01*
X145250D01*
Y23400D01*
X147750D01*
Y26400D01*
X151750D01*
Y23400D01*
D02*
G37*
D19*
X9000Y225000D02*
D03*
X-4000D02*
D03*
X-33500D02*
D03*
X-46500D02*
D03*
X-9000Y70000D02*
D03*
X4000D02*
D03*
X4056Y82719D02*
D03*
X-8945D02*
D03*
X1500Y40000D02*
D03*
X-11500D02*
D03*
X173500Y-107500D02*
D03*
X186500D02*
D03*
X111500Y-102500D02*
D03*
X98500D02*
D03*
X136500Y145000D02*
D03*
X123500D02*
D03*
X173500Y125000D02*
D03*
X186500D02*
D03*
X173500Y140000D02*
D03*
X186500D02*
D03*
X188500Y95000D02*
D03*
X201500D02*
D03*
X188500Y110000D02*
D03*
X201500D02*
D03*
X-83500Y-60000D02*
D03*
X-96500D02*
D03*
X-116500Y100000D02*
D03*
X-103500D02*
D03*
X-138500Y67500D02*
D03*
X-151500D02*
D03*
X211500Y-90000D02*
D03*
X198500D02*
D03*
X158500Y-165000D02*
D03*
X171500D02*
D03*
X-141000Y-45000D02*
D03*
X-154000D02*
D03*
X-141000Y-30000D02*
D03*
X-154000D02*
D03*
X114000Y80000D02*
D03*
X101000D02*
D03*
X114000Y20000D02*
D03*
X101000D02*
D03*
X131000Y65000D02*
D03*
X144000D02*
D03*
X131000Y80000D02*
D03*
X144000D02*
D03*
X1500Y25000D02*
D03*
X-11500D02*
D03*
X136500Y160000D02*
D03*
X123500D02*
D03*
X123500Y175000D02*
D03*
X136500D02*
D03*
X123500Y190000D02*
D03*
X136500D02*
D03*
X166500Y170000D02*
D03*
X153500D02*
D03*
X166500Y155000D02*
D03*
X153500D02*
D03*
X136500Y130000D02*
D03*
X123500D02*
D03*
X114000Y5000D02*
D03*
X101000D02*
D03*
X73500Y-10000D02*
D03*
X86500D02*
D03*
X114000Y95000D02*
D03*
X101000D02*
D03*
X114000Y110000D02*
D03*
X101000D02*
D03*
X114000Y35000D02*
D03*
X101000D02*
D03*
X84000Y50000D02*
D03*
X71000D02*
D03*
X71000Y80000D02*
D03*
X84000D02*
D03*
X101000Y50000D02*
D03*
X114000D02*
D03*
X114000Y65000D02*
D03*
X101000D02*
D03*
X84000D02*
D03*
X71000D02*
D03*
X101000Y-10000D02*
D03*
X114000D02*
D03*
X138500Y-87500D02*
D03*
X151500D02*
D03*
X-28500Y-45000D02*
D03*
X-41500D02*
D03*
X151500Y-102500D02*
D03*
X138500D02*
D03*
X-11500Y-5000D02*
D03*
X1500D02*
D03*
D21*
X83520Y-45500D02*
D03*
X88520D02*
D03*
X83520Y-74500D02*
D03*
X88520D02*
D03*
D22*
X76520Y-67500D02*
D03*
Y-62500D02*
D03*
Y-57500D02*
D03*
Y-52500D02*
D03*
D25*
X184786Y-90000D02*
D03*
X175214D02*
D03*
X104786Y-132500D02*
D03*
X95214D02*
D03*
X74786D02*
D03*
X65214D02*
D03*
X44786D02*
D03*
X35214D02*
D03*
X14786D02*
D03*
X5214D02*
D03*
X102714Y-25000D02*
D03*
X112286D02*
D03*
X-60214Y-60000D02*
D03*
X-69786D02*
D03*
X-119786D02*
D03*
X-110214D02*
D03*
X7286Y210000D02*
D03*
X-2286D02*
D03*
X-35214Y210000D02*
D03*
X-44786D02*
D03*
X-140214Y52500D02*
D03*
X-149786D02*
D03*
X7714Y142500D02*
D03*
X17286D02*
D03*
X7714Y127500D02*
D03*
X17286D02*
D03*
X-2714D02*
D03*
X-12286D02*
D03*
X-55214Y195000D02*
D03*
X-64786D02*
D03*
X-55214Y210000D02*
D03*
X-64786D02*
D03*
X-77714D02*
D03*
X-87286D02*
D03*
X7286Y195000D02*
D03*
X-2286D02*
D03*
X-44786D02*
D03*
X-35214D02*
D03*
X80214Y-25000D02*
D03*
X89786D02*
D03*
D26*
X-145000Y-84786D02*
D03*
Y-75214D02*
D03*
X-152500Y15214D02*
D03*
Y24786D02*
D03*
X-120000Y179786D02*
D03*
Y170214D02*
D03*
X75000Y204786D02*
D03*
Y195214D02*
D03*
X-65000Y122714D02*
D03*
Y132286D02*
D03*
X37500Y-77714D02*
D03*
Y-87286D02*
D03*
X-12500Y-77714D02*
D03*
Y-87286D02*
D03*
D32*
X25000Y-5000D02*
D03*
Y15000D02*
D03*
Y40000D02*
D03*
Y60000D02*
D03*
D34*
X130250Y-4100D02*
D03*
X136750D02*
D03*
X143250D02*
D03*
X149750D02*
D03*
Y-20900D02*
D03*
X143250D02*
D03*
X136750D02*
D03*
X130250D02*
D03*
D43*
X2500Y-161500D02*
D03*
Y-148500D02*
D03*
X32500Y-161500D02*
D03*
Y-148500D02*
D03*
X107500Y-161500D02*
D03*
Y-148500D02*
D03*
X62500Y-148500D02*
D03*
Y-161500D02*
D03*
X77500Y-161500D02*
D03*
Y-148500D02*
D03*
X47500D02*
D03*
Y-161500D02*
D03*
X-107500Y66500D02*
D03*
Y53500D02*
D03*
X160000Y126000D02*
D03*
Y139000D02*
D03*
X52500Y-48500D02*
D03*
Y-61500D02*
D03*
X17500Y-161500D02*
D03*
Y-148500D02*
D03*
X92500Y-161500D02*
D03*
Y-148500D02*
D03*
X-92500Y-6500D02*
D03*
Y6500D02*
D03*
X-152500Y-14000D02*
D03*
Y-1000D02*
D03*
X-122500Y53500D02*
D03*
Y66500D02*
D03*
X-107500Y21000D02*
D03*
Y34000D02*
D03*
X-122500Y34000D02*
D03*
Y21000D02*
D03*
X-107500Y6500D02*
D03*
Y-6500D02*
D03*
X-92500Y21000D02*
D03*
Y34000D02*
D03*
X-137500Y-1000D02*
D03*
Y-14000D02*
D03*
Y34000D02*
D03*
Y21000D02*
D03*
X-80000Y121000D02*
D03*
Y134000D02*
D03*
X-92500Y53500D02*
D03*
Y66500D02*
D03*
X175000Y-131000D02*
D03*
Y-144000D02*
D03*
X-77500Y6500D02*
D03*
Y-6500D02*
D03*
Y34000D02*
D03*
Y21000D02*
D03*
X-62500Y-6500D02*
D03*
Y6500D02*
D03*
X-47500Y6500D02*
D03*
Y-6500D02*
D03*
X-110000Y121000D02*
D03*
Y134000D02*
D03*
X-65000Y159000D02*
D03*
Y146000D02*
D03*
X85000Y158500D02*
D03*
Y171500D02*
D03*
X-150000Y168500D02*
D03*
Y181500D02*
D03*
X-135000Y181500D02*
D03*
Y168500D02*
D03*
X90000Y206500D02*
D03*
Y193500D02*
D03*
X105000Y206500D02*
D03*
Y193500D02*
D03*
X-77500Y53500D02*
D03*
Y66500D02*
D03*
X-95000Y134000D02*
D03*
Y121000D02*
D03*
X110000Y144000D02*
D03*
Y131000D02*
D03*
X40000Y81000D02*
D03*
Y94000D02*
D03*
X55000Y81000D02*
D03*
Y94000D02*
D03*
X52500Y1000D02*
D03*
Y14000D02*
D03*
X5000Y-36500D02*
D03*
Y-23500D02*
D03*
X20000Y-23500D02*
D03*
Y-36500D02*
D03*
X37500Y-48500D02*
D03*
Y-61500D02*
D03*
X52500Y-89000D02*
D03*
Y-76000D02*
D03*
X-12500Y-66500D02*
D03*
Y-53500D02*
D03*
X-90000Y-23500D02*
D03*
Y-36500D02*
D03*
D45*
X152500Y-70000D02*
D03*
X127500D02*
D03*
D95*
X16600Y-120000D02*
D03*
X3400D02*
D03*
X46600D02*
D03*
X33400D02*
D03*
X76600D02*
D03*
X63400D02*
D03*
X106600D02*
D03*
X93400D02*
D03*
X111600Y-87500D02*
D03*
X98400D02*
D03*
D96*
X-120500Y-134250D02*
D03*
Y-127750D02*
D03*
Y-121250D02*
D03*
Y-114750D02*
D03*
Y-108250D02*
D03*
Y-101750D02*
D03*
Y-95250D02*
D03*
Y-88750D02*
D03*
Y-82250D02*
D03*
Y-75750D02*
D03*
X-59500Y-134250D02*
D03*
Y-127750D02*
D03*
Y-121250D02*
D03*
Y-114750D02*
D03*
Y-108250D02*
D03*
Y-101750D02*
D03*
Y-95250D02*
D03*
Y-88750D02*
D03*
Y-82250D02*
D03*
Y-75750D02*
D03*
D98*
X163500Y109500D02*
D03*
X176500D02*
D03*
X170000Y90500D02*
D03*
X105000Y179500D02*
D03*
X98500Y160500D02*
D03*
X111500D02*
D03*
D99*
X-196178Y92120D02*
D03*
X-203822Y97880D02*
D03*
X-151752Y148841D02*
D03*
X-144108Y143081D02*
D03*
X-160080Y155118D02*
D03*
X-167724Y160878D02*
D03*
D100*
X132000Y-115500D02*
D03*
Y-125000D02*
D03*
Y-134500D02*
D03*
X158000D02*
D03*
Y-125000D02*
D03*
Y-115500D02*
D03*
D101*
X87000Y7500D02*
D03*
X68000Y14000D02*
D03*
Y1000D02*
D03*
X128000Y96000D02*
D03*
Y109000D02*
D03*
X147000Y102500D02*
D03*
X35500Y-36500D02*
D03*
Y-23500D02*
D03*
X54500Y-30000D02*
D03*
D104*
X-179676Y145380D02*
D03*
X-175682Y142370D02*
D03*
X-171687Y139360D02*
D03*
X-167693Y136351D02*
D03*
X-163699Y133341D02*
D03*
X-159705Y130331D02*
D03*
X-155711Y127321D02*
D03*
X-174283Y102674D02*
D03*
X-178277Y105684D02*
D03*
X-182272Y108694D02*
D03*
X-186266Y111704D02*
D03*
X-190260Y114714D02*
D03*
X-194254Y117724D02*
D03*
X-198248Y120733D02*
D03*
D105*
X-50000Y176000D02*
D03*
Y184000D02*
D03*
D106*
X71000Y112000D02*
D03*
X77500D02*
D03*
X84000D02*
D03*
Y93000D02*
D03*
X77500D02*
D03*
X71000D02*
D03*
X-28500Y-63000D02*
D03*
X-35000D02*
D03*
X-41500D02*
D03*
Y-82000D02*
D03*
X-35000D02*
D03*
X-28500D02*
D03*
D107*
X68000Y26000D02*
D03*
Y32500D02*
D03*
Y39000D02*
D03*
X87000D02*
D03*
Y32500D02*
D03*
Y26000D02*
D03*
D109*
X3000Y-56995D02*
D03*
D110*
X12500D02*
D03*
X22000D02*
D03*
Y-78005D02*
D03*
X12500D02*
D03*
X3000D02*
D03*
D111*
X-8650Y-25000D02*
D03*
X-41350D02*
D03*
D112*
X213650Y-57150D02*
D03*
Y-44450D02*
D03*
Y-31750D02*
D03*
Y-19050D02*
D03*
Y-6350D02*
D03*
Y6350D02*
D03*
Y19050D02*
D03*
Y31750D02*
D03*
Y44450D02*
D03*
Y57150D02*
D03*
X186350Y-57150D02*
D03*
Y-44450D02*
D03*
Y-31750D02*
D03*
Y-19050D02*
D03*
Y-6350D02*
D03*
Y6350D02*
D03*
Y19050D02*
D03*
Y31750D02*
D03*
Y44450D02*
D03*
Y57150D02*
D03*
X-186350Y-57150D02*
D03*
Y-44450D02*
D03*
Y-31750D02*
D03*
Y-19050D02*
D03*
Y-6350D02*
D03*
Y6350D02*
D03*
Y19050D02*
D03*
Y31750D02*
D03*
Y44450D02*
D03*
Y57150D02*
D03*
X-213650Y-57150D02*
D03*
Y-44450D02*
D03*
Y-31750D02*
D03*
Y-19050D02*
D03*
Y-6350D02*
D03*
Y6350D02*
D03*
Y19050D02*
D03*
Y31750D02*
D03*
Y44450D02*
D03*
Y57150D02*
D03*
D113*
X103520Y-65000D02*
D03*
Y-55000D02*
D03*
D122*
X69000Y176001D02*
D03*
X56000Y175999D02*
D03*
Y153999D02*
D03*
X69000Y154001D02*
D03*
D123*
X62500Y175999D02*
D03*
Y153999D02*
D03*
M02*
