M48
;Layer_Color=9474304
;FILE_FORMAT=4:4
METRIC,LZ
;TYPE=PLATED
T01F00S00C0.3000
T02F00S00C0.5000
T03F00S00C0.7100
T04F00S00C1.0000
;TYPE=NON_PLATED
T05F00S00C1.4000
%
T01
X-00215Y0007
X-002125Y000875
X-002075Y001225
X-0019Y001375
X-00189357Y00144787
X-00181611Y00138389
X-0018Y0013
X-001725Y00125
X-00165Y001275
X-00164179Y00119179
X-001575Y001225
X-00161178Y0016212
X-001775Y0016
X-00155Y0018
X-0013Y00171
X-00107469Y001675
X-0010709Y001575
X-001075Y001475
Y001375
X-000875Y001425
Y001525
Y00165
X-00087451Y0017256
X-000775Y0018
X-00075Y001875
Y0016
Y00136
X-00074Y00127
X-00081Y00128
X-00085Y001225
X-000875Y001325
X-000775Y001125
X-000475
X-000375
X-000275
X-000225Y000925
X-00013641
X-00018Y00086
X-000325Y000925
X-000425
X-00034786Y0007
X-00045016Y00045
X-00044968Y000375
Y0003
X-00040096Y-000175
X-00035032Y-0003
X-00056Y-00021
X-00065Y-0002
Y-000275
Y-00035
X-00085
Y-000275
Y-000175
X-00109984
X-00135Y00005
X-00145
Y00015
X-00135
X-001625Y000125
Y00005
Y0002
X-0013Y0005
Y0006
X-0012
Y0005
X-00109Y00052623
X-00105639Y0004706
X-001075Y001
Y0011
X-001275Y000925
X-001375Y00075
X-00145
X-002Y000875
X-00081Y00085
X-00124Y00146043
X-00045262Y00162762
X-0005Y001675
X-0004
X-00035Y001625
X-0003Y001675
X-00025Y001625
X-000275Y00145
X-000075Y00135
X-00002361Y00127639
X000275Y001225
X0004Y00114968
X000375Y001015
X000225Y001015
Y000715
Y0006
X00022Y000485
X000375Y000465
Y000295
X000525Y000425
X000675Y000425
X000825Y000425
X000975Y000425
X0010905Y00031181
X000865Y0002
X00073332Y00024582
X000735Y-0001
X00101
X00101Y-0004
Y-00055
X00089984Y-00057
X00086035Y-00051035
X00075Y-0005
X0007Y-00045
X00087543Y-00033207
X001Y-0007
X0008Y-00075
Y-00105
X00093Y-00106
X00083Y-00121
X001025Y-00131234
Y-0014
X00095
X0011Y-00124786
X00125Y-001275
X001375Y-001325
X001475Y-00145
Y-001525
X00141Y-00108
X0013Y-001075
X001325Y-00114984
X00109Y-00095
X0006Y-00105
X000375Y-000935
X00031
Y-000865
X000375
X00024
X000175
Y-000935
X00024
X000075Y-001025
X-000075Y-001215
X-000324Y-001266
X-000434
X-000544Y-001286
X-000654Y-001266
X-000984Y-001226
X-001094Y-001266
X-0012Y-001275
X-0013Y-0013
X-00147143Y-00122036
Y-00115
X-0017Y-00104
X-00165Y-0008
X-001875Y-0013
X-001575Y-00155
X-001
Y-001475
X-0008Y-00152
X0003475Y-001765
X0001Y-000225
X0002Y-00005
Y000025
Y0001
X-00005Y000125
Y00005
Y-000025
X000375Y000715
X0006Y0007
X00065Y0009
X000825Y000875
X001025
X001225Y0009
Y001025
Y001125
Y001225
Y001325
Y001425
X0011Y001475
X000825Y001465
X000725Y00135
X00065
Y001425
X00066Y0016225
X00045Y001675
X000275Y001625
X00032Y00157
X000275Y001475
X0004Y00135
X0003Y001775
X0Y0018
Y0017
X000825Y001875
X001225Y0018
X00148Y001805
Y001895
X0016Y00181
X00147Y0016
X0014Y001625
X001325
X0015Y00137
X00166Y00135
Y00142
X00174472Y001345
X001725Y00125
X0017249Y0011749
X00164Y00125
X00178Y001505
Y001595
X001775Y00075
X0017
X00185
X0014Y00065
X0013Y0005
X001375Y00005
X001425Y0
X001475Y00005
Y-00005
X001375
X0013Y-00015
X001275Y-00053016
X00159Y00015
X001025Y001225
X0008Y001175
X00198Y001205
Y001295
X00207484Y000955
X0021Y-000935
X001Y001935
Y002175
X0009Y002225
X0008Y00218
X00015Y00207714
X000025Y0023
X-00005
X-000125
X-0002Y00230016
X-000275Y0023
X-00045Y00230016
X-0006Y00194
X-00075Y00204138
X-00086Y00194
X-0011Y002025
X-00135Y0019125
X-00022335Y00193829
T02
X-0021365Y-0005715
Y-0004445
Y-0003175
Y-0001905
Y-0000635
Y0000635
Y0001905
Y0003175
Y0004445
Y0005715
X-0018635
Y0004445
Y0003175
Y0001905
Y0000635
Y-0000635
Y-0001905
Y-0003175
Y-0004445
Y-0005715
X0018635
Y-0004445
Y-0003175
Y-0001905
Y-0000635
Y0000635
Y0001905
Y0003175
Y0004445
Y0005715
X0021365
Y0004445
Y0003175
Y0001905
Y0000635
Y-0000635
Y-0001905
Y-0003175
Y-0004445
Y-0005715
T03
X-00165286Y00089715
X-00155143Y00082072
X-001475Y00092214
X-00139857Y00102357
X-0015Y0011
X-00157643Y00099857
X-00142357Y00120143
X-00132214Y001125
X-00124571Y00122642
X-00134714Y00130285
T04
X00085Y-0017
X00115
T05
X-002Y-0007305
Y0007305
X002
Y-0007305
M30
