M48
;Layer_Color=9474304
;FILE_FORMAT=4:4
METRIC,LZ
;TYPE=PLATED
T01F00S00C0.3000
T02F00S00C0.5000
T03F00S00C0.7100
;TYPE=NON_PLATED
T04F00S00C1.4000
%
T01
X-00219Y-00073
X-00176
X-00132Y-00077
X-001375Y-000575
X-001285Y-000475
X-001465
X-00107Y-00046
X-00099Y-00068
X-00078Y-00065
X-00032Y-00069
Y-00053
X-000175Y-00035
X-0001
X00015
X00035516Y-0002
X00035Y0001
X00025Y00019
X00049886Y00020114
X00062Y00001
X00073
X000825Y-000175
X00085Y-0003875
X00095
Y-0005435
X00085
X00069Y-00066
X0006Y-0007
X00045Y-000675
Y-00075
X00093
X001175Y-000745
Y-0011
X00145Y-00105
X0015Y-001175
X001475Y-00085
X00175
X001825Y-000725
X0014Y-00055
X00139Y00001
X001175Y-000125
X00105
X00099Y00019
X00098Y00055
X00105035Y00054964
X00135Y00055
X00145
Y00065
X001325Y00075
X00175
X00178Y001505
Y001595
X0017Y001725
X00165Y0018
X001575
X00148Y001805
X00132
Y001895
X00136Y001535
X00121Y00135
X00105Y00173
X0009Y001775
Y0019
X000575Y001875
Y001725
Y00155
Y0014
Y001225
Y00115
Y000925
X00075Y000775
X000775Y00065
X0007
Y000425
X0008
X00030112Y0004
X00005032
X0000492Y000475
Y0005492
X-000025Y00055
X00005Y000625
X-000225Y00057484
Y0005
X-0003Y0004
Y00015
X-000325Y-000075
X-0003Y-0002
X0Y0
X00005Y-00065
X-00009Y-001
Y-0014
X-00046Y-0015
X-000625Y-00125
X-00095Y-001375
Y-001475
X-00132Y-00148
X-001725Y-001525
X-0018
X-001875
X-0019Y-001275
X-0018Y-001225
X-001061Y-00115
X-00085Y-000175
X-000725Y0001
Y000175
Y00025
Y000325
Y0004
Y00047484
X-0008
X-000875
X-0009Y0003
X-001
Y0002
X-0009
X-00115Y00025
X-001175Y00005
X-0014Y-000025
Y000225
X-00155Y0005
Y000575
X-001425Y0007
X-001225Y00075214
X-001175Y00065
X-00095
X-00095139Y00084861
X-001075Y00095
X-0011Y0012
X-001Y001185
X-0009Y001175
Y0011
Y00135
Y001425
X-001
X-001125
X-00128Y00146
X-00135Y001785
X-00144Y00173
X-00161178Y0016212
X-001725Y00134968
X-001725Y001275
X-0018Y0013
X-00179485Y00136985
X-0019Y00135
X-00165Y00125
Y00115
X-001975Y0009
X-0005775Y0010025
X-000575Y0011
Y001175
X-0005Y000875
X-000425
X-00035
X-00028214Y00087786
X-000175Y000875
X-0001
Y00114
X-00019Y00122
X-00011Y00149
X-00024Y0016
X-00045Y00162
X-000575Y001625
X-00056Y00174
X-00053166Y00186726
X-0009Y00185
X-00089965Y00169965
X-00090103Y00163032
X-001175Y001775
X-00043Y00146
X00015Y00145
X000125Y00165
X0002Y0019
X-00016Y00185
X0002Y00118
X00026Y00123
X00037714Y001325
X000175Y000975
X0001
X000925Y00095
X-00055Y000575
X-001281Y-0001575
X0003Y-00172
X00051Y-00165
X00084Y-0014
X00126Y-0017
X00145Y-001525
X0018Y-00159
X002175Y-0011
X00227Y-00086
X002225Y0009
X00197Y000905
Y000995
X00198Y001205
Y001295
X0021Y0012
X00105Y0021125
X0008Y00216
Y002225
X000675
X000575Y002075
X000275Y00204484
X0002Y00205
X000125
X00005
X00006Y00198
X-00008964Y00201465
X-0002Y00205
X-000275
X-00035
X-000425
X-000575
X-00034Y00196
X-000225Y002425
X-00015
X0001Y002375
X000175
X00025
X000325
X-000725Y002325
X-0009Y00215
Y002075
Y002
Y001925
X-00105Y0021125
X-00135Y0019125
T02
X-0021715Y-0005715
Y-0004475
Y-0003175
Y-0001905
Y-0000635
Y0000635
Y0001905
Y0003175
Y0004445
Y0005715
X-0018285
Y0004445
Y0003175
Y0001905
Y0000635
Y-00006334
Y-00019334
Y-0003175
Y-0004445
Y-0005715
X0018285
Y-0004445
Y-0003175
Y-0001905
Y-0000635
Y0000635
Y0001905
Y0003175
Y0004445
Y0005715
X0021715
Y0004445
Y0003175
Y0001905
Y0000635
Y-0000635
Y-0001905
Y-0003175
Y-0004445
Y-0005715
T03
X-00165286Y00089715
X-00155143Y00082072
X-001475Y00092214
X-00139857Y00102357
X-0015Y0011
X-00157643Y00099857
X-00142357Y00120143
X-00132214Y001125
X-00124571Y00122642
X-00134714Y00130285
T04
X-002Y-0007305
Y0007305
X002
Y-0007305
M30
