M48
;Layer_Color=9474304
;FILE_FORMAT=4:4
METRIC,LZ
;TYPE=PLATED
T01F00S00C0.3000
T02F00S00C0.5000
T03F00S00C0.7100
;TYPE=NON_PLATED
T04F00S00C1.4000
%
T01
X-0022Y-00074
X-0021365Y-000572
Y-000445
Y-000318
Y-000191
Y-000064
Y000063
Y00019
Y000317
Y000444
Y000571
X-00217Y00072
X-00182
X-001825Y00087467
X-00191322Y0009538
X-00172Y00118473
X-00165429Y00117071
Y00125
X-00155429Y0012
X-0018Y001275
X-0017902Y00138473
X-00172762Y0016
X-00153678Y0015962
X-001375Y0015
X-00115Y00152714
Y00163
X-000875Y00165
Y001725
X-001Y0018375
X-000575Y00185
Y00175
Y001675
X-000625Y001475
Y00138974
X-000575Y0012
Y001125
Y00105
X-000625Y0009
X-000675Y000825
X-00049835Y00092641
X-000425Y000925
X-000275
X-0002
X-000125
X-00005
X000025
X000125Y000975
X0002
X00019847Y00089847
X00029952Y00093168
X000575Y000925
Y00115
Y0014
X000875
X000925Y0013
X000875Y00155
Y001625
Y0017
Y001775
X000575Y00177286
Y0019
X000125Y001825
X000015Y00185
Y0017
Y00155
X-000175Y0017
X-000365Y00155
X-00036Y00145
X-0002Y0013
X-00015Y001225
X-0005Y0012
X-0009Y001175
Y0011
Y00045
X-00075
X-000725Y00019
Y00012
Y00005
Y-00002
Y-00009
X-000655Y00005
X-000585
X-000795
X-000865
X-00110016Y000025
X-0011Y-00005
X-00110016Y-000125
X-001175Y-000075
Y0
X-00135Y0
X-00145
Y-0001
X-00135
Y000125
X-00125
X-0012Y000225
X-00120016Y0003
Y0004
X-00135Y0004
X-00145
Y0003
X-00135
Y000525
X-00104Y0004
X-0011Y000325
X-0016Y000325
Y00025
Y000175
X-00159984Y-000075
Y-00015
X-0016Y-000225
Y-0005
Y-000575
Y-000725
X-00159984Y-0008
X-0016Y-0009
X-001225Y-00095
Y-001075
X-00105Y-00105
X-000875Y-00095
Y-00085
X-001075Y-000675
X-00092465Y-000325
X-00085
X-000775
X-0007
X-000625
X-00055
X-000475
X-000325Y-000075
Y0
X0
X00019209Y00020081
X00035214Y00015
Y-00015
X00022468Y-00019968
X00050016Y-000375
X00055Y-0006
X000625Y-000625
Y-000875
Y-000975
X000825Y-000875
X001075Y-001
X00135Y-00117
X0013975Y-0017425
X0009025
X0007475
X000325Y-001575
Y-001425
X0000625Y-0014225
X-0000625
X-00025Y-00154786
X-0005875Y-0014225
X-0007125Y-0014225
X-0008375
X-00085Y-001565
X-000625Y-001775
X-0013975Y-0017425
X-0018Y-001275
X-0018635Y-000572
Y-000445
Y-000318
Y-000191
Y-000064
Y000063
Y00019
Y000317
Y000444
Y000571
X-00097Y-00019
X-00009Y-000425
Y-000575
X0001Y-00065
X000075Y-0009
X-000075Y-00095
X-0001Y-00085
X-000235Y-0007725
X-00025Y-00105
X-000425Y-001075
Y-00095
X-00015Y000275
X-0001Y00044
X00005Y0004
Y0006
X000125
X0002
X00085
X0011875Y00059
X0013125
X00143968Y00071
X001625Y0008
X00185285Y00082214
X0018635Y000571
Y000444
Y000317
Y00019
Y000063
Y-000064
Y-000191
Y-000318
Y-000445
Y-000572
X00134Y00009
X00121Y00024
X0011Y00045
X00112Y00071
X0011875Y00081
X0017Y0011
X001695Y00125
X0016Y0013
X00165Y00135
Y0014275
X00178Y001505
Y001595
X00157Y00181
X00148Y001805
Y001895
X00025Y001675
Y001375
X00055Y0
X0005508Y-000075
X0009Y-00005
X00095Y000025
X00113Y-00001
X00089Y00026
X0021365Y000317
Y00019
Y000063
Y-000064
Y-000191
Y-000318
Y-000445
Y-000572
Y000444
Y000571
X00213Y000905
Y000995
X00198Y001205
Y001295
X0011Y002
X00105Y002045
X001Y002
Y001925
X00095Y00215
X00075Y002215
X000575Y002125
X00045
X00038016
X000325Y00208
X00025Y002075
X000175
X0001
X000025
X-00005
X-000175Y002
X000125Y00195
Y002375
X00005
X-00028Y00237
X-0003813Y00236059
X-00044976Y00235
X-000475Y002075
X-000575
Y001925
X-0009
Y002
X-00086638Y00216032
X-00099786Y00215
X00045Y002375
T02
X-0007Y-001675
X-0001
X0007Y-0004
Y0003
T03
X-00165286Y00089715
X-00155143Y00082072
X-001475Y00092214
X-00157643Y00099857
X-0015Y0011
X-00139857Y00102357
X-00132214Y001125
X-00142357Y00120143
X-00134714Y00130285
X-00124571Y00122642
T04
X-002Y-0007305
Y0007305
X002
Y-0007305
M30
