G04*
G04 #@! TF.GenerationSoftware,Altium Limited,Altium Designer,24.4.1 (13)*
G04*
G04 Layer_Physical_Order=1*
G04 Layer_Color=255*
%FSLAX44Y44*%
%MOMM*%
G71*
G04*
G04 #@! TF.SameCoordinates,36E66750-E4A1-4D4F-82B0-1BBA9B0B1F2C*
G04*
G04*
G04 #@! TF.FilePolarity,Positive*
G04*
G01*
G75*
%ADD12C,0.2000*%
%ADD13C,0.5000*%
%ADD18C,0.2736*%
%ADD19R,0.5500X0.3500*%
%ADD20R,1.6200X2.4000*%
%ADD21R,2.9400X2.9400*%
%ADD22O,0.6500X0.3500*%
%ADD23O,0.3500X0.6500*%
%ADD24R,0.6725X0.7154*%
%ADD25R,0.6000X1.7000*%
%ADD26R,1.0000X2.7000*%
%ADD27R,2.9200X0.7400*%
%ADD28R,0.7154X0.6725*%
%ADD29R,1.5000X0.5500*%
%ADD30R,0.3500X0.5000*%
%ADD31R,1.0000X1.6000*%
%ADD32R,0.6000X1.1000*%
%ADD33R,0.6500X0.6500*%
%ADD34R,0.5000X0.3500*%
G04:AMPARAMS|DCode=35|XSize=0.95mm|YSize=0.8mm|CornerRadius=0.1mm|HoleSize=0mm|Usage=FLASHONLY|Rotation=90.000|XOffset=0mm|YOffset=0mm|HoleType=Round|Shape=RoundedRectangle|*
%AMROUNDEDRECTD35*
21,1,0.9500,0.6000,0,0,90.0*
21,1,0.7500,0.8000,0,0,90.0*
1,1,0.2000,0.3000,0.3750*
1,1,0.2000,0.3000,-0.3750*
1,1,0.2000,-0.3000,-0.3750*
1,1,0.2000,-0.3000,0.3750*
%
%ADD35ROUNDEDRECTD35*%
%ADD36R,1.2000X1.4000*%
G04:AMPARAMS|DCode=37|XSize=0.95mm|YSize=0.8mm|CornerRadius=0.1mm|HoleSize=0mm|Usage=FLASHONLY|Rotation=233.000|XOffset=0mm|YOffset=0mm|HoleType=Round|Shape=RoundedRectangle|*
%AMROUNDEDRECTD37*
21,1,0.9500,0.6000,0,0,233.0*
21,1,0.7500,0.8000,0,0,233.0*
1,1,0.2000,-0.4653,-0.1189*
1,1,0.2000,-0.0139,0.4800*
1,1,0.2000,0.4653,0.1189*
1,1,0.2000,0.0139,-0.4800*
%
%ADD37ROUNDEDRECTD37*%
%ADD38R,1.1400X0.5750*%
G04:AMPARAMS|DCode=39|XSize=0.2125mm|YSize=1.3552mm|CornerRadius=0.1062mm|HoleSize=0mm|Usage=FLASHONLY|Rotation=180.000|XOffset=0mm|YOffset=0mm|HoleType=Round|Shape=RoundedRectangle|*
%AMROUNDEDRECTD39*
21,1,0.2125,1.1428,0,0,180.0*
21,1,0.0000,1.3552,0,0,180.0*
1,1,0.2125,0.0000,0.5714*
1,1,0.2125,0.0000,0.5714*
1,1,0.2125,0.0000,-0.5714*
1,1,0.2125,0.0000,-0.5714*
%
%ADD39ROUNDEDRECTD39*%
G04:AMPARAMS|DCode=40|XSize=1.3552mm|YSize=0.2125mm|CornerRadius=0.1062mm|HoleSize=0mm|Usage=FLASHONLY|Rotation=180.000|XOffset=0mm|YOffset=0mm|HoleType=Round|Shape=RoundedRectangle|*
%AMROUNDEDRECTD40*
21,1,1.3552,0.0000,0,0,180.0*
21,1,1.1428,0.2125,0,0,180.0*
1,1,0.2125,-0.5714,0.0000*
1,1,0.2125,0.5714,0.0000*
1,1,0.2125,0.5714,0.0000*
1,1,0.2125,-0.5714,0.0000*
%
%ADD40ROUNDEDRECTD40*%
%ADD41R,1.3552X0.2125*%
%ADD42R,2.5000X2.5000*%
G04:AMPARAMS|DCode=43|XSize=1.1mm|YSize=0.45mm|CornerRadius=0mm|HoleSize=0mm|Usage=FLASHONLY|Rotation=125.000|XOffset=0mm|YOffset=0mm|HoleType=Round|Shape=Rectangle|*
%AMROTATEDRECTD43*
4,1,4,0.4998,-0.3215,0.1312,-0.5796,-0.4998,0.3215,-0.1312,0.5796,0.4998,-0.3215,0.0*
%
%ADD43ROTATEDRECTD43*%

%ADD44R,0.8500X0.3000*%
%ADD45R,0.3000X0.8500*%
%ADD46R,1.5000X1.0000*%
G04:AMPARAMS|DCode=47|XSize=1.4mm|YSize=1.2mm|CornerRadius=0mm|HoleSize=0mm|Usage=FLASHONLY|Rotation=233.000|XOffset=0mm|YOffset=0mm|HoleType=Round|Shape=Rectangle|*
%AMROTATEDRECTD47*
4,1,4,-0.0579,0.9201,0.9005,0.1979,0.0579,-0.9201,-0.9005,-0.1979,-0.0579,0.9201,0.0*
%
%ADD47ROTATEDRECTD47*%

%ADD48R,0.8000X0.5000*%
%ADD49R,0.8000X1.3000*%
%ADD50R,0.8000X1.3000*%
%ADD51R,3.6000X3.6000*%
%ADD71C,0.5000*%
%AMCUSTOMSHAPE73*
4,1,28,1.2250,1.1400,1.2250,0.7250,1.6050,0.7250,1.6050,0.2950,1.2250,0.2950,1.2250,-0.8400,1.1750,-0.8400,1.1750,-1.1400,0.7750,-1.1400,0.7750,-0.8400,0.5250,-0.8400,0.5250,-1.1400,0.1250,-1.1400,0.1250,-0.8400,-0.1250,-0.8400,-0.1250,-1.1400,-0.5250,-1.1400,-0.5250,-0.8400,-0.7750,-0.8400,-0.7750,-1.1400,-1.1750,-1.1400,-1.1750,-0.8400,-1.2250,-0.8400,-1.2250,0.2950,-1.6050,0.2950,-1.6050,0.7250,-1.2250,0.7250,-1.2250,1.1400,1.2250,1.1400,0.0*%
%ADD73CUSTOMSHAPE73*%

%AMCUSTOMSHAPE74*
4,1,28,1.1400,-1.2250,0.7250,-1.2250,0.7250,-1.6050,0.2950,-1.6050,0.2950,-1.2250,-0.8400,-1.2250,-0.8400,-1.1750,-1.1400,-1.1750,-1.1400,-0.7750,-0.8400,-0.7750,-0.8400,-0.5250,-1.1400,-0.5250,-1.1400,-0.1250,-0.8400,-0.1250,-0.8400,0.1250,-1.1400,0.1250,-1.1400,0.5250,-0.8400,0.5250,-0.8400,0.7750,-1.1400,0.7750,-1.1400,1.1750,-0.8400,1.1750,-0.8400,1.2250,0.2950,1.2250,0.2950,1.6050,0.7250,1.6050,0.7250,1.2250,1.1400,1.2250,1.1400,-1.2250,0.0*%
%ADD74CUSTOMSHAPE74*%

%AMCUSTOMSHAPE75*
4,1,28,-1.1400,1.2250,-0.7250,1.2250,-0.7250,1.6050,-0.2950,1.6050,-0.2950,1.2250,0.8400,1.2250,0.8400,1.1750,1.1400,1.1750,1.1400,0.7750,0.8400,0.7750,0.8400,0.5250,1.1400,0.5250,1.1400,0.1250,0.8400,0.1250,0.8400,-0.1250,1.1400,-0.1250,1.1400,-0.5250,0.8400,-0.5250,0.8400,-0.7750,1.1400,-0.7750,1.1400,-1.1750,0.8400,-1.1750,0.8400,-1.2250,-0.2950,-1.2250,-0.2950,-1.6050,-0.7250,-1.6050,-0.7250,-1.2250,-1.1400,-1.2250,-1.1400,1.2250,0.0*%
%ADD75CUSTOMSHAPE75*%

%ADD76R,0.3000X0.5000*%
%ADD77C,0.3000*%
%ADD78C,1.4000*%
%ADD79C,1.0600*%
%ADD80P,1.4991X4X98.0*%
%ADD81C,0.7500*%
G36*
X14167Y248179D02*
X29464Y246831D01*
X44650Y244541D01*
X59664Y241317D01*
X74451Y237172D01*
X88953Y232123D01*
X103117Y226187D01*
X116886Y219388D01*
X130210Y211752D01*
X143037Y203308D01*
X155318Y194088D01*
X167006Y184127D01*
X178057Y173463D01*
X188427Y162138D01*
X198079Y150194D01*
X206975Y137676D01*
X215082Y124634D01*
X222367Y111115D01*
X228804Y97172D01*
X234368Y82859D01*
X239037Y68229D01*
X242793Y53339D01*
X245624Y38245D01*
X247516Y23006D01*
X248465Y7678D01*
Y0D01*
Y-6297D01*
X248254Y-10451D01*
X248183Y-10577D01*
X247334Y-11332D01*
X247228Y-11400D01*
X167500D01*
X167325Y-11473D01*
X166056Y-10730D01*
Y49670D01*
X166071Y49751D01*
X166071Y49751D01*
Y67165D01*
X180112Y81205D01*
X181530Y80828D01*
X181894Y79949D01*
X183020Y78823D01*
X184490Y78215D01*
X186081D01*
X187551Y78823D01*
X188676Y79949D01*
X189286Y81419D01*
Y83010D01*
X188676Y84480D01*
X187551Y85605D01*
X186672Y85969D01*
X186295Y87388D01*
X194891Y95984D01*
X202016D01*
Y103016D01*
X191984D01*
Y99072D01*
X191292Y98519D01*
X190072Y99058D01*
Y124984D01*
X189915Y125771D01*
X189470Y126438D01*
X187016Y128891D01*
Y133016D01*
X176984D01*
Y125984D01*
X184109D01*
X185961Y124133D01*
Y97133D01*
X167673Y78846D01*
X167254Y78974D01*
X166500Y79468D01*
Y80796D01*
X165891Y82266D01*
X164766Y83391D01*
X163296Y84000D01*
X162780D01*
Y90622D01*
X164807D01*
Y99378D01*
X155622D01*
Y95703D01*
X153388D01*
X152406Y95508D01*
X151574Y94952D01*
X144138Y87516D01*
X139969D01*
X139237Y88580D01*
X156351Y105695D01*
X157750D01*
X157750Y105695D01*
X157949Y105734D01*
X164266D01*
Y114266D01*
X155734D01*
Y109805D01*
X155500D01*
X154713Y109649D01*
X154046Y109203D01*
X154046Y109203D01*
X132359Y87516D01*
X128143D01*
X127109Y87976D01*
X126925Y88658D01*
X126899Y88787D01*
X126454Y89453D01*
X121438Y94469D01*
X120771Y94915D01*
X119984Y95071D01*
X119984Y95071D01*
X101091D01*
Y99239D01*
X101091Y99239D01*
X100935Y100026D01*
X100490Y100693D01*
X100489Y100693D01*
X89729Y111454D01*
X89062Y111899D01*
X88275Y112056D01*
X88275Y112056D01*
X83089D01*
X82704Y113326D01*
X82967Y113502D01*
X83426Y114189D01*
X83588Y115000D01*
X83426Y115811D01*
X82967Y116498D01*
X82522Y116796D01*
X82409Y117380D01*
Y117620D01*
X82522Y118204D01*
X82967Y118502D01*
X83426Y119189D01*
X83588Y120000D01*
X83426Y120811D01*
X82967Y121498D01*
X82522Y121796D01*
X82409Y122380D01*
Y122620D01*
X82522Y123204D01*
X82967Y123502D01*
X84257Y123571D01*
X95789Y112039D01*
X95789Y112038D01*
X96456Y111593D01*
X97243Y111437D01*
X100622D01*
Y105193D01*
X109378D01*
Y111437D01*
X126964D01*
X127104Y111297D01*
X127104Y111297D01*
X127771Y110851D01*
X128284Y110749D01*
Y106984D01*
X141716D01*
Y114766D01*
X141716D01*
Y115234D01*
X141716D01*
Y123016D01*
X128284D01*
Y119251D01*
X127771Y119149D01*
X127104Y118703D01*
X127104Y118703D01*
X126964Y118563D01*
X109378D01*
Y124807D01*
X100622D01*
Y118563D01*
X99343D01*
X93080Y124827D01*
X93584Y126119D01*
X94766Y126609D01*
X95891Y127734D01*
X96500Y129204D01*
Y130796D01*
X95891Y132266D01*
X94766Y133391D01*
X93296Y134000D01*
X91704D01*
X90234Y133391D01*
X89109Y132266D01*
X88619Y131084D01*
X87970Y130739D01*
X87824Y130694D01*
X87230Y130605D01*
X86779Y130907D01*
X85992Y131063D01*
X85992Y131063D01*
X83346D01*
X83080Y131329D01*
X82967Y131498D01*
X82280Y131958D01*
X81469Y132119D01*
X70041D01*
X69230Y131958D01*
X68543Y131498D01*
X68083Y130811D01*
X67922Y130000D01*
X68083Y129189D01*
X68543Y128502D01*
X68987Y128204D01*
X69101Y127620D01*
Y127380D01*
X68987Y126796D01*
X68543Y126498D01*
X68083Y125811D01*
X67922Y125000D01*
X68083Y124189D01*
X68543Y123502D01*
X68987Y123204D01*
X69101Y122620D01*
Y122380D01*
X68987Y121796D01*
X68543Y121498D01*
X68083Y120811D01*
X67922Y120000D01*
X68083Y119189D01*
X68320Y118835D01*
X67895Y117730D01*
X67757Y117565D01*
X60592D01*
X59766Y118391D01*
X58296Y119000D01*
X56704D01*
X55702Y118585D01*
X27000D01*
X25628Y118312D01*
X24465Y117535D01*
X9965Y103035D01*
X9188Y101872D01*
X8915Y100500D01*
Y99298D01*
X8500Y98296D01*
Y96704D01*
X9109Y95234D01*
X10234Y94109D01*
X11416Y93619D01*
X11920Y92327D01*
X8547Y88954D01*
X8325Y88623D01*
X7056Y89008D01*
Y89188D01*
X7056Y89188D01*
X6899Y89975D01*
X6453Y90642D01*
X6175Y90920D01*
X6500Y91704D01*
Y93296D01*
X5891Y94766D01*
X4766Y95891D01*
X3296Y96500D01*
X1704D01*
X234Y95891D01*
X-427Y95230D01*
X-1250Y94907D01*
X-2073Y95230D01*
X-2734Y95891D01*
X-4204Y96500D01*
X-5796D01*
X-7266Y95891D01*
X-7927Y95230D01*
X-8750Y94907D01*
X-9573Y95230D01*
X-10234Y95891D01*
X-11704Y96500D01*
X-13296D01*
X-14766Y95891D01*
X-15427Y95230D01*
X-16250Y94907D01*
X-17073Y95230D01*
X-17734Y95891D01*
X-19204Y96500D01*
X-20796D01*
X-22266Y95891D01*
X-22927Y95230D01*
X-23750Y94907D01*
X-24573Y95230D01*
X-25234Y95891D01*
X-26704Y96500D01*
X-28296D01*
X-29766Y95891D01*
X-30891Y94766D01*
X-31500Y93296D01*
Y91704D01*
X-31363Y91373D01*
X-31453Y91282D01*
X-31899Y90615D01*
X-32055Y89828D01*
X-32055Y89828D01*
Y81579D01*
X-33326Y81194D01*
X-33502Y81457D01*
X-34189Y81917D01*
X-35000Y82078D01*
X-35811Y81917D01*
X-36498Y81457D01*
X-36796Y81013D01*
X-37380Y80899D01*
X-37620D01*
X-38204Y81013D01*
X-38502Y81457D01*
X-39189Y81917D01*
X-40000Y82078D01*
X-40811Y81917D01*
X-41498Y81457D01*
X-41796Y81013D01*
X-42380Y80899D01*
X-42620D01*
X-43204Y81013D01*
X-43502Y81457D01*
X-44067Y81835D01*
X-44141Y82477D01*
X-44080Y83190D01*
X-43547Y83546D01*
X-41047Y86046D01*
X-40601Y86713D01*
X-40444Y87500D01*
X-40444Y87500D01*
Y89022D01*
X-40234Y89109D01*
X-39109Y90234D01*
X-38500Y91704D01*
Y93296D01*
X-39109Y94766D01*
X-40234Y95891D01*
X-41704Y96500D01*
X-43296D01*
X-44766Y95891D01*
X-45269Y95388D01*
X-46254Y94984D01*
X-46927Y95389D01*
X-47569Y96032D01*
X-49039Y96641D01*
X-50235D01*
X-53408Y99814D01*
X-54240Y100370D01*
X-54719Y100465D01*
X-54921Y100914D01*
X-55047Y101796D01*
X-54109Y102734D01*
X-53500Y104204D01*
Y105796D01*
X-54109Y107266D01*
X-54770Y107927D01*
X-55093Y108750D01*
X-54770Y109573D01*
X-54109Y110234D01*
X-53500Y111704D01*
Y113296D01*
X-54109Y114766D01*
X-54770Y115427D01*
X-55036Y116105D01*
X-54481Y117306D01*
X-53750Y117593D01*
X-52927Y117270D01*
X-52266Y116609D01*
X-50796Y116000D01*
X-49204D01*
X-47734Y116609D01*
X-46609Y117734D01*
X-46000Y119204D01*
Y120796D01*
X-46609Y122266D01*
X-47734Y123391D01*
X-49204Y124000D01*
X-50796D01*
X-51006Y123913D01*
X-53547Y126453D01*
X-54213Y126899D01*
X-55000Y127056D01*
X-55000Y127056D01*
X-60206D01*
X-60206Y127056D01*
X-60993Y126899D01*
X-61660Y126453D01*
X-61660Y126453D01*
X-66058Y122056D01*
X-68421D01*
X-68806Y123326D01*
X-68543Y123502D01*
X-68083Y124189D01*
X-67922Y125000D01*
X-68083Y125811D01*
X-68543Y126498D01*
X-68987Y126796D01*
X-69101Y127380D01*
Y127620D01*
X-68987Y128204D01*
X-68543Y128502D01*
X-68083Y129189D01*
X-67922Y130000D01*
X-68083Y130811D01*
X-68543Y131498D01*
X-68987Y131796D01*
X-69101Y132380D01*
Y132620D01*
X-68987Y133204D01*
X-68543Y133502D01*
X-68083Y134189D01*
X-67922Y135000D01*
X-68083Y135811D01*
X-68543Y136498D01*
X-68987Y136796D01*
X-69101Y137380D01*
Y137620D01*
X-68987Y138204D01*
X-68543Y138502D01*
X-68083Y139189D01*
X-67922Y140000D01*
X-68083Y140811D01*
X-68543Y141498D01*
X-68987Y141796D01*
X-69101Y142380D01*
Y142620D01*
X-68987Y143204D01*
X-68543Y143502D01*
X-68083Y144189D01*
X-67922Y145000D01*
X-68083Y145811D01*
X-68543Y146498D01*
X-68987Y146796D01*
X-69101Y147380D01*
Y147620D01*
X-68987Y148204D01*
X-68543Y148502D01*
X-68083Y149189D01*
X-67922Y150000D01*
X-68083Y150811D01*
X-68543Y151498D01*
X-68987Y151796D01*
X-69101Y152380D01*
Y152620D01*
X-68987Y153204D01*
X-68543Y153502D01*
X-68083Y154189D01*
X-67922Y155000D01*
X-68083Y155811D01*
X-68543Y156498D01*
X-68987Y156796D01*
X-69101Y157380D01*
Y157620D01*
X-68987Y158204D01*
X-68543Y158502D01*
X-68083Y159189D01*
X-67922Y160000D01*
X-68083Y160811D01*
X-68543Y161498D01*
X-68987Y161796D01*
X-69101Y162380D01*
Y162620D01*
X-68987Y163204D01*
X-68543Y163502D01*
X-68083Y164189D01*
X-67922Y165000D01*
X-68083Y165811D01*
X-68543Y166498D01*
X-68987Y166796D01*
X-69101Y167380D01*
Y167620D01*
X-68987Y168204D01*
X-68543Y168502D01*
X-68083Y169189D01*
X-67922Y170000D01*
X-68083Y170811D01*
X-68543Y171498D01*
X-68987Y171796D01*
X-69101Y172380D01*
Y172620D01*
X-68987Y173204D01*
X-68543Y173502D01*
X-68083Y174189D01*
X-67922Y175000D01*
X-68083Y175811D01*
X-68543Y176498D01*
X-68987Y176796D01*
X-69101Y177380D01*
Y177620D01*
X-68987Y178204D01*
X-68543Y178502D01*
X-68083Y179189D01*
X-67922Y180000D01*
X-68083Y180811D01*
X-68543Y181498D01*
X-68987Y181796D01*
X-69101Y182380D01*
Y182620D01*
X-68987Y183204D01*
X-68543Y183502D01*
X-68083Y184189D01*
X-67922Y185000D01*
X-68083Y185811D01*
X-68543Y186498D01*
X-68987Y186796D01*
X-69101Y187380D01*
Y187620D01*
X-68987Y188204D01*
X-68543Y188502D01*
X-68083Y189189D01*
X-67922Y190000D01*
X-68083Y190811D01*
X-68223Y191020D01*
X-67236Y191829D01*
X-61413Y186006D01*
X-61500Y185796D01*
Y184204D01*
X-60891Y182734D01*
X-59766Y181609D01*
X-58296Y181000D01*
X-56704D01*
X-55234Y181609D01*
X-54109Y182734D01*
X-53500Y184204D01*
Y185796D01*
X-54109Y187266D01*
X-54770Y187927D01*
X-55093Y188750D01*
X-54770Y189573D01*
X-54109Y190234D01*
X-53500Y191704D01*
Y193296D01*
X-54109Y194766D01*
X-55234Y195891D01*
X-56704Y196500D01*
X-58296D01*
X-58506Y196413D01*
X-63547Y201453D01*
X-64213Y201899D01*
X-65000Y202055D01*
X-65000Y202055D01*
X-68421D01*
X-68806Y203326D01*
X-68543Y203502D01*
X-68083Y204189D01*
X-67922Y205000D01*
X-68083Y205811D01*
X-68543Y206498D01*
X-68987Y206796D01*
X-69101Y207380D01*
Y207620D01*
X-68987Y208204D01*
X-68543Y208502D01*
X-68083Y209189D01*
X-67922Y210000D01*
X-68083Y210811D01*
X-68543Y211498D01*
X-69230Y211958D01*
X-70041Y212119D01*
X-81469D01*
X-81788Y212055D01*
X-83161D01*
X-83687Y213326D01*
X-83247Y213766D01*
X-82638Y215236D01*
Y216828D01*
X-83247Y218298D01*
X-84372Y219423D01*
X-85842Y220032D01*
X-87433D01*
X-88903Y219423D01*
X-90029Y218298D01*
X-90638Y216828D01*
Y215236D01*
X-90029Y213766D01*
X-89588Y213326D01*
X-90114Y212055D01*
X-91336D01*
X-92123Y211899D01*
X-92790Y211453D01*
X-92790Y211453D01*
X-95311Y208932D01*
X-96484Y209419D01*
Y212645D01*
X-96395Y212734D01*
X-95786Y214204D01*
Y215796D01*
X-96395Y217266D01*
X-97520Y218391D01*
X-98990Y219000D01*
X-100581D01*
X-102051Y218391D01*
X-103177Y217266D01*
X-103786Y215796D01*
Y215016D01*
X-113516D01*
Y207484D01*
X-98419D01*
X-97933Y206311D01*
X-100470Y203774D01*
X-100915Y203107D01*
X-101072Y202320D01*
X-101072Y202320D01*
Y201101D01*
X-101101Y201071D01*
X-105984D01*
X-105984Y201071D01*
X-106065Y201056D01*
X-111000D01*
X-111000Y201056D01*
X-111787Y200899D01*
X-112453Y200453D01*
X-112453Y200453D01*
X-136851Y176056D01*
X-159000D01*
X-159787Y175899D01*
X-160453Y175453D01*
X-160453Y175453D01*
X-160454Y175453D01*
X-160950Y175121D01*
X-160950Y175121D01*
X-169179Y166892D01*
X-169625Y166225D01*
X-169781Y165439D01*
X-169781Y165439D01*
Y165420D01*
X-169818Y165238D01*
X-169818Y165238D01*
Y150583D01*
X-178015Y142386D01*
X-178225Y142473D01*
X-179816D01*
X-181286Y141864D01*
X-182411Y140739D01*
X-183020Y139269D01*
Y137677D01*
X-182411Y136207D01*
X-181286Y135082D01*
X-179816Y134473D01*
X-178225D01*
X-176755Y135082D01*
X-175629Y136207D01*
X-175020Y137677D01*
Y139269D01*
X-175107Y139479D01*
X-167975Y146611D01*
X-166802Y146125D01*
Y134042D01*
X-174969Y125875D01*
X-176046Y126594D01*
X-176000Y126704D01*
Y128296D01*
X-176609Y129766D01*
X-177734Y130891D01*
X-179204Y131500D01*
X-180796D01*
X-182266Y130891D01*
X-183391Y129766D01*
X-184000Y128296D01*
Y126704D01*
X-183391Y125234D01*
X-182266Y124109D01*
X-182227Y124093D01*
Y113172D01*
X-182227Y113172D01*
X-182071Y112385D01*
X-181625Y111718D01*
X-178454Y108547D01*
X-178454Y108546D01*
X-177787Y108101D01*
X-177000Y107944D01*
X-177000Y107944D01*
X-165000D01*
X-165000Y107944D01*
X-164213Y108101D01*
X-163547Y108546D01*
X-158975Y113118D01*
X-158975Y113118D01*
X-158530Y113785D01*
X-158373Y114571D01*
X-158373Y114571D01*
Y115628D01*
X-157103Y116364D01*
X-156225Y116000D01*
X-154633D01*
X-153163Y116609D01*
X-152038Y117734D01*
X-151429Y119204D01*
Y120796D01*
X-152038Y122266D01*
X-153163Y123391D01*
X-154633Y124000D01*
X-156225D01*
X-156659Y124290D01*
Y155284D01*
X-155389Y155999D01*
X-154474Y155620D01*
X-152882D01*
X-151412Y156229D01*
X-150287Y157354D01*
X-149678Y158824D01*
Y160416D01*
X-150180Y161626D01*
X-149638Y162896D01*
X-144628D01*
X-143516Y162516D01*
X-143516Y161626D01*
Y154984D01*
X-139556D01*
Y153478D01*
X-139766Y153391D01*
X-140891Y152266D01*
X-141500Y150796D01*
Y149204D01*
X-140891Y147734D01*
X-139766Y146609D01*
X-138296Y146000D01*
X-136704D01*
X-135234Y146609D01*
X-134109Y147734D01*
X-133500Y149204D01*
Y150796D01*
X-134109Y152266D01*
X-135234Y153391D01*
X-135444Y153478D01*
Y154984D01*
X-126484D01*
Y162516D01*
X-130044D01*
X-130148Y162652D01*
X-130511Y163786D01*
X-114689Y179608D01*
X-113516Y179122D01*
Y174984D01*
X-96484D01*
Y181786D01*
X-96000Y182954D01*
Y184546D01*
X-96609Y186016D01*
X-96752Y186159D01*
X-96226Y187428D01*
X-93828D01*
X-93828Y187428D01*
X-93041Y187585D01*
X-92374Y188030D01*
X-91580Y188825D01*
X-90796Y188500D01*
X-89204D01*
X-87734Y189109D01*
X-86609Y190234D01*
X-86000Y191704D01*
Y193296D01*
X-86609Y194766D01*
X-87270Y195427D01*
X-87593Y196250D01*
X-87270Y197073D01*
X-86609Y197734D01*
X-86000Y199204D01*
Y200796D01*
X-86364Y201674D01*
X-85628Y202945D01*
X-83089D01*
X-82704Y201674D01*
X-82967Y201498D01*
X-83426Y200811D01*
X-83588Y200000D01*
X-83426Y199189D01*
X-82967Y198502D01*
X-82522Y198204D01*
X-82409Y197620D01*
Y197380D01*
X-82522Y196796D01*
X-82967Y196498D01*
X-83426Y195811D01*
X-83588Y195000D01*
X-83426Y194189D01*
X-82967Y193502D01*
X-82522Y193204D01*
X-82409Y192620D01*
Y192380D01*
X-82522Y191796D01*
X-82967Y191498D01*
X-83426Y190811D01*
X-83588Y190000D01*
X-83426Y189189D01*
X-82967Y188502D01*
X-82522Y188204D01*
X-82409Y187620D01*
Y187380D01*
X-82522Y186796D01*
X-82967Y186498D01*
X-83426Y185811D01*
X-83588Y185000D01*
X-83426Y184189D01*
X-82967Y183502D01*
X-82522Y183204D01*
X-82409Y182620D01*
Y182380D01*
X-82522Y181796D01*
X-82967Y181498D01*
X-83426Y180811D01*
X-83588Y180000D01*
X-83426Y179189D01*
X-82967Y178502D01*
X-82522Y178204D01*
X-82409Y177620D01*
Y177380D01*
X-82522Y176796D01*
X-82967Y176498D01*
X-83399Y175852D01*
X-83434Y175809D01*
X-84793Y175450D01*
X-85234Y175891D01*
X-86704Y176500D01*
X-88296D01*
X-89766Y175891D01*
X-90891Y174766D01*
X-91500Y173296D01*
Y171704D01*
X-90891Y170234D01*
X-90230Y169573D01*
X-89907Y168750D01*
X-90230Y167927D01*
X-90891Y167266D01*
X-91500Y165796D01*
Y164204D01*
X-90891Y162734D01*
X-89766Y161609D01*
X-88296Y161000D01*
X-86704D01*
X-85234Y161609D01*
X-84296Y162548D01*
X-83699Y162516D01*
X-83341Y162019D01*
X-83212Y161132D01*
X-83426Y160811D01*
X-83588Y160000D01*
X-83426Y159189D01*
X-82967Y158502D01*
X-82522Y158204D01*
X-82409Y157620D01*
Y157380D01*
X-82522Y156796D01*
X-82967Y156498D01*
X-83426Y155811D01*
X-83588Y155000D01*
X-83426Y154189D01*
X-82967Y153502D01*
X-82522Y153204D01*
X-82409Y152620D01*
Y152380D01*
X-82522Y151796D01*
X-82967Y151498D01*
X-83148Y151227D01*
X-105501Y128874D01*
X-105947Y128207D01*
X-106103Y127421D01*
X-106103Y127421D01*
Y94048D01*
X-106103Y94048D01*
X-105947Y93261D01*
X-105501Y92594D01*
X-72056Y59149D01*
Y49372D01*
X-73326Y48636D01*
X-74204Y49000D01*
X-75796D01*
X-77266Y48391D01*
X-77743Y47913D01*
X-78515Y48020D01*
X-79187Y48265D01*
X-79520Y48764D01*
X-79520Y48764D01*
X-85226Y54469D01*
X-85893Y54915D01*
X-86680Y55072D01*
X-86680Y55072D01*
X-97532D01*
X-99553Y57092D01*
X-98786Y58122D01*
X-92693D01*
Y66878D01*
X-101878D01*
Y61214D01*
X-102907Y60447D01*
X-104929Y62468D01*
Y67727D01*
X-104929Y67727D01*
X-105085Y68513D01*
X-105531Y69180D01*
X-105531Y69180D01*
X-108796Y72446D01*
X-109463Y72891D01*
X-110249Y73048D01*
X-110250Y73048D01*
X-110771D01*
X-120969Y83246D01*
Y84497D01*
X-112241Y96080D01*
X-123448Y104525D01*
X-133096Y91721D01*
X-125080Y85681D01*
Y82395D01*
X-125080Y82395D01*
X-124924Y81608D01*
X-124478Y80941D01*
X-117998Y74461D01*
X-118833Y73500D01*
X-123111Y76724D01*
X-132759Y63920D01*
X-127297Y59804D01*
X-127700Y58600D01*
X-140000D01*
X-140778Y58278D01*
X-141100Y57500D01*
Y48016D01*
X-140778Y47238D01*
X-140000Y46916D01*
X-131984D01*
Y42766D01*
X-131662Y41988D01*
X-130916Y41680D01*
Y32234D01*
Y22234D01*
X-124000D01*
Y21704D01*
X-123391Y20234D01*
X-123027Y19870D01*
X-123553Y18600D01*
X-140000D01*
X-140778Y18278D01*
X-141100Y17500D01*
Y8016D01*
X-140778Y7238D01*
X-140000Y6916D01*
X-131984D01*
Y2766D01*
X-131662Y1988D01*
X-130916Y1680D01*
Y-7766D01*
Y-17766D01*
X-129206D01*
Y-30622D01*
X-129807D01*
Y-38900D01*
X-150193D01*
Y-30622D01*
X-156400D01*
X-156648Y-30572D01*
X-160800D01*
X-162935Y-28437D01*
Y-26881D01*
X-161665Y-26140D01*
X-160796Y-26500D01*
X-159204D01*
X-157734Y-25891D01*
X-156609Y-24766D01*
X-156227Y-23842D01*
X-156139Y-23825D01*
X-155472Y-23379D01*
X-153147Y-21054D01*
X-153147Y-21054D01*
X-152701Y-20387D01*
X-152544Y-19600D01*
X-152544Y-19600D01*
Y-17766D01*
X-149084D01*
Y-12766D01*
Y-2678D01*
X-148900Y-2234D01*
Y12500D01*
X-149222Y13278D01*
X-150000Y13600D01*
X-156447D01*
X-156973Y14870D01*
X-156609Y15234D01*
X-156000Y16704D01*
Y18296D01*
X-156087Y18506D01*
X-153147Y21446D01*
X-152701Y22113D01*
X-152677Y22234D01*
X-149084D01*
Y27234D01*
Y37322D01*
X-148900Y37766D01*
Y50600D01*
X-149222Y51378D01*
X-150000Y51700D01*
X-154720D01*
Y58122D01*
X-152693D01*
Y66878D01*
X-161878D01*
Y58122D01*
X-159851D01*
Y51700D01*
X-166268D01*
X-167234Y52434D01*
X-167234Y53248D01*
X-167150Y53450D01*
Y60850D01*
X-167234Y61052D01*
Y61866D01*
X-168048D01*
X-168250Y61950D01*
X-231750D01*
X-231952Y61866D01*
X-232766D01*
Y61052D01*
X-232850Y60850D01*
Y53450D01*
X-232766Y53248D01*
X-232766Y52434D01*
X-233732Y51700D01*
X-235000D01*
X-235778Y51378D01*
X-236100Y50600D01*
Y25600D01*
X-235778Y24822D01*
X-235000Y24500D01*
X-165000D01*
X-164000Y24204D01*
X-163391Y22734D01*
X-162730Y22073D01*
X-162407Y21250D01*
X-162730Y20427D01*
X-163391Y19766D01*
X-164000Y18296D01*
Y16704D01*
X-163391Y15234D01*
X-163027Y14870D01*
X-163553Y13600D01*
X-235000D01*
X-235778Y13278D01*
X-236100Y12500D01*
Y-12500D01*
X-235778Y-13278D01*
X-235000Y-13600D01*
X-168065D01*
Y-27034D01*
X-198466D01*
Y-36466D01*
X-167234D01*
Y-33053D01*
X-166061Y-32567D01*
X-163676Y-34952D01*
X-162844Y-35508D01*
X-161862Y-35703D01*
X-159378D01*
Y-39378D01*
X-154015D01*
X-153600Y-40000D01*
Y-65000D01*
X-153372Y-65550D01*
X-153600Y-66100D01*
Y-82944D01*
X-155612D01*
X-156348Y-81674D01*
X-155984Y-80796D01*
Y-79204D01*
X-156593Y-77734D01*
X-157259Y-77069D01*
X-157585Y-76260D01*
X-157265Y-75422D01*
X-156609Y-74766D01*
X-156000Y-73296D01*
Y-71704D01*
X-156609Y-70234D01*
X-157734Y-69109D01*
X-159204Y-68500D01*
X-160796D01*
X-162266Y-69109D01*
X-163391Y-70234D01*
X-164000Y-71704D01*
Y-73296D01*
X-163913Y-73506D01*
X-172486Y-82079D01*
X-172931Y-82745D01*
X-173088Y-83532D01*
X-173088Y-83532D01*
Y-110610D01*
X-188848Y-126370D01*
X-189293Y-127037D01*
X-189450Y-127823D01*
X-189450Y-127823D01*
Y-136031D01*
X-191943Y-137777D01*
X-184468Y-148452D01*
X-179118Y-144706D01*
X-185339Y-135821D01*
Y-129779D01*
X-184900Y-129442D01*
X-183391Y-129766D01*
X-182266Y-130891D01*
X-180796Y-131500D01*
X-180468D01*
X-173819Y-140996D01*
X-169509Y-137978D01*
X-168468Y-137249D01*
X-167428Y-136521D01*
X-163144Y-133521D01*
X-168359Y-126073D01*
X-166563Y-124276D01*
X-166562Y-124276D01*
X-166408Y-124045D01*
X-165128Y-123757D01*
X-164860Y-123797D01*
X-156556Y-132101D01*
Y-138750D01*
X-156399Y-139537D01*
X-155954Y-140204D01*
X-155287Y-140649D01*
X-154500Y-140806D01*
X-148500D01*
X-147713Y-140649D01*
X-147046Y-140204D01*
X-146601Y-139537D01*
X-146445Y-138750D01*
Y-131250D01*
X-146601Y-130463D01*
X-146998Y-129870D01*
X-146913Y-129473D01*
X-146552Y-128600D01*
X-143448D01*
X-143087Y-129473D01*
X-143002Y-129870D01*
X-143399Y-130463D01*
X-143555Y-131250D01*
Y-138750D01*
X-143399Y-139537D01*
X-142954Y-140204D01*
X-142287Y-140649D01*
X-141500Y-140806D01*
X-135500D01*
X-134713Y-140649D01*
X-134046Y-140204D01*
X-133601Y-139537D01*
X-133444Y-138750D01*
Y-131250D01*
X-133601Y-130463D01*
X-133998Y-129870D01*
X-133913Y-129473D01*
X-133552Y-128600D01*
X-106100D01*
X-106100Y-132734D01*
X-105834Y-133376D01*
Y-151766D01*
X-105804Y-151839D01*
X-105824Y-151915D01*
X-105646Y-152219D01*
X-105512Y-152544D01*
X-105439Y-152574D01*
X-105399Y-152642D01*
X-104433Y-153376D01*
X-104093Y-153465D01*
X-103768Y-153600D01*
X-89416D01*
X-88654Y-154870D01*
X-89000Y-155704D01*
Y-157296D01*
X-88391Y-158766D01*
X-87266Y-159891D01*
X-85796Y-160500D01*
X-84204D01*
X-82734Y-159891D01*
X-81609Y-158766D01*
X-81000Y-157296D01*
Y-155704D01*
X-81346Y-154870D01*
X-80584Y-153600D01*
X-77500D01*
X-76722Y-153278D01*
X-76400Y-152500D01*
Y-152094D01*
X-75266Y-151766D01*
X-75130Y-151766D01*
X-67234D01*
Y-132734D01*
X-75130D01*
X-75266Y-132734D01*
X-76400Y-132406D01*
Y-131000D01*
X-76473Y-130826D01*
X-75730Y-129556D01*
X-46602D01*
X-44056Y-132101D01*
Y-138750D01*
X-43899Y-139537D01*
X-43453Y-140204D01*
X-42787Y-140649D01*
X-42000Y-140806D01*
X-36000D01*
X-35213Y-140649D01*
X-34547Y-140204D01*
X-34101Y-139537D01*
X-33944Y-138750D01*
Y-131250D01*
X-34101Y-130463D01*
X-34498Y-129870D01*
X-34413Y-129473D01*
X-34052Y-128600D01*
X-30948D01*
X-30587Y-129473D01*
X-30502Y-129870D01*
X-30899Y-130463D01*
X-31056Y-131250D01*
Y-138750D01*
X-30899Y-139537D01*
X-30454Y-140204D01*
X-29787Y-140649D01*
X-29000Y-140806D01*
X-23000D01*
X-22213Y-140649D01*
X-21547Y-140204D01*
X-21101Y-139537D01*
X-20944Y-138750D01*
Y-131250D01*
X-21101Y-130463D01*
X-21498Y-129870D01*
X-21413Y-129473D01*
X-21052Y-128600D01*
X13900D01*
Y-152500D01*
X14222Y-153278D01*
X15000Y-153600D01*
X28947D01*
X29473Y-154870D01*
X29109Y-155234D01*
X28500Y-156704D01*
Y-158296D01*
X29109Y-159766D01*
X30234Y-160891D01*
X31704Y-161500D01*
X33296D01*
X34766Y-160891D01*
X35891Y-159766D01*
X36500Y-158296D01*
Y-156704D01*
X35891Y-155234D01*
X35430Y-154773D01*
X35744Y-153291D01*
X35778Y-153278D01*
X36100Y-152500D01*
Y-144262D01*
X36500Y-143296D01*
Y-141704D01*
X36100Y-140738D01*
Y-110000D01*
X35778Y-109222D01*
X35000Y-108900D01*
X-25000D01*
X-25550Y-109128D01*
X-26100Y-108900D01*
X-38096D01*
X-38500Y-108296D01*
Y-106704D01*
X-38053Y-106036D01*
X-34234D01*
Y-96004D01*
X-38361D01*
X-38500Y-95796D01*
Y-94204D01*
X-39109Y-92734D01*
X-40234Y-91609D01*
X-41704Y-91000D01*
X-43296D01*
X-43298Y-91001D01*
X-44017Y-89924D01*
X-38149Y-84056D01*
X-29750D01*
X-29750Y-84056D01*
X-28963Y-83899D01*
X-28296Y-83454D01*
X-25649Y-80806D01*
X-25369D01*
X-24296Y-81250D01*
X-22704D01*
X-21631Y-80806D01*
X-20500D01*
X-19713Y-80649D01*
X-19046Y-80204D01*
X-18601Y-79537D01*
X-18444Y-78750D01*
Y-71250D01*
X-18601Y-70463D01*
X-19046Y-69797D01*
X-19713Y-69351D01*
X-20500Y-69194D01*
X-26500D01*
X-27287Y-69351D01*
X-27953Y-69797D01*
X-28399Y-70463D01*
X-28556Y-71250D01*
Y-77899D01*
X-29872Y-79215D01*
X-31303Y-78950D01*
X-31444Y-78750D01*
Y-71250D01*
X-31601Y-70463D01*
X-32046Y-69797D01*
X-32713Y-69351D01*
X-33500Y-69194D01*
X-39500D01*
X-40287Y-69351D01*
X-40953Y-69797D01*
X-41399Y-70463D01*
X-41556Y-71250D01*
Y-72944D01*
X-46400D01*
Y-66100D01*
X6000D01*
X6108Y-66055D01*
X6609Y-67266D01*
X7303Y-67960D01*
X7152Y-68574D01*
X6742Y-69194D01*
X1000D01*
X213Y-69351D01*
X-453Y-69797D01*
X-899Y-70463D01*
X-1055Y-71250D01*
Y-78750D01*
X-899Y-79537D01*
X-453Y-80204D01*
X213Y-80649D01*
X1000Y-80806D01*
X1945D01*
Y-82648D01*
X-6494Y-91087D01*
X-6704Y-91000D01*
X-8296D01*
X-9766Y-91609D01*
X-10891Y-92734D01*
X-11500Y-94204D01*
Y-95796D01*
X-11639Y-96004D01*
X-15766D01*
Y-101036D01*
X-5234D01*
Y-98391D01*
X-4109Y-97266D01*
X-3500Y-95796D01*
Y-94204D01*
X-3587Y-93994D01*
X5454Y-84953D01*
X5899Y-84287D01*
X6055Y-83500D01*
Y-80806D01*
X7000D01*
X7787Y-80649D01*
X8454Y-80204D01*
X8899Y-79537D01*
X9056Y-78750D01*
Y-71250D01*
X8899Y-70463D01*
X8700Y-70166D01*
X8977Y-69526D01*
X9373Y-69000D01*
X10796D01*
X11400Y-69404D01*
Y-100000D01*
X11722Y-100778D01*
X12500Y-101100D01*
X47500D01*
X48278Y-100778D01*
X48600Y-100000D01*
Y-95917D01*
X49773Y-95431D01*
X53295Y-98953D01*
X53295Y-98954D01*
X53962Y-99399D01*
X54749Y-99556D01*
X59022D01*
X59109Y-99766D01*
X60234Y-100891D01*
X61704Y-101500D01*
X63296D01*
X64766Y-100891D01*
X65891Y-99766D01*
X66500Y-98296D01*
Y-96704D01*
X66384Y-96423D01*
X67671Y-95136D01*
X68845Y-95622D01*
Y-124150D01*
X68844Y-124150D01*
X69001Y-124937D01*
X69447Y-125604D01*
X74364Y-130521D01*
X73878Y-131694D01*
X73000D01*
X72213Y-131851D01*
X71547Y-132296D01*
X71101Y-132963D01*
X70944Y-133750D01*
Y-141250D01*
X71101Y-142037D01*
X71547Y-142704D01*
X72213Y-143149D01*
X73000Y-143306D01*
X79000D01*
X79787Y-143149D01*
X80453Y-142704D01*
X80899Y-142037D01*
X81055Y-141250D01*
Y-135139D01*
X81555Y-134805D01*
X82001Y-134138D01*
X82157Y-133352D01*
X82001Y-132565D01*
X81555Y-131898D01*
X72956Y-123299D01*
Y-92516D01*
X74416D01*
Y-86984D01*
X74416D01*
X74416Y-86016D01*
X74500Y-85000D01*
Y-68500D01*
X74416Y-68298D01*
Y-67484D01*
X73602D01*
X73400Y-67400D01*
X68400D01*
X68198Y-67484D01*
X67384D01*
Y-67804D01*
X58886Y-72485D01*
X57616Y-71735D01*
Y-67484D01*
X50584D01*
Y-70072D01*
X49730Y-70772D01*
X48600Y-70286D01*
Y-41915D01*
X49220Y-41500D01*
X50812D01*
X52282Y-40891D01*
X53407Y-39766D01*
X54016Y-38296D01*
Y-36704D01*
X53407Y-35234D01*
X52282Y-34109D01*
X50812Y-33500D01*
X49220D01*
X48999Y-33592D01*
X47948Y-32541D01*
X47924Y-32469D01*
X48178Y-30975D01*
X48235Y-30938D01*
X64117Y-15056D01*
X71530D01*
X71530Y-15056D01*
X72317Y-14899D01*
X72984Y-14454D01*
X123453Y36016D01*
X123454Y36016D01*
X123899Y36683D01*
X124056Y37469D01*
X124056Y37470D01*
Y44149D01*
X128851Y48945D01*
X138250D01*
X138250Y48945D01*
X139037Y49101D01*
X139704Y49546D01*
X142641Y52484D01*
X147766D01*
Y65516D01*
X143230D01*
X143083Y65767D01*
X143833Y67000D01*
X144764D01*
X146234Y67609D01*
X147359Y68734D01*
X147968Y70204D01*
Y71796D01*
X147359Y73266D01*
X147766Y74484D01*
X147766D01*
X147766Y74484D01*
Y83888D01*
X154450Y90572D01*
X157649D01*
Y82827D01*
X157844Y81845D01*
X158400Y81013D01*
X158534Y80879D01*
X158500Y80796D01*
Y79204D01*
X159109Y77734D01*
X160234Y76609D01*
X161704Y76000D01*
X163032D01*
X163526Y75246D01*
X163654Y74827D01*
X159546Y70719D01*
X159101Y70052D01*
X158945Y69265D01*
X158945Y69265D01*
Y51065D01*
X158928Y50984D01*
X158928Y50984D01*
Y-49899D01*
X154899Y-53928D01*
X154615D01*
X153516Y-53516D01*
X153516Y-52659D01*
Y-26484D01*
X126484D01*
Y-52659D01*
X126484Y-53516D01*
X125385Y-53928D01*
X84615D01*
X83516Y-53516D01*
X83516Y-52659D01*
Y-26484D01*
X56484D01*
Y-53516D01*
X56829D01*
X57022Y-53782D01*
X57307Y-54786D01*
X56006Y-56087D01*
X55796Y-56000D01*
X54204D01*
X52734Y-56609D01*
X51609Y-57734D01*
X51000Y-59204D01*
Y-60796D01*
X51609Y-62266D01*
X52734Y-63391D01*
X54204Y-64000D01*
X55796D01*
X57266Y-63391D01*
X57268Y-63388D01*
X57465Y-63374D01*
X58692Y-63760D01*
X59109Y-64766D01*
X60234Y-65891D01*
X61704Y-66500D01*
X63296D01*
X64766Y-65891D01*
X65891Y-64766D01*
X66500Y-63296D01*
Y-61704D01*
X67606Y-61055D01*
X75730D01*
X76473Y-62326D01*
X76400Y-62500D01*
Y-97500D01*
X76722Y-98278D01*
X77500Y-98600D01*
X103096D01*
X103500Y-99204D01*
Y-100796D01*
X104109Y-102266D01*
X105234Y-103391D01*
X106704Y-104000D01*
X108296D01*
X109766Y-103391D01*
X110891Y-102266D01*
X111500Y-100796D01*
Y-99204D01*
X111904Y-98600D01*
X130000D01*
X130550Y-98372D01*
X131100Y-98600D01*
X226910D01*
X227609Y-99660D01*
X225839Y-103785D01*
X220292Y-115091D01*
X214179Y-126103D01*
X207515Y-136791D01*
X200320Y-147127D01*
X192610Y-157086D01*
X184405Y-166641D01*
X175727Y-175769D01*
X171162Y-180107D01*
X171152Y-180121D01*
X171137Y-180131D01*
X170081Y-181168D01*
X167919Y-182933D01*
X165599Y-184475D01*
X163140Y-185784D01*
X160564Y-186846D01*
X157898Y-187651D01*
X155165Y-188193D01*
X152393Y-188465D01*
X-152370D01*
X-155097Y-188202D01*
X-157786Y-187678D01*
X-160413Y-186898D01*
X-162952Y-185870D01*
X-165381Y-184603D01*
X-167677Y-183109D01*
X-169819Y-181400D01*
X-170803Y-180447D01*
X-170813Y-180441D01*
X-170819Y-180431D01*
X-176395Y-175152D01*
X-186874Y-163926D01*
X-196639Y-152075D01*
X-205654Y-139642D01*
X-213885Y-126677D01*
X-221298Y-113229D01*
X-227868Y-99348D01*
X-233567Y-85088D01*
X-238376Y-70504D01*
X-242274Y-55650D01*
X-245248Y-40584D01*
X-247286Y-25363D01*
X-248380Y-10045D01*
X-248527Y5311D01*
X-247724Y20646D01*
X-245977Y35903D01*
X-243291Y51023D01*
X-239676Y65948D01*
X-235146Y80622D01*
X-229720Y94988D01*
X-223416Y108991D01*
X-216260Y122578D01*
X-208278Y135698D01*
X-199502Y148299D01*
X-189964Y160335D01*
X-179701Y171759D01*
X-168752Y182527D01*
X-157160Y192599D01*
X-144968Y201936D01*
X-132222Y210502D01*
X-118972Y218265D01*
X-105268Y225194D01*
X-91161Y231265D01*
X-76708Y236452D01*
X-61961Y240738D01*
X-46978Y244104D01*
X-31815Y246539D01*
X-16531Y248033D01*
X-1185Y248580D01*
X14167Y248179D01*
D02*
G37*
G36*
X67895Y112270D02*
X68320Y111165D01*
X68083Y110811D01*
X67922Y110000D01*
X68083Y109189D01*
X68543Y108502D01*
X68987Y108204D01*
X69101Y107620D01*
Y107380D01*
X68987Y106796D01*
X68543Y106498D01*
X68083Y105811D01*
X67922Y105000D01*
X68083Y104189D01*
X68543Y103502D01*
X68987Y103204D01*
X69101Y102620D01*
Y102380D01*
X68987Y101796D01*
X68543Y101498D01*
X68362Y101228D01*
X65509Y98375D01*
X65064Y97708D01*
X64907Y96922D01*
X64907Y96922D01*
Y88103D01*
X64907Y88103D01*
X65064Y87316D01*
X65509Y86649D01*
X66690Y85468D01*
X66690Y85468D01*
X67357Y85023D01*
X68144Y84866D01*
X79227D01*
X86547Y77547D01*
X87213Y77101D01*
X88000Y76944D01*
X88000Y76944D01*
X93928D01*
Y50751D01*
X93928Y50751D01*
X94085Y49964D01*
X94530Y49297D01*
X103945Y39883D01*
Y35117D01*
X70883Y2056D01*
X58478D01*
X58391Y2266D01*
X57266Y3391D01*
X55796Y4000D01*
X54204D01*
X52734Y3391D01*
X51609Y2266D01*
X51000Y796D01*
Y-796D01*
X51609Y-2266D01*
X52304Y-2960D01*
X52631Y-3697D01*
X52326Y-4597D01*
X51689Y-5234D01*
X51602Y-5444D01*
X40299D01*
X39807Y-4378D01*
Y4378D01*
X30622D01*
Y4378D01*
X30554Y4373D01*
X30105Y4798D01*
X30122Y6494D01*
X34249Y10622D01*
X39807D01*
Y19378D01*
X30622D01*
Y14250D01*
X26437Y10065D01*
X24477D01*
X23798Y11335D01*
X23856Y11421D01*
X24070Y12500D01*
X23856Y13579D01*
X23244Y14494D01*
X22329Y15106D01*
X21535Y15264D01*
Y16751D01*
X22600Y17816D01*
X23209Y19286D01*
Y20877D01*
X22600Y22347D01*
X22055Y22891D01*
Y35149D01*
X51453Y64546D01*
X51453Y64546D01*
X51899Y65213D01*
X52056Y66000D01*
Y68212D01*
X52119Y68531D01*
Y79959D01*
X51958Y80770D01*
X51498Y81457D01*
X50811Y81917D01*
X50000Y82078D01*
X49189Y81917D01*
X48502Y81457D01*
X48204Y81013D01*
X47620Y80899D01*
X47380D01*
X46796Y81013D01*
X46498Y81457D01*
X45811Y81917D01*
X45000Y82078D01*
X44189Y81917D01*
X43502Y81457D01*
X43204Y81013D01*
X42620Y80899D01*
X42380D01*
X41796Y81013D01*
X41498Y81457D01*
X40811Y81917D01*
X40000Y82078D01*
X39189Y81917D01*
X38502Y81457D01*
X38204Y81013D01*
X37620Y80899D01*
X37380D01*
X36796Y81013D01*
X36498Y81457D01*
X35811Y81917D01*
X35000Y82078D01*
X34189Y81917D01*
X33502Y81457D01*
X33326Y81194D01*
X32055Y81579D01*
Y89710D01*
X32218Y89777D01*
X33343Y90902D01*
X33952Y92373D01*
Y93964D01*
X33343Y95434D01*
X32218Y96559D01*
X30748Y97168D01*
X29156D01*
X27686Y96559D01*
X26561Y95434D01*
X25952Y93964D01*
Y92373D01*
X26561Y90902D01*
X27686Y89777D01*
X27945Y89670D01*
Y87014D01*
X26674Y86629D01*
X26453Y86959D01*
X26453Y86959D01*
X23847Y89566D01*
Y90643D01*
X23238Y92113D01*
X22514Y92837D01*
X22329Y93787D01*
X22577Y94420D01*
X23391Y95234D01*
X24000Y96704D01*
Y98296D01*
X23391Y99766D01*
X22266Y100891D01*
X20796Y101500D01*
X20366D01*
X19840Y102770D01*
X28485Y111415D01*
X55702D01*
X56704Y111000D01*
X58296D01*
X59766Y111609D01*
X60592Y112435D01*
X67757D01*
X67895Y112270D01*
D02*
G37*
G36*
X-83086Y128680D02*
X-82967Y128502D01*
X-82522Y128204D01*
X-82409Y127620D01*
Y127380D01*
X-82522Y126796D01*
X-82967Y126498D01*
X-83426Y125811D01*
X-83588Y125000D01*
X-83426Y124189D01*
X-82967Y123502D01*
X-82522Y123204D01*
X-82409Y122620D01*
Y122380D01*
X-82522Y121796D01*
X-82967Y121498D01*
X-83426Y120811D01*
X-83588Y120000D01*
X-83426Y119189D01*
X-82967Y118502D01*
X-82522Y118204D01*
X-82409Y117620D01*
Y117380D01*
X-82522Y116796D01*
X-82967Y116498D01*
X-83426Y115811D01*
X-83588Y115000D01*
X-83426Y114189D01*
X-82967Y113502D01*
X-82522Y113204D01*
X-82409Y112620D01*
Y112380D01*
X-82522Y111796D01*
X-82967Y111498D01*
X-83426Y110811D01*
X-83588Y110000D01*
X-83426Y109189D01*
X-82967Y108502D01*
X-82522Y108204D01*
X-82409Y107620D01*
Y107380D01*
X-82522Y106796D01*
X-82967Y106498D01*
X-83426Y105811D01*
X-83588Y105000D01*
X-83426Y104189D01*
X-82967Y103502D01*
X-82522Y103204D01*
X-82409Y102620D01*
Y102380D01*
X-82522Y101796D01*
X-82967Y101498D01*
X-83426Y100811D01*
X-83588Y100000D01*
X-83426Y99189D01*
X-82967Y98502D01*
X-82280Y98042D01*
X-81469Y97881D01*
X-77112D01*
X-76736Y97630D01*
X-75755Y97435D01*
X-61341D01*
X-60092Y96186D01*
X-59260Y95630D01*
X-58278Y95435D01*
X-56284D01*
X-53835Y92985D01*
Y91845D01*
X-53226Y90375D01*
X-52101Y89250D01*
X-50631Y88641D01*
X-49039D01*
X-47569Y89250D01*
X-47066Y89753D01*
X-46081Y90156D01*
X-45408Y89751D01*
X-44766Y89109D01*
X-45054Y87853D01*
X-45851Y87056D01*
X-57500D01*
X-58176Y86921D01*
X-58513Y87215D01*
X-59027Y87932D01*
X-58500Y89204D01*
Y90796D01*
X-59109Y92266D01*
X-60234Y93391D01*
X-61704Y94000D01*
X-63296D01*
X-64766Y93391D01*
X-65592Y92565D01*
X-75755D01*
X-76736Y92370D01*
X-77112Y92119D01*
X-81469D01*
X-82280Y91958D01*
X-82967Y91498D01*
X-83381Y90879D01*
X-83459Y90803D01*
X-84785Y90488D01*
X-92944Y98647D01*
Y120617D01*
X-84581Y128981D01*
X-83086Y128680D01*
D02*
G37*
G36*
X122944Y87149D02*
Y74172D01*
X122944Y74172D01*
X123101Y73385D01*
X123546Y72718D01*
X125536Y70729D01*
X125050Y69556D01*
X116434D01*
X116000Y70204D01*
Y71796D01*
X115391Y73266D01*
X114266Y74391D01*
X114056Y74478D01*
Y88000D01*
X113899Y88787D01*
X113454Y89453D01*
X113453Y89453D01*
X113120Y89787D01*
X113606Y90961D01*
X119133D01*
X122944Y87149D01*
D02*
G37*
G36*
X-76736Y87630D02*
X-75755Y87435D01*
X-65592D01*
X-64766Y86609D01*
X-63296Y86000D01*
X-61704D01*
X-60848Y86355D01*
X-60129Y85278D01*
X-61453Y83954D01*
X-61899Y83287D01*
X-62056Y82500D01*
X-62056Y82500D01*
Y80279D01*
X-62119Y79959D01*
Y69618D01*
X-63389Y69092D01*
X-80908Y86611D01*
X-80382Y87881D01*
X-77112D01*
X-76736Y87630D01*
D02*
G37*
G36*
X-112185Y64915D02*
X-112056Y64694D01*
Y60367D01*
X-112056Y60367D01*
X-111899Y59581D01*
X-111454Y58914D01*
X-107947Y55408D01*
X-108714Y54378D01*
X-114378D01*
Y45193D01*
X-105622D01*
Y51286D01*
X-104593Y52053D01*
X-101086Y48547D01*
X-100419Y48101D01*
X-99633Y47944D01*
X-99633Y47944D01*
X-94372D01*
X-93636Y46674D01*
X-94000Y45796D01*
Y44204D01*
X-93391Y42734D01*
X-92565Y41908D01*
Y33631D01*
X-92620Y33500D01*
Y26209D01*
X-92636Y26143D01*
X-92664Y26067D01*
X-93015Y25566D01*
X-93678Y25127D01*
X-93709Y25120D01*
X-101000D01*
X-101778Y24798D01*
X-102100Y24020D01*
Y20980D01*
X-101778Y20202D01*
X-101778Y19798D01*
X-102100Y19020D01*
Y17545D01*
X-103370Y17019D01*
X-105013Y18662D01*
X-105622Y19069D01*
Y24378D01*
X-114378D01*
Y16077D01*
X-114378Y15193D01*
X-114378D01*
Y14807D01*
X-114378D01*
Y5622D01*
X-114378D01*
X-114120Y4389D01*
X-114468Y3570D01*
X-115083Y3379D01*
X-115234Y3391D01*
X-116704Y4000D01*
X-118296D01*
X-118900Y4404D01*
Y17500D01*
X-119150Y18323D01*
X-118201Y18916D01*
X-117734Y19109D01*
X-116609Y20234D01*
X-116000Y21704D01*
Y23296D01*
X-116609Y24766D01*
X-117275Y25431D01*
X-117601Y26240D01*
X-117281Y27078D01*
X-116625Y27734D01*
X-116016Y29204D01*
Y30106D01*
X-115922Y30262D01*
X-114889Y31051D01*
X-113644Y30845D01*
X-113391Y30234D01*
X-112266Y29109D01*
X-110796Y28500D01*
X-109204D01*
X-107734Y29109D01*
X-106609Y30234D01*
X-106000Y31704D01*
Y33296D01*
X-106609Y34766D01*
X-107734Y35891D01*
X-109204Y36500D01*
X-110796D01*
X-112266Y35891D01*
X-113027Y35129D01*
X-113739D01*
X-115063Y36453D01*
X-115707Y36884D01*
X-115750Y36918D01*
X-115869Y37029D01*
X-115949Y37148D01*
X-116400Y38273D01*
X-116400Y38277D01*
X-116016Y39204D01*
Y40796D01*
X-116625Y42266D01*
X-117750Y43391D01*
X-118947Y43887D01*
X-118900Y44000D01*
Y55425D01*
X-118998Y55661D01*
X-119016Y55916D01*
X-119153Y56035D01*
X-119222Y56203D01*
X-119368Y56263D01*
X-119660Y56498D01*
X-119988Y57552D01*
X-113916Y65609D01*
X-113467D01*
X-113467Y65609D01*
X-113320Y65638D01*
X-112185Y64915D01*
D02*
G37*
G36*
X-168250Y53450D02*
X-231750D01*
Y60850D01*
X-168250D01*
Y53450D01*
D02*
G37*
G36*
X113265Y48457D02*
X113984Y47953D01*
X113912Y47593D01*
X113912Y47593D01*
Y40820D01*
X109229Y36136D01*
X108055Y36622D01*
Y40735D01*
X108055Y40735D01*
X107899Y41521D01*
X107453Y42188D01*
X107453Y42188D01*
X102871Y46771D01*
X103357Y47944D01*
X111328D01*
X111328Y47944D01*
X112115Y48101D01*
X112782Y48547D01*
X112814Y48578D01*
X113265Y48457D01*
D02*
G37*
G36*
X-121552Y55475D02*
X-121270Y55850D01*
X-120000Y55425D01*
Y44000D01*
X-120812D01*
X-122282Y43391D01*
X-122346Y43327D01*
X-123384Y42766D01*
X-130884D01*
Y48016D01*
X-140000D01*
Y57500D01*
X-124239D01*
X-121552Y55475D01*
D02*
G37*
G36*
X-150000Y37766D02*
X-156616D01*
Y37055D01*
X-157443D01*
X-158229Y36899D01*
X-158896Y36453D01*
X-158896Y36453D01*
X-158954Y36396D01*
X-159204Y36500D01*
X-160796D01*
X-162266Y35891D01*
X-163391Y34766D01*
X-164000Y33296D01*
Y31704D01*
X-163391Y30234D01*
X-162777Y29620D01*
X-162655Y29383D01*
X-162407Y28750D01*
X-162730Y27927D01*
X-163391Y27266D01*
X-163431Y27169D01*
X-165000Y25600D01*
X-235000D01*
Y50600D01*
X-150000D01*
Y37766D01*
D02*
G37*
G36*
X-53480Y26130D02*
Y25828D01*
X-53711Y25269D01*
X-54139Y24841D01*
X-54698Y24610D01*
X-55302D01*
X-55861Y24841D01*
X-56289Y25269D01*
X-56520Y25828D01*
Y26130D01*
X-56520D01*
Y33500D01*
X-53480D01*
Y26130D01*
D02*
G37*
G36*
X-58480D02*
Y25828D01*
X-58711Y25269D01*
X-59139Y24841D01*
X-59698Y24610D01*
X-60302D01*
X-60861Y24841D01*
X-61289Y25269D01*
X-61520Y25828D01*
Y26130D01*
Y33500D01*
X-58480D01*
Y26130D01*
D02*
G37*
G36*
X-63480D02*
Y25828D01*
X-63711Y25269D01*
X-64139Y24841D01*
X-64698Y24610D01*
X-65302D01*
X-65861Y24841D01*
X-66289Y25269D01*
X-66520Y25828D01*
Y26130D01*
Y33500D01*
X-63480D01*
X-63480Y26130D01*
D02*
G37*
G36*
X-68480D02*
Y25828D01*
X-68711Y25269D01*
X-69139Y24841D01*
X-69698Y24610D01*
X-70302D01*
X-70861Y24841D01*
X-71289Y25269D01*
X-71520Y25828D01*
Y26130D01*
X-71520D01*
Y33500D01*
X-68480D01*
Y26130D01*
D02*
G37*
G36*
X-73480D02*
Y25828D01*
X-73711Y25269D01*
X-74139Y24841D01*
X-74698Y24610D01*
X-75302D01*
X-75861Y24841D01*
X-76289Y25269D01*
X-76520Y25828D01*
Y26130D01*
Y33500D01*
X-73480D01*
X-73480Y26130D01*
D02*
G37*
G36*
X-78480D02*
Y25828D01*
X-78711Y25269D01*
X-79139Y24841D01*
X-79698Y24610D01*
X-80302D01*
X-80861Y24841D01*
X-81289Y25269D01*
X-81520Y25828D01*
Y26130D01*
X-81520D01*
Y33500D01*
X-78480D01*
Y26130D01*
D02*
G37*
G36*
X-83480D02*
Y25828D01*
X-83711Y25269D01*
X-84139Y24841D01*
X-84698Y24610D01*
X-85302D01*
X-85861Y24841D01*
X-86289Y25269D01*
X-86520Y25828D01*
Y26130D01*
Y33500D01*
X-83480D01*
Y26130D01*
D02*
G37*
G36*
X-88480D02*
Y25828D01*
X-88711Y25269D01*
X-89139Y24841D01*
X-89698Y24610D01*
X-90302D01*
X-90861Y24841D01*
X-91289Y25269D01*
X-91520Y25828D01*
Y26130D01*
Y33500D01*
X-88480D01*
X-88480Y26130D01*
D02*
G37*
G36*
X-44000Y20980D02*
X-51370Y20980D01*
X-51672D01*
X-52231Y21211D01*
X-52659Y21639D01*
X-52890Y22198D01*
Y22500D01*
Y22802D01*
X-52659Y23361D01*
X-52231Y23789D01*
X-51672Y24020D01*
X-44000D01*
Y20980D01*
D02*
G37*
G36*
X-92769Y23789D02*
X-92341Y23361D01*
X-92110Y22802D01*
Y22500D01*
Y22198D01*
X-92341Y21639D01*
X-92769Y21211D01*
X-93328Y20980D01*
X-93630D01*
Y20980D01*
X-101000D01*
Y24020D01*
X-93328D01*
X-92769Y23789D01*
D02*
G37*
G36*
X-44000Y15980D02*
X-51672D01*
X-52231Y16211D01*
X-52659Y16639D01*
X-52890Y17198D01*
Y17500D01*
Y17802D01*
X-52659Y18361D01*
X-52231Y18789D01*
X-51672Y19020D01*
X-44000D01*
Y15980D01*
D02*
G37*
G36*
X-92769Y18789D02*
X-92341Y18361D01*
X-92110Y17802D01*
Y17500D01*
Y17198D01*
X-92341Y16639D01*
X-92769Y16211D01*
X-93328Y15980D01*
X-101000D01*
Y19020D01*
X-93328D01*
X-92769Y18789D01*
D02*
G37*
G36*
X-51370Y14020D02*
X-44000D01*
Y10980D01*
X-51672D01*
X-52231Y11211D01*
X-52659Y11639D01*
X-52890Y12198D01*
Y12500D01*
Y12802D01*
X-52659Y13361D01*
X-52231Y13789D01*
X-51672Y14020D01*
X-51370D01*
Y14020D01*
D02*
G37*
G36*
X-92769Y13789D02*
X-92341Y13361D01*
X-92110Y12802D01*
Y12500D01*
Y12198D01*
X-92341Y11639D01*
X-92769Y11211D01*
X-93328Y10980D01*
X-101000D01*
Y14020D01*
X-93630Y14020D01*
X-93328D01*
X-92769Y13789D01*
D02*
G37*
G36*
X-44000Y5980D02*
X-51370Y5980D01*
X-51672D01*
X-52231Y6211D01*
X-52659Y6639D01*
X-52890Y7198D01*
Y7500D01*
Y7802D01*
X-52659Y8361D01*
X-52231Y8789D01*
X-51672Y9020D01*
X-44000D01*
Y5980D01*
D02*
G37*
G36*
X-92769Y8789D02*
X-92341Y8361D01*
X-92110Y7802D01*
Y7500D01*
Y7198D01*
X-92341Y6639D01*
X-92769Y6211D01*
X-93328Y5980D01*
X-93630D01*
Y5980D01*
X-101000D01*
Y9020D01*
X-93328D01*
X-92769Y8789D01*
D02*
G37*
G36*
X25379Y48755D02*
X11679Y35055D01*
X-9500D01*
X-10287Y34899D01*
X-10953Y34453D01*
X-13994Y31413D01*
X-14204Y31500D01*
X-15796D01*
X-17266Y30891D01*
X-18391Y29766D01*
X-19000Y28296D01*
Y26704D01*
X-18391Y25234D01*
X-17266Y24109D01*
X-15796Y23500D01*
X-15791D01*
X-15139Y22386D01*
X-15125Y22230D01*
X-15320Y21250D01*
Y18250D01*
X-15106Y17171D01*
X-14494Y16256D01*
X-13579Y15645D01*
X-12500Y15430D01*
X-11421Y15645D01*
X-10506Y16256D01*
X-9894Y17171D01*
X-9680Y18250D01*
Y21250D01*
X-9894Y22329D01*
X-10506Y23244D01*
X-10732Y23395D01*
Y24475D01*
X-10732Y24475D01*
X-10888Y25262D01*
X-11326Y25917D01*
X-11000Y26704D01*
Y28296D01*
X-11087Y28506D01*
X-8648Y30944D01*
X12530D01*
X12530Y30944D01*
X13317Y31101D01*
X13984Y31546D01*
X16771Y34334D01*
X17945Y33848D01*
Y23887D01*
X16943Y23472D01*
X16229Y22759D01*
X16204Y22749D01*
X14841Y22846D01*
X14719Y22908D01*
X14494Y23244D01*
X13579Y23856D01*
X12500Y24070D01*
X11421Y23856D01*
X10506Y23244D01*
X9894Y22329D01*
X9680Y21250D01*
Y18250D01*
X9894Y17171D01*
X10506Y16256D01*
X11421Y15645D01*
X12500Y15430D01*
X13579Y15645D01*
X14494Y16256D01*
X14930Y16908D01*
X15978Y17205D01*
X16411Y17223D01*
X16943Y16690D01*
X17424Y16491D01*
Y15156D01*
X17171Y15106D01*
X16256Y14494D01*
X15645Y13579D01*
X15430Y12500D01*
X15645Y11421D01*
X16018Y10862D01*
X16168Y10000D01*
X16018Y9138D01*
X15645Y8579D01*
X15430Y7500D01*
X15645Y6421D01*
X16018Y5862D01*
X16168Y5000D01*
X16018Y4138D01*
X15645Y3579D01*
X15430Y2500D01*
X15645Y1421D01*
X16018Y862D01*
X16168Y0D01*
X16018Y-862D01*
X15645Y-1421D01*
X15430Y-2500D01*
X15645Y-3579D01*
X16018Y-4138D01*
X16168Y-5000D01*
X16018Y-5862D01*
X15645Y-6421D01*
X15430Y-7500D01*
X15645Y-8579D01*
X16256Y-9494D01*
X17171Y-10106D01*
X18250Y-10320D01*
X21250D01*
X22329Y-10106D01*
X22389Y-10065D01*
X26437D01*
X30622Y-14250D01*
Y-19378D01*
X39807D01*
Y-10622D01*
X40299Y-9556D01*
X51602D01*
X51689Y-9766D01*
X52814Y-10891D01*
X54284Y-11500D01*
X55797D01*
X55986Y-11714D01*
X56461Y-12632D01*
X44681Y-24413D01*
X15031D01*
X14679Y-23647D01*
X14562Y-23142D01*
X15106Y-22329D01*
X15320Y-21250D01*
Y-18250D01*
X15106Y-17171D01*
X14494Y-16256D01*
X13579Y-15645D01*
X12500Y-15430D01*
X11421Y-15645D01*
X10506Y-16256D01*
X9894Y-17171D01*
X9680Y-18250D01*
Y-21250D01*
X9894Y-22329D01*
X10438Y-23142D01*
X10321Y-23647D01*
X9969Y-24413D01*
X-9150D01*
X-10431Y-23132D01*
X-9894Y-22329D01*
X-9680Y-21250D01*
Y-18250D01*
X-9894Y-17171D01*
X-10506Y-16256D01*
X-11421Y-15645D01*
X-12500Y-15430D01*
X-13579Y-15645D01*
X-14494Y-16256D01*
X-15106Y-17171D01*
X-15320Y-18250D01*
Y-20712D01*
X-16590Y-21238D01*
X-17694Y-20133D01*
Y-15210D01*
X-17171Y-15106D01*
X-16256Y-14494D01*
X-15645Y-13579D01*
X-15430Y-12500D01*
X-15645Y-11421D01*
X-16018Y-10862D01*
X-16168Y-10000D01*
X-16018Y-9138D01*
X-15645Y-8579D01*
X-15430Y-7500D01*
X-15645Y-6421D01*
X-16256Y-5506D01*
X-17171Y-4895D01*
X-18250Y-4680D01*
X-21250D01*
X-22329Y-4895D01*
X-23244Y-5506D01*
X-23856Y-6421D01*
X-23968Y-6985D01*
X-26470Y-9487D01*
X-26915Y-10153D01*
X-27071Y-10940D01*
X-27071Y-10940D01*
Y-19984D01*
X-27071Y-19984D01*
X-26915Y-20771D01*
X-26470Y-21437D01*
X-13953Y-33953D01*
X-13953Y-33953D01*
X-13287Y-34399D01*
X-12500Y-34555D01*
X44149D01*
X46098Y-36505D01*
X46016Y-36704D01*
Y-38296D01*
X45612Y-38900D01*
X-4331D01*
X-4435Y-38943D01*
X-4546Y-38921D01*
X-4813Y-39100D01*
X-5109Y-39222D01*
X-6170Y-39480D01*
X-6346Y-39497D01*
X-6734Y-39109D01*
X-8204Y-38500D01*
X-9796D01*
X-11266Y-39109D01*
X-11654Y-39497D01*
X-11830Y-39480D01*
X-12891Y-39222D01*
X-13187Y-39100D01*
X-13454Y-38921D01*
X-13565Y-38943D01*
X-13669Y-38900D01*
X-105193D01*
Y-30622D01*
X-111257D01*
X-118424Y-23455D01*
Y-13613D01*
X-118580Y-12826D01*
X-118682Y-12673D01*
X-118583Y-12372D01*
X-117939Y-11500D01*
X-116704D01*
X-115234Y-10891D01*
X-114926Y-10583D01*
X-113849Y-11302D01*
X-114016Y-11704D01*
Y-13296D01*
X-113407Y-14766D01*
X-112282Y-15891D01*
X-110812Y-16500D01*
X-109220D01*
X-107750Y-15891D01*
X-106625Y-14766D01*
X-106016Y-13296D01*
Y-11704D01*
X-106098Y-11505D01*
X-104149Y-9556D01*
X-102790D01*
X-102036Y-10826D01*
X-102100Y-10980D01*
Y-14020D01*
X-101778Y-14798D01*
X-101000Y-15120D01*
X-100573D01*
X-100047Y-16390D01*
X-100391Y-16734D01*
X-101000Y-18204D01*
Y-19796D01*
X-100391Y-21266D01*
X-99266Y-22391D01*
X-97796Y-23000D01*
X-96204D01*
X-94734Y-22391D01*
X-93890Y-21546D01*
X-92620Y-21944D01*
Y-23500D01*
X-92298Y-24278D01*
X-92056Y-24378D01*
Y-28372D01*
X-92184Y-28500D01*
X-93261D01*
X-94731Y-29109D01*
X-95856Y-30234D01*
X-96465Y-31704D01*
Y-33296D01*
X-95856Y-34766D01*
X-94731Y-35891D01*
X-93261Y-36500D01*
X-91669D01*
X-90199Y-35891D01*
X-89562Y-35254D01*
X-88733Y-34908D01*
X-87903Y-35254D01*
X-87266Y-35891D01*
X-85796Y-36500D01*
X-84204D01*
X-82734Y-35891D01*
X-82073Y-35230D01*
X-81250Y-34907D01*
X-80427Y-35230D01*
X-79766Y-35891D01*
X-78296Y-36500D01*
X-76704D01*
X-75234Y-35891D01*
X-74573Y-35230D01*
X-73750Y-34907D01*
X-72927Y-35230D01*
X-72266Y-35891D01*
X-70796Y-36500D01*
X-69204D01*
X-67734Y-35891D01*
X-67073Y-35230D01*
X-66250Y-34907D01*
X-65427Y-35230D01*
X-64766Y-35891D01*
X-63296Y-36500D01*
X-61704D01*
X-60234Y-35891D01*
X-59573Y-35230D01*
X-58750Y-34907D01*
X-57927Y-35230D01*
X-57266Y-35891D01*
X-55796Y-36500D01*
X-54204D01*
X-52734Y-35891D01*
X-52073Y-35230D01*
X-51250Y-34907D01*
X-50427Y-35230D01*
X-49766Y-35891D01*
X-48296Y-36500D01*
X-46704D01*
X-45234Y-35891D01*
X-44109Y-34766D01*
X-43500Y-33296D01*
Y-31704D01*
X-44109Y-30234D01*
X-45234Y-29109D01*
X-46704Y-28500D01*
X-48296D01*
X-48506Y-28587D01*
X-52721Y-24372D01*
X-52702Y-24278D01*
X-52380Y-23500D01*
Y-15828D01*
X-52464Y-15626D01*
Y-15407D01*
X-52695Y-14848D01*
X-52850Y-14693D01*
X-52934Y-14491D01*
X-53361Y-14064D01*
X-53563Y-13980D01*
X-53718Y-13825D01*
X-54277Y-13594D01*
X-54496D01*
X-54698Y-13510D01*
X-55302D01*
X-55504Y-13594D01*
X-55723D01*
X-56282Y-13825D01*
X-56437Y-13980D01*
X-56639Y-14064D01*
X-56708Y-14133D01*
X-57500Y-14365D01*
X-58292Y-14133D01*
X-58361Y-14064D01*
X-58563Y-13980D01*
X-58718Y-13825D01*
X-59277Y-13594D01*
X-59496D01*
X-59698Y-13510D01*
X-60302D01*
X-60504Y-13594D01*
X-60723D01*
X-61282Y-13825D01*
X-61437Y-13980D01*
X-61639Y-14064D01*
X-61708Y-14133D01*
X-62500Y-14365D01*
X-63292Y-14133D01*
X-63361Y-14064D01*
X-63563Y-13980D01*
X-63718Y-13825D01*
X-64277Y-13594D01*
X-64496D01*
X-64698Y-13510D01*
X-65302D01*
X-65504Y-13594D01*
X-65723D01*
X-66282Y-13825D01*
X-66437Y-13980D01*
X-66639Y-14064D01*
X-66708Y-14133D01*
X-67500Y-14365D01*
X-68292Y-14133D01*
X-68361Y-14064D01*
X-68563Y-13980D01*
X-68718Y-13825D01*
X-69277Y-13594D01*
X-69496D01*
X-69698Y-13510D01*
X-70302D01*
X-70504Y-13594D01*
X-70723D01*
X-71282Y-13825D01*
X-71437Y-13980D01*
X-71639Y-14064D01*
X-71708Y-14133D01*
X-72500Y-14365D01*
X-73292Y-14133D01*
X-73361Y-14064D01*
X-73563Y-13980D01*
X-73718Y-13825D01*
X-74277Y-13594D01*
X-74496D01*
X-74698Y-13510D01*
X-75302D01*
X-75504Y-13594D01*
X-75723D01*
X-76282Y-13825D01*
X-76437Y-13980D01*
X-76639Y-14064D01*
X-76708Y-14133D01*
X-77500Y-14365D01*
X-78292Y-14133D01*
X-78361Y-14064D01*
X-78563Y-13980D01*
X-78718Y-13825D01*
X-79277Y-13594D01*
X-79496D01*
X-79698Y-13510D01*
X-80302D01*
X-80505Y-13594D01*
X-80723D01*
X-81282Y-13825D01*
X-81437Y-13980D01*
X-81639Y-14064D01*
X-82066Y-14491D01*
X-82150Y-14693D01*
X-82305Y-14848D01*
X-82536Y-15407D01*
Y-15626D01*
X-82620Y-15828D01*
X-82620Y-23500D01*
X-82298Y-24278D01*
X-82056Y-24378D01*
Y-26649D01*
X-83994Y-28587D01*
X-84204Y-28500D01*
X-85796D01*
X-86674Y-28864D01*
X-87935Y-28134D01*
X-87944Y-28120D01*
Y-24378D01*
X-87702Y-24278D01*
X-87380Y-23500D01*
Y-16130D01*
X-87380Y-16130D01*
Y-15828D01*
X-87464Y-15626D01*
Y-15407D01*
X-87695Y-14848D01*
X-87850Y-14693D01*
X-87934Y-14491D01*
X-88361Y-14064D01*
X-88563Y-13980D01*
X-88718Y-13825D01*
X-89277Y-13594D01*
X-89496D01*
X-89698Y-13510D01*
X-89921D01*
X-89952Y-13503D01*
X-90615Y-13064D01*
X-90966Y-12564D01*
X-90994Y-12486D01*
X-91010Y-12421D01*
Y-12198D01*
X-91094Y-11996D01*
Y-11777D01*
X-91325Y-11218D01*
X-91480Y-11063D01*
X-91564Y-10861D01*
X-91633Y-10792D01*
X-91865Y-10000D01*
X-91633Y-9208D01*
X-91564Y-9139D01*
X-91480Y-8937D01*
X-91325Y-8782D01*
X-91094Y-8223D01*
Y-8005D01*
X-91010Y-7802D01*
Y-7198D01*
X-91094Y-6996D01*
Y-6777D01*
X-91325Y-6218D01*
X-91480Y-6064D01*
X-91564Y-5861D01*
X-91633Y-5792D01*
X-91865Y-5000D01*
X-91633Y-4208D01*
X-91564Y-4139D01*
X-91480Y-3937D01*
X-91325Y-3782D01*
X-91094Y-3223D01*
Y-3004D01*
X-91010Y-2802D01*
Y-2198D01*
X-91094Y-1996D01*
Y-1777D01*
X-91325Y-1218D01*
X-91480Y-1063D01*
X-91564Y-861D01*
X-91633Y-792D01*
X-91865Y-0D01*
X-91633Y792D01*
X-91564Y861D01*
X-91480Y1063D01*
X-91325Y1218D01*
X-91094Y1777D01*
Y1996D01*
X-91010Y2198D01*
Y2802D01*
X-91094Y3004D01*
Y3223D01*
X-91325Y3782D01*
X-91480Y3936D01*
X-91564Y4139D01*
X-91633Y4208D01*
X-91865Y5000D01*
X-91633Y5792D01*
X-91564Y5861D01*
X-91480Y6063D01*
X-91325Y6218D01*
X-91094Y6777D01*
Y6995D01*
X-91010Y7198D01*
Y7802D01*
X-91094Y8004D01*
Y8223D01*
X-91325Y8782D01*
X-91480Y8936D01*
X-91564Y9139D01*
X-91633Y9208D01*
X-91865Y10000D01*
X-91633Y10792D01*
X-91564Y10861D01*
X-91480Y11063D01*
X-91325Y11218D01*
X-91094Y11777D01*
Y11996D01*
X-91010Y12198D01*
Y12802D01*
X-91094Y13004D01*
Y13223D01*
X-91325Y13782D01*
X-91480Y13937D01*
X-91564Y14139D01*
X-91633Y14208D01*
X-91865Y15000D01*
X-91633Y15792D01*
X-91564Y15861D01*
X-91480Y16063D01*
X-91325Y16218D01*
X-91094Y16777D01*
Y16996D01*
X-91010Y17198D01*
Y17802D01*
X-91094Y18004D01*
Y18223D01*
X-91325Y18782D01*
X-91480Y18937D01*
X-91564Y19139D01*
X-91633Y19208D01*
X-91865Y20000D01*
X-91633Y20792D01*
X-91564Y20861D01*
X-91480Y21063D01*
X-91325Y21218D01*
X-91094Y21777D01*
Y21995D01*
X-91010Y22198D01*
Y22421D01*
X-90980Y22543D01*
X-90615Y23064D01*
X-89952Y23503D01*
X-89921Y23510D01*
X-89698D01*
X-89496Y23594D01*
X-89277D01*
X-88718Y23825D01*
X-88563Y23980D01*
X-88361Y24064D01*
X-88292Y24133D01*
X-87500Y24365D01*
X-86708Y24133D01*
X-86639Y24064D01*
X-86437Y23980D01*
X-86282Y23825D01*
X-85723Y23594D01*
X-85505D01*
X-85302Y23510D01*
X-84698D01*
X-84496Y23594D01*
X-84277D01*
X-83718Y23825D01*
X-83563Y23980D01*
X-83361Y24064D01*
X-83292Y24133D01*
X-82500Y24365D01*
X-81708Y24133D01*
X-81639Y24064D01*
X-81437Y23980D01*
X-81282Y23825D01*
X-80723Y23594D01*
X-80505D01*
X-80302Y23510D01*
X-79698D01*
X-79496Y23594D01*
X-79277D01*
X-78718Y23825D01*
X-78563Y23980D01*
X-78361Y24064D01*
X-78292Y24133D01*
X-77500Y24365D01*
X-76708Y24133D01*
X-76639Y24064D01*
X-76437Y23980D01*
X-76282Y23825D01*
X-75723Y23594D01*
X-75504D01*
X-75302Y23510D01*
X-74698D01*
X-74496Y23594D01*
X-74277D01*
X-73718Y23825D01*
X-73563Y23980D01*
X-73361Y24064D01*
X-73292Y24133D01*
X-72500Y24365D01*
X-71708Y24133D01*
X-71639Y24064D01*
X-71437Y23980D01*
X-71282Y23825D01*
X-70723Y23594D01*
X-70504D01*
X-70302Y23510D01*
X-69698D01*
X-69496Y23594D01*
X-69277D01*
X-68718Y23825D01*
X-68563Y23980D01*
X-68361Y24064D01*
X-68292Y24133D01*
X-67500Y24365D01*
X-66708Y24133D01*
X-66639Y24064D01*
X-66437Y23980D01*
X-66282Y23825D01*
X-65723Y23594D01*
X-65504D01*
X-65302Y23510D01*
X-64698D01*
X-64496Y23594D01*
X-64277D01*
X-63718Y23825D01*
X-63563Y23980D01*
X-63361Y24064D01*
X-63292Y24133D01*
X-62500Y24365D01*
X-61708Y24133D01*
X-61639Y24064D01*
X-61437Y23980D01*
X-61282Y23825D01*
X-60723Y23594D01*
X-60504D01*
X-60302Y23510D01*
X-59698D01*
X-59496Y23594D01*
X-59277D01*
X-58718Y23825D01*
X-58563Y23980D01*
X-58361Y24064D01*
X-58292Y24133D01*
X-57500Y24365D01*
X-56708Y24133D01*
X-56639Y24064D01*
X-56437Y23980D01*
X-56282Y23825D01*
X-55723Y23594D01*
X-55504D01*
X-55302Y23510D01*
X-55079D01*
X-55048Y23503D01*
X-54385Y23064D01*
X-54020Y22543D01*
X-53990Y22421D01*
Y22198D01*
X-53906Y21995D01*
Y21777D01*
X-53675Y21218D01*
X-53520Y21063D01*
X-53436Y20861D01*
X-53367Y20792D01*
X-53135Y20000D01*
X-53367Y19208D01*
X-53436Y19139D01*
X-53520Y18937D01*
X-53675Y18782D01*
X-53906Y18223D01*
Y18004D01*
X-53990Y17802D01*
Y17198D01*
X-53906Y16996D01*
Y16777D01*
X-53675Y16218D01*
X-53520Y16063D01*
X-53436Y15861D01*
X-53367Y15792D01*
X-53135Y15000D01*
X-53367Y14208D01*
X-53436Y14139D01*
X-53520Y13937D01*
X-53675Y13782D01*
X-53906Y13223D01*
Y13004D01*
X-53990Y12802D01*
Y12198D01*
X-53906Y11996D01*
Y11777D01*
X-53675Y11218D01*
X-53520Y11063D01*
X-53436Y10861D01*
X-53367Y10792D01*
X-53135Y10000D01*
X-53367Y9208D01*
X-53436Y9139D01*
X-53520Y8936D01*
X-53675Y8782D01*
X-53906Y8223D01*
Y8004D01*
X-53990Y7802D01*
Y7198D01*
X-53906Y6995D01*
Y6777D01*
X-53675Y6218D01*
X-53520Y6063D01*
X-53436Y5861D01*
X-53009Y5434D01*
X-52807Y5350D01*
X-52652Y5195D01*
X-52093Y4964D01*
X-51874D01*
X-51672Y4880D01*
X-44000Y4880D01*
X-43222Y5202D01*
X-42900Y5980D01*
Y6322D01*
X-34499Y14724D01*
X-34053Y15390D01*
X-33897Y16177D01*
X-33897Y16177D01*
Y41666D01*
X-25634Y49928D01*
X24893D01*
X25379Y48755D01*
D02*
G37*
G36*
X-120000Y3157D02*
X-120657Y2500D01*
X-123384D01*
Y2766D01*
X-130884D01*
Y8016D01*
X-140000D01*
Y17500D01*
X-120000D01*
Y3157D01*
D02*
G37*
G36*
X-92769Y3789D02*
X-92341Y3361D01*
X-92110Y2802D01*
Y2500D01*
Y2198D01*
X-92341Y1639D01*
X-92769Y1211D01*
X-93328Y980D01*
X-101000D01*
Y4020D01*
X-93630Y4020D01*
X-93328D01*
X-92769Y3789D01*
D02*
G37*
G36*
X-150000Y-2234D02*
X-156616D01*
Y-2945D01*
X-157443D01*
X-158229Y-3101D01*
X-158896Y-3546D01*
X-158896Y-3547D01*
X-158949Y-3599D01*
X-159188Y-3500D01*
X-160780D01*
X-162250Y-4109D01*
X-163375Y-5234D01*
X-163984Y-6704D01*
Y-8296D01*
X-163375Y-9766D01*
X-162820Y-10320D01*
X-165000Y-12500D01*
X-235000D01*
Y12500D01*
X-150000D01*
Y-2234D01*
D02*
G37*
G36*
X-92769Y-1211D02*
X-92341Y-1639D01*
X-92110Y-2198D01*
Y-2500D01*
Y-2802D01*
X-92341Y-3361D01*
X-92769Y-3789D01*
X-93328Y-4020D01*
X-93630D01*
Y-4020D01*
X-101000D01*
Y-980D01*
X-93328D01*
X-92769Y-1211D01*
D02*
G37*
G36*
Y-6211D02*
X-92341Y-6639D01*
X-92110Y-7198D01*
Y-7500D01*
Y-7802D01*
X-92341Y-8361D01*
X-92769Y-8789D01*
X-93328Y-9020D01*
X-101000D01*
Y-5980D01*
X-93328D01*
X-92769Y-6211D01*
D02*
G37*
G36*
Y-11211D02*
X-92341Y-11639D01*
X-92110Y-12198D01*
Y-12500D01*
Y-12802D01*
X-92341Y-13361D01*
X-92769Y-13789D01*
X-93328Y-14020D01*
X-101000D01*
Y-10980D01*
X-93630Y-10980D01*
X-93328D01*
X-92769Y-11211D01*
D02*
G37*
G36*
X-54139Y-14841D02*
X-53711Y-15269D01*
X-53480Y-15828D01*
Y-16130D01*
Y-23500D01*
X-56520D01*
X-56520Y-16130D01*
Y-15828D01*
X-56289Y-15269D01*
X-55861Y-14841D01*
X-55302Y-14610D01*
X-54698D01*
X-54139Y-14841D01*
D02*
G37*
G36*
X-59139D02*
X-58711Y-15269D01*
X-58480Y-15828D01*
Y-16130D01*
Y-23500D01*
X-61520D01*
Y-16130D01*
Y-15828D01*
X-61289Y-15269D01*
X-60861Y-14841D01*
X-60302Y-14610D01*
X-59698D01*
X-59139Y-14841D01*
D02*
G37*
G36*
X-64139D02*
X-63711Y-15269D01*
X-63480Y-15828D01*
Y-16130D01*
X-63480D01*
Y-23500D01*
X-66520D01*
Y-16130D01*
Y-15828D01*
X-66289Y-15269D01*
X-65861Y-14841D01*
X-65302Y-14610D01*
X-64698D01*
X-64139Y-14841D01*
D02*
G37*
G36*
X-69139D02*
X-68711Y-15269D01*
X-68480Y-15828D01*
Y-16130D01*
Y-23500D01*
X-71520D01*
X-71520Y-16130D01*
Y-15828D01*
X-71289Y-15269D01*
X-70861Y-14841D01*
X-70302Y-14610D01*
X-69698D01*
X-69139Y-14841D01*
D02*
G37*
G36*
X-74139D02*
X-73711Y-15269D01*
X-73480Y-15828D01*
Y-16130D01*
X-73480D01*
Y-23500D01*
X-76520D01*
Y-16130D01*
Y-15828D01*
X-76289Y-15269D01*
X-75861Y-14841D01*
X-75302Y-14610D01*
X-74698D01*
X-74139Y-14841D01*
D02*
G37*
G36*
X-79139D02*
X-78711Y-15269D01*
X-78480Y-15828D01*
Y-16130D01*
Y-23500D01*
X-81520D01*
X-81520Y-16130D01*
Y-15828D01*
X-81289Y-15269D01*
X-80861Y-14841D01*
X-80302Y-14610D01*
X-79698D01*
X-79139Y-14841D01*
D02*
G37*
G36*
X-89139D02*
X-88711Y-15269D01*
X-88480Y-15828D01*
Y-16130D01*
X-88480D01*
Y-23500D01*
X-91520D01*
Y-16130D01*
Y-15828D01*
X-91289Y-15269D01*
X-90861Y-14841D01*
X-90302Y-14610D01*
X-89698D01*
X-89139Y-14841D01*
D02*
G37*
G36*
X47500Y-40641D02*
Y-100000D01*
X12500D01*
Y-68157D01*
X13391Y-67266D01*
X14000Y-65796D01*
Y-64204D01*
X13391Y-62734D01*
X12266Y-61609D01*
X10796Y-61000D01*
X9204D01*
X7734Y-61609D01*
X6609Y-62734D01*
X6000Y-64204D01*
Y-65000D01*
X-104343D01*
X-105234Y-64109D01*
X-106704Y-63500D01*
X-108296D01*
X-109766Y-64109D01*
X-110657Y-65000D01*
X-152500D01*
Y-40000D01*
X-13669D01*
X-12820Y-41270D01*
X-13000Y-41704D01*
Y-43296D01*
X-12391Y-44766D01*
X-11266Y-45891D01*
X-9796Y-46500D01*
X-8204D01*
X-6734Y-45891D01*
X-5609Y-44766D01*
X-5000Y-43296D01*
Y-41704D01*
X-5180Y-41270D01*
X-4331Y-40000D01*
X46859D01*
X47500Y-40641D01*
D02*
G37*
G36*
X-73600Y-69194D02*
X-76500D01*
X-77287Y-69351D01*
X-77953Y-69797D01*
X-78399Y-70463D01*
X-78555Y-71250D01*
Y-77899D01*
X-80334Y-79677D01*
X-81504Y-79051D01*
X-81445Y-78750D01*
Y-71250D01*
X-81601Y-70463D01*
X-82046Y-69797D01*
X-82713Y-69351D01*
X-83500Y-69194D01*
X-89500D01*
X-90287Y-69351D01*
X-90953Y-69797D01*
X-91399Y-70463D01*
X-91555Y-71250D01*
Y-78750D01*
X-91399Y-79537D01*
X-90953Y-80204D01*
X-90394Y-80577D01*
X-90366Y-80624D01*
X-90222Y-81198D01*
X-90132Y-81975D01*
X-90891Y-82734D01*
X-91500Y-84204D01*
Y-85796D01*
X-90891Y-87266D01*
X-89766Y-88391D01*
X-88296Y-89000D01*
X-86704D01*
X-85849Y-88645D01*
X-85129Y-89722D01*
X-86494Y-91087D01*
X-86704Y-91000D01*
X-88296D01*
X-89766Y-91609D01*
X-90891Y-92734D01*
X-91500Y-94204D01*
Y-95796D01*
X-91639Y-96004D01*
X-95766D01*
Y-101036D01*
X-85683D01*
X-85683Y-101036D01*
Y-101036D01*
X-85136Y-102106D01*
X-85121Y-102259D01*
Y-108900D01*
X-105000D01*
X-105550Y-109128D01*
X-106100Y-108900D01*
X-118096D01*
X-118500Y-108296D01*
Y-106704D01*
X-118053Y-106036D01*
X-114234D01*
Y-96004D01*
X-118361D01*
X-118500Y-95796D01*
Y-94204D01*
X-119109Y-92734D01*
X-120234Y-91609D01*
X-121704Y-91000D01*
X-122297D01*
X-122823Y-89730D01*
X-117149Y-84056D01*
X-108525D01*
X-108525Y-84056D01*
X-107738Y-83899D01*
X-107071Y-83454D01*
X-104423Y-80806D01*
X-104000D01*
X-104000Y-80806D01*
X-104000Y-80806D01*
X-98000D01*
X-97213Y-80649D01*
X-96546Y-80204D01*
X-96101Y-79537D01*
X-95944Y-78750D01*
Y-71250D01*
X-96101Y-70463D01*
X-96546Y-69797D01*
X-97213Y-69351D01*
X-98000Y-69194D01*
X-102899D01*
X-103500Y-68296D01*
Y-66704D01*
X-103096Y-66100D01*
X-73600D01*
Y-69194D01*
D02*
G37*
G36*
X73400Y-85000D02*
X68400D01*
X56600Y-91500D01*
X51656D01*
X51639Y-91484D01*
Y-75000D01*
X56600D01*
X68400Y-68500D01*
X73400D01*
Y-85000D01*
D02*
G37*
G36*
X-47500Y-87593D02*
X-53267Y-93361D01*
X-70132D01*
X-71984Y-91509D01*
Y-87384D01*
X-72500D01*
Y-80806D01*
X-70500D01*
X-69713Y-80649D01*
X-69047Y-80204D01*
X-68601Y-79537D01*
X-68444Y-78750D01*
Y-71250D01*
X-68601Y-70463D01*
X-69047Y-69797D01*
X-69713Y-69351D01*
X-70500Y-69194D01*
X-72500D01*
Y-66100D01*
X-47500D01*
Y-87593D01*
D02*
G37*
G36*
X-127500Y-88593D02*
X-132268Y-93361D01*
X-151984D01*
Y-87384D01*
X-152500D01*
Y-66100D01*
X-127500D01*
Y-88593D01*
D02*
G37*
G36*
X248103Y-13420D02*
X247827Y-18876D01*
X246552Y-31405D01*
X244645Y-43855D01*
X242109Y-56192D01*
X238952Y-68384D01*
X235181Y-80401D01*
X230806Y-92211D01*
X228536Y-97500D01*
X131100D01*
Y-62500D01*
X167500D01*
Y-12500D01*
X247228D01*
X248103Y-13420D01*
D02*
G37*
G36*
X130000Y-97500D02*
X110657D01*
X109766Y-96609D01*
X108296Y-96000D01*
X106704D01*
X105234Y-96609D01*
X104343Y-97500D01*
X77500D01*
Y-62500D01*
X130000D01*
Y-97500D01*
D02*
G37*
G36*
X-47500Y-110000D02*
X-45657D01*
X-44766Y-110891D01*
X-43296Y-111500D01*
X-41704D01*
X-40234Y-110891D01*
X-39343Y-110000D01*
X-26100D01*
Y-111779D01*
X-26016Y-111981D01*
Y-112199D01*
X-26000Y-112239D01*
Y-125020D01*
D01*
X-26044Y-125126D01*
Y-127500D01*
X-42843D01*
X-44297Y-126046D01*
X-44963Y-125601D01*
X-45094Y-125575D01*
X-45750Y-125444D01*
X-45750Y-125444D01*
X-76649D01*
X-81011Y-121083D01*
Y-100851D01*
X-77659Y-97500D01*
X-47500D01*
Y-110000D01*
D02*
G37*
G36*
X-127500D02*
X-125657D01*
X-124766Y-110891D01*
X-123296Y-111500D01*
X-121704D01*
X-120234Y-110891D01*
X-119343Y-110000D01*
X-106100D01*
Y-111779D01*
X-106016Y-111981D01*
Y-112199D01*
X-106000Y-112239D01*
Y-124801D01*
X-106016Y-124840D01*
Y-125059D01*
X-106100Y-125261D01*
Y-127500D01*
X-155343D01*
X-162500Y-120343D01*
Y-97500D01*
X-127500D01*
Y-110000D01*
D02*
G37*
G36*
X35000Y-152500D02*
X15000D01*
Y-127500D01*
X-24944D01*
Y-125126D01*
X-24900Y-125020D01*
Y-112020D01*
X-25000Y-111779D01*
Y-110000D01*
X35000D01*
Y-152500D01*
D02*
G37*
G36*
X-85121Y-121934D02*
X-85121Y-121934D01*
X-84965Y-122721D01*
X-84519Y-123387D01*
X-82500Y-125407D01*
Y-131000D01*
X-77500D01*
Y-152500D01*
X-103768D01*
X-104734Y-151766D01*
Y-132734D01*
X-105000D01*
X-105000Y-125261D01*
X-104900Y-125020D01*
Y-112020D01*
X-105000Y-111779D01*
Y-110000D01*
X-85121D01*
Y-121934D01*
D02*
G37*
%LPC*%
G36*
X45796Y241500D02*
X44204D01*
X42734Y240891D01*
X41609Y239766D01*
X41000Y238296D01*
Y236704D01*
X41609Y235234D01*
X42548Y234296D01*
X42516Y233699D01*
X42019Y233341D01*
X41132Y233212D01*
X40811Y233426D01*
X40000Y233588D01*
X39189Y233426D01*
X38502Y232967D01*
X38204Y232522D01*
X37620Y232409D01*
X37380D01*
X36796Y232522D01*
X36498Y232967D01*
X35811Y233426D01*
X35000Y233588D01*
X34189Y233426D01*
X33502Y232967D01*
X33204Y232522D01*
X32620Y232409D01*
X32380D01*
X31796Y232522D01*
X31498Y232967D01*
X30811Y233426D01*
X30000Y233588D01*
X29189Y233426D01*
X28502Y232967D01*
X28204Y232522D01*
X27620Y232409D01*
X27380D01*
X26796Y232522D01*
X26498Y232967D01*
X25811Y233426D01*
X25000Y233588D01*
X24189Y233426D01*
X23502Y232967D01*
X23204Y232522D01*
X22620Y232409D01*
X22380D01*
X21796Y232522D01*
X21498Y232967D01*
X20811Y233426D01*
X20000Y233588D01*
X19189Y233426D01*
X18502Y232967D01*
X18204Y232522D01*
X17620Y232409D01*
X17380D01*
X16796Y232522D01*
X16498Y232967D01*
X15852Y233399D01*
X15809Y233433D01*
X15450Y234793D01*
X15891Y235234D01*
X16500Y236704D01*
Y238296D01*
X15891Y239766D01*
X14766Y240891D01*
X13296Y241500D01*
X11704D01*
X10234Y240891D01*
X9573Y240230D01*
X8750Y239907D01*
X7927Y240230D01*
X7266Y240891D01*
X5796Y241500D01*
X4204D01*
X2734Y240891D01*
X1609Y239766D01*
X1000Y238296D01*
Y236704D01*
X1609Y235234D01*
X2548Y234296D01*
X2515Y233699D01*
X2018Y233341D01*
X1132Y233212D01*
X811Y233426D01*
X0Y233588D01*
X-811Y233426D01*
X-1498Y232967D01*
X-1796Y232522D01*
X-2380Y232409D01*
X-2620D01*
X-3204Y232522D01*
X-3502Y232967D01*
X-4189Y233426D01*
X-5000Y233588D01*
X-5811Y233426D01*
X-6498Y232967D01*
X-6796Y232522D01*
X-7380Y232409D01*
X-7620D01*
X-8204Y232522D01*
X-8502Y232967D01*
X-9189Y233426D01*
X-10000Y233588D01*
X-10811Y233426D01*
X-11498Y232967D01*
X-11796Y232522D01*
X-12380Y232409D01*
X-12620D01*
X-13204Y232522D01*
X-13502Y232967D01*
X-14189Y233426D01*
X-15000Y233588D01*
X-15811Y233426D01*
X-16498Y232967D01*
X-16796Y232522D01*
X-17380Y232409D01*
X-17620D01*
X-18204Y232522D01*
X-18502Y232967D01*
X-19189Y233426D01*
X-20000Y233588D01*
X-20811Y233426D01*
X-21498Y232967D01*
X-21796Y232522D01*
X-22380Y232409D01*
X-22620D01*
X-23204Y232522D01*
X-23502Y232967D01*
X-24189Y233426D01*
X-25000Y233588D01*
X-25811Y233426D01*
X-26498Y232967D01*
X-26796Y232522D01*
X-27380Y232409D01*
X-27620D01*
X-28204Y232522D01*
X-28502Y232967D01*
X-29189Y233426D01*
X-30000Y233588D01*
X-30811Y233426D01*
X-31498Y232967D01*
X-31796Y232522D01*
X-32380Y232409D01*
X-32620D01*
X-33204Y232522D01*
X-33502Y232967D01*
X-34189Y233426D01*
X-34341Y234752D01*
X-34130Y235263D01*
Y236854D01*
X-34739Y238324D01*
X-35864Y239450D01*
X-37334Y240059D01*
X-38925D01*
X-40395Y239450D01*
X-41521Y238324D01*
X-41649Y238299D01*
X-42845Y238447D01*
X-44180Y239000D01*
X-45772D01*
X-47242Y238391D01*
X-48367Y237266D01*
X-48976Y235796D01*
Y234679D01*
X-49941Y233639D01*
X-50088Y233570D01*
X-50811Y233426D01*
X-51498Y232967D01*
X-51958Y232280D01*
X-52119Y231469D01*
Y227112D01*
X-52370Y226737D01*
X-52565Y225755D01*
Y214169D01*
X-52370Y213187D01*
X-51814Y212355D01*
X-50065Y210606D01*
Y210592D01*
X-50891Y209766D01*
X-51500Y208296D01*
Y206704D01*
X-50891Y205234D01*
X-49766Y204109D01*
X-48296Y203500D01*
X-46704D01*
X-45234Y204109D01*
X-44109Y205234D01*
X-43500Y206704D01*
Y208296D01*
X-44109Y209766D01*
X-44935Y210592D01*
Y211669D01*
X-45130Y212651D01*
X-45686Y213483D01*
X-47435Y215232D01*
Y217757D01*
X-47270Y217895D01*
X-46165Y218320D01*
X-45811Y218083D01*
X-45000Y217922D01*
X-44189Y218083D01*
X-43502Y218543D01*
X-43204Y218987D01*
X-42620Y219101D01*
X-42380D01*
X-41796Y218987D01*
X-41498Y218543D01*
X-40811Y218083D01*
X-40000Y217922D01*
X-39189Y218083D01*
X-38502Y218543D01*
X-38204Y218987D01*
X-37620Y219101D01*
X-37380D01*
X-36796Y218987D01*
X-36498Y218543D01*
X-35811Y218083D01*
X-35000Y217922D01*
X-34189Y218083D01*
X-33502Y218543D01*
X-33204Y218987D01*
X-32620Y219101D01*
X-32380D01*
X-31796Y218987D01*
X-31498Y218543D01*
X-30811Y218083D01*
X-30000Y217922D01*
X-29189Y218083D01*
X-28502Y218543D01*
X-28204Y218987D01*
X-27620Y219101D01*
X-27380D01*
X-26796Y218987D01*
X-26498Y218543D01*
X-25811Y218083D01*
X-25000Y217922D01*
X-24189Y218083D01*
X-23502Y218543D01*
X-23204Y218987D01*
X-22620Y219101D01*
X-22380D01*
X-21796Y218987D01*
X-21498Y218543D01*
X-20811Y218083D01*
X-20000Y217922D01*
X-19189Y218083D01*
X-18502Y218543D01*
X-18204Y218987D01*
X-17620Y219101D01*
X-17380D01*
X-16796Y218987D01*
X-16498Y218543D01*
X-15811Y218083D01*
X-15000Y217922D01*
X-14189Y218083D01*
X-13502Y218543D01*
X-13204Y218987D01*
X-12620Y219101D01*
X-12380D01*
X-11796Y218987D01*
X-11498Y218543D01*
X-10811Y218083D01*
X-10000Y217922D01*
X-9189Y218083D01*
X-8502Y218543D01*
X-8204Y218987D01*
X-7620Y219101D01*
X-7380D01*
X-6796Y218987D01*
X-6498Y218543D01*
X-5811Y218083D01*
X-5000Y217922D01*
X-4189Y218083D01*
X-3502Y218543D01*
X-3204Y218987D01*
X-2620Y219101D01*
X-2380D01*
X-1796Y218987D01*
X-1498Y218543D01*
X-811Y218083D01*
X0Y217922D01*
X811Y218083D01*
X1498Y218543D01*
X1796Y218987D01*
X2380Y219101D01*
X2620D01*
X3204Y218987D01*
X3502Y218543D01*
X4189Y218083D01*
X5000Y217922D01*
X5811Y218083D01*
X6498Y218543D01*
X6796Y218987D01*
X7380Y219101D01*
X7620D01*
X8204Y218987D01*
X8502Y218543D01*
X9189Y218083D01*
X10000Y217922D01*
X10811Y218083D01*
X10845Y218106D01*
X12280Y217601D01*
X12363Y217270D01*
X10149Y215056D01*
X7980D01*
X7193Y214899D01*
X6526Y214454D01*
X6526Y214453D01*
X3492Y211419D01*
X3296Y211500D01*
X1704D01*
X234Y210891D01*
X-891Y209766D01*
X-1500Y208296D01*
Y206704D01*
X-891Y205234D01*
X234Y204109D01*
X1704Y203500D01*
X3296D01*
X4766Y204109D01*
X5427Y204770D01*
X6250Y205093D01*
X7073Y204770D01*
X7734Y204109D01*
X9204Y203500D01*
X10796D01*
X12266Y204109D01*
X12927Y204770D01*
X13750Y205093D01*
X14573Y204770D01*
X15234Y204109D01*
X16704Y203500D01*
X18296D01*
X19766Y204109D01*
X20427Y204770D01*
X21250Y205093D01*
X22073Y204770D01*
X22734Y204109D01*
X24204Y203500D01*
X25796D01*
X27266Y204109D01*
X28170Y205014D01*
X28451Y205229D01*
X29720Y205123D01*
X30234Y204609D01*
X31704Y204000D01*
X33296D01*
X34766Y204609D01*
X35891Y205734D01*
X36500Y207204D01*
Y207424D01*
X37220Y208500D01*
X37673Y208500D01*
X38812D01*
X40282Y209109D01*
X40678Y209506D01*
X41508Y210155D01*
X42338Y209506D01*
X42734Y209109D01*
X44204Y208500D01*
X45796D01*
X47266Y209109D01*
X48391Y210234D01*
X49000Y211704D01*
Y213296D01*
X48913Y213506D01*
X51165Y215758D01*
X52305Y215391D01*
X52435Y215291D01*
Y215181D01*
X52630Y214200D01*
X53186Y213367D01*
X53500Y213053D01*
Y211704D01*
X54109Y210234D01*
X55234Y209109D01*
X56704Y208500D01*
X58296D01*
X59766Y209109D01*
X60891Y210234D01*
X61500Y211704D01*
Y213296D01*
X60891Y214766D01*
X59766Y215891D01*
X58296Y216500D01*
X57565D01*
Y225755D01*
X57370Y226737D01*
X57119Y227112D01*
Y231469D01*
X56958Y232280D01*
X56498Y232967D01*
X55811Y233426D01*
X55000Y233588D01*
X54189Y233426D01*
X53502Y232967D01*
X53204Y232522D01*
X52620Y232409D01*
X52380D01*
X51796Y232522D01*
X51498Y232967D01*
X50811Y233426D01*
X50000Y233588D01*
X49189Y233426D01*
X48868Y233212D01*
X47982Y233341D01*
X47484Y233699D01*
X47452Y234296D01*
X48391Y235234D01*
X49000Y236704D01*
Y238296D01*
X48391Y239766D01*
X47266Y240891D01*
X45796Y241500D01*
D02*
G37*
G36*
X97071Y222055D02*
X97071Y222055D01*
X92929D01*
X92929Y222055D01*
X92142Y221899D01*
X91475Y221453D01*
X87613Y217591D01*
X87168Y216924D01*
X87011Y216138D01*
X87011Y216138D01*
Y214714D01*
X84353Y212055D01*
X81788D01*
X81469Y212119D01*
X70041D01*
X69230Y211958D01*
X68543Y211498D01*
X68083Y210811D01*
X67922Y210000D01*
X68083Y209189D01*
X68543Y208502D01*
X68987Y208204D01*
X69101Y207620D01*
Y207380D01*
X68987Y206796D01*
X68543Y206498D01*
X68083Y205811D01*
X67922Y205000D01*
X68083Y204189D01*
X68543Y203502D01*
X68987Y203204D01*
X69101Y202620D01*
Y202380D01*
X68987Y201796D01*
X68543Y201498D01*
X68083Y200811D01*
X67922Y200000D01*
X68083Y199189D01*
X68543Y198502D01*
X68987Y198204D01*
X69101Y197620D01*
Y197380D01*
X68987Y196796D01*
X68543Y196498D01*
X68083Y195811D01*
X67922Y195000D01*
X68083Y194189D01*
X68320Y193835D01*
X67895Y192730D01*
X67757Y192565D01*
X60592D01*
X59766Y193391D01*
X58296Y194000D01*
X56704D01*
X55234Y193391D01*
X54109Y192266D01*
X53500Y190796D01*
Y189204D01*
X54109Y187734D01*
X55234Y186609D01*
X56704Y186000D01*
X58296D01*
X59766Y186609D01*
X60592Y187435D01*
X62225D01*
X62751Y186165D01*
X57872Y181286D01*
X56704D01*
X55234Y180677D01*
X54109Y179552D01*
X53500Y178081D01*
Y176490D01*
X54109Y175020D01*
X55234Y173895D01*
X56704Y173286D01*
X58296D01*
X59766Y173895D01*
X60891Y175020D01*
X61500Y176490D01*
Y177658D01*
X66277Y182435D01*
X75755D01*
X76736Y182630D01*
X77112Y182881D01*
X81469D01*
X82280Y183042D01*
X82967Y183502D01*
X83426Y184189D01*
X83588Y185000D01*
X83426Y185811D01*
X82967Y186498D01*
X82522Y186796D01*
X82409Y187380D01*
Y187620D01*
X82522Y188204D01*
X82967Y188502D01*
X83426Y189189D01*
X83588Y190000D01*
X83426Y190811D01*
X82967Y191498D01*
X82704Y191674D01*
X83089Y192945D01*
X95837D01*
X96000Y192781D01*
Y191704D01*
X96609Y190234D01*
X97734Y189109D01*
X99204Y188500D01*
X100796D01*
X102266Y189109D01*
X103391Y190234D01*
X104000Y191704D01*
Y193296D01*
X103391Y194766D01*
X102730Y195427D01*
X102407Y196250D01*
X102730Y197073D01*
X103391Y197734D01*
X104000Y199204D01*
Y200364D01*
X104204Y200500D01*
X105796D01*
X106000Y200363D01*
Y199204D01*
X106609Y197734D01*
X107734Y196609D01*
X109204Y196000D01*
X110796D01*
X112266Y196609D01*
X113391Y197734D01*
X114000Y199204D01*
Y200796D01*
X113913Y201006D01*
X115969Y203062D01*
X116415Y203729D01*
X116572Y204516D01*
Y214835D01*
X116415Y215622D01*
X115969Y216289D01*
X115969Y216289D01*
X114789Y217470D01*
X114122Y217915D01*
X113335Y218071D01*
X113335Y218071D01*
X101906D01*
X98525Y221453D01*
X97858Y221899D01*
X97727Y221925D01*
X97071Y222055D01*
D02*
G37*
G36*
X75796Y225500D02*
X74204D01*
X72734Y224891D01*
X71609Y223766D01*
X71000Y222296D01*
Y220704D01*
X71609Y219234D01*
X72734Y218109D01*
X74204Y217500D01*
X75796D01*
X77266Y218109D01*
X78391Y219234D01*
X79000Y220704D01*
Y222296D01*
X78391Y223766D01*
X77266Y224891D01*
X75796Y225500D01*
D02*
G37*
G36*
X-60000Y233588D02*
X-60811Y233426D01*
X-61498Y232967D01*
X-61958Y232280D01*
X-62119Y231469D01*
Y227112D01*
X-62370Y226737D01*
X-62565Y225755D01*
Y210541D01*
X-62370Y209559D01*
X-61814Y208727D01*
X-61466Y208379D01*
X-61500Y208296D01*
Y206704D01*
X-60891Y205234D01*
X-59766Y204109D01*
X-58296Y203500D01*
X-56704D01*
X-55234Y204109D01*
X-54109Y205234D01*
X-53500Y206704D01*
Y208296D01*
X-54109Y209766D01*
X-55234Y210891D01*
X-56704Y211500D01*
X-57331D01*
X-57435Y211604D01*
Y225755D01*
X-57630Y226737D01*
X-57881Y227112D01*
Y231469D01*
X-58042Y232280D01*
X-58502Y232967D01*
X-59189Y233426D01*
X-60000Y233588D01*
D02*
G37*
G36*
X2296Y189000D02*
X704D01*
X-766Y188391D01*
X-1891Y187266D01*
X-2500Y185796D01*
Y184204D01*
X-1891Y182734D01*
X-766Y181609D01*
X704Y181000D01*
X2296D01*
X3766Y181609D01*
X4891Y182734D01*
X5500Y184204D01*
Y185796D01*
X4891Y187266D01*
X3766Y188391D01*
X2296Y189000D01*
D02*
G37*
G36*
X13296Y186500D02*
X11704D01*
X10234Y185891D01*
X9109Y184766D01*
X8500Y183296D01*
Y181704D01*
X9109Y180234D01*
X10234Y179109D01*
X11704Y178500D01*
X13296D01*
X14766Y179109D01*
X15891Y180234D01*
X16500Y181704D01*
Y183296D01*
X15891Y184766D01*
X14766Y185891D01*
X13296Y186500D01*
D02*
G37*
G36*
X88296Y181500D02*
X86704D01*
X85234Y180891D01*
X84109Y179766D01*
X83500Y178296D01*
Y177055D01*
X81788D01*
X81469Y177119D01*
X70041D01*
X69230Y176958D01*
X68543Y176498D01*
X68083Y175811D01*
X67922Y175000D01*
X68083Y174189D01*
X68543Y173502D01*
X68987Y173204D01*
X69101Y172620D01*
Y172380D01*
X68987Y171796D01*
X68543Y171498D01*
X68083Y170811D01*
X67922Y170000D01*
X68083Y169189D01*
X68543Y168502D01*
X68987Y168204D01*
X69101Y167620D01*
Y167380D01*
X68987Y166796D01*
X68543Y166498D01*
X68083Y165811D01*
X67922Y165000D01*
X68083Y164189D01*
X68543Y163502D01*
X68987Y163204D01*
X69101Y162620D01*
Y162380D01*
X68987Y161796D01*
X68543Y161498D01*
X68083Y160811D01*
X67922Y160000D01*
X68083Y159189D01*
X68543Y158502D01*
X68806Y158326D01*
X68421Y157056D01*
X25000D01*
X24213Y156899D01*
X23547Y156454D01*
X23547Y156453D01*
X9149Y142056D01*
X-54149D01*
X-58587Y146494D01*
X-58500Y146704D01*
Y148296D01*
X-59109Y149766D01*
X-60234Y150891D01*
X-61704Y151500D01*
X-63296D01*
X-64766Y150891D01*
X-65891Y149766D01*
X-66500Y148296D01*
Y146704D01*
X-65891Y145234D01*
X-64766Y144109D01*
X-64320Y143925D01*
Y142550D01*
X-64766Y142365D01*
X-65891Y141240D01*
X-66500Y139770D01*
Y138179D01*
X-65891Y136708D01*
X-64766Y135583D01*
X-63296Y134974D01*
X-61704D01*
X-60234Y135583D01*
X-59109Y136708D01*
X-58500Y138179D01*
Y138797D01*
X-57230Y139323D01*
X-56453Y138547D01*
X-56453Y138546D01*
X-55787Y138101D01*
X-55000Y137944D01*
X10000D01*
X10000Y137944D01*
X10787Y138101D01*
X11453Y138546D01*
X25851Y152944D01*
X68421D01*
X68806Y151674D01*
X68543Y151498D01*
X68083Y150811D01*
X67922Y150000D01*
X68083Y149189D01*
X68543Y148502D01*
X68987Y148204D01*
X69101Y147620D01*
Y147380D01*
X68987Y146796D01*
X68543Y146498D01*
X68083Y145811D01*
X67922Y145000D01*
X68083Y144189D01*
X68320Y143835D01*
X67895Y142730D01*
X67757Y142565D01*
X60592D01*
X59766Y143391D01*
X58296Y144000D01*
X56704D01*
X55234Y143391D01*
X54109Y142266D01*
X53500Y140796D01*
Y139204D01*
X54109Y137734D01*
X55234Y136609D01*
X56704Y136000D01*
X58296D01*
X59766Y136609D01*
X60592Y137435D01*
X75755D01*
X76736Y137630D01*
X77112Y137881D01*
X81469D01*
X82280Y138042D01*
X82536Y138213D01*
X83824Y137992D01*
X84060Y137852D01*
X84109Y137734D01*
X85234Y136609D01*
X86704Y136000D01*
X88296D01*
X89766Y136609D01*
X90891Y137734D01*
X91500Y139204D01*
Y140796D01*
X90891Y142266D01*
X90490Y142667D01*
X91016Y143937D01*
X94008D01*
X94008Y143937D01*
X94795Y144093D01*
X95462Y144538D01*
X99448Y148525D01*
X100622Y148039D01*
Y145193D01*
X109378D01*
Y151437D01*
X111649D01*
X116523Y146563D01*
X116523Y146562D01*
X117190Y146117D01*
X117976Y145961D01*
X122717D01*
X122717Y145961D01*
X122993Y146016D01*
X134578D01*
X136484Y144109D01*
Y130984D01*
X150516D01*
Y147016D01*
X139391D01*
X136882Y149524D01*
X136216Y149970D01*
X135429Y150126D01*
X135429Y150126D01*
X125204D01*
X124709Y150777D01*
X124525Y151396D01*
X124539Y151417D01*
X124695Y152204D01*
X125585Y152984D01*
X133516D01*
Y169016D01*
X119484D01*
Y155340D01*
X118311Y154854D01*
X115203Y157962D01*
X114536Y158407D01*
X113749Y158563D01*
X113749Y158563D01*
X109378D01*
Y164807D01*
X100622D01*
Y158529D01*
X98958Y156865D01*
X98560D01*
X97773Y156708D01*
X97107Y156263D01*
X97106Y156263D01*
X92190Y151346D01*
X91400Y151447D01*
X90891Y152734D01*
X91500Y154204D01*
Y155796D01*
X90891Y157266D01*
X90230Y157927D01*
X89907Y158750D01*
X90230Y159573D01*
X90891Y160234D01*
X91500Y161704D01*
Y163296D01*
X90891Y164766D01*
X90230Y165427D01*
X89907Y166250D01*
X90230Y167073D01*
X90891Y167734D01*
X91500Y169204D01*
Y170796D01*
X90891Y172266D01*
X90230Y172927D01*
X89907Y173750D01*
X90230Y174573D01*
X90891Y175234D01*
X91500Y176704D01*
Y178296D01*
X90891Y179766D01*
X89766Y180891D01*
X88296Y181500D01*
D02*
G37*
G36*
X148796Y193500D02*
X147204D01*
X146036Y193016D01*
X142984D01*
Y185984D01*
X146036D01*
X146057Y185975D01*
X146247Y184522D01*
X145645Y184016D01*
X142984D01*
Y176984D01*
X146036D01*
X147204Y176500D01*
X148796D01*
X149964Y176984D01*
X153016D01*
Y184016D01*
X149964D01*
X149943Y184025D01*
X149753Y185478D01*
X150356Y185984D01*
X153016D01*
Y193016D01*
X149964D01*
X148796Y193500D01*
D02*
G37*
G36*
X2296Y174000D02*
X704D01*
X-766Y173391D01*
X-1891Y172266D01*
X-2500Y170796D01*
Y169204D01*
X-1891Y167734D01*
X-766Y166609D01*
X704Y166000D01*
X2296D01*
X3766Y166609D01*
X4891Y167734D01*
X5500Y169204D01*
Y170796D01*
X4891Y172266D01*
X3766Y173391D01*
X2296Y174000D01*
D02*
G37*
G36*
X-16704D02*
X-18296D01*
X-19766Y173391D01*
X-20891Y172266D01*
X-21500Y170796D01*
Y169204D01*
X-20891Y167734D01*
X-19766Y166609D01*
X-18296Y166000D01*
X-16704D01*
X-15234Y166609D01*
X-14109Y167734D01*
X-13500Y169204D01*
Y170796D01*
X-14109Y172266D01*
X-15234Y173391D01*
X-16704Y174000D01*
D02*
G37*
G36*
X-56704Y179000D02*
X-58296D01*
X-59766Y178391D01*
X-60891Y177266D01*
X-61500Y175796D01*
Y174204D01*
X-60891Y172734D01*
X-60230Y172073D01*
X-59907Y171250D01*
X-60230Y170427D01*
X-60891Y169766D01*
X-61500Y168296D01*
Y166704D01*
X-60891Y165234D01*
X-59766Y164109D01*
X-58296Y163500D01*
X-56704D01*
X-55234Y164109D01*
X-54109Y165234D01*
X-53500Y166704D01*
Y168296D01*
X-54109Y169766D01*
X-54770Y170427D01*
X-55093Y171250D01*
X-54770Y172073D01*
X-54109Y172734D01*
X-53500Y174204D01*
Y175796D01*
X-54109Y177266D01*
X-55234Y178391D01*
X-56704Y179000D01*
D02*
G37*
G36*
X178796Y163500D02*
X177204D01*
X176036Y163016D01*
X172984D01*
Y155984D01*
X176036D01*
X176057Y155975D01*
X176247Y154522D01*
X175645Y154016D01*
X173148D01*
X172984Y154016D01*
X171726Y154045D01*
X171453Y154453D01*
X171453Y154453D01*
X167016Y158891D01*
Y163016D01*
X156984D01*
Y155984D01*
X164039D01*
X164705Y155167D01*
X164207Y154016D01*
X156984D01*
Y146984D01*
X157944D01*
Y133478D01*
X157734Y133391D01*
X156609Y132266D01*
X156000Y130796D01*
Y129204D01*
X156609Y127734D01*
X157734Y126609D01*
X159204Y126000D01*
X160796D01*
X162266Y126609D01*
X163391Y127734D01*
X164000Y129204D01*
Y129827D01*
X164174Y130826D01*
X165173Y131000D01*
X165796D01*
X167266Y131609D01*
X168391Y132734D01*
X169000Y134204D01*
Y135796D01*
X168913Y136006D01*
X171453Y138546D01*
X171899Y139213D01*
X172055Y140000D01*
X172055Y140000D01*
Y146160D01*
X172984Y146984D01*
X173326Y146984D01*
X176036D01*
X177204Y146500D01*
X178796D01*
X179964Y146984D01*
X183016D01*
Y154016D01*
X179964D01*
X179943Y154025D01*
X179753Y155478D01*
X180355Y155984D01*
X183016D01*
Y163016D01*
X179964D01*
X178796Y163500D01*
D02*
G37*
G36*
X2296Y159000D02*
X704D01*
X-766Y158391D01*
X-1891Y157266D01*
X-2500Y155796D01*
Y154204D01*
X-1891Y152734D01*
X-766Y151609D01*
X704Y151000D01*
X2296D01*
X3766Y151609D01*
X4891Y152734D01*
X5500Y154204D01*
Y155796D01*
X4891Y157266D01*
X3766Y158391D01*
X2296Y159000D01*
D02*
G37*
G36*
X-35704D02*
X-37296D01*
X-38766Y158391D01*
X-39891Y157266D01*
X-40500Y155796D01*
Y154204D01*
X-39891Y152734D01*
X-38766Y151609D01*
X-37296Y151000D01*
X-35704D01*
X-34234Y151609D01*
X-33109Y152734D01*
X-32500Y154204D01*
Y155796D01*
X-33109Y157266D01*
X-34234Y158391D01*
X-35704Y159000D01*
D02*
G37*
G36*
X-114204Y156714D02*
X-115796D01*
X-117266Y156105D01*
X-118391Y154980D01*
X-119000Y153510D01*
Y151919D01*
X-118391Y150449D01*
X-117266Y149323D01*
X-115796Y148714D01*
X-114204D01*
X-112734Y149323D01*
X-111609Y150449D01*
X-111000Y151919D01*
Y153510D01*
X-111609Y154980D01*
X-112734Y156105D01*
X-114204Y156714D01*
D02*
G37*
G36*
X-125616Y150748D02*
X-126373Y150483D01*
X-126972Y149949D01*
X-131485Y143959D01*
X-131834Y143237D01*
X-131879Y142436D01*
X-131615Y141679D01*
X-131081Y141081D01*
X-130641Y140749D01*
X-133344Y137162D01*
X-135957Y139131D01*
X-143559Y129042D01*
X-133471Y121440D01*
X-132202Y123124D01*
X-132035Y123108D01*
X-130953Y122671D01*
X-130651Y120519D01*
X-130242Y119825D01*
X-131069Y118727D01*
X-131849Y118929D01*
X-134337Y118579D01*
X-136502Y117304D01*
X-138014Y115297D01*
X-138644Y112865D01*
X-138294Y110377D01*
X-137885Y109683D01*
X-138712Y108585D01*
X-139492Y108786D01*
X-141980Y108437D01*
X-144145Y107161D01*
X-145658Y105155D01*
X-146287Y102722D01*
X-145937Y100234D01*
X-145528Y99540D01*
X-146355Y98442D01*
X-147135Y98644D01*
X-149623Y98294D01*
X-150317Y97885D01*
X-151415Y98713D01*
X-151214Y99492D01*
X-151563Y101980D01*
X-152839Y104145D01*
X-154845Y105658D01*
X-157278Y106287D01*
X-159766Y105937D01*
X-161931Y104662D01*
X-163443Y102655D01*
X-164072Y100222D01*
X-163723Y97734D01*
X-163314Y97040D01*
X-164141Y95942D01*
X-164921Y96144D01*
X-167409Y95794D01*
X-169574Y94519D01*
X-171086Y92512D01*
X-171716Y90080D01*
X-171366Y87591D01*
X-170091Y85427D01*
X-168084Y83914D01*
X-165651Y83285D01*
X-163163Y83635D01*
X-162469Y84044D01*
X-161371Y83216D01*
X-161573Y82437D01*
X-161223Y79949D01*
X-159948Y77783D01*
X-157941Y76271D01*
X-155508Y75642D01*
X-153020Y75992D01*
X-150855Y77267D01*
X-149343Y79274D01*
X-148714Y81706D01*
X-149064Y84195D01*
X-149473Y84889D01*
X-148645Y85987D01*
X-147865Y85785D01*
X-145377Y86135D01*
X-143212Y87410D01*
X-141700Y89417D01*
X-141071Y91849D01*
X-141421Y94337D01*
X-141830Y95031D01*
X-141002Y96129D01*
X-140222Y95928D01*
X-137734Y96277D01*
X-135569Y97552D01*
X-134057Y99559D01*
X-133428Y101992D01*
X-133778Y104480D01*
X-134186Y105174D01*
X-133359Y106272D01*
X-132579Y106070D01*
X-130091Y106420D01*
X-127926Y107695D01*
X-126414Y109702D01*
X-125785Y112135D01*
X-125822Y112396D01*
X-121702Y113721D01*
X-121639Y113756D01*
X-119865Y114491D01*
X-117916Y115987D01*
X-116420Y117936D01*
X-115483Y120198D01*
X-115521Y120208D01*
X-112788Y130369D01*
X-108514Y136041D01*
X-108166Y136763D01*
X-108121Y137564D01*
X-108385Y138321D01*
X-108919Y138919D01*
X-113711Y142530D01*
X-114433Y142879D01*
X-115234Y142924D01*
X-115991Y142660D01*
X-116589Y142126D01*
X-121103Y136136D01*
X-121452Y135413D01*
X-121497Y134613D01*
X-121233Y133855D01*
X-120699Y133257D01*
X-117015Y130482D01*
X-118108Y126420D01*
X-119366Y126250D01*
X-119767Y126930D01*
X-121774Y128442D01*
X-124206Y129072D01*
X-126358Y128769D01*
X-127076Y129688D01*
X-127138Y129845D01*
X-125869Y131529D01*
X-129247Y134074D01*
X-126543Y137661D01*
X-126289Y137470D01*
X-125567Y137121D01*
X-124766Y137076D01*
X-124009Y137340D01*
X-123410Y137874D01*
X-118897Y143864D01*
X-118548Y144587D01*
X-118503Y145387D01*
X-118767Y146145D01*
X-119301Y146743D01*
X-124093Y150354D01*
X-124816Y150702D01*
X-125616Y150748D01*
D02*
G37*
G36*
X170296Y129000D02*
X168704D01*
X167234Y128391D01*
X166109Y127266D01*
X165500Y125796D01*
Y124204D01*
X166109Y122734D01*
X167234Y121609D01*
X168704Y121000D01*
X170296D01*
X171766Y121609D01*
X172891Y122734D01*
X173500Y124204D01*
Y125796D01*
X172891Y127266D01*
X171766Y128391D01*
X170296Y129000D01*
D02*
G37*
G36*
X-19204Y134000D02*
X-20796D01*
X-22266Y133391D01*
X-23391Y132266D01*
X-24000Y130796D01*
Y129204D01*
X-23391Y127734D01*
X-22266Y126609D01*
X-20796Y126000D01*
X-19204D01*
X-18775Y126178D01*
X-18056Y125101D01*
X-18391Y124766D01*
X-19000Y123296D01*
Y121704D01*
X-18391Y120234D01*
X-17266Y119109D01*
X-15796Y118500D01*
X-14204D01*
X-12734Y119109D01*
X-11609Y120234D01*
X-11000Y121704D01*
Y123296D01*
X-11609Y124766D01*
X-12734Y125891D01*
X-14204Y126500D01*
X-15796D01*
X-16225Y126322D01*
X-16944Y127399D01*
X-16609Y127734D01*
X-16000Y129204D01*
Y130796D01*
X-16609Y132266D01*
X-17734Y133391D01*
X-19204Y134000D01*
D02*
G37*
G36*
X198796Y133500D02*
X197204D01*
X196036Y133016D01*
X192984D01*
Y125984D01*
X196036D01*
X196057Y125975D01*
X196247Y124522D01*
X195645Y124016D01*
X192984D01*
Y116984D01*
X196036D01*
X197204Y116500D01*
X198796D01*
X199964Y116984D01*
X203016D01*
Y124016D01*
X199964D01*
X199943Y124025D01*
X199753Y125478D01*
X200355Y125984D01*
X203016D01*
Y133016D01*
X199964D01*
X198796Y133500D01*
D02*
G37*
G36*
X-190526Y99380D02*
X-192118D01*
X-193588Y98771D01*
X-194713Y97646D01*
X-195322Y96176D01*
Y94584D01*
X-194713Y93114D01*
X-193588Y91989D01*
X-192118Y91380D01*
X-190526D01*
X-189056Y91989D01*
X-187931Y93114D01*
X-187322Y94584D01*
Y96176D01*
X-187931Y97646D01*
X-189056Y98771D01*
X-190526Y99380D01*
D02*
G37*
G36*
X213796Y103500D02*
X212204D01*
X211036Y103016D01*
X207984D01*
Y95984D01*
X211036D01*
X211057Y95975D01*
X211247Y94522D01*
X210645Y94016D01*
X207984D01*
Y86984D01*
X211036D01*
X212204Y86500D01*
X213796D01*
X214964Y86984D01*
X218016D01*
Y94016D01*
X214964D01*
X214943Y94025D01*
X214753Y95478D01*
X215355Y95984D01*
X218016D01*
Y103016D01*
X214964D01*
X213796Y103500D01*
D02*
G37*
G36*
X201251Y82550D02*
X198749D01*
X196333Y81903D01*
X194167Y80652D01*
X192398Y78883D01*
X191147Y76717D01*
X190500Y74301D01*
Y71799D01*
X191147Y69383D01*
X192398Y67217D01*
X194167Y65448D01*
X196333Y64197D01*
X198749Y63550D01*
X201251D01*
X203667Y64197D01*
X205833Y65448D01*
X207602Y67217D01*
X208853Y69383D01*
X209500Y71799D01*
Y74301D01*
X208853Y76717D01*
X207602Y78883D01*
X205833Y80652D01*
X203667Y81903D01*
X201251Y82550D01*
D02*
G37*
G36*
X-198749D02*
X-201251D01*
X-203667Y81903D01*
X-205833Y80652D01*
X-207602Y78883D01*
X-208853Y76717D01*
X-209500Y74301D01*
Y71799D01*
X-208853Y69383D01*
X-207602Y67217D01*
X-205833Y65448D01*
X-203667Y64197D01*
X-201251Y63550D01*
X-198749D01*
X-196333Y64197D01*
X-194167Y65448D01*
X-192398Y67217D01*
X-191147Y69383D01*
X-190500Y71799D01*
Y74301D01*
X-191147Y76717D01*
X-192398Y78883D01*
X-194167Y80652D01*
X-196333Y81903D01*
X-198749Y82550D01*
D02*
G37*
G36*
X153516Y43516D02*
X126484D01*
Y16484D01*
X153516D01*
Y43516D01*
D02*
G37*
G36*
X-201534Y-27034D02*
X-232766D01*
Y-36466D01*
X-201534D01*
Y-27034D01*
D02*
G37*
G36*
X-159204Y-46000D02*
X-160796D01*
X-162266Y-46609D01*
X-163391Y-47734D01*
X-164000Y-49204D01*
Y-50796D01*
X-163391Y-52266D01*
X-162266Y-53391D01*
X-160796Y-54000D01*
X-159204D01*
X-157734Y-53391D01*
X-156609Y-52266D01*
X-156000Y-50796D01*
Y-49204D01*
X-156609Y-47734D01*
X-157734Y-46609D01*
X-159204Y-46000D01*
D02*
G37*
G36*
X-167234Y-52434D02*
X-198466D01*
Y-61866D01*
X-191556D01*
Y-66263D01*
X-192826Y-66789D01*
X-194167Y-65448D01*
X-196333Y-64197D01*
X-198749Y-63550D01*
X-201251D01*
X-203667Y-64197D01*
X-205833Y-65448D01*
X-207174Y-66789D01*
X-208444Y-66263D01*
Y-61866D01*
X-201534D01*
Y-52434D01*
X-232766D01*
Y-61866D01*
X-212556D01*
Y-77399D01*
X-212556Y-77399D01*
X-212399Y-78186D01*
X-211954Y-78853D01*
X-205803Y-85003D01*
X-205803Y-85003D01*
X-205136Y-85449D01*
X-204349Y-85605D01*
X-203563D01*
Y-87627D01*
X-203563Y-87628D01*
X-203563Y-87628D01*
Y-89194D01*
X-209500D01*
X-210287Y-89351D01*
X-210954Y-89796D01*
X-211399Y-90463D01*
X-211556Y-91250D01*
Y-98750D01*
X-211399Y-99537D01*
X-210954Y-100204D01*
X-210287Y-100649D01*
X-209500Y-100806D01*
X-203563D01*
Y-105722D01*
X-203563Y-105723D01*
X-203407Y-106509D01*
X-202961Y-107176D01*
X-200005Y-110132D01*
X-200150Y-111784D01*
X-201532Y-112751D01*
X-202572Y-113479D01*
X-206856Y-116479D01*
X-199381Y-127154D01*
X-195071Y-124136D01*
X-194030Y-123408D01*
X-192990Y-122679D01*
X-188706Y-119679D01*
Y-119679D01*
X-184422Y-116680D01*
X-183382Y-115951D01*
X-182341Y-115223D01*
X-178057Y-112223D01*
X-185532Y-101548D01*
X-189842Y-104566D01*
X-190883Y-105294D01*
X-191923Y-106023D01*
X-193165Y-106893D01*
X-196437Y-103622D01*
Y-100806D01*
X-190500D01*
X-189713Y-100649D01*
X-189046Y-100204D01*
X-188601Y-99537D01*
X-188444Y-98750D01*
Y-91250D01*
X-188601Y-90463D01*
X-189046Y-89796D01*
X-189713Y-89351D01*
X-190500Y-89194D01*
X-196437D01*
Y-86492D01*
X-195651Y-85605D01*
X-194864Y-85449D01*
X-194197Y-85003D01*
X-188047Y-78853D01*
X-188046Y-78853D01*
X-187601Y-78186D01*
X-187444Y-77399D01*
Y-61866D01*
X-167234D01*
Y-52434D01*
D02*
G37*
G36*
X-6000Y-69194D02*
X-12000D01*
X-12787Y-69351D01*
X-13453Y-69797D01*
X-13899Y-70463D01*
X-14055Y-71250D01*
Y-78750D01*
X-13899Y-79537D01*
X-13453Y-80204D01*
X-12894Y-80577D01*
X-12866Y-80624D01*
X-12722Y-81198D01*
X-12632Y-81975D01*
X-13391Y-82734D01*
X-14000Y-84204D01*
Y-85796D01*
X-13391Y-87266D01*
X-12266Y-88391D01*
X-10796Y-89000D01*
X-9204D01*
X-7734Y-88391D01*
X-6609Y-87266D01*
X-6000Y-85796D01*
Y-84204D01*
X-6609Y-82734D01*
X-7268Y-82076D01*
X-6742Y-80806D01*
X-6000D01*
X-5213Y-80649D01*
X-4547Y-80204D01*
X-4101Y-79537D01*
X-3945Y-78750D01*
Y-71250D01*
X-4101Y-70463D01*
X-4547Y-69797D01*
X-5213Y-69351D01*
X-6000Y-69194D01*
D02*
G37*
G36*
X104500Y-130444D02*
X104500Y-130444D01*
X91500D01*
X90713Y-130601D01*
X90047Y-131046D01*
X89614Y-131694D01*
X86000D01*
X85213Y-131851D01*
X84546Y-132296D01*
X84101Y-132963D01*
X83945Y-133750D01*
Y-141250D01*
X84101Y-142037D01*
X84546Y-142704D01*
X85213Y-143149D01*
X86000Y-143306D01*
X92000D01*
X92787Y-143149D01*
X93453Y-142704D01*
X93899Y-142037D01*
X94056Y-141250D01*
Y-134556D01*
X103649D01*
X104734Y-135641D01*
Y-151766D01*
X112766D01*
Y-132734D01*
X107641D01*
X105954Y-131046D01*
X105287Y-130601D01*
X105156Y-130575D01*
X104500Y-130444D01*
D02*
G37*
G36*
X10266Y-132734D02*
X2234D01*
Y-151766D01*
X10266D01*
Y-132734D01*
D02*
G37*
G36*
X-2234D02*
X-10266D01*
Y-151766D01*
X-2234D01*
Y-132734D01*
D02*
G37*
G36*
X-54734D02*
X-62766D01*
Y-151766D01*
X-54734D01*
Y-132734D01*
D02*
G37*
G36*
X-24204Y-150786D02*
X-25796D01*
X-27266Y-151395D01*
X-28391Y-152520D01*
X-29000Y-153990D01*
Y-155581D01*
X-28391Y-157051D01*
X-27266Y-158177D01*
X-25796Y-158786D01*
X-24204D01*
X-22734Y-158177D01*
X-21609Y-157051D01*
X-21000Y-155581D01*
Y-153990D01*
X-21609Y-152520D01*
X-22734Y-151395D01*
X-24204Y-150786D01*
D02*
G37*
G36*
X-9002Y-162480D02*
X-10999D01*
X-12844Y-163244D01*
X-14256Y-164656D01*
X-15020Y-166501D01*
Y-168498D01*
X-14256Y-170344D01*
X-12844Y-171756D01*
X-10999Y-172520D01*
X-9002D01*
X-7156Y-171756D01*
X-5744Y-170344D01*
X-4980Y-168498D01*
Y-166501D01*
X-5744Y-164656D01*
X-7156Y-163244D01*
X-9002Y-162480D01*
D02*
G37*
G36*
X-69001D02*
X-70999D01*
X-72844Y-163244D01*
X-74256Y-164656D01*
X-75020Y-166501D01*
Y-168498D01*
X-74256Y-170344D01*
X-72844Y-171756D01*
X-70999Y-172520D01*
X-69001D01*
X-67156Y-171756D01*
X-65744Y-170344D01*
X-64980Y-168498D01*
Y-166501D01*
X-65744Y-164656D01*
X-67156Y-163244D01*
X-69001Y-162480D01*
D02*
G37*
G36*
X-61704Y-173500D02*
X-63296D01*
X-64766Y-174109D01*
X-65891Y-175234D01*
X-66500Y-176704D01*
Y-178296D01*
X-65891Y-179766D01*
X-64766Y-180891D01*
X-63296Y-181500D01*
X-61704D01*
X-60234Y-180891D01*
X-59109Y-179766D01*
X-58500Y-178296D01*
Y-176704D01*
X-59109Y-175234D01*
X-60234Y-174109D01*
X-61704Y-173500D01*
D02*
G37*
G36*
X58296Y96500D02*
X56704D01*
X55234Y95891D01*
X54109Y94766D01*
X53500Y93296D01*
Y91704D01*
X54109Y90234D01*
X55234Y89109D01*
X56704Y88500D01*
X57331D01*
X57435Y88396D01*
Y74245D01*
X57630Y73264D01*
X57881Y72888D01*
Y68531D01*
X58042Y67720D01*
X58502Y67033D01*
X59189Y66574D01*
X60000Y66412D01*
X60811Y66574D01*
X61498Y67033D01*
X61958Y67720D01*
X62119Y68531D01*
Y72888D01*
X62370Y73264D01*
X62565Y74245D01*
Y89459D01*
X62370Y90441D01*
X61814Y91273D01*
X61466Y91621D01*
X61500Y91704D01*
Y93296D01*
X60891Y94766D01*
X59766Y95891D01*
X58296Y96500D01*
D02*
G37*
G36*
X85796Y64000D02*
X84204D01*
X82734Y63391D01*
X81609Y62266D01*
X81000Y60796D01*
Y59204D01*
X81609Y57734D01*
X82734Y56609D01*
X84204Y56000D01*
X85796D01*
X87266Y56609D01*
X88391Y57734D01*
X89000Y59204D01*
Y60796D01*
X88391Y62266D01*
X87266Y63391D01*
X85796Y64000D01*
D02*
G37*
G36*
X83516Y43516D02*
X56484D01*
Y16484D01*
X83516D01*
Y43516D01*
D02*
G37*
G36*
X-15193Y44378D02*
X-24378D01*
Y39035D01*
X-31814Y31600D01*
X-32370Y30767D01*
X-32565Y29786D01*
Y10000D01*
X-32370Y9018D01*
X-31814Y8186D01*
X-29565Y5938D01*
Y4381D01*
X-30835Y3640D01*
X-31704Y4000D01*
X-33296D01*
X-34766Y3391D01*
X-35891Y2266D01*
X-36500Y796D01*
Y65D01*
X-43869D01*
X-44000Y120D01*
X-51672D01*
X-51874Y36D01*
X-52093D01*
X-52652Y-195D01*
X-52807Y-350D01*
X-53009Y-434D01*
X-53436Y-861D01*
X-53520Y-1063D01*
X-53675Y-1218D01*
X-53906Y-1777D01*
Y-1996D01*
X-53990Y-2198D01*
Y-2802D01*
X-53906Y-3004D01*
Y-3223D01*
X-53675Y-3782D01*
X-53520Y-3937D01*
X-53436Y-4139D01*
X-53367Y-4208D01*
X-53135Y-5000D01*
X-53367Y-5792D01*
X-53436Y-5861D01*
X-53520Y-6064D01*
X-53675Y-6218D01*
X-53906Y-6777D01*
Y-6996D01*
X-53990Y-7198D01*
Y-7802D01*
X-53906Y-8005D01*
Y-8223D01*
X-53675Y-8782D01*
X-53520Y-8937D01*
X-53436Y-9139D01*
X-53009Y-9566D01*
X-52807Y-9650D01*
X-52652Y-9805D01*
X-52093Y-10036D01*
X-51874D01*
X-51672Y-10120D01*
X-44000D01*
X-43869Y-10065D01*
X-35591D01*
X-34766Y-10891D01*
X-33296Y-11500D01*
X-31704D01*
X-30234Y-10891D01*
X-29109Y-9766D01*
X-28500Y-8296D01*
Y-7406D01*
X-25186Y-4092D01*
X-24630Y-3260D01*
X-24435Y-2278D01*
Y2D01*
X-23587Y361D01*
X-23165Y453D01*
X-22329Y-105D01*
X-21250Y-320D01*
X-18250D01*
X-17171Y-105D01*
X-16256Y506D01*
X-15645Y1421D01*
X-15430Y2500D01*
X-15645Y3579D01*
X-16018Y4138D01*
X-16168Y5000D01*
X-16018Y5862D01*
X-15645Y6421D01*
X-15430Y7500D01*
X-15645Y8579D01*
X-16018Y9138D01*
X-16168Y10000D01*
X-16018Y10862D01*
X-15645Y11421D01*
X-15430Y12500D01*
X-15645Y13579D01*
X-16256Y14494D01*
X-17171Y15106D01*
X-18250Y15320D01*
X-21250D01*
X-22329Y15106D01*
X-23244Y14494D01*
X-23856Y13579D01*
X-24070Y12500D01*
X-23856Y11421D01*
X-23798Y11335D01*
X-24477Y10065D01*
X-26437D01*
X-27435Y11063D01*
Y28723D01*
X-20536Y35622D01*
X-15193D01*
Y44378D01*
D02*
G37*
%LPD*%
G36*
X-44000Y-4020D02*
X-51370Y-4020D01*
X-51672D01*
X-52231Y-3789D01*
X-52659Y-3361D01*
X-52890Y-2802D01*
Y-2500D01*
Y-2198D01*
X-52659Y-1639D01*
X-52231Y-1211D01*
X-51672Y-980D01*
X-44000D01*
Y-4020D01*
D02*
G37*
G36*
Y-9020D02*
X-51672D01*
X-52231Y-8789D01*
X-52659Y-8361D01*
X-52890Y-7802D01*
Y-7500D01*
Y-7198D01*
X-52659Y-6639D01*
X-52231Y-6211D01*
X-51672Y-5980D01*
X-44000D01*
Y-9020D01*
D02*
G37*
%LPC*%
G36*
X201251Y-63550D02*
X198749D01*
X196333Y-64197D01*
X194167Y-65448D01*
X192398Y-67217D01*
X191147Y-69383D01*
X190500Y-71799D01*
Y-74301D01*
X191147Y-76717D01*
X192398Y-78883D01*
X194167Y-80652D01*
X196333Y-81903D01*
X198749Y-82550D01*
X201251D01*
X203667Y-81903D01*
X205833Y-80652D01*
X207602Y-78883D01*
X208853Y-76717D01*
X209500Y-74301D01*
Y-71799D01*
X208853Y-69383D01*
X207602Y-67217D01*
X205833Y-65448D01*
X203667Y-64197D01*
X201251Y-63550D01*
D02*
G37*
%LPD*%
D12*
X-122332Y115677D02*
G03*
X-117506Y120742I-2240J6965D01*
G01*
X110000Y200000D02*
X114516Y204516D01*
Y214835D01*
X113335Y216016D02*
X114516Y214835D01*
X97071Y220000D02*
X101055Y216016D01*
X113335D01*
X92929Y220000D02*
X97071D01*
X89067Y216138D02*
X92929Y220000D01*
X89067Y213862D02*
Y216138D01*
X75755Y210000D02*
X85204D01*
X89067Y213862D01*
X-99016Y202320D02*
X-91336Y210000D01*
X-75755D01*
X-99016Y200249D02*
Y202320D01*
X-100249Y199016D02*
X-99016Y200249D01*
X-105984Y199016D02*
X-100249D01*
X-106000Y199000D02*
X-105984Y199016D01*
X-104735Y196000D02*
X-99000D01*
X-109751Y195984D02*
X-104751D01*
X-104735Y196000D01*
X-99000D02*
X-96000Y199000D01*
X-136000Y174000D02*
X-111000Y199000D01*
X-106000D01*
X-134751Y170984D02*
X-109751Y195984D01*
X-132252Y164952D02*
X-107720Y189484D01*
X-93828D01*
X-133502Y167968D02*
X-108969Y192500D01*
X-97500D01*
X-96000Y201071D02*
X-92071Y205000D01*
X-96000Y199000D02*
Y201071D01*
X-92071Y205000D02*
X-75755D01*
X-159000Y174000D02*
X-136000D01*
X-157915Y170984D02*
X-134751D01*
X-155417Y164952D02*
X-132252D01*
X-90812Y192500D02*
X-90000D01*
X-156666Y167968D02*
X-133502D01*
X-93828Y189484D02*
X-90812Y192500D01*
X-97500D02*
X-90000Y200000D01*
X99000Y212500D02*
X105000D01*
X97074Y214426D02*
X99000Y212500D01*
X95574Y214426D02*
X97074D01*
X95000Y215000D02*
X95574Y214426D01*
X104500Y205000D02*
X105000Y204500D01*
X75755Y205000D02*
X104500D01*
X75755Y200000D02*
X100000D01*
X-97000Y-13144D02*
X-96555Y-12699D01*
Y-12500D01*
X-97000Y-19000D02*
Y-13144D01*
X-92465Y-32500D02*
Y-31688D01*
X-90000Y-29223D01*
Y-19212D01*
X-62500Y-32500D02*
Y-32328D01*
X-55000Y-25000D02*
X-47500Y-32500D01*
X-60000Y-27500D02*
X-55000Y-32500D01*
X-65000Y-29828D02*
X-62500Y-32328D01*
X-65000Y-29828D02*
Y-19055D01*
X-85000Y-32500D02*
X-80000Y-27500D01*
X-38130Y235247D02*
Y236059D01*
X-39976Y233400D02*
X-38130Y235247D01*
X-39976Y225779D02*
Y233400D01*
X-110000Y-12500D02*
X-105000Y-7500D01*
X-110016Y-12500D02*
X-110000D01*
X-60812Y110000D02*
X-58312Y112500D01*
X-75755Y110000D02*
X-60812D01*
X-58312Y112500D02*
X-57500D01*
X-75755Y115000D02*
X-62500D01*
X-75755Y105000D02*
X-57500D01*
X-62500Y115000D02*
X-57500Y120000D01*
X-65206Y120000D02*
X-60206Y125000D01*
X-55000D01*
X-50000Y120000D01*
X-75755Y120000D02*
X-65206D01*
X-110000Y-5000D02*
X-109743D01*
X-105000Y-7500D02*
X-96555D01*
X-109743Y-5000D02*
X-107243Y-2500D01*
X-120479Y-24306D02*
X-109786Y-35000D01*
X-120479Y-24306D02*
Y-13613D01*
X-123842Y-10250D02*
X-120479Y-13613D01*
X-107638Y7638D02*
X-106604D01*
X-110000Y10000D02*
X-107638Y7638D01*
X-106466Y7500D02*
X-96555D01*
X-106604Y7638D02*
X-106466Y7500D01*
X-107638Y17209D02*
X-106466D01*
X-110000Y19571D02*
X-107638Y17209D01*
X-106466D02*
X-101757Y12500D01*
X-96555D01*
X-110000Y19571D02*
Y19786D01*
Y10000D02*
Y10214D01*
X-155575Y-90825D02*
X-154200Y-92200D01*
X-159550Y-90450D02*
X-155200D01*
X-154750Y-94244D02*
Y-92200D01*
X-155200Y-90450D02*
X-154750Y-90900D01*
X-160000Y-90000D02*
X-159550Y-90450D01*
X-153578Y-95416D02*
X-131416D01*
X-154750Y-94244D02*
X-153578Y-95416D01*
X-168016Y-122823D02*
Y-84922D01*
X-163828Y-85000D02*
X-145000D01*
X-171032Y-111461D02*
Y-83532D01*
X-160558Y-80574D02*
X-159984Y-80000D01*
X-165000Y-86172D02*
X-163828Y-85000D01*
X-168016Y-84922D02*
X-163668Y-80574D01*
X-165000Y-120750D02*
Y-86172D01*
X-163668Y-80574D02*
X-160558D01*
X-171032Y-83532D02*
X-160000Y-72500D01*
X-105275Y-78750D02*
X-104000D01*
X-118000Y-82000D02*
X-108525D01*
X-101000Y-75750D02*
Y-75000D01*
X-104000Y-78750D02*
X-101000Y-75750D01*
X-108525Y-82000D02*
X-105275Y-78750D01*
X-118312Y-7500D02*
X-117500D01*
X-120812Y-5000D02*
X-118312Y-7500D01*
X-127150Y-5000D02*
X-120812D01*
X-39000Y-82000D02*
X-29750D01*
X-23500Y-75750D01*
X49584Y-92335D02*
X54749Y-97500D01*
X62329D01*
X70900Y-124150D02*
X80102Y-133352D01*
X70900Y-124150D02*
Y-89750D01*
X108750Y-142250D02*
Y-136750D01*
X104500Y-132500D02*
X108750Y-136750D01*
X91500Y-132500D02*
X104500D01*
X-27000Y-134000D02*
X-26000Y-135000D01*
X-27000Y-134000D02*
Y-123300D01*
X-31820Y-118480D02*
X-27000Y-123300D01*
X-77500Y-127500D02*
X-45750D01*
X-39000Y-134250D01*
X-83066Y-121934D02*
X-77500Y-127500D01*
X-39000Y-135000D02*
Y-134250D01*
X-83066Y-121934D02*
Y-100000D01*
X-81532Y-89032D02*
Y-83782D01*
X-73500Y-75750D01*
Y-75000D01*
X-66909Y-90900D02*
X-61750D01*
X-71425Y-86384D02*
X-66909Y-90900D01*
X-77335Y-86384D02*
X-71425D01*
X-78516Y-87565D02*
X-77335Y-86384D01*
X-78516Y-95450D02*
Y-87565D01*
X-83066Y-100000D02*
X-78516Y-95450D01*
X-87500Y-95000D02*
X-81532Y-89032D01*
X-145000Y-110000D02*
X-138500Y-116500D01*
Y-135000D02*
Y-116500D01*
X-165000Y-120750D02*
X-151500Y-134250D01*
Y-135000D02*
Y-134250D01*
X-131416Y-95416D02*
X-118000Y-82000D01*
X-135000Y-76000D02*
X-134000Y-75000D01*
X-114000D01*
X-122000Y-103520D02*
X-119500D01*
X-122500Y-104020D02*
X-122000Y-103520D01*
X-122500Y-107500D02*
Y-104020D01*
X-122000Y-98520D02*
X-119500D01*
X-122500Y-98020D02*
X-122000Y-98520D01*
X-122500Y-98020D02*
Y-95000D01*
X-90500Y-98520D02*
X-88000D01*
X-87500Y-98020D01*
Y-95000D01*
X-10500Y-98520D02*
X-8000D01*
X-7500Y-98020D01*
Y-95000D01*
X-42000Y-98520D02*
X-39500D01*
X-42500Y-98020D02*
X-42000Y-98520D01*
X-42500Y-98020D02*
Y-95000D01*
X-42000Y-103520D02*
X-39500D01*
X-42500Y-104020D02*
X-42000Y-103520D01*
X-42500Y-107500D02*
Y-104020D01*
X-10000Y-76000D02*
X-9000Y-75000D01*
X-10000Y-85000D02*
Y-76000D01*
X-87500D02*
X-86500Y-75000D01*
X-87500Y-85000D02*
Y-76000D01*
X-7500Y-95000D02*
X4000Y-83500D01*
Y-75000D01*
X-70984Y-95416D02*
X-52416D01*
X-39000Y-82000D01*
X-23500Y-75750D02*
Y-75000D01*
X-74750Y-91650D02*
X-70984Y-95416D01*
X-74750Y-91650D02*
Y-90900D01*
X-55000Y-25000D02*
Y-19055D01*
X-60000Y-27500D02*
Y-19055D01*
X-75000Y-29188D02*
Y-19055D01*
X-77500Y-32500D02*
Y-31688D01*
X-75000Y-29188D01*
X-70000Y-32500D02*
Y-19212D01*
X-80000Y-27500D02*
Y-19055D01*
X128172Y71000D02*
X143968D01*
X-165000Y110000D02*
X-160429Y114571D01*
X-126900Y-10250D02*
X-123842D01*
X-127150Y-10000D02*
X-126900Y-10250D01*
X-125288Y-35000D02*
X-125214D01*
X-127150Y-33138D02*
X-125288Y-35000D01*
X-127150Y-33138D02*
Y-15000D01*
X10000Y87500D02*
X20000Y97500D01*
X-179020Y138473D02*
X-167762Y149731D01*
X-160000Y25201D02*
X-155951Y29250D01*
X-153600D01*
X-160000Y32500D02*
X-159943D01*
X-157443Y35000D01*
X-152850D01*
X-213150Y-57200D02*
X-210500Y-59850D01*
X-213650Y-57200D02*
X-213150D01*
X-203500Y-91250D02*
X-202680D01*
X-210500Y-77399D02*
Y-59850D01*
X-206500Y-94250D02*
X-203500Y-91250D01*
X-210500Y-77399D02*
X-204349Y-83550D01*
X-206500Y-95000D02*
Y-94250D01*
X-204349Y-83550D02*
X-202680D01*
X-201508Y-87628D02*
X-201508Y-87628D01*
X-202680Y-91250D02*
X-201508Y-90078D01*
X-202680Y-83550D02*
X-201508Y-84722D01*
X-201508Y-90078D02*
Y-87628D01*
X-201508Y-87628D02*
Y-84722D01*
X-189500Y-77399D02*
Y-59850D01*
X-186850Y-57200D01*
X-197320Y-83550D02*
X-195651D01*
X-189500Y-77399D01*
X-198492Y-86378D02*
Y-84722D01*
X-197320Y-83550D01*
X-197320Y-91250D02*
X-196500D01*
X-198492Y-90078D02*
X-197320Y-91250D01*
X-193500Y-95000D02*
Y-94250D01*
X-196500Y-91250D02*
X-193500Y-94250D01*
X-186850Y-57200D02*
X-186350D01*
X-198492Y-90078D02*
Y-86378D01*
X-198492Y-86378D02*
X-198492Y-86378D01*
X-201508Y-105723D02*
Y-99922D01*
X-197121Y-114213D02*
X-195119Y-116215D01*
X-202680Y-98750D02*
X-201508Y-99922D01*
X-203500Y-98750D02*
X-202680D01*
X-206500Y-95750D02*
X-203500Y-98750D01*
X-201508Y-105723D02*
X-197121Y-110109D01*
Y-114213D02*
Y-110109D01*
X-193500Y-95750D02*
Y-95000D01*
X-196500Y-98750D02*
X-193500Y-95750D01*
X-197320Y-98750D02*
X-196500D01*
X-198492Y-99922D02*
X-197320Y-98750D01*
X-198492Y-104473D02*
Y-99922D01*
X-190478Y-112487D02*
X-189794D01*
X-198492Y-104473D02*
X-190478Y-112487D01*
X-159984Y-14783D02*
X-155951Y-10750D01*
X-159984Y-15000D02*
Y-14783D01*
Y-7500D02*
X-159943D01*
X-187394Y-127823D02*
X-171032Y-111461D01*
X-187394Y-139377D02*
Y-127823D01*
Y-139377D02*
X-185530Y-141241D01*
X-170868Y-125675D02*
X-168016Y-122823D01*
X-170868Y-128745D02*
Y-125675D01*
Y-128745D02*
X-169557Y-130057D01*
X160000Y130000D02*
Y149000D01*
X161500Y150500D02*
X162000D01*
X160000Y149000D02*
X161500Y150500D01*
X165000Y135000D02*
X170000Y140000D01*
Y153000D01*
X163500Y159500D02*
X170000Y153000D01*
X162000Y159500D02*
X163500D01*
X10000Y234943D02*
X12500Y237443D01*
X10000Y225755D02*
Y234943D01*
X12500Y237443D02*
Y237500D01*
X5000Y225755D02*
Y237500D01*
X-169609Y113473D02*
X-166011Y117071D01*
X-165429D01*
X-180172Y113172D02*
X-177000Y110000D01*
X-158714Y123786D02*
Y161655D01*
X-155417Y164952D01*
X-177000Y110000D02*
X-165000D01*
X-160429Y114571D02*
Y122071D01*
X-158714Y123786D01*
X19479Y12771D02*
Y19811D01*
Y12771D02*
X19750Y12500D01*
X19209Y20081D02*
X19479Y19811D01*
X32924Y-7500D02*
X55080D01*
X45000Y-32500D02*
X50000Y-37500D01*
X50016D01*
X19875Y19875D02*
X20000Y20000D01*
X55000Y0D02*
X71735D01*
X-127150Y35000D02*
X-116516D01*
X-127150Y30000D02*
X-120016D01*
X-127150Y40000D02*
X-127150Y40000D01*
X-127150Y30000D02*
X-127150Y30000D01*
Y40000D02*
X-120016D01*
X2500Y91688D02*
Y92500D01*
Y91688D02*
X5000Y89188D01*
X-5000Y92500D02*
X0Y87500D01*
Y74245D02*
Y87500D01*
X-12500Y92500D02*
X-5000Y85000D01*
X5000Y74245D02*
Y89188D01*
X-5000Y74245D02*
Y85000D01*
X-30000Y89828D02*
X-27500Y92328D01*
X-30000Y74245D02*
Y89828D01*
X-27500Y92328D02*
Y92500D01*
X-160000Y17500D02*
X-154600Y22900D01*
X25000Y74245D02*
Y85506D01*
X20659Y89847D02*
X25000Y85506D01*
X30000Y74245D02*
Y93120D01*
X45000Y225755D02*
Y237500D01*
X12500Y60000D02*
Y60812D01*
X15000Y63312D01*
X19847Y89847D02*
X20659D01*
X35000Y65000D02*
Y74245D01*
X25000Y55000D02*
X35000Y65000D01*
X-27735Y55000D02*
X25000D01*
X33016Y208516D02*
Y215087D01*
X32500Y208000D02*
X33016Y208516D01*
X2500Y207521D02*
X7980Y213000D01*
X2500Y207500D02*
Y207521D01*
X30000Y218000D02*
Y225755D01*
X25000Y213000D02*
X30000Y218000D01*
X25000Y207500D02*
Y213000D01*
X17889Y210889D02*
X25000Y218000D01*
Y225755D01*
X10000Y207500D02*
X20000Y217500D01*
Y225755D01*
X17500Y207500D02*
X17889Y207889D01*
Y210889D01*
X11000Y213000D02*
X15000Y217000D01*
X7980Y213000D02*
X11000D01*
X15000Y217000D02*
Y225755D01*
X40000Y215296D02*
Y225755D01*
X33016Y215087D02*
X35000Y217071D01*
X38016Y213312D02*
X40000Y215296D01*
X38016Y212500D02*
Y213312D01*
X35000Y217071D02*
Y225755D01*
X-12500Y-32500D02*
X45000D01*
X-11251Y-29484D02*
X46781D01*
X63265Y-13000D01*
X-19750Y-20985D02*
X-11251Y-29484D01*
X-25016Y-19984D02*
X-12500Y-32500D01*
Y-23970D02*
X-10001Y-26468D01*
X45532D01*
X62016Y-9984D01*
X15000Y63312D02*
Y74245D01*
X20000Y60000D02*
Y74245D01*
X-35952Y42517D02*
X-26486Y51984D01*
X27249D01*
X-38968Y43767D02*
X-27735Y55000D01*
X27249Y51984D02*
X40000Y64735D01*
X-9500Y33000D02*
X12530D01*
X20000Y36000D02*
X50000Y66000D01*
X20000Y20000D02*
Y36000D01*
X50000Y66000D02*
Y74245D01*
X44976Y65446D02*
Y74221D01*
X-35952Y16177D02*
Y42517D01*
X40000Y64735D02*
Y74245D01*
X44976Y74221D02*
X45000Y74245D01*
X12530Y33000D02*
X44976Y65446D01*
X-62500Y147500D02*
X-55000Y140000D01*
X10000D01*
X-42500Y87500D02*
Y92500D01*
X-110574Y33074D02*
X-110000Y32500D01*
X-114590Y33074D02*
X-110574D01*
X-116516Y35000D02*
X-114590Y33074D01*
X-44988Y234988D02*
X-44976Y235000D01*
X-45000Y225755D02*
X-44988Y225767D01*
Y234988D01*
X-67500Y195000D02*
X-57500Y185000D01*
X87443Y177500D02*
X87500D01*
X-75755Y195000D02*
X-67500D01*
X-57500Y185000D02*
X-57500D01*
X75755Y175000D02*
X84943D01*
X87443Y177500D01*
X-65000Y200000D02*
X-57500Y192500D01*
X50000Y217500D02*
Y225755D01*
X45000Y212500D02*
X50000Y217500D01*
X-40000Y225755D02*
X-39976Y225779D01*
X137750Y67500D02*
X145000Y60250D01*
X115571Y67500D02*
X137750D01*
X112500Y64429D02*
X115571Y67500D01*
X125000Y74172D02*
X128172Y71000D01*
X96688Y195000D02*
X99188Y192500D01*
X100000D01*
X75755Y195000D02*
X96688D01*
X82494Y129008D02*
X85992D01*
X84743Y125992D02*
X97243Y113492D01*
X101508D01*
X82494Y125992D02*
X84743D01*
X85992Y129008D02*
X98492Y116508D01*
X101508D01*
X81502Y130000D02*
X82494Y129008D01*
X81502Y125000D02*
X82494Y125992D01*
X75755Y170000D02*
X75755Y170000D01*
X87500D01*
X75755Y165000D02*
X84943D01*
X87443Y162500D02*
X87500D01*
X84943Y165000D02*
X87443Y162500D01*
X82524Y159976D02*
X87500Y155000D01*
X75755Y160000D02*
X75779Y159976D01*
X82524D01*
X94008Y145992D02*
X99809Y151793D01*
X103207D02*
X105000Y150000D01*
X82494Y149008D02*
X92759D01*
X99809Y154809D02*
X105000Y160000D01*
X82494Y145992D02*
X94008D01*
X92759Y149008D02*
X98560Y154809D01*
X99809Y151793D02*
X103207D01*
X98560Y154809D02*
X99809D01*
X-25000Y87500D02*
X-20000Y92500D01*
X-25000Y74245D02*
Y87500D01*
X-45000Y85000D02*
X-42500Y87500D01*
X-15000Y27500D02*
X-9500Y33000D01*
X-154600Y24250D02*
X-153850Y25000D01*
X-152850D01*
X-154600Y22900D02*
Y24250D01*
X-160000Y25000D02*
Y25201D01*
X10000Y140000D02*
X25000Y155000D01*
X75755D01*
X-87443Y172500D02*
X-84943Y170000D01*
X-87500Y165000D02*
X-75755D01*
X-84943Y170000D02*
X-75755D01*
X-87500Y172500D02*
X-87443D01*
X-75755Y200000D02*
X-65000D01*
X10000Y74245D02*
Y87500D01*
X-98016Y123453D02*
X-81509Y139959D01*
X-104048Y127421D02*
X-81469Y150000D01*
X-95000Y97796D02*
X-55000Y57796D01*
X-95000Y97796D02*
Y121469D01*
X-98016Y96546D02*
X-60000Y58531D01*
X-104048Y94048D02*
X-70000Y60000D01*
X-101032Y125437D02*
X-81509Y144959D01*
X-104048Y94048D02*
Y127421D01*
X-95000Y121469D02*
X-81509Y134959D01*
X-101032Y95297D02*
Y125437D01*
X-98016Y96546D02*
Y123453D01*
X-101032Y95297D02*
X-65000Y59265D01*
X-137500Y157000D02*
X-135750Y158750D01*
X-137500Y150000D02*
Y157000D01*
X-135750Y158750D02*
X-135000D01*
X-159497Y173668D02*
X-159332D01*
X-167726Y165439D02*
X-159497Y173668D01*
X-167762Y165238D02*
X-167726Y165274D01*
X-167762Y149731D02*
Y165238D01*
X-161730Y162904D02*
X-156666Y167968D01*
X-159332Y173668D02*
X-159000Y174000D01*
X-164746Y164153D02*
X-157915Y170984D01*
X-161730Y129079D02*
Y162904D01*
X-167726Y165274D02*
Y165439D01*
X-164746Y133191D02*
Y164153D01*
X-177000Y120937D02*
X-164746Y133191D01*
X-165429Y125380D02*
X-161730Y129079D01*
X-165429Y125000D02*
Y125380D01*
X-175828Y113473D02*
X-169609D01*
X-180172Y127328D02*
X-180000Y127500D01*
X-180172Y113172D02*
Y127328D01*
X-177000Y114644D02*
Y120937D01*
Y114644D02*
X-175828Y113473D01*
X71530Y-13000D02*
X122000Y37469D01*
X63265Y-13000D02*
X71530D01*
X62016Y-9984D02*
X70281D01*
X55532Y-6968D02*
X69032D01*
X70281Y-9984D02*
X118984Y38719D01*
X69032Y-6968D02*
X115968Y39968D01*
X55000Y-7500D02*
X55532Y-6968D01*
X71735Y0D02*
X106000Y34265D01*
X95984Y50751D02*
Y77828D01*
X101000Y50000D02*
X111328D01*
X99000Y52000D02*
X101000Y50000D01*
X99000Y52000D02*
Y81328D01*
X111328Y50000D02*
X112500Y51172D01*
Y64429D01*
X95984Y50751D02*
X106000Y40735D01*
Y34265D02*
Y40735D01*
X94812Y79000D02*
X95984Y77828D01*
X88000Y79000D02*
X94812D01*
X80078Y86922D02*
X88000Y79000D01*
X68144Y86922D02*
X80078D01*
X66963Y88103D02*
X68144Y86922D01*
X66963Y88103D02*
Y96922D01*
X70041Y100000D01*
X75755D01*
X81469Y90000D02*
X88969Y82500D01*
X81469Y95000D02*
X90953Y85516D01*
X88969Y82500D02*
X97828D01*
X90953Y85516D02*
X101249D01*
X125000Y74172D02*
Y88000D01*
X119984Y93016D02*
X125000Y88000D01*
X100208Y93016D02*
X119984D01*
X99036Y94188D02*
X100208Y93016D01*
X99036Y94188D02*
Y99239D01*
X88275Y110000D02*
X99036Y99239D01*
X75755Y110000D02*
X88275D01*
X110000Y90000D02*
X112000Y88000D01*
X96020Y91980D02*
X98000Y90000D01*
X110000D01*
X75755Y105000D02*
X89010D01*
X96020Y91980D02*
Y97990D01*
X89010Y105000D02*
X96020Y97990D01*
X112000Y73000D02*
Y88000D01*
X129250Y54500D02*
X131250Y56500D01*
X118984Y46249D02*
X127235Y54500D01*
X129250D01*
X131250Y56500D02*
Y59000D01*
X97828Y82500D02*
X99000Y81328D01*
X101265Y85500D02*
X104250D01*
X101249Y85516D02*
X101265Y85500D01*
X145000Y60000D02*
Y60250D01*
X75755Y90000D02*
X81469D01*
X105000Y82500D02*
Y84750D01*
X104250Y85500D02*
X105000Y84750D01*
X75755Y95000D02*
X81469D01*
X59016Y-55984D02*
X155751D01*
X55000Y-60000D02*
X59016Y-55984D01*
X66000Y-59000D02*
X157000D01*
X62500Y-62500D02*
X66000Y-59000D01*
X157000D02*
X164000Y-52000D01*
Y49735D01*
X155751Y-55984D02*
X160984Y-50751D01*
Y50984D01*
X161000Y51000D01*
Y69265D01*
X188016Y96281D01*
Y124984D01*
X183500Y129500D02*
X188016Y124984D01*
X182000Y129500D02*
X183500D01*
X164000Y49735D02*
X164016Y49751D01*
Y68016D01*
X195500Y99500D01*
X197000D01*
X106250Y59000D02*
Y81000D01*
X-122557Y25000D02*
X-120057Y22500D01*
X-127150Y25000D02*
X-122557D01*
X-120057Y22500D02*
X-120000D01*
X-153600Y29250D02*
X-152850Y30000D01*
X-159426Y-21926D02*
X-156926D01*
X-160000Y-22500D02*
X-159426Y-21926D01*
X-154600Y-19600D02*
Y-15750D01*
X-156926Y-21926D02*
X-154600Y-19600D01*
Y-15750D02*
X-153850Y-15000D01*
X-157443Y-5000D02*
X-152850D01*
X-159943Y-7500D02*
X-157443Y-5000D01*
X118984Y38719D02*
Y46249D01*
X122000Y37469D02*
Y45000D01*
X115968Y39968D02*
Y47593D01*
X128000Y51000D02*
X138250D01*
X122000Y45000D02*
X128000Y51000D01*
X118750Y50375D02*
Y59000D01*
X115968Y47593D02*
X118750Y50375D01*
X138250Y51000D02*
X143750Y56500D01*
Y59000D01*
X27924Y-2500D02*
X32924Y-7500D01*
X19750Y-2500D02*
X27924D01*
X-12500Y-23970D02*
Y-19750D01*
X-19750Y-20985D02*
Y-12500D01*
X-25016Y-19984D02*
Y-10940D01*
X-21576Y-7500D02*
X-19750D01*
X-25016Y-10940D02*
X-21576Y-7500D01*
X-12787Y20037D02*
Y24475D01*
X-15000Y26688D02*
Y27500D01*
X-12787Y20037D02*
X-12500Y19750D01*
X-15000Y26688D02*
X-12787Y24475D01*
X131250Y83500D02*
X155500Y107750D01*
X131250Y81000D02*
Y83500D01*
X155500Y107750D02*
X157750D01*
X160000Y110000D01*
X108492Y156508D02*
X113749D01*
X121468Y151032D02*
X122640Y152204D01*
X119225Y151032D02*
X121468D01*
X135429Y148071D02*
X143500Y140000D01*
X122772Y148071D02*
X135429D01*
X122717Y148016D02*
X122772Y148071D01*
X105000Y160000D02*
X108492Y156508D01*
X105000Y160000D02*
Y160214D01*
X112500Y153492D02*
X117976Y148016D01*
X108492Y153492D02*
X112500D01*
X113749Y156508D02*
X119225Y151032D01*
X105000Y149786D02*
Y150000D01*
X122640Y157140D02*
X126500Y161000D01*
X143500Y139000D02*
Y140000D01*
X122640Y152204D02*
Y157140D01*
X117976Y148016D02*
X122717D01*
X105000Y150000D02*
X108492Y153492D01*
X75755Y150000D02*
X81502D01*
X82494Y149008D01*
X81502Y145000D02*
X82494Y145992D01*
X75755Y145000D02*
X81502D01*
X105000Y120000D02*
Y120214D01*
Y120000D02*
X108492Y116508D01*
X127815D01*
X128557Y112750D02*
X133125D01*
X108492Y113492D02*
X127815D01*
X105000Y109786D02*
Y110000D01*
X128557Y117250D02*
X133125D01*
Y112750D02*
X135000Y110875D01*
X127815Y113492D02*
X128557Y112750D01*
X105000Y110000D02*
X108492Y113492D01*
X133125Y117250D02*
X135000Y119125D01*
X127815Y116508D02*
X128557Y117250D01*
X101508Y116508D02*
X105000Y120000D01*
X101508Y113492D02*
X105000Y110000D01*
X75755Y125000D02*
X81502D01*
X75755Y130000D02*
X81502D01*
X-57500Y85000D02*
X-45000D01*
X-60000Y82500D02*
X-57500Y85000D01*
X-60000Y74245D02*
Y82500D01*
X-132214Y112500D02*
X-122332Y115677D01*
X-117506Y120742D02*
X-114670Y131288D01*
X-114809Y136088D02*
X-114670Y131288D01*
X-153850Y-15000D02*
X-152850D01*
X-117500Y0D02*
X-117500Y0D01*
X-127150Y0D02*
X-117500D01*
X-153600Y-10750D02*
X-152850Y-10000D01*
X-155951Y-10750D02*
X-153600D01*
X62500Y-97500D02*
Y-97400D01*
X70150Y-89750D01*
X53350Y-70250D02*
X54100D01*
X49584Y-74016D02*
X53350Y-70250D01*
X49584Y-92335D02*
Y-74016D01*
X70150Y-89750D02*
X70900D01*
X-55000Y-75000D02*
X-36500D01*
X-81509Y139959D02*
X-75796D01*
Y134959D02*
X-75755Y135000D01*
X-81509Y134959D02*
X-75796D01*
Y139959D02*
X-75755Y140000D01*
X-81469Y150000D02*
X-75755D01*
X-81509Y144959D02*
X-75796D01*
X-75755Y145000D01*
X-105645Y54355D02*
X-105645Y54355D01*
X-110000Y50000D02*
X-105645Y54355D01*
X-101855Y58145D02*
X-101855Y58145D01*
X-110000Y60367D02*
X-105645Y56012D01*
X-111499Y67976D02*
X-110000Y66478D01*
X-113155Y67976D02*
X-111499D01*
X-120766Y67665D02*
X-113467D01*
X-110000Y60367D02*
Y66478D01*
X-122332Y66100D02*
X-120766Y67665D01*
X-113467D02*
X-113155Y67976D01*
X-101855Y58145D02*
X-97500Y62500D01*
X-103512Y58145D02*
X-101855D01*
X-106984Y61617D02*
X-103512Y58145D01*
X-105645Y54355D02*
Y56012D01*
X-106984Y61617D02*
Y67727D01*
X-110000Y49786D02*
Y50000D01*
X-111622Y70992D02*
X-110249D01*
X-123025Y82395D02*
X-111622Y70992D01*
X-123025Y82395D02*
Y93544D01*
X-122669Y93900D01*
X-97500Y62500D02*
X-97286D01*
X-110249Y70992D02*
X-106984Y67727D01*
X-87929Y50000D02*
X-83990Y46061D01*
X-99633Y50000D02*
X-87929D01*
X-103988Y54355D02*
X-99633Y50000D01*
X-105645Y54355D02*
X-103988D01*
X-80000Y29055D02*
Y29254D01*
X-80974Y30228D02*
X-80000Y29254D01*
X-80974Y30228D02*
Y47310D01*
X-86680Y53016D02*
X-80974Y47310D01*
X-98383Y53016D02*
X-86680D01*
X-101855Y56488D02*
X-98383Y53016D01*
X-101855Y56488D02*
Y58145D01*
X-85000Y29055D02*
Y29254D01*
X-83990Y30264D01*
Y46061D01*
X-107243Y-2500D02*
X-96555D01*
X-44488Y7641D02*
X-35952Y16177D01*
X-45379Y7641D02*
X-44488D01*
X-45520Y7500D02*
X-45379Y7641D01*
X-38968Y18161D02*
Y43767D01*
X-44488Y12641D02*
X-38968Y18161D01*
X-48304Y12641D02*
X-44488D01*
X-20024Y74221D02*
X-20000Y74245D01*
X-41984Y20145D02*
Y45016D01*
X-20024Y66976D02*
Y74221D01*
X-41984Y45016D02*
X-20024Y66976D01*
X-44488Y17641D02*
X-41984Y20145D01*
X-48304Y17641D02*
X-44488D01*
X-48445Y12500D02*
X-48304Y12641D01*
X-48370Y28895D02*
X-45000Y32265D01*
Y74245D01*
X-48445Y17500D02*
X-48304Y17641D01*
X-48445Y22500D02*
X-48370Y22575D01*
Y28895D01*
X-65000Y29055D02*
Y59265D01*
X-55000Y29212D02*
Y57796D01*
X-70000Y29055D02*
Y60000D01*
X-60000Y29055D02*
Y58531D01*
D13*
X27000Y115000D02*
X57500D01*
X12500Y100500D02*
X27000Y115000D01*
X12500Y97500D02*
Y100500D01*
D18*
X-48288Y-12500D02*
D03*
X-48445Y-7500D02*
D03*
Y-2500D02*
D03*
Y2500D02*
D03*
X-45520Y7500D02*
D03*
X-48445Y12500D02*
D03*
Y17500D02*
D03*
Y22500D02*
D03*
X-96712D02*
D03*
X-96555Y17500D02*
D03*
Y12500D02*
D03*
Y7500D02*
D03*
X-96712Y2500D02*
D03*
X-96555Y-2500D02*
D03*
Y-7500D02*
D03*
Y-12500D02*
D03*
X-55000Y29212D02*
D03*
X-60000Y29055D02*
D03*
X-65000D02*
D03*
X-70000D02*
D03*
X-75000Y31980D02*
D03*
X-80000Y29055D02*
D03*
X-85000D02*
D03*
X-90000D02*
D03*
Y-19212D02*
D03*
X-85000Y-19055D02*
D03*
X-80000D02*
D03*
X-75000D02*
D03*
X-70000Y-19212D02*
D03*
X-65000Y-19055D02*
D03*
X-60000D02*
D03*
X-55000D02*
D03*
D19*
X-152850Y45000D02*
D03*
Y40000D02*
D03*
Y35000D02*
D03*
Y30000D02*
D03*
Y25000D02*
D03*
X-127150Y45000D02*
D03*
Y40000D02*
D03*
Y35000D02*
D03*
Y30000D02*
D03*
Y25000D02*
D03*
X-152850Y5000D02*
D03*
Y0D02*
D03*
Y-5000D02*
D03*
Y-10000D02*
D03*
Y-15000D02*
D03*
X-127150Y5000D02*
D03*
Y0D02*
D03*
Y-5000D02*
D03*
Y-10000D02*
D03*
Y-15000D02*
D03*
D20*
X-140000Y35000D02*
D03*
Y-5000D02*
D03*
D21*
X0Y0D02*
D03*
D22*
X-19750Y-12500D02*
D03*
Y-7500D02*
D03*
Y-2500D02*
D03*
Y2500D02*
D03*
Y7500D02*
D03*
Y12500D02*
D03*
X19750D02*
D03*
Y7500D02*
D03*
Y2500D02*
D03*
Y-2500D02*
D03*
Y-7500D02*
D03*
Y-12500D02*
D03*
D23*
X-12500Y19750D02*
D03*
X-7500D02*
D03*
X-2500D02*
D03*
X2500D02*
D03*
X7500D02*
D03*
X12500D02*
D03*
Y-19750D02*
D03*
X7500D02*
D03*
X2500D02*
D03*
X-2500D02*
D03*
X-7500D02*
D03*
X-12500D02*
D03*
D24*
X-110000Y19786D02*
D03*
Y10214D02*
D03*
X105000Y140214D02*
D03*
Y149786D02*
D03*
Y169786D02*
D03*
Y160214D02*
D03*
Y129786D02*
D03*
Y120214D02*
D03*
Y100214D02*
D03*
Y109786D02*
D03*
X-110000Y49786D02*
D03*
Y40214D02*
D03*
D25*
X56250Y-142250D02*
D03*
X43750D02*
D03*
X31250D02*
D03*
X18750D02*
D03*
X6250D02*
D03*
X-6250D02*
D03*
X-58750D02*
D03*
X-71250D02*
D03*
X-83750D02*
D03*
X-96250D02*
D03*
X-108750D02*
D03*
X-121250D02*
D03*
X108750D02*
D03*
X121250D02*
D03*
D26*
X74750Y-174250D02*
D03*
X-24750D02*
D03*
X-40250D02*
D03*
X-139750D02*
D03*
X90250D02*
D03*
X139750D02*
D03*
D27*
X217150Y-57150D02*
D03*
X182850D02*
D03*
X217150Y-44450D02*
D03*
X182850D02*
D03*
X217150Y-31750D02*
D03*
X182850D02*
D03*
X217150Y-19050D02*
D03*
X182850D02*
D03*
X217150Y-6350D02*
D03*
X182850D02*
D03*
X217150Y6350D02*
D03*
X182850D02*
D03*
X217150Y19050D02*
D03*
X182850D02*
D03*
X217150Y31750D02*
D03*
X182850D02*
D03*
X217150Y44450D02*
D03*
X182850D02*
D03*
X217150Y57150D02*
D03*
X182850D02*
D03*
X-182850Y-57150D02*
D03*
X-217150D02*
D03*
X-182850Y-44450D02*
D03*
X-217150D02*
D03*
X-182850Y-31750D02*
D03*
X-217150D02*
D03*
X-182850Y-19050D02*
D03*
X-217150D02*
D03*
X-182850Y-6350D02*
D03*
X-217150D02*
D03*
X-182850Y6350D02*
D03*
X-217150D02*
D03*
X-182850Y19050D02*
D03*
X-217150D02*
D03*
X-182850Y31750D02*
D03*
X-217150D02*
D03*
X-182850Y44450D02*
D03*
X-217150D02*
D03*
X-182850Y57150D02*
D03*
X-217150D02*
D03*
D28*
X-147714Y62500D02*
D03*
X-157286D02*
D03*
X-145214Y-35000D02*
D03*
X-154786D02*
D03*
X-97286Y62500D02*
D03*
X-87714D02*
D03*
X35214Y-15000D02*
D03*
X44786D02*
D03*
X-19786Y40000D02*
D03*
X-10214D02*
D03*
X35214Y15000D02*
D03*
X44786D02*
D03*
X35214Y0D02*
D03*
X44786D02*
D03*
X160214Y95000D02*
D03*
X169786D02*
D03*
X-134786Y-35000D02*
D03*
X-125214D02*
D03*
X-100214D02*
D03*
X-109786D02*
D03*
D29*
X-105000Y211250D02*
D03*
Y178750D02*
D03*
X-135000Y191250D02*
D03*
Y158750D02*
D03*
X105000Y178750D02*
D03*
Y211250D02*
D03*
D30*
X-154750Y-90900D02*
D03*
X-148250D02*
D03*
X-141750D02*
D03*
X-135250D02*
D03*
X-74750D02*
D03*
X-68250D02*
D03*
X-61750D02*
D03*
X-55250D02*
D03*
D31*
X115000Y-80000D02*
D03*
X145000D02*
D03*
D32*
X143750Y81000D02*
D03*
Y59000D02*
D03*
X131250D02*
D03*
Y81000D02*
D03*
X118750D02*
D03*
Y59000D02*
D03*
X106250Y81000D02*
D03*
Y59000D02*
D03*
D33*
X170000Y110000D02*
D03*
X160000D02*
D03*
D34*
X54100Y-70250D02*
D03*
Y-76750D02*
D03*
Y-83250D02*
D03*
Y-89750D02*
D03*
X70900D02*
D03*
Y-83250D02*
D03*
Y-76750D02*
D03*
Y-70250D02*
D03*
D35*
X89000Y-137500D02*
D03*
X76000D02*
D03*
X-206500Y-95000D02*
D03*
X-193500D02*
D03*
X-138500Y-135000D02*
D03*
X-151500D02*
D03*
X-101000Y-75000D02*
D03*
X-114000D02*
D03*
X-86500D02*
D03*
X-73500D02*
D03*
X-26000Y-135000D02*
D03*
X-39000D02*
D03*
X-23500Y-75000D02*
D03*
X-36500D02*
D03*
X-9000D02*
D03*
X4000D02*
D03*
D36*
X143500Y161000D02*
D03*
Y139000D02*
D03*
X126500D02*
D03*
Y161000D02*
D03*
D37*
X-125191Y143912D02*
D03*
X-114809Y136088D02*
D03*
D38*
X135000Y119125D02*
D03*
Y110875D02*
D03*
D39*
X60000Y74245D02*
D03*
X55000D02*
D03*
X50000D02*
D03*
X45000D02*
D03*
X40000D02*
D03*
X35000D02*
D03*
X30000D02*
D03*
X25000D02*
D03*
X20000D02*
D03*
X15000D02*
D03*
X10000D02*
D03*
X5000D02*
D03*
X0D02*
D03*
X-5000D02*
D03*
X-10000D02*
D03*
X-15000D02*
D03*
X-20000D02*
D03*
X-25000D02*
D03*
X-30000D02*
D03*
X-35000D02*
D03*
X-40000D02*
D03*
X-45000D02*
D03*
X-50000D02*
D03*
X-55000D02*
D03*
X-60000D02*
D03*
Y225755D02*
D03*
X-55000D02*
D03*
X-50000D02*
D03*
X-45000D02*
D03*
X-40000D02*
D03*
X-35000D02*
D03*
X-30000D02*
D03*
X-25000D02*
D03*
X-20000D02*
D03*
X-15000D02*
D03*
X-10000D02*
D03*
X-5000D02*
D03*
X0D02*
D03*
X5000D02*
D03*
X10000D02*
D03*
X15000D02*
D03*
X20000D02*
D03*
X25000D02*
D03*
X30000D02*
D03*
X35000D02*
D03*
X40000D02*
D03*
X45000D02*
D03*
X50000D02*
D03*
X55000D02*
D03*
X60000D02*
D03*
D40*
X-75755Y90000D02*
D03*
Y95000D02*
D03*
Y100000D02*
D03*
Y105000D02*
D03*
Y110000D02*
D03*
Y115000D02*
D03*
Y120000D02*
D03*
Y125000D02*
D03*
Y130000D02*
D03*
Y135000D02*
D03*
Y140000D02*
D03*
Y145000D02*
D03*
Y150000D02*
D03*
Y155000D02*
D03*
Y160000D02*
D03*
Y165000D02*
D03*
Y170000D02*
D03*
Y175000D02*
D03*
Y180000D02*
D03*
Y185000D02*
D03*
Y190000D02*
D03*
Y195000D02*
D03*
Y200000D02*
D03*
Y205000D02*
D03*
Y210000D02*
D03*
X75755D02*
D03*
Y205000D02*
D03*
Y200000D02*
D03*
Y195000D02*
D03*
Y190000D02*
D03*
Y185000D02*
D03*
Y180000D02*
D03*
Y175000D02*
D03*
Y170000D02*
D03*
Y165000D02*
D03*
Y160000D02*
D03*
Y155000D02*
D03*
Y150000D02*
D03*
Y145000D02*
D03*
Y140000D02*
D03*
Y135000D02*
D03*
Y130000D02*
D03*
Y125000D02*
D03*
Y120000D02*
D03*
Y115000D02*
D03*
Y110000D02*
D03*
Y105000D02*
D03*
Y100000D02*
D03*
Y95000D02*
D03*
D41*
Y90000D02*
D03*
D42*
X70000Y30000D02*
D03*
X140000D02*
D03*
Y-40000D02*
D03*
X70000D02*
D03*
D43*
X-200443Y-119943D02*
D03*
X-195119Y-116215D02*
D03*
X-189794Y-112487D02*
D03*
X-184470Y-108759D02*
D03*
X-169557Y-130057D02*
D03*
X-174881Y-133785D02*
D03*
X-180206Y-137513D02*
D03*
X-185530Y-141241D02*
D03*
D44*
X-90500Y-103520D02*
D03*
Y-98520D02*
D03*
X-119500Y-103520D02*
D03*
Y-98520D02*
D03*
X-10500Y-103520D02*
D03*
Y-98520D02*
D03*
X-39500Y-103520D02*
D03*
Y-98520D02*
D03*
D45*
X-112500Y-91520D02*
D03*
X-107500D02*
D03*
X-102500D02*
D03*
X-97500D02*
D03*
X-32500D02*
D03*
X-27500D02*
D03*
X-22500D02*
D03*
X-17500D02*
D03*
D46*
X-135000Y-76000D02*
D03*
Y-54000D02*
D03*
X-55000Y-76000D02*
D03*
Y-54000D02*
D03*
D47*
X-109092Y83670D02*
D03*
X-122332Y66100D02*
D03*
X-135908Y76330D02*
D03*
X-122669Y93900D02*
D03*
D48*
X197000Y99500D02*
D03*
X213000D02*
D03*
X197000Y90500D02*
D03*
X213000D02*
D03*
X182000Y129500D02*
D03*
X198000D02*
D03*
X182000Y120500D02*
D03*
X198000D02*
D03*
X132000Y189500D02*
D03*
X148000D02*
D03*
X132000Y180500D02*
D03*
X148000D02*
D03*
X162000Y159500D02*
D03*
X178000D02*
D03*
X162000Y150500D02*
D03*
X178000D02*
D03*
D49*
X-110000Y-118520D02*
D03*
X-20000D02*
D03*
D50*
X-100000D02*
D03*
X-30000D02*
D03*
D51*
X-72500Y5000D02*
D03*
D71*
X105000Y204500D02*
D03*
X110000Y200000D02*
D03*
X100000D02*
D03*
X-72500Y-9000D02*
D03*
Y-2000D02*
D03*
Y12000D02*
D03*
Y19000D02*
D03*
X-58500Y5000D02*
D03*
X-65500D02*
D03*
X-72500D02*
D03*
X-79500D02*
D03*
X-86500D02*
D03*
X-145000Y40000D02*
D03*
X-135000D02*
D03*
X-145000Y30000D02*
D03*
X-135000D02*
D03*
X-145000Y0D02*
D03*
X-135000D02*
D03*
X-145000Y-10000D02*
D03*
X-135000D02*
D03*
X0Y0D02*
D03*
X-92465Y-32500D02*
D03*
X-55000D02*
D03*
X-62500D02*
D03*
X-47500D02*
D03*
X-97000Y-19000D02*
D03*
X-85000Y-32500D02*
D03*
X-28000Y237000D02*
D03*
X-38130Y236059D02*
D03*
X-110016Y-12500D02*
D03*
X-57500Y112500D02*
D03*
Y105000D02*
D03*
X-104000Y40000D02*
D03*
X-50000Y120000D02*
D03*
X-110000Y-5000D02*
D03*
X162500Y80000D02*
D03*
X170000Y110000D02*
D03*
X-115000Y163000D02*
D03*
X-36000Y145000D02*
D03*
X-10000Y44000D02*
D03*
X157000Y181000D02*
D03*
X7500Y-90000D02*
D03*
X-160000Y-57500D02*
D03*
X-182000Y72000D02*
D03*
X-217000D02*
D03*
X-220000Y-74000D02*
D03*
X-139750Y-174250D02*
D03*
X74750D02*
D03*
X90250D02*
D03*
X139750D02*
D03*
X135000Y-117000D02*
D03*
X134000Y9000D02*
D03*
X121000Y24000D02*
D03*
X113000Y-1000D02*
D03*
X-160000Y-90000D02*
D03*
X-62500Y-177500D02*
D03*
X-25000Y-154786D02*
D03*
X32500Y-142500D02*
D03*
Y-157500D02*
D03*
X-117500Y-7500D02*
D03*
X-180000Y-127500D02*
D03*
X-186350Y-6400D02*
D03*
Y-44500D02*
D03*
Y-19100D02*
D03*
Y6300D02*
D03*
Y19000D02*
D03*
Y31700D02*
D03*
X-159984Y-80000D02*
D03*
X10000Y-65000D02*
D03*
X-23500Y-77250D02*
D03*
X-25000Y-105000D02*
D03*
X-105000D02*
D03*
X-58750Y-142250D02*
D03*
X-85000Y-156500D02*
D03*
X107500Y-100000D02*
D03*
X-6250Y-142250D02*
D03*
X6250D02*
D03*
X-83750D02*
D03*
X-71250D02*
D03*
X-160000Y-72500D02*
D03*
X-10000Y-85000D02*
D03*
X-87500D02*
D03*
X-107500Y-67500D02*
D03*
X-70000Y-32500D02*
D03*
X-77500D02*
D03*
X-9000Y-42500D02*
D03*
X-42500Y-95000D02*
D03*
Y-107500D02*
D03*
X-7500Y-95000D02*
D03*
X-87500D02*
D03*
X-122500Y-107500D02*
D03*
Y-95000D02*
D03*
X12500Y195000D02*
D03*
X-17500Y200000D02*
D03*
X25000Y137500D02*
D03*
Y167500D02*
D03*
X89000Y26000D02*
D03*
X95000Y2500D02*
D03*
X90000Y-5000D02*
D03*
X143968Y71000D02*
D03*
X-182500Y87467D02*
D03*
X20000Y97500D02*
D03*
X-179020Y138473D02*
D03*
X-160000Y32500D02*
D03*
X-191322Y95380D02*
D03*
X-115000Y152714D02*
D03*
X-62500Y138974D02*
D03*
X-159984Y-7500D02*
D03*
Y-15000D02*
D03*
X186350Y-57200D02*
D03*
X213650D02*
D03*
Y-44500D02*
D03*
X186350D02*
D03*
Y-31800D02*
D03*
X213650D02*
D03*
Y-19100D02*
D03*
X186350D02*
D03*
Y-6400D02*
D03*
X213650D02*
D03*
Y6300D02*
D03*
X186350D02*
D03*
Y19000D02*
D03*
X213650D02*
D03*
Y31700D02*
D03*
X186350D02*
D03*
Y44400D02*
D03*
X213650D02*
D03*
Y57100D02*
D03*
X186350D02*
D03*
X-213650Y-57200D02*
D03*
X-186350D02*
D03*
X-213650Y-44500D02*
D03*
Y-31800D02*
D03*
X-186350D02*
D03*
X-213650Y-19100D02*
D03*
Y-6400D02*
D03*
Y6300D02*
D03*
Y19000D02*
D03*
Y31700D02*
D03*
Y44400D02*
D03*
X-186350D02*
D03*
Y57100D02*
D03*
X-213650D02*
D03*
X160000Y130000D02*
D03*
X165000Y135000D02*
D03*
X5000Y237500D02*
D03*
X12500D02*
D03*
X-165429Y117071D02*
D03*
X-155429Y120000D02*
D03*
X-160000Y-50000D02*
D03*
X-125000Y12500D02*
D03*
X-135000D02*
D03*
X22468Y-19968D02*
D03*
X19209Y20081D02*
D03*
X35214Y15000D02*
D03*
X55080Y-7500D02*
D03*
X50016Y-37500D02*
D03*
X55000Y0D02*
D03*
X-32500D02*
D03*
X12500Y97500D02*
D03*
X-49835Y92641D02*
D03*
X-67500Y82500D02*
D03*
X-62500Y90000D02*
D03*
X-120016Y30000D02*
D03*
Y40000D02*
D03*
X-15000Y122500D02*
D03*
X2500Y92500D02*
D03*
X-5000D02*
D03*
X-12500D02*
D03*
X-160000Y17500D02*
D03*
X185285Y82214D02*
D03*
X169500Y125000D02*
D03*
X165000Y142750D02*
D03*
X57500Y212500D02*
D03*
X45000Y237500D02*
D03*
X12500Y60000D02*
D03*
X19847Y89847D02*
D03*
X29952Y93168D02*
D03*
X85000Y60000D02*
D03*
X5000D02*
D03*
X-5000Y207500D02*
D03*
X32500Y208000D02*
D03*
X2500Y207500D02*
D03*
X38016Y212500D02*
D03*
X25000Y207500D02*
D03*
X17500D02*
D03*
X10000D02*
D03*
X20000Y60000D02*
D03*
X-62500Y147500D02*
D03*
X-42500Y92500D02*
D03*
X-110000Y32500D02*
D03*
X-57500Y120000D02*
D03*
Y167500D02*
D03*
Y175000D02*
D03*
X-44976Y235000D02*
D03*
X87500Y177500D02*
D03*
X-57500Y192500D02*
D03*
X45000Y212500D02*
D03*
X-57500Y207500D02*
D03*
X-86638Y216032D02*
D03*
X-47500Y207500D02*
D03*
X100000Y192500D02*
D03*
X95000Y215000D02*
D03*
X92500Y130000D02*
D03*
X87500Y140000D02*
D03*
Y170000D02*
D03*
Y162500D02*
D03*
Y155000D02*
D03*
X5000Y40000D02*
D03*
X-27500Y92500D02*
D03*
X-20000D02*
D03*
X-90000Y200000D02*
D03*
Y192500D02*
D03*
X75000Y221500D02*
D03*
X-135000Y52500D02*
D03*
X-160000Y25000D02*
D03*
X-20000Y130000D02*
D03*
X-87500Y165000D02*
D03*
X-17500Y170000D02*
D03*
X1500Y185000D02*
D03*
Y170000D02*
D03*
Y155000D02*
D03*
X-36500D02*
D03*
X-57500Y185000D02*
D03*
X-90000Y117500D02*
D03*
Y110000D02*
D03*
X-110016Y2500D02*
D03*
X-172762Y160000D02*
D03*
X-165429Y125000D02*
D03*
X-87500Y172500D02*
D03*
X-153678Y159620D02*
D03*
X-137500Y150000D02*
D03*
X-172000Y118473D02*
D03*
X110000Y45000D02*
D03*
X118750Y81000D02*
D03*
X131250Y59000D02*
D03*
X118750D02*
D03*
X112000Y71000D02*
D03*
X55000Y-60000D02*
D03*
X62500Y-62500D02*
D03*
X12500Y182500D02*
D03*
X-120000Y22500D02*
D03*
X-160000Y-22500D02*
D03*
X82500Y-87500D02*
D03*
X62500D02*
D03*
X-9000Y-57500D02*
D03*
X-15000Y27500D02*
D03*
X35214Y-15000D02*
D03*
X-99786Y215000D02*
D03*
X-100000Y183750D02*
D03*
X148000Y180500D02*
D03*
Y189500D02*
D03*
X178000Y150500D02*
D03*
Y159500D02*
D03*
X213000Y90500D02*
D03*
Y99500D02*
D03*
X198000Y120500D02*
D03*
Y129500D02*
D03*
X57500Y177286D02*
D03*
Y190000D02*
D03*
Y140000D02*
D03*
Y115000D02*
D03*
Y92500D02*
D03*
X-180000Y127500D02*
D03*
X-117500Y0D02*
D03*
X62500Y-97500D02*
D03*
X-90000Y45000D02*
D03*
X-75000D02*
D03*
X-32500Y-7500D02*
D03*
D73*
X-145000Y-110000D02*
D03*
X-65000D02*
D03*
D74*
X35000Y-80000D02*
D03*
D75*
X90000D02*
D03*
D76*
X-111820Y-118480D02*
D03*
X-108010D02*
D03*
X-98010D02*
D03*
X-101820D02*
D03*
X-31820D02*
D03*
X-28010D02*
D03*
X-18010D02*
D03*
X-21820D02*
D03*
D77*
X-75755Y100000D02*
X-60278D01*
X-58278Y98000D02*
X-55222D01*
X-60278Y100000D02*
X-58278Y98000D01*
X160214Y82827D02*
X162500Y80541D01*
Y80000D02*
Y80541D01*
X160214Y82827D02*
Y95000D01*
X-180000Y-127684D02*
Y-127500D01*
X-174881Y-133785D02*
Y-132803D01*
X-180000Y-127684D02*
X-174881Y-132803D01*
X-50000Y214169D02*
Y225755D01*
Y214169D02*
X-47500Y211669D01*
Y207500D02*
Y211669D01*
X35000Y15000D02*
X35214D01*
X-32764Y-7D02*
X-32507D01*
X-35257Y-2500D02*
X-32764Y-7D01*
X-55222Y98000D02*
X-49863Y92641D01*
X-49835D01*
X-75755Y90000D02*
X-62500D01*
X-32222Y-7500D02*
X-27000Y-2278D01*
X-27500Y7500D02*
X-27000Y7000D01*
X-32500Y-7500D02*
X-32222D01*
X-27000Y-2278D02*
Y7000D01*
X27500Y7500D02*
X35000Y15000D01*
X143750Y83500D02*
X153388Y93138D01*
X158352D01*
X143750Y81000D02*
Y83500D01*
X158352Y93138D02*
X160214Y95000D01*
X57500Y212500D02*
Y212681D01*
X55000Y215181D02*
X57500Y212681D01*
X55000Y215181D02*
Y225755D01*
X-57500Y207500D02*
Y208041D01*
X-110016Y2500D02*
X-96712D01*
X-157286Y48436D02*
X-153850Y45000D01*
X-157286Y48436D02*
Y62500D01*
X-153850Y45000D02*
X-152850D01*
X-165500Y-29500D02*
X-161862Y-33138D01*
X-165500Y-29500D02*
Y-3000D01*
X-165000Y-2500D01*
X-161862Y-33138D02*
X-156648D01*
X-154786Y-35000D01*
X19750Y-7500D02*
X27500D01*
X33138Y-13138D01*
X28956Y1044D02*
X34170D01*
X19750Y2500D02*
X27500D01*
X28956Y1044D01*
X34170D02*
X35214Y0D01*
X19750Y7500D02*
X27500D01*
X-21862Y38138D02*
X-20000Y40000D01*
X-30000Y29786D02*
X-21862Y37923D01*
X-20000Y40000D02*
X-19786D01*
X-21862Y37923D02*
Y38138D01*
X-30000Y10000D02*
Y29786D01*
Y10000D02*
X-27500Y7500D01*
X-19750D01*
X57500Y115000D02*
X75755D01*
X65214Y185000D02*
X75755D01*
X57500Y177286D02*
X65214Y185000D01*
X57500Y190000D02*
X75755D01*
X57500Y140000D02*
X75755D01*
X57500Y91959D02*
X60000Y89459D01*
Y74245D02*
Y89459D01*
X57500Y91959D02*
Y92500D01*
X-60000Y210541D02*
Y225755D01*
Y210541D02*
X-57500Y208041D01*
X-132809Y133608D02*
X-127054Y141246D01*
X-134714Y130285D02*
X-132809Y133608D01*
X-127054Y141246D02*
X-125191Y143912D01*
X-75000Y31980D02*
Y45000D01*
X-90000Y29055D02*
Y45000D01*
X-48445Y-2500D02*
X-35257D01*
X-48445Y-7500D02*
X-32500D01*
D78*
X200000Y-73050D02*
D03*
Y73050D02*
D03*
X-200000Y-73050D02*
D03*
Y73050D02*
D03*
X200000Y-73050D02*
D03*
Y73050D02*
D03*
X-200000Y-73050D02*
D03*
Y73050D02*
D03*
D79*
X-155143Y82072D02*
D03*
X-165286Y89715D02*
D03*
X-147500Y92214D02*
D03*
X-157643Y99857D02*
D03*
X-139857Y102357D02*
D03*
X-150000Y110000D02*
D03*
X-132214Y112500D02*
D03*
X-142357Y120143D02*
D03*
X-124571Y122642D02*
D03*
D80*
X-134714Y130285D02*
D03*
D81*
X-10000Y-167500D02*
D03*
X-70000D02*
D03*
X70000Y30000D02*
D03*
Y-40000D02*
D03*
M02*
