G04*
G04 #@! TF.GenerationSoftware,Altium Limited,Altium Designer,24.4.1 (13)*
G04*
G04 Layer_Physical_Order=2*
G04 Layer_Color=36540*
%FSLAX44Y44*%
%MOMM*%
G71*
G04*
G04 #@! TF.SameCoordinates,36E66750-E4A1-4D4F-82B0-1BBA9B0B1F2C*
G04*
G04*
G04 #@! TF.FilePolarity,Positive*
G04*
G01*
G75*
%ADD12C,0.2000*%
%ADD13C,0.5000*%
%ADD71C,0.5000*%
%ADD77C,0.3000*%
%ADD78C,1.4000*%
%ADD79C,1.0600*%
%ADD80P,1.4991X4X98.0*%
%ADD81C,0.7500*%
%ADD82C,0.9000*%
%ADD83C,1.0000*%
G36*
X14167Y248179D02*
X29464Y246831D01*
X44650Y244541D01*
X59664Y241317D01*
X74451Y237172D01*
X88953Y232123D01*
X103117Y226187D01*
X116886Y219388D01*
X130210Y211752D01*
X143037Y203308D01*
X155318Y194088D01*
X167006Y184127D01*
X178057Y173463D01*
X188427Y162138D01*
X198079Y150194D01*
X206975Y137676D01*
X215082Y124634D01*
X222367Y111115D01*
X228804Y97172D01*
X234368Y82859D01*
X239037Y68229D01*
X242793Y53339D01*
X245624Y38245D01*
X247516Y23006D01*
X248465Y7678D01*
Y0D01*
Y-6297D01*
X247827Y-18876D01*
X246552Y-31405D01*
X244645Y-43855D01*
X242109Y-56192D01*
X238952Y-68384D01*
X235181Y-80401D01*
X230806Y-92211D01*
X225839Y-103785D01*
X220292Y-115091D01*
X214179Y-126103D01*
X207515Y-136791D01*
X200320Y-147127D01*
X192610Y-157086D01*
X184405Y-166641D01*
X175727Y-175769D01*
X171162Y-180107D01*
X171152Y-180121D01*
X171137Y-180131D01*
X170081Y-181168D01*
X167919Y-182933D01*
X165599Y-184475D01*
X163140Y-185784D01*
X160564Y-186846D01*
X157898Y-187651D01*
X155165Y-188193D01*
X152393Y-188465D01*
X-152370D01*
X-155097Y-188202D01*
X-157786Y-187678D01*
X-160413Y-186898D01*
X-162952Y-185870D01*
X-165381Y-184603D01*
X-167677Y-183109D01*
X-169819Y-181400D01*
X-170803Y-180447D01*
X-170813Y-180441D01*
X-170819Y-180431D01*
X-176395Y-175152D01*
X-186874Y-163926D01*
X-196639Y-152075D01*
X-205654Y-139642D01*
X-213885Y-126677D01*
X-221298Y-113229D01*
X-227868Y-99348D01*
X-233567Y-85088D01*
X-238376Y-70504D01*
X-242274Y-55650D01*
X-245248Y-40584D01*
X-247286Y-25363D01*
X-248380Y-10045D01*
X-248527Y5311D01*
X-247724Y20646D01*
X-245977Y35903D01*
X-243291Y51023D01*
X-239676Y65948D01*
X-235146Y80622D01*
X-229720Y94988D01*
X-223416Y108991D01*
X-216260Y122578D01*
X-208278Y135698D01*
X-199502Y148299D01*
X-189964Y160335D01*
X-179701Y171759D01*
X-168752Y182527D01*
X-157160Y192599D01*
X-144968Y201936D01*
X-132222Y210502D01*
X-118972Y218265D01*
X-105268Y225194D01*
X-91161Y231265D01*
X-76708Y236452D01*
X-61961Y240738D01*
X-46978Y244104D01*
X-31815Y246539D01*
X-16531Y248033D01*
X-1185Y248580D01*
X14167Y248179D01*
D02*
G37*
%LPC*%
G36*
X13296Y241500D02*
X11704D01*
X10234Y240891D01*
X9573Y240230D01*
X8750Y239907D01*
X7927Y240230D01*
X7266Y240891D01*
X5796Y241500D01*
X4204D01*
X2734Y240891D01*
X1609Y239766D01*
X1000Y238296D01*
Y236704D01*
X1609Y235234D01*
X2734Y234109D01*
X4204Y233500D01*
X5796D01*
X6006Y233587D01*
X14062Y225530D01*
X14729Y225085D01*
X15516Y224928D01*
X15516Y224928D01*
X69628D01*
X70364Y223659D01*
X70332Y223601D01*
X70253Y223556D01*
X-101000D01*
X-101787Y223399D01*
X-102453Y222953D01*
X-102453Y222953D01*
X-173454Y151953D01*
X-173899Y151287D01*
X-174056Y150500D01*
X-174056Y150500D01*
Y140258D01*
X-175326Y140005D01*
X-175629Y140739D01*
X-176755Y141864D01*
X-178225Y142473D01*
X-179816D01*
X-181286Y141864D01*
X-182411Y140739D01*
X-183020Y139269D01*
Y137677D01*
X-182411Y136207D01*
X-181286Y135082D01*
X-179816Y134473D01*
X-178225D01*
X-176755Y135082D01*
X-175629Y136207D01*
X-175326Y136941D01*
X-174056Y136688D01*
Y121951D01*
X-174266Y121864D01*
X-175391Y120739D01*
X-176000Y119269D01*
Y117677D01*
X-175391Y116207D01*
X-174266Y115082D01*
X-172796Y114473D01*
X-171204D01*
X-170225Y114879D01*
X-168820Y114805D01*
X-167695Y113680D01*
X-166816Y113316D01*
X-166438Y111898D01*
X-174454Y103882D01*
X-174899Y103216D01*
X-175056Y102429D01*
X-175056Y102429D01*
Y61950D01*
X-231750D01*
X-232528Y61628D01*
X-232850Y60850D01*
Y53450D01*
X-232528Y52672D01*
X-231750Y52350D01*
X-177216D01*
X-176730Y51177D01*
X-178256Y49651D01*
X-178388Y49543D01*
X-179311Y48928D01*
X-179654Y49069D01*
X-179981Y49244D01*
X-180036Y49228D01*
X-180089Y49250D01*
X-231750D01*
X-232528Y48928D01*
X-232850Y48150D01*
Y28050D01*
X-232528Y27272D01*
X-231750Y26950D01*
X-179555D01*
Y11150D01*
X-231750D01*
X-232528Y10828D01*
X-232850Y10050D01*
Y-10050D01*
X-232528Y-10828D01*
X-231750Y-11150D01*
X-168250D01*
X-167055Y-12030D01*
Y-25000D01*
X-167055Y-25000D01*
X-166899Y-25787D01*
X-166453Y-26453D01*
X-160056Y-32851D01*
Y-46000D01*
X-160796D01*
X-162266Y-46609D01*
X-163391Y-47734D01*
X-164000Y-49204D01*
Y-50796D01*
X-163391Y-52266D01*
X-162266Y-53391D01*
X-160796Y-54000D01*
X-159204D01*
X-157734Y-53391D01*
X-157355Y-53012D01*
X-156085Y-53538D01*
Y-68962D01*
X-157355Y-69488D01*
X-157734Y-69109D01*
X-159204Y-68500D01*
X-160796D01*
X-162266Y-69109D01*
X-163391Y-70234D01*
X-164000Y-71704D01*
Y-73296D01*
X-163391Y-74766D01*
X-162726Y-75431D01*
X-162399Y-76240D01*
X-162719Y-77078D01*
X-163375Y-77734D01*
X-163984Y-79204D01*
Y-80796D01*
X-163375Y-82266D01*
X-162250Y-83391D01*
X-160780Y-84000D01*
X-159188D01*
X-157718Y-83391D01*
X-157355Y-83028D01*
X-156085Y-83554D01*
Y-86462D01*
X-157355Y-86988D01*
X-157734Y-86609D01*
X-159204Y-86000D01*
X-160796D01*
X-162266Y-86609D01*
X-163391Y-87734D01*
X-164000Y-89204D01*
Y-90796D01*
X-163391Y-92266D01*
X-162266Y-93391D01*
X-160796Y-94000D01*
X-159204D01*
X-157734Y-93391D01*
X-157355Y-93012D01*
X-156085Y-93538D01*
Y-98515D01*
X-181264Y-123694D01*
X-182266Y-124109D01*
X-183391Y-125234D01*
X-184000Y-126704D01*
Y-128296D01*
X-183391Y-129766D01*
X-182266Y-130891D01*
X-180796Y-131500D01*
X-179204D01*
X-177734Y-130891D01*
X-176609Y-129766D01*
X-176194Y-128764D01*
X-149965Y-102535D01*
X-149188Y-101372D01*
X-148915Y-100000D01*
Y2660D01*
X-148163Y3163D01*
X-144959Y6366D01*
X-125000D01*
X-122653Y6833D01*
X-120663Y8163D01*
X-119333Y10153D01*
X-118866Y12500D01*
X-119333Y14847D01*
X-120663Y16837D01*
X-121580Y17450D01*
X-120979Y18576D01*
X-120796Y18500D01*
X-119204D01*
X-117734Y19109D01*
X-116609Y20234D01*
X-116000Y21704D01*
Y23296D01*
X-116609Y24766D01*
X-117275Y25431D01*
X-117601Y26240D01*
X-117281Y27078D01*
X-116625Y27734D01*
X-116016Y29204D01*
Y30796D01*
X-116625Y32266D01*
X-117750Y33391D01*
X-119220Y34000D01*
X-120812D01*
X-122282Y33391D01*
X-123407Y32266D01*
X-124016Y30796D01*
Y29204D01*
X-123407Y27734D01*
X-122741Y27069D01*
X-122415Y26260D01*
X-122735Y25422D01*
X-123391Y24766D01*
X-124000Y23296D01*
Y21704D01*
X-123391Y20234D01*
X-122610Y19453D01*
X-123236Y18283D01*
X-125000Y18634D01*
X-147500D01*
X-149847Y18167D01*
X-151837Y16837D01*
X-155041Y13634D01*
X-156413D01*
X-156939Y14904D01*
X-156609Y15234D01*
X-156000Y16704D01*
Y18296D01*
X-156609Y19766D01*
X-157270Y20427D01*
X-157593Y21250D01*
X-157270Y22073D01*
X-156609Y22734D01*
X-156000Y24204D01*
Y25796D01*
X-156609Y27266D01*
X-157270Y27927D01*
X-157593Y28750D01*
X-157270Y29573D01*
X-156609Y30234D01*
X-156000Y31704D01*
Y33296D01*
X-156609Y34766D01*
X-157734Y35891D01*
X-159204Y36500D01*
X-160796D01*
X-162266Y35891D01*
X-162596Y35561D01*
X-163866Y36087D01*
Y42459D01*
X-139959Y66366D01*
X500D01*
X2847Y66833D01*
X4837Y68163D01*
X15337Y78663D01*
X16667Y80653D01*
X17134Y83000D01*
X16667Y85347D01*
X17579Y86185D01*
X17894Y86327D01*
X19052Y85847D01*
X20643D01*
X20853Y85934D01*
X22945Y83843D01*
Y64372D01*
X21674Y63636D01*
X20796Y64000D01*
X19204D01*
X17734Y63391D01*
X17073Y62730D01*
X16250Y62407D01*
X15427Y62730D01*
X14766Y63391D01*
X13296Y64000D01*
X11704D01*
X10234Y63391D01*
X9573Y62730D01*
X8750Y62407D01*
X7927Y62730D01*
X7266Y63391D01*
X5796Y64000D01*
X4204D01*
X2734Y63391D01*
X1609Y62266D01*
X1194Y61264D01*
X-3985Y56085D01*
X-133202D01*
X-134204Y56500D01*
X-135796D01*
X-137266Y55891D01*
X-138391Y54766D01*
X-139000Y53296D01*
Y51704D01*
X-138391Y50234D01*
X-137266Y49109D01*
X-135796Y48500D01*
X-134204D01*
X-133202Y48915D01*
X-93538D01*
X-93012Y47645D01*
X-93391Y47266D01*
X-94000Y45796D01*
Y44204D01*
X-93391Y42734D01*
X-92266Y41609D01*
X-90796Y41000D01*
X-89204D01*
X-87734Y41609D01*
X-86609Y42734D01*
X-86000Y44204D01*
Y45796D01*
X-86609Y47266D01*
X-86988Y47645D01*
X-86462Y48915D01*
X-78538D01*
X-78012Y47645D01*
X-78391Y47266D01*
X-79000Y45796D01*
Y44204D01*
X-78391Y42734D01*
X-77266Y41609D01*
X-75796Y41000D01*
X-74204D01*
X-72734Y41609D01*
X-71609Y42734D01*
X-71000Y44204D01*
Y45796D01*
X-71609Y47266D01*
X-71988Y47645D01*
X-71462Y48915D01*
X-2500D01*
X-1128Y49188D01*
X35Y49965D01*
X6264Y56194D01*
X7266Y56609D01*
X7927Y57270D01*
X8750Y57593D01*
X9573Y57270D01*
X10234Y56609D01*
X10445Y56522D01*
Y33323D01*
X9739Y32617D01*
X9294Y31951D01*
X9137Y31164D01*
X9137Y31164D01*
Y4044D01*
X-14319Y-19412D01*
X-67468D01*
X-68255Y-19569D01*
X-68921Y-20015D01*
X-71335Y-22429D01*
X-92976D01*
X-93370Y-21704D01*
X-93565Y-21158D01*
X-93000Y-19796D01*
Y-18204D01*
X-93609Y-16734D01*
X-94734Y-15609D01*
X-96204Y-15000D01*
X-97796D01*
X-99266Y-15609D01*
X-100391Y-16734D01*
X-101000Y-18204D01*
Y-19796D01*
X-100391Y-21266D01*
X-99266Y-22391D01*
X-98650Y-22646D01*
X-98352Y-24144D01*
X-102470Y-28261D01*
X-102915Y-28928D01*
X-103071Y-29715D01*
X-103071Y-29715D01*
Y-36500D01*
X-103071Y-36500D01*
X-103071Y-36500D01*
Y-60165D01*
X-106494Y-63587D01*
X-106704Y-63500D01*
X-108296D01*
X-109766Y-64109D01*
X-110891Y-65234D01*
X-111500Y-66704D01*
Y-68296D01*
X-110891Y-69766D01*
X-109766Y-70891D01*
X-108296Y-71500D01*
X-106704D01*
X-105234Y-70891D01*
X-104109Y-69766D01*
X-103500Y-68296D01*
Y-66704D01*
X-103587Y-66494D01*
X-99563Y-62470D01*
X-99563Y-62470D01*
X-99117Y-61803D01*
X-98961Y-61016D01*
Y-43082D01*
X-97690Y-42640D01*
X-97303Y-42899D01*
X-96516Y-43056D01*
X-64851D01*
X-62453Y-45453D01*
X-62453Y-45454D01*
X-61787Y-45899D01*
X-61000Y-46055D01*
X-61000Y-46055D01*
X-15851D01*
X-12953Y-48953D01*
X-12287Y-49399D01*
X-11500Y-49556D01*
X-11500Y-49556D01*
X-5000D01*
X-5000Y-49556D01*
X-4213Y-49399D01*
X-3546Y-48953D01*
X1453Y-43953D01*
X1899Y-43287D01*
X2056Y-42500D01*
X2056Y-42500D01*
Y-34443D01*
X45501Y9003D01*
X45501Y9003D01*
X45947Y9670D01*
X46104Y10457D01*
X46104Y10457D01*
Y18211D01*
X45947Y18998D01*
X45501Y19665D01*
X39120Y26047D01*
Y78417D01*
X50454Y89751D01*
X50899Y90418D01*
X51055Y91204D01*
Y96871D01*
X51087Y97032D01*
Y114915D01*
X52327Y116154D01*
X52746Y116026D01*
X53500Y115532D01*
Y114204D01*
X54109Y112734D01*
X55234Y111609D01*
X56704Y111000D01*
X58296D01*
X59298Y111415D01*
X126015D01*
X158694Y78736D01*
X159109Y77734D01*
X160234Y76609D01*
X161704Y76000D01*
X162872D01*
X163972Y74901D01*
X164804Y74345D01*
X165786Y74149D01*
X187564D01*
X188545Y74345D01*
X189339Y74875D01*
X189622Y74807D01*
X190264Y74437D01*
X190500Y74227D01*
Y71799D01*
X191147Y69383D01*
X192398Y67217D01*
X194167Y65448D01*
X196333Y64197D01*
X198749Y63550D01*
X201251D01*
X203667Y64197D01*
X205833Y65448D01*
X207602Y67217D01*
X208853Y69383D01*
X209500Y71799D01*
Y74301D01*
X208853Y76717D01*
X207602Y78883D01*
X205833Y80652D01*
X203667Y81903D01*
X201251Y82550D01*
X198749D01*
X196333Y81903D01*
X194621Y80914D01*
X193453Y81467D01*
X193351Y81584D01*
Y85215D01*
X193155Y86196D01*
X192599Y87029D01*
X179565Y100063D01*
Y133000D01*
X179370Y133982D01*
X178814Y134814D01*
X169447Y144181D01*
X168614Y144737D01*
X168497Y144761D01*
X168391Y145016D01*
X167266Y146141D01*
X165796Y146750D01*
X164204D01*
X162734Y146141D01*
X161609Y145016D01*
X161046Y143657D01*
X160510Y143403D01*
X159730Y143177D01*
X113954Y188953D01*
X113287Y189399D01*
X112500Y189555D01*
X112500Y189555D01*
X104372D01*
X103636Y190826D01*
X104000Y191704D01*
Y193296D01*
X103391Y194766D01*
X102730Y195427D01*
X102407Y196250D01*
X102730Y197073D01*
X103391Y197734D01*
X104000Y199204D01*
Y200364D01*
X104204Y200500D01*
X105796D01*
X106000Y200363D01*
Y199204D01*
X106609Y197734D01*
X107734Y196609D01*
X109204Y196000D01*
X110796D01*
X112266Y196609D01*
X113391Y197734D01*
X114000Y199204D01*
Y200796D01*
X113391Y202266D01*
X112266Y203391D01*
X110796Y204000D01*
X109204D01*
X109000Y204137D01*
Y205296D01*
X108391Y206766D01*
X107266Y207891D01*
X105796Y208500D01*
X104204D01*
X102734Y207891D01*
X101609Y206766D01*
X101000Y205296D01*
Y204137D01*
X100796Y204000D01*
X99204D01*
X97734Y203391D01*
X96609Y202266D01*
X96000Y200796D01*
Y199204D01*
X96609Y197734D01*
X97270Y197073D01*
X97593Y196250D01*
X97270Y195427D01*
X96609Y194766D01*
X96119Y193584D01*
X94827Y193080D01*
X90056Y197851D01*
Y213166D01*
X91326Y213419D01*
X91609Y212734D01*
X92734Y211609D01*
X94204Y211000D01*
X95796D01*
X97266Y211609D01*
X98391Y212734D01*
X99000Y214204D01*
Y215796D01*
X98391Y217266D01*
X97266Y218391D01*
X95796Y219000D01*
X94204D01*
X92734Y218391D01*
X91609Y217266D01*
X91326Y216581D01*
X90056Y216834D01*
Y219836D01*
X89899Y220623D01*
X89453Y221290D01*
X89453Y221290D01*
X79290Y231453D01*
X78623Y231899D01*
X77836Y232055D01*
X77836Y232055D01*
X20851D01*
X16413Y236494D01*
X16500Y236704D01*
Y238296D01*
X15891Y239766D01*
X14766Y240891D01*
X13296Y241500D01*
D02*
G37*
G36*
X-37334Y240059D02*
X-38925D01*
X-40395Y239450D01*
X-41521Y238324D01*
X-41649Y238299D01*
X-42845Y238447D01*
X-44180Y239000D01*
X-45772D01*
X-47242Y238391D01*
X-48367Y237266D01*
X-48976Y235796D01*
Y234204D01*
X-48367Y232734D01*
X-47242Y231609D01*
X-45772Y231000D01*
X-44180D01*
X-42710Y231609D01*
X-41585Y232734D01*
X-41456Y232760D01*
X-40261Y232612D01*
X-38925Y232059D01*
X-37334D01*
X-35864Y232668D01*
X-34739Y233793D01*
X-34130Y235263D01*
Y236854D01*
X-34739Y238324D01*
X-35864Y239450D01*
X-37334Y240059D01*
D02*
G37*
G36*
X45796Y241500D02*
X44204D01*
X42734Y240891D01*
X41609Y239766D01*
X41000Y238296D01*
Y236704D01*
X41609Y235234D01*
X42734Y234109D01*
X44204Y233500D01*
X45796D01*
X47266Y234109D01*
X48391Y235234D01*
X49000Y236704D01*
Y238296D01*
X48391Y239766D01*
X47266Y240891D01*
X45796Y241500D01*
D02*
G37*
G36*
X148796Y193500D02*
X147204D01*
X145734Y192891D01*
X144609Y191766D01*
X144000Y190296D01*
Y188704D01*
X144609Y187234D01*
X145734Y186109D01*
X146786Y185673D01*
Y184327D01*
X145734Y183891D01*
X144609Y182766D01*
X144000Y181296D01*
Y179704D01*
X144609Y178234D01*
X145734Y177109D01*
X147204Y176500D01*
X148796D01*
X150266Y177109D01*
X151391Y178234D01*
X152000Y179704D01*
Y181296D01*
X151391Y182766D01*
X150266Y183891D01*
X149214Y184327D01*
Y185673D01*
X150266Y186109D01*
X151391Y187234D01*
X152000Y188704D01*
Y190296D01*
X151391Y191766D01*
X150266Y192891D01*
X148796Y193500D01*
D02*
G37*
G36*
X178796Y163500D02*
X177204D01*
X175734Y162891D01*
X174609Y161766D01*
X174000Y160296D01*
Y158704D01*
X174609Y157234D01*
X175734Y156109D01*
X176786Y155673D01*
Y154327D01*
X175734Y153891D01*
X174609Y152766D01*
X174000Y151296D01*
Y149704D01*
X174609Y148234D01*
X175734Y147109D01*
X177204Y146500D01*
X178796D01*
X180266Y147109D01*
X181391Y148234D01*
X182000Y149704D01*
Y151296D01*
X181391Y152766D01*
X180266Y153891D01*
X179214Y154327D01*
Y155673D01*
X180266Y156109D01*
X181391Y157234D01*
X182000Y158704D01*
Y160296D01*
X181391Y161766D01*
X180266Y162891D01*
X178796Y163500D01*
D02*
G37*
G36*
X-179204Y131500D02*
X-180796D01*
X-182266Y130891D01*
X-183391Y129766D01*
X-184000Y128296D01*
Y126704D01*
X-183391Y125234D01*
X-182266Y124109D01*
X-180796Y123500D01*
X-179204D01*
X-177734Y124109D01*
X-176609Y125234D01*
X-176000Y126704D01*
Y128296D01*
X-176609Y129766D01*
X-177734Y130891D01*
X-179204Y131500D01*
D02*
G37*
G36*
X198796Y133500D02*
X197204D01*
X195734Y132891D01*
X194609Y131766D01*
X194000Y130296D01*
Y128704D01*
X194609Y127234D01*
X195734Y126109D01*
X196786Y125673D01*
Y124327D01*
X195734Y123891D01*
X194609Y122766D01*
X194000Y121296D01*
Y119704D01*
X194609Y118234D01*
X195734Y117109D01*
X197204Y116500D01*
X198796D01*
X200266Y117109D01*
X201391Y118234D01*
X202000Y119704D01*
Y121296D01*
X201391Y122766D01*
X200266Y123891D01*
X199214Y124327D01*
Y125673D01*
X200266Y126109D01*
X201391Y127234D01*
X202000Y128704D01*
Y130296D01*
X201391Y131766D01*
X200266Y132891D01*
X198796Y133500D01*
D02*
G37*
G36*
X-190526Y99380D02*
X-192118D01*
X-193588Y98771D01*
X-194713Y97646D01*
X-195322Y96176D01*
Y94584D01*
X-194713Y93114D01*
X-193588Y91989D01*
X-192118Y91380D01*
X-190526D01*
X-189056Y91989D01*
X-187931Y93114D01*
X-187322Y94584D01*
Y96176D01*
X-187931Y97646D01*
X-189056Y98771D01*
X-190526Y99380D01*
D02*
G37*
G36*
X58296Y96500D02*
X56704D01*
X55234Y95891D01*
X54109Y94766D01*
X53500Y93296D01*
Y91704D01*
X54109Y90234D01*
X55234Y89109D01*
X56704Y88500D01*
X58296D01*
X59766Y89109D01*
X60891Y90234D01*
X61500Y91704D01*
Y93296D01*
X60891Y94766D01*
X59766Y95891D01*
X58296Y96500D01*
D02*
G37*
G36*
X213796Y103500D02*
X212204D01*
X210734Y102891D01*
X209609Y101766D01*
X209000Y100296D01*
Y98704D01*
X209609Y97234D01*
X210734Y96109D01*
X211786Y95673D01*
Y94327D01*
X210734Y93891D01*
X209609Y92766D01*
X209000Y91296D01*
Y89704D01*
X209609Y88234D01*
X210734Y87109D01*
X212204Y86500D01*
X213796D01*
X215266Y87109D01*
X216391Y88234D01*
X217000Y89704D01*
Y91296D01*
X216391Y92766D01*
X215266Y93891D01*
X214214Y94327D01*
Y95673D01*
X215266Y96109D01*
X216391Y97234D01*
X217000Y98704D01*
Y100296D01*
X216391Y101766D01*
X215266Y102891D01*
X213796Y103500D01*
D02*
G37*
G36*
X144764Y75000D02*
X143172D01*
X141702Y74391D01*
X140577Y73266D01*
X139968Y71796D01*
Y70204D01*
X140577Y68734D01*
X141702Y67609D01*
X143172Y67000D01*
X144764D01*
X146234Y67609D01*
X147359Y68734D01*
X147968Y70204D01*
Y71796D01*
X147359Y73266D01*
X146234Y74391D01*
X144764Y75000D01*
D02*
G37*
G36*
X112796D02*
X111204D01*
X109734Y74391D01*
X108609Y73266D01*
X108000Y71796D01*
Y70204D01*
X108609Y68734D01*
X109734Y67609D01*
X111204Y67000D01*
X112796D01*
X114266Y67609D01*
X115391Y68734D01*
X116000Y70204D01*
Y71796D01*
X115391Y73266D01*
X114266Y74391D01*
X112796Y75000D01*
D02*
G37*
G36*
X-198749Y82550D02*
X-201251D01*
X-203667Y81903D01*
X-205833Y80652D01*
X-207602Y78883D01*
X-208853Y76717D01*
X-209500Y74301D01*
Y71799D01*
X-208853Y69383D01*
X-207602Y67217D01*
X-205833Y65448D01*
X-203667Y64197D01*
X-201251Y63550D01*
X-198749D01*
X-196333Y64197D01*
X-194167Y65448D01*
X-192398Y67217D01*
X-191147Y69383D01*
X-190500Y71799D01*
Y74301D01*
X-191147Y76717D01*
X-192398Y78883D01*
X-194167Y80652D01*
X-196333Y81903D01*
X-198749Y82550D01*
D02*
G37*
G36*
X85796Y64000D02*
X84204D01*
X82734Y63391D01*
X81609Y62266D01*
X81000Y60796D01*
Y59204D01*
X81609Y57734D01*
X82734Y56609D01*
X84204Y56000D01*
X85796D01*
X87266Y56609D01*
X88391Y57734D01*
X89000Y59204D01*
Y60796D01*
X88391Y62266D01*
X87266Y63391D01*
X85796Y64000D01*
D02*
G37*
G36*
X132046Y63000D02*
X130454D01*
X128984Y62391D01*
X127859Y61266D01*
X127250Y59796D01*
Y58204D01*
X127859Y56734D01*
X128984Y55609D01*
X130454Y55000D01*
X132046D01*
X133516Y55609D01*
X134641Y56734D01*
X135250Y58204D01*
Y59796D01*
X134641Y61266D01*
X133516Y62391D01*
X132046Y63000D01*
D02*
G37*
G36*
X119546D02*
X117954D01*
X116484Y62391D01*
X115359Y61266D01*
X114750Y59796D01*
Y58204D01*
X115359Y56734D01*
X116484Y55609D01*
X117954Y55000D01*
X119546D01*
X121016Y55609D01*
X122141Y56734D01*
X122750Y58204D01*
Y59796D01*
X122141Y61266D01*
X121016Y62391D01*
X119546Y63000D01*
D02*
G37*
G36*
X-119220Y44000D02*
X-120812D01*
X-122282Y43391D01*
X-123407Y42266D01*
X-124016Y40796D01*
Y39204D01*
X-123407Y37734D01*
X-122282Y36609D01*
X-120812Y36000D01*
X-119220D01*
X-117750Y36609D01*
X-116625Y37734D01*
X-116016Y39204D01*
Y40796D01*
X-116625Y42266D01*
X-117750Y43391D01*
X-119220Y44000D01*
D02*
G37*
G36*
X-109204Y36500D02*
X-110796D01*
X-112266Y35891D01*
X-113391Y34766D01*
X-114000Y33296D01*
Y31704D01*
X-113391Y30234D01*
X-112266Y29109D01*
X-110796Y28500D01*
X-109204D01*
X-107734Y29109D01*
X-106609Y30234D01*
X-106000Y31704D01*
Y33296D01*
X-106609Y34766D01*
X-107734Y35891D01*
X-109204Y36500D01*
D02*
G37*
G36*
X70999Y35020D02*
X69001D01*
X67156Y34256D01*
X65744Y32844D01*
X64980Y30999D01*
Y29002D01*
X65744Y27156D01*
X67156Y25744D01*
X69001Y24980D01*
X70999D01*
X72844Y25744D01*
X74256Y27156D01*
X75020Y29002D01*
Y30999D01*
X74256Y32844D01*
X72844Y34256D01*
X70999Y35020D01*
D02*
G37*
G36*
X-14204Y31500D02*
X-15796D01*
X-17266Y30891D01*
X-18391Y29766D01*
X-19000Y28296D01*
Y26704D01*
X-18391Y25234D01*
X-17266Y24109D01*
X-15796Y23500D01*
X-14204D01*
X-12734Y24109D01*
X-11609Y25234D01*
X-11000Y26704D01*
Y28296D01*
X-11609Y29766D01*
X-12734Y30891D01*
X-14204Y31500D01*
D02*
G37*
G36*
X-109220Y6500D02*
X-110812D01*
X-112282Y5891D01*
X-113407Y4766D01*
X-113819Y3772D01*
X-115083Y3379D01*
X-115234Y3391D01*
X-116704Y4000D01*
X-118296D01*
X-119766Y3391D01*
X-120891Y2266D01*
X-121500Y796D01*
Y-796D01*
X-120891Y-2266D01*
X-120230Y-2927D01*
X-119907Y-3750D01*
X-120230Y-4573D01*
X-120891Y-5234D01*
X-121500Y-6704D01*
Y-8296D01*
X-120891Y-9766D01*
X-119766Y-10891D01*
X-118296Y-11500D01*
X-116704D01*
X-115234Y-10891D01*
X-114926Y-10583D01*
X-113849Y-11302D01*
X-114016Y-11704D01*
Y-13296D01*
X-113929Y-13506D01*
X-124469Y-24046D01*
X-124915Y-24713D01*
X-125071Y-25500D01*
X-125071Y-25500D01*
Y-63812D01*
X-137469Y-76210D01*
X-137915Y-76877D01*
X-138071Y-77664D01*
X-138071Y-77664D01*
Y-123984D01*
X-138071Y-123984D01*
X-137915Y-124771D01*
X-137469Y-125437D01*
X-83954Y-178953D01*
X-83954Y-178953D01*
X-83287Y-179399D01*
X-82500Y-179555D01*
X-82500Y-179555D01*
X-65978D01*
X-65891Y-179766D01*
X-64766Y-180891D01*
X-63296Y-181500D01*
X-61704D01*
X-60234Y-180891D01*
X-59109Y-179766D01*
X-58500Y-178296D01*
Y-176704D01*
X-59109Y-175234D01*
X-58492Y-174056D01*
X-42214D01*
X-42214Y-174056D01*
X-41428Y-173899D01*
X-40761Y-173454D01*
X-26006Y-158699D01*
X-25796Y-158786D01*
X-24204D01*
X-22734Y-158177D01*
X-21609Y-157051D01*
X-21000Y-155581D01*
Y-153990D01*
X-21609Y-152520D01*
X-22734Y-151395D01*
X-24204Y-150786D01*
X-25796D01*
X-27266Y-151395D01*
X-28391Y-152520D01*
X-29000Y-153990D01*
Y-155581D01*
X-28913Y-155792D01*
X-43066Y-169944D01*
X-64204D01*
X-65064Y-168701D01*
X-64980Y-168498D01*
Y-166501D01*
X-65744Y-164656D01*
X-67156Y-163244D01*
X-69001Y-162480D01*
X-70999D01*
X-72844Y-163244D01*
X-74256Y-164656D01*
X-75020Y-166501D01*
Y-168498D01*
X-74256Y-170344D01*
X-73441Y-171159D01*
X-73967Y-172428D01*
X-80399D01*
X-130944Y-121883D01*
Y-79867D01*
X-118546Y-67469D01*
X-118101Y-66803D01*
X-117944Y-66016D01*
X-117944Y-66016D01*
Y-30406D01*
X-103563Y-16025D01*
X-103562Y-16025D01*
X-103117Y-15358D01*
X-102961Y-14571D01*
Y-9984D01*
X-103117Y-9197D01*
X-103562Y-8530D01*
X-103563Y-8530D01*
X-106087Y-6006D01*
X-106000Y-5796D01*
Y-4204D01*
X-106609Y-2734D01*
X-107275Y-2069D01*
X-107601Y-1260D01*
X-107281Y-422D01*
X-106625Y234D01*
X-106016Y1704D01*
Y3296D01*
X-106625Y4766D01*
X-107750Y5891D01*
X-109220Y6500D01*
D02*
G37*
G36*
X55796Y4000D02*
X54204D01*
X52734Y3391D01*
X51609Y2266D01*
X51000Y796D01*
Y-796D01*
X51609Y-2266D01*
X52304Y-2960D01*
X52631Y-3697D01*
X52326Y-4597D01*
X51689Y-5234D01*
X51080Y-6704D01*
Y-8296D01*
X51689Y-9766D01*
X52814Y-10891D01*
X54284Y-11500D01*
X55876D01*
X57346Y-10891D01*
X58471Y-9766D01*
X59080Y-8296D01*
Y-6704D01*
X58471Y-5234D01*
X57776Y-4540D01*
X57449Y-3803D01*
X57754Y-2903D01*
X58391Y-2266D01*
X59000Y-796D01*
Y796D01*
X58391Y2266D01*
X57266Y3391D01*
X55796Y4000D01*
D02*
G37*
G36*
X-31704D02*
X-33296D01*
X-34766Y3391D01*
X-35891Y2266D01*
X-36500Y796D01*
Y-796D01*
X-35891Y-2266D01*
X-35230Y-2927D01*
X-34907Y-3750D01*
X-35230Y-4573D01*
X-35891Y-5234D01*
X-36500Y-6704D01*
Y-8296D01*
X-35891Y-9766D01*
X-34766Y-10891D01*
X-33296Y-11500D01*
X-31704D01*
X-30234Y-10891D01*
X-29109Y-9766D01*
X-28500Y-8296D01*
Y-6704D01*
X-29109Y-5234D01*
X-29770Y-4573D01*
X-30093Y-3750D01*
X-29770Y-2927D01*
X-29109Y-2266D01*
X-28500Y-796D01*
Y796D01*
X-29109Y2266D01*
X-30234Y3391D01*
X-31704Y4000D01*
D02*
G37*
G36*
X36010Y-11000D02*
X34419D01*
X32949Y-11609D01*
X31823Y-12734D01*
X31214Y-14204D01*
Y-15796D01*
X31823Y-17266D01*
X32949Y-18391D01*
X34419Y-19000D01*
X36010D01*
X37480Y-18391D01*
X38605Y-17266D01*
X39214Y-15796D01*
Y-14204D01*
X38605Y-12734D01*
X37480Y-11609D01*
X36010Y-11000D01*
D02*
G37*
G36*
X-185554Y-27800D02*
X-187146D01*
X-188616Y-28409D01*
X-189741Y-29534D01*
X-190350Y-31004D01*
Y-32596D01*
X-189741Y-34066D01*
X-188616Y-35191D01*
X-187146Y-35800D01*
X-185554D01*
X-184084Y-35191D01*
X-182959Y-34066D01*
X-182350Y-32596D01*
Y-31004D01*
X-182959Y-29534D01*
X-184084Y-28409D01*
X-185554Y-27800D01*
D02*
G37*
G36*
X-212854D02*
X-214446D01*
X-215916Y-28409D01*
X-217041Y-29534D01*
X-217650Y-31004D01*
Y-32596D01*
X-217041Y-34066D01*
X-215916Y-35191D01*
X-214446Y-35800D01*
X-212854D01*
X-211384Y-35191D01*
X-210259Y-34066D01*
X-209650Y-32596D01*
Y-31004D01*
X-210259Y-29534D01*
X-211384Y-28409D01*
X-212854Y-27800D01*
D02*
G37*
G36*
X50812Y-33500D02*
X49220D01*
X47750Y-34109D01*
X46625Y-35234D01*
X46016Y-36704D01*
Y-38296D01*
X46625Y-39766D01*
X47750Y-40891D01*
X49220Y-41500D01*
X50812D01*
X52282Y-40891D01*
X53407Y-39766D01*
X54016Y-38296D01*
Y-36704D01*
X53407Y-35234D01*
X52282Y-34109D01*
X50812Y-33500D01*
D02*
G37*
G36*
X70999Y-34980D02*
X69001D01*
X67156Y-35744D01*
X65744Y-37156D01*
X64980Y-39001D01*
Y-40999D01*
X65744Y-42844D01*
X67156Y-44256D01*
X69001Y-45020D01*
X70999D01*
X72844Y-44256D01*
X74256Y-42844D01*
X75020Y-40999D01*
Y-39001D01*
X74256Y-37156D01*
X72844Y-35744D01*
X70999Y-34980D01*
D02*
G37*
G36*
X-185554Y-53200D02*
X-187146D01*
X-188616Y-53809D01*
X-189741Y-54934D01*
X-190350Y-56404D01*
Y-57996D01*
X-189741Y-59466D01*
X-188616Y-60591D01*
X-187146Y-61200D01*
X-185554D01*
X-184084Y-60591D01*
X-182959Y-59466D01*
X-182350Y-57996D01*
Y-56404D01*
X-182959Y-54934D01*
X-184084Y-53809D01*
X-185554Y-53200D01*
D02*
G37*
G36*
X-212854D02*
X-214446D01*
X-215916Y-53809D01*
X-217041Y-54934D01*
X-217650Y-56404D01*
Y-57996D01*
X-217041Y-59466D01*
X-215916Y-60591D01*
X-214446Y-61200D01*
X-212854D01*
X-211384Y-60591D01*
X-210259Y-59466D01*
X-209650Y-57996D01*
Y-56404D01*
X-210259Y-54934D01*
X-211384Y-53809D01*
X-212854Y-53200D01*
D02*
G37*
G36*
X-8204Y-53500D02*
X-9796D01*
X-11266Y-54109D01*
X-12391Y-55234D01*
X-13000Y-56704D01*
Y-58296D01*
X-12391Y-59766D01*
X-11266Y-60891D01*
X-9796Y-61500D01*
X-8204D01*
X-6734Y-60891D01*
X-5609Y-59766D01*
X-5000Y-58296D01*
Y-56704D01*
X-5609Y-55234D01*
X-6734Y-54109D01*
X-8204Y-53500D01*
D02*
G37*
G36*
X231750Y-14250D02*
X168250D01*
X167472Y-14572D01*
X167150Y-15350D01*
Y-60850D01*
X167472Y-61628D01*
X168250Y-61950D01*
X231750D01*
X232528Y-61628D01*
X232850Y-60850D01*
Y-15350D01*
X232528Y-14572D01*
X231750Y-14250D01*
D02*
G37*
G36*
X60135Y-52944D02*
X60135Y-52944D01*
X52500D01*
X51713Y-53101D01*
X51047Y-53547D01*
X51047Y-53547D01*
X48547Y-56047D01*
X48101Y-56713D01*
X47944Y-57500D01*
X47944Y-57500D01*
Y-59883D01*
X14883Y-92944D01*
X-4022D01*
X-4109Y-92734D01*
X-5234Y-91609D01*
X-6704Y-91000D01*
X-8296D01*
X-9766Y-91609D01*
X-10891Y-92734D01*
X-11500Y-94204D01*
Y-95796D01*
X-10891Y-97266D01*
X-9766Y-98391D01*
X-8296Y-99000D01*
X-6704D01*
X-5234Y-98391D01*
X-4109Y-97266D01*
X-4022Y-97056D01*
X13378D01*
X13864Y-98229D01*
X1649Y-110444D01*
X-38128D01*
X-38864Y-109174D01*
X-38694Y-108764D01*
X-18515Y-88585D01*
X-11798D01*
X-10796Y-89000D01*
X-9204D01*
X-7734Y-88391D01*
X-6609Y-87266D01*
X-6000Y-85796D01*
Y-84204D01*
X-6609Y-82734D01*
X-7734Y-81609D01*
X-9204Y-81000D01*
X-10796D01*
X-11798Y-81415D01*
X-20000D01*
X-20265Y-81468D01*
X-20891Y-80297D01*
X-20109Y-79516D01*
X-19500Y-78046D01*
Y-76454D01*
X-20109Y-74984D01*
X-21234Y-73859D01*
X-22704Y-73250D01*
X-24296D01*
X-25766Y-73859D01*
X-26891Y-74984D01*
X-27500Y-76454D01*
Y-78046D01*
X-26891Y-79516D01*
X-25766Y-80641D01*
X-24296Y-81250D01*
X-23002D01*
X-22475Y-82425D01*
X-22535Y-82465D01*
X-38195Y-98125D01*
X-39109Y-97266D01*
X-38500Y-95796D01*
Y-94204D01*
X-39109Y-92734D01*
X-40234Y-91609D01*
X-41704Y-91000D01*
X-43296D01*
X-44766Y-91609D01*
X-45891Y-92734D01*
X-46500Y-94204D01*
Y-95796D01*
X-45891Y-97266D01*
X-46805Y-98125D01*
X-62465Y-82465D01*
X-63628Y-81688D01*
X-65000Y-81415D01*
X-85702D01*
X-86704Y-81000D01*
X-88296D01*
X-89298Y-81415D01*
X-100000D01*
X-101372Y-81688D01*
X-102535Y-82465D01*
X-118195Y-98125D01*
X-119109Y-97266D01*
X-118500Y-95796D01*
Y-94204D01*
X-119109Y-92734D01*
X-120234Y-91609D01*
X-121704Y-91000D01*
X-123296D01*
X-124766Y-91609D01*
X-125891Y-92734D01*
X-126500Y-94204D01*
Y-95796D01*
X-125891Y-97266D01*
X-124766Y-98391D01*
X-123296Y-99000D01*
X-121704D01*
X-120234Y-98391D01*
X-119375Y-99305D01*
X-123764Y-103694D01*
X-124766Y-104109D01*
X-125891Y-105234D01*
X-126500Y-106704D01*
Y-108296D01*
X-125891Y-109766D01*
X-124766Y-110891D01*
X-123296Y-111500D01*
X-121704D01*
X-120234Y-110891D01*
X-119109Y-109766D01*
X-118694Y-108764D01*
X-98515Y-88585D01*
X-89298D01*
X-88296Y-89000D01*
X-86704D01*
X-85702Y-88585D01*
X-66485D01*
X-63395Y-91674D01*
X-63921Y-92944D01*
X-84022D01*
X-84109Y-92734D01*
X-85234Y-91609D01*
X-86704Y-91000D01*
X-88296D01*
X-89766Y-91609D01*
X-90891Y-92734D01*
X-91500Y-94204D01*
Y-95796D01*
X-90891Y-97266D01*
X-89766Y-98391D01*
X-88296Y-99000D01*
X-86704D01*
X-85234Y-98391D01*
X-84109Y-97266D01*
X-84022Y-97056D01*
X-63351D01*
X-46453Y-113953D01*
X-46453Y-113954D01*
X-45787Y-114399D01*
X-45000Y-114556D01*
X-45000Y-114556D01*
X2500D01*
X2500Y-114556D01*
X3287Y-114399D01*
X3954Y-113954D01*
X53994Y-63913D01*
X54204Y-64000D01*
X55796D01*
X57266Y-63391D01*
X57268Y-63388D01*
X57465Y-63374D01*
X58692Y-63760D01*
X59109Y-64766D01*
X60234Y-65891D01*
X61704Y-66500D01*
X63296D01*
X64766Y-65891D01*
X65891Y-64766D01*
X66500Y-63296D01*
Y-61704D01*
X65891Y-60234D01*
X64766Y-59109D01*
X64556Y-59022D01*
Y-57365D01*
X64556Y-57365D01*
X64399Y-56578D01*
X63953Y-55911D01*
X61589Y-53547D01*
X60922Y-53101D01*
X60791Y-53075D01*
X60135Y-52944D01*
D02*
G37*
G36*
X10796Y-61000D02*
X9204D01*
X7734Y-61609D01*
X6609Y-62734D01*
X6000Y-64204D01*
Y-65796D01*
X6609Y-67266D01*
X7734Y-68391D01*
X9204Y-69000D01*
X10796D01*
X12266Y-68391D01*
X13391Y-67266D01*
X14000Y-65796D01*
Y-64204D01*
X13391Y-62734D01*
X12266Y-61609D01*
X10796Y-61000D01*
D02*
G37*
G36*
X201251Y-63550D02*
X198749D01*
X196333Y-64197D01*
X194167Y-65448D01*
X192398Y-67217D01*
X191147Y-69383D01*
X190500Y-71799D01*
Y-74301D01*
X191147Y-76717D01*
X192398Y-78883D01*
X194167Y-80652D01*
X196333Y-81903D01*
X198749Y-82550D01*
X201251D01*
X203667Y-81903D01*
X205833Y-80652D01*
X207602Y-78883D01*
X208853Y-76717D01*
X209500Y-74301D01*
Y-71799D01*
X208853Y-69383D01*
X207602Y-67217D01*
X205833Y-65448D01*
X203667Y-64197D01*
X201251Y-63550D01*
D02*
G37*
G36*
X-198749D02*
X-201251D01*
X-203667Y-64197D01*
X-205833Y-65448D01*
X-207602Y-67217D01*
X-208853Y-69383D01*
X-209500Y-71799D01*
Y-74301D01*
X-208853Y-76717D01*
X-207602Y-78883D01*
X-205833Y-80652D01*
X-203667Y-81903D01*
X-201251Y-82550D01*
X-198749D01*
X-196333Y-81903D01*
X-194167Y-80652D01*
X-192398Y-78883D01*
X-191147Y-76717D01*
X-190500Y-74301D01*
Y-71799D01*
X-191147Y-69383D01*
X-192398Y-67217D01*
X-194167Y-65448D01*
X-196333Y-64197D01*
X-198749Y-63550D01*
D02*
G37*
G36*
X83296Y-83500D02*
X81704D01*
X80234Y-84109D01*
X79109Y-85234D01*
X78500Y-86704D01*
Y-88296D01*
X79109Y-89766D01*
X80234Y-90891D01*
X81704Y-91500D01*
X83296D01*
X84766Y-90891D01*
X85891Y-89766D01*
X86500Y-88296D01*
Y-86704D01*
X85891Y-85234D01*
X84766Y-84109D01*
X83296Y-83500D01*
D02*
G37*
G36*
X63296D02*
X61704D01*
X60234Y-84109D01*
X59109Y-85234D01*
X58500Y-86704D01*
Y-88296D01*
X59109Y-89766D01*
X60234Y-90891D01*
X61704Y-91500D01*
X63296D01*
X64766Y-90891D01*
X65891Y-89766D01*
X66500Y-88296D01*
Y-86704D01*
X65891Y-85234D01*
X64766Y-84109D01*
X63296Y-83500D01*
D02*
G37*
G36*
Y-93500D02*
X61704D01*
X60234Y-94109D01*
X59109Y-95234D01*
X58500Y-96704D01*
Y-98296D01*
X59109Y-99766D01*
X60234Y-100891D01*
X61704Y-101500D01*
X63296D01*
X64766Y-100891D01*
X65891Y-99766D01*
X66500Y-98296D01*
Y-96704D01*
X65891Y-95234D01*
X64766Y-94109D01*
X63296Y-93500D01*
D02*
G37*
G36*
X108296Y-96000D02*
X106704D01*
X105234Y-96609D01*
X104109Y-97734D01*
X103500Y-99204D01*
Y-100796D01*
X104109Y-102266D01*
X105234Y-103391D01*
X106704Y-104000D01*
X108296D01*
X109766Y-103391D01*
X110891Y-102266D01*
X111500Y-100796D01*
Y-99204D01*
X110891Y-97734D01*
X109766Y-96609D01*
X108296Y-96000D01*
D02*
G37*
G36*
X7046Y-138250D02*
X5454D01*
X3984Y-138859D01*
X2859Y-139984D01*
X2250Y-141454D01*
Y-143046D01*
X2859Y-144516D01*
X3984Y-145641D01*
X5454Y-146250D01*
X7046D01*
X8516Y-145641D01*
X9641Y-144516D01*
X10250Y-143046D01*
Y-141454D01*
X9641Y-139984D01*
X8516Y-138859D01*
X7046Y-138250D01*
D02*
G37*
G36*
X-5454D02*
X-7046D01*
X-8516Y-138859D01*
X-9641Y-139984D01*
X-10250Y-141454D01*
Y-143046D01*
X-9641Y-144516D01*
X-8516Y-145641D01*
X-7046Y-146250D01*
X-5454D01*
X-3984Y-145641D01*
X-2859Y-144516D01*
X-2250Y-143046D01*
Y-141454D01*
X-2859Y-139984D01*
X-3984Y-138859D01*
X-5454Y-138250D01*
D02*
G37*
G36*
X-70454D02*
X-72046D01*
X-73516Y-138859D01*
X-74641Y-139984D01*
X-75250Y-141454D01*
Y-143046D01*
X-74641Y-144516D01*
X-73516Y-145641D01*
X-72046Y-146250D01*
X-70454D01*
X-68984Y-145641D01*
X-67859Y-144516D01*
X-67250Y-143046D01*
Y-141454D01*
X-67859Y-139984D01*
X-68984Y-138859D01*
X-70454Y-138250D01*
D02*
G37*
G36*
X-82954D02*
X-84546D01*
X-86016Y-138859D01*
X-87141Y-139984D01*
X-87750Y-141454D01*
Y-143046D01*
X-87141Y-144516D01*
X-86016Y-145641D01*
X-84546Y-146250D01*
X-82954D01*
X-81484Y-145641D01*
X-80359Y-144516D01*
X-79750Y-143046D01*
Y-141454D01*
X-80359Y-139984D01*
X-81484Y-138859D01*
X-82954Y-138250D01*
D02*
G37*
G36*
X-57954Y-138250D02*
X-59546D01*
X-61016Y-138859D01*
X-62141Y-139984D01*
X-62750Y-141454D01*
Y-143046D01*
X-62141Y-144516D01*
X-61016Y-145641D01*
X-59546Y-146250D01*
X-57954D01*
X-56484Y-145641D01*
X-55359Y-144516D01*
X-54750Y-143046D01*
Y-141454D01*
X-55359Y-139984D01*
X-56484Y-138859D01*
X-57954Y-138250D01*
D02*
G37*
G36*
X33296Y-138500D02*
X31704D01*
X30234Y-139109D01*
X29109Y-140234D01*
X28500Y-141704D01*
Y-143296D01*
X29109Y-144766D01*
X30234Y-145891D01*
X31704Y-146500D01*
X33296D01*
X34766Y-145891D01*
X35891Y-144766D01*
X36500Y-143296D01*
Y-141704D01*
X35891Y-140234D01*
X34766Y-139109D01*
X33296Y-138500D01*
D02*
G37*
G36*
X-84204Y-152500D02*
X-85796D01*
X-87266Y-153109D01*
X-88391Y-154234D01*
X-89000Y-155704D01*
Y-157296D01*
X-88391Y-158766D01*
X-87266Y-159891D01*
X-85796Y-160500D01*
X-84204D01*
X-82734Y-159891D01*
X-81609Y-158766D01*
X-81000Y-157296D01*
Y-155704D01*
X-81609Y-154234D01*
X-82734Y-153109D01*
X-84204Y-152500D01*
D02*
G37*
G36*
X33296Y-153500D02*
X31704D01*
X30234Y-154109D01*
X29109Y-155234D01*
X28500Y-156704D01*
Y-158296D01*
X29109Y-159766D01*
X30234Y-160891D01*
X31704Y-161500D01*
X33296D01*
X34766Y-160891D01*
X35891Y-159766D01*
X36500Y-158296D01*
Y-156704D01*
X35891Y-155234D01*
X34766Y-154109D01*
X33296Y-153500D01*
D02*
G37*
G36*
X-9002Y-162480D02*
X-10999D01*
X-12844Y-163244D01*
X-14256Y-164656D01*
X-15020Y-166501D01*
Y-168498D01*
X-14256Y-170344D01*
X-12844Y-171756D01*
X-10999Y-172520D01*
X-9002D01*
X-7156Y-171756D01*
X-5744Y-170344D01*
X-4980Y-168498D01*
Y-166501D01*
X-5744Y-164656D01*
X-7156Y-163244D01*
X-9002Y-162480D01*
D02*
G37*
%LPD*%
G36*
X82928Y217736D02*
Y195751D01*
X82928Y195751D01*
X83085Y194964D01*
X83531Y194297D01*
X94797Y183031D01*
X94797Y183030D01*
X95464Y182585D01*
X96251Y182428D01*
X96251Y182428D01*
X110399D01*
X157944Y134883D01*
Y133478D01*
X157734Y133391D01*
X156609Y132266D01*
X156000Y130796D01*
Y129204D01*
X156364Y128326D01*
X155628Y127056D01*
X96872D01*
X96136Y128326D01*
X96500Y129204D01*
Y130796D01*
X95891Y132266D01*
X94766Y133391D01*
X94556Y133478D01*
Y172500D01*
X94556Y172500D01*
X94399Y173287D01*
X93954Y173953D01*
X91413Y176494D01*
X91500Y176704D01*
Y178296D01*
X90891Y179766D01*
X89766Y180891D01*
X88296Y181500D01*
X86704D01*
X85234Y180891D01*
X84109Y179766D01*
X83500Y178296D01*
Y176704D01*
X84109Y175234D01*
X84770Y174573D01*
X85093Y173750D01*
X84770Y172927D01*
X84109Y172266D01*
X83500Y170796D01*
Y169204D01*
X84109Y167734D01*
X84770Y167073D01*
X85093Y166250D01*
X84770Y165427D01*
X84109Y164766D01*
X83500Y163296D01*
Y161704D01*
X84109Y160234D01*
X84770Y159573D01*
X85093Y158750D01*
X84770Y157927D01*
X84109Y157266D01*
X83500Y155796D01*
Y154204D01*
X84109Y152734D01*
X85234Y151609D01*
X86704Y151000D01*
X88296D01*
X89174Y151364D01*
X90444Y150628D01*
Y144372D01*
X89174Y143636D01*
X88296Y144000D01*
X86704D01*
X85234Y143391D01*
X84109Y142266D01*
X83500Y140796D01*
Y139204D01*
X84109Y137734D01*
X85234Y136609D01*
X86704Y136000D01*
X88296D01*
X89174Y136364D01*
X90444Y135628D01*
Y133478D01*
X90234Y133391D01*
X89109Y132266D01*
X88500Y130796D01*
Y129204D01*
X88864Y128326D01*
X88128Y127056D01*
X54000D01*
X54000Y127056D01*
X53213Y126899D01*
X52547Y126454D01*
X52547Y126453D01*
X46229Y120136D01*
X45055Y120622D01*
Y208500D01*
X45796D01*
X47266Y209109D01*
X48391Y210234D01*
X49000Y211704D01*
Y213296D01*
X48391Y214766D01*
X47266Y215891D01*
X45796Y216500D01*
X44204D01*
X42734Y215891D01*
X42338Y215494D01*
X41508Y214845D01*
X40678Y215494D01*
X40282Y215891D01*
X38812Y216500D01*
X37220D01*
X35750Y215891D01*
X34625Y214766D01*
X34016Y213296D01*
Y213076D01*
X33296Y212000D01*
X32843Y212000D01*
X31704D01*
X30234Y211391D01*
X29330Y210487D01*
X29049Y210271D01*
X27780Y210377D01*
X27266Y210891D01*
X25796Y211500D01*
X24204D01*
X22734Y210891D01*
X22073Y210230D01*
X21250Y209907D01*
X20427Y210230D01*
X19766Y210891D01*
X18296Y211500D01*
X16704D01*
X15234Y210891D01*
X14573Y210230D01*
X13750Y209907D01*
X12927Y210230D01*
X12266Y210891D01*
X10796Y211500D01*
X9204D01*
X7734Y210891D01*
X7073Y210230D01*
X6250Y209907D01*
X5427Y210230D01*
X4766Y210891D01*
X3296Y211500D01*
X1704D01*
X234Y210891D01*
X-891Y209766D01*
X-1500Y208296D01*
Y206704D01*
X-1136Y205826D01*
X-1872Y204555D01*
X-6649D01*
X-20364Y218271D01*
X-19878Y219445D01*
X71522D01*
X71609Y219234D01*
X72734Y218109D01*
X74204Y217500D01*
X75796D01*
X77266Y218109D01*
X78391Y219234D01*
X78755Y220113D01*
X80173Y220491D01*
X82928Y217736D01*
D02*
G37*
G36*
X-90296Y218771D02*
X-90080Y218174D01*
X-90638Y216828D01*
Y215236D01*
X-90029Y213766D01*
X-88903Y212641D01*
X-87433Y212032D01*
X-85842D01*
X-84372Y212641D01*
X-83247Y213766D01*
X-82638Y215236D01*
Y215944D01*
X-23851D01*
X-8953Y201047D01*
X-8287Y200601D01*
X-7500Y200445D01*
X-7500Y200445D01*
X33649D01*
X34913Y199181D01*
Y102158D01*
X34880Y101997D01*
X34880Y101997D01*
Y100287D01*
X31464Y96871D01*
X30748Y97168D01*
X29156D01*
X27686Y96559D01*
X26561Y95434D01*
X25952Y93964D01*
Y92373D01*
X26561Y90902D01*
X27686Y89777D01*
X29156Y89168D01*
X29465D01*
X29991Y87898D01*
X28009Y85916D01*
X26453Y86148D01*
X23760Y88841D01*
X23847Y89052D01*
Y90643D01*
X23238Y92113D01*
X22514Y92837D01*
X22329Y93787D01*
X22577Y94420D01*
X23391Y95234D01*
X24000Y96704D01*
Y98296D01*
X23391Y99766D01*
X22266Y100891D01*
X20796Y101500D01*
X19204D01*
X17894Y100957D01*
X16624Y101440D01*
Y107000D01*
Y121500D01*
X16624Y121500D01*
X16196Y123652D01*
X14977Y125477D01*
X-11876Y152330D01*
Y170000D01*
X-11968Y170462D01*
X-8515Y173915D01*
X-2038D01*
X-1512Y172645D01*
X-1891Y172266D01*
X-2500Y170796D01*
Y169204D01*
X-1891Y167734D01*
X-766Y166609D01*
X704Y166000D01*
X2296D01*
X3766Y166609D01*
X4891Y167734D01*
X5500Y169204D01*
Y170796D01*
X4891Y172266D01*
X4512Y172645D01*
X5038Y173915D01*
X7500D01*
X8872Y174188D01*
X10035Y174965D01*
X13764Y178694D01*
X14766Y179109D01*
X15891Y180234D01*
X16500Y181704D01*
Y183296D01*
X15891Y184766D01*
X14766Y185891D01*
X13296Y186500D01*
X11704D01*
X10234Y185891D01*
X9109Y184766D01*
X8694Y183764D01*
X6211Y181281D01*
X5259Y181394D01*
X4784Y182627D01*
X4891Y182734D01*
X5500Y184204D01*
Y185796D01*
X4891Y187266D01*
X3766Y188391D01*
X2296Y189000D01*
X704D01*
X-766Y188391D01*
X-1891Y187266D01*
X-2500Y185796D01*
Y184204D01*
X-1891Y182734D01*
X-1512Y182355D01*
X-2038Y181085D01*
X-10000D01*
X-11372Y180812D01*
X-12535Y180035D01*
X-17038Y175532D01*
X-17500Y175624D01*
X-19652Y175196D01*
X-20801Y174429D01*
X-48699Y202327D01*
X-48504Y202893D01*
X-48076Y203500D01*
X-46704D01*
X-45234Y204109D01*
X-44109Y205234D01*
X-43500Y206704D01*
Y208296D01*
X-44109Y209766D01*
X-45234Y210891D01*
X-46704Y211500D01*
X-48296D01*
X-49766Y210891D01*
X-50891Y209766D01*
X-51500Y208296D01*
Y206924D01*
X-52107Y206496D01*
X-52556Y206342D01*
X-53500Y207136D01*
Y208296D01*
X-54109Y209766D01*
X-55234Y210891D01*
X-56704Y211500D01*
X-58296D01*
X-59766Y210891D01*
X-60592Y210065D01*
X-91223D01*
X-95786Y214628D01*
Y215796D01*
X-96395Y217266D01*
X-97303Y218174D01*
X-97057Y219196D01*
X-96914Y219445D01*
X-90678D01*
X-90296Y218771D01*
D02*
G37*
G36*
X-104343Y214350D02*
X-103729Y214068D01*
X-103177Y212734D01*
X-102051Y211609D01*
X-100581Y211000D01*
X-99413D01*
X-94100Y205686D01*
X-93267Y205130D01*
X-92286Y204935D01*
X-91858D01*
X-91605Y203665D01*
X-92266Y203391D01*
X-93391Y202266D01*
X-94000Y200796D01*
Y199204D01*
X-93391Y197734D01*
X-92730Y197073D01*
X-92407Y196250D01*
X-92730Y195427D01*
X-93391Y194766D01*
X-94000Y193296D01*
Y191704D01*
X-93391Y190234D01*
X-92266Y189109D01*
X-90796Y188500D01*
X-89204D01*
X-87734Y189109D01*
X-86609Y190234D01*
X-86000Y191704D01*
Y193296D01*
X-86609Y194766D01*
X-87270Y195427D01*
X-87593Y196250D01*
X-87270Y197073D01*
X-86609Y197734D01*
X-86000Y199204D01*
Y200796D01*
X-86609Y202266D01*
X-87734Y203391D01*
X-88395Y203665D01*
X-88142Y204935D01*
X-60592D01*
X-59766Y204109D01*
X-58296Y203500D01*
X-57128D01*
X-23124Y169496D01*
Y150000D01*
X-23124Y150000D01*
X-22696Y147848D01*
X-21477Y146023D01*
X5376Y119170D01*
Y109565D01*
X-10937D01*
X-20643Y119271D01*
X-20157Y120444D01*
X-18478D01*
X-18391Y120234D01*
X-17266Y119109D01*
X-15796Y118500D01*
X-14204D01*
X-12734Y119109D01*
X-11609Y120234D01*
X-11000Y121704D01*
Y123296D01*
X-11609Y124766D01*
X-12734Y125891D01*
X-14204Y126500D01*
X-15796D01*
X-16225Y126322D01*
X-16944Y127399D01*
X-16609Y127734D01*
X-16000Y129204D01*
Y130796D01*
X-16609Y132266D01*
X-17734Y133391D01*
X-19204Y134000D01*
X-20372D01*
X-27160Y140788D01*
X-27993Y141344D01*
X-28974Y141540D01*
X-59408D01*
X-60234Y142365D01*
X-60680Y142550D01*
Y143925D01*
X-60234Y144109D01*
X-59109Y145234D01*
X-58500Y146704D01*
Y148296D01*
X-59109Y149766D01*
X-60234Y150891D01*
X-61704Y151500D01*
X-63296D01*
X-64766Y150891D01*
X-65891Y149766D01*
X-66500Y148296D01*
Y146704D01*
X-65891Y145234D01*
X-64766Y144109D01*
X-64320Y143925D01*
Y142550D01*
X-64766Y142365D01*
X-65891Y141240D01*
X-66500Y139770D01*
Y138179D01*
X-66136Y137300D01*
X-66872Y136030D01*
X-120623D01*
X-128546Y143954D01*
X-129213Y144399D01*
X-130000Y144556D01*
X-130000Y144556D01*
X-137500D01*
X-137500Y144556D01*
X-138287Y144399D01*
X-138954Y143954D01*
X-156882Y126025D01*
X-157328Y125358D01*
X-157484Y124571D01*
X-157484Y124571D01*
Y123478D01*
X-157695Y123391D01*
X-158820Y122266D01*
X-159429Y120796D01*
Y119204D01*
X-159342Y118994D01*
X-160256Y118080D01*
X-161674Y118458D01*
X-162038Y119337D01*
X-163002Y120301D01*
X-163092Y121035D01*
X-163002Y121770D01*
X-162038Y122734D01*
X-161429Y124204D01*
Y125796D01*
X-162038Y127266D01*
X-163163Y128391D01*
X-164633Y129000D01*
X-166225D01*
X-167695Y128391D01*
X-168675Y127411D01*
X-169359Y127522D01*
X-169944Y127801D01*
Y149649D01*
X-158851Y160742D01*
X-158542Y160656D01*
X-157678Y160119D01*
Y158824D01*
X-157069Y157354D01*
X-155944Y156229D01*
X-154474Y155620D01*
X-152882D01*
X-151412Y156229D01*
X-150287Y157354D01*
X-149678Y158824D01*
Y160416D01*
X-150287Y161886D01*
X-151412Y163011D01*
X-152882Y163620D01*
X-154177D01*
X-154714Y164484D01*
X-154800Y164793D01*
X-105056Y214538D01*
X-104343Y214350D01*
D02*
G37*
G36*
X-124604Y134197D02*
X-125090Y133024D01*
X-127853D01*
X-135957Y139131D01*
X-143559Y129042D01*
X-133471Y121440D01*
X-132202Y123124D01*
X-132035Y123108D01*
X-130953Y122671D01*
X-130651Y120519D01*
X-130242Y119825D01*
X-131069Y118727D01*
X-131849Y118929D01*
X-134337Y118579D01*
X-136502Y117304D01*
X-138014Y115297D01*
X-138644Y112865D01*
X-138294Y110377D01*
X-137885Y109683D01*
X-138712Y108585D01*
X-139492Y108786D01*
X-141980Y108437D01*
X-144145Y107161D01*
X-145658Y105155D01*
X-146287Y102722D01*
X-145937Y100234D01*
X-145528Y99540D01*
X-146355Y98442D01*
X-147135Y98644D01*
X-149623Y98294D01*
X-150317Y97885D01*
X-151415Y98713D01*
X-151214Y99492D01*
X-151563Y101980D01*
X-152839Y104145D01*
X-154845Y105658D01*
X-157278Y106287D01*
X-159766Y105937D01*
X-161931Y104662D01*
X-163443Y102655D01*
X-164072Y100222D01*
X-163723Y97734D01*
X-163314Y97040D01*
X-164141Y95942D01*
X-164921Y96144D01*
X-167409Y95794D01*
X-169574Y94519D01*
X-169740Y94299D01*
X-170944Y94702D01*
Y101578D01*
X-156435Y116087D01*
X-156225Y116000D01*
X-154633D01*
X-153163Y116609D01*
X-152038Y117734D01*
X-151429Y119204D01*
Y120796D01*
X-152038Y122266D01*
X-153163Y123391D01*
X-152603Y124490D01*
X-136649Y140444D01*
X-130851D01*
X-124604Y134197D01*
D02*
G37*
G36*
X174435Y123142D02*
Y99000D01*
X174630Y98018D01*
X175186Y97186D01*
X184888Y87485D01*
X184490Y86215D01*
X183020Y85605D01*
X181894Y84480D01*
X181807Y84270D01*
X168637D01*
X131136Y121771D01*
X131622Y122944D01*
X166022D01*
X166109Y122734D01*
X167234Y121609D01*
X168704Y121000D01*
X170296D01*
X171766Y121609D01*
X172891Y122734D01*
X173165Y123395D01*
X174435Y123142D01*
D02*
G37*
G36*
X-13814Y105186D02*
X-12982Y104630D01*
X-12000Y104435D01*
X5376D01*
Y96940D01*
X4106Y96164D01*
X3296Y96500D01*
X1704D01*
X234Y95891D01*
X-427Y95230D01*
X-1250Y94907D01*
X-2073Y95230D01*
X-2734Y95891D01*
X-4204Y96500D01*
X-5796D01*
X-7266Y95891D01*
X-7927Y95230D01*
X-8750Y94907D01*
X-9573Y95230D01*
X-10234Y95891D01*
X-11704Y96500D01*
X-13296D01*
X-14766Y95891D01*
X-15427Y95230D01*
X-16250Y94907D01*
X-17073Y95230D01*
X-17734Y95891D01*
X-19204Y96500D01*
X-20796D01*
X-22266Y95891D01*
X-22927Y95230D01*
X-23750Y94907D01*
X-24573Y95230D01*
X-25234Y95891D01*
X-26704Y96500D01*
X-28296D01*
X-29766Y95891D01*
X-30891Y94766D01*
X-31500Y93296D01*
Y91704D01*
X-30891Y90234D01*
X-29766Y89109D01*
X-28296Y88500D01*
X-26704D01*
X-25234Y89109D01*
X-24573Y89770D01*
X-23750Y90093D01*
X-22927Y89770D01*
X-22266Y89109D01*
X-20796Y88500D01*
X-19204D01*
X-17734Y89109D01*
X-17073Y89770D01*
X-16250Y90093D01*
X-15427Y89770D01*
X-14766Y89109D01*
X-13296Y88500D01*
X-11704D01*
X-10234Y89109D01*
X-9573Y89770D01*
X-8750Y90093D01*
X-7927Y89770D01*
X-7266Y89109D01*
X-5796Y88500D01*
X-4204D01*
X-2734Y89109D01*
X-2073Y89770D01*
X-1250Y90093D01*
X-427Y89770D01*
X-55Y89399D01*
Y87851D01*
X-3351Y84556D01*
X-45914D01*
X-48826Y87467D01*
X-48448Y88886D01*
X-47569Y89250D01*
X-47066Y89753D01*
X-46081Y90156D01*
X-45408Y89751D01*
X-44766Y89109D01*
X-43296Y88500D01*
X-41704D01*
X-40234Y89109D01*
X-39109Y90234D01*
X-38500Y91704D01*
Y93296D01*
X-39109Y94766D01*
X-40234Y95891D01*
X-41704Y96500D01*
X-43296D01*
X-43506Y96413D01*
X-46187Y99094D01*
X-46854Y99540D01*
X-47641Y99696D01*
X-47641Y99696D01*
X-55608D01*
X-55812Y99995D01*
X-55345Y101563D01*
X-55234Y101609D01*
X-54109Y102734D01*
X-53500Y104204D01*
Y105796D01*
X-54109Y107266D01*
X-54770Y107927D01*
X-55093Y108750D01*
X-54770Y109573D01*
X-54109Y110234D01*
X-53500Y111704D01*
Y113296D01*
X-54109Y114766D01*
X-54770Y115427D01*
X-55036Y116105D01*
X-54481Y117306D01*
X-53750Y117593D01*
X-52927Y117270D01*
X-52266Y116609D01*
X-50796Y116000D01*
X-49204D01*
X-47734Y116609D01*
X-46609Y117734D01*
X-46000Y119204D01*
Y120796D01*
X-46609Y122266D01*
X-47734Y123391D01*
X-49204Y124000D01*
X-50796D01*
X-52266Y123391D01*
X-52927Y122730D01*
X-53750Y122407D01*
X-54573Y122730D01*
X-55234Y123391D01*
X-56704Y124000D01*
X-58296D01*
X-59766Y123391D01*
X-60891Y122266D01*
X-61500Y120796D01*
Y119204D01*
X-60891Y117734D01*
X-60230Y117073D01*
X-59907Y116250D01*
X-60230Y115427D01*
X-60891Y114766D01*
X-61500Y113296D01*
Y111704D01*
X-60891Y110234D01*
X-60230Y109573D01*
X-59907Y108750D01*
X-60230Y107927D01*
X-60891Y107266D01*
X-60978Y107056D01*
X-106077D01*
X-118812Y119790D01*
X-118771Y119845D01*
X-118142Y122277D01*
X-118492Y124765D01*
X-119586Y126623D01*
X-119095Y127893D01*
X-36521D01*
X-13814Y105186D01*
D02*
G37*
G36*
X-111421Y97515D02*
X-111421Y97514D01*
X-110755Y97069D01*
X-109968Y96912D01*
X-109968Y96912D01*
X-64085D01*
X-62442Y95270D01*
X-62968Y94000D01*
X-63296D01*
X-64766Y93391D01*
X-65891Y92266D01*
X-66500Y90796D01*
Y89204D01*
X-65891Y87734D01*
X-64766Y86609D01*
X-63296Y86000D01*
X-62565D01*
Y78634D01*
X-142500D01*
X-144847Y78167D01*
X-146837Y76837D01*
X-169771Y53903D01*
X-170944Y54389D01*
Y84565D01*
X-169674Y85113D01*
X-168084Y83914D01*
X-165651Y83285D01*
X-163163Y83635D01*
X-162469Y84044D01*
X-161371Y83216D01*
X-161573Y82437D01*
X-161223Y79949D01*
X-159948Y77783D01*
X-157941Y76271D01*
X-155508Y75642D01*
X-153020Y75992D01*
X-150855Y77267D01*
X-149343Y79274D01*
X-148714Y81706D01*
X-149064Y84195D01*
X-149473Y84889D01*
X-148645Y85987D01*
X-147865Y85785D01*
X-145377Y86135D01*
X-143212Y87410D01*
X-141700Y89417D01*
X-141071Y91849D01*
X-141421Y94337D01*
X-141830Y95031D01*
X-141002Y96129D01*
X-140222Y95928D01*
X-137734Y96277D01*
X-135569Y97552D01*
X-134057Y99559D01*
X-133865Y100302D01*
X-114208D01*
X-111421Y97515D01*
D02*
G37*
G36*
X-175056Y53450D02*
X-231750D01*
Y60850D01*
X-175056D01*
Y53450D01*
D02*
G37*
G36*
X-179555Y47500D02*
X-179555Y47500D01*
Y28050D01*
X-231750D01*
Y48150D01*
X-180089D01*
X-179555Y47500D01*
D02*
G37*
G36*
X-179425Y9844D02*
X-179399Y9713D01*
X-178953Y9046D01*
X-168250Y-1657D01*
Y-10050D01*
X-231750D01*
Y10050D01*
X-179466D01*
X-179425Y9844D01*
D02*
G37*
%LPC*%
G36*
X58296Y216500D02*
X56704D01*
X55234Y215891D01*
X54109Y214766D01*
X53500Y213296D01*
Y211704D01*
X54109Y210234D01*
X55234Y209109D01*
X56704Y208500D01*
X58296D01*
X59766Y209109D01*
X60891Y210234D01*
X61500Y211704D01*
Y213296D01*
X60891Y214766D01*
X59766Y215891D01*
X58296Y216500D01*
D02*
G37*
G36*
Y194000D02*
X56704D01*
X55234Y193391D01*
X54109Y192266D01*
X53500Y190796D01*
Y189204D01*
X54109Y187734D01*
X55234Y186609D01*
X56704Y186000D01*
X58296D01*
X59766Y186609D01*
X60891Y187734D01*
X61500Y189204D01*
Y190796D01*
X60891Y192266D01*
X59766Y193391D01*
X58296Y194000D01*
D02*
G37*
G36*
Y181286D02*
X56704D01*
X55234Y180677D01*
X54109Y179552D01*
X53500Y178081D01*
Y176490D01*
X54109Y175020D01*
X55234Y173895D01*
X56704Y173286D01*
X58296D01*
X59766Y173895D01*
X60891Y175020D01*
X61500Y176490D01*
Y178081D01*
X60891Y179552D01*
X59766Y180677D01*
X58296Y181286D01*
D02*
G37*
G36*
Y144000D02*
X56704D01*
X55234Y143391D01*
X54109Y142266D01*
X53500Y140796D01*
Y139204D01*
X54109Y137734D01*
X55234Y136609D01*
X56704Y136000D01*
X58296D01*
X59766Y136609D01*
X60891Y137734D01*
X61500Y139204D01*
Y140796D01*
X60891Y142266D01*
X59766Y143391D01*
X58296Y144000D01*
D02*
G37*
G36*
X2296Y159000D02*
X704D01*
X-766Y158391D01*
X-1891Y157266D01*
X-2500Y155796D01*
Y154204D01*
X-1891Y152734D01*
X-766Y151609D01*
X704Y151000D01*
X2296D01*
X3766Y151609D01*
X4891Y152734D01*
X5500Y154204D01*
Y155796D01*
X4891Y157266D01*
X3766Y158391D01*
X2296Y159000D01*
D02*
G37*
G36*
X-56704Y196500D02*
X-58296D01*
X-59766Y195891D01*
X-60891Y194766D01*
X-61500Y193296D01*
Y191704D01*
X-60891Y190234D01*
X-60230Y189573D01*
X-59907Y188750D01*
X-60230Y187927D01*
X-60891Y187266D01*
X-61500Y185796D01*
Y184204D01*
X-60891Y182734D01*
X-59766Y181609D01*
X-58296Y181000D01*
X-56704D01*
X-55234Y181609D01*
X-54109Y182734D01*
X-53500Y184204D01*
Y185796D01*
X-54109Y187266D01*
X-54770Y187927D01*
X-55093Y188750D01*
X-54770Y189573D01*
X-54109Y190234D01*
X-53500Y191704D01*
Y193296D01*
X-54109Y194766D01*
X-55234Y195891D01*
X-56704Y196500D01*
D02*
G37*
G36*
X-99204Y187750D02*
X-100796D01*
X-102266Y187141D01*
X-103391Y186016D01*
X-104000Y184546D01*
Y182954D01*
X-103391Y181484D01*
X-102266Y180359D01*
X-100796Y179750D01*
X-99204D01*
X-97734Y180359D01*
X-96609Y181484D01*
X-96000Y182954D01*
Y184546D01*
X-96609Y186016D01*
X-97734Y187141D01*
X-99204Y187750D01*
D02*
G37*
G36*
X-56704Y179000D02*
X-58296D01*
X-59766Y178391D01*
X-60891Y177266D01*
X-61500Y175796D01*
Y174204D01*
X-60891Y172734D01*
X-60230Y172073D01*
X-59907Y171250D01*
X-60230Y170427D01*
X-60891Y169766D01*
X-61500Y168296D01*
Y166704D01*
X-60891Y165234D01*
X-59766Y164109D01*
X-58296Y163500D01*
X-56704D01*
X-55234Y164109D01*
X-54109Y165234D01*
X-53500Y166704D01*
Y168296D01*
X-54109Y169766D01*
X-54770Y170427D01*
X-55093Y171250D01*
X-54770Y172073D01*
X-54109Y172734D01*
X-53500Y174204D01*
Y175796D01*
X-54109Y177266D01*
X-55234Y178391D01*
X-56704Y179000D01*
D02*
G37*
G36*
X-86704Y176500D02*
X-88296D01*
X-89766Y175891D01*
X-90891Y174766D01*
X-91500Y173296D01*
Y171704D01*
X-90891Y170234D01*
X-90230Y169573D01*
X-89907Y168750D01*
X-90230Y167927D01*
X-90891Y167266D01*
X-91500Y165796D01*
Y164204D01*
X-90891Y162734D01*
X-89766Y161609D01*
X-88296Y161000D01*
X-86704D01*
X-85234Y161609D01*
X-84109Y162734D01*
X-83500Y164204D01*
Y165796D01*
X-84109Y167266D01*
X-84770Y167927D01*
X-85093Y168750D01*
X-84770Y169573D01*
X-84109Y170234D01*
X-83500Y171704D01*
Y173296D01*
X-84109Y174766D01*
X-85234Y175891D01*
X-86704Y176500D01*
D02*
G37*
G36*
X-35704Y159000D02*
X-37296D01*
X-38766Y158391D01*
X-39891Y157266D01*
X-40500Y155796D01*
Y154204D01*
X-39891Y152734D01*
X-38766Y151609D01*
X-37296Y151000D01*
X-35704D01*
X-34234Y151609D01*
X-33109Y152734D01*
X-32500Y154204D01*
Y155796D01*
X-33109Y157266D01*
X-34234Y158391D01*
X-35704Y159000D01*
D02*
G37*
G36*
X-114204Y156714D02*
X-115796D01*
X-117266Y156105D01*
X-118391Y154980D01*
X-119000Y153510D01*
Y151919D01*
X-118391Y150449D01*
X-117266Y149323D01*
X-115796Y148714D01*
X-114204D01*
X-112734Y149323D01*
X-111609Y150449D01*
X-111000Y151919D01*
Y153510D01*
X-111609Y154980D01*
X-112734Y156105D01*
X-114204Y156714D01*
D02*
G37*
G36*
X-136704Y154000D02*
X-138296D01*
X-139766Y153391D01*
X-140891Y152266D01*
X-141500Y150796D01*
Y149204D01*
X-140891Y147734D01*
X-139766Y146609D01*
X-138296Y146000D01*
X-136704D01*
X-135234Y146609D01*
X-134109Y147734D01*
X-133500Y149204D01*
Y150796D01*
X-134109Y152266D01*
X-135234Y153391D01*
X-136704Y154000D01*
D02*
G37*
%LPD*%
G36*
X231750Y-60850D02*
X168250D01*
Y-15350D01*
X231750D01*
Y-60850D01*
D02*
G37*
D12*
X0Y-33591D02*
X44048Y10457D01*
X30214Y5153D02*
Y17071D01*
X41032Y11706D02*
Y16962D01*
X-11704Y-32500D02*
X27198Y6403D01*
X44048Y10457D02*
Y18211D01*
X-10970Y-27500D02*
X24182Y7652D01*
X27198Y6403D02*
Y18320D01*
X-4861Y-34187D02*
X41032Y11706D01*
X-12439Y-37500D02*
X30214Y5153D01*
X24182Y7652D02*
Y19569D01*
X-66219Y-24484D02*
X-12219D01*
X-47500Y-32500D02*
X-11704D01*
X-64970Y-27500D02*
X-10970D01*
X-57500Y-37500D02*
X-12439D01*
X-4861Y-38361D02*
Y-34187D01*
X14209Y1943D02*
Y22153D01*
X0Y-42500D02*
Y-33591D01*
X-12219Y-24484D02*
X14209Y1943D01*
X-67468Y-21468D02*
X-13468D01*
X11193Y3193D02*
Y31164D01*
X-13468Y-21468D02*
X11193Y3193D01*
X-101016Y-29715D02*
X-95785Y-24484D01*
X-70484D02*
X-67468Y-21468D01*
X-70000Y-32500D02*
X-69970D01*
X-64970Y-27500D01*
X-94536Y-27500D02*
X-69235D01*
X-66219Y-24484D01*
X-95785Y-24484D02*
X-70484D01*
X-97567Y-30531D02*
X-94536Y-27500D01*
X-97567Y-34933D02*
Y-30531D01*
X-95000Y-37500D02*
X-62500D01*
X-97567Y-34933D02*
X-95000Y-37500D01*
X-62500D02*
X-59016Y-40984D01*
X-13751D01*
X-62500Y-32500D02*
X-57500Y-37500D01*
X-64000Y-41000D02*
X-61000Y-44000D01*
X-96516Y-41000D02*
X-64000D01*
X-15000Y-44000D02*
X-11500Y-47500D01*
X-101016Y-36500D02*
X-96516Y-41000D01*
X-61000Y-44000D02*
X-15000D01*
X-101016Y-61016D02*
Y-36500D01*
X-107500Y-67500D02*
X-101016Y-61016D01*
Y-36500D02*
Y-29715D01*
X-123016Y-64664D02*
Y-25500D01*
X-110016Y-12500D01*
X-46765Y82500D02*
X-2500D01*
X-61984Y101984D02*
X-57641Y97641D01*
X-63233Y98968D02*
X-46765Y82500D01*
X-109968Y98968D02*
X-63233D01*
X-108719Y101984D02*
X-61984D01*
X-106929Y105000D02*
X-57500D01*
X-57641Y97641D02*
X-47641D01*
X-110000Y-5000D02*
X-105016Y-9984D01*
Y-14571D02*
Y-9984D01*
X167785Y82214D02*
X185285D01*
X55249Y121984D02*
X128016D01*
X167785Y82214D01*
X-42214Y-172000D02*
X-25000Y-154786D01*
X-67484Y-174484D02*
X-65000Y-172000D01*
X-42214D01*
X-82500Y-177500D02*
X-61369D01*
X-136016Y-123984D02*
X-82500Y-177500D01*
X-81251Y-174484D02*
X-67484D01*
X62500Y-62500D02*
Y-57365D01*
X52500Y-55000D02*
X60135D01*
X62500Y-57365D01*
X-133000Y-122735D02*
X-81251Y-174484D01*
X-133000Y-79016D02*
X-120000Y-66016D01*
X-136016Y-77664D02*
X-123016Y-64664D01*
X-136016Y-123984D02*
Y-77664D01*
X-133000Y-122735D02*
Y-79016D01*
X-120000Y-29555D02*
X-105016Y-14571D01*
X-120000Y-66016D02*
Y-29555D01*
X50000Y-57500D02*
X52500Y-55000D01*
X50000Y-60735D02*
Y-57500D01*
X15735Y-95000D02*
X50000Y-60735D01*
X-7500Y-95000D02*
X15735D01*
X2500Y-112500D02*
X55000Y-60000D01*
X-45000Y-112500D02*
X2500D01*
X-62500Y-95000D02*
X-45000Y-112500D01*
X-87500Y-95000D02*
X-62500D01*
X-12809Y-41926D02*
X-9574D01*
X-13751Y-40984D02*
X-12809Y-41926D01*
X-11500Y-47500D02*
X-5000D01*
X-9574Y-41926D02*
X-9000Y-42500D01*
X-5000Y-47500D02*
X0Y-42500D01*
X-9000Y-42500D02*
X-4861Y-38361D01*
X-119234Y112500D02*
X-108719Y101984D01*
X-113357Y102357D02*
X-109968Y98968D01*
X-124571Y122642D02*
X-106929Y105000D01*
X-173000Y102429D02*
X-155429Y120000D01*
X-177500Y47500D02*
X-173000Y52000D01*
Y102429D01*
X-177500Y10500D02*
Y47500D01*
X-165000Y-25000D02*
X-158000Y-32000D01*
X-165000Y-25000D02*
Y-2000D01*
X-177500Y10500D02*
X-165000Y-2000D01*
X-160000Y-50000D02*
Y-49328D01*
X-158000Y-47328D01*
Y-32000D01*
X-155429Y120000D02*
Y124571D01*
X20000Y230000D02*
X77836D01*
X88000Y219836D01*
X15516Y226984D02*
X76587D01*
X84984Y218587D01*
X12500Y237500D02*
X20000Y230000D01*
X5000Y237500D02*
X15516Y226984D01*
X88000Y197000D02*
X97500Y187500D01*
X88000Y197000D02*
Y219836D01*
X84984Y195751D02*
X96251Y184484D01*
X84984Y195751D02*
Y218587D01*
X96251Y184484D02*
X111251D01*
X160000Y135735D01*
Y130000D02*
Y135735D01*
X97500Y187500D02*
X112500D01*
X165000Y135000D01*
X25000Y20387D02*
Y84694D01*
X27198Y18320D02*
X28016Y19138D01*
X19847Y89847D02*
X25000Y84694D01*
X14209Y22153D02*
X20000Y27944D01*
Y60000D01*
X12500Y32471D02*
Y60000D01*
X31032Y17889D02*
Y81767D01*
X30214Y17071D02*
X31032Y17889D01*
X24182Y19569D02*
X25000Y20387D01*
X28016Y19138D02*
Y83016D01*
X11193Y31164D02*
X12500Y32471D01*
X-33974Y133974D02*
X-22500Y122500D01*
X-121474Y133974D02*
X-33974D01*
X-22500Y122500D02*
X-15172D01*
X-130000Y142500D02*
X-121474Y133974D01*
X2000Y87000D02*
Y92000D01*
X2500Y92500D01*
X-2500Y82500D02*
X2000Y87000D01*
X49032Y115767D02*
X55249Y121984D01*
X49032Y97032D02*
Y115767D01*
X54000Y125000D02*
X169500D01*
X46016Y98281D02*
Y117016D01*
X54000Y125000D01*
X49000Y97000D02*
X49032Y97032D01*
X42968Y93703D02*
Y99499D01*
X39952Y94952D02*
Y100748D01*
X45984Y98249D02*
X46016Y98281D01*
X36936Y101997D02*
X36968Y102029D01*
X36936Y99436D02*
Y101997D01*
X43000Y99530D02*
Y209828D01*
X39984Y100780D02*
Y209720D01*
X36968Y102029D02*
Y200032D01*
X42968Y99499D02*
X43000Y99530D01*
X39952Y100748D02*
X39984Y100780D01*
X45984Y92453D02*
Y98249D01*
X49000Y91204D02*
Y97000D01*
X31032Y81767D02*
X42968Y93703D01*
X34048Y80518D02*
X45984Y92453D01*
X37064Y79268D02*
X49000Y91204D01*
X28016Y83016D02*
X39952Y94952D01*
X30668Y93168D02*
X36936Y99436D01*
X37064Y25196D02*
Y79268D01*
Y25196D02*
X44048Y18211D01*
X45000Y211828D02*
Y212500D01*
X29952Y93168D02*
X30668D01*
X43000Y209828D02*
X45000Y211828D01*
X34048Y23946D02*
X41032Y16962D01*
X34048Y23946D02*
Y80518D01*
X-83966Y218000D02*
X-23000D01*
X-7500Y202500D02*
X34500D01*
X-23000Y218000D02*
X-7500Y202500D01*
X34500D02*
X36968Y200032D01*
X38016Y211688D02*
X39984Y209720D01*
X38016Y211688D02*
Y212500D01*
X-47641Y97641D02*
X-42500Y92500D01*
X-137500Y142500D02*
X-130000D01*
X92500Y130000D02*
Y172500D01*
X87500Y177500D02*
X92500Y172500D01*
X-85934Y216032D02*
X-83966Y218000D01*
X-86638Y216032D02*
X-85934D01*
X-101000Y221500D02*
X75000D01*
X-172000Y150500D02*
X-101000Y221500D01*
X-172000Y118473D02*
Y150500D01*
X-155429Y124571D02*
X-137500Y142500D01*
X-132214Y112500D02*
X-119234D01*
X-139857Y102357D02*
X-113357D01*
D13*
X127500Y115000D02*
X162500Y80000D01*
X-152500Y-100000D02*
Y7500D01*
X-180000Y-127500D02*
X-152500Y-100000D01*
X-42500Y-107500D02*
X-20000Y-85000D01*
X-10000D01*
X-65000D02*
X-42500Y-107500D01*
X-87500Y-85000D02*
X-65000D01*
X-100000D02*
X-87500D01*
X-122500Y-107500D02*
X-100000Y-85000D01*
X57500Y115000D02*
X127500D01*
X-10000Y177500D02*
X7500D01*
X-17500Y170000D02*
X-10000Y177500D01*
X7500D02*
X12500Y182500D01*
X-135000Y52500D02*
X-2500D01*
X5000Y60000D01*
D71*
X105000Y204500D02*
D03*
X110000Y200000D02*
D03*
X100000D02*
D03*
X-72500Y-9000D02*
D03*
Y-2000D02*
D03*
Y12000D02*
D03*
Y19000D02*
D03*
X-58500Y5000D02*
D03*
X-65500D02*
D03*
X-72500D02*
D03*
X-79500D02*
D03*
X-86500D02*
D03*
X-145000Y40000D02*
D03*
X-135000D02*
D03*
X-145000Y30000D02*
D03*
X-135000D02*
D03*
X-145000Y0D02*
D03*
X-135000D02*
D03*
X-145000Y-10000D02*
D03*
X-135000D02*
D03*
X0Y0D02*
D03*
X-92465Y-32500D02*
D03*
X-55000D02*
D03*
X-62500D02*
D03*
X-47500D02*
D03*
X-97000Y-19000D02*
D03*
X-85000Y-32500D02*
D03*
X-28000Y237000D02*
D03*
X-38130Y236059D02*
D03*
X-110016Y-12500D02*
D03*
X-57500Y112500D02*
D03*
Y105000D02*
D03*
X-104000Y40000D02*
D03*
X-50000Y120000D02*
D03*
X-110000Y-5000D02*
D03*
X162500Y80000D02*
D03*
X170000Y110000D02*
D03*
X-115000Y163000D02*
D03*
X-36000Y145000D02*
D03*
X-10000Y44000D02*
D03*
X157000Y181000D02*
D03*
X7500Y-90000D02*
D03*
X-160000Y-57500D02*
D03*
X-182000Y72000D02*
D03*
X-217000D02*
D03*
X-220000Y-74000D02*
D03*
X-139750Y-174250D02*
D03*
X74750D02*
D03*
X90250D02*
D03*
X139750D02*
D03*
X135000Y-117000D02*
D03*
X134000Y9000D02*
D03*
X121000Y24000D02*
D03*
X113000Y-1000D02*
D03*
X-160000Y-90000D02*
D03*
X-62500Y-177500D02*
D03*
X-25000Y-154786D02*
D03*
X32500Y-142500D02*
D03*
Y-157500D02*
D03*
X-117500Y-7500D02*
D03*
X-180000Y-127500D02*
D03*
X-186350Y-6400D02*
D03*
Y-44500D02*
D03*
Y-19100D02*
D03*
Y6300D02*
D03*
Y19000D02*
D03*
Y31700D02*
D03*
X-159984Y-80000D02*
D03*
X10000Y-65000D02*
D03*
X-23500Y-77250D02*
D03*
X-25000Y-105000D02*
D03*
X-105000D02*
D03*
X-58750Y-142250D02*
D03*
X-85000Y-156500D02*
D03*
X107500Y-100000D02*
D03*
X-6250Y-142250D02*
D03*
X6250D02*
D03*
X-83750D02*
D03*
X-71250D02*
D03*
X-160000Y-72500D02*
D03*
X-10000Y-85000D02*
D03*
X-87500D02*
D03*
X-107500Y-67500D02*
D03*
X-70000Y-32500D02*
D03*
X-77500D02*
D03*
X-9000Y-42500D02*
D03*
X-42500Y-95000D02*
D03*
Y-107500D02*
D03*
X-7500Y-95000D02*
D03*
X-87500D02*
D03*
X-122500Y-107500D02*
D03*
Y-95000D02*
D03*
X12500Y195000D02*
D03*
X-17500Y200000D02*
D03*
X25000Y137500D02*
D03*
Y167500D02*
D03*
X89000Y26000D02*
D03*
X95000Y2500D02*
D03*
X90000Y-5000D02*
D03*
X143968Y71000D02*
D03*
X-182500Y87467D02*
D03*
X20000Y97500D02*
D03*
X-179020Y138473D02*
D03*
X-160000Y32500D02*
D03*
X-191322Y95380D02*
D03*
X-115000Y152714D02*
D03*
X-62500Y138974D02*
D03*
X-159984Y-7500D02*
D03*
Y-15000D02*
D03*
X186350Y-57200D02*
D03*
X213650D02*
D03*
Y-44500D02*
D03*
X186350D02*
D03*
Y-31800D02*
D03*
X213650D02*
D03*
Y-19100D02*
D03*
X186350D02*
D03*
Y-6400D02*
D03*
X213650D02*
D03*
Y6300D02*
D03*
X186350D02*
D03*
Y19000D02*
D03*
X213650D02*
D03*
Y31700D02*
D03*
X186350D02*
D03*
Y44400D02*
D03*
X213650D02*
D03*
Y57100D02*
D03*
X186350D02*
D03*
X-213650Y-57200D02*
D03*
X-186350D02*
D03*
X-213650Y-44500D02*
D03*
Y-31800D02*
D03*
X-186350D02*
D03*
X-213650Y-19100D02*
D03*
Y-6400D02*
D03*
Y6300D02*
D03*
Y19000D02*
D03*
Y31700D02*
D03*
Y44400D02*
D03*
X-186350D02*
D03*
Y57100D02*
D03*
X-213650D02*
D03*
X160000Y130000D02*
D03*
X165000Y135000D02*
D03*
X5000Y237500D02*
D03*
X12500D02*
D03*
X-165429Y117071D02*
D03*
X-155429Y120000D02*
D03*
X-160000Y-50000D02*
D03*
X-125000Y12500D02*
D03*
X-135000D02*
D03*
X22468Y-19968D02*
D03*
X19209Y20081D02*
D03*
X35214Y15000D02*
D03*
X55080Y-7500D02*
D03*
X50016Y-37500D02*
D03*
X55000Y0D02*
D03*
X-32500D02*
D03*
X12500Y97500D02*
D03*
X-49835Y92641D02*
D03*
X-67500Y82500D02*
D03*
X-62500Y90000D02*
D03*
X-120016Y30000D02*
D03*
Y40000D02*
D03*
X-15000Y122500D02*
D03*
X2500Y92500D02*
D03*
X-5000D02*
D03*
X-12500D02*
D03*
X-160000Y17500D02*
D03*
X185285Y82214D02*
D03*
X169500Y125000D02*
D03*
X165000Y142750D02*
D03*
X57500Y212500D02*
D03*
X45000Y237500D02*
D03*
X12500Y60000D02*
D03*
X19847Y89847D02*
D03*
X29952Y93168D02*
D03*
X85000Y60000D02*
D03*
X5000D02*
D03*
X-5000Y207500D02*
D03*
X32500Y208000D02*
D03*
X2500Y207500D02*
D03*
X38016Y212500D02*
D03*
X25000Y207500D02*
D03*
X17500D02*
D03*
X10000D02*
D03*
X20000Y60000D02*
D03*
X-62500Y147500D02*
D03*
X-42500Y92500D02*
D03*
X-110000Y32500D02*
D03*
X-57500Y120000D02*
D03*
Y167500D02*
D03*
Y175000D02*
D03*
X-44976Y235000D02*
D03*
X87500Y177500D02*
D03*
X-57500Y192500D02*
D03*
X45000Y212500D02*
D03*
X-57500Y207500D02*
D03*
X-86638Y216032D02*
D03*
X-47500Y207500D02*
D03*
X100000Y192500D02*
D03*
X95000Y215000D02*
D03*
X92500Y130000D02*
D03*
X87500Y140000D02*
D03*
Y170000D02*
D03*
Y162500D02*
D03*
Y155000D02*
D03*
X5000Y40000D02*
D03*
X-27500Y92500D02*
D03*
X-20000D02*
D03*
X-90000Y200000D02*
D03*
Y192500D02*
D03*
X75000Y221500D02*
D03*
X-135000Y52500D02*
D03*
X-160000Y25000D02*
D03*
X-20000Y130000D02*
D03*
X-87500Y165000D02*
D03*
X-17500Y170000D02*
D03*
X1500Y185000D02*
D03*
Y170000D02*
D03*
Y155000D02*
D03*
X-36500D02*
D03*
X-57500Y185000D02*
D03*
X-90000Y117500D02*
D03*
Y110000D02*
D03*
X-110016Y2500D02*
D03*
X-172762Y160000D02*
D03*
X-165429Y125000D02*
D03*
X-87500Y172500D02*
D03*
X-153678Y159620D02*
D03*
X-137500Y150000D02*
D03*
X-172000Y118473D02*
D03*
X110000Y45000D02*
D03*
X118750Y81000D02*
D03*
X131250Y59000D02*
D03*
X118750D02*
D03*
X112000Y71000D02*
D03*
X55000Y-60000D02*
D03*
X62500Y-62500D02*
D03*
X12500Y182500D02*
D03*
X-120000Y22500D02*
D03*
X-160000Y-22500D02*
D03*
X82500Y-87500D02*
D03*
X62500D02*
D03*
X-9000Y-57500D02*
D03*
X-15000Y27500D02*
D03*
X35214Y-15000D02*
D03*
X-99786Y215000D02*
D03*
X-100000Y183750D02*
D03*
X148000Y180500D02*
D03*
Y189500D02*
D03*
X178000Y150500D02*
D03*
Y159500D02*
D03*
X213000Y90500D02*
D03*
Y99500D02*
D03*
X198000Y120500D02*
D03*
Y129500D02*
D03*
X57500Y177286D02*
D03*
Y190000D02*
D03*
Y140000D02*
D03*
Y115000D02*
D03*
Y92500D02*
D03*
X-180000Y127500D02*
D03*
X-117500Y0D02*
D03*
X62500Y-97500D02*
D03*
X-90000Y45000D02*
D03*
X-75000D02*
D03*
X-32500Y-7500D02*
D03*
D77*
X165786Y76715D02*
X187564D01*
X162500Y80000D02*
X165786Y76715D01*
X177000Y99000D02*
Y133000D01*
Y99000D02*
X190786Y85215D01*
X167633Y142367D02*
X177000Y133000D01*
X165000Y142750D02*
X165383Y142367D01*
X167633D01*
X-62500Y138974D02*
X-28974D01*
X-62500Y89743D02*
X-60000Y87243D01*
X-62500Y89743D02*
Y90000D01*
X-60000Y72500D02*
Y87243D01*
X-35458Y130458D02*
X-12000Y107000D01*
X11000D01*
X-134541Y130458D02*
X-35458D01*
X-28974Y138974D02*
X-20000Y130000D01*
X-134714Y130285D02*
X-134541Y130458D01*
X-57500Y207500D02*
X-20383Y170383D01*
X187564Y76715D02*
X190786Y79936D01*
Y85215D01*
X-92286Y207500D02*
X-57500D01*
X-99786Y215000D02*
X-92286Y207500D01*
D78*
X200000Y-73050D02*
D03*
Y73050D02*
D03*
X-200000Y-73050D02*
D03*
Y73050D02*
D03*
X200000Y-73050D02*
D03*
Y73050D02*
D03*
X-200000Y-73050D02*
D03*
Y73050D02*
D03*
D79*
X-155143Y82072D02*
D03*
X-165286Y89715D02*
D03*
X-147500Y92214D02*
D03*
X-157643Y99857D02*
D03*
X-139857Y102357D02*
D03*
X-150000Y110000D02*
D03*
X-132214Y112500D02*
D03*
X-142357Y120143D02*
D03*
X-124571Y122642D02*
D03*
D80*
X-134714Y130285D02*
D03*
D81*
X-10000Y-167500D02*
D03*
X-70000D02*
D03*
X70000Y30000D02*
D03*
Y-40000D02*
D03*
D82*
X11000Y83000D02*
Y107000D01*
Y121500D01*
X-17500Y150000D02*
Y170000D01*
Y150000D02*
X11000Y121500D01*
D83*
X-164142Y7500D02*
X-152500D01*
X-170000Y13358D02*
Y45000D01*
Y13358D02*
X-164142Y7500D01*
X-170000Y45000D02*
X-142500Y72500D01*
X-152500Y7500D02*
X-147500Y12500D01*
X-135000D01*
X-125000D01*
X-60000Y72500D02*
X500D01*
X-142500D02*
X-60000D01*
X500D02*
X11000Y83000D01*
M02*
