G04*
G04 #@! TF.GenerationSoftware,Altium Limited,Altium Designer,24.4.1 (13)*
G04*
G04 Layer_Color=128*
%FSLAX44Y44*%
%MOMM*%
G71*
G04*
G04 #@! TF.SameCoordinates,36E66750-E4A1-4D4F-82B0-1BBA9B0B1F2C*
G04*
G04*
G04 #@! TF.FilePolarity,Positive*
G04*
G01*
G75*
%ADD24R,0.6725X0.7154*%
%ADD28R,0.7154X0.6725*%
G04:AMPARAMS|DCode=35|XSize=0.95mm|YSize=0.8mm|CornerRadius=0.1mm|HoleSize=0mm|Usage=FLASHONLY|Rotation=90.000|XOffset=0mm|YOffset=0mm|HoleType=Round|Shape=RoundedRectangle|*
%AMROUNDEDRECTD35*
21,1,0.9500,0.6000,0,0,90.0*
21,1,0.7500,0.8000,0,0,90.0*
1,1,0.2000,0.3000,0.3750*
1,1,0.2000,0.3000,-0.3750*
1,1,0.2000,-0.3000,-0.3750*
1,1,0.2000,-0.3000,0.3750*
%
%ADD35ROUNDEDRECTD35*%
G04:AMPARAMS|DCode=37|XSize=0.95mm|YSize=0.8mm|CornerRadius=0.1mm|HoleSize=0mm|Usage=FLASHONLY|Rotation=233.000|XOffset=0mm|YOffset=0mm|HoleType=Round|Shape=RoundedRectangle|*
%AMROUNDEDRECTD37*
21,1,0.9500,0.6000,0,0,233.0*
21,1,0.7500,0.8000,0,0,233.0*
1,1,0.2000,-0.4653,-0.1189*
1,1,0.2000,-0.0139,0.4800*
1,1,0.2000,0.4653,0.1189*
1,1,0.2000,0.0139,-0.4800*
%
%ADD37ROUNDEDRECTD37*%
%ADD85R,1.0000X0.7000*%
G04:AMPARAMS|DCode=86|XSize=0.9779mm|YSize=0.3048mm|CornerRadius=0mm|HoleSize=0mm|Usage=FLASHONLY|Rotation=233.000|XOffset=0mm|YOffset=0mm|HoleType=Round|Shape=Rectangle|*
%AMROTATEDRECTD86*
4,1,4,0.1725,0.4822,0.4160,0.2988,-0.1725,-0.4822,-0.4160,-0.2988,0.1725,0.4822,0.0*
%
%ADD86ROTATEDRECTD86*%

%ADD87R,0.8000X1.5000*%
%ADD88R,1.4500X2.0000*%
G04:AMPARAMS|DCode=89|XSize=0.95mm|YSize=0.8mm|CornerRadius=0.1mm|HoleSize=0mm|Usage=FLASHONLY|Rotation=180.000|XOffset=0mm|YOffset=0mm|HoleType=Round|Shape=RoundedRectangle|*
%AMROUNDEDRECTD89*
21,1,0.9500,0.6000,0,0,180.0*
21,1,0.7500,0.8000,0,0,180.0*
1,1,0.2000,-0.3750,0.3000*
1,1,0.2000,0.3750,0.3000*
1,1,0.2000,0.3750,-0.3000*
1,1,0.2000,-0.3750,-0.3000*
%
%ADD89ROUNDEDRECTD89*%
%ADD90R,2.0000X2.0000*%
%ADD91R,0.7000X0.9000*%
%ADD92R,0.9000X0.7000*%
G04:AMPARAMS|DCode=93|XSize=0.7154mm|YSize=0.6725mm|CornerRadius=0mm|HoleSize=0mm|Usage=FLASHONLY|Rotation=127.000|XOffset=0mm|YOffset=0mm|HoleType=Round|Shape=Rectangle|*
%AMROTATEDRECTD93*
4,1,4,0.4838,-0.0833,-0.0533,-0.4880,-0.4838,0.0833,0.0533,0.4880,0.4838,-0.0833,0.0*
%
%ADD93ROTATEDRECTD93*%

%ADD94R,0.8000X0.4000*%
%ADD95R,0.4000X0.5000*%
%ADD96P,1.4142X4X98.0*%
G04:AMPARAMS|DCode=97|XSize=0.7154mm|YSize=0.6725mm|CornerRadius=0mm|HoleSize=0mm|Usage=FLASHONLY|Rotation=143.000|XOffset=0mm|YOffset=0mm|HoleType=Round|Shape=Rectangle|*
%AMROTATEDRECTD97*
4,1,4,0.4880,0.0533,0.0833,-0.4838,-0.4880,-0.0533,-0.0833,0.4838,0.4880,0.0533,0.0*
%
%ADD97ROTATEDRECTD97*%

%ADD98R,0.7000X1.3000*%
%ADD99R,1.0121X1.2084*%
%ADD100R,0.4800X0.4000*%
%ADD101R,2.2200X0.7400*%
D24*
X-150000Y29786D02*
D03*
Y20214D02*
D03*
X7500Y10994D02*
D03*
Y1423D02*
D03*
X-7500Y10994D02*
D03*
Y1423D02*
D03*
X-115000Y162286D02*
D03*
Y152714D02*
D03*
X57500Y222286D02*
D03*
Y212714D02*
D03*
Y199786D02*
D03*
Y190214D02*
D03*
X42500Y199786D02*
D03*
Y190214D02*
D03*
X57500Y167714D02*
D03*
Y177286D02*
D03*
X42500Y167714D02*
D03*
Y177286D02*
D03*
Y149786D02*
D03*
Y140214D02*
D03*
X57500Y149786D02*
D03*
Y140214D02*
D03*
X42500Y124786D02*
D03*
Y115214D02*
D03*
X57500Y124786D02*
D03*
Y115214D02*
D03*
Y102286D02*
D03*
Y92714D02*
D03*
X-60000Y217286D02*
D03*
Y207714D02*
D03*
X-47500Y217286D02*
D03*
Y207714D02*
D03*
X-32500Y217286D02*
D03*
Y207714D02*
D03*
X-47500Y112286D02*
D03*
Y102714D02*
D03*
X-32496Y112283D02*
D03*
Y102711D02*
D03*
X-100000Y127714D02*
D03*
Y137286D02*
D03*
X-32500Y2714D02*
D03*
Y12286D02*
D03*
X-47500Y2714D02*
D03*
Y12286D02*
D03*
Y-12714D02*
D03*
Y-22286D02*
D03*
X-32500Y-12714D02*
D03*
Y-22286D02*
D03*
X-25000Y-145214D02*
D03*
Y-154786D02*
D03*
X-42500Y-107714D02*
D03*
Y-117286D02*
D03*
X-122500Y-107714D02*
D03*
Y-117286D02*
D03*
D28*
X-132286Y32500D02*
D03*
X-122714D02*
D03*
X95214Y212500D02*
D03*
X104786D02*
D03*
X-99786Y215000D02*
D03*
X-90214D02*
D03*
X-49786Y80000D02*
D03*
X-40214D02*
D03*
X5214Y72500D02*
D03*
X14786D02*
D03*
X-40214Y65000D02*
D03*
X-49786D02*
D03*
X-99786Y15000D02*
D03*
X-90214D02*
D03*
X-99786Y0D02*
D03*
X-90214D02*
D03*
X-90214Y45000D02*
D03*
X-99786D02*
D03*
X-90214Y30000D02*
D03*
X-99786D02*
D03*
X-74786D02*
D03*
X-65214D02*
D03*
X-74786Y45000D02*
D03*
X-65214D02*
D03*
X-42714Y-170000D02*
D03*
X-52286D02*
D03*
D35*
X-106500Y-22500D02*
D03*
X-93500D02*
D03*
X-159000Y42500D02*
D03*
X-146000D02*
D03*
X126000Y185000D02*
D03*
X139000D02*
D03*
X-121000Y62500D02*
D03*
X-134000D02*
D03*
X98500Y155000D02*
D03*
X111500D02*
D03*
X-146000Y57500D02*
D03*
X-159000D02*
D03*
X-63500Y65000D02*
D03*
X-76500D02*
D03*
X1500Y155000D02*
D03*
X-11500D02*
D03*
X-36500D02*
D03*
X-23500D02*
D03*
X-36500Y185000D02*
D03*
X-23500D02*
D03*
X-36500Y170000D02*
D03*
X-23500D02*
D03*
X1500Y185000D02*
D03*
X-11500D02*
D03*
X1500Y170000D02*
D03*
X-11500D02*
D03*
X-9000Y-72500D02*
D03*
X4000D02*
D03*
X4000Y-57500D02*
D03*
X-9000D02*
D03*
X126000Y155000D02*
D03*
X139000D02*
D03*
X139000Y140000D02*
D03*
X126000D02*
D03*
X126500Y120000D02*
D03*
X113500D02*
D03*
X101500D02*
D03*
X88500D02*
D03*
X143500D02*
D03*
X156500D02*
D03*
X98500Y170000D02*
D03*
X111500D02*
D03*
X-23500Y-42500D02*
D03*
X-36500D02*
D03*
X-106500D02*
D03*
X-93500D02*
D03*
X139000Y170000D02*
D03*
X126000D02*
D03*
X166500D02*
D03*
X153500D02*
D03*
X166500Y155000D02*
D03*
X153500D02*
D03*
X186500Y140000D02*
D03*
X173500D02*
D03*
X201500Y95000D02*
D03*
X188500D02*
D03*
X186500Y125000D02*
D03*
X173500D02*
D03*
X201500Y110000D02*
D03*
X188500D02*
D03*
X4000Y-42500D02*
D03*
X-9000D02*
D03*
X-106500Y-57500D02*
D03*
X-93500D02*
D03*
X-23500Y-57500D02*
D03*
X-36500D02*
D03*
X-23500Y-72500D02*
D03*
X-36500D02*
D03*
X-93500D02*
D03*
X-106500D02*
D03*
X-134000D02*
D03*
X-121000D02*
D03*
X-21500Y72500D02*
D03*
X-8500D02*
D03*
X-134000Y-42500D02*
D03*
X-121000D02*
D03*
X-121000Y-57500D02*
D03*
X-134000D02*
D03*
X-121000Y-27500D02*
D03*
X-134000D02*
D03*
X-134000Y2500D02*
D03*
X-121000D02*
D03*
X-134000Y-12500D02*
D03*
X-121000D02*
D03*
D37*
X-212691Y111412D02*
D03*
X-202309Y103588D02*
D03*
D85*
X-70000Y-141500D02*
D03*
Y-158500D02*
D03*
X-10000D02*
D03*
Y-141500D02*
D03*
D86*
X-177696Y148853D02*
D03*
X-173702Y145843D02*
D03*
X-169708Y142833D02*
D03*
X-165714Y139823D02*
D03*
X-161719Y136813D02*
D03*
X-157725Y133804D02*
D03*
X-153731Y130794D02*
D03*
X-172304Y106147D02*
D03*
X-176298Y109157D02*
D03*
X-180292Y112167D02*
D03*
X-184286Y115177D02*
D03*
X-188281Y118187D02*
D03*
X-192275Y121196D02*
D03*
X-196269Y124206D02*
D03*
D87*
X134950Y-20500D02*
D03*
X123950D02*
D03*
X112950D02*
D03*
X101950D02*
D03*
X90950D02*
D03*
X79950D02*
D03*
X68950D02*
D03*
X57950D02*
D03*
D88*
X21250Y-46500D02*
D03*
X158750D02*
D03*
X21250Y36500D02*
D03*
X158750D02*
D03*
D89*
X92500Y-86000D02*
D03*
Y-99000D02*
D03*
X77500Y-99000D02*
D03*
Y-86000D02*
D03*
X75000Y133500D02*
D03*
Y146500D02*
D03*
Y158500D02*
D03*
Y171500D02*
D03*
X7500Y-26500D02*
D03*
Y-13500D02*
D03*
X-7500Y-13500D02*
D03*
Y-26500D02*
D03*
X170000Y88500D02*
D03*
Y101500D02*
D03*
X75000Y196500D02*
D03*
Y183500D02*
D03*
Y208500D02*
D03*
Y221500D02*
D03*
X-100000Y151000D02*
D03*
Y164000D02*
D03*
X-130000Y164000D02*
D03*
Y151000D02*
D03*
X-115000Y201500D02*
D03*
Y188500D02*
D03*
X-100000Y201500D02*
D03*
Y188500D02*
D03*
Y-143500D02*
D03*
Y-156500D02*
D03*
X-57500Y-56500D02*
D03*
Y-43500D02*
D03*
X-77500Y-56500D02*
D03*
Y-43500D02*
D03*
X35000Y-156500D02*
D03*
Y-143500D02*
D03*
X-85000Y-156500D02*
D03*
Y-143500D02*
D03*
X50000Y-143500D02*
D03*
Y-156500D02*
D03*
X-157500Y-6500D02*
D03*
Y6500D02*
D03*
X62500Y-99000D02*
D03*
Y-86000D02*
D03*
X20000Y-156500D02*
D03*
Y-143500D02*
D03*
X5000Y-143500D02*
D03*
Y-156500D02*
D03*
X-40000Y-156500D02*
D03*
Y-143500D02*
D03*
X-55000Y-143500D02*
D03*
Y-156500D02*
D03*
D90*
X125000Y95000D02*
D03*
X85000D02*
D03*
D91*
X143500Y104500D02*
D03*
X156500D02*
D03*
X150000Y85500D02*
D03*
D92*
X90500Y186000D02*
D03*
Y199000D02*
D03*
X109500Y192500D02*
D03*
D93*
X-179620Y-126322D02*
D03*
X-185380Y-118678D02*
D03*
D94*
X-58000Y-68500D02*
D03*
Y-75000D02*
D03*
Y-81500D02*
D03*
X-77000D02*
D03*
Y-75000D02*
D03*
Y-68500D02*
D03*
D95*
X21000Y182500D02*
D03*
X29000D02*
D03*
D96*
X-132916Y77812D02*
D03*
X-122084Y92188D02*
D03*
D97*
X-161322Y165380D02*
D03*
X-153678Y159620D02*
D03*
X-183678Y89620D02*
D03*
X-191322Y95380D02*
D03*
D98*
X-24500Y57000D02*
D03*
X-15000D02*
D03*
X-5500D02*
D03*
Y33000D02*
D03*
X-24500D02*
D03*
D99*
X-45000Y45519D02*
D03*
Y29481D02*
D03*
D100*
X-145900Y-27500D02*
D03*
X-159100D02*
D03*
D101*
X213650Y-57150D02*
D03*
Y-44450D02*
D03*
Y-31750D02*
D03*
Y-19050D02*
D03*
Y-6350D02*
D03*
Y6350D02*
D03*
Y19050D02*
D03*
Y31750D02*
D03*
Y44450D02*
D03*
Y57150D02*
D03*
X186350Y-57150D02*
D03*
Y-44450D02*
D03*
Y-31750D02*
D03*
Y-19050D02*
D03*
Y-6350D02*
D03*
Y6350D02*
D03*
Y19050D02*
D03*
Y31750D02*
D03*
Y44450D02*
D03*
Y57150D02*
D03*
X-186350Y-57150D02*
D03*
Y-44450D02*
D03*
Y-31750D02*
D03*
Y-19050D02*
D03*
Y-6350D02*
D03*
Y6350D02*
D03*
Y19050D02*
D03*
Y31750D02*
D03*
Y44450D02*
D03*
Y57150D02*
D03*
X-213650Y-57150D02*
D03*
Y-44450D02*
D03*
Y-31750D02*
D03*
Y-19050D02*
D03*
Y-6350D02*
D03*
Y6350D02*
D03*
Y19050D02*
D03*
Y31750D02*
D03*
Y44450D02*
D03*
Y57150D02*
D03*
M02*
