G04*
G04 #@! TF.GenerationSoftware,Altium Limited,Altium Designer,24.4.1 (13)*
G04*
G04 Layer_Color=32896*
%FSLAX44Y44*%
%MOMM*%
G71*
G04*
G04 #@! TF.SameCoordinates,36E66750-E4A1-4D4F-82B0-1BBA9B0B1F2C*
G04*
G04*
G04 #@! TF.FilePolarity,Positive*
G04*
G01*
G75*
%ADD10C,0.2500*%
%ADD11C,0.1000*%
%ADD12C,0.2000*%
%ADD14C,0.1500*%
%ADD111C,0.1524*%
%ADD112C,0.0762*%
%ADD113R,0.7778X2.6000*%
G36*
X-186285Y107380D02*
X-187813Y105351D01*
X-184771Y103058D01*
X-183242Y105087D01*
X-186285Y107380D01*
D02*
G37*
D10*
X59200Y-78000D02*
G03*
X59200Y-78000I-1250J0D01*
G01*
X70750Y95000D02*
G03*
X70750Y95000I-1250J0D01*
G01*
X135750Y104500D02*
G03*
X135750Y104500I-1250J0D01*
G01*
X91750Y177000D02*
G03*
X91750Y177000I-1250J0D01*
G01*
X-47000Y-68500D02*
G03*
X-47000Y-68500I-1250J0D01*
G01*
X-32250Y57000D02*
G03*
X-32250Y57000I-1250J0D01*
G01*
D11*
X-159000Y-33500D02*
G03*
X-159000Y-33500I-500J0D01*
G01*
D12*
X170250Y57150D02*
G03*
X170250Y57150I-1000J0D01*
G01*
X-229750D02*
G03*
X-229750Y57150I-1000J0D01*
G01*
X-102000Y-15500D02*
X-98000D01*
X-102000Y-29500D02*
X-98000D01*
X-75250Y-151250D02*
Y-148750D01*
X-64750Y-151250D02*
Y-148750D01*
X-154500Y49500D02*
X-150500D01*
X-154500Y35500D02*
X-150500D01*
X130500Y192000D02*
X134500D01*
X130500Y178000D02*
X134500D01*
X22000Y50500D02*
Y73000D01*
Y-72000D02*
X158000D01*
X22000Y73000D02*
X158000D01*
X158000Y-32500D02*
Y22500D01*
X22000Y-72000D02*
Y-60500D01*
X158000Y-72000D02*
Y-60500D01*
X22000Y-32500D02*
Y22500D01*
X158000Y50500D02*
Y73000D01*
X-129500Y55500D02*
X-125500D01*
X-129500Y69500D02*
X-125500D01*
X103000Y162000D02*
X107000D01*
X103000Y148000D02*
X107000D01*
X-154500Y50500D02*
X-150500D01*
X-154500Y64500D02*
X-150500D01*
X-72000Y58000D02*
X-68000D01*
X-72000Y72000D02*
X-68000D01*
X-142638Y16638D02*
Y33362D01*
X-157362Y16638D02*
Y33362D01*
X-135862Y39862D02*
X-119138D01*
X-135862Y25138D02*
X-119138D01*
X14862Y-2154D02*
Y14571D01*
X138Y-2154D02*
Y14571D01*
X-138Y-2154D02*
Y14571D01*
X-14862Y-2154D02*
Y14571D01*
X99500Y-94500D02*
Y-90500D01*
X85500Y-94500D02*
Y-90500D01*
X70500Y-94500D02*
Y-90500D01*
X84500Y-94500D02*
Y-90500D01*
X-7000Y148000D02*
X-3000D01*
X-7000Y162000D02*
X-3000D01*
X-32000D02*
X-28000D01*
X-32000Y148000D02*
X-28000D01*
X-32000Y192000D02*
X-28000D01*
X-32000Y178000D02*
X-28000D01*
X-32000Y177000D02*
X-28000D01*
X-32000Y163000D02*
X-28000D01*
X-7000Y178000D02*
X-3000D01*
X-7000Y192000D02*
X-3000D01*
X-7000Y163000D02*
X-3000D01*
X-7000Y177000D02*
X-3000D01*
X68000Y138000D02*
Y142000D01*
X82000Y138000D02*
Y142000D01*
X68000Y163000D02*
Y167000D01*
X82000Y163000D02*
Y167000D01*
X-4500Y-65500D02*
X-500D01*
X-4500Y-79500D02*
X-500D01*
X-4500Y-64500D02*
X-500D01*
X-4500Y-50500D02*
X-500D01*
X500Y-22000D02*
Y-18000D01*
X14500Y-22000D02*
Y-18000D01*
X-500Y-22000D02*
Y-18000D01*
X-14500Y-22000D02*
Y-18000D01*
X130500Y162000D02*
X134500D01*
X130500Y148000D02*
X134500D01*
X130500Y133000D02*
X134500D01*
X130500Y147000D02*
X134500D01*
X118000Y113000D02*
X122000D01*
X118000Y127000D02*
X122000D01*
X93000Y113000D02*
X97000D01*
X93000Y127000D02*
X97000D01*
X99000Y82000D02*
X112350D01*
X99000D02*
Y108000D01*
X112350D01*
X148000Y127000D02*
X152000D01*
X148000Y113000D02*
X152000D01*
X163000Y93000D02*
Y97000D01*
X177000Y93000D02*
Y97000D01*
X139000Y88250D02*
Y96250D01*
Y88250D02*
X142500D01*
X161000D02*
Y96250D01*
X157500Y88250D02*
X161000D01*
X82000Y188000D02*
Y192000D01*
X68000Y188000D02*
Y192000D01*
X91638Y219862D02*
X108362D01*
X91638Y205138D02*
X108362D01*
X68000Y213000D02*
Y217000D01*
X82000Y213000D02*
Y217000D01*
X103000Y177000D02*
X107000D01*
X103000Y163000D02*
X107000D01*
X98750Y181500D02*
X106750D01*
Y185000D01*
X98750Y203500D02*
X106750D01*
Y200000D02*
Y203500D01*
X-107638Y149138D02*
Y165862D01*
X-122362Y149138D02*
Y165862D01*
X-107000Y155500D02*
Y159500D01*
X-93000Y155500D02*
Y159500D01*
X-123000Y155500D02*
Y159500D01*
X-137000Y155500D02*
Y159500D01*
X-103362Y222362D02*
X-86638D01*
X-103362Y207638D02*
X-86638D01*
X-108000Y193000D02*
Y197000D01*
X-122000Y193000D02*
Y197000D01*
X-93000Y193000D02*
Y197000D01*
X-107000Y193000D02*
Y197000D01*
X-193412Y-120252D02*
X-183347Y-133609D01*
X-181653Y-111391D02*
X-171588Y-124748D01*
X-93000Y-152000D02*
Y-148000D01*
X-107000Y-152000D02*
Y-148000D01*
X-32000Y-49500D02*
X-28000D01*
X-32000Y-35500D02*
X-28000D01*
X-102000D02*
X-98000D01*
X-102000Y-49500D02*
X-98000D01*
X-64500Y-52000D02*
Y-48000D01*
X-50500Y-52000D02*
Y-48000D01*
X-84500Y-52000D02*
Y-48000D01*
X-70500Y-52000D02*
Y-48000D01*
X130500Y163000D02*
X134500D01*
X130500Y177000D02*
X134500D01*
X158000Y163000D02*
X162000D01*
X158000Y177000D02*
X162000D01*
X158000Y148000D02*
X162000D01*
X158000Y162000D02*
X162000D01*
X178000Y133000D02*
X182000D01*
X178000Y147000D02*
X182000D01*
X193000Y88000D02*
X197000D01*
X193000Y102000D02*
X197000D01*
X178000Y118000D02*
X182000D01*
X178000Y132000D02*
X182000D01*
X193000Y103000D02*
X197000D01*
X193000Y117000D02*
X197000D01*
X-4500Y-49500D02*
X-500D01*
X-4500Y-35500D02*
X-500D01*
X-102000Y-50500D02*
X-98000D01*
X-102000Y-64500D02*
X-98000D01*
X-32000Y-64500D02*
X-28000D01*
X-32000Y-50500D02*
X-28000D01*
X28000Y-152000D02*
Y-148000D01*
X42000Y-152000D02*
Y-148000D01*
X-92000Y-152000D02*
Y-148000D01*
X-78000Y-152000D02*
Y-148000D01*
X-32000Y-79500D02*
X-28000D01*
X-32000Y-65500D02*
X-28000D01*
X57000Y-152000D02*
Y-148000D01*
X43000Y-152000D02*
Y-148000D01*
X-102000Y-79500D02*
X-98000D01*
X-102000Y-65500D02*
X-98000D01*
X-129500D02*
X-125500D01*
X-129500Y-79500D02*
X-125500D01*
X-69250Y-64000D02*
X-65750D01*
X-69250Y-86000D02*
X-65750D01*
X19750Y176250D02*
X30250D01*
X19750Y188750D02*
X30250D01*
X64862Y209138D02*
Y225862D01*
X50138Y209138D02*
Y225862D01*
X64862Y186638D02*
Y203362D01*
X50138Y186638D02*
Y203362D01*
X49862Y186638D02*
Y203362D01*
X35138Y186638D02*
Y203362D01*
X50138Y164138D02*
Y180862D01*
X64862Y164138D02*
Y180862D01*
X35138Y164138D02*
Y180862D01*
X49862Y164138D02*
Y180862D01*
Y136638D02*
Y153362D01*
X35138Y136638D02*
Y153362D01*
X64862Y136638D02*
Y153362D01*
X50138Y136638D02*
Y153362D01*
X49862Y111638D02*
Y128362D01*
X35138Y111638D02*
Y128362D01*
X64862Y111638D02*
Y128362D01*
X50138Y111638D02*
Y128362D01*
X64862Y89138D02*
Y105862D01*
X50138Y89138D02*
Y105862D01*
X-53362Y87362D02*
X-36638D01*
X-53362Y72638D02*
X-36638D01*
X-52638Y204138D02*
Y220862D01*
X-67362Y204138D02*
Y220862D01*
X-40138Y204138D02*
Y220862D01*
X-54862Y204138D02*
Y220862D01*
X-25138Y204138D02*
Y220862D01*
X-39862Y204138D02*
Y220862D01*
X-40138Y99138D02*
Y115862D01*
X-54862Y99138D02*
Y115862D01*
X-25134Y99135D02*
Y115859D01*
X-39859Y99135D02*
Y115859D01*
X-123657Y81791D02*
X-123356Y82191D01*
X-131644Y87809D02*
X-131343Y88209D01*
X-159748Y173412D02*
X-146391Y163347D01*
X-168609Y161653D02*
X-155252Y151588D01*
X-204885Y114294D02*
X-201690Y111887D01*
X-213310Y103113D02*
X-210115Y100706D01*
X-107362Y124138D02*
Y140862D01*
X-92638Y124138D02*
Y140862D01*
X-198609Y91653D02*
X-185252Y81587D01*
X-189748Y103412D02*
X-176391Y93347D01*
X-17000Y79500D02*
X-13000D01*
X-17000Y65500D02*
X-13000D01*
X1638Y79862D02*
X18362D01*
X1638Y65138D02*
X18362D01*
X-53362Y57638D02*
X-36638D01*
X-53362Y72362D02*
X-36638D01*
X-30500Y43500D02*
Y46500D01*
X500Y43500D02*
Y46500D01*
X-30500D02*
X500D01*
X-30500Y43500D02*
X500D01*
X-35939Y23439D02*
Y51561D01*
X-54061Y23439D02*
Y51561D01*
X-103362Y22362D02*
X-86638D01*
X-103362Y7638D02*
X-86638D01*
X-103362Y7362D02*
X-86638D01*
X-103362Y-7362D02*
X-86638D01*
X-103362Y37638D02*
X-86638D01*
X-103362Y52362D02*
X-86638D01*
X-103362Y22638D02*
X-86638D01*
X-103362Y37362D02*
X-86638D01*
X-78362D02*
X-61638D01*
X-78362Y22638D02*
X-61638D01*
X-78362Y52362D02*
X-61638D01*
X-78362Y37638D02*
X-61638D01*
X-39862Y-862D02*
Y15862D01*
X-25138Y-862D02*
Y15862D01*
X-54862Y-862D02*
Y15862D01*
X-40138Y-862D02*
Y15862D01*
Y-25862D02*
Y-9138D01*
X-54862Y-25862D02*
Y-9138D01*
X-25138Y-25862D02*
Y-9138D01*
X-39862Y-25862D02*
Y-9138D01*
X-129500Y-35500D02*
X-125500D01*
X-129500Y-49500D02*
X-125500D01*
X-153240Y-23500D02*
X-151760D01*
X-153240Y-31498D02*
X-151760D01*
X-129500Y-64500D02*
X-125500D01*
X-129500Y-50500D02*
X-125500D01*
X-129500Y-34500D02*
X-125500D01*
X-129500Y-20500D02*
X-125500D01*
X-164500Y-2000D02*
Y2000D01*
X-150500Y-2000D02*
Y2000D01*
X-129500Y9500D02*
X-125500D01*
X-129500Y-4500D02*
X-125500D01*
X-129500Y-5500D02*
X-125500D01*
X-129500Y-19500D02*
X-125500D01*
X55500Y-94500D02*
Y-90500D01*
X69500Y-94500D02*
Y-90500D01*
X-17638Y-158362D02*
Y-141638D01*
X-32362Y-158362D02*
Y-141638D01*
X13000Y-152000D02*
Y-148000D01*
X27000Y-152000D02*
Y-148000D01*
X12000Y-152000D02*
Y-148000D01*
X-2000Y-152000D02*
Y-148000D01*
X-47000Y-152000D02*
Y-148000D01*
X-33000Y-152000D02*
Y-148000D01*
X-55862Y-177362D02*
X-39138D01*
X-55862Y-162638D02*
X-39138D01*
X-48000Y-152000D02*
Y-148000D01*
X-62000Y-152000D02*
Y-148000D01*
X-35138Y-120862D02*
Y-104138D01*
X-49862Y-120862D02*
Y-104138D01*
X-115138Y-120862D02*
Y-104138D01*
X-129862Y-120862D02*
Y-104138D01*
X-4750Y-151250D02*
Y-148750D01*
X-15250Y-151250D02*
Y-148750D01*
X215250Y-65400D02*
Y-64350D01*
Y64350D02*
Y65400D01*
X184750Y-65400D02*
Y-64350D01*
Y64350D02*
Y65400D01*
X193650D01*
X184750Y-65400D02*
X193650D01*
X206350Y65400D02*
X215250D01*
X206350Y-65400D02*
X215250D01*
X-184750D02*
Y-64350D01*
Y64350D02*
Y65400D01*
X-215250Y-65400D02*
Y-64350D01*
Y64350D02*
Y65400D01*
X-206350D01*
X-215250Y-65400D02*
X-206350D01*
X-193650Y65400D02*
X-184750D01*
X-193650Y-65400D02*
X-184750D01*
D14*
X46243Y-173502D02*
Y-181000D01*
X42494D01*
X41245Y-179750D01*
Y-174752D01*
X42494Y-173502D01*
X46243D01*
X38746Y-181000D02*
Y-173502D01*
X34997D01*
X33747Y-174752D01*
Y-177251D01*
X34997Y-178501D01*
X38746D01*
X36246D02*
X33747Y-181000D01*
X27499Y-173502D02*
X29998D01*
X31248Y-174752D01*
Y-179750D01*
X29998Y-181000D01*
X27499D01*
X26250Y-179750D01*
Y-174752D01*
X27499Y-173502D01*
X18752Y-174752D02*
X20002Y-173502D01*
X22501D01*
X23750Y-174752D01*
Y-179750D01*
X22501Y-181000D01*
X20002D01*
X18752Y-179750D01*
Y-177251D01*
X21251D01*
X16253Y-173502D02*
Y-179750D01*
X15003Y-181000D01*
X12504D01*
X11254Y-179750D01*
Y-173502D01*
X3757D02*
X8755D01*
Y-181000D01*
X3757D01*
X8755Y-177251D02*
X6256D01*
X-76879Y-181000D02*
Y-173502D01*
X-79378Y-176002D01*
X-81878Y-173502D01*
Y-181000D01*
X-84377D02*
Y-176002D01*
X-86876Y-173502D01*
X-89375Y-176002D01*
Y-181000D01*
Y-177251D01*
X-84377D01*
X-91874Y-173502D02*
X-94374D01*
X-93124D01*
Y-181000D01*
X-91874D01*
X-94374D01*
X-98122D02*
Y-173502D01*
X-103121Y-181000D01*
Y-173502D01*
X123747Y-162155D02*
X124997Y-160905D01*
X127496D01*
X128746Y-162155D01*
Y-163405D01*
X127496Y-164654D01*
X124997D01*
X123747Y-165904D01*
Y-167153D01*
X124997Y-168403D01*
X127496D01*
X128746Y-167153D01*
X116250Y-160905D02*
X121248D01*
Y-164654D01*
X118749D01*
X121248D01*
Y-168403D01*
X113750Y-160905D02*
X108752D01*
X111251D01*
Y-168403D01*
X106253Y-160905D02*
Y-162155D01*
X103754Y-164654D01*
X101254Y-162155D01*
Y-160905D01*
X103754Y-164654D02*
Y-168403D01*
X116250Y-174752D02*
X117499Y-173502D01*
X119998D01*
X121248Y-174752D01*
Y-176002D01*
X119998Y-177251D01*
X117499D01*
X116250Y-178501D01*
Y-179750D01*
X117499Y-181000D01*
X119998D01*
X121248Y-179750D01*
X113750Y-173502D02*
Y-181000D01*
X111251Y-178501D01*
X108752Y-181000D01*
Y-173502D01*
D111*
X-200263Y131748D02*
X-197965Y130016D01*
X-163953Y104386D02*
X-149737Y123252D01*
X-166251Y106118D02*
X-163953Y104386D01*
X-200263Y131748D02*
X-186047Y150614D01*
X-183749Y148882D01*
X-152035Y124984D02*
X-149737Y123252D01*
D112*
X-184126Y160854D02*
X-182460Y149001D01*
X-177367Y155760D02*
X-189220Y154095D01*
X-180747Y158307D02*
X-185840Y151548D01*
X-179914Y152381D02*
X-186673Y157474D01*
D113*
X102889Y95001D02*
D03*
M02*
