G04*
G04 #@! TF.GenerationSoftware,Altium Limited,Altium Designer,24.4.1 (13)*
G04*
G04 Layer_Color=8421504*
%FSLAX44Y44*%
%MOMM*%
G71*
G04*
G04 #@! TF.SameCoordinates,36E66750-E4A1-4D4F-82B0-1BBA9B0B1F2C*
G04*
G04*
G04 #@! TF.FilePolarity,Positive*
G04*
G01*
G75*
%ADD17R,1.5000X1.5000*%
%ADD18C,0.2736*%
%ADD19R,0.5500X0.3500*%
%ADD20R,1.6200X2.4000*%
%ADD21R,2.9400X2.9400*%
%ADD22O,0.6500X0.3500*%
%ADD23O,0.3500X0.6500*%
%ADD24R,0.6725X0.7154*%
%ADD25R,0.6000X1.7000*%
%ADD26R,1.0000X2.7000*%
%ADD27R,2.9200X0.7400*%
%ADD28R,0.7154X0.6725*%
%ADD29R,1.5000X0.5500*%
%ADD30R,0.3500X0.5000*%
%ADD31R,1.0000X1.6000*%
%ADD32R,0.6000X1.1000*%
%ADD33R,0.6500X0.6500*%
%ADD34R,0.5000X0.3500*%
G04:AMPARAMS|DCode=35|XSize=0.95mm|YSize=0.8mm|CornerRadius=0.1mm|HoleSize=0mm|Usage=FLASHONLY|Rotation=90.000|XOffset=0mm|YOffset=0mm|HoleType=Round|Shape=RoundedRectangle|*
%AMROUNDEDRECTD35*
21,1,0.9500,0.6000,0,0,90.0*
21,1,0.7500,0.8000,0,0,90.0*
1,1,0.2000,0.3000,0.3750*
1,1,0.2000,0.3000,-0.3750*
1,1,0.2000,-0.3000,-0.3750*
1,1,0.2000,-0.3000,0.3750*
%
%ADD35ROUNDEDRECTD35*%
%ADD36R,1.2000X1.4000*%
G04:AMPARAMS|DCode=37|XSize=0.95mm|YSize=0.8mm|CornerRadius=0.1mm|HoleSize=0mm|Usage=FLASHONLY|Rotation=233.000|XOffset=0mm|YOffset=0mm|HoleType=Round|Shape=RoundedRectangle|*
%AMROUNDEDRECTD37*
21,1,0.9500,0.6000,0,0,233.0*
21,1,0.7500,0.8000,0,0,233.0*
1,1,0.2000,-0.4653,-0.1189*
1,1,0.2000,-0.0139,0.4800*
1,1,0.2000,0.4653,0.1189*
1,1,0.2000,0.0139,-0.4800*
%
%ADD37ROUNDEDRECTD37*%
%ADD38R,1.1400X0.5750*%
G04:AMPARAMS|DCode=39|XSize=0.2125mm|YSize=1.3552mm|CornerRadius=0.1062mm|HoleSize=0mm|Usage=FLASHONLY|Rotation=180.000|XOffset=0mm|YOffset=0mm|HoleType=Round|Shape=RoundedRectangle|*
%AMROUNDEDRECTD39*
21,1,0.2125,1.1428,0,0,180.0*
21,1,0.0000,1.3552,0,0,180.0*
1,1,0.2125,0.0000,0.5714*
1,1,0.2125,0.0000,0.5714*
1,1,0.2125,0.0000,-0.5714*
1,1,0.2125,0.0000,-0.5714*
%
%ADD39ROUNDEDRECTD39*%
G04:AMPARAMS|DCode=40|XSize=1.3552mm|YSize=0.2125mm|CornerRadius=0.1062mm|HoleSize=0mm|Usage=FLASHONLY|Rotation=180.000|XOffset=0mm|YOffset=0mm|HoleType=Round|Shape=RoundedRectangle|*
%AMROUNDEDRECTD40*
21,1,1.3552,0.0000,0,0,180.0*
21,1,1.1428,0.2125,0,0,180.0*
1,1,0.2125,-0.5714,0.0000*
1,1,0.2125,0.5714,0.0000*
1,1,0.2125,0.5714,0.0000*
1,1,0.2125,-0.5714,0.0000*
%
%ADD40ROUNDEDRECTD40*%
%ADD41R,1.3552X0.2125*%
%ADD42R,2.5000X2.5000*%
G04:AMPARAMS|DCode=43|XSize=1.1mm|YSize=0.45mm|CornerRadius=0mm|HoleSize=0mm|Usage=FLASHONLY|Rotation=125.000|XOffset=0mm|YOffset=0mm|HoleType=Round|Shape=Rectangle|*
%AMROTATEDRECTD43*
4,1,4,0.4998,-0.3215,0.1312,-0.5796,-0.4998,0.3215,-0.1312,0.5796,0.4998,-0.3215,0.0*
%
%ADD43ROTATEDRECTD43*%

%ADD44R,0.8500X0.3000*%
%ADD45R,0.3000X0.8500*%
%ADD46R,1.5000X1.0000*%
G04:AMPARAMS|DCode=47|XSize=1.4mm|YSize=1.2mm|CornerRadius=0mm|HoleSize=0mm|Usage=FLASHONLY|Rotation=233.000|XOffset=0mm|YOffset=0mm|HoleType=Round|Shape=Rectangle|*
%AMROTATEDRECTD47*
4,1,4,-0.0579,0.9201,0.9005,0.1979,0.0579,-0.9201,-0.9005,-0.1979,-0.0579,0.9201,0.0*
%
%ADD47ROTATEDRECTD47*%

%ADD48R,0.8000X0.5000*%
%ADD49R,0.8000X1.3000*%
%ADD50R,0.8000X1.3000*%
G36*
X-53480Y26130D02*
Y25828D01*
X-53711Y25269D01*
X-54139Y24841D01*
X-54698Y24610D01*
X-55302D01*
X-55861Y24841D01*
X-56289Y25269D01*
X-56520Y25828D01*
Y26130D01*
X-56520D01*
Y33500D01*
X-53480D01*
Y26130D01*
D02*
G37*
G36*
X-58480D02*
Y25828D01*
X-58711Y25269D01*
X-59139Y24841D01*
X-59698Y24610D01*
X-60302D01*
X-60861Y24841D01*
X-61289Y25269D01*
X-61520Y25828D01*
Y26130D01*
Y33500D01*
X-58480D01*
Y26130D01*
D02*
G37*
G36*
X-63480D02*
Y25828D01*
X-63711Y25269D01*
X-64139Y24841D01*
X-64698Y24610D01*
X-65302D01*
X-65861Y24841D01*
X-66289Y25269D01*
X-66520Y25828D01*
Y26130D01*
Y33500D01*
X-63480D01*
X-63480Y26130D01*
D02*
G37*
G36*
X-68480D02*
Y25828D01*
X-68711Y25269D01*
X-69139Y24841D01*
X-69698Y24610D01*
X-70302D01*
X-70861Y24841D01*
X-71289Y25269D01*
X-71520Y25828D01*
Y26130D01*
X-71520D01*
Y33500D01*
X-68480D01*
Y26130D01*
D02*
G37*
G36*
X-73480D02*
Y25828D01*
X-73711Y25269D01*
X-74139Y24841D01*
X-74698Y24610D01*
X-75302D01*
X-75861Y24841D01*
X-76289Y25269D01*
X-76520Y25828D01*
Y26130D01*
Y33500D01*
X-73480D01*
X-73480Y26130D01*
D02*
G37*
G36*
X-78480D02*
Y25828D01*
X-78711Y25269D01*
X-79139Y24841D01*
X-79698Y24610D01*
X-80302D01*
X-80861Y24841D01*
X-81289Y25269D01*
X-81520Y25828D01*
Y26130D01*
X-81520D01*
Y33500D01*
X-78480D01*
Y26130D01*
D02*
G37*
G36*
X-83480D02*
Y25828D01*
X-83711Y25269D01*
X-84139Y24841D01*
X-84698Y24610D01*
X-85302D01*
X-85861Y24841D01*
X-86289Y25269D01*
X-86520Y25828D01*
Y26130D01*
Y33500D01*
X-83480D01*
Y26130D01*
D02*
G37*
G36*
X-88480D02*
Y25828D01*
X-88711Y25269D01*
X-89139Y24841D01*
X-89698Y24610D01*
X-90302D01*
X-90861Y24841D01*
X-91289Y25269D01*
X-91520Y25828D01*
Y26130D01*
Y33500D01*
X-88480D01*
X-88480Y26130D01*
D02*
G37*
G36*
X-44000Y20980D02*
X-51370Y20980D01*
X-51672D01*
X-52231Y21211D01*
X-52659Y21639D01*
X-52890Y22198D01*
Y22500D01*
Y22802D01*
X-52659Y23361D01*
X-52231Y23789D01*
X-51672Y24020D01*
X-44000D01*
Y20980D01*
D02*
G37*
G36*
X-92769Y23789D02*
X-92341Y23361D01*
X-92110Y22802D01*
Y22500D01*
Y22198D01*
X-92341Y21639D01*
X-92769Y21211D01*
X-93328Y20980D01*
X-93630D01*
Y20980D01*
X-101000D01*
Y24020D01*
X-93328D01*
X-92769Y23789D01*
D02*
G37*
G36*
X-44000Y15980D02*
X-51672D01*
X-52231Y16211D01*
X-52659Y16639D01*
X-52890Y17198D01*
Y17500D01*
Y17802D01*
X-52659Y18361D01*
X-52231Y18789D01*
X-51672Y19020D01*
X-44000D01*
Y15980D01*
D02*
G37*
G36*
X-92769Y18789D02*
X-92341Y18361D01*
X-92110Y17802D01*
Y17500D01*
Y17198D01*
X-92341Y16639D01*
X-92769Y16211D01*
X-93328Y15980D01*
X-101000D01*
Y19020D01*
X-93328D01*
X-92769Y18789D01*
D02*
G37*
G36*
X-51370Y14020D02*
X-44000D01*
Y10980D01*
X-51672D01*
X-52231Y11211D01*
X-52659Y11639D01*
X-52890Y12198D01*
Y12500D01*
Y12802D01*
X-52659Y13361D01*
X-52231Y13789D01*
X-51672Y14020D01*
X-51370D01*
Y14020D01*
D02*
G37*
G36*
X-92769Y13789D02*
X-92341Y13361D01*
X-92110Y12802D01*
Y12500D01*
Y12198D01*
X-92341Y11639D01*
X-92769Y11211D01*
X-93328Y10980D01*
X-101000D01*
Y14020D01*
X-93630Y14020D01*
X-93328D01*
X-92769Y13789D01*
D02*
G37*
G36*
X-44000Y5980D02*
X-51370Y5980D01*
X-51672D01*
X-52231Y6211D01*
X-52659Y6639D01*
X-52890Y7198D01*
Y7500D01*
Y7802D01*
X-52659Y8361D01*
X-52231Y8789D01*
X-51672Y9020D01*
X-44000D01*
Y5980D01*
D02*
G37*
G36*
X-92769Y8789D02*
X-92341Y8361D01*
X-92110Y7802D01*
Y7500D01*
Y7198D01*
X-92341Y6639D01*
X-92769Y6211D01*
X-93328Y5980D01*
X-93630D01*
Y5980D01*
X-101000D01*
Y9020D01*
X-93328D01*
X-92769Y8789D01*
D02*
G37*
G36*
X-51370Y4020D02*
X-44000D01*
Y980D01*
X-51672D01*
X-52231Y1211D01*
X-52659Y1639D01*
X-52890Y2198D01*
Y2500D01*
Y2802D01*
X-52659Y3361D01*
X-52231Y3789D01*
X-51672Y4020D01*
X-51370D01*
Y4020D01*
D02*
G37*
G36*
X-92769Y3789D02*
X-92341Y3361D01*
X-92110Y2802D01*
Y2500D01*
Y2198D01*
X-92341Y1639D01*
X-92769Y1211D01*
X-93328Y980D01*
X-101000D01*
Y4020D01*
X-93630Y4020D01*
X-93328D01*
X-92769Y3789D01*
D02*
G37*
G36*
X-44000Y-4020D02*
X-51370Y-4020D01*
X-51672D01*
X-52231Y-3789D01*
X-52659Y-3361D01*
X-52890Y-2802D01*
Y-2500D01*
Y-2198D01*
X-52659Y-1639D01*
X-52231Y-1211D01*
X-51672Y-980D01*
X-44000D01*
Y-4020D01*
D02*
G37*
G36*
X-92769Y-1211D02*
X-92341Y-1639D01*
X-92110Y-2198D01*
Y-2500D01*
Y-2802D01*
X-92341Y-3361D01*
X-92769Y-3789D01*
X-93328Y-4020D01*
X-93630D01*
Y-4020D01*
X-101000D01*
Y-980D01*
X-93328D01*
X-92769Y-1211D01*
D02*
G37*
G36*
X-44000Y-9020D02*
X-51672D01*
X-52231Y-8789D01*
X-52659Y-8361D01*
X-52890Y-7802D01*
Y-7500D01*
Y-7198D01*
X-52659Y-6639D01*
X-52231Y-6211D01*
X-51672Y-5980D01*
X-44000D01*
Y-9020D01*
D02*
G37*
G36*
X-92769Y-6211D02*
X-92341Y-6639D01*
X-92110Y-7198D01*
Y-7500D01*
Y-7802D01*
X-92341Y-8361D01*
X-92769Y-8789D01*
X-93328Y-9020D01*
X-101000D01*
Y-5980D01*
X-93328D01*
X-92769Y-6211D01*
D02*
G37*
G36*
X-51370Y-10980D02*
X-44000D01*
Y-14020D01*
X-51672D01*
X-52231Y-13789D01*
X-52659Y-13361D01*
X-52890Y-12802D01*
Y-12500D01*
Y-12198D01*
X-52659Y-11639D01*
X-52231Y-11211D01*
X-51672Y-10980D01*
X-51370D01*
Y-10980D01*
D02*
G37*
G36*
X-92769Y-11211D02*
X-92341Y-11639D01*
X-92110Y-12198D01*
Y-12500D01*
Y-12802D01*
X-92341Y-13361D01*
X-92769Y-13789D01*
X-93328Y-14020D01*
X-101000D01*
Y-10980D01*
X-93630Y-10980D01*
X-93328D01*
X-92769Y-11211D01*
D02*
G37*
G36*
X-54139Y-14841D02*
X-53711Y-15269D01*
X-53480Y-15828D01*
Y-16130D01*
Y-23500D01*
X-56520D01*
X-56520Y-16130D01*
Y-15828D01*
X-56289Y-15269D01*
X-55861Y-14841D01*
X-55302Y-14610D01*
X-54698D01*
X-54139Y-14841D01*
D02*
G37*
G36*
X-59139D02*
X-58711Y-15269D01*
X-58480Y-15828D01*
Y-16130D01*
Y-23500D01*
X-61520D01*
Y-16130D01*
Y-15828D01*
X-61289Y-15269D01*
X-60861Y-14841D01*
X-60302Y-14610D01*
X-59698D01*
X-59139Y-14841D01*
D02*
G37*
G36*
X-64139D02*
X-63711Y-15269D01*
X-63480Y-15828D01*
Y-16130D01*
X-63480D01*
Y-23500D01*
X-66520D01*
Y-16130D01*
Y-15828D01*
X-66289Y-15269D01*
X-65861Y-14841D01*
X-65302Y-14610D01*
X-64698D01*
X-64139Y-14841D01*
D02*
G37*
G36*
X-69139D02*
X-68711Y-15269D01*
X-68480Y-15828D01*
Y-16130D01*
Y-23500D01*
X-71520D01*
X-71520Y-16130D01*
Y-15828D01*
X-71289Y-15269D01*
X-70861Y-14841D01*
X-70302Y-14610D01*
X-69698D01*
X-69139Y-14841D01*
D02*
G37*
G36*
X-74139D02*
X-73711Y-15269D01*
X-73480Y-15828D01*
Y-16130D01*
X-73480D01*
Y-23500D01*
X-76520D01*
Y-16130D01*
Y-15828D01*
X-76289Y-15269D01*
X-75861Y-14841D01*
X-75302Y-14610D01*
X-74698D01*
X-74139Y-14841D01*
D02*
G37*
G36*
X-79139D02*
X-78711Y-15269D01*
X-78480Y-15828D01*
Y-16130D01*
Y-23500D01*
X-81520D01*
X-81520Y-16130D01*
Y-15828D01*
X-81289Y-15269D01*
X-80861Y-14841D01*
X-80302Y-14610D01*
X-79698D01*
X-79139Y-14841D01*
D02*
G37*
G36*
X-84139D02*
X-83711Y-15269D01*
X-83480Y-15828D01*
Y-16130D01*
Y-23500D01*
X-86520D01*
Y-16130D01*
Y-15828D01*
X-86289Y-15269D01*
X-85861Y-14841D01*
X-85302Y-14610D01*
X-84698D01*
X-84139Y-14841D01*
D02*
G37*
G36*
X-89139D02*
X-88711Y-15269D01*
X-88480Y-15828D01*
Y-16130D01*
X-88480D01*
Y-23500D01*
X-91520D01*
Y-16130D01*
Y-15828D01*
X-91289Y-15269D01*
X-90861Y-14841D01*
X-90302Y-14610D01*
X-89698D01*
X-89139Y-14841D01*
D02*
G37*
G36*
X87050Y-67750D02*
X98400D01*
Y-68250D01*
X101400D01*
Y-72250D01*
X98400D01*
Y-74750D01*
X101400D01*
Y-78750D01*
X98400D01*
Y-81250D01*
X101400D01*
Y-85250D01*
X98400D01*
Y-87750D01*
X101400D01*
Y-91750D01*
X98400D01*
Y-92250D01*
X87050D01*
Y-96050D01*
X82750D01*
Y-92250D01*
X78600D01*
Y-67750D01*
X82750D01*
Y-63950D01*
X87050D01*
Y-67750D01*
D02*
G37*
G36*
X42250D02*
X46400D01*
Y-92250D01*
X42250D01*
Y-96050D01*
X37950D01*
Y-92250D01*
X26600D01*
Y-91750D01*
X23600D01*
Y-87750D01*
X26600D01*
Y-85250D01*
X23600D01*
Y-81250D01*
X26600D01*
Y-78750D01*
X23600D01*
Y-74750D01*
X26600D01*
Y-72250D01*
X23600D01*
Y-68250D01*
X26600D01*
Y-67750D01*
X37950D01*
Y-63950D01*
X42250D01*
Y-67750D01*
D02*
G37*
G36*
X-52750Y-102750D02*
X-48950D01*
Y-107050D01*
X-52750D01*
Y-118400D01*
X-53250D01*
Y-121400D01*
X-57250D01*
Y-118400D01*
X-59750D01*
Y-121400D01*
X-63750D01*
Y-118400D01*
X-66250D01*
Y-121400D01*
X-70250D01*
Y-118400D01*
X-72750D01*
Y-121400D01*
X-76750D01*
Y-118400D01*
X-77250D01*
Y-107050D01*
X-81050D01*
Y-102750D01*
X-77250D01*
Y-98600D01*
X-52750D01*
Y-102750D01*
D02*
G37*
G36*
X-132750D02*
X-128950D01*
Y-107050D01*
X-132750D01*
Y-118400D01*
X-133250D01*
Y-121400D01*
X-137250D01*
Y-118400D01*
X-139750D01*
Y-121400D01*
X-143750D01*
Y-118400D01*
X-146250D01*
Y-121400D01*
X-150250D01*
Y-118400D01*
X-152750D01*
Y-121400D01*
X-156750D01*
Y-118400D01*
X-157250D01*
Y-107050D01*
X-161050D01*
Y-102750D01*
X-157250D01*
Y-98600D01*
X-132750D01*
Y-102750D01*
D02*
G37*
D17*
X-63000Y-4500D02*
D03*
X-82000D02*
D03*
X-63000Y14500D02*
D03*
X-82000D02*
D03*
D18*
X-48288Y-12500D02*
D03*
X-48445Y-7500D02*
D03*
Y-2500D02*
D03*
Y2500D02*
D03*
X-45520Y7500D02*
D03*
X-48445Y12500D02*
D03*
Y17500D02*
D03*
Y22500D02*
D03*
X-96712D02*
D03*
X-96555Y17500D02*
D03*
Y12500D02*
D03*
Y7500D02*
D03*
X-96712Y2500D02*
D03*
X-96555Y-2500D02*
D03*
Y-7500D02*
D03*
Y-12500D02*
D03*
X-55000Y29212D02*
D03*
X-60000Y29055D02*
D03*
X-65000D02*
D03*
X-70000D02*
D03*
X-75000Y31980D02*
D03*
X-80000Y29055D02*
D03*
X-85000D02*
D03*
X-90000D02*
D03*
Y-19212D02*
D03*
X-85000Y-19055D02*
D03*
X-80000D02*
D03*
X-75000D02*
D03*
X-70000Y-19212D02*
D03*
X-65000Y-19055D02*
D03*
X-60000D02*
D03*
X-55000D02*
D03*
D19*
X-152850Y45000D02*
D03*
Y40000D02*
D03*
Y35000D02*
D03*
Y30000D02*
D03*
Y25000D02*
D03*
X-127150Y45000D02*
D03*
Y40000D02*
D03*
Y35000D02*
D03*
Y30000D02*
D03*
Y25000D02*
D03*
X-152850Y5000D02*
D03*
Y0D02*
D03*
Y-5000D02*
D03*
Y-10000D02*
D03*
Y-15000D02*
D03*
X-127150Y5000D02*
D03*
Y0D02*
D03*
Y-5000D02*
D03*
Y-10000D02*
D03*
Y-15000D02*
D03*
D20*
X-140000Y35000D02*
D03*
Y-5000D02*
D03*
D21*
X0Y0D02*
D03*
D22*
X-19750Y-12500D02*
D03*
Y-7500D02*
D03*
Y-2500D02*
D03*
Y2500D02*
D03*
Y7500D02*
D03*
Y12500D02*
D03*
X19750D02*
D03*
Y7500D02*
D03*
Y2500D02*
D03*
Y-2500D02*
D03*
Y-7500D02*
D03*
Y-12500D02*
D03*
D23*
X-12500Y19750D02*
D03*
X-7500D02*
D03*
X-2500D02*
D03*
X2500D02*
D03*
X7500D02*
D03*
X12500D02*
D03*
Y-19750D02*
D03*
X7500D02*
D03*
X2500D02*
D03*
X-2500D02*
D03*
X-7500D02*
D03*
X-12500D02*
D03*
D24*
X-110000Y19786D02*
D03*
Y10214D02*
D03*
X105000Y140214D02*
D03*
Y149786D02*
D03*
Y169786D02*
D03*
Y160214D02*
D03*
Y129786D02*
D03*
Y120214D02*
D03*
Y100214D02*
D03*
Y109786D02*
D03*
X-110000Y49786D02*
D03*
Y40214D02*
D03*
D25*
X56250Y-142250D02*
D03*
X43750D02*
D03*
X31250D02*
D03*
X18750D02*
D03*
X6250D02*
D03*
X-6250D02*
D03*
X-58750D02*
D03*
X-71250D02*
D03*
X-83750D02*
D03*
X-96250D02*
D03*
X-108750D02*
D03*
X-121250D02*
D03*
X108750D02*
D03*
X121250D02*
D03*
D26*
X74750Y-174250D02*
D03*
X-24750D02*
D03*
X-40250D02*
D03*
X-139750D02*
D03*
X90250D02*
D03*
X139750D02*
D03*
D27*
X217150Y-57150D02*
D03*
X182850D02*
D03*
X217150Y-44450D02*
D03*
X182850D02*
D03*
X217150Y-31750D02*
D03*
X182850D02*
D03*
X217150Y-19050D02*
D03*
X182850D02*
D03*
X217150Y-6350D02*
D03*
X182850D02*
D03*
X217150Y6350D02*
D03*
X182850D02*
D03*
X217150Y19050D02*
D03*
X182850D02*
D03*
X217150Y31750D02*
D03*
X182850D02*
D03*
X217150Y44450D02*
D03*
X182850D02*
D03*
X217150Y57150D02*
D03*
X182850D02*
D03*
X-182850Y-57150D02*
D03*
X-217150D02*
D03*
X-182850Y-44450D02*
D03*
X-217150D02*
D03*
X-182850Y-31750D02*
D03*
X-217150D02*
D03*
X-182850Y-19050D02*
D03*
X-217150D02*
D03*
X-182850Y-6350D02*
D03*
X-217150D02*
D03*
X-182850Y6350D02*
D03*
X-217150D02*
D03*
X-182850Y19050D02*
D03*
X-217150D02*
D03*
X-182850Y31750D02*
D03*
X-217150D02*
D03*
X-182850Y44450D02*
D03*
X-217150D02*
D03*
X-182850Y57150D02*
D03*
X-217150D02*
D03*
D28*
X-147714Y62500D02*
D03*
X-157286D02*
D03*
X-145214Y-35000D02*
D03*
X-154786D02*
D03*
X-97286Y62500D02*
D03*
X-87714D02*
D03*
X35214Y-15000D02*
D03*
X44786D02*
D03*
X-19786Y40000D02*
D03*
X-10214D02*
D03*
X35214Y15000D02*
D03*
X44786D02*
D03*
X35214Y0D02*
D03*
X44786D02*
D03*
X160214Y95000D02*
D03*
X169786D02*
D03*
X-134786Y-35000D02*
D03*
X-125214D02*
D03*
X-100214D02*
D03*
X-109786D02*
D03*
D29*
X-105000Y211250D02*
D03*
Y178750D02*
D03*
X-135000Y191250D02*
D03*
Y158750D02*
D03*
X105000Y178750D02*
D03*
Y211250D02*
D03*
D30*
X-154750Y-90900D02*
D03*
X-148250D02*
D03*
X-141750D02*
D03*
X-135250D02*
D03*
X-74750D02*
D03*
X-68250D02*
D03*
X-61750D02*
D03*
X-55250D02*
D03*
D31*
X115000Y-80000D02*
D03*
X145000D02*
D03*
D32*
X143750Y81000D02*
D03*
Y59000D02*
D03*
X131250D02*
D03*
Y81000D02*
D03*
X118750D02*
D03*
Y59000D02*
D03*
X106250Y81000D02*
D03*
Y59000D02*
D03*
D33*
X170000Y110000D02*
D03*
X160000D02*
D03*
D34*
X54100Y-70250D02*
D03*
Y-76750D02*
D03*
Y-83250D02*
D03*
Y-89750D02*
D03*
X70900D02*
D03*
Y-83250D02*
D03*
Y-76750D02*
D03*
Y-70250D02*
D03*
D35*
X89000Y-137500D02*
D03*
X76000D02*
D03*
X-206500Y-95000D02*
D03*
X-193500D02*
D03*
X-138500Y-135000D02*
D03*
X-151500D02*
D03*
X-101000Y-75000D02*
D03*
X-114000D02*
D03*
X-86500D02*
D03*
X-73500D02*
D03*
X-26000Y-135000D02*
D03*
X-39000D02*
D03*
X-23500Y-75000D02*
D03*
X-36500D02*
D03*
X-9000D02*
D03*
X4000D02*
D03*
D36*
X143500Y161000D02*
D03*
Y139000D02*
D03*
X126500D02*
D03*
Y161000D02*
D03*
D37*
X-125191Y143912D02*
D03*
X-114809Y136088D02*
D03*
D38*
X135000Y119125D02*
D03*
Y110875D02*
D03*
D39*
X60000Y74245D02*
D03*
X55000D02*
D03*
X50000D02*
D03*
X45000D02*
D03*
X40000D02*
D03*
X35000D02*
D03*
X30000D02*
D03*
X25000D02*
D03*
X20000D02*
D03*
X15000D02*
D03*
X10000D02*
D03*
X5000D02*
D03*
X0D02*
D03*
X-5000D02*
D03*
X-10000D02*
D03*
X-15000D02*
D03*
X-20000D02*
D03*
X-25000D02*
D03*
X-30000D02*
D03*
X-35000D02*
D03*
X-40000D02*
D03*
X-45000D02*
D03*
X-50000D02*
D03*
X-55000D02*
D03*
X-60000D02*
D03*
Y225755D02*
D03*
X-55000D02*
D03*
X-50000D02*
D03*
X-45000D02*
D03*
X-40000D02*
D03*
X-35000D02*
D03*
X-30000D02*
D03*
X-25000D02*
D03*
X-20000D02*
D03*
X-15000D02*
D03*
X-10000D02*
D03*
X-5000D02*
D03*
X0D02*
D03*
X5000D02*
D03*
X10000D02*
D03*
X15000D02*
D03*
X20000D02*
D03*
X25000D02*
D03*
X30000D02*
D03*
X35000D02*
D03*
X40000D02*
D03*
X45000D02*
D03*
X50000D02*
D03*
X55000D02*
D03*
X60000D02*
D03*
D40*
X-75755Y90000D02*
D03*
Y95000D02*
D03*
Y100000D02*
D03*
Y105000D02*
D03*
Y110000D02*
D03*
Y115000D02*
D03*
Y120000D02*
D03*
Y125000D02*
D03*
Y130000D02*
D03*
Y135000D02*
D03*
Y140000D02*
D03*
Y145000D02*
D03*
Y150000D02*
D03*
Y155000D02*
D03*
Y160000D02*
D03*
Y165000D02*
D03*
Y170000D02*
D03*
Y175000D02*
D03*
Y180000D02*
D03*
Y185000D02*
D03*
Y190000D02*
D03*
Y195000D02*
D03*
Y200000D02*
D03*
Y205000D02*
D03*
Y210000D02*
D03*
X75755D02*
D03*
Y205000D02*
D03*
Y200000D02*
D03*
Y195000D02*
D03*
Y190000D02*
D03*
Y185000D02*
D03*
Y180000D02*
D03*
Y175000D02*
D03*
Y170000D02*
D03*
Y165000D02*
D03*
Y160000D02*
D03*
Y155000D02*
D03*
Y150000D02*
D03*
Y145000D02*
D03*
Y140000D02*
D03*
Y135000D02*
D03*
Y130000D02*
D03*
Y125000D02*
D03*
Y120000D02*
D03*
Y115000D02*
D03*
Y110000D02*
D03*
Y105000D02*
D03*
Y100000D02*
D03*
Y95000D02*
D03*
D41*
Y90000D02*
D03*
D42*
X70000Y30000D02*
D03*
X140000D02*
D03*
Y-40000D02*
D03*
X70000D02*
D03*
D43*
X-200443Y-119943D02*
D03*
X-195119Y-116215D02*
D03*
X-189794Y-112487D02*
D03*
X-184470Y-108759D02*
D03*
X-169557Y-130057D02*
D03*
X-174881Y-133785D02*
D03*
X-180206Y-137513D02*
D03*
X-185530Y-141241D02*
D03*
D44*
X-90500Y-103520D02*
D03*
Y-98520D02*
D03*
X-119500Y-103520D02*
D03*
Y-98520D02*
D03*
X-10500Y-103520D02*
D03*
Y-98520D02*
D03*
X-39500Y-103520D02*
D03*
Y-98520D02*
D03*
D45*
X-112500Y-91520D02*
D03*
X-107500D02*
D03*
X-102500D02*
D03*
X-97500D02*
D03*
X-32500D02*
D03*
X-27500D02*
D03*
X-22500D02*
D03*
X-17500D02*
D03*
D46*
X-135000Y-76000D02*
D03*
Y-54000D02*
D03*
X-55000Y-76000D02*
D03*
Y-54000D02*
D03*
D47*
X-109092Y83670D02*
D03*
X-122332Y66100D02*
D03*
X-135908Y76330D02*
D03*
X-122669Y93900D02*
D03*
D48*
X197000Y99500D02*
D03*
X213000D02*
D03*
X197000Y90500D02*
D03*
X213000D02*
D03*
X182000Y129500D02*
D03*
X198000D02*
D03*
X182000Y120500D02*
D03*
X198000D02*
D03*
X132000Y189500D02*
D03*
X148000D02*
D03*
X132000Y180500D02*
D03*
X148000D02*
D03*
X162000Y159500D02*
D03*
X178000D02*
D03*
X162000Y150500D02*
D03*
X178000D02*
D03*
D49*
X-110000Y-118520D02*
D03*
X-20000D02*
D03*
D50*
X-100000D02*
D03*
X-30000D02*
D03*
M02*
