G04*
G04 #@! TF.GenerationSoftware,Altium Limited,Altium Designer,24.4.1 (13)*
G04*
G04 Layer_Physical_Order=4*
G04 Layer_Color=16711680*
%FSLAX44Y44*%
%MOMM*%
G71*
G04*
G04 #@! TF.SameCoordinates,36E66750-E4A1-4D4F-82B0-1BBA9B0B1F2C*
G04*
G04*
G04 #@! TF.FilePolarity,Positive*
G04*
G01*
G75*
%ADD12C,0.2000*%
%ADD13C,0.5000*%
%ADD24R,0.6725X0.7154*%
%ADD28R,0.7154X0.6725*%
G04:AMPARAMS|DCode=35|XSize=0.95mm|YSize=0.8mm|CornerRadius=0.1mm|HoleSize=0mm|Usage=FLASHONLY|Rotation=90.000|XOffset=0mm|YOffset=0mm|HoleType=Round|Shape=RoundedRectangle|*
%AMROUNDEDRECTD35*
21,1,0.9500,0.6000,0,0,90.0*
21,1,0.7500,0.8000,0,0,90.0*
1,1,0.2000,0.3000,0.3750*
1,1,0.2000,0.3000,-0.3750*
1,1,0.2000,-0.3000,-0.3750*
1,1,0.2000,-0.3000,0.3750*
%
%ADD35ROUNDEDRECTD35*%
G04:AMPARAMS|DCode=37|XSize=0.95mm|YSize=0.8mm|CornerRadius=0.1mm|HoleSize=0mm|Usage=FLASHONLY|Rotation=233.000|XOffset=0mm|YOffset=0mm|HoleType=Round|Shape=RoundedRectangle|*
%AMROUNDEDRECTD37*
21,1,0.9500,0.6000,0,0,233.0*
21,1,0.7500,0.8000,0,0,233.0*
1,1,0.2000,-0.4653,-0.1189*
1,1,0.2000,-0.0139,0.4800*
1,1,0.2000,0.4653,0.1189*
1,1,0.2000,0.0139,-0.4800*
%
%ADD37ROUNDEDRECTD37*%
%ADD71C,0.5000*%
%ADD77C,0.3000*%
%ADD78C,1.4000*%
%ADD79C,1.0600*%
%ADD80P,1.4991X4X98.0*%
%ADD81C,0.7500*%
%ADD83C,1.0000*%
%ADD85R,1.0000X0.7000*%
G04:AMPARAMS|DCode=86|XSize=0.9779mm|YSize=0.3048mm|CornerRadius=0mm|HoleSize=0mm|Usage=FLASHONLY|Rotation=233.000|XOffset=0mm|YOffset=0mm|HoleType=Round|Shape=Rectangle|*
%AMROTATEDRECTD86*
4,1,4,0.1725,0.4822,0.4160,0.2988,-0.1725,-0.4822,-0.4160,-0.2988,0.1725,0.4822,0.0*
%
%ADD86ROTATEDRECTD86*%

%ADD87R,0.8000X1.5000*%
%ADD88R,1.4500X2.0000*%
G04:AMPARAMS|DCode=89|XSize=0.95mm|YSize=0.8mm|CornerRadius=0.1mm|HoleSize=0mm|Usage=FLASHONLY|Rotation=180.000|XOffset=0mm|YOffset=0mm|HoleType=Round|Shape=RoundedRectangle|*
%AMROUNDEDRECTD89*
21,1,0.9500,0.6000,0,0,180.0*
21,1,0.7500,0.8000,0,0,180.0*
1,1,0.2000,-0.3750,0.3000*
1,1,0.2000,0.3750,0.3000*
1,1,0.2000,0.3750,-0.3000*
1,1,0.2000,-0.3750,-0.3000*
%
%ADD89ROUNDEDRECTD89*%
%ADD90R,2.0000X2.0000*%
%ADD91R,0.7000X0.9000*%
%ADD92R,0.9000X0.7000*%
G04:AMPARAMS|DCode=93|XSize=0.7154mm|YSize=0.6725mm|CornerRadius=0mm|HoleSize=0mm|Usage=FLASHONLY|Rotation=127.000|XOffset=0mm|YOffset=0mm|HoleType=Round|Shape=Rectangle|*
%AMROTATEDRECTD93*
4,1,4,0.4838,-0.0833,-0.0533,-0.4880,-0.4838,0.0833,0.0533,0.4880,0.4838,-0.0833,0.0*
%
%ADD93ROTATEDRECTD93*%

%ADD94R,0.8000X0.4000*%
%ADD95R,0.4000X0.5000*%
%ADD96P,1.4142X4X98.0*%
G04:AMPARAMS|DCode=97|XSize=0.7154mm|YSize=0.6725mm|CornerRadius=0mm|HoleSize=0mm|Usage=FLASHONLY|Rotation=143.000|XOffset=0mm|YOffset=0mm|HoleType=Round|Shape=Rectangle|*
%AMROTATEDRECTD97*
4,1,4,0.4880,0.0533,0.0833,-0.4838,-0.4880,-0.0533,-0.0833,0.4838,0.4880,0.0533,0.0*
%
%ADD97ROTATEDRECTD97*%

%ADD98R,0.7000X1.3000*%
%ADD99R,1.0121X1.2084*%
%ADD100R,0.4800X0.4000*%
%ADD101R,2.2200X0.7400*%
G36*
X14167Y248179D02*
X29464Y246831D01*
X44650Y244541D01*
X59664Y241317D01*
X61460Y240814D01*
X61287Y239555D01*
X48478D01*
X48391Y239766D01*
X47266Y240891D01*
X45796Y241500D01*
X44204D01*
X42734Y240891D01*
X41609Y239766D01*
X41000Y238296D01*
Y236704D01*
X41609Y235234D01*
X42734Y234109D01*
X44204Y233500D01*
X45796D01*
X47266Y234109D01*
X48391Y235234D01*
X48478Y235445D01*
X66639D01*
X67823Y235363D01*
X67867Y235345D01*
X69025Y235075D01*
X78707Y232008D01*
X79916Y231625D01*
X81031Y231186D01*
X81101Y231158D01*
X81102Y231157D01*
X82312Y230785D01*
X93967Y226290D01*
X95114Y225754D01*
X95122Y225751D01*
X96306Y225304D01*
X107664Y220103D01*
X108775Y219497D01*
X108784Y219494D01*
X109939Y218976D01*
X120956Y213088D01*
X122028Y212414D01*
X122028Y212414D01*
X122378Y212232D01*
X123157Y211823D01*
X133794Y205271D01*
X134820Y204532D01*
X134829Y204528D01*
X135912Y203875D01*
X145089Y197413D01*
X146128Y196681D01*
X147105Y195879D01*
X147114Y195876D01*
X147230Y195893D01*
X148061Y195234D01*
X148641Y194770D01*
X148195Y193500D01*
X147204D01*
X145734Y192891D01*
X144609Y191766D01*
X144522Y191556D01*
X143188D01*
X142402Y191399D01*
X141735Y190954D01*
X141735Y190953D01*
X141587Y190805D01*
X136000D01*
X135213Y190649D01*
X134546Y190203D01*
X134101Y189537D01*
X133945Y188750D01*
Y181250D01*
X134101Y180463D01*
X134546Y179797D01*
X135213Y179351D01*
X136000Y179195D01*
X142000D01*
X142787Y179351D01*
X143286Y178254D01*
X143366Y178023D01*
X141149Y175805D01*
X136000D01*
X135213Y175649D01*
X134546Y175203D01*
X134101Y174537D01*
X133945Y173750D01*
Y166729D01*
X132708Y166170D01*
X131055Y167822D01*
Y173750D01*
X130899Y174537D01*
X130454Y175203D01*
X129787Y175649D01*
X129000Y175805D01*
X123000D01*
X122654Y175737D01*
X122161Y175692D01*
X121274Y176412D01*
X120828Y177079D01*
X120828Y177079D01*
X116073Y181834D01*
X116104Y181978D01*
X116699Y183004D01*
X117000Y182945D01*
X117000Y182945D01*
X120944D01*
Y181250D01*
X121101Y180463D01*
X121546Y179797D01*
X122213Y179351D01*
X123000Y179195D01*
X129000D01*
X129787Y179351D01*
X130454Y179797D01*
X130899Y180463D01*
X131055Y181250D01*
Y188750D01*
X130899Y189537D01*
X130454Y190203D01*
X129787Y190649D01*
X129000Y190805D01*
X123000D01*
X122213Y190649D01*
X121546Y190203D01*
X121101Y189537D01*
X120944Y188750D01*
Y187055D01*
X117851D01*
X115016Y189891D01*
Y197016D01*
X114332D01*
X113620Y198286D01*
X114000Y199204D01*
Y200796D01*
X113391Y202266D01*
X112266Y203391D01*
X110796Y204000D01*
X109204D01*
X109000Y204137D01*
Y205296D01*
X108391Y206766D01*
X107266Y207891D01*
X105796Y208500D01*
X104204D01*
X102734Y207891D01*
X101609Y206766D01*
X101000Y205296D01*
Y204137D01*
X100796Y204000D01*
X99204D01*
X97734Y203391D01*
X97286Y202943D01*
X96016Y203469D01*
Y203516D01*
X84984D01*
Y197248D01*
X84950Y197078D01*
X82076Y194203D01*
X80806Y194729D01*
Y199500D01*
X80649Y200287D01*
X80204Y200954D01*
X79537Y201399D01*
X78750Y201556D01*
X77056D01*
Y203444D01*
X78750D01*
X79537Y203601D01*
X80204Y204046D01*
X80649Y204713D01*
X80806Y205500D01*
Y208944D01*
X90622D01*
Y208122D01*
X99807D01*
Y216878D01*
X98552D01*
X98391Y217266D01*
X97266Y218391D01*
X95796Y219000D01*
X94204D01*
X92734Y218391D01*
X91609Y217266D01*
X91448Y216878D01*
X90622D01*
Y213055D01*
X80051D01*
X79537Y213399D01*
X78750Y213556D01*
X71250D01*
X70463Y213399D01*
X69797Y212953D01*
X69351Y212287D01*
X69194Y211500D01*
Y205500D01*
X69351Y204713D01*
X69797Y204046D01*
X70463Y203601D01*
X71250Y203444D01*
X72944D01*
Y201556D01*
X71250D01*
X70463Y201399D01*
X69797Y200954D01*
X69351Y200287D01*
X69194Y199500D01*
Y193500D01*
X69351Y192713D01*
X69797Y192047D01*
X70463Y191601D01*
X71250Y191444D01*
X77521D01*
X78047Y190175D01*
X76436Y188564D01*
X76430Y188556D01*
X71250D01*
X70463Y188399D01*
X69797Y187953D01*
X69351Y187287D01*
X69194Y186500D01*
Y180500D01*
X69351Y179713D01*
X69797Y179047D01*
X70463Y178601D01*
X71250Y178444D01*
X72435D01*
Y176556D01*
X71250D01*
X70463Y176399D01*
X69797Y175953D01*
X69351Y175287D01*
X69194Y174500D01*
Y170072D01*
X61687Y162565D01*
X30000D01*
X29018Y162370D01*
X28186Y161814D01*
X-1063Y132565D01*
X-16909D01*
X-17734Y133391D01*
X-19204Y134000D01*
X-20796D01*
X-22266Y133391D01*
X-23391Y132266D01*
X-24000Y130796D01*
Y129204D01*
X-23391Y127734D01*
X-22266Y126609D01*
X-20796Y126000D01*
X-19204D01*
X-18775Y126178D01*
X-18056Y125101D01*
X-18391Y124766D01*
X-19000Y123296D01*
Y122703D01*
X-20270Y122177D01*
X-41912Y143819D01*
Y149026D01*
X-41697Y149200D01*
X-40642Y149589D01*
X-40287Y149351D01*
X-39500Y149194D01*
X-33500D01*
X-32713Y149351D01*
X-32046Y149796D01*
X-31601Y150463D01*
X-31444Y151250D01*
Y158750D01*
X-31601Y159537D01*
X-32046Y160203D01*
X-32713Y160649D01*
X-33500Y160805D01*
X-39500D01*
X-40287Y160649D01*
X-40642Y160411D01*
X-41697Y160800D01*
X-41912Y160974D01*
Y162498D01*
X-41912Y162498D01*
X-42069Y163285D01*
X-42515Y163952D01*
X-45334Y166771D01*
X-44848Y167945D01*
X-41556D01*
Y166250D01*
X-41399Y165463D01*
X-40953Y164797D01*
X-40287Y164351D01*
X-39500Y164195D01*
X-33500D01*
X-32713Y164351D01*
X-32046Y164797D01*
X-31601Y165463D01*
X-31444Y166250D01*
Y173750D01*
X-31601Y174537D01*
X-32046Y175203D01*
X-32713Y175649D01*
X-33500Y175805D01*
X-39500D01*
X-40287Y175649D01*
X-40953Y175203D01*
X-41399Y174537D01*
X-41556Y173750D01*
Y172055D01*
X-46944D01*
Y191071D01*
X-47049Y191596D01*
X-46217Y192249D01*
X-46002Y192345D01*
X-41556Y187899D01*
Y181250D01*
X-41399Y180463D01*
X-40953Y179797D01*
X-40287Y179351D01*
X-39500Y179195D01*
X-33500D01*
X-32713Y179351D01*
X-32046Y179797D01*
X-31601Y180463D01*
X-31444Y181250D01*
Y188750D01*
X-31601Y189537D01*
X-32046Y190203D01*
X-32713Y190649D01*
X-33500Y190805D01*
X-38649D01*
X-49695Y201852D01*
X-49630Y202344D01*
X-49251Y203122D01*
X-43122D01*
Y205149D01*
X-36878D01*
Y203122D01*
X-28122D01*
Y212307D01*
X-36878D01*
Y210280D01*
X-43122D01*
Y212307D01*
X-51878D01*
Y203841D01*
X-51878Y203122D01*
X-52920Y202572D01*
X-54222D01*
X-55120Y203618D01*
X-55092Y204251D01*
X-54109Y205234D01*
X-53500Y206704D01*
Y208296D01*
X-54109Y209766D01*
X-55234Y210891D01*
X-55622Y211052D01*
Y212307D01*
X-64378D01*
Y203122D01*
X-62835D01*
X-62456Y202343D01*
X-62392Y201852D01*
X-66969Y197274D01*
X-67415Y196607D01*
X-67572Y195820D01*
X-67572Y195820D01*
Y185945D01*
X-67572Y185945D01*
X-67415Y185158D01*
X-66969Y184492D01*
X-61215Y178738D01*
X-60963Y177951D01*
X-60891Y177266D01*
X-61500Y175796D01*
Y174204D01*
X-61413Y173994D01*
X-63953Y171453D01*
X-64399Y170787D01*
X-64556Y170000D01*
X-64556Y170000D01*
Y165429D01*
X-64556Y165429D01*
X-64399Y164642D01*
X-63953Y163976D01*
X-61989Y162011D01*
X-61823Y161900D01*
X-55072Y155149D01*
Y136835D01*
X-58761Y133146D01*
X-59935Y133632D01*
Y135883D01*
X-59109Y136708D01*
X-58500Y138179D01*
Y139770D01*
X-59109Y141240D01*
X-60234Y142365D01*
X-60680Y142550D01*
Y143925D01*
X-60234Y144109D01*
X-59109Y145234D01*
X-58500Y146704D01*
Y148296D01*
X-59109Y149766D01*
X-60234Y150891D01*
X-61704Y151500D01*
X-63296D01*
X-64766Y150891D01*
X-65891Y149766D01*
X-65978Y149556D01*
X-81899D01*
X-94194Y161851D01*
Y167000D01*
X-94351Y167787D01*
X-94796Y168453D01*
X-95463Y168899D01*
X-96250Y169056D01*
X-103750D01*
X-104537Y168899D01*
X-105204Y168453D01*
X-105649Y167787D01*
X-105806Y167000D01*
Y161851D01*
X-110310Y157347D01*
X-112638D01*
X-112638Y157347D01*
X-112836Y157307D01*
X-117164D01*
X-117362Y157347D01*
X-117362Y157347D01*
X-119690D01*
X-124194Y161851D01*
Y167000D01*
X-124351Y167787D01*
X-124796Y168454D01*
X-125463Y168899D01*
X-126250Y169056D01*
X-133750D01*
X-134537Y168899D01*
X-135204Y168454D01*
X-135649Y167787D01*
X-135806Y167000D01*
Y161000D01*
X-135649Y160213D01*
X-135204Y159546D01*
X-134537Y159101D01*
X-133750Y158945D01*
X-127101D01*
X-125323Y157166D01*
X-125948Y155996D01*
X-126250Y156055D01*
X-133750D01*
X-134537Y155899D01*
X-135204Y155454D01*
X-135649Y154787D01*
X-136704Y154000D01*
X-138296D01*
X-139766Y153391D01*
X-140891Y152266D01*
X-141500Y150796D01*
Y149204D01*
X-140891Y147734D01*
X-139766Y146609D01*
X-138296Y146000D01*
X-136704D01*
X-135243Y146605D01*
X-135204Y146546D01*
X-134537Y146101D01*
X-133750Y145944D01*
X-126250D01*
X-125463Y146101D01*
X-124796Y146546D01*
X-124351Y147213D01*
X-124194Y148000D01*
Y154000D01*
X-124255Y154302D01*
X-123084Y154927D01*
X-121995Y153838D01*
X-121328Y153392D01*
X-120541Y153236D01*
X-119378Y153066D01*
Y148122D01*
X-110622D01*
Y153066D01*
X-109459Y153236D01*
X-108672Y153392D01*
X-108005Y153838D01*
X-106916Y154927D01*
X-105745Y154301D01*
X-105806Y154000D01*
Y148000D01*
X-105649Y147213D01*
X-105204Y146546D01*
X-104537Y146101D01*
X-103750Y145944D01*
X-102840D01*
X-102678Y144675D01*
X-103642Y143707D01*
X-157255D01*
X-157369Y143824D01*
X-157968Y144869D01*
X-157534Y145444D01*
X-151172D01*
X-151172Y145444D01*
X-150385Y145601D01*
X-149718Y146046D01*
X-141046Y154718D01*
X-140601Y155385D01*
X-140444Y156172D01*
X-140444Y156172D01*
Y166649D01*
X-134149Y172945D01*
X-91500D01*
Y171704D01*
X-90891Y170234D01*
X-90230Y169573D01*
X-89907Y168750D01*
X-90230Y167927D01*
X-90891Y167266D01*
X-91500Y165796D01*
Y164204D01*
X-90891Y162734D01*
X-89766Y161609D01*
X-88296Y161000D01*
X-86704D01*
X-85234Y161609D01*
X-84109Y162734D01*
X-83500Y164204D01*
Y165796D01*
X-83587Y166006D01*
X-81047Y168547D01*
X-81046Y168547D01*
X-80601Y169213D01*
X-80444Y170000D01*
Y174571D01*
X-80601Y175358D01*
X-81046Y176024D01*
X-81047Y176024D01*
X-84492Y179470D01*
X-85158Y179915D01*
X-85945Y180072D01*
X-85945Y180072D01*
X-96226D01*
X-96752Y181341D01*
X-96609Y181484D01*
X-96000Y182954D01*
Y183494D01*
X-95463Y183601D01*
X-94796Y184046D01*
X-94351Y184713D01*
X-94194Y185500D01*
Y189242D01*
X-92924Y189768D01*
X-92266Y189109D01*
X-90796Y188500D01*
X-89204D01*
X-87734Y189109D01*
X-86609Y190234D01*
X-86000Y191704D01*
Y193296D01*
X-86609Y194766D01*
X-87270Y195427D01*
X-87593Y196250D01*
X-87270Y197073D01*
X-86609Y197734D01*
X-86000Y199204D01*
Y200796D01*
X-86609Y202266D01*
X-87734Y203391D01*
X-89204Y204000D01*
X-90796D01*
X-92033Y203487D01*
X-92977Y203774D01*
X-93434Y204019D01*
X-93498Y204345D01*
X-91338Y206505D01*
X-90892Y207172D01*
X-90736Y207959D01*
Y210622D01*
X-85622D01*
Y212123D01*
X-84372Y212641D01*
X-83247Y213766D01*
X-82638Y215236D01*
Y216828D01*
X-83247Y218298D01*
X-84372Y219423D01*
X-85842Y220032D01*
X-87433D01*
X-88903Y219423D01*
X-88948Y219378D01*
X-93923D01*
X-94807Y219378D01*
X-96077Y219378D01*
X-104378D01*
Y210622D01*
X-95193Y210622D01*
X-94847Y209495D01*
Y208810D01*
X-97101Y206556D01*
X-103750D01*
X-104537Y206399D01*
X-105204Y205953D01*
X-105649Y205287D01*
X-105806Y204500D01*
Y203556D01*
X-109194D01*
Y204500D01*
X-109351Y205287D01*
X-109796Y205953D01*
X-110463Y206399D01*
X-111250Y206556D01*
X-118750D01*
X-119537Y206399D01*
X-120204Y205953D01*
X-120649Y205287D01*
X-120806Y204500D01*
Y198500D01*
X-120649Y197713D01*
X-120204Y197047D01*
X-119537Y196601D01*
X-118750Y196444D01*
X-111250D01*
X-110463Y196601D01*
X-109796Y197047D01*
X-109351Y197713D01*
X-109194Y198500D01*
Y199445D01*
X-105806D01*
Y198500D01*
X-105649Y197713D01*
X-105204Y197047D01*
X-104537Y196601D01*
X-103750Y196444D01*
X-96250D01*
X-95463Y196601D01*
X-94796Y197047D01*
X-94602Y197338D01*
X-94239Y197457D01*
X-93410Y197518D01*
X-93112Y197455D01*
X-92730Y197073D01*
X-92407Y196250D01*
X-92730Y195427D01*
X-93391Y194766D01*
X-93826Y193716D01*
X-93948Y193620D01*
X-94964Y193276D01*
X-95270Y193270D01*
X-95463Y193399D01*
X-96250Y193556D01*
X-103750D01*
X-104537Y193399D01*
X-105204Y192953D01*
X-105649Y192287D01*
X-105806Y191500D01*
Y185500D01*
X-105649Y184713D01*
X-105204Y184046D01*
X-104537Y183601D01*
X-104000Y183494D01*
Y182954D01*
X-103391Y181484D01*
X-103248Y181341D01*
X-103774Y180072D01*
X-164484D01*
X-164484Y180072D01*
X-165271Y179915D01*
X-165938Y179470D01*
X-181453Y163953D01*
X-181899Y163287D01*
X-182055Y162500D01*
X-182055Y162500D01*
Y152232D01*
X-182055Y152232D01*
X-181899Y151445D01*
X-181453Y150778D01*
X-180297Y149622D01*
X-183279Y145665D01*
X-180494Y143567D01*
X-180679Y142115D01*
X-181286Y141864D01*
X-182411Y140739D01*
X-183020Y139269D01*
Y137677D01*
X-182697Y136896D01*
X-184064Y135528D01*
X-187664D01*
X-187665Y135528D01*
X-188451Y135372D01*
X-189118Y134926D01*
X-189118Y134926D01*
X-194088Y129957D01*
X-194743Y130451D01*
X-201851Y121018D01*
X-198760Y118689D01*
X-199115Y117366D01*
X-202100Y117000D01*
X-202299Y116934D01*
X-203074Y116832D01*
X-204784Y116123D01*
X-206253Y114996D01*
X-206641Y114491D01*
X-206697Y114453D01*
X-207837Y115023D01*
X-211593Y117854D01*
X-212316Y118202D01*
X-213116Y118248D01*
X-213873Y117983D01*
X-214472Y117449D01*
X-218985Y111459D01*
X-219334Y110737D01*
X-219379Y109936D01*
X-219115Y109179D01*
X-218581Y108581D01*
X-214795Y105728D01*
X-214301Y104343D01*
X-214453Y103977D01*
X-214509Y103887D01*
X-214538Y103848D01*
X-231320Y68764D01*
X-231746Y67874D01*
X-231846Y67666D01*
X-231857Y67671D01*
X-231886Y67627D01*
X-232275Y66556D01*
X-232314Y66458D01*
X-232555Y64625D01*
X-232555D01*
X-232534Y64605D01*
X-232571Y-18743D01*
X-232572Y-19988D01*
X-232572Y-19988D01*
X-232630Y-19988D01*
X-232631Y-19990D01*
X-232626Y-20011D01*
X-232572Y-20066D01*
X-232572Y-21258D01*
Y-23860D01*
X-232631D01*
X-232240Y-25824D01*
X-231818Y-26456D01*
X-231746Y-26633D01*
X-231421Y-27132D01*
X-231310Y-27245D01*
X-230515Y-28280D01*
X-229046Y-29407D01*
X-227646Y-29987D01*
X-227577Y-30024D01*
X-225766Y-30581D01*
Y-36466D01*
X-201534D01*
Y-29882D01*
X-200443Y-29231D01*
X-198466Y-30298D01*
Y-36466D01*
X-174234D01*
Y-27034D01*
X-195858D01*
X-200617Y-24467D01*
X-200688Y-24445D01*
X-200977Y-24252D01*
X-202414Y-23966D01*
X-202414Y-23981D01*
X-225370Y-23214D01*
X-225378Y-23185D01*
X-225391Y-23155D01*
X-225445Y-23133D01*
Y-19990D01*
X-225445Y-19990D01*
X-225441Y-12208D01*
X-224724Y-11153D01*
X-224722Y-11150D01*
X-168250D01*
X-167472Y-10828D01*
X-167150Y-10050D01*
Y4444D01*
X-163305D01*
Y3500D01*
X-163149Y2713D01*
X-162703Y2047D01*
X-162037Y1601D01*
X-161250Y1444D01*
X-153750D01*
X-152963Y1601D01*
X-152296Y2047D01*
X-151851Y2713D01*
X-151694Y3500D01*
Y9500D01*
X-151851Y10287D01*
X-152296Y10954D01*
X-152963Y11399D01*
X-153750Y11556D01*
X-161250D01*
X-162037Y11399D01*
X-162703Y10954D01*
X-163149Y10287D01*
X-163305Y9500D01*
Y8555D01*
X-167150D01*
Y10050D01*
X-167472Y10828D01*
X-168250Y11150D01*
X-224533D01*
X-225430Y12048D01*
X-225424Y25892D01*
X-224707Y26948D01*
X-224705Y26950D01*
X-168250D01*
X-167472Y27272D01*
X-167150Y28050D01*
Y48150D01*
X-167472Y48928D01*
X-167521Y50322D01*
X-165149Y52695D01*
X-163719D01*
X-163454Y52297D01*
X-162787Y51851D01*
X-162000Y51694D01*
X-156000D01*
X-155213Y51851D01*
X-154878Y52075D01*
X-154068Y51089D01*
X-156851Y48306D01*
X-162000D01*
X-162787Y48149D01*
X-163454Y47703D01*
X-163899Y47037D01*
X-164056Y46250D01*
Y38750D01*
X-163899Y37963D01*
X-163454Y37297D01*
X-162894Y36923D01*
X-162866Y36876D01*
X-162722Y36302D01*
X-162632Y35525D01*
X-163391Y34766D01*
X-164000Y33296D01*
Y31704D01*
X-163391Y30234D01*
X-162730Y29573D01*
X-162407Y28750D01*
X-162730Y27927D01*
X-163391Y27266D01*
X-164000Y25796D01*
Y24204D01*
X-163391Y22734D01*
X-162730Y22073D01*
X-162407Y21250D01*
X-162730Y20427D01*
X-163391Y19766D01*
X-164000Y18296D01*
Y16704D01*
X-163391Y15234D01*
X-162266Y14109D01*
X-160796Y13500D01*
X-159204D01*
X-157734Y14109D01*
X-156609Y15234D01*
X-156000Y16704D01*
Y18296D01*
X-156609Y19766D01*
X-157270Y20427D01*
X-157593Y21250D01*
X-157270Y22073D01*
X-156609Y22734D01*
X-156000Y24204D01*
Y25796D01*
X-156609Y27266D01*
X-157270Y27927D01*
X-157593Y28750D01*
X-157270Y29573D01*
X-156609Y30234D01*
X-156000Y31704D01*
Y33296D01*
X-156609Y34766D01*
X-157268Y35424D01*
X-156742Y36695D01*
X-156000D01*
X-155213Y36851D01*
X-154547Y37297D01*
X-154101Y37963D01*
X-153945Y38750D01*
Y45399D01*
X-147649Y51694D01*
X-143000D01*
X-142213Y51851D01*
X-141547Y52297D01*
X-141101Y52963D01*
X-140944Y53750D01*
Y61250D01*
X-141101Y62037D01*
X-141547Y62703D01*
X-142213Y63149D01*
X-142623Y63231D01*
X-142948Y64302D01*
X-142936Y64549D01*
X-142313Y64965D01*
X-135244Y72034D01*
X-131732Y69387D01*
X-124491Y78996D01*
X-134100Y86237D01*
X-141341Y76628D01*
Y76628D01*
X-141305Y76112D01*
X-146333Y71085D01*
X-149837D01*
X-150222Y72355D01*
X-150092Y72442D01*
X-132911Y89622D01*
X-128676D01*
X-120900Y83763D01*
X-116484Y89622D01*
X-92081D01*
X-91554Y88352D01*
X-114675Y65232D01*
X-115944Y65759D01*
Y66250D01*
X-116101Y67037D01*
X-116546Y67703D01*
X-117213Y68149D01*
X-118000Y68306D01*
X-124000D01*
X-124787Y68149D01*
X-125453Y67703D01*
X-125899Y67037D01*
X-126055Y66250D01*
Y58750D01*
X-125899Y57963D01*
X-125453Y57297D01*
X-124787Y56851D01*
X-124000Y56694D01*
X-122072D01*
Y43478D01*
X-122282Y43391D01*
X-123407Y42266D01*
X-124016Y40796D01*
Y39204D01*
X-123579Y38148D01*
X-124211Y36878D01*
X-127307D01*
Y28122D01*
X-123567D01*
X-123407Y27734D01*
X-122741Y27069D01*
X-122415Y26260D01*
X-122735Y25422D01*
X-123391Y24766D01*
X-123478Y24555D01*
X-145622D01*
Y24807D01*
X-154378D01*
Y15622D01*
X-145622D01*
Y20445D01*
X-123478D01*
X-123391Y20234D01*
X-122266Y19109D01*
X-120796Y18500D01*
X-119204D01*
X-118326Y18864D01*
X-117056Y18128D01*
Y10101D01*
X-118575Y8582D01*
X-118760Y8306D01*
X-121742D01*
X-122268Y9575D01*
X-121609Y10234D01*
X-121000Y11704D01*
Y13296D01*
X-121609Y14766D01*
X-122734Y15891D01*
X-124204Y16500D01*
X-125796D01*
X-127266Y15891D01*
X-128391Y14766D01*
X-129000Y13296D01*
Y11704D01*
X-128391Y10234D01*
X-127266Y9109D01*
X-126216Y8674D01*
X-126120Y8551D01*
X-125776Y7536D01*
X-125770Y7230D01*
X-125899Y7037D01*
X-126055Y6250D01*
Y-1250D01*
X-125899Y-2037D01*
X-125453Y-2704D01*
X-124787Y-3149D01*
X-124000Y-3305D01*
X-120758D01*
X-120232Y-4575D01*
X-120891Y-5234D01*
X-121496Y-6694D01*
X-124000D01*
X-124787Y-6851D01*
X-125453Y-7297D01*
X-125899Y-7963D01*
X-126055Y-8750D01*
Y-16250D01*
X-125899Y-17037D01*
X-125453Y-17703D01*
X-124787Y-18149D01*
X-124000Y-18305D01*
X-118000D01*
X-117213Y-18149D01*
X-116546Y-17703D01*
X-116101Y-17037D01*
X-115944Y-16250D01*
Y-11185D01*
X-115234Y-10891D01*
X-114926Y-10583D01*
X-113849Y-11302D01*
X-114016Y-11704D01*
Y-13296D01*
X-113407Y-14766D01*
X-112282Y-15891D01*
X-111574Y-16184D01*
X-111427Y-16448D01*
X-111205Y-17673D01*
X-111399Y-17963D01*
X-111556Y-18750D01*
Y-26250D01*
X-111399Y-27037D01*
X-110954Y-27703D01*
X-110287Y-28149D01*
X-109500Y-28305D01*
X-108555D01*
Y-36695D01*
X-109500D01*
X-110287Y-36851D01*
X-110954Y-37297D01*
X-111399Y-37963D01*
X-111556Y-38750D01*
Y-46250D01*
X-111399Y-47037D01*
X-110954Y-47703D01*
X-110287Y-48149D01*
X-109500Y-48306D01*
X-105072D01*
X-102849Y-50529D01*
X-103474Y-51700D01*
X-103500Y-51694D01*
X-109500D01*
X-110287Y-51851D01*
X-110954Y-52297D01*
X-111399Y-52963D01*
X-111556Y-53750D01*
Y-60399D01*
X-114006Y-62849D01*
X-115117D01*
X-115351Y-62655D01*
X-116010Y-61579D01*
X-115944Y-61250D01*
Y-53750D01*
X-116101Y-52963D01*
X-116547Y-52297D01*
X-117213Y-51851D01*
X-118000Y-51694D01*
X-124000D01*
X-124787Y-51851D01*
X-125454Y-52297D01*
X-125899Y-52963D01*
X-126055Y-53750D01*
Y-58237D01*
X-126735Y-59194D01*
X-127521Y-59351D01*
X-127675Y-59453D01*
X-128945Y-58816D01*
Y-53750D01*
X-129101Y-52963D01*
X-129547Y-52297D01*
X-130213Y-51851D01*
X-131000Y-51694D01*
X-131945D01*
Y-48306D01*
X-131000D01*
X-130213Y-48149D01*
X-129546Y-47703D01*
X-129101Y-47037D01*
X-128945Y-46250D01*
Y-38750D01*
X-129101Y-37963D01*
X-129546Y-37297D01*
X-130213Y-36851D01*
X-131000Y-36695D01*
X-136899D01*
X-139497Y-34096D01*
X-139030Y-32767D01*
X-138453Y-32703D01*
X-137787Y-33149D01*
X-137000Y-33305D01*
X-131000D01*
X-130213Y-33149D01*
X-129547Y-32703D01*
X-129101Y-32037D01*
X-128945Y-31250D01*
Y-23750D01*
X-129101Y-22963D01*
X-129547Y-22297D01*
X-130213Y-21851D01*
X-131000Y-21695D01*
X-137000D01*
X-137787Y-21851D01*
X-138454Y-22297D01*
X-138899Y-22963D01*
X-139056Y-23750D01*
Y-28194D01*
X-141399D01*
X-141399Y-28194D01*
X-142185Y-28351D01*
X-142852Y-28797D01*
X-142852Y-28797D01*
X-143984Y-29929D01*
X-149099D01*
X-151694Y-27333D01*
Y-9500D01*
Y-3500D01*
X-151851Y-2713D01*
X-152296Y-2046D01*
X-152963Y-1601D01*
X-153750Y-1444D01*
X-161250D01*
X-162037Y-1601D01*
X-162703Y-2046D01*
X-163149Y-2713D01*
X-163305Y-3500D01*
Y-5165D01*
X-163375Y-5234D01*
X-163984Y-6704D01*
Y-8296D01*
X-163375Y-9766D01*
X-163222Y-9919D01*
X-163149Y-10287D01*
X-162703Y-10953D01*
X-162954Y-12313D01*
X-163375Y-12734D01*
X-163984Y-14204D01*
Y-15796D01*
X-163375Y-17266D01*
X-162719Y-17922D01*
X-162399Y-18760D01*
X-162726Y-19569D01*
X-163391Y-20234D01*
X-164000Y-21704D01*
Y-23296D01*
X-163391Y-24766D01*
X-162516Y-25641D01*
Y-30516D01*
X-158591D01*
X-152654Y-36453D01*
X-152654Y-36453D01*
X-151987Y-36899D01*
X-151200Y-37055D01*
X-142351D01*
X-139056Y-40351D01*
Y-46250D01*
X-138899Y-47037D01*
X-138453Y-47703D01*
X-137787Y-48149D01*
X-137000Y-48306D01*
X-136055D01*
Y-51694D01*
X-137000D01*
X-137787Y-51851D01*
X-138454Y-52297D01*
X-138899Y-52963D01*
X-139056Y-53750D01*
Y-61250D01*
X-140159Y-62210D01*
X-144883D01*
X-156087Y-51006D01*
X-156000Y-50796D01*
Y-49204D01*
X-156609Y-47734D01*
X-157734Y-46609D01*
X-159204Y-46000D01*
X-160796D01*
X-162266Y-46609D01*
X-163391Y-47734D01*
X-164000Y-49204D01*
Y-50796D01*
X-163391Y-52266D01*
X-162266Y-53391D01*
X-160796Y-54000D01*
X-159204D01*
X-158994Y-53913D01*
X-147188Y-65719D01*
X-147188Y-65719D01*
X-146521Y-66165D01*
X-145734Y-66322D01*
X-145734Y-66322D01*
X-130341D01*
X-129921Y-66712D01*
X-129515Y-67368D01*
X-129471Y-67561D01*
X-129556Y-67985D01*
X-129556Y-67985D01*
Y-76649D01*
X-140851Y-87944D01*
X-156522D01*
X-156609Y-87734D01*
X-157734Y-86609D01*
X-159204Y-86000D01*
X-160796D01*
X-162266Y-86609D01*
X-163391Y-87734D01*
X-164000Y-89204D01*
Y-90796D01*
X-163391Y-92266D01*
X-162266Y-93391D01*
X-160796Y-94000D01*
X-159204D01*
X-157734Y-93391D01*
X-156609Y-92266D01*
X-156522Y-92056D01*
X-140000D01*
X-140000Y-92056D01*
X-139213Y-91899D01*
X-138546Y-91454D01*
X-126047Y-78953D01*
X-126046Y-78953D01*
X-125601Y-78287D01*
X-124787Y-78149D01*
X-124000Y-78306D01*
X-118000D01*
X-117213Y-78149D01*
X-117096Y-78071D01*
X-114851D01*
X-112203Y-80719D01*
X-111536Y-81165D01*
X-110749Y-81321D01*
X-110749Y-81321D01*
X-99516D01*
X-99516Y-81321D01*
X-98729Y-81165D01*
X-98062Y-80719D01*
X-95649Y-78306D01*
X-90500D01*
X-89713Y-78149D01*
X-89046Y-77703D01*
X-88614Y-77056D01*
X-82016D01*
Y-78016D01*
X-71984D01*
Y-72786D01*
X-71984Y-71984D01*
X-71984Y-70714D01*
Y-65484D01*
X-82016D01*
Y-65484D01*
X-83286Y-65557D01*
X-88444Y-60399D01*
Y-53750D01*
X-88474Y-53601D01*
X-87612Y-52331D01*
X-86047D01*
X-83306Y-55072D01*
Y-59500D01*
X-83149Y-60287D01*
X-82704Y-60953D01*
X-82037Y-61399D01*
X-81250Y-61556D01*
X-73750D01*
X-72963Y-61399D01*
X-72297Y-60953D01*
X-71851Y-60287D01*
X-71694Y-59500D01*
Y-59065D01*
X-63306D01*
Y-59500D01*
X-63149Y-60287D01*
X-62703Y-60953D01*
X-62037Y-61399D01*
X-61250Y-61556D01*
X-53750D01*
X-52963Y-61399D01*
X-52297Y-60953D01*
X-51851Y-60287D01*
X-51694Y-59500D01*
Y-59065D01*
X-47222D01*
X-46241Y-58870D01*
X-45408Y-58314D01*
X-42729Y-55634D01*
X-41556Y-56120D01*
Y-60399D01*
X-53101Y-71944D01*
X-57000D01*
X-57000Y-71944D01*
X-57199Y-71984D01*
X-63016D01*
Y-77214D01*
X-63016Y-78016D01*
X-63016Y-79286D01*
Y-84516D01*
X-52984D01*
Y-83555D01*
X-44750D01*
X-44750Y-83555D01*
X-43963Y-83399D01*
X-43296Y-82954D01*
X-38649Y-78306D01*
X-33500D01*
X-32713Y-78149D01*
X-32046Y-77703D01*
X-31601Y-77037D01*
X-31444Y-76250D01*
Y-68750D01*
X-31601Y-67963D01*
X-32046Y-67297D01*
X-32713Y-66851D01*
X-33500Y-66694D01*
X-39500D01*
X-40287Y-66851D01*
X-40622Y-67075D01*
X-41432Y-66089D01*
X-38649Y-63306D01*
X-33500D01*
X-32713Y-63149D01*
X-32046Y-62703D01*
X-31601Y-62037D01*
X-31444Y-61250D01*
Y-56763D01*
X-30765Y-55806D01*
X-29979Y-55649D01*
X-29312Y-55203D01*
X-26898Y-52790D01*
X-15159D01*
X-14056Y-53750D01*
Y-61250D01*
X-13899Y-62037D01*
X-13453Y-62703D01*
X-12787Y-63149D01*
X-12000Y-63306D01*
X-6000D01*
X-5213Y-63149D01*
X-4547Y-62703D01*
X-4101Y-62037D01*
X-3945Y-61250D01*
Y-53893D01*
X-3495Y-52816D01*
X-2960Y-52685D01*
X-2697Y-52633D01*
X-2031Y-52188D01*
X-1661Y-51818D01*
X-1498Y-51952D01*
X-899Y-52963D01*
X-904Y-52988D01*
X-1055Y-53750D01*
Y-61250D01*
X-899Y-62037D01*
X-453Y-62703D01*
X213Y-63149D01*
X1000Y-63306D01*
X4998D01*
X6000Y-64204D01*
Y-65796D01*
X4998Y-66694D01*
X1000D01*
X213Y-66851D01*
X-454Y-67297D01*
X-899Y-67963D01*
X-1055Y-68750D01*
Y-76250D01*
X-899Y-77037D01*
X-454Y-77703D01*
X213Y-78149D01*
X1000Y-78306D01*
X7000D01*
X7787Y-78149D01*
X8454Y-77703D01*
X8899Y-77037D01*
X9056Y-76250D01*
Y-69601D01*
X9657Y-69000D01*
X10796D01*
X12266Y-68391D01*
X13391Y-67266D01*
X14000Y-65796D01*
Y-64204D01*
X13391Y-62734D01*
X12266Y-61609D01*
X10796Y-61000D01*
X9657D01*
X9056Y-60399D01*
Y-53750D01*
X8899Y-52963D01*
X8454Y-52297D01*
X7787Y-51851D01*
X7000Y-51694D01*
X1000D01*
X238Y-51846D01*
X213Y-51851D01*
X-798Y-51252D01*
X-932Y-51089D01*
X1851Y-48306D01*
X7000D01*
X7787Y-48149D01*
X8454Y-47703D01*
X8899Y-47037D01*
X9056Y-46250D01*
Y-38750D01*
X8899Y-37963D01*
X8454Y-37297D01*
X7787Y-36851D01*
X7000Y-36695D01*
X1000D01*
X213Y-36851D01*
X-453Y-37297D01*
X-899Y-37963D01*
X-1055Y-38750D01*
Y-45399D01*
X-2834Y-47177D01*
X-4004Y-46551D01*
X-3945Y-46250D01*
Y-38750D01*
X-4101Y-37963D01*
X-4547Y-37297D01*
X-5213Y-36851D01*
X-6000Y-36695D01*
X-12000D01*
X-12787Y-36851D01*
X-13453Y-37297D01*
X-13899Y-37963D01*
X-14056Y-38750D01*
Y-46250D01*
X-13899Y-47037D01*
X-13650Y-47408D01*
X-14015Y-48424D01*
X-14213Y-48678D01*
X-18287D01*
X-18485Y-48424D01*
X-18849Y-47408D01*
X-18601Y-47037D01*
X-18444Y-46250D01*
Y-40322D01*
X-9678Y-31556D01*
X-3750D01*
X-2963Y-31399D01*
X-2297Y-30954D01*
X-1851Y-30287D01*
X-1694Y-29500D01*
Y-29065D01*
X1694D01*
Y-29500D01*
X1851Y-30287D01*
X2297Y-30954D01*
X2963Y-31399D01*
X3750Y-31556D01*
X11250D01*
X12037Y-31399D01*
X12703Y-30954D01*
X13149Y-30287D01*
X13305Y-29500D01*
Y-29065D01*
X23714D01*
X24696Y-28870D01*
X25528Y-28314D01*
X34842Y-19000D01*
X35587D01*
X48913Y-32327D01*
X48563Y-33772D01*
X47750Y-34109D01*
X46625Y-35234D01*
X46016Y-36704D01*
Y-38296D01*
X46625Y-39766D01*
X47750Y-40891D01*
X49220Y-41500D01*
X50812D01*
X52282Y-40891D01*
X53407Y-39766D01*
X54016Y-38296D01*
Y-36704D01*
X53656Y-35835D01*
X54398Y-34565D01*
X66684D01*
X67022Y-35409D01*
X67065Y-35835D01*
X65744Y-37156D01*
X64980Y-39001D01*
Y-40999D01*
X65744Y-42844D01*
X67156Y-44256D01*
X69001Y-45020D01*
X70999D01*
X72844Y-44256D01*
X73514Y-43585D01*
X134571D01*
X135943Y-43312D01*
X137106Y-42535D01*
X145001Y-34640D01*
X145778Y-33477D01*
X146051Y-32105D01*
Y60534D01*
X145778Y61906D01*
X145001Y63069D01*
X141930Y66140D01*
X142649Y67217D01*
X143172Y67000D01*
X144764D01*
X146234Y67609D01*
X147359Y68734D01*
X147968Y70204D01*
Y71796D01*
X147359Y73266D01*
X146234Y74391D01*
X144764Y75000D01*
X143172D01*
X141702Y74391D01*
X140577Y73266D01*
X139968Y71796D01*
Y70204D01*
X140185Y69681D01*
X139108Y68962D01*
X136085Y71985D01*
Y83915D01*
X145484D01*
Y79984D01*
X154516D01*
Y87918D01*
X155689Y88404D01*
X157046Y87046D01*
X157713Y86601D01*
X158500Y86445D01*
X158500Y86445D01*
X164195D01*
Y85500D01*
X164302Y84958D01*
X163789Y84330D01*
X163302Y83997D01*
X163296Y84000D01*
X161704D01*
X160234Y83391D01*
X159109Y82266D01*
X158500Y80796D01*
Y79204D01*
X159109Y77734D01*
X160234Y76609D01*
X161704Y76000D01*
X163296D01*
X164766Y76609D01*
X165592Y77435D01*
X173222D01*
X174204Y77630D01*
X175036Y78186D01*
X180112Y83262D01*
X180173Y83249D01*
X181285Y82639D01*
Y81419D01*
X181894Y79949D01*
X183020Y78823D01*
X184490Y78215D01*
X186081D01*
X187551Y78823D01*
X188676Y79949D01*
X189286Y81419D01*
Y83010D01*
X188961Y83794D01*
X189953Y84787D01*
X189953Y84787D01*
X190399Y85454D01*
X190555Y86241D01*
X190555Y86241D01*
Y89194D01*
X191500D01*
X192287Y89351D01*
X192953Y89796D01*
X193399Y90463D01*
X193556Y91250D01*
Y98750D01*
X193399Y99537D01*
X192953Y100204D01*
X192287Y100649D01*
X191500Y100806D01*
X185500D01*
X185474Y100800D01*
X184849Y101971D01*
X187072Y104194D01*
X191500D01*
X192287Y104351D01*
X192953Y104796D01*
X193399Y105463D01*
X193556Y106250D01*
Y113750D01*
X193399Y114537D01*
X192953Y115204D01*
X192287Y115649D01*
X191500Y115806D01*
X185500D01*
X184713Y115649D01*
X184046Y115204D01*
X183601Y114537D01*
X183444Y113750D01*
Y107822D01*
X177989Y102367D01*
X177432Y101534D01*
X177237Y100553D01*
Y88652D01*
X177076Y88544D01*
X175805Y89223D01*
Y91500D01*
X175649Y92287D01*
X175203Y92953D01*
X174537Y93399D01*
X173750Y93555D01*
X166250D01*
X165463Y93399D01*
X164797Y92953D01*
X164351Y92287D01*
X164195Y91500D01*
Y90555D01*
X159351D01*
X148016Y101891D01*
Y110016D01*
X145555D01*
Y114194D01*
X146500D01*
X147287Y114351D01*
X147954Y114796D01*
X148399Y115463D01*
X148555Y116250D01*
Y123750D01*
X148399Y124537D01*
X147954Y125204D01*
X147287Y125649D01*
X146500Y125806D01*
X140500D01*
X139713Y125649D01*
X139046Y125204D01*
X138601Y124537D01*
X138444Y123750D01*
Y116250D01*
X138601Y115463D01*
X139046Y114796D01*
X139713Y114351D01*
X140500Y114194D01*
X141445D01*
Y110016D01*
X138984D01*
Y98984D01*
X145109D01*
X151904Y92189D01*
X151418Y91016D01*
X149346D01*
X149000Y91085D01*
X136016D01*
Y106016D01*
X113984D01*
Y83984D01*
X128915D01*
Y70500D01*
X129188Y69128D01*
X129965Y67965D01*
X138881Y59049D01*
Y-11984D01*
X134005D01*
Y50D01*
X134005Y50D01*
X133849Y837D01*
X133404Y1504D01*
X46055Y88851D01*
Y99703D01*
X45899Y100490D01*
X45454Y101157D01*
X45453Y101157D01*
X40217Y106393D01*
X40703Y107566D01*
X64622D01*
X64622Y107566D01*
X65408Y107723D01*
X66075Y108168D01*
X82272Y124365D01*
X83426Y123760D01*
X83444Y123742D01*
Y116250D01*
X83601Y115463D01*
X84046Y114796D01*
X84713Y114351D01*
X85500Y114194D01*
X86445D01*
Y106016D01*
X73984D01*
Y83984D01*
X81415D01*
Y61798D01*
X81000Y60796D01*
Y59204D01*
X81609Y57734D01*
X82734Y56609D01*
X84204Y56000D01*
X85796D01*
X87266Y56609D01*
X88391Y57734D01*
X89000Y59204D01*
Y60796D01*
X88585Y61798D01*
Y83984D01*
X96016D01*
Y106016D01*
X90555D01*
Y114194D01*
X91500D01*
X92287Y114351D01*
X92954Y114796D01*
X93399Y115463D01*
X93555Y116250D01*
Y123750D01*
X93496Y124052D01*
X94666Y124677D01*
X96445Y122899D01*
Y116250D01*
X96601Y115463D01*
X97046Y114796D01*
X97713Y114351D01*
X98500Y114194D01*
X104500D01*
X105287Y114351D01*
X105954Y114796D01*
X106399Y115463D01*
X106556Y116250D01*
Y117944D01*
X108444D01*
Y116250D01*
X108601Y115463D01*
X109046Y114796D01*
X109713Y114351D01*
X110500Y114194D01*
X116500D01*
X117287Y114351D01*
X117954Y114796D01*
X118399Y115463D01*
X118555Y116250D01*
Y123750D01*
X118399Y124537D01*
X117954Y125204D01*
X117287Y125649D01*
X116500Y125806D01*
X110500D01*
X109713Y125649D01*
X109046Y125204D01*
X108601Y124537D01*
X108444Y123750D01*
Y122056D01*
X106556D01*
Y123750D01*
X106399Y124537D01*
X105954Y125204D01*
X105287Y125649D01*
X104500Y125806D01*
X99351D01*
X96340Y128817D01*
X96500Y129204D01*
Y130796D01*
X95891Y132266D01*
X94766Y133391D01*
X93584Y133881D01*
X93080Y135173D01*
X98351Y140444D01*
X111765D01*
X111765Y140444D01*
X112552Y140601D01*
X113219Y141046D01*
X118969Y146797D01*
X118969Y146797D01*
X119415Y147464D01*
X119572Y148251D01*
Y158754D01*
X119859Y158975D01*
X120842Y159254D01*
X120999Y159024D01*
X120944Y158750D01*
Y151250D01*
X121101Y150463D01*
X121546Y149796D01*
X122213Y149351D01*
X123000Y149194D01*
X123945D01*
Y145806D01*
X123000D01*
X122213Y145649D01*
X121546Y145204D01*
X121101Y144537D01*
X120944Y143750D01*
Y136250D01*
X121101Y135463D01*
X121546Y134796D01*
X122213Y134351D01*
X123000Y134194D01*
X129000D01*
X129787Y134351D01*
X130454Y134796D01*
X130899Y135463D01*
X131055Y136250D01*
Y143750D01*
X130899Y144537D01*
X130454Y145204D01*
X129787Y145649D01*
X129000Y145806D01*
X128055D01*
Y149194D01*
X129000D01*
X129787Y149351D01*
X130453Y149796D01*
X130899Y150463D01*
X131055Y151250D01*
Y158750D01*
X131050Y158776D01*
X132221Y159401D01*
X133945Y157678D01*
Y151250D01*
X134101Y150463D01*
X134546Y149796D01*
X135213Y149351D01*
X136000Y149194D01*
X142000D01*
X142787Y149351D01*
X143453Y149796D01*
X143899Y150463D01*
X144056Y151250D01*
Y152435D01*
X148444D01*
Y151250D01*
X148601Y150463D01*
X149047Y149796D01*
X149713Y149351D01*
X150500Y149194D01*
X154928D01*
X161000Y143122D01*
Y141954D01*
X161609Y140484D01*
X162447Y139647D01*
X162623Y138875D01*
X162447Y138104D01*
X161609Y137266D01*
X161000Y135796D01*
Y135173D01*
X160826Y134174D01*
X159827Y134000D01*
X159204D01*
X157734Y133391D01*
X156609Y132266D01*
X156000Y130796D01*
Y129204D01*
X156609Y127734D01*
X157268Y127076D01*
X156742Y125806D01*
X153500D01*
X152713Y125649D01*
X152046Y125204D01*
X151601Y124537D01*
X151445Y123750D01*
Y116250D01*
X151601Y115463D01*
X152046Y114796D01*
X152713Y114351D01*
X153500Y114194D01*
X159500D01*
X160287Y114351D01*
X160953Y114796D01*
X161399Y115463D01*
X161556Y116250D01*
Y119378D01*
X162328Y120273D01*
X163115Y120429D01*
X163782Y120875D01*
X165045Y122138D01*
X165094Y122166D01*
X166773Y122070D01*
X167234Y121609D01*
X168475Y121095D01*
X168601Y120463D01*
X169047Y119796D01*
X169713Y119351D01*
X170500Y119194D01*
X176500D01*
X177287Y119351D01*
X177953Y119796D01*
X178399Y120463D01*
X178556Y121250D01*
Y128750D01*
X178399Y129537D01*
X177953Y130203D01*
X177924Y130502D01*
X180970Y133547D01*
X181227Y133933D01*
X181508Y134229D01*
X182243Y134349D01*
X182713Y134351D01*
X183500Y134194D01*
X189399D01*
X194000Y129593D01*
Y128704D01*
X194205Y128210D01*
X193769Y127495D01*
X193308Y127056D01*
X191556D01*
Y128750D01*
X191399Y129537D01*
X190954Y130204D01*
X190287Y130649D01*
X189500Y130806D01*
X183500D01*
X182713Y130649D01*
X182047Y130204D01*
X181601Y129537D01*
X181444Y128750D01*
Y121250D01*
X181601Y120463D01*
X182047Y119796D01*
X182713Y119351D01*
X183500Y119194D01*
X189500D01*
X190287Y119351D01*
X190954Y119796D01*
X191399Y120463D01*
X191556Y121250D01*
Y122517D01*
X192826Y122768D01*
X194087Y121506D01*
X194000Y121296D01*
Y119704D01*
X194609Y118234D01*
X195734Y117109D01*
X196894Y116629D01*
X197153Y115627D01*
X197132Y115260D01*
X197047Y115204D01*
X196601Y114537D01*
X196444Y113750D01*
Y106250D01*
X196601Y105463D01*
X197047Y104796D01*
X197713Y104351D01*
X198500Y104194D01*
X204398D01*
X209000Y99593D01*
Y98704D01*
X209205Y98210D01*
X208769Y97495D01*
X208308Y97056D01*
X206556D01*
Y98750D01*
X206399Y99537D01*
X205954Y100204D01*
X205287Y100649D01*
X204500Y100806D01*
X198500D01*
X197713Y100649D01*
X197047Y100204D01*
X196601Y99537D01*
X196444Y98750D01*
Y91250D01*
X196601Y90463D01*
X197047Y89796D01*
X197713Y89351D01*
X198500Y89194D01*
X204500D01*
X205287Y89351D01*
X205954Y89796D01*
X206399Y90463D01*
X206556Y91250D01*
Y92517D01*
X207826Y92768D01*
X209087Y91506D01*
X209000Y91296D01*
Y89704D01*
X209609Y88234D01*
X210734Y87109D01*
X212204Y86500D01*
X213796D01*
X215266Y87109D01*
X216391Y88234D01*
X217000Y89704D01*
Y91296D01*
X216391Y92766D01*
X215266Y93891D01*
X214214Y94327D01*
Y95673D01*
X215266Y96109D01*
X216391Y97234D01*
X217000Y98704D01*
Y100296D01*
X216391Y101766D01*
X215266Y102891D01*
X213796Y103500D01*
X212204D01*
X211287Y103120D01*
X206703Y107704D01*
X206556Y107802D01*
Y113750D01*
X206399Y114537D01*
X205954Y115204D01*
X205287Y115649D01*
X204500Y115806D01*
X200438D01*
X200185Y117076D01*
X200266Y117109D01*
X201391Y118234D01*
X202000Y119704D01*
Y121296D01*
X201391Y122766D01*
X200266Y123891D01*
X199214Y124327D01*
Y125673D01*
X200266Y126109D01*
X201391Y127234D01*
X202000Y128704D01*
Y130296D01*
X201391Y131766D01*
X200266Y132891D01*
X198796Y133500D01*
X197204D01*
X196287Y133120D01*
X191703Y137704D01*
X191556Y137802D01*
Y143750D01*
X191399Y144537D01*
X190954Y145204D01*
X190287Y145649D01*
X189500Y145806D01*
X185456D01*
X184807Y147076D01*
X184899Y147213D01*
X185056Y148000D01*
Y163940D01*
X186325Y164434D01*
X188427Y162138D01*
X198079Y150194D01*
X206975Y137676D01*
X215082Y124634D01*
X222367Y111115D01*
X228804Y97172D01*
X234368Y82859D01*
X239037Y68229D01*
X242793Y53339D01*
X245624Y38245D01*
X247516Y23006D01*
X248465Y7678D01*
Y0D01*
Y-6297D01*
X247827Y-18876D01*
X246552Y-31405D01*
X244645Y-43855D01*
X242109Y-56192D01*
X238952Y-68384D01*
X235181Y-80401D01*
X230806Y-92211D01*
X225839Y-103785D01*
X220292Y-115091D01*
X214179Y-126103D01*
X207515Y-136791D01*
X200320Y-147127D01*
X192610Y-157086D01*
X184405Y-166641D01*
X175727Y-175769D01*
X171162Y-180107D01*
X171152Y-180121D01*
X171137Y-180131D01*
X170081Y-181168D01*
X167919Y-182933D01*
X165599Y-184475D01*
X163140Y-185784D01*
X160564Y-186846D01*
X157898Y-187651D01*
X155165Y-188193D01*
X152393Y-188465D01*
X-152370D01*
X-155097Y-188202D01*
X-157786Y-187678D01*
X-160413Y-186898D01*
X-162952Y-185870D01*
X-165381Y-184603D01*
X-167677Y-183109D01*
X-169819Y-181400D01*
X-170803Y-180447D01*
X-170813Y-180441D01*
X-170819Y-180431D01*
X-176395Y-175152D01*
X-186874Y-163926D01*
X-196639Y-152075D01*
X-205654Y-139642D01*
X-213885Y-126677D01*
X-221298Y-113229D01*
X-227868Y-99348D01*
X-233567Y-85088D01*
X-238376Y-70504D01*
X-242274Y-55650D01*
X-245248Y-40584D01*
X-247286Y-25363D01*
X-248380Y-10045D01*
X-248527Y5311D01*
X-247724Y20646D01*
X-245977Y35903D01*
X-243291Y51023D01*
X-239676Y65948D01*
X-235146Y80622D01*
X-229720Y94988D01*
X-223416Y108991D01*
X-216260Y122578D01*
X-208278Y135698D01*
X-199502Y148299D01*
X-189964Y160335D01*
X-179701Y171759D01*
X-168752Y182527D01*
X-157160Y192599D01*
X-144968Y201936D01*
X-132222Y210502D01*
X-118972Y218265D01*
X-105268Y225194D01*
X-91161Y231265D01*
X-76708Y236452D01*
X-61961Y240738D01*
X-46978Y244104D01*
X-31815Y246539D01*
X-16531Y248033D01*
X-1185Y248580D01*
X14167Y248179D01*
D02*
G37*
G36*
X153643Y190767D02*
X153654Y190759D01*
X154096Y190347D01*
X154560Y189908D01*
X155517Y189092D01*
X156426Y188182D01*
X167630Y176979D01*
X167143Y175805D01*
X163500D01*
X162713Y175649D01*
X162047Y175203D01*
X161601Y174537D01*
X161444Y173750D01*
Y166250D01*
X161601Y165463D01*
X162047Y164797D01*
X162713Y164351D01*
X163500Y164195D01*
X168649D01*
X171432Y161411D01*
X170622Y160425D01*
X170287Y160649D01*
X169500Y160805D01*
X163500D01*
X162713Y160649D01*
X162047Y160203D01*
X161601Y159537D01*
X161444Y158750D01*
Y151729D01*
X160208Y151170D01*
X158555Y152822D01*
Y158750D01*
X158399Y159537D01*
X157954Y160203D01*
X157287Y160649D01*
X156500Y160805D01*
X156065D01*
Y164195D01*
X156500D01*
X157287Y164351D01*
X157954Y164797D01*
X158399Y165463D01*
X158555Y166250D01*
Y173750D01*
X158399Y174537D01*
X157954Y175203D01*
X157287Y175649D01*
X156500Y175805D01*
X150500D01*
X150380Y175782D01*
X150009Y177003D01*
X150266Y177109D01*
X151391Y178234D01*
X152000Y179704D01*
Y181296D01*
X151391Y182766D01*
X150266Y183891D01*
X149214Y184327D01*
Y185673D01*
X150266Y186109D01*
X151391Y187234D01*
X152000Y188704D01*
Y189886D01*
X152871Y190722D01*
X153143Y190855D01*
X153643Y190767D01*
D02*
G37*
G36*
X-138120Y174787D02*
X-143954Y168953D01*
X-144399Y168287D01*
X-144556Y167500D01*
X-144556Y167500D01*
Y157023D01*
X-152023Y149556D01*
X-158292D01*
X-158838Y150616D01*
X-158860Y150784D01*
X-154721Y154923D01*
X-152645Y153359D01*
X-147375Y160353D01*
X-154711Y165881D01*
X-159981Y158887D01*
X-159631Y158624D01*
X-159543Y157357D01*
X-167977Y148923D01*
X-168182Y149078D01*
X-169286Y147614D01*
X-171522Y145378D01*
X-172078Y144546D01*
X-172250Y143680D01*
X-174397Y140830D01*
X-175873Y140982D01*
X-176755Y141864D01*
X-177850Y142318D01*
X-178328Y143394D01*
X-178367Y143743D01*
X-172114Y152041D01*
X-176171Y155098D01*
X-176674Y154429D01*
X-177945Y154854D01*
Y161649D01*
X-163633Y175961D01*
X-138606D01*
X-138120Y174787D01*
D02*
G37*
G36*
X94445Y180149D02*
Y175469D01*
X94046Y175203D01*
X93601Y174537D01*
X93444Y173750D01*
Y166250D01*
X93601Y165463D01*
X94046Y164797D01*
X94713Y164351D01*
X95500Y164195D01*
X96445D01*
Y160805D01*
X95500D01*
X94713Y160649D01*
X94046Y160203D01*
X93601Y159537D01*
X93444Y158750D01*
Y151250D01*
X93601Y150463D01*
X94046Y149797D01*
X94030Y149368D01*
X93706Y148497D01*
X93213Y148399D01*
X92547Y147954D01*
X92547Y147953D01*
X88506Y143913D01*
X88296Y144000D01*
X86704D01*
X85234Y143391D01*
X84109Y142266D01*
X83500Y140796D01*
Y139204D01*
X84109Y137734D01*
X85234Y136609D01*
X86416Y136119D01*
X86920Y134827D01*
X63770Y111677D01*
X61878D01*
Y119807D01*
X53122D01*
Y117780D01*
X46878D01*
Y119807D01*
X38122D01*
Y114369D01*
X36948Y113883D01*
X26878Y123954D01*
X26211Y124399D01*
X25424Y124556D01*
X25424Y124556D01*
X-11522D01*
X-11609Y124766D01*
X-12734Y125891D01*
X-13395Y126165D01*
X-13142Y127435D01*
X0D01*
X982Y127630D01*
X1814Y128186D01*
X31063Y157435D01*
X62750D01*
X63732Y157630D01*
X64564Y158186D01*
X67957Y161579D01*
X69194Y161021D01*
Y155500D01*
X69351Y154713D01*
X69797Y154046D01*
X70463Y153601D01*
X71250Y153444D01*
X72944D01*
Y151556D01*
X71250D01*
X70463Y151399D01*
X69797Y150953D01*
X69351Y150287D01*
X69194Y149500D01*
Y143500D01*
X69351Y142713D01*
X69797Y142046D01*
X70463Y141601D01*
X71250Y141445D01*
X78750D01*
X79537Y141601D01*
X80204Y142046D01*
X80649Y142713D01*
X80806Y143500D01*
Y149500D01*
X80649Y150287D01*
X80204Y150953D01*
X79537Y151399D01*
X78750Y151556D01*
X77056D01*
Y153444D01*
X78750D01*
X79122Y153518D01*
X83784D01*
X84109Y152734D01*
X85234Y151609D01*
X86704Y151000D01*
X88296D01*
X89766Y151609D01*
X90891Y152734D01*
X91500Y154204D01*
Y155796D01*
X90891Y157266D01*
X90230Y157927D01*
X89907Y158750D01*
X90230Y159573D01*
X90891Y160234D01*
X91500Y161704D01*
Y163296D01*
X90891Y164766D01*
X90230Y165427D01*
X89907Y166250D01*
X90230Y167073D01*
X90891Y167734D01*
X91500Y169204D01*
Y170796D01*
X90891Y172266D01*
X90230Y172927D01*
X89907Y173750D01*
X90230Y174573D01*
X90891Y175234D01*
X91500Y176704D01*
Y178296D01*
X90891Y179766D01*
X90443Y180214D01*
X90969Y181484D01*
X93109D01*
X94445Y180149D01*
D02*
G37*
G36*
X-84204Y146047D02*
X-84204Y146046D01*
X-83537Y145601D01*
X-82750Y145444D01*
X-65978D01*
X-65891Y145234D01*
X-64766Y144109D01*
X-64320Y143925D01*
Y142550D01*
X-64766Y142365D01*
X-65891Y141240D01*
X-66500Y139770D01*
Y138179D01*
X-65891Y136708D01*
X-65065Y135883D01*
Y132563D01*
X-71814Y125814D01*
X-72370Y124982D01*
X-72565Y124000D01*
Y113563D01*
X-91375Y94753D01*
X-115492D01*
X-123268Y100613D01*
X-127683Y94753D01*
X-133974D01*
X-134956Y94558D01*
X-135788Y94002D01*
X-140394Y89396D01*
X-141537Y90049D01*
X-141071Y91849D01*
X-141421Y94337D01*
X-141830Y95031D01*
X-141002Y96129D01*
X-140222Y95928D01*
X-137734Y96277D01*
X-135569Y97552D01*
X-134057Y99559D01*
X-133428Y101992D01*
X-133778Y104480D01*
X-134186Y105174D01*
X-133359Y106272D01*
X-132579Y106070D01*
X-130091Y106420D01*
X-127926Y107695D01*
X-126414Y109702D01*
X-125785Y112135D01*
X-126135Y114623D01*
X-126543Y115317D01*
X-125716Y116415D01*
X-124936Y116213D01*
X-122448Y116563D01*
X-120283Y117838D01*
X-118771Y119845D01*
X-118142Y122277D01*
X-118492Y124765D01*
X-119767Y126930D01*
X-121774Y128442D01*
X-124206Y129072D01*
X-126358Y128769D01*
X-127076Y129688D01*
X-127138Y129845D01*
X-125869Y131529D01*
X-132149Y136261D01*
Y138576D01*
X-104704D01*
X-104378Y138251D01*
Y132693D01*
X-95622D01*
Y141878D01*
X-97435D01*
Y145944D01*
X-96250D01*
X-95463Y146101D01*
X-94796Y146546D01*
X-94351Y147213D01*
X-94194Y148000D01*
Y154000D01*
X-94255Y154301D01*
X-93084Y154927D01*
X-84204Y146047D01*
D02*
G37*
G36*
X-137332Y137306D02*
X-143559Y129042D01*
X-133471Y121440D01*
X-132202Y123124D01*
X-132035Y123108D01*
X-130953Y122671D01*
X-130651Y120519D01*
X-130242Y119825D01*
X-131069Y118727D01*
X-131849Y118929D01*
X-134337Y118579D01*
X-136502Y117304D01*
X-138014Y115297D01*
X-138644Y112865D01*
X-138294Y110377D01*
X-137885Y109683D01*
X-138712Y108585D01*
X-139492Y108786D01*
X-141980Y108437D01*
X-144145Y107161D01*
X-145658Y105155D01*
X-146287Y102722D01*
X-145937Y100234D01*
X-145528Y99540D01*
X-146355Y98442D01*
X-147135Y98644D01*
X-149623Y98294D01*
X-150317Y97885D01*
X-151415Y98713D01*
X-151214Y99492D01*
X-151563Y101980D01*
X-152839Y104145D01*
X-154845Y105658D01*
X-157278Y106287D01*
X-159766Y105937D01*
X-161931Y104662D01*
X-163443Y102655D01*
X-164072Y100222D01*
X-163723Y97734D01*
X-163314Y97040D01*
X-164141Y95942D01*
X-164921Y96144D01*
X-167409Y95794D01*
X-169574Y94519D01*
X-170820Y92865D01*
X-171385Y92702D01*
X-171977Y92671D01*
X-172341Y92735D01*
X-180177Y100571D01*
X-181009Y101127D01*
X-181991Y101323D01*
X-183631D01*
X-184265Y102593D01*
X-181778Y105892D01*
X-173829Y99902D01*
X-166721Y109335D01*
X-167605Y110000D01*
X-165521Y113071D01*
X-164633D01*
X-163163Y113680D01*
X-162038Y114805D01*
X-161429Y116275D01*
Y117867D01*
X-162038Y119337D01*
X-163002Y120301D01*
X-163092Y121035D01*
X-163002Y121770D01*
X-162038Y122734D01*
X-161429Y124204D01*
Y125796D01*
X-161570Y126136D01*
X-160587Y127441D01*
X-159895Y127538D01*
X-159032Y127394D01*
X-157680Y126375D01*
X-157590Y123434D01*
X-157695Y123391D01*
X-158820Y122266D01*
X-159429Y120796D01*
Y119204D01*
X-158820Y117734D01*
X-157695Y116609D01*
X-156225Y116000D01*
X-154633D01*
X-153163Y116609D01*
X-152038Y117734D01*
X-151429Y119204D01*
Y120796D01*
X-152038Y122266D01*
X-153163Y123391D01*
X-153480Y123522D01*
X-153579Y126776D01*
X-148149Y133982D01*
X-152648Y137372D01*
X-152245Y138576D01*
X-137553D01*
X-137332Y137306D01*
D02*
G37*
G36*
X-20719Y112547D02*
X-20719Y112547D01*
X-20052Y112101D01*
X-19265Y111945D01*
X-19265Y111945D01*
X24542D01*
X27742Y108745D01*
X27256Y107571D01*
X516D01*
X516Y107571D01*
X-271Y107415D01*
X-938Y106969D01*
X-938Y106969D01*
X-11494Y96413D01*
X-11704Y96500D01*
X-13296D01*
X-14766Y95891D01*
X-15427Y95230D01*
X-16250Y94907D01*
X-17073Y95230D01*
X-17734Y95891D01*
X-19204Y96500D01*
X-20796D01*
X-22266Y95891D01*
X-22927Y95230D01*
X-23750Y94907D01*
X-24573Y95230D01*
X-25234Y95891D01*
X-26704Y96500D01*
X-28296D01*
X-29766Y95891D01*
X-30891Y94766D01*
X-31500Y93296D01*
Y91704D01*
X-30891Y90234D01*
X-29766Y89109D01*
X-28296Y88500D01*
X-26704D01*
X-25234Y89109D01*
X-24573Y89770D01*
X-23750Y90093D01*
X-22927Y89770D01*
X-22266Y89109D01*
X-20796Y88500D01*
X-19204D01*
X-17734Y89109D01*
X-17073Y89770D01*
X-16250Y90093D01*
X-15427Y89770D01*
X-14766Y89109D01*
X-13296Y88500D01*
X-11704D01*
X-10234Y89109D01*
X-9573Y89770D01*
X-8750Y90093D01*
X-7927Y89770D01*
X-7266Y89109D01*
X-5796Y88500D01*
X-4204D01*
X-2734Y89109D01*
X-2073Y89770D01*
X-1250Y90093D01*
X-427Y89770D01*
X234Y89109D01*
X1704Y88500D01*
X3296D01*
X3506Y88587D01*
X8699Y83394D01*
X9366Y82948D01*
X10153Y82792D01*
X24975D01*
X71216Y36551D01*
X70691Y35280D01*
X70301Y35228D01*
X69794Y35276D01*
X50535Y54535D01*
X49372Y55312D01*
X48000Y55585D01*
X22901D01*
X22827Y55705D01*
X22512Y56855D01*
X23391Y57734D01*
X24000Y59204D01*
Y60796D01*
X23391Y62266D01*
X22266Y63391D01*
X20796Y64000D01*
X19204D01*
X17734Y63391D01*
X17073Y62730D01*
X16250Y62407D01*
X15427Y62730D01*
X14766Y63391D01*
X13296Y64000D01*
X11704D01*
X10234Y63391D01*
X9573Y62730D01*
X8750Y62407D01*
X7927Y62730D01*
X7266Y63391D01*
X5796Y64000D01*
X4204D01*
X2734Y63391D01*
X1609Y62266D01*
X1000Y60796D01*
Y59204D01*
X1415Y58202D01*
Y55000D01*
X1688Y53628D01*
X2465Y52465D01*
X5465Y49465D01*
X6628Y48688D01*
X8000Y48415D01*
X46515D01*
X64980Y29950D01*
Y29002D01*
X65744Y27156D01*
X67156Y25744D01*
X69001Y24980D01*
X70999D01*
X72844Y25744D01*
X73643Y26543D01*
X74913Y26017D01*
Y-631D01*
X68598Y-6945D01*
X62172D01*
X62172Y-6945D01*
X61385Y-7101D01*
X60718Y-7546D01*
X60718Y-7547D01*
X60350Y-7915D01*
X59080Y-7389D01*
Y-6704D01*
X58471Y-5234D01*
X57776Y-4540D01*
X57449Y-3803D01*
X57754Y-2903D01*
X58391Y-2266D01*
X59000Y-796D01*
Y796D01*
X58391Y2266D01*
X57266Y3391D01*
X55796Y4000D01*
X54204D01*
X52734Y3391D01*
X51609Y2266D01*
X51000Y796D01*
Y-796D01*
X51609Y-2266D01*
X52304Y-2960D01*
X52631Y-3697D01*
X52326Y-4597D01*
X51689Y-5234D01*
X51080Y-6704D01*
Y-8296D01*
X51689Y-9766D01*
X52724Y-10801D01*
X52906Y-11826D01*
X52934Y-12111D01*
X52934Y-12315D01*
Y-27296D01*
X51664Y-27822D01*
X39214Y-15372D01*
Y-14204D01*
X38605Y-12734D01*
X37480Y-11609D01*
X36010Y-11000D01*
X34842D01*
X22565Y1277D01*
Y5000D01*
X22370Y5982D01*
X21814Y6814D01*
X15819Y12808D01*
X14987Y13364D01*
X14006Y13560D01*
X11878D01*
Y15587D01*
X3122D01*
Y13560D01*
X-3122D01*
Y15587D01*
X-10194D01*
X-10720Y16857D01*
X-9633Y17945D01*
X15764D01*
X15818Y17816D01*
X16943Y16690D01*
X18413Y16082D01*
X20004D01*
X21474Y16690D01*
X22600Y17816D01*
X23209Y19286D01*
Y20877D01*
X22600Y22347D01*
X21474Y23472D01*
X20004Y24081D01*
X18413D01*
X16943Y23472D01*
X15818Y22347D01*
X15697Y22055D01*
X-10484D01*
X-10484Y22055D01*
X-11271Y21899D01*
X-11937Y21453D01*
X-11938Y21453D01*
X-14271Y19120D01*
X-15445Y19606D01*
Y23500D01*
X-14204D01*
X-12734Y24109D01*
X-11609Y25234D01*
X-11286Y26014D01*
X-10016Y25761D01*
Y25484D01*
X-984D01*
Y40516D01*
X-10016D01*
Y29239D01*
X-11286Y28986D01*
X-11609Y29766D01*
X-12734Y30891D01*
X-14204Y31500D01*
X-15796D01*
X-17266Y30891D01*
X-18391Y29766D01*
X-18714Y28986D01*
X-19984Y29239D01*
Y40516D01*
X-29016D01*
Y33066D01*
X-38923D01*
Y36539D01*
X-51077D01*
Y35430D01*
X-52860D01*
X-53915Y36485D01*
Y49571D01*
X-54188Y50943D01*
X-54965Y52106D01*
X-57894Y55035D01*
X-59057Y55812D01*
X-60429Y56085D01*
X-69626D01*
X-70998Y55812D01*
X-72161Y55035D01*
X-76244Y50952D01*
X-77021Y49789D01*
X-77102Y49378D01*
X-79378D01*
Y48585D01*
X-85622D01*
Y49378D01*
X-86814D01*
X-87407Y50555D01*
X-87392Y50648D01*
X-86797Y51047D01*
X-78649Y59194D01*
X-73500D01*
X-72713Y59351D01*
X-72047Y59797D01*
X-71601Y60463D01*
X-71445Y61250D01*
Y68750D01*
X-71601Y69537D01*
X-72047Y70203D01*
X-72713Y70649D01*
X-73500Y70806D01*
X-79500D01*
X-80287Y70649D01*
X-80954Y70203D01*
X-81399Y69537D01*
X-81556Y68750D01*
Y62101D01*
X-89101Y54556D01*
X-102500D01*
X-102500Y54556D01*
X-103287Y54399D01*
X-103954Y53953D01*
X-111469Y46438D01*
X-111674Y46131D01*
X-112944Y46516D01*
Y56649D01*
X-62222Y107371D01*
X-61145Y106652D01*
X-61500Y105796D01*
Y104204D01*
X-60891Y102734D01*
X-59766Y101609D01*
X-58296Y101000D01*
X-56704D01*
X-55234Y101609D01*
X-54109Y102734D01*
X-53500Y104204D01*
Y105796D01*
X-54109Y107266D01*
X-54770Y107927D01*
X-55093Y108750D01*
X-54770Y109573D01*
X-54109Y110234D01*
X-53500Y111704D01*
Y113296D01*
X-54109Y114766D01*
X-54770Y115427D01*
X-55036Y116105D01*
X-54481Y117306D01*
X-53750Y117593D01*
X-52927Y117270D01*
X-52266Y116609D01*
X-50796Y116000D01*
X-49204D01*
X-47734Y116609D01*
X-46609Y117734D01*
X-46000Y119204D01*
Y120796D01*
X-46609Y122266D01*
X-47734Y123391D01*
X-49204Y124000D01*
X-50796D01*
X-52266Y123391D01*
X-52927Y122730D01*
X-53750Y122407D01*
X-54573Y122730D01*
X-55234Y123391D01*
X-56229Y123803D01*
X-56655Y125173D01*
X-48547Y133281D01*
X-48547Y133281D01*
X-48101Y133948D01*
X-47944Y134735D01*
Y138113D01*
X-46771Y138599D01*
X-20719Y112547D01*
D02*
G37*
G36*
X-189869Y111989D02*
X-185876Y108980D01*
X-191750Y101185D01*
X-192355Y101641D01*
X-197625Y94647D01*
X-190289Y89119D01*
X-187506Y92813D01*
X-186960Y92921D01*
X-186128Y93478D01*
X-183413Y96192D01*
X-183053D01*
X-176479Y89618D01*
Y87289D01*
X-176284Y86307D01*
X-175728Y85475D01*
X-162694Y72442D01*
X-162565Y72355D01*
X-162950Y71085D01*
X-168600D01*
X-169972Y70812D01*
X-171135Y70035D01*
X-179220Y61950D01*
X-224510D01*
X-225408Y62848D01*
X-225407Y64514D01*
X-225333Y64561D01*
X-225308Y64622D01*
X-224879Y65715D01*
X-208697Y99543D01*
X-207103Y99932D01*
X-203407Y97146D01*
X-202684Y96798D01*
X-201884Y96752D01*
X-201126Y97017D01*
X-200528Y97551D01*
X-196014Y103541D01*
X-195666Y104263D01*
X-195621Y105064D01*
X-195885Y105821D01*
X-196419Y106419D01*
X-199741Y108922D01*
X-199412Y110149D01*
X-195332Y110650D01*
X-195133Y110716D01*
X-194358Y110818D01*
X-192648Y111526D01*
X-191179Y112654D01*
X-191022Y112858D01*
X-189869Y111989D01*
D02*
G37*
G36*
X-168250Y55407D02*
X-170207Y53450D01*
X-224694D01*
X-225412Y54169D01*
X-225409Y60850D01*
X-168250D01*
Y55407D01*
D02*
G37*
G36*
X-94807Y49378D02*
Y47561D01*
X-94847Y47362D01*
X-94807Y47164D01*
Y40622D01*
X-93799D01*
Y34378D01*
X-94807D01*
Y25622D01*
X-85622D01*
Y34378D01*
X-86629D01*
Y40622D01*
X-85622D01*
Y41415D01*
X-79378D01*
Y40622D01*
X-78370D01*
Y34378D01*
X-79378D01*
Y25622D01*
X-70193D01*
Y34378D01*
X-71201D01*
Y40622D01*
X-70193D01*
Y46863D01*
X-68141Y48915D01*
X-61914D01*
X-61085Y48086D01*
Y35000D01*
X-60812Y33628D01*
X-60035Y32465D01*
X-56880Y29310D01*
X-55717Y28533D01*
X-54345Y28260D01*
X-51077D01*
Y22423D01*
X-38923D01*
Y25896D01*
X-29016D01*
Y25484D01*
X-28085D01*
Y8205D01*
X-28914Y7376D01*
X-31638D01*
X-31984Y7307D01*
X-36878D01*
Y6299D01*
X-43122D01*
Y7307D01*
X-51878D01*
Y1750D01*
X-68563Y-14935D01*
X-73937D01*
X-80686Y-8186D01*
X-81518Y-7630D01*
X-82500Y-7435D01*
X-91437D01*
X-95144Y-3729D01*
Y-1862D01*
X-95193Y-1614D01*
Y4378D01*
X-97220D01*
Y10622D01*
X-95193D01*
Y19378D01*
X-104378D01*
Y10622D01*
X-102351D01*
Y4378D01*
X-104378D01*
Y2565D01*
X-106016D01*
Y3296D01*
X-106625Y4766D01*
X-107750Y5891D01*
X-109220Y6500D01*
X-110812D01*
X-112282Y5891D01*
X-113407Y4766D01*
X-113796Y3826D01*
X-115066Y4079D01*
Y6277D01*
X-113546Y7796D01*
X-113101Y8463D01*
X-112944Y9250D01*
X-112944Y9250D01*
Y28128D01*
X-111674Y28864D01*
X-110796Y28500D01*
X-109204D01*
X-107734Y29109D01*
X-106609Y30234D01*
X-106000Y31704D01*
Y33296D01*
X-106609Y34766D01*
X-107734Y35891D01*
X-107961Y35985D01*
Y44133D01*
X-101649Y50444D01*
X-95299D01*
X-94807Y49378D01*
D02*
G37*
G36*
X-168250Y28050D02*
X-224705D01*
X-225423Y28769D01*
X-225414Y48150D01*
X-168250D01*
Y28050D01*
D02*
G37*
G36*
Y-10050D02*
X-224722D01*
X-225440Y-9331D01*
X-225431Y10050D01*
X-168250D01*
Y-10050D01*
D02*
G37*
G36*
X-19962Y23852D02*
X-19555Y23344D01*
Y-4250D01*
X-19555Y-4250D01*
X-19399Y-5037D01*
X-18953Y-5703D01*
X-13305Y-11351D01*
Y-16500D01*
X-13149Y-17287D01*
X-12703Y-17953D01*
X-12037Y-18399D01*
X-11250Y-18556D01*
X-3750D01*
X-2963Y-18399D01*
X-2297Y-17953D01*
X-1851Y-17287D01*
X-1694Y-16500D01*
Y-10500D01*
X-591Y-9539D01*
X-117D01*
X1694Y-11351D01*
Y-16500D01*
X1851Y-17287D01*
X2297Y-17953D01*
X2963Y-18399D01*
X3750Y-18556D01*
X11250D01*
X12037Y-18399D01*
X12703Y-17953D01*
X13149Y-17287D01*
X13305Y-16500D01*
Y-10500D01*
X13149Y-9713D01*
X12703Y-9047D01*
X12037Y-8601D01*
X11250Y-8444D01*
X4602D01*
X2187Y-6030D01*
X1521Y-5585D01*
X734Y-5429D01*
X734Y-5429D01*
X-9149D01*
X-12428Y-2149D01*
Y5360D01*
X-11878Y6402D01*
X-11158Y6402D01*
X-3122D01*
Y8429D01*
X3122D01*
Y6402D01*
X11878D01*
Y7933D01*
X13148Y8224D01*
X17435Y3937D01*
Y214D01*
X17630Y-767D01*
X18186Y-1600D01*
X31214Y-14628D01*
Y-15372D01*
X22652Y-23935D01*
X13305D01*
Y-23500D01*
X13149Y-22713D01*
X12703Y-22047D01*
X12037Y-21601D01*
X11250Y-21444D01*
X3750D01*
X2963Y-21601D01*
X2297Y-22047D01*
X1851Y-22713D01*
X1694Y-23500D01*
Y-23935D01*
X-1694D01*
Y-23500D01*
X-1851Y-22713D01*
X-2297Y-22046D01*
X-2963Y-21601D01*
X-3750Y-21444D01*
X-11250D01*
X-12037Y-21601D01*
X-12703Y-22046D01*
X-13149Y-22713D01*
X-13305Y-23500D01*
Y-27928D01*
X-22072Y-36695D01*
X-26500D01*
X-27287Y-36851D01*
X-27953Y-37297D01*
X-28399Y-37963D01*
X-28556Y-38750D01*
Y-43290D01*
X-29009Y-43380D01*
X-29841Y-43936D01*
X-30271Y-44366D01*
X-31444Y-43880D01*
Y-38750D01*
X-31601Y-37963D01*
X-32046Y-37297D01*
X-32713Y-36851D01*
X-33500Y-36695D01*
X-39500D01*
X-40287Y-36851D01*
X-40953Y-37297D01*
X-41399Y-37963D01*
X-41556Y-38750D01*
Y-40444D01*
X-44149D01*
X-46920Y-37673D01*
X-46416Y-36381D01*
X-45234Y-35891D01*
X-44109Y-34766D01*
X-43500Y-33296D01*
Y-31704D01*
X-44109Y-30234D01*
X-45234Y-29109D01*
X-46704Y-28500D01*
X-48296D01*
X-49766Y-29109D01*
X-50427Y-29770D01*
X-51250Y-30093D01*
X-52073Y-29770D01*
X-52734Y-29109D01*
X-54204Y-28500D01*
X-55796D01*
X-57266Y-29109D01*
X-57927Y-29770D01*
X-58750Y-30093D01*
X-59573Y-29770D01*
X-60234Y-29109D01*
X-61704Y-28500D01*
X-63296D01*
X-64766Y-29109D01*
X-65427Y-29770D01*
X-66250Y-30093D01*
X-67073Y-29770D01*
X-67734Y-29109D01*
X-69204Y-28500D01*
X-70796D01*
X-72266Y-29109D01*
X-72927Y-29770D01*
X-73750Y-30093D01*
X-74573Y-29770D01*
X-75234Y-29109D01*
X-76704Y-28500D01*
X-78296D01*
X-79766Y-29109D01*
X-80427Y-29770D01*
X-81250Y-30093D01*
X-82073Y-29770D01*
X-82734Y-29109D01*
X-84204Y-28500D01*
X-85796D01*
X-87266Y-29109D01*
X-87903Y-29746D01*
X-88733Y-30092D01*
X-89562Y-29746D01*
X-89839Y-29469D01*
X-89771Y-28749D01*
X-89624Y-28129D01*
X-89585Y-28063D01*
X-89047Y-27703D01*
X-88601Y-27037D01*
X-88444Y-26250D01*
Y-18750D01*
X-88601Y-17963D01*
X-89047Y-17297D01*
X-89713Y-16851D01*
X-90500Y-16695D01*
X-93649D01*
X-94734Y-15609D01*
X-96204Y-15000D01*
X-97796D01*
X-99266Y-15609D01*
X-100391Y-16734D01*
X-100584Y-17200D01*
X-102017Y-17341D01*
X-102047Y-17297D01*
X-102713Y-16851D01*
X-103500Y-16695D01*
X-106758D01*
X-107284Y-15424D01*
X-106625Y-14766D01*
X-106016Y-13296D01*
Y-11704D01*
X-106625Y-10234D01*
X-107281Y-9578D01*
X-107601Y-8740D01*
X-107275Y-7931D01*
X-106609Y-7266D01*
X-106000Y-5796D01*
Y-4301D01*
X-105960Y-4164D01*
X-105075Y-3254D01*
X-104378Y-3465D01*
Y-4378D01*
X-100274D01*
Y-4791D01*
X-100079Y-5773D01*
X-99523Y-6605D01*
X-94314Y-11814D01*
X-93482Y-12370D01*
X-92500Y-12565D01*
X-83562D01*
X-76814Y-19314D01*
X-75982Y-19870D01*
X-75000Y-20065D01*
X-67500D01*
X-66518Y-19870D01*
X-65686Y-19314D01*
X-48250Y-1878D01*
X-43122D01*
Y-870D01*
X-36878D01*
Y-1878D01*
X-36051D01*
X-35891Y-2266D01*
X-35230Y-2927D01*
X-34907Y-3750D01*
X-35230Y-4573D01*
X-35891Y-5234D01*
X-36500Y-6704D01*
Y-8122D01*
X-36878D01*
Y-10149D01*
X-43122D01*
Y-8122D01*
X-51878D01*
Y-17307D01*
X-43122D01*
Y-15280D01*
X-36878D01*
Y-17307D01*
X-28122D01*
Y-8122D01*
X-28500D01*
Y-6704D01*
X-29109Y-5234D01*
X-29770Y-4573D01*
X-30093Y-3750D01*
X-29770Y-2927D01*
X-29109Y-2266D01*
X-28949Y-1878D01*
X-28122D01*
Y206D01*
X-27429D01*
X-26057Y479D01*
X-24894Y1256D01*
X-21965Y4185D01*
X-21188Y5348D01*
X-20915Y6720D01*
Y24136D01*
X-20827Y24200D01*
X-20824Y24200D01*
X-19962Y23852D01*
D02*
G37*
G36*
X99895Y20668D02*
Y-11984D01*
X97236D01*
X96934Y-11984D01*
X95966D01*
X95664Y-11984D01*
X86276D01*
X85934Y-11984D01*
X85006Y-11159D01*
Y-6345D01*
X85056Y-6094D01*
X85056Y-6094D01*
Y33848D01*
X86229Y34334D01*
X99895Y20668D01*
D02*
G37*
G36*
X121895Y2933D02*
Y-11984D01*
X118934D01*
Y-29016D01*
X128966D01*
X128966Y-29016D01*
X129934D01*
Y-29016D01*
X130236Y-29016D01*
X138881D01*
Y-30620D01*
X133086Y-36415D01*
X73955D01*
X73392Y-35835D01*
X73733Y-34771D01*
X73899Y-34565D01*
X86693D01*
X87674Y-34370D01*
X88507Y-33814D01*
X90264Y-32057D01*
X90820Y-31224D01*
X91015Y-30243D01*
Y-29016D01*
X95664D01*
X95966Y-29016D01*
X96934D01*
X97236Y-29016D01*
X106966D01*
Y-11984D01*
X104005D01*
Y19163D01*
X105179Y19649D01*
X121895Y2933D01*
D02*
G37*
%LPC*%
G36*
X13296Y241500D02*
X11704D01*
X10234Y240891D01*
X9573Y240230D01*
X8750Y239907D01*
X7927Y240230D01*
X7266Y240891D01*
X5796Y241500D01*
X4204D01*
X2734Y240891D01*
X1609Y239766D01*
X1000Y238296D01*
Y236704D01*
X1609Y235234D01*
X2734Y234109D01*
X4204Y233500D01*
X5796D01*
X7266Y234109D01*
X7927Y234770D01*
X8750Y235093D01*
X9573Y234770D01*
X10234Y234109D01*
X11704Y233500D01*
X13296D01*
X14766Y234109D01*
X15891Y235234D01*
X16500Y236704D01*
Y238296D01*
X15891Y239766D01*
X14766Y240891D01*
X13296Y241500D01*
D02*
G37*
G36*
X-37334Y240059D02*
X-38925D01*
X-40395Y239450D01*
X-41521Y238324D01*
X-41649Y238299D01*
X-42845Y238447D01*
X-44180Y239000D01*
X-45772D01*
X-47242Y238391D01*
X-48367Y237266D01*
X-48976Y235796D01*
Y234204D01*
X-48367Y232734D01*
X-47242Y231609D01*
X-45772Y231000D01*
X-44180D01*
X-42710Y231609D01*
X-41585Y232734D01*
X-41456Y232760D01*
X-40261Y232612D01*
X-38925Y232059D01*
X-37334D01*
X-35864Y232668D01*
X-34739Y233793D01*
X-34130Y235263D01*
Y236854D01*
X-34739Y238324D01*
X-35864Y239450D01*
X-37334Y240059D01*
D02*
G37*
G36*
X78750Y226556D02*
X71250D01*
X70463Y226399D01*
X69797Y225953D01*
X69351Y225287D01*
X69194Y224500D01*
Y218500D01*
X69351Y217713D01*
X69797Y217047D01*
X70463Y216601D01*
X71250Y216444D01*
X78750D01*
X79537Y216601D01*
X80204Y217047D01*
X80649Y217713D01*
X80806Y218500D01*
Y224500D01*
X80649Y225287D01*
X80204Y225953D01*
X79537Y226399D01*
X78750Y226556D01*
D02*
G37*
G36*
X45796Y216500D02*
X44204D01*
X42734Y215891D01*
X42338Y215494D01*
X41508Y214845D01*
X40678Y215494D01*
X40282Y215891D01*
X38812Y216500D01*
X37220D01*
X35750Y215891D01*
X34625Y214766D01*
X34016Y213296D01*
Y213076D01*
X33296Y212000D01*
X32843Y212000D01*
X31704D01*
X30234Y211391D01*
X29330Y210487D01*
X29049Y210271D01*
X27780Y210377D01*
X27266Y210891D01*
X25796Y211500D01*
X24204D01*
X22734Y210891D01*
X22073Y210230D01*
X21250Y209907D01*
X20427Y210230D01*
X19766Y210891D01*
X18296Y211500D01*
X16704D01*
X15234Y210891D01*
X14573Y210230D01*
X13750Y209907D01*
X12927Y210230D01*
X12266Y210891D01*
X10796Y211500D01*
X9204D01*
X7734Y210891D01*
X7073Y210230D01*
X6250Y209907D01*
X5427Y210230D01*
X4766Y210891D01*
X3296Y211500D01*
X1704D01*
X234Y210891D01*
X-891Y209766D01*
X-1500Y208296D01*
Y206704D01*
X-891Y205234D01*
X234Y204109D01*
X1704Y203500D01*
X3296D01*
X4766Y204109D01*
X5427Y204770D01*
X6250Y205093D01*
X7073Y204770D01*
X7734Y204109D01*
X9204Y203500D01*
X10796D01*
X12266Y204109D01*
X12927Y204770D01*
X13750Y205093D01*
X14573Y204770D01*
X15234Y204109D01*
X16704Y203500D01*
X18296D01*
X19766Y204109D01*
X20427Y204770D01*
X21250Y205093D01*
X22073Y204770D01*
X22734Y204109D01*
X24204Y203500D01*
X25796D01*
X27266Y204109D01*
X28170Y205014D01*
X28451Y205229D01*
X29720Y205123D01*
X30234Y204609D01*
X31704Y204000D01*
X33296D01*
X34766Y204609D01*
X35891Y205734D01*
X36500Y207204D01*
Y207424D01*
X37220Y208500D01*
X37673Y208500D01*
X38812D01*
X40282Y209109D01*
X40678Y209506D01*
X41508Y210155D01*
X42338Y209506D01*
X42734Y209109D01*
X44204Y208500D01*
X45796D01*
X47266Y209109D01*
X48391Y210234D01*
X49000Y211704D01*
Y213296D01*
X48391Y214766D01*
X47266Y215891D01*
X45796Y216500D01*
D02*
G37*
G36*
X61878Y217307D02*
X53122D01*
Y208122D01*
X61878D01*
Y217307D01*
D02*
G37*
G36*
Y194807D02*
X53122D01*
Y192780D01*
X46878D01*
Y194807D01*
X38122D01*
Y192460D01*
X36395D01*
X35413Y192265D01*
X34581Y191709D01*
X28888Y186016D01*
X25984D01*
Y178984D01*
X28388D01*
X31900Y175472D01*
X32733Y174916D01*
X33714Y174720D01*
X38122D01*
Y172693D01*
X46878D01*
Y174720D01*
X53122D01*
Y172693D01*
X61878D01*
Y181878D01*
X53122D01*
Y179851D01*
X46878D01*
Y181878D01*
X38122D01*
Y179851D01*
X34777D01*
X32378Y182250D01*
X36852Y186724D01*
X38122Y186198D01*
Y185622D01*
X46878D01*
Y187649D01*
X53122D01*
Y185622D01*
X61878D01*
Y194807D01*
D02*
G37*
G36*
X4500Y190805D02*
X-1500D01*
X-2287Y190649D01*
X-2953Y190203D01*
X-3399Y189537D01*
X-3555Y188750D01*
Y181250D01*
X-3399Y180463D01*
X-2953Y179797D01*
X-2287Y179351D01*
X-1500Y179195D01*
X4500D01*
X5287Y179351D01*
X5954Y179797D01*
X6399Y180463D01*
X6556Y181250D01*
Y188750D01*
X6399Y189537D01*
X5954Y190203D01*
X5287Y190649D01*
X4500Y190805D01*
D02*
G37*
G36*
X13296Y186500D02*
X11704D01*
X10234Y185891D01*
X9109Y184766D01*
X8500Y183296D01*
Y181704D01*
X9109Y180234D01*
X10234Y179109D01*
X11704Y178500D01*
X13296D01*
X14766Y179109D01*
X15591Y179935D01*
X17984D01*
Y178984D01*
X24016D01*
Y186016D01*
X17984D01*
Y185065D01*
X15591D01*
X14766Y185891D01*
X13296Y186500D01*
D02*
G37*
G36*
X-8500Y190805D02*
X-14500D01*
X-15287Y190649D01*
X-15954Y190203D01*
X-16399Y189537D01*
X-16556Y188750D01*
Y181250D01*
X-16399Y180463D01*
X-15954Y179797D01*
X-15287Y179351D01*
X-14500Y179195D01*
X-14065D01*
Y175805D01*
X-14500D01*
X-15287Y175649D01*
X-15954Y175203D01*
X-16399Y174537D01*
X-16482Y174119D01*
X-16704Y174000D01*
X-18296D01*
X-18518Y174119D01*
X-18601Y174537D01*
X-19046Y175203D01*
X-19713Y175649D01*
X-20500Y175805D01*
X-20935D01*
Y179195D01*
X-20500D01*
X-19713Y179351D01*
X-19046Y179797D01*
X-18601Y180463D01*
X-18444Y181250D01*
Y188750D01*
X-18601Y189537D01*
X-19046Y190203D01*
X-19713Y190649D01*
X-20500Y190805D01*
X-26500D01*
X-27287Y190649D01*
X-27953Y190203D01*
X-28399Y189537D01*
X-28556Y188750D01*
Y181250D01*
X-28399Y180463D01*
X-27953Y179797D01*
X-27287Y179351D01*
X-26500Y179195D01*
X-26065D01*
Y175805D01*
X-26500D01*
X-27287Y175649D01*
X-27953Y175203D01*
X-28399Y174537D01*
X-28556Y173750D01*
Y166250D01*
X-28399Y165463D01*
X-27953Y164797D01*
X-27287Y164351D01*
X-26500Y164195D01*
X-26065D01*
Y160805D01*
X-26500D01*
X-27287Y160649D01*
X-27953Y160203D01*
X-28399Y159537D01*
X-28556Y158750D01*
Y151250D01*
X-28399Y150463D01*
X-27953Y149796D01*
X-27287Y149351D01*
X-26500Y149194D01*
X-20500D01*
X-19713Y149351D01*
X-19046Y149796D01*
X-18601Y150463D01*
X-18444Y151250D01*
Y158750D01*
X-18601Y159537D01*
X-19046Y160203D01*
X-19713Y160649D01*
X-20500Y160805D01*
X-20935D01*
Y164195D01*
X-20500D01*
X-19713Y164351D01*
X-19046Y164797D01*
X-18601Y165463D01*
X-18518Y165881D01*
X-18296Y166000D01*
X-16704D01*
X-16482Y165881D01*
X-16399Y165463D01*
X-15954Y164797D01*
X-15287Y164351D01*
X-14500Y164195D01*
X-14065D01*
Y160805D01*
X-14500D01*
X-15287Y160649D01*
X-15954Y160203D01*
X-16399Y159537D01*
X-16556Y158750D01*
Y151250D01*
X-16399Y150463D01*
X-15954Y149796D01*
X-15287Y149351D01*
X-14500Y149194D01*
X-8500D01*
X-7713Y149351D01*
X-7046Y149796D01*
X-6601Y150463D01*
X-6445Y151250D01*
Y158750D01*
X-6601Y159537D01*
X-7046Y160203D01*
X-7713Y160649D01*
X-8500Y160805D01*
X-8935D01*
Y164195D01*
X-8500D01*
X-7713Y164351D01*
X-7046Y164797D01*
X-6601Y165463D01*
X-6445Y166250D01*
Y173750D01*
X-6601Y174537D01*
X-7046Y175203D01*
X-7713Y175649D01*
X-8500Y175805D01*
X-8935D01*
Y179195D01*
X-8500D01*
X-7713Y179351D01*
X-7046Y179797D01*
X-6601Y180463D01*
X-6445Y181250D01*
Y188750D01*
X-6601Y189537D01*
X-7046Y190203D01*
X-7713Y190649D01*
X-8500Y190805D01*
D02*
G37*
G36*
X4500Y175805D02*
X-1500D01*
X-2287Y175649D01*
X-2953Y175203D01*
X-3399Y174537D01*
X-3555Y173750D01*
Y166250D01*
X-3399Y165463D01*
X-2953Y164797D01*
X-2287Y164351D01*
X-1500Y164195D01*
X4500D01*
X5287Y164351D01*
X5954Y164797D01*
X6399Y165463D01*
X6556Y166250D01*
Y173750D01*
X6399Y174537D01*
X5954Y175203D01*
X5287Y175649D01*
X4500Y175805D01*
D02*
G37*
G36*
Y160805D02*
X-1500D01*
X-2287Y160649D01*
X-2953Y160203D01*
X-3399Y159537D01*
X-3555Y158750D01*
Y151250D01*
X-3399Y150463D01*
X-2953Y149796D01*
X-2287Y149351D01*
X-1500Y149194D01*
X4500D01*
X5287Y149351D01*
X5954Y149796D01*
X6399Y150463D01*
X6556Y151250D01*
Y158750D01*
X6399Y159537D01*
X5954Y160203D01*
X5287Y160649D01*
X4500Y160805D01*
D02*
G37*
G36*
X61878Y97307D02*
X53122D01*
Y88122D01*
X61878D01*
Y97307D01*
D02*
G37*
G36*
X112796Y75000D02*
X111204D01*
X109734Y74391D01*
X108609Y73266D01*
X108000Y71796D01*
Y70204D01*
X108609Y68734D01*
X109734Y67609D01*
X111204Y67000D01*
X112796D01*
X114266Y67609D01*
X115391Y68734D01*
X116000Y70204D01*
Y71796D01*
X115391Y73266D01*
X114266Y74391D01*
X112796Y75000D01*
D02*
G37*
G36*
X201251Y82550D02*
X198749D01*
X196333Y81903D01*
X194167Y80652D01*
X192398Y78883D01*
X191147Y76717D01*
X190500Y74301D01*
Y71799D01*
X191147Y69383D01*
X192398Y67217D01*
X194167Y65448D01*
X196333Y64197D01*
X198749Y63550D01*
X201251D01*
X203667Y64197D01*
X205833Y65448D01*
X207602Y67217D01*
X208853Y69383D01*
X209500Y71799D01*
Y74301D01*
X208853Y76717D01*
X207602Y78883D01*
X205833Y80652D01*
X203667Y81903D01*
X201251Y82550D01*
D02*
G37*
G36*
X132046Y63000D02*
X130454D01*
X128984Y62391D01*
X127859Y61266D01*
X127250Y59796D01*
Y58204D01*
X127859Y56734D01*
X128984Y55609D01*
X130454Y55000D01*
X132046D01*
X133516Y55609D01*
X134641Y56734D01*
X135250Y58204D01*
Y59796D01*
X134641Y61266D01*
X133516Y62391D01*
X132046Y63000D01*
D02*
G37*
G36*
X119546D02*
X117954D01*
X116484Y62391D01*
X115359Y61266D01*
X114750Y59796D01*
Y58204D01*
X115359Y56734D01*
X116484Y55609D01*
X117954Y55000D01*
X119546D01*
X121016Y55609D01*
X122141Y56734D01*
X122750Y58204D01*
Y59796D01*
X122141Y61266D01*
X121016Y62391D01*
X119546Y63000D01*
D02*
G37*
G36*
X-134204Y56500D02*
X-135796D01*
X-137266Y55891D01*
X-138391Y54766D01*
X-139000Y53296D01*
Y51704D01*
X-138391Y50234D01*
X-137266Y49109D01*
X-135796Y48500D01*
X-134204D01*
X-132734Y49109D01*
X-131609Y50234D01*
X-131000Y51704D01*
Y53296D01*
X-131609Y54766D01*
X-132734Y55891D01*
X-134204Y56500D01*
D02*
G37*
G36*
Y16500D02*
X-135796D01*
X-137266Y15891D01*
X-138391Y14766D01*
X-139000Y13296D01*
Y11704D01*
X-138391Y10234D01*
X-137266Y9109D01*
X-135796Y8500D01*
X-134204D01*
X-132734Y9109D01*
X-131609Y10234D01*
X-131000Y11704D01*
Y13296D01*
X-131609Y14766D01*
X-132734Y15891D01*
X-134204Y16500D01*
D02*
G37*
G36*
X-232572Y-20066D02*
X-232572Y-21257D01*
X-232572Y-20066D01*
X-232572Y-20066D01*
D02*
G37*
G36*
X-174234Y-52434D02*
X-198466D01*
Y-61866D01*
X-174234D01*
Y-52434D01*
D02*
G37*
G36*
X-201534D02*
X-225766D01*
Y-61866D01*
X-201534D01*
Y-52434D01*
D02*
G37*
G36*
X231750Y-14250D02*
X168250D01*
X167472Y-14572D01*
X167150Y-15350D01*
Y-60850D01*
X167472Y-61628D01*
X168250Y-61950D01*
X231750D01*
X232528Y-61628D01*
X232850Y-60850D01*
Y-15350D01*
X232528Y-14572D01*
X231750Y-14250D01*
D02*
G37*
G36*
X55796Y-56000D02*
X54204D01*
X52734Y-56609D01*
X51609Y-57734D01*
X51000Y-59204D01*
Y-60796D01*
X51609Y-62266D01*
X52734Y-63391D01*
X54204Y-64000D01*
X55796D01*
X57266Y-63391D01*
X57268Y-63388D01*
X57465Y-63374D01*
X58692Y-63760D01*
X59109Y-64766D01*
X60234Y-65891D01*
X61704Y-66500D01*
X63296D01*
X64766Y-65891D01*
X65891Y-64766D01*
X66500Y-63296D01*
Y-61704D01*
X65891Y-60234D01*
X64766Y-59109D01*
X63296Y-58500D01*
X61704D01*
X60234Y-59109D01*
X60232Y-59112D01*
X60035Y-59126D01*
X58808Y-58740D01*
X58391Y-57734D01*
X57266Y-56609D01*
X55796Y-56000D01*
D02*
G37*
G36*
X-20500Y-66694D02*
X-26500D01*
X-27287Y-66851D01*
X-27953Y-67297D01*
X-28399Y-67963D01*
X-28556Y-68750D01*
Y-76250D01*
X-28399Y-77037D01*
X-27953Y-77703D01*
X-27500Y-78007D01*
Y-78046D01*
X-26891Y-79516D01*
X-25766Y-80641D01*
X-24296Y-81250D01*
X-22704D01*
X-21234Y-80641D01*
X-20109Y-79516D01*
X-19500Y-78046D01*
Y-78007D01*
X-19046Y-77703D01*
X-18601Y-77037D01*
X-18444Y-76250D01*
Y-68750D01*
X-18601Y-67963D01*
X-19046Y-67297D01*
X-19713Y-66851D01*
X-20500Y-66694D01*
D02*
G37*
G36*
X201251Y-63550D02*
X198749D01*
X196333Y-64197D01*
X194167Y-65448D01*
X192398Y-67217D01*
X191147Y-69383D01*
X190500Y-71799D01*
Y-74301D01*
X191147Y-76717D01*
X192398Y-78883D01*
X194167Y-80652D01*
X196333Y-81903D01*
X198749Y-82550D01*
X201251D01*
X203667Y-81903D01*
X205833Y-80652D01*
X207602Y-78883D01*
X208853Y-76717D01*
X209500Y-74301D01*
Y-71799D01*
X208853Y-69383D01*
X207602Y-67217D01*
X205833Y-65448D01*
X203667Y-64197D01*
X201251Y-63550D01*
D02*
G37*
G36*
X-198749D02*
X-201251D01*
X-203667Y-64197D01*
X-205833Y-65448D01*
X-207602Y-67217D01*
X-208853Y-69383D01*
X-209500Y-71799D01*
Y-74301D01*
X-208853Y-76717D01*
X-207602Y-78883D01*
X-205833Y-80652D01*
X-203667Y-81903D01*
X-201251Y-82550D01*
X-198749D01*
X-196333Y-81903D01*
X-194167Y-80652D01*
X-192398Y-78883D01*
X-191147Y-76717D01*
X-190500Y-74301D01*
Y-71799D01*
X-191147Y-69383D01*
X-192398Y-67217D01*
X-194167Y-65448D01*
X-196333Y-64197D01*
X-198749Y-63550D01*
D02*
G37*
G36*
X-159204Y-68500D02*
X-160796D01*
X-162266Y-69109D01*
X-163391Y-70234D01*
X-164000Y-71704D01*
Y-73296D01*
X-163391Y-74766D01*
X-162726Y-75431D01*
X-162399Y-76240D01*
X-162719Y-77078D01*
X-163375Y-77734D01*
X-163984Y-79204D01*
Y-80796D01*
X-163375Y-82266D01*
X-162250Y-83391D01*
X-160780Y-84000D01*
X-159188D01*
X-157718Y-83391D01*
X-156593Y-82266D01*
X-155984Y-80796D01*
Y-79204D01*
X-156593Y-77734D01*
X-157259Y-77069D01*
X-157585Y-76260D01*
X-157265Y-75422D01*
X-156609Y-74766D01*
X-156000Y-73296D01*
Y-71704D01*
X-156609Y-70234D01*
X-157734Y-69109D01*
X-159204Y-68500D01*
D02*
G37*
G36*
X-9204Y-81000D02*
X-10796D01*
X-12266Y-81609D01*
X-13391Y-82734D01*
X-14000Y-84204D01*
Y-85796D01*
X-13391Y-87266D01*
X-12266Y-88391D01*
X-10796Y-89000D01*
X-9204D01*
X-7734Y-88391D01*
X-6609Y-87266D01*
X-6000Y-85796D01*
Y-84204D01*
X-6609Y-82734D01*
X-7734Y-81609D01*
X-9204Y-81000D01*
D02*
G37*
G36*
X-86704D02*
X-88296D01*
X-89766Y-81609D01*
X-90891Y-82734D01*
X-91500Y-84204D01*
Y-85796D01*
X-90891Y-87266D01*
X-89766Y-88391D01*
X-88296Y-89000D01*
X-86704D01*
X-85234Y-88391D01*
X-84109Y-87266D01*
X-83500Y-85796D01*
Y-84204D01*
X-84109Y-82734D01*
X-85234Y-81609D01*
X-86704Y-81000D01*
D02*
G37*
G36*
X81250Y-80944D02*
X73750D01*
X72963Y-81101D01*
X72297Y-81546D01*
X71851Y-82213D01*
X71694Y-83000D01*
Y-89000D01*
X71851Y-89787D01*
X72297Y-90454D01*
X72963Y-90899D01*
X73750Y-91055D01*
X80631D01*
X81704Y-91500D01*
X83296D01*
X84766Y-90891D01*
X85891Y-89766D01*
X86500Y-88296D01*
Y-86704D01*
X85891Y-85234D01*
X84766Y-84109D01*
X83306Y-83504D01*
Y-83000D01*
X83149Y-82213D01*
X82704Y-81546D01*
X82037Y-81101D01*
X81250Y-80944D01*
D02*
G37*
G36*
X66250Y-80944D02*
X58750D01*
X57963Y-81101D01*
X57297Y-81546D01*
X56851Y-82213D01*
X56694Y-83000D01*
Y-89000D01*
X56851Y-89787D01*
X57297Y-90453D01*
X57963Y-90899D01*
X58750Y-91055D01*
X60631D01*
X61704Y-91500D01*
X63296D01*
X64369Y-91055D01*
X66250D01*
X67037Y-90899D01*
X67703Y-90453D01*
X68149Y-89787D01*
X68306Y-89000D01*
Y-83000D01*
X68149Y-82213D01*
X67703Y-81546D01*
X67037Y-81101D01*
X66250Y-80944D01*
D02*
G37*
G36*
X96250Y-93945D02*
X88750D01*
X87963Y-94101D01*
X87296Y-94546D01*
X86851Y-95213D01*
X86694Y-96000D01*
Y-96945D01*
X83306D01*
Y-96000D01*
X83149Y-95213D01*
X82704Y-94546D01*
X82037Y-94101D01*
X81250Y-93945D01*
X73750D01*
X72963Y-94101D01*
X72297Y-94546D01*
X71851Y-95213D01*
X71694Y-96000D01*
Y-102000D01*
X71851Y-102787D01*
X72297Y-103454D01*
X72963Y-103899D01*
X73750Y-104056D01*
X81250D01*
X82037Y-103899D01*
X82704Y-103454D01*
X83149Y-102787D01*
X83306Y-102000D01*
Y-101055D01*
X86694D01*
Y-102000D01*
X86851Y-102787D01*
X87296Y-103453D01*
X87963Y-103899D01*
X88750Y-104056D01*
X96250D01*
X97037Y-103899D01*
X97704Y-103453D01*
X98149Y-102787D01*
X98294Y-102056D01*
X104022D01*
X104109Y-102266D01*
X105234Y-103391D01*
X106704Y-104000D01*
X108296D01*
X109766Y-103391D01*
X110891Y-102266D01*
X111500Y-100796D01*
Y-99204D01*
X110891Y-97734D01*
X109766Y-96609D01*
X108296Y-96000D01*
X106704D01*
X105234Y-96609D01*
X104109Y-97734D01*
X104022Y-97944D01*
X98306D01*
Y-96000D01*
X98149Y-95213D01*
X97704Y-94546D01*
X97037Y-94101D01*
X96250Y-93945D01*
D02*
G37*
G36*
X-6704Y-91000D02*
X-8296D01*
X-9766Y-91609D01*
X-10891Y-92734D01*
X-11500Y-94204D01*
Y-95796D01*
X-10891Y-97266D01*
X-9766Y-98391D01*
X-8296Y-99000D01*
X-6704D01*
X-5234Y-98391D01*
X-4109Y-97266D01*
X-3500Y-95796D01*
Y-94204D01*
X-4109Y-92734D01*
X-5234Y-91609D01*
X-6704Y-91000D01*
D02*
G37*
G36*
X-41704D02*
X-43296D01*
X-44766Y-91609D01*
X-45891Y-92734D01*
X-46500Y-94204D01*
Y-95796D01*
X-45891Y-97266D01*
X-44766Y-98391D01*
X-43296Y-99000D01*
X-41704D01*
X-40234Y-98391D01*
X-39109Y-97266D01*
X-38500Y-95796D01*
Y-94204D01*
X-39109Y-92734D01*
X-40234Y-91609D01*
X-41704Y-91000D01*
D02*
G37*
G36*
X-86704D02*
X-88296D01*
X-89766Y-91609D01*
X-90891Y-92734D01*
X-91500Y-94204D01*
Y-95796D01*
X-90891Y-97266D01*
X-89766Y-98391D01*
X-88296Y-99000D01*
X-86704D01*
X-85234Y-98391D01*
X-84109Y-97266D01*
X-83500Y-95796D01*
Y-94204D01*
X-84109Y-92734D01*
X-85234Y-91609D01*
X-86704Y-91000D01*
D02*
G37*
G36*
X-121704D02*
X-123296D01*
X-124766Y-91609D01*
X-125891Y-92734D01*
X-126500Y-94204D01*
Y-95796D01*
X-125891Y-97266D01*
X-124766Y-98391D01*
X-123296Y-99000D01*
X-121704D01*
X-120234Y-98391D01*
X-119109Y-97266D01*
X-118500Y-95796D01*
Y-94204D01*
X-119109Y-92734D01*
X-120234Y-91609D01*
X-121704Y-91000D01*
D02*
G37*
G36*
X63296Y-93500D02*
X61704D01*
X60631Y-93945D01*
X58750D01*
X57963Y-94101D01*
X57297Y-94546D01*
X56851Y-95213D01*
X56694Y-96000D01*
Y-102000D01*
X56851Y-102787D01*
X57297Y-103453D01*
X57963Y-103899D01*
X58750Y-104056D01*
X66250D01*
X67037Y-103899D01*
X67703Y-103453D01*
X68149Y-102787D01*
X68306Y-102000D01*
Y-96000D01*
X68149Y-95213D01*
X67703Y-94546D01*
X67037Y-94101D01*
X66250Y-93945D01*
X64369D01*
X63296Y-93500D01*
D02*
G37*
G36*
X-38122Y-103122D02*
X-46878D01*
Y-112307D01*
X-38122D01*
Y-103122D01*
D02*
G37*
G36*
X-118122D02*
X-126878D01*
Y-112307D01*
X-118122D01*
Y-103122D01*
D02*
G37*
G36*
X-178887Y-120019D02*
X-185881Y-125289D01*
X-184000Y-127785D01*
Y-128296D01*
X-183391Y-129766D01*
X-182266Y-130891D01*
X-181384Y-131256D01*
X-180353Y-132625D01*
X-178440Y-131183D01*
X-177734Y-130891D01*
X-176763Y-129920D01*
X-173359Y-127355D01*
X-178887Y-120019D01*
D02*
G37*
G36*
X-3984Y-136984D02*
X-16016D01*
Y-144281D01*
X-17286Y-144807D01*
X-18332Y-143761D01*
X-18999Y-143315D01*
X-19786Y-143159D01*
X-20622Y-142306D01*
Y-140622D01*
X-29378D01*
Y-148923D01*
X-29378Y-149807D01*
X-29378Y-151077D01*
Y-159378D01*
X-20622D01*
Y-151077D01*
X-20622Y-150193D01*
X-20622Y-148945D01*
X-19448Y-148459D01*
X-16453Y-151453D01*
X-16453Y-151454D01*
X-15787Y-151899D01*
X-15000Y-152056D01*
X-13470D01*
X-13084Y-153326D01*
X-14070Y-153984D01*
X-16016D01*
Y-157907D01*
X-16134Y-158500D01*
Y-167500D01*
X-15667Y-169847D01*
X-14337Y-171837D01*
X-12347Y-173167D01*
X-10000Y-173634D01*
X-7653Y-173167D01*
X-5663Y-171837D01*
X-4333Y-169847D01*
X-3866Y-167500D01*
Y-158500D01*
X-3984Y-157907D01*
Y-153984D01*
X-5930D01*
X-6916Y-153326D01*
X-6531Y-152056D01*
X-3101D01*
X-806Y-154351D01*
Y-159500D01*
X-649Y-160287D01*
X-203Y-160954D01*
X463Y-161399D01*
X1250Y-161556D01*
X8750D01*
X9537Y-161399D01*
X10203Y-160954D01*
X10649Y-160287D01*
X10805Y-159500D01*
Y-158555D01*
X14195D01*
Y-159500D01*
X14351Y-160287D01*
X14797Y-160953D01*
X15463Y-161399D01*
X16250Y-161556D01*
X23750D01*
X24537Y-161399D01*
X25203Y-160953D01*
X25649Y-160287D01*
X25805Y-159500D01*
Y-153500D01*
X25649Y-152713D01*
X25203Y-152046D01*
X24537Y-151601D01*
X23750Y-151445D01*
X16250D01*
X15463Y-151601D01*
X14797Y-152046D01*
X14351Y-152713D01*
X14195Y-153500D01*
Y-154445D01*
X10805D01*
Y-153500D01*
X10649Y-152713D01*
X10203Y-152047D01*
X9537Y-151601D01*
X8750Y-151445D01*
X2101D01*
X323Y-149666D01*
X949Y-148496D01*
X1250Y-148555D01*
X8750D01*
X9537Y-148399D01*
X10203Y-147954D01*
X10649Y-147287D01*
X10805Y-146500D01*
Y-140500D01*
X10649Y-139713D01*
X10203Y-139047D01*
X9537Y-138601D01*
X8750Y-138444D01*
X7515D01*
X7046Y-138250D01*
X5454D01*
X4985Y-138444D01*
X1250D01*
X463Y-138601D01*
X-203Y-139047D01*
X-649Y-139713D01*
X-806Y-140500D01*
Y-146500D01*
X-688Y-147092D01*
X-1132Y-147670D01*
X-1658Y-148062D01*
X-2250Y-147944D01*
X-2250Y-147944D01*
X-13806D01*
X-14337Y-147263D01*
X-13778Y-146016D01*
X-7611D01*
X-7046Y-146250D01*
X-5454D01*
X-4889Y-146016D01*
X-3984D01*
Y-145641D01*
X-2859Y-144516D01*
X-2250Y-143046D01*
Y-141454D01*
X-2859Y-139984D01*
X-3984Y-138859D01*
Y-136984D01*
D02*
G37*
G36*
X38750Y-138444D02*
X31250D01*
X30463Y-138601D01*
X29797Y-139047D01*
X29351Y-139713D01*
X29282Y-140061D01*
X29109Y-140234D01*
X28500Y-141704D01*
Y-143296D01*
X29109Y-144766D01*
X29195Y-144851D01*
Y-146500D01*
X29351Y-147287D01*
X29797Y-147954D01*
X30463Y-148399D01*
X31250Y-148555D01*
X38750D01*
X39537Y-148399D01*
X40203Y-147954D01*
X40649Y-147287D01*
X40806Y-146500D01*
Y-140500D01*
X40649Y-139713D01*
X40203Y-139047D01*
X39537Y-138601D01*
X38750Y-138444D01*
D02*
G37*
G36*
X-63984Y-136984D02*
X-76016D01*
Y-146016D01*
X-72611D01*
X-72046Y-146250D01*
X-70454D01*
X-69889Y-146016D01*
X-63984D01*
Y-143132D01*
X-62750Y-143046D01*
X-62141Y-144516D01*
X-61016Y-145641D01*
X-60806Y-145728D01*
Y-146500D01*
X-60649Y-147287D01*
X-60203Y-147954D01*
X-59537Y-148399D01*
X-58750Y-148555D01*
X-51250D01*
X-50463Y-148399D01*
X-49797Y-147954D01*
X-49351Y-147287D01*
X-49194Y-146500D01*
Y-140500D01*
X-49351Y-139713D01*
X-49797Y-139047D01*
X-50463Y-138601D01*
X-51250Y-138444D01*
X-57485D01*
X-57954Y-138250D01*
X-59546D01*
X-61016Y-138859D01*
X-62141Y-139984D01*
X-62750Y-141454D01*
X-63984Y-141368D01*
Y-136984D01*
D02*
G37*
G36*
X-82954Y-138250D02*
X-84546D01*
X-85015Y-138444D01*
X-88750D01*
X-89537Y-138601D01*
X-90204Y-139047D01*
X-90649Y-139713D01*
X-90806Y-140500D01*
Y-146500D01*
X-90649Y-147287D01*
X-90204Y-147954D01*
X-89537Y-148399D01*
X-88750Y-148555D01*
X-81250D01*
X-80463Y-148399D01*
X-79797Y-147954D01*
X-79351Y-147287D01*
X-79194Y-146500D01*
Y-140500D01*
X-79351Y-139713D01*
X-79797Y-139047D01*
X-80463Y-138601D01*
X-81250Y-138444D01*
X-82485D01*
X-82954Y-138250D01*
D02*
G37*
G36*
X53750Y-151445D02*
X46250D01*
X45463Y-151601D01*
X44797Y-152046D01*
X44351Y-152713D01*
X44194Y-153500D01*
Y-154445D01*
X40806D01*
Y-153500D01*
X40649Y-152713D01*
X40203Y-152047D01*
X39537Y-151601D01*
X38750Y-151445D01*
X31250D01*
X30463Y-151601D01*
X29797Y-152047D01*
X29351Y-152713D01*
X29195Y-153500D01*
Y-155149D01*
X29109Y-155234D01*
X28500Y-156704D01*
Y-158296D01*
X29109Y-159766D01*
X29282Y-159938D01*
X29351Y-160287D01*
X29797Y-160954D01*
X30463Y-161399D01*
X31250Y-161556D01*
X38750D01*
X39537Y-161399D01*
X40203Y-160954D01*
X40649Y-160287D01*
X40806Y-159500D01*
Y-158555D01*
X44194D01*
Y-159500D01*
X44351Y-160287D01*
X44797Y-160953D01*
X45463Y-161399D01*
X46250Y-161556D01*
X53750D01*
X54537Y-161399D01*
X55203Y-160953D01*
X55649Y-160287D01*
X55806Y-159500D01*
Y-153500D01*
X55649Y-152713D01*
X55203Y-152046D01*
X54537Y-151601D01*
X53750Y-151445D01*
D02*
G37*
G36*
X-36250D02*
X-43750D01*
X-44537Y-151601D01*
X-45203Y-152046D01*
X-45649Y-152713D01*
X-45806Y-153500D01*
Y-154445D01*
X-49194D01*
Y-153500D01*
X-49351Y-152713D01*
X-49797Y-152047D01*
X-50463Y-151601D01*
X-51250Y-151445D01*
X-58750D01*
X-59537Y-151601D01*
X-60203Y-152047D01*
X-60649Y-152713D01*
X-60806Y-153500D01*
Y-159500D01*
X-60649Y-160287D01*
X-60203Y-160954D01*
X-59537Y-161399D01*
X-58750Y-161556D01*
X-51250D01*
X-50463Y-161399D01*
X-49797Y-160954D01*
X-49351Y-160287D01*
X-49194Y-159500D01*
Y-158555D01*
X-45806D01*
Y-159500D01*
X-45649Y-160287D01*
X-45203Y-160953D01*
X-44537Y-161399D01*
X-43750Y-161556D01*
X-42193D01*
Y-164724D01*
X-43091Y-165622D01*
X-47307Y-165622D01*
X-48577Y-165622D01*
X-56878D01*
Y-169004D01*
X-57234Y-170178D01*
X-58020Y-170335D01*
X-58687Y-170780D01*
X-61494Y-173587D01*
X-61704Y-173500D01*
X-63296D01*
X-64766Y-174109D01*
X-65891Y-175234D01*
X-66500Y-176704D01*
Y-178296D01*
X-65891Y-179766D01*
X-64766Y-180891D01*
X-63296Y-181500D01*
X-61704D01*
X-60234Y-180891D01*
X-59109Y-179766D01*
X-58500Y-178296D01*
Y-176704D01*
X-58587Y-176494D01*
X-56471Y-174378D01*
X-48577D01*
X-47693Y-174378D01*
X-46423Y-174378D01*
X-38122D01*
Y-167836D01*
X-38082Y-167638D01*
X-38082Y-167638D01*
Y-161556D01*
X-36250D01*
X-35463Y-161399D01*
X-34797Y-160953D01*
X-34351Y-160287D01*
X-34195Y-159500D01*
Y-153500D01*
X-34351Y-152713D01*
X-34797Y-152046D01*
X-35463Y-151601D01*
X-36250Y-151445D01*
D02*
G37*
G36*
X-96250D02*
X-103750D01*
X-104537Y-151601D01*
X-105204Y-152046D01*
X-105649Y-152713D01*
X-105806Y-153500D01*
Y-159500D01*
X-105649Y-160287D01*
X-105204Y-160953D01*
X-104537Y-161399D01*
X-103750Y-161556D01*
X-96250D01*
X-95463Y-161399D01*
X-94796Y-160953D01*
X-94351Y-160287D01*
X-94194Y-159500D01*
Y-158555D01*
X-90806D01*
Y-159500D01*
X-90649Y-160287D01*
X-90204Y-160954D01*
X-89537Y-161399D01*
X-88750Y-161556D01*
X-81250D01*
X-80463Y-161399D01*
X-79797Y-160954D01*
X-79351Y-160287D01*
X-79194Y-159500D01*
Y-153500D01*
X-79351Y-152713D01*
X-79797Y-152047D01*
X-80463Y-151601D01*
X-81250Y-151445D01*
X-88750D01*
X-89537Y-151601D01*
X-90204Y-152047D01*
X-90649Y-152713D01*
X-90806Y-153500D01*
Y-154445D01*
X-94194D01*
Y-153500D01*
X-94351Y-152713D01*
X-94796Y-152046D01*
X-95463Y-151601D01*
X-96250Y-151445D01*
D02*
G37*
G36*
X-70000Y-152366D02*
X-72347Y-152833D01*
X-74070Y-153984D01*
X-76016D01*
Y-157907D01*
X-76134Y-158500D01*
Y-167500D01*
X-75667Y-169847D01*
X-74337Y-171837D01*
X-72347Y-173167D01*
X-70000Y-173634D01*
X-67653Y-173167D01*
X-65663Y-171837D01*
X-64333Y-169847D01*
X-63866Y-167500D01*
Y-158500D01*
X-63984Y-157907D01*
Y-153984D01*
X-65930D01*
X-67653Y-152833D01*
X-70000Y-152366D01*
D02*
G37*
%LPD*%
G36*
X231750Y-60850D02*
X168250D01*
Y-15350D01*
X231750D01*
Y-60850D01*
D02*
G37*
%LPC*%
G36*
X61878Y144807D02*
X53122D01*
Y142780D01*
X46878D01*
Y144807D01*
X38122D01*
Y135622D01*
X46878D01*
Y137649D01*
X53122D01*
Y135622D01*
X61878D01*
Y144807D01*
D02*
G37*
G36*
X-43122Y107307D02*
X-51878D01*
Y101097D01*
X-51928Y100849D01*
Y100524D01*
X-52370Y99862D01*
X-52565Y98880D01*
Y95567D01*
X-53226Y94907D01*
X-53835Y93436D01*
Y91845D01*
X-53226Y90375D01*
X-52565Y89714D01*
X-53091Y88444D01*
X-56775D01*
X-58500Y90169D01*
Y90796D01*
X-59109Y92266D01*
X-60234Y93391D01*
X-61704Y94000D01*
X-63296D01*
X-64766Y93391D01*
X-65891Y92266D01*
X-66500Y90796D01*
Y89204D01*
X-65891Y87734D01*
X-64766Y86609D01*
X-63296Y86000D01*
X-61704D01*
X-61621Y86034D01*
X-59651Y84064D01*
X-58819Y83508D01*
X-57837Y83313D01*
X-46258D01*
Y83264D01*
X-46063Y82282D01*
X-45507Y81450D01*
X-44807Y80751D01*
Y75622D01*
X-42780D01*
Y69378D01*
X-44807D01*
Y60622D01*
X-35622D01*
Y62435D01*
X-30563D01*
X-29016Y60888D01*
Y49484D01*
X-19984D01*
Y64516D01*
X-20435D01*
Y66694D01*
X-18500D01*
X-17713Y66851D01*
X-17047Y67297D01*
X-16601Y67963D01*
X-16444Y68750D01*
Y76250D01*
X-16601Y77037D01*
X-17047Y77703D01*
X-17713Y78149D01*
X-18500Y78306D01*
X-24500D01*
X-25287Y78149D01*
X-25953Y77703D01*
X-26399Y77037D01*
X-26556Y76250D01*
Y68750D01*
X-26399Y67963D01*
X-26095Y67508D01*
X-26139Y67063D01*
X-27304Y66605D01*
X-27491Y66619D01*
X-27686Y66814D01*
X-28518Y67370D01*
X-29500Y67565D01*
X-35622D01*
Y69378D01*
X-37649D01*
Y75622D01*
X-35622D01*
Y84378D01*
X-41128D01*
Y84404D01*
X-41323Y85386D01*
X-41879Y86218D01*
X-42891Y87230D01*
X-42364Y88500D01*
X-41704D01*
X-40234Y89109D01*
X-39109Y90234D01*
X-38500Y91704D01*
Y93296D01*
X-39109Y94766D01*
X-40234Y95891D01*
X-41704Y96500D01*
X-43296D01*
X-44766Y95891D01*
X-45269Y95388D01*
X-46254Y94984D01*
X-46927Y95389D01*
X-47435Y95897D01*
Y97874D01*
X-47269Y98122D01*
X-43122D01*
Y100147D01*
X-36875D01*
Y98119D01*
X-28118D01*
Y107304D01*
X-36875D01*
Y105278D01*
X-43122D01*
Y107307D01*
D02*
G37*
G36*
X-5500Y78306D02*
X-11500D01*
X-12287Y78149D01*
X-12953Y77703D01*
X-13399Y77037D01*
X-13556Y76250D01*
Y68750D01*
X-13399Y67963D01*
X-12953Y67297D01*
X-12287Y66851D01*
X-11500Y66694D01*
X-10056D01*
Y59500D01*
X-10056Y59500D01*
X-10016Y59301D01*
Y49484D01*
X-984D01*
Y64516D01*
X-5944D01*
Y66694D01*
X-5500D01*
X-4713Y66851D01*
X-4047Y67297D01*
X-3601Y67963D01*
X-3444Y68750D01*
Y70444D01*
X622D01*
Y68122D01*
X9807D01*
Y76878D01*
X622D01*
Y74556D01*
X-3444D01*
Y76250D01*
X-3601Y77037D01*
X-4047Y77703D01*
X-4713Y78149D01*
X-5500Y78306D01*
D02*
G37*
G36*
X36010Y19000D02*
X34419D01*
X32949Y18391D01*
X31823Y17266D01*
X31214Y15796D01*
Y14204D01*
X31823Y12734D01*
X32949Y11609D01*
X34419Y11000D01*
X36010D01*
X37480Y11609D01*
X38605Y12734D01*
X39214Y14204D01*
Y15796D01*
X38605Y17266D01*
X37480Y18391D01*
X36010Y19000D01*
D02*
G37*
G36*
X-198749Y82550D02*
X-201251D01*
X-203667Y81903D01*
X-205833Y80652D01*
X-207602Y78883D01*
X-208853Y76717D01*
X-209500Y74301D01*
Y71799D01*
X-208853Y69383D01*
X-207602Y67217D01*
X-205833Y65448D01*
X-203667Y64197D01*
X-201251Y63550D01*
X-198749D01*
X-196333Y64197D01*
X-194167Y65448D01*
X-192398Y67217D01*
X-191147Y69383D01*
X-190500Y71799D01*
Y74301D01*
X-191147Y76717D01*
X-192398Y78883D01*
X-194167Y80652D01*
X-196333Y81903D01*
X-198749Y82550D01*
D02*
G37*
%LPD*%
D12*
X-194597Y116465D02*
G03*
X-194197Y117769I-1597J1204D01*
G01*
X-195950Y115684D02*
G03*
X-194597Y116465I-244J1985D01*
G01*
X-201849Y114959D02*
G03*
X-205244Y113000I611J-4979D01*
G01*
X-208038Y112601D02*
G03*
X-205244Y113000I1197J1602D01*
G01*
X-201482Y111966D02*
G03*
X-202448Y108389I244J-1985D01*
G01*
X-195583Y112690D02*
G03*
X-192188Y114650I-611J4979D01*
G01*
X-191040Y115395D02*
G03*
X-192188Y114650I449J-1949D01*
G01*
X68471Y237407D02*
G03*
X67867Y237500I-604J-1907D01*
G01*
X156084Y191432D02*
G03*
X155919Y191579I-1414J-1414D01*
G01*
X148447Y197557D02*
G03*
X148349Y197631I-1249J-1562D01*
G01*
X136056Y206287D02*
G03*
X135954Y206355I-1151J-1635D01*
G01*
X123153Y214240D02*
G03*
X123046Y214302I-1049J-1703D01*
G01*
X109786Y221388D02*
G03*
X109676Y221442I-943J-1764D01*
G01*
X96006Y227702D02*
G03*
X95893Y227750I-833J-1818D01*
G01*
X81865Y233160D02*
G03*
X81749Y233201I-720J-1866D01*
G01*
X-227174Y-24358D02*
G03*
X-225567Y-25264I1674J1094D01*
G01*
X-227271Y65477D02*
G03*
X-227463Y64623I1808J-855D01*
G01*
X-206966Y102402D02*
G03*
X-209756Y102000I-1193J-1605D01*
G01*
X-209756Y102000D02*
G03*
X-209963Y101660I1597J-1204D01*
G01*
X-229700Y-26007D02*
G03*
X-226973Y-28060I4200J2743D01*
G01*
X-230516Y-23860D02*
G03*
X-230025Y-25509I3016J0D01*
G01*
X-230516Y-19989D02*
G03*
X-230516Y-20002I3016J-1D01*
G01*
X-230005Y66751D02*
G03*
X-230479Y64625I4542J-2129D01*
G01*
X-212165Y103815D02*
G03*
X-212684Y102961I4006J-3019D01*
G01*
X-212165Y103815D02*
G03*
X-212546Y106607I-1597J1204D01*
G01*
X-201593Y-26276D02*
G03*
X-202483Y-26035I-957J-1774D01*
G01*
X-229991Y66779D02*
G03*
X-230005Y66751I2721J-1301D01*
G01*
X-121000Y62500D02*
X-114500D01*
X-66000Y111000D01*
X-114984Y57501D02*
Y57516D01*
X-62500Y110000D01*
X-102500Y52500D02*
X-88250D01*
X-110016Y44984D02*
X-102500Y52500D01*
X-110016Y32516D02*
Y44984D01*
X-88250Y52500D02*
X-76500Y64250D01*
X-106500Y-42500D02*
Y-22500D01*
X-92465Y-41465D02*
Y-32500D01*
X-93500Y-42500D02*
X-92465Y-41465D01*
X-45000Y-42500D02*
X-36500D01*
X-55000Y-32500D02*
X-45000Y-42500D01*
X-70719Y-39266D02*
X-62484D01*
X-77485Y-32500D02*
X-70719Y-39266D01*
X-62484D02*
X-58250Y-43500D01*
X-57500D01*
X-85000Y-32500D02*
X-84426Y-33074D01*
Y-37324D02*
Y-33074D01*
X-124420Y-64905D02*
X-113155D01*
X-106500Y-58250D01*
Y-57500D01*
X-62500Y110000D02*
Y122235D01*
X-66000Y111000D02*
Y123000D01*
X-53016Y135984D01*
X-62500Y122235D02*
X-50000Y134735D01*
X-160000Y-90000D02*
X-140000D01*
X-127500Y-77500D01*
X-62500Y-177500D02*
X-57234Y-172234D01*
X-25000Y-145214D02*
X-19786D01*
X-15000Y-150000D02*
X-2250D01*
X-19786Y-145214D02*
X-15000Y-150000D01*
X-2250D02*
X4250Y-156500D01*
X5000D01*
X5000Y-156500D02*
X20000D01*
X5000Y-156500D02*
X5000Y-156500D01*
X35000D02*
X50000D01*
X35000Y-156500D02*
X35000Y-156500D01*
X-54519Y-172234D02*
X-52286Y-170000D01*
X-57234Y-172234D02*
X-54519D01*
X4000Y-71750D02*
X10000Y-65750D01*
Y-65000D02*
Y-64250D01*
X4000Y-58250D02*
X10000Y-64250D01*
Y-65750D02*
Y-65000D01*
X4000Y-58250D02*
Y-57500D01*
X4000Y-72500D02*
Y-71750D01*
X93500Y-100000D02*
X107500D01*
X92500Y-99000D02*
X93500Y-100000D01*
X77500Y-99000D02*
X92500D01*
X77500Y-99000D02*
X77500Y-99000D01*
X-42714Y-170000D02*
X-42500D01*
X-40138Y-167638D01*
Y-156638D01*
X-40000Y-156500D01*
X-40000Y-156500D02*
X-40000Y-156500D01*
X-55000Y-156500D02*
X-40000D01*
X-55000Y-156500D02*
X-55000Y-156500D01*
X-85000D02*
X-85000Y-156500D01*
X-100000Y-156500D02*
X-85000D01*
X-30765Y-53750D02*
X-27749Y-50734D01*
X-3484D01*
X-36500Y-58250D02*
Y-57500D01*
Y-56750D01*
X4000Y-43250D02*
Y-42500D01*
X-3484Y-50734D02*
X4000Y-43250D01*
X-33500Y-53750D02*
X-30765D01*
X-36500Y-56750D02*
X-33500Y-53750D01*
X-36500Y-73250D02*
Y-72500D01*
X-44750Y-81500D02*
X-36500Y-73250D01*
X-58000Y-81500D02*
X-44750D01*
X-52250Y-74000D02*
X-36500Y-58250D01*
X-57000Y-74000D02*
X-52250D01*
X-58000Y-75000D02*
X-57000Y-74000D01*
X-127500Y-77500D02*
Y-67985D01*
X-124420Y-64905D01*
X-126735Y-61250D02*
X-124000D01*
X-145734Y-64266D02*
X-129751D01*
X-124000Y-61250D02*
X-121000Y-58250D01*
X-129751Y-64266D02*
X-126735Y-61250D01*
X-160000Y-50000D02*
X-145734Y-64266D01*
X-93500Y-73250D02*
Y-72500D01*
X-99516Y-79266D02*
X-93500Y-73250D01*
X-110749Y-79266D02*
X-99516D01*
X-114000Y-76015D02*
X-110749Y-79266D01*
X-118000Y-76015D02*
X-114000D01*
X-121000Y-73015D02*
X-118000Y-76015D01*
X-121000Y-73015D02*
Y-72500D01*
X-77500Y-32500D02*
X-77485D01*
X20000Y97500D02*
X20502D01*
X24847Y93155D01*
Y90092D02*
Y93155D01*
X-191040Y115395D02*
X-188281Y118187D01*
X-194197Y117775D02*
X-192275Y121196D01*
X-155653Y127372D02*
X-153731Y130794D01*
X-170381Y109569D02*
X-165334Y117007D01*
X-160475Y131005D02*
X-157725Y133804D01*
X-196269Y124868D02*
X-187665Y133473D01*
X-196269Y124206D02*
Y124868D01*
X-176298Y109157D02*
Y110447D01*
X-172574Y114171D01*
X-177696Y148853D02*
Y149928D01*
X-180000Y152232D02*
X-177696Y149928D01*
X-182364Y118598D02*
X-180000Y127500D01*
X-165714Y140486D02*
X-158699Y147500D01*
X-165714Y139823D02*
Y140486D01*
X-184286Y115177D02*
X-182364Y118598D01*
X-172304Y106147D02*
X-170381Y109569D01*
X-87672Y172500D02*
X-87500D01*
X-90172Y175000D02*
X-87672Y172500D01*
X-135000Y175000D02*
X-90172D01*
X-142500Y167500D02*
X-135000Y175000D01*
X-142500Y156172D02*
Y167500D01*
X-151172Y147500D02*
X-142500Y156172D01*
X-158699Y147500D02*
X-151172D01*
X-87500Y165000D02*
X-82500Y170000D01*
Y174571D01*
X-85945Y178016D02*
X-82500Y174571D01*
X-164484Y178016D02*
X-85945D01*
X-180000Y162500D02*
X-164484Y178016D01*
X-180000Y152232D02*
Y162500D01*
X-172574Y117899D02*
X-172000Y118473D01*
X-172574Y114171D02*
Y117899D01*
X-179020Y137665D02*
Y138473D01*
X-183213Y133473D02*
X-179020Y137665D01*
X-187665Y133473D02*
X-183213D01*
X-165000Y125000D02*
X-160475Y131005D01*
X-165429Y125000D02*
X-165000D01*
X-165429Y117071D02*
X-165365Y117007D01*
X-165334D01*
X-155653Y127372D02*
X-155429Y120000D01*
X-194197Y117775D02*
X-194197Y117769D01*
X-201849Y114959D02*
X-195950Y115684D01*
X-208038Y112601D02*
X-208038D01*
X-212691Y111412D02*
X-208038Y112601D01*
X-202448Y108389D02*
X-202309Y103588D01*
X-201482Y111966D02*
X-195583Y112690D01*
X-160000Y32500D02*
Y42250D01*
X-149000Y54500D02*
X-146000Y57500D01*
X-149000Y53250D02*
Y54500D01*
X-160000Y42250D02*
X-149000Y53250D01*
X-173804Y46946D02*
X-166000Y54750D01*
X-161750D01*
X-159000Y57500D01*
X-183854Y46946D02*
X-173804D01*
X-186350Y44450D02*
X-183854Y46946D01*
X164500Y127429D02*
X168837Y131766D01*
X176281D01*
X164500Y124500D02*
Y127429D01*
X162328Y122328D02*
X164500Y124500D01*
X158828Y122328D02*
X162328D01*
X156500Y120000D02*
X158828Y122328D01*
X117000Y185000D02*
X126000D01*
X109500Y192500D02*
X117000Y185000D01*
X142000Y188750D02*
X142438D01*
X139000Y185000D02*
Y185750D01*
X143188Y189500D02*
X148000D01*
X139000Y185750D02*
X142000Y188750D01*
X142438D02*
X143188Y189500D01*
X-121000Y-58250D02*
Y-57500D01*
X-147714Y22500D02*
X-120000D01*
X-150000Y20214D02*
X-147714Y22500D01*
X-10484Y20000D02*
X19127D01*
X19209Y20081D01*
X2500Y92500D02*
X10153Y84847D01*
X25827D01*
X-115000Y9250D02*
Y57485D01*
X-120016Y40000D02*
Y61484D01*
X-99250Y164000D02*
X-82750Y147500D01*
X-62500D01*
X-100000Y164000D02*
X-99250D01*
X-115000Y152929D02*
X-112638Y155291D01*
X-109459D02*
X-100750Y164000D01*
X-115000Y152714D02*
Y152929D01*
X-112638Y155291D02*
X-109459D01*
X-100750Y164000D02*
X-100000D01*
X-129250Y164000D02*
X-120541Y155291D01*
X-117362D02*
X-115000Y152929D01*
X-130000Y164000D02*
X-129250D01*
X-120541Y155291D02*
X-117362D01*
X-15000Y122500D02*
X25424D01*
X-5000Y92500D02*
X5000Y102500D01*
X-12500Y92500D02*
X516Y105516D01*
X5000Y102500D02*
X28363D01*
X516Y105516D02*
X29613D01*
X185285Y82214D02*
Y83026D01*
X188500Y86241D01*
Y95000D01*
X45000Y237500D02*
X67867D01*
X156084Y191432D02*
X183000Y164515D01*
X136056Y206287D02*
X148349Y197631D01*
X123153Y214240D02*
X135954Y206355D01*
X109786Y221388D02*
X123046Y214302D01*
X96006Y227702D02*
X109676Y221442D01*
X81865Y233160D02*
X95893Y227750D01*
X68471Y237407D02*
X81749Y233201D01*
X148447Y197557D02*
X155919Y191579D01*
X183000Y148000D02*
Y164515D01*
X179516Y144516D02*
X183000Y148000D01*
X176281Y131766D02*
X179516Y135001D01*
Y144516D01*
X25827Y84847D02*
X76968Y33706D01*
X24847Y90092D02*
X79984Y34955D01*
X32695Y98168D02*
X32695D01*
X28363Y102500D02*
X32695Y98168D01*
X26643Y117016D02*
X37053Y106606D01*
X25424Y122500D02*
X38303Y109622D01*
X25394Y114000D02*
X40984Y98410D01*
X-18016Y117016D02*
X26643D01*
X29613Y105516D02*
X37968Y97160D01*
X-19265Y114000D02*
X25394D01*
X44000Y88000D02*
Y99703D01*
X32695Y98168D02*
X34952Y95911D01*
X37097Y106606D02*
X44000Y99703D01*
X37053Y106606D02*
X37097D01*
X37968Y85501D02*
X101950Y21519D01*
X34952Y84252D02*
Y95911D01*
X40984Y86751D02*
Y98410D01*
Y86751D02*
X123950Y3785D01*
X34952Y84252D02*
X83000Y36204D01*
X37968Y85501D02*
Y97160D01*
X44000Y88000D02*
X131950Y50D01*
X83000Y-6094D02*
Y36204D01*
X76968Y-1482D02*
Y33706D01*
X123950Y-20500D02*
Y3785D01*
X79984Y-4844D02*
Y34955D01*
X101950Y-20500D02*
Y21519D01*
X131950Y-17500D02*
Y50D01*
X82950Y-6144D02*
X83000Y-6094D01*
X82950Y-17500D02*
Y-6144D01*
X71950Y-12878D02*
X79984Y-4844D01*
X71950Y-17500D02*
Y-12878D01*
X68950Y-20500D02*
X71950Y-17500D01*
X60950Y-14000D02*
Y-12878D01*
X61000Y-12828D02*
Y-10172D01*
X57950Y-17000D02*
X60950Y-14000D01*
Y-12878D02*
X61000Y-12828D01*
Y-10172D02*
X62172Y-9000D01*
X69450D01*
X57950Y-20500D02*
Y-17000D01*
X69450Y-9000D02*
X76968Y-1482D01*
X79950Y-20500D02*
X82950Y-17500D01*
X38303Y109622D02*
X64622D01*
X97500Y142500D01*
X-120016Y61484D02*
X-120000Y61500D01*
X-8000Y72000D02*
X-7500Y72500D01*
X5214D01*
X-8000Y59500D02*
Y72000D01*
Y59500D02*
X-5500Y57000D01*
X-90214Y45000D02*
X-90000D01*
X-90429D02*
X-90214D01*
X-115000Y57485D02*
X-114984Y57501D01*
X-117122Y7128D02*
X-115000Y9250D01*
X-117122Y378D02*
Y7128D01*
X-110016Y32516D02*
X-110000Y32500D01*
X-53016Y135984D02*
Y156000D01*
X-50000Y134735D02*
Y160000D01*
X-62500Y170000D02*
X-57500Y175000D01*
X-62500Y165429D02*
X-60535Y163465D01*
X-60480D01*
X-62500Y165429D02*
Y170000D01*
X-60480Y163465D02*
X-53016Y156000D01*
X-49000Y167530D02*
X-43968Y162498D01*
X-52250Y180000D02*
X-52016Y179766D01*
X-43968Y142968D02*
Y162498D01*
X-52016Y166281D02*
Y179766D01*
X-57500Y167500D02*
X-50000Y160000D01*
X-52016Y166281D02*
X-46984Y161249D01*
Y141719D02*
X-19265Y114000D01*
X-49000Y167530D02*
Y169536D01*
X-46984Y141719D02*
Y161249D01*
X-43968Y142968D02*
X-18016Y117016D01*
X-117500Y0D02*
X-117122Y378D01*
X-62500Y190000D02*
X-57500Y185000D01*
Y192500D02*
X-52250Y187250D01*
X-62500Y194571D02*
X-59571Y197500D01*
X-55429D01*
X-62500Y190000D02*
Y194571D01*
X144500Y102500D02*
X158500Y88500D01*
X170000D01*
X142500Y102500D02*
X144500D01*
X123297Y157703D02*
Y160704D01*
X119375Y164625D02*
Y175625D01*
X123297Y157703D02*
X126000Y155000D01*
X119375Y164625D02*
X123297Y160704D01*
X117516Y148251D02*
Y159999D01*
X115749Y161766D02*
X117516Y159999D01*
X126000Y140000D02*
Y155750D01*
X105355Y182145D02*
X112855D01*
X119375Y175625D01*
X100000Y187500D02*
X105355Y182145D01*
X100000Y187500D02*
Y192500D01*
X115734Y161766D02*
X115749D01*
X111500Y170000D02*
X113703Y167796D01*
Y163797D02*
X115734Y161766D01*
X113703Y163797D02*
Y167796D01*
X126000Y140000D02*
X126000Y140000D01*
X139000Y170750D02*
X148000Y179750D01*
X139000Y170000D02*
Y170750D01*
X148000Y179750D02*
Y180500D01*
X92500Y129750D02*
Y130000D01*
Y129750D02*
X101500Y120750D01*
Y120000D02*
Y120750D01*
X111765Y142500D02*
X117516Y148251D01*
X97500Y142500D02*
X111765D01*
X111500Y147672D02*
Y155000D01*
X94000Y146500D02*
X110328D01*
X87500Y140000D02*
X94000Y146500D01*
X110328D02*
X111500Y147672D01*
X96500Y172000D02*
Y181000D01*
X91500Y186000D02*
X96500Y181000D01*
X90500Y186000D02*
X91500D01*
X93714Y211000D02*
X95214Y212500D01*
X75000Y208500D02*
X77500Y211000D01*
X93714D01*
X75000Y158500D02*
X77926Y155574D01*
X86926D02*
X87500Y155000D01*
X77926Y155574D02*
X86926D01*
X101500Y120000D02*
X113500D01*
X75000Y146500D02*
Y157500D01*
Y158500D01*
X85000Y95000D02*
X88500Y98500D01*
Y120000D01*
X-76500Y64250D02*
Y65000D01*
X-121000Y62500D02*
X-120000Y61500D01*
X98500Y155000D02*
Y166000D01*
X-52250Y180000D02*
Y187250D01*
X-65516Y185945D02*
X-59571Y180000D01*
X-52250D01*
X-65516Y195820D02*
X-60820Y200516D01*
X-51266D01*
X-65516Y185945D02*
Y195820D01*
X-51266Y200516D02*
X-36500Y185750D01*
Y185000D02*
Y185750D01*
X-49000Y169536D02*
Y191071D01*
Y169536D02*
X-48535Y170000D01*
X-36500D01*
X131950Y-17500D02*
X134950Y-20500D01*
X-55429Y197500D02*
X-49000Y191071D01*
X142500Y120000D02*
X143500Y119000D01*
Y104500D02*
Y119000D01*
X-160000Y-27500D02*
X-159550Y-27050D01*
Y-22950D01*
X-160000Y-22500D02*
X-159550Y-22950D01*
X-159100Y-27500D02*
X-158700D01*
X-153750Y-28185D02*
Y-9500D01*
X-157500Y-6500D02*
X-156750D01*
X-153750Y-28185D02*
X-149951Y-31984D01*
X-156750Y-6500D02*
X-153750Y-9500D01*
X734Y-7484D02*
X6750Y-13500D01*
X7500D01*
X-10001Y-7484D02*
X734D01*
X-14484Y-3001D02*
X-10001Y-7484D01*
X-14484Y-3001D02*
Y16000D01*
X-10484Y20000D01*
X-17500Y-4250D02*
X-10000Y-11750D01*
X-17500Y-4250D02*
Y24828D01*
X-10000Y-13500D02*
Y-11750D01*
X-17500Y24828D02*
X-15000Y27328D01*
Y27500D01*
X-92791Y47362D02*
X-90429Y45000D01*
X96500Y172000D02*
X98500Y170000D01*
X75000Y196500D02*
Y208500D01*
X-92791Y207959D02*
Y212638D01*
X-90429Y215000D01*
X-100000Y201500D02*
X-99250D01*
X-92791Y207959D01*
X-90429Y215000D02*
X-90214D01*
X-115000Y201500D02*
X-100000D01*
X-121000Y-72500D02*
X-121000Y-72500D01*
X-93500Y-72500D02*
X-91000Y-75000D01*
X-77000D01*
X-84000Y-67750D02*
X-77750D01*
X-93500Y-58250D02*
Y-57500D01*
X-77750Y-67750D02*
X-77000Y-68500D01*
X-93500Y-58250D02*
X-84000Y-67750D01*
X-84426Y-37324D02*
X-78250Y-43500D01*
X-77500D01*
X166500Y169250D02*
X175676Y160074D01*
X177426D01*
X178000Y159500D01*
X166500Y169250D02*
Y170000D01*
X173500Y155000D02*
X178000Y150500D01*
X166500Y155000D02*
X173500D01*
X186500Y125000D02*
X193500D01*
X198000Y120500D01*
X186500Y139250D02*
X189500Y136250D01*
X190250D02*
X196426Y130074D01*
X197426D01*
X186500Y139250D02*
Y140000D01*
X189500Y136250D02*
X190250D01*
X197426Y130074D02*
X198000Y129500D01*
X201500Y109250D02*
X204500Y106250D01*
X205250D02*
X211426Y100074D01*
X212426D01*
X201500Y109250D02*
Y110000D01*
X204500Y106250D02*
X205250D01*
X212426Y100074D02*
X213000Y99500D01*
X201500Y95000D02*
X208500D01*
X213000Y90500D01*
X-227500Y-23860D02*
X-227174Y-24358D01*
X-225567Y-25264D02*
X-202483Y-26035D01*
X-227500Y-19990D02*
X-227463Y64623D01*
X-227271Y65477D02*
X-209963Y101660D01*
X-206966Y102402D02*
X-206962Y102399D01*
X-230516Y-23860D02*
Y-20002D01*
Y-20002D01*
X-226973Y-28060D02*
X-223750Y-29050D01*
X-230025Y-25509D02*
X-229700Y-26007D01*
X-230516Y-19989D02*
X-230479Y64625D01*
X-229991Y66779D02*
X-212684Y102961D01*
X-212552Y106611D02*
X-212546Y106607D01*
X-201593Y-26276D02*
X-196450Y-29050D01*
X-223750D02*
X-213650Y-31750D01*
X-227500Y-23860D02*
Y-19990D01*
X-196450Y-29050D02*
X-186350Y-31750D01*
X-206962Y102399D02*
X-202309Y103588D01*
X-212691Y111412D02*
X-212552Y106611D01*
X-141500Y-35000D02*
X-134000Y-42500D01*
X-151200Y-35000D02*
X-141500D01*
X-143133Y-31984D02*
X-141399Y-30250D01*
X-158700Y-27500D02*
X-151200Y-35000D01*
X-149951Y-31984D02*
X-143133D01*
X-136000Y-30250D02*
X-133250Y-27500D01*
X-141399Y-30250D02*
X-136000D01*
X-134000Y-54000D02*
Y-42500D01*
X-135000Y-55000D02*
X-134000Y-54000D01*
X-178500Y6500D02*
X-157500D01*
X-180000Y5000D02*
X-178500Y6500D01*
D13*
X-144848Y67500D02*
X-134535Y77812D01*
X-168600Y67500D02*
X-144848D01*
X-178950Y57150D02*
X-168600Y67500D01*
X132500Y70500D02*
Y87500D01*
Y70500D02*
X142466Y60534D01*
Y-32105D02*
Y60534D01*
X132500Y87500D02*
X149000D01*
X48000Y52000D02*
X70000Y30000D01*
X8000Y52000D02*
X48000D01*
X5000Y55000D02*
X8000Y52000D01*
X5000Y55000D02*
Y60000D01*
X85000D02*
Y95000D01*
X-75000Y45000D02*
X-74786Y44786D01*
X-47500Y2714D02*
X-32500D01*
X-134535Y77812D02*
X-132916D01*
X70000Y-40000D02*
X134571D01*
X142466Y-32105D01*
X125000Y95000D02*
X127000Y93000D01*
X132500Y87500D01*
X149000D02*
X150000Y86500D01*
Y85500D02*
Y86500D01*
X-186350Y57150D02*
X-178950D01*
X-31638Y3791D02*
X-27429D01*
X-24500Y6720D01*
Y30481D01*
Y30500D01*
X-32500Y2714D02*
Y2929D01*
X-31638Y3791D01*
X-74786Y30000D02*
Y44786D01*
X-90214Y30000D02*
Y44786D01*
X-47364Y31845D02*
X-45000Y29481D01*
X-57500Y35000D02*
X-54345Y31845D01*
X-47364D01*
X-57500Y35000D02*
Y49571D01*
X-90000Y45000D02*
X-75000D01*
X-73709Y48417D02*
X-69626Y52500D01*
X-60429D01*
X-57500Y49571D01*
X-25500Y29481D02*
X-24500Y30481D01*
X-45000Y29481D02*
X-25500D01*
D24*
X-150000Y29786D02*
D03*
Y20214D02*
D03*
X7500Y10994D02*
D03*
Y1423D02*
D03*
X-7500Y10994D02*
D03*
Y1423D02*
D03*
X-115000Y162286D02*
D03*
Y152714D02*
D03*
X57500Y222286D02*
D03*
Y212714D02*
D03*
Y199786D02*
D03*
Y190214D02*
D03*
X42500Y199786D02*
D03*
Y190214D02*
D03*
X57500Y167714D02*
D03*
Y177286D02*
D03*
X42500Y167714D02*
D03*
Y177286D02*
D03*
Y149786D02*
D03*
Y140214D02*
D03*
X57500Y149786D02*
D03*
Y140214D02*
D03*
X42500Y124786D02*
D03*
Y115214D02*
D03*
X57500Y124786D02*
D03*
Y115214D02*
D03*
Y102286D02*
D03*
Y92714D02*
D03*
X-60000Y217286D02*
D03*
Y207714D02*
D03*
X-47500Y217286D02*
D03*
Y207714D02*
D03*
X-32500Y217286D02*
D03*
Y207714D02*
D03*
X-47500Y112286D02*
D03*
Y102714D02*
D03*
X-32496Y112283D02*
D03*
Y102711D02*
D03*
X-100000Y127714D02*
D03*
Y137286D02*
D03*
X-32500Y2714D02*
D03*
Y12286D02*
D03*
X-47500Y2714D02*
D03*
Y12286D02*
D03*
Y-12714D02*
D03*
Y-22286D02*
D03*
X-32500Y-12714D02*
D03*
Y-22286D02*
D03*
X-25000Y-145214D02*
D03*
Y-154786D02*
D03*
X-42500Y-107714D02*
D03*
Y-117286D02*
D03*
X-122500Y-107714D02*
D03*
Y-117286D02*
D03*
D28*
X-132286Y32500D02*
D03*
X-122714D02*
D03*
X95214Y212500D02*
D03*
X104786D02*
D03*
X-99786Y215000D02*
D03*
X-90214D02*
D03*
X-49786Y80000D02*
D03*
X-40214D02*
D03*
X5214Y72500D02*
D03*
X14786D02*
D03*
X-40214Y65000D02*
D03*
X-49786D02*
D03*
X-99786Y15000D02*
D03*
X-90214D02*
D03*
X-99786Y0D02*
D03*
X-90214D02*
D03*
X-90214Y45000D02*
D03*
X-99786D02*
D03*
X-90214Y30000D02*
D03*
X-99786D02*
D03*
X-74786D02*
D03*
X-65214D02*
D03*
X-74786Y45000D02*
D03*
X-65214D02*
D03*
X-42714Y-170000D02*
D03*
X-52286D02*
D03*
D35*
X-106500Y-22500D02*
D03*
X-93500D02*
D03*
X-159000Y42500D02*
D03*
X-146000D02*
D03*
X126000Y185000D02*
D03*
X139000D02*
D03*
X-121000Y62500D02*
D03*
X-134000D02*
D03*
X98500Y155000D02*
D03*
X111500D02*
D03*
X-146000Y57500D02*
D03*
X-159000D02*
D03*
X-63500Y65000D02*
D03*
X-76500D02*
D03*
X1500Y155000D02*
D03*
X-11500D02*
D03*
X-36500D02*
D03*
X-23500D02*
D03*
X-36500Y185000D02*
D03*
X-23500D02*
D03*
X-36500Y170000D02*
D03*
X-23500D02*
D03*
X1500Y185000D02*
D03*
X-11500D02*
D03*
X1500Y170000D02*
D03*
X-11500D02*
D03*
X-9000Y-72500D02*
D03*
X4000D02*
D03*
X4000Y-57500D02*
D03*
X-9000D02*
D03*
X126000Y155000D02*
D03*
X139000D02*
D03*
X139000Y140000D02*
D03*
X126000D02*
D03*
X126500Y120000D02*
D03*
X113500D02*
D03*
X101500D02*
D03*
X88500D02*
D03*
X143500D02*
D03*
X156500D02*
D03*
X98500Y170000D02*
D03*
X111500D02*
D03*
X-23500Y-42500D02*
D03*
X-36500D02*
D03*
X-106500D02*
D03*
X-93500D02*
D03*
X139000Y170000D02*
D03*
X126000D02*
D03*
X166500D02*
D03*
X153500D02*
D03*
X166500Y155000D02*
D03*
X153500D02*
D03*
X186500Y140000D02*
D03*
X173500D02*
D03*
X201500Y95000D02*
D03*
X188500D02*
D03*
X186500Y125000D02*
D03*
X173500D02*
D03*
X201500Y110000D02*
D03*
X188500D02*
D03*
X4000Y-42500D02*
D03*
X-9000D02*
D03*
X-106500Y-57500D02*
D03*
X-93500D02*
D03*
X-23500Y-57500D02*
D03*
X-36500D02*
D03*
X-23500Y-72500D02*
D03*
X-36500D02*
D03*
X-93500D02*
D03*
X-106500D02*
D03*
X-134000D02*
D03*
X-121000D02*
D03*
X-21500Y72500D02*
D03*
X-8500D02*
D03*
X-134000Y-42500D02*
D03*
X-121000D02*
D03*
X-121000Y-57500D02*
D03*
X-134000D02*
D03*
X-121000Y-27500D02*
D03*
X-134000D02*
D03*
X-134000Y2500D02*
D03*
X-121000D02*
D03*
X-134000Y-12500D02*
D03*
X-121000D02*
D03*
D37*
X-212691Y111412D02*
D03*
X-202309Y103588D02*
D03*
D71*
X105000Y204500D02*
D03*
X110000Y200000D02*
D03*
X100000D02*
D03*
X-72500Y-9000D02*
D03*
Y-2000D02*
D03*
Y12000D02*
D03*
Y19000D02*
D03*
X-58500Y5000D02*
D03*
X-65500D02*
D03*
X-72500D02*
D03*
X-79500D02*
D03*
X-86500D02*
D03*
X-145000Y40000D02*
D03*
X-135000D02*
D03*
X-145000Y30000D02*
D03*
X-135000D02*
D03*
X-145000Y0D02*
D03*
X-135000D02*
D03*
X-145000Y-10000D02*
D03*
X-135000D02*
D03*
X0Y0D02*
D03*
X-92465Y-32500D02*
D03*
X-55000D02*
D03*
X-62500D02*
D03*
X-47500D02*
D03*
X-97000Y-19000D02*
D03*
X-85000Y-32500D02*
D03*
X-28000Y237000D02*
D03*
X-38130Y236059D02*
D03*
X-110016Y-12500D02*
D03*
X-57500Y112500D02*
D03*
Y105000D02*
D03*
X-104000Y40000D02*
D03*
X-50000Y120000D02*
D03*
X-110000Y-5000D02*
D03*
X162500Y80000D02*
D03*
X170000Y110000D02*
D03*
X-115000Y163000D02*
D03*
X-36000Y145000D02*
D03*
X-10000Y44000D02*
D03*
X157000Y181000D02*
D03*
X7500Y-90000D02*
D03*
X-160000Y-57500D02*
D03*
X-182000Y72000D02*
D03*
X-217000D02*
D03*
X-220000Y-74000D02*
D03*
X-139750Y-174250D02*
D03*
X74750D02*
D03*
X90250D02*
D03*
X139750D02*
D03*
X135000Y-117000D02*
D03*
X134000Y9000D02*
D03*
X121000Y24000D02*
D03*
X113000Y-1000D02*
D03*
X-160000Y-90000D02*
D03*
X-62500Y-177500D02*
D03*
X-25000Y-154786D02*
D03*
X32500Y-142500D02*
D03*
Y-157500D02*
D03*
X-117500Y-7500D02*
D03*
X-180000Y-127500D02*
D03*
X-186350Y-6400D02*
D03*
Y-44500D02*
D03*
Y-19100D02*
D03*
Y6300D02*
D03*
Y19000D02*
D03*
Y31700D02*
D03*
X-159984Y-80000D02*
D03*
X10000Y-65000D02*
D03*
X-23500Y-77250D02*
D03*
X-25000Y-105000D02*
D03*
X-105000D02*
D03*
X-58750Y-142250D02*
D03*
X-85000Y-156500D02*
D03*
X107500Y-100000D02*
D03*
X-6250Y-142250D02*
D03*
X6250D02*
D03*
X-83750D02*
D03*
X-71250D02*
D03*
X-160000Y-72500D02*
D03*
X-10000Y-85000D02*
D03*
X-87500D02*
D03*
X-107500Y-67500D02*
D03*
X-70000Y-32500D02*
D03*
X-77500D02*
D03*
X-9000Y-42500D02*
D03*
X-42500Y-95000D02*
D03*
Y-107500D02*
D03*
X-7500Y-95000D02*
D03*
X-87500D02*
D03*
X-122500Y-107500D02*
D03*
Y-95000D02*
D03*
X12500Y195000D02*
D03*
X-17500Y200000D02*
D03*
X25000Y137500D02*
D03*
Y167500D02*
D03*
X89000Y26000D02*
D03*
X95000Y2500D02*
D03*
X90000Y-5000D02*
D03*
X143968Y71000D02*
D03*
X-182500Y87467D02*
D03*
X20000Y97500D02*
D03*
X-179020Y138473D02*
D03*
X-160000Y32500D02*
D03*
X-191322Y95380D02*
D03*
X-115000Y152714D02*
D03*
X-62500Y138974D02*
D03*
X-159984Y-7500D02*
D03*
Y-15000D02*
D03*
X186350Y-57200D02*
D03*
X213650D02*
D03*
Y-44500D02*
D03*
X186350D02*
D03*
Y-31800D02*
D03*
X213650D02*
D03*
Y-19100D02*
D03*
X186350D02*
D03*
Y-6400D02*
D03*
X213650D02*
D03*
Y6300D02*
D03*
X186350D02*
D03*
Y19000D02*
D03*
X213650D02*
D03*
Y31700D02*
D03*
X186350D02*
D03*
Y44400D02*
D03*
X213650D02*
D03*
Y57100D02*
D03*
X186350D02*
D03*
X-213650Y-57200D02*
D03*
X-186350D02*
D03*
X-213650Y-44500D02*
D03*
Y-31800D02*
D03*
X-186350D02*
D03*
X-213650Y-19100D02*
D03*
Y-6400D02*
D03*
Y6300D02*
D03*
Y19000D02*
D03*
Y31700D02*
D03*
Y44400D02*
D03*
X-186350D02*
D03*
Y57100D02*
D03*
X-213650D02*
D03*
X160000Y130000D02*
D03*
X165000Y135000D02*
D03*
X5000Y237500D02*
D03*
X12500D02*
D03*
X-165429Y117071D02*
D03*
X-155429Y120000D02*
D03*
X-160000Y-50000D02*
D03*
X-125000Y12500D02*
D03*
X-135000D02*
D03*
X22468Y-19968D02*
D03*
X19209Y20081D02*
D03*
X35214Y15000D02*
D03*
X55080Y-7500D02*
D03*
X50016Y-37500D02*
D03*
X55000Y0D02*
D03*
X-32500D02*
D03*
X12500Y97500D02*
D03*
X-49835Y92641D02*
D03*
X-67500Y82500D02*
D03*
X-62500Y90000D02*
D03*
X-120016Y30000D02*
D03*
Y40000D02*
D03*
X-15000Y122500D02*
D03*
X2500Y92500D02*
D03*
X-5000D02*
D03*
X-12500D02*
D03*
X-160000Y17500D02*
D03*
X185285Y82214D02*
D03*
X169500Y125000D02*
D03*
X165000Y142750D02*
D03*
X57500Y212500D02*
D03*
X45000Y237500D02*
D03*
X12500Y60000D02*
D03*
X19847Y89847D02*
D03*
X29952Y93168D02*
D03*
X85000Y60000D02*
D03*
X5000D02*
D03*
X-5000Y207500D02*
D03*
X32500Y208000D02*
D03*
X2500Y207500D02*
D03*
X38016Y212500D02*
D03*
X25000Y207500D02*
D03*
X17500D02*
D03*
X10000D02*
D03*
X20000Y60000D02*
D03*
X-62500Y147500D02*
D03*
X-42500Y92500D02*
D03*
X-110000Y32500D02*
D03*
X-57500Y120000D02*
D03*
Y167500D02*
D03*
Y175000D02*
D03*
X-44976Y235000D02*
D03*
X87500Y177500D02*
D03*
X-57500Y192500D02*
D03*
X45000Y212500D02*
D03*
X-57500Y207500D02*
D03*
X-86638Y216032D02*
D03*
X-47500Y207500D02*
D03*
X100000Y192500D02*
D03*
X95000Y215000D02*
D03*
X92500Y130000D02*
D03*
X87500Y140000D02*
D03*
Y170000D02*
D03*
Y162500D02*
D03*
Y155000D02*
D03*
X5000Y40000D02*
D03*
X-27500Y92500D02*
D03*
X-20000D02*
D03*
X-90000Y200000D02*
D03*
Y192500D02*
D03*
X75000Y221500D02*
D03*
X-135000Y52500D02*
D03*
X-160000Y25000D02*
D03*
X-20000Y130000D02*
D03*
X-87500Y165000D02*
D03*
X-17500Y170000D02*
D03*
X1500Y185000D02*
D03*
Y170000D02*
D03*
Y155000D02*
D03*
X-36500D02*
D03*
X-57500Y185000D02*
D03*
X-90000Y117500D02*
D03*
Y110000D02*
D03*
X-110016Y2500D02*
D03*
X-172762Y160000D02*
D03*
X-165429Y125000D02*
D03*
X-87500Y172500D02*
D03*
X-153678Y159620D02*
D03*
X-137500Y150000D02*
D03*
X-172000Y118473D02*
D03*
X110000Y45000D02*
D03*
X118750Y81000D02*
D03*
X131250Y59000D02*
D03*
X118750D02*
D03*
X112000Y71000D02*
D03*
X55000Y-60000D02*
D03*
X62500Y-62500D02*
D03*
X12500Y182500D02*
D03*
X-120000Y22500D02*
D03*
X-160000Y-22500D02*
D03*
X82500Y-87500D02*
D03*
X62500D02*
D03*
X-9000Y-57500D02*
D03*
X-15000Y27500D02*
D03*
X35214Y-15000D02*
D03*
X-99786Y215000D02*
D03*
X-100000Y183750D02*
D03*
X148000Y180500D02*
D03*
Y189500D02*
D03*
X178000Y150500D02*
D03*
Y159500D02*
D03*
X213000Y90500D02*
D03*
Y99500D02*
D03*
X198000Y120500D02*
D03*
Y129500D02*
D03*
X57500Y177286D02*
D03*
Y190000D02*
D03*
Y140000D02*
D03*
Y115000D02*
D03*
Y92500D02*
D03*
X-180000Y127500D02*
D03*
X-117500Y0D02*
D03*
X62500Y-97500D02*
D03*
X-90000Y45000D02*
D03*
X-75000D02*
D03*
X-32500Y-7500D02*
D03*
D77*
X-97709Y-4791D02*
X-92500Y-10000D01*
X-97709Y-4791D02*
Y-1862D01*
X-92500Y-10000D02*
X-82500D01*
X-75000Y-17500D02*
X-67500D01*
X-82500Y-10000D02*
X-75000Y-17500D01*
X-67500D02*
X-47500Y2500D01*
X-99786Y182D02*
X-99753D01*
X-97709Y-1862D01*
X-107335Y0D02*
X-99786D01*
X-109835Y2500D02*
X-107335Y0D01*
X-110016Y2500D02*
X-109835D01*
X-99786Y182D02*
Y15000D01*
X-70000Y124000D02*
X-62500Y131500D01*
X-70000Y112500D02*
Y124000D01*
X-90312Y92188D02*
X-70000Y112500D01*
X162500Y80000D02*
X173222D01*
X126000Y169250D02*
X140250Y155000D01*
X57286Y140214D02*
X57500Y140000D01*
X57286Y115214D02*
X57500Y115000D01*
X-23500Y-42500D02*
Y-41750D01*
Y-43250D02*
Y-42500D01*
X-28028Y-45750D02*
X-26000D01*
X-32512Y-50234D02*
X-28028Y-45750D01*
X-26000D02*
X-23500Y-43250D01*
X-40956Y-50234D02*
X-32512D01*
X-184476Y98757D02*
X-181991D01*
X-173914Y87289D02*
Y90681D01*
X-187942Y95292D02*
X-184476Y98757D01*
X-181991D02*
X-173914Y90681D01*
X-161719Y136813D02*
X-161631D01*
X-157302Y141142D01*
X-191215Y97632D02*
X-182313Y109445D01*
X-169708Y143564D02*
X-153678Y159594D01*
X-169708Y142833D02*
Y143564D01*
X-182313Y109445D02*
X-180292Y112167D01*
X-153678Y159594D02*
Y159620D01*
X-191322Y95380D02*
X-191215Y97632D01*
X-157302Y141142D02*
X-135000D01*
X-173914Y87289D02*
X-160881Y74256D01*
X-133974Y92188D02*
X-122084D01*
X-151906Y74256D02*
X-133974Y92188D01*
X-160881Y74256D02*
X-151906D01*
X-191233Y95292D02*
X-187942D01*
X-191322Y95380D02*
X-191233Y95292D01*
X-62500Y131500D02*
Y138974D01*
X-47222Y-56500D02*
X-40956Y-50234D01*
X-57500Y-56500D02*
X-47222D01*
X-77500D02*
X-57500D01*
X-106500Y-43250D02*
X-99984Y-49766D01*
X-84984D02*
X-78250Y-56500D01*
X-77500D01*
X-106500Y-43250D02*
Y-42500D01*
X-99984Y-49766D02*
X-84984D01*
X7500Y-26500D02*
X23714D01*
X35214Y-15000D01*
X7500Y-26500D02*
X7500Y-26500D01*
X-7500Y-26500D02*
X7500D01*
X-10750Y-29000D02*
X-8250Y-26500D01*
X-23500Y-41750D02*
X-10750Y-29000D01*
Y-29000D01*
X-8250Y-26500D02*
X-7500D01*
X7500Y10994D02*
X14006D01*
X-7500D02*
X7500D01*
X-50000Y92806D02*
Y98880D01*
Y92806D02*
X-49835Y92641D01*
X-43693Y83264D02*
X-40429Y80000D01*
X-57837Y85878D02*
X-45167D01*
X-43693Y84404D01*
Y83264D02*
Y84404D01*
X-61959Y90000D02*
X-57837Y85878D01*
X-62500Y90000D02*
X-61959D01*
X-100000Y137500D02*
Y151000D01*
X-17500Y170000D02*
X-11500D01*
X-23500D02*
X-17500D01*
X179802Y100553D02*
X188500Y109250D01*
X173222Y80000D02*
X179802Y86580D01*
X188500Y109250D02*
Y110000D01*
X179802Y86580D02*
Y100553D01*
X126000Y169250D02*
Y170000D01*
X140250Y155000D02*
X153500D01*
Y170000D01*
X171000Y142750D02*
X173500Y140250D01*
X153500Y154250D02*
X165000Y142750D01*
X173500Y140000D02*
Y140250D01*
X165000Y142750D02*
X171000D01*
X153500Y154250D02*
Y155000D01*
X-122084Y92188D02*
X-90312D01*
X-40429Y80000D02*
X-40214D01*
X-49362Y99518D02*
Y100849D01*
X-50000Y98880D02*
X-49362Y99518D01*
X-23000Y58500D02*
Y71000D01*
X-24500Y57000D02*
X-23000Y58500D01*
Y71000D02*
X-21500Y72500D01*
X-29500Y65000D02*
X-24500Y60000D01*
X-40214Y65000D02*
X-29500D01*
X-40214D02*
Y80000D01*
X-47500Y207500D02*
X-47286Y207714D01*
X75750Y183500D02*
X78250Y186000D01*
Y186750D01*
X87500Y196000D02*
Y197000D01*
X89500Y199000D02*
X90500D01*
X75000Y183500D02*
X75750D01*
X78250Y186750D02*
X87500Y196000D01*
Y197000D02*
X89500Y199000D01*
X-135000Y141142D02*
X-103642D01*
X-135000D02*
X-134714Y140856D01*
Y130285D02*
Y140856D01*
X-103642Y141142D02*
X-100000Y137500D01*
X-20000Y130000D02*
X0D01*
X30000Y160000D01*
X62750D01*
X74250Y171500D01*
X75000D01*
Y182750D01*
X-23500Y170000D02*
Y185000D01*
Y155000D02*
Y170000D01*
X-11500D02*
Y185000D01*
Y155000D02*
Y170000D01*
X-137117Y150383D02*
X-130617D01*
X-137500Y150000D02*
X-137117Y150383D01*
X-130617D02*
X-130000Y151000D01*
X86693Y-32000D02*
X88450Y-30243D01*
X52214Y-32000D02*
X86693D01*
X35214Y-15000D02*
X52214Y-32000D01*
X88450Y-30243D02*
Y-23000D01*
X90950Y-20500D01*
X12500Y182500D02*
X21000D01*
X20000Y214D02*
Y5000D01*
Y214D02*
X35214Y-15000D01*
X14006Y10994D02*
X20000Y5000D01*
X29000Y183000D02*
X29500Y183500D01*
X30000D01*
X29000Y182500D02*
Y183000D01*
X30000Y183500D02*
X36395Y189895D01*
X29500Y181500D02*
X33714Y177286D01*
X57500D01*
X42181Y189895D02*
X42500Y190214D01*
X36395Y189895D02*
X42181D01*
X57286Y190214D02*
X57500Y190000D01*
X42500Y190214D02*
X57286D01*
X42500Y140214D02*
X57286D01*
X-49362Y100849D02*
X-47498Y102713D01*
X-32498D01*
X-32496Y102711D01*
X42500Y115214D02*
X57286D01*
X-47286Y207714D02*
X-32500D01*
X-47500Y-12714D02*
X-32500D01*
X-47500Y2500D02*
Y2714D01*
D78*
X200000Y-73050D02*
D03*
Y73050D02*
D03*
X-200000Y-73050D02*
D03*
Y73050D02*
D03*
X200000Y-73050D02*
D03*
Y73050D02*
D03*
X-200000Y-73050D02*
D03*
Y73050D02*
D03*
D79*
X-155143Y82072D02*
D03*
X-165286Y89715D02*
D03*
X-147500Y92214D02*
D03*
X-157643Y99857D02*
D03*
X-139857Y102357D02*
D03*
X-150000Y110000D02*
D03*
X-132214Y112500D02*
D03*
X-142357Y120143D02*
D03*
X-124571Y122642D02*
D03*
D80*
X-134714Y130285D02*
D03*
D81*
X-10000Y-167500D02*
D03*
X-70000D02*
D03*
X70000Y30000D02*
D03*
Y-40000D02*
D03*
D83*
X-10000Y-167500D02*
Y-158500D01*
X-70000Y-167500D02*
Y-158500D01*
D85*
Y-141500D02*
D03*
Y-158500D02*
D03*
X-10000D02*
D03*
Y-141500D02*
D03*
D86*
X-177696Y148853D02*
D03*
X-173702Y145843D02*
D03*
X-169708Y142833D02*
D03*
X-165714Y139823D02*
D03*
X-161719Y136813D02*
D03*
X-157725Y133804D02*
D03*
X-153731Y130794D02*
D03*
X-172304Y106147D02*
D03*
X-176298Y109157D02*
D03*
X-180292Y112167D02*
D03*
X-184286Y115177D02*
D03*
X-188281Y118187D02*
D03*
X-192275Y121196D02*
D03*
X-196269Y124206D02*
D03*
D87*
X134950Y-20500D02*
D03*
X123950D02*
D03*
X112950D02*
D03*
X101950D02*
D03*
X90950D02*
D03*
X79950D02*
D03*
X68950D02*
D03*
X57950D02*
D03*
D88*
X21250Y-46500D02*
D03*
X158750D02*
D03*
X21250Y36500D02*
D03*
X158750D02*
D03*
D89*
X92500Y-86000D02*
D03*
Y-99000D02*
D03*
X77500Y-99000D02*
D03*
Y-86000D02*
D03*
X75000Y133500D02*
D03*
Y146500D02*
D03*
Y158500D02*
D03*
Y171500D02*
D03*
X7500Y-26500D02*
D03*
Y-13500D02*
D03*
X-7500Y-13500D02*
D03*
Y-26500D02*
D03*
X170000Y88500D02*
D03*
Y101500D02*
D03*
X75000Y196500D02*
D03*
Y183500D02*
D03*
Y208500D02*
D03*
Y221500D02*
D03*
X-100000Y151000D02*
D03*
Y164000D02*
D03*
X-130000Y164000D02*
D03*
Y151000D02*
D03*
X-115000Y201500D02*
D03*
Y188500D02*
D03*
X-100000Y201500D02*
D03*
Y188500D02*
D03*
Y-143500D02*
D03*
Y-156500D02*
D03*
X-57500Y-56500D02*
D03*
Y-43500D02*
D03*
X-77500Y-56500D02*
D03*
Y-43500D02*
D03*
X35000Y-156500D02*
D03*
Y-143500D02*
D03*
X-85000Y-156500D02*
D03*
Y-143500D02*
D03*
X50000Y-143500D02*
D03*
Y-156500D02*
D03*
X-157500Y-6500D02*
D03*
Y6500D02*
D03*
X62500Y-99000D02*
D03*
Y-86000D02*
D03*
X20000Y-156500D02*
D03*
Y-143500D02*
D03*
X5000Y-143500D02*
D03*
Y-156500D02*
D03*
X-40000Y-156500D02*
D03*
Y-143500D02*
D03*
X-55000Y-143500D02*
D03*
Y-156500D02*
D03*
D90*
X125000Y95000D02*
D03*
X85000D02*
D03*
D91*
X143500Y104500D02*
D03*
X156500D02*
D03*
X150000Y85500D02*
D03*
D92*
X90500Y186000D02*
D03*
Y199000D02*
D03*
X109500Y192500D02*
D03*
D93*
X-179620Y-126322D02*
D03*
X-185380Y-118678D02*
D03*
D94*
X-58000Y-68500D02*
D03*
Y-75000D02*
D03*
Y-81500D02*
D03*
X-77000D02*
D03*
Y-75000D02*
D03*
Y-68500D02*
D03*
D95*
X21000Y182500D02*
D03*
X29000D02*
D03*
D96*
X-132916Y77812D02*
D03*
X-122084Y92188D02*
D03*
D97*
X-161322Y165380D02*
D03*
X-153678Y159620D02*
D03*
X-183678Y89620D02*
D03*
X-191322Y95380D02*
D03*
D98*
X-24500Y57000D02*
D03*
X-15000D02*
D03*
X-5500D02*
D03*
Y33000D02*
D03*
X-24500D02*
D03*
D99*
X-45000Y45519D02*
D03*
Y29481D02*
D03*
D100*
X-145900Y-27500D02*
D03*
X-159100D02*
D03*
D101*
X213650Y-57150D02*
D03*
Y-44450D02*
D03*
Y-31750D02*
D03*
Y-19050D02*
D03*
Y-6350D02*
D03*
Y6350D02*
D03*
Y19050D02*
D03*
Y31750D02*
D03*
Y44450D02*
D03*
Y57150D02*
D03*
X186350Y-57150D02*
D03*
Y-44450D02*
D03*
Y-31750D02*
D03*
Y-19050D02*
D03*
Y-6350D02*
D03*
Y6350D02*
D03*
Y19050D02*
D03*
Y31750D02*
D03*
Y44450D02*
D03*
Y57150D02*
D03*
X-186350Y-57150D02*
D03*
Y-44450D02*
D03*
Y-31750D02*
D03*
Y-19050D02*
D03*
Y-6350D02*
D03*
Y6350D02*
D03*
Y19050D02*
D03*
Y31750D02*
D03*
Y44450D02*
D03*
Y57150D02*
D03*
X-213650Y-57150D02*
D03*
Y-44450D02*
D03*
Y-31750D02*
D03*
Y-19050D02*
D03*
Y-6350D02*
D03*
Y6350D02*
D03*
Y19050D02*
D03*
Y31750D02*
D03*
Y44450D02*
D03*
Y57150D02*
D03*
M02*
