G04*
G04 #@! TF.GenerationSoftware,Altium Limited,Altium Designer,24.4.1 (13)*
G04*
G04 Layer_Physical_Order=1*
G04 Layer_Color=255*
%FSLAX44Y44*%
%MOMM*%
G71*
G04*
G04 #@! TF.SameCoordinates,80C5A69E-986F-416B-A988-7B454DC68AB1*
G04*
G04*
G04 #@! TF.FilePolarity,Positive*
G04*
G01*
G75*
%ADD12C,0.2000*%
%ADD15C,0.1500*%
%ADD18R,0.3048X1.1938*%
%ADD19R,1.1938X0.3048*%
G04:AMPARAMS|DCode=20|XSize=0.95mm|YSize=0.8mm|CornerRadius=0.1mm|HoleSize=0mm|Usage=FLASHONLY|Rotation=180.000|XOffset=0mm|YOffset=0mm|HoleType=Round|Shape=RoundedRectangle|*
%AMROUNDEDRECTD20*
21,1,0.9500,0.6000,0,0,180.0*
21,1,0.7500,0.8000,0,0,180.0*
1,1,0.2000,-0.3750,0.3000*
1,1,0.2000,0.3750,0.3000*
1,1,0.2000,0.3750,-0.3000*
1,1,0.2000,-0.3750,-0.3000*
%
%ADD20ROUNDEDRECTD20*%
G04:AMPARAMS|DCode=21|XSize=0.95mm|YSize=0.8mm|CornerRadius=0.1mm|HoleSize=0mm|Usage=FLASHONLY|Rotation=90.000|XOffset=0mm|YOffset=0mm|HoleType=Round|Shape=RoundedRectangle|*
%AMROUNDEDRECTD21*
21,1,0.9500,0.6000,0,0,90.0*
21,1,0.7500,0.8000,0,0,90.0*
1,1,0.2000,0.3000,0.3750*
1,1,0.2000,0.3000,-0.3750*
1,1,0.2000,-0.3000,-0.3750*
1,1,0.2000,-0.3000,0.3750*
%
%ADD21ROUNDEDRECTD21*%
%ADD22R,0.3500X0.5500*%
%ADD23R,2.4000X1.6200*%
%ADD24R,0.6604X1.7018*%
%ADD25R,2.9200X0.7400*%
%ADD26R,1.4000X1.2000*%
G04:AMPARAMS|DCode=27|XSize=1.1mm|YSize=0.45mm|CornerRadius=0mm|HoleSize=0mm|Usage=FLASHONLY|Rotation=125.000|XOffset=0mm|YOffset=0mm|HoleType=Round|Shape=Rectangle|*
%AMROTATEDRECTD27*
4,1,4,0.4998,-0.3215,0.1312,-0.5796,-0.4998,0.3215,-0.1312,0.5796,0.4998,-0.3215,0.0*
%
%ADD27ROTATEDRECTD27*%

G04:AMPARAMS|DCode=28|XSize=0.7154mm|YSize=0.6725mm|CornerRadius=0mm|HoleSize=0mm|Usage=FLASHONLY|Rotation=215.000|XOffset=0mm|YOffset=0mm|HoleType=Round|Shape=Rectangle|*
%AMROTATEDRECTD28*
4,1,4,0.1001,0.4806,0.4859,-0.0703,-0.1001,-0.4806,-0.4859,0.0703,0.1001,0.4806,0.0*
%
%ADD28ROTATEDRECTD28*%

%ADD29R,0.6725X0.7154*%
%ADD30O,1.4500X0.3000*%
%ADD31O,0.3000X1.4500*%
%ADD32R,0.7154X0.6725*%
%ADD33R,0.5588X1.4732*%
%ADD34R,1.5000X0.5500*%
%ADD35R,0.8000X0.5000*%
%ADD36R,0.5750X1.1400*%
%ADD37R,1.1000X2.6000*%
%ADD38R,1.1000X2.8000*%
%ADD54R,0.9906X2.7940*%
%ADD55C,0.3000*%
%ADD56C,0.5000*%
%ADD57C,2.0000*%
%ADD58C,1.4000*%
%ADD59P,1.4991X4X98.0*%
%ADD60C,1.0600*%
%ADD61C,0.5000*%
%ADD62C,0.7000*%
G36*
X10882Y247833D02*
X25694Y246738D01*
X40413Y244758D01*
X54988Y241901D01*
X69366Y238177D01*
X83495Y233599D01*
X97324Y228184D01*
X110805Y221950D01*
X123889Y214921D01*
X136528Y207123D01*
X148679Y198581D01*
X160296Y189328D01*
X171339Y179396D01*
X181767Y168821D01*
X191544Y157640D01*
X200634Y145896D01*
X209006Y133627D01*
X216628Y120881D01*
X223474Y107700D01*
X229518Y94134D01*
X234740Y80230D01*
X239121Y66038D01*
X242644Y51610D01*
X245298Y36997D01*
X247072Y22251D01*
X247961Y7426D01*
Y-0D01*
X247961Y-6366D01*
X247308Y-19080D01*
X246003Y-31744D01*
X244050Y-44326D01*
X241454Y-56789D01*
X238222Y-69103D01*
X234363Y-81236D01*
X229886Y-93154D01*
X224803Y-104827D01*
X219128Y-116223D01*
X212876Y-127314D01*
X206063Y-138069D01*
X198708Y-148460D01*
X190828Y-158461D01*
X182446Y-168043D01*
X173584Y-177183D01*
X168974Y-181473D01*
X167113Y-182983D01*
X162862Y-185438D01*
X158264Y-187111D01*
X153446Y-187961D01*
X151000Y-187961D01*
X9216D01*
X7678Y-187655D01*
X6229Y-187055D01*
X4925Y-186184D01*
X3816Y-185075D01*
X2945Y-183771D01*
X2345Y-182322D01*
X2039Y-180784D01*
Y-180000D01*
X2029Y-179950D01*
X2037Y-179900D01*
X1988Y-178920D01*
X1952Y-178773D01*
X1952Y-178622D01*
X1569Y-176700D01*
X1492Y-176514D01*
X1453Y-176317D01*
X703Y-174506D01*
X591Y-174339D01*
X514Y-174154D01*
X-575Y-172524D01*
X-717Y-172382D01*
X-829Y-172215D01*
X-2215Y-170829D01*
X-2382Y-170718D01*
X-2524Y-170576D01*
X-4154Y-169487D01*
X-4339Y-169410D01*
X-4506Y-169298D01*
X-6317Y-168548D01*
X-6514Y-168509D01*
X-6700Y-168432D01*
X-8622Y-168050D01*
X-8773Y-168050D01*
X-8920Y-168013D01*
X-9900Y-167966D01*
X-9950Y-167973D01*
X-10000Y-167963D01*
X-169750Y-167961D01*
X-171276Y-167961D01*
X-174312Y-167629D01*
X-177292Y-166968D01*
X-180183Y-165986D01*
X-182950Y-164696D01*
X-185560Y-163112D01*
X-187983Y-161254D01*
X-190188Y-159142D01*
X-191161Y-157982D01*
X-195862Y-152243D01*
X-204624Y-140245D01*
X-212650Y-127748D01*
X-219914Y-114794D01*
X-226389Y-101428D01*
X-232054Y-87698D01*
X-236886Y-73654D01*
X-240869Y-59346D01*
X-243989Y-44825D01*
X-246234Y-30144D01*
X-247596Y-15355D01*
X-248072Y-510D01*
X-247658Y14336D01*
X-246356Y29131D01*
X-244171Y43822D01*
X-241111Y58355D01*
X-237187Y72679D01*
X-232412Y86743D01*
X-226805Y100496D01*
X-220384Y113889D01*
X-213174Y126873D01*
X-205199Y139403D01*
X-200703Y145612D01*
X-199278Y145415D01*
X-199077Y145114D01*
X-198970Y144900D01*
X-196101Y141217D01*
X-196130Y141146D01*
X-196100Y141075D01*
X-196128Y141038D01*
X-196835Y139332D01*
X-197076Y137500D01*
X-196835Y135668D01*
X-196128Y133962D01*
X-195004Y132496D01*
X-193538Y131372D01*
X-191831Y130665D01*
X-190000Y130423D01*
X-188272Y130651D01*
X-188086Y130615D01*
X-187872Y130484D01*
X-187044Y129756D01*
X-186835Y128168D01*
X-186128Y126462D01*
X-185004Y124996D01*
X-183538Y123872D01*
X-181831Y123165D01*
X-180000Y122923D01*
X-179503Y122989D01*
X-179439Y122976D01*
X-179201Y122819D01*
X-179178Y122785D01*
X-178734Y121716D01*
X-178628Y121462D01*
X-177504Y119996D01*
X-176038Y118872D01*
X-174332Y118165D01*
X-173383Y118040D01*
X-173174Y117977D01*
X-167797Y117461D01*
X-167570Y116913D01*
X-166445Y115788D01*
X-164975Y115179D01*
X-163383D01*
X-161913Y115788D01*
X-160788Y116913D01*
X-160311Y118065D01*
X-160138Y118395D01*
X-158909Y118754D01*
X-158296Y118500D01*
X-156704D01*
X-155234Y119109D01*
X-154109Y120234D01*
X-153500Y121704D01*
Y123296D01*
X-154109Y124766D01*
X-155234Y125891D01*
X-156704Y126500D01*
X-158296D01*
X-159766Y125891D01*
X-160101Y125556D01*
X-161178Y126275D01*
X-161000Y126704D01*
Y128296D01*
X-161609Y129766D01*
X-162734Y130891D01*
X-164204Y131500D01*
X-165796D01*
X-167266Y130891D01*
X-168391Y129766D01*
X-168808Y128760D01*
X-170035Y128374D01*
X-170232Y128388D01*
X-170234Y128391D01*
X-171704Y129000D01*
X-173296D01*
X-174766Y128391D01*
X-175101Y128056D01*
X-176178Y128775D01*
X-176000Y129204D01*
Y130796D01*
X-176609Y132266D01*
X-177734Y133391D01*
X-178836Y133848D01*
X-179004Y134227D01*
X-179132Y134958D01*
X-179112Y135232D01*
X-178221Y136123D01*
X-177612Y137593D01*
Y139184D01*
X-178221Y140654D01*
X-179346Y141779D01*
X-179548Y141863D01*
X-179923Y143317D01*
X-179419Y143945D01*
X-127460D01*
X-127391Y143777D01*
X-126266Y142652D01*
X-124796Y142043D01*
X-123204D01*
X-122325Y142407D01*
X-121055Y141671D01*
Y129965D01*
X-122413Y128608D01*
X-124206Y129072D01*
X-126358Y128769D01*
X-127076Y129688D01*
X-127138Y129845D01*
X-125869Y131529D01*
X-135957Y139131D01*
X-143559Y129042D01*
X-133471Y121440D01*
X-132202Y123124D01*
X-132034Y123108D01*
X-130953Y122671D01*
X-130651Y120519D01*
X-130242Y119825D01*
X-131069Y118727D01*
X-131849Y118929D01*
X-134337Y118579D01*
X-136502Y117304D01*
X-138014Y115297D01*
X-138644Y112865D01*
X-138294Y110377D01*
X-137885Y109683D01*
X-138712Y108585D01*
X-139492Y108786D01*
X-141980Y108437D01*
X-144145Y107161D01*
X-145658Y105155D01*
X-146287Y102722D01*
X-145937Y100234D01*
X-145528Y99540D01*
X-146355Y98442D01*
X-147135Y98644D01*
X-149623Y98294D01*
X-150317Y97885D01*
X-151415Y98713D01*
X-151214Y99492D01*
X-151563Y101980D01*
X-152839Y104145D01*
X-154845Y105658D01*
X-157278Y106287D01*
X-159766Y105937D01*
X-161931Y104662D01*
X-163443Y102655D01*
X-164072Y100223D01*
X-163723Y97734D01*
X-163314Y97040D01*
X-164141Y95942D01*
X-164921Y96144D01*
X-167409Y95794D01*
X-169574Y94519D01*
X-171086Y92512D01*
X-171716Y90080D01*
X-171366Y87591D01*
X-170091Y85427D01*
X-168084Y83914D01*
X-165651Y83285D01*
X-163163Y83635D01*
X-162469Y84044D01*
X-161371Y83216D01*
X-161573Y82437D01*
X-161223Y79949D01*
X-159948Y77783D01*
X-157941Y76271D01*
X-155508Y75642D01*
X-153020Y75992D01*
X-152202Y76474D01*
X-151100Y75844D01*
Y65000D01*
X-150778Y64222D01*
X-150000Y63900D01*
X-132766D01*
X-132323Y64084D01*
X-112234D01*
Y65795D01*
X-99378D01*
Y62693D01*
X-90622D01*
Y70823D01*
X-86230D01*
X-84378Y68971D01*
Y62693D01*
X-75622D01*
X-74556Y62201D01*
Y36820D01*
X-74821Y36550D01*
X-75826Y35971D01*
X-76250Y36056D01*
X-82899D01*
X-89194Y42351D01*
Y47000D01*
X-89351Y47787D01*
X-89796Y48453D01*
X-90463Y48899D01*
X-91250Y49056D01*
X-98750D01*
X-99537Y48899D01*
X-100204Y48453D01*
X-100458Y48072D01*
X-100501Y48064D01*
X-101672Y48162D01*
X-101783Y48202D01*
X-102248Y49326D01*
X-103373Y50451D01*
X-104187Y50788D01*
X-105000Y51828D01*
Y53419D01*
X-105609Y54889D01*
X-106734Y56014D01*
X-108204Y56623D01*
X-109796D01*
X-111266Y56014D01*
X-112391Y54889D01*
X-113000Y53419D01*
Y51828D01*
X-112645Y50971D01*
X-112883Y50614D01*
X-113040Y49828D01*
X-113040Y49827D01*
Y48181D01*
X-113266Y46940D01*
X-114053Y46783D01*
X-114719Y46337D01*
X-114719Y46337D01*
X-115141Y45916D01*
X-128048D01*
X-128250Y46000D01*
X-138900D01*
Y50000D01*
X-139222Y50778D01*
X-140000Y51100D01*
X-166680D01*
X-167286Y52370D01*
X-167234Y52434D01*
X-167234D01*
X-167150Y53450D01*
Y60850D01*
X-167234Y61052D01*
Y61866D01*
X-168048D01*
X-168250Y61950D01*
X-184872D01*
X-185355Y62150D01*
X-187345D01*
X-187828Y61950D01*
X-212172D01*
X-212656Y62150D01*
X-214645D01*
X-215128Y61950D01*
X-231750D01*
X-231952Y61866D01*
X-232766D01*
Y61052D01*
X-232850Y60850D01*
Y53450D01*
X-232766Y52434D01*
X-232766D01*
X-232714Y52370D01*
X-233320Y51100D01*
X-235000D01*
X-235778Y50778D01*
X-236100Y50000D01*
Y25000D01*
X-235778Y24222D01*
X-235000Y23900D01*
X-166053D01*
X-165527Y22630D01*
X-165891Y22266D01*
X-166500Y20796D01*
Y19204D01*
X-165891Y17734D01*
X-165230Y17073D01*
X-164907Y16250D01*
X-165230Y15427D01*
X-165891Y14766D01*
X-166500Y13296D01*
Y12032D01*
X-166942Y11450D01*
X-167610Y11066D01*
X-168048D01*
X-168250Y11150D01*
X-184872D01*
X-185355Y11350D01*
X-187345D01*
X-187828Y11150D01*
X-212172D01*
X-212656Y11350D01*
X-214645D01*
X-215128Y11150D01*
X-231750D01*
X-231952Y11066D01*
X-232766D01*
Y10252D01*
X-232850Y10050D01*
Y-10050D01*
X-232766Y-10252D01*
Y-11066D01*
X-231952D01*
X-231750Y-11150D01*
X-215128D01*
X-214645Y-11350D01*
X-212656D01*
X-212172Y-11150D01*
X-187828D01*
X-187345Y-11350D01*
X-185355D01*
X-184872Y-11150D01*
X-168250D01*
X-168048Y-11066D01*
X-167234D01*
Y-10252D01*
X-167150Y-10050D01*
Y2456D01*
X-165943Y2723D01*
X-165880Y2723D01*
X-164766Y1609D01*
X-163296Y1000D01*
X-161704D01*
X-160702Y1415D01*
X-160000D01*
X-158628Y1688D01*
X-157465Y2465D01*
X-151174Y8756D01*
X-150397Y9919D01*
X-150124Y11291D01*
Y24138D01*
X-150193Y24484D01*
Y27105D01*
X-149807Y28279D01*
X-141721D01*
Y26174D01*
X-141638Y25972D01*
Y25754D01*
X-141483Y25599D01*
X-141399Y25397D01*
X-141197Y25313D01*
X-141042Y25158D01*
X-139773Y24632D01*
X-139554D01*
X-139352Y24549D01*
X-139150Y24632D01*
X-138931D01*
X-138776Y24787D01*
X-138574Y24871D01*
X-128676Y34769D01*
X-123454Y29547D01*
X-123453Y29546D01*
X-122787Y29101D01*
X-122000Y28944D01*
X-122000Y28944D01*
X-100806D01*
Y28000D01*
X-100649Y27213D01*
X-100204Y26546D01*
X-99944Y26374D01*
X-100330Y25103D01*
X-105952D01*
X-106739Y24947D01*
X-107406Y24501D01*
X-115891Y16016D01*
X-126516D01*
Y-12016D01*
X-113484D01*
Y12609D01*
X-105101Y20993D01*
X-74217D01*
X-74217Y20993D01*
X-73431Y21149D01*
X-72764Y21595D01*
X-71047Y23312D01*
X-70601Y23979D01*
X-70444Y24765D01*
Y62201D01*
X-69378Y62693D01*
X-62836D01*
X-62638Y62653D01*
X-62638Y62653D01*
X-61063D01*
Y56205D01*
X-61063Y56205D01*
X-61063Y56205D01*
Y45536D01*
X-61203Y45396D01*
X-61649Y44729D01*
X-61751Y44216D01*
X-65516D01*
Y30784D01*
X-57734D01*
Y30784D01*
X-57266D01*
Y30784D01*
X-49484D01*
Y34700D01*
X-48896Y34979D01*
X-48214Y35089D01*
X-47234Y34109D01*
X-45764Y33500D01*
X-44172D01*
X-42702Y34109D01*
X-41577Y35234D01*
X-40968Y36704D01*
Y38296D01*
X-41577Y39766D01*
X-42256Y40444D01*
X-42584Y41219D01*
X-42272Y42087D01*
X-41625Y42734D01*
X-41016Y44204D01*
Y45796D01*
X-41625Y47266D01*
X-42750Y48391D01*
X-44220Y49000D01*
X-45812D01*
X-47282Y48391D01*
X-48407Y47266D01*
X-49016Y45796D01*
Y45292D01*
X-49484Y44216D01*
X-50286Y44216D01*
X-53249D01*
X-53351Y44729D01*
X-53797Y45396D01*
X-53797Y45396D01*
X-53937Y45536D01*
Y54955D01*
X-53937Y54956D01*
Y62653D01*
X-52362D01*
X-52362Y62653D01*
X-52164Y62693D01*
X-45622D01*
Y71878D01*
X-52164D01*
X-52362Y71918D01*
X-52362Y71918D01*
X-53937D01*
Y77992D01*
X-54093Y78779D01*
X-54538Y79445D01*
X-54539Y79446D01*
X-56305Y81212D01*
X-56305Y81212D01*
X-61437Y86343D01*
Y93988D01*
X-61125Y94454D01*
X-61065Y94756D01*
X-60000Y95286D01*
X-58935Y94756D01*
X-58875Y94454D01*
X-58563Y93988D01*
Y89743D01*
X-58563Y89743D01*
X-58407Y88956D01*
X-57962Y88289D01*
X-51086Y81414D01*
X-46767Y77095D01*
X-46767Y77095D01*
X-46100Y76649D01*
X-45314Y76493D01*
X-45314Y76493D01*
X-24561D01*
X-23721Y75576D01*
X-23939Y74378D01*
X-29807D01*
Y65622D01*
X-23563D01*
Y63289D01*
X-23883Y62811D01*
X-24039Y62024D01*
X-24039Y62024D01*
Y57283D01*
X-24039Y57283D01*
X-23985Y57007D01*
Y45422D01*
X-25891Y43516D01*
X-39016D01*
Y29484D01*
X-22984D01*
Y40609D01*
X-20476Y43117D01*
X-20030Y43784D01*
X-19873Y44571D01*
X-19874Y44571D01*
Y54796D01*
X-19223Y55291D01*
X-18604Y55475D01*
X-18583Y55461D01*
X-17796Y55305D01*
X-17016Y54415D01*
Y46484D01*
X-984D01*
Y60516D01*
X-15288D01*
X-16437Y61251D01*
X-16437Y61251D01*
Y65622D01*
X-10193D01*
Y74378D01*
X-16437D01*
Y77611D01*
X-16437Y77612D01*
X-16593Y78398D01*
X-17039Y79065D01*
X-17039Y79065D01*
X-20991Y83018D01*
X-21658Y83464D01*
X-22445Y83620D01*
X-22445Y83620D01*
X-43213D01*
X-45163Y85570D01*
X-45163Y85570D01*
X-51437Y91843D01*
Y93988D01*
X-51125Y94454D01*
X-50968Y95240D01*
X-49741Y95515D01*
X-46801D01*
X-46107Y94245D01*
X-46500Y93296D01*
Y91704D01*
X-45891Y90234D01*
X-44766Y89109D01*
X-43296Y88500D01*
X-41704D01*
X-40234Y89109D01*
X-39109Y90234D01*
X-38726Y91159D01*
X-38646Y91175D01*
X-37980Y91621D01*
X-37673Y91927D01*
X-36383Y91421D01*
X-35891Y90234D01*
X-34766Y89109D01*
X-33296Y88500D01*
X-31704D01*
X-30234Y89109D01*
X-29109Y90234D01*
X-28726Y91158D01*
X-28639Y91175D01*
X-27973Y91621D01*
X-27770Y91823D01*
X-27316Y91781D01*
X-26381Y91416D01*
X-25891Y90234D01*
X-24766Y89109D01*
X-23296Y88500D01*
X-21704D01*
X-20234Y89109D01*
X-19109Y90234D01*
X-18758Y91082D01*
X-17383D01*
X-17032Y90234D01*
X-15907Y89109D01*
X-14437Y88500D01*
X-12845D01*
X-11375Y89109D01*
X-10250Y90234D01*
X-9641Y91704D01*
Y93296D01*
X-10034Y94245D01*
X-9960Y95515D01*
X-9960Y95515D01*
X-9960Y95515D01*
Y109485D01*
X-20445D01*
Y110500D01*
X-20601Y111287D01*
X-21047Y111953D01*
X-21047Y111953D01*
X-22657Y113564D01*
X-23324Y114010D01*
X-23838Y114112D01*
X-24109Y114766D01*
X-25234Y115891D01*
X-26704Y116500D01*
X-28296D01*
X-29766Y115891D01*
X-30891Y114766D01*
X-31381Y113584D01*
X-32316Y113219D01*
X-32770Y113177D01*
X-32973Y113379D01*
X-33639Y113825D01*
X-33726Y113842D01*
X-34109Y114766D01*
X-35234Y115891D01*
X-36704Y116500D01*
X-38296D01*
X-39766Y115891D01*
X-40451Y115962D01*
X-41238Y116215D01*
X-42783Y117761D01*
X-42297Y118935D01*
X-21000D01*
X-20018Y119130D01*
X-19186Y119686D01*
X-12779Y126093D01*
X-11401Y125675D01*
X-11370Y125518D01*
X-10814Y124686D01*
X-5065Y118938D01*
Y102500D01*
X-5040Y102373D01*
Y95515D01*
X40D01*
X944Y94633D01*
Y31382D01*
X-4398Y26040D01*
X-54046D01*
X-54047Y26040D01*
X-54833Y25883D01*
X-55500Y25438D01*
X-58850Y22088D01*
X-67584D01*
X-67584Y22088D01*
X-68371Y21931D01*
X-69038Y21486D01*
X-69038Y21485D01*
X-71452Y19072D01*
X-92484D01*
X-93271Y18915D01*
X-93938Y18470D01*
X-93938Y18469D01*
X-96391Y16016D01*
X-106516D01*
Y-12016D01*
X-93484D01*
Y13109D01*
X-91633Y14961D01*
X-86516D01*
Y-12016D01*
X-73484D01*
Y11945D01*
X-69351D01*
X-69351Y11945D01*
X-68565Y12101D01*
X-67898Y12546D01*
X-67689Y12755D01*
X-66516Y12269D01*
Y-12016D01*
X-53484D01*
Y13109D01*
X-50697Y15897D01*
X-46516D01*
Y-12016D01*
X-33484D01*
Y15897D01*
X-26516D01*
Y-12016D01*
X-13484D01*
Y15897D01*
X-1048D01*
X-1048Y15897D01*
X-261Y16053D01*
X406Y16499D01*
X10485Y26579D01*
X10486Y26579D01*
X10931Y27245D01*
X11087Y28032D01*
Y119960D01*
X24383D01*
X25234Y119109D01*
X26704Y118500D01*
X28296D01*
X29766Y119109D01*
X30891Y120234D01*
X31500Y121704D01*
Y123296D01*
X30891Y124766D01*
X29766Y125891D01*
X28505Y126413D01*
X27970Y127673D01*
X42571Y142275D01*
X42962Y142859D01*
X43099Y143548D01*
Y145235D01*
X43779Y145797D01*
X45186Y145686D01*
X46018Y145130D01*
X47000Y144935D01*
X58500D01*
X59466Y145127D01*
X61087Y143506D01*
X61000Y143296D01*
Y141704D01*
X61609Y140234D01*
X62270Y139573D01*
X62593Y138750D01*
X62270Y137927D01*
X61609Y137266D01*
X61000Y135796D01*
Y134204D01*
X61609Y132734D01*
X62734Y131609D01*
X64204Y131000D01*
X65796D01*
X66674Y131364D01*
X67935Y130634D01*
X67944Y130620D01*
Y125851D01*
X61649Y119556D01*
X59952D01*
X59482Y119870D01*
X58500Y120065D01*
X47000D01*
X46018Y119870D01*
X45186Y119314D01*
X44630Y118482D01*
X44493Y117792D01*
X44076Y117580D01*
X43524Y117429D01*
X43219Y117405D01*
X42266Y118359D01*
X40796Y118968D01*
X39204D01*
X37734Y118359D01*
X36609Y117234D01*
X36000Y115764D01*
Y114172D01*
X36609Y112702D01*
X37734Y111577D01*
X39204Y110968D01*
X40796D01*
X42266Y111577D01*
X43230Y112541D01*
X43354Y112537D01*
X44080Y112364D01*
X44503Y112155D01*
X44630Y111518D01*
X45186Y110686D01*
Y109314D01*
X44630Y108482D01*
X44435Y107500D01*
X44630Y106518D01*
X45186Y105686D01*
Y104314D01*
X44630Y103482D01*
X44435Y102500D01*
X44630Y101518D01*
X45186Y100686D01*
Y99314D01*
X44630Y98482D01*
X44435Y97500D01*
X44630Y96518D01*
X45186Y95686D01*
X46018Y95130D01*
X47000Y94935D01*
X58500D01*
X59482Y95130D01*
X60314Y95686D01*
X60870Y96518D01*
X61065Y97500D01*
X60870Y98482D01*
X60314Y99314D01*
Y100686D01*
X60870Y101518D01*
X61065Y102500D01*
X60870Y103482D01*
X60407Y104174D01*
X60567Y104795D01*
X60908Y105444D01*
X62500D01*
X62500Y105444D01*
X63287Y105601D01*
X63953Y106046D01*
X71453Y113546D01*
X71453Y113546D01*
X71899Y114213D01*
X72056Y115000D01*
Y120000D01*
X72056Y120000D01*
X72056Y120000D01*
Y125000D01*
X72056Y125000D01*
X72056Y125000D01*
Y130837D01*
X72219Y131000D01*
X73296D01*
X74766Y131609D01*
X75891Y132734D01*
X76500Y134204D01*
Y135796D01*
X75891Y137266D01*
X74766Y138391D01*
X73296Y139000D01*
X72867D01*
X71801Y140000D01*
Y145449D01*
X75250D01*
X75348Y145469D01*
X76552D01*
X77241Y145606D01*
X77264Y145622D01*
X77421Y145632D01*
X78624Y145232D01*
X78743Y145118D01*
X79109Y144234D01*
X80234Y143109D01*
X81704Y142500D01*
X83296D01*
X84766Y143109D01*
X85891Y144234D01*
X86500Y145704D01*
Y147296D01*
X85891Y148766D01*
X84766Y149891D01*
X84613Y149954D01*
X84365Y151200D01*
X87166Y154001D01*
X87500Y153935D01*
X88482Y154130D01*
X89314Y154686D01*
X90686D01*
X91518Y154130D01*
X92500Y153935D01*
X93482Y154130D01*
X94314Y154686D01*
X95686D01*
X96518Y154130D01*
X97500Y153935D01*
X98482Y154130D01*
X99314Y154686D01*
X99870Y155518D01*
X100065Y156500D01*
Y168000D01*
X99870Y168982D01*
X99314Y169814D01*
X98482Y170370D01*
X98264Y170413D01*
X97380Y171297D01*
Y173941D01*
X97380Y173941D01*
X97224Y174727D01*
X96778Y175394D01*
X96778Y175394D01*
X90703Y181469D01*
X90036Y181915D01*
X89249Y182071D01*
X89249Y182071D01*
X59868D01*
X57627Y184312D01*
X57765Y185091D01*
X58000Y185612D01*
X58051Y185622D01*
X64807D01*
Y194378D01*
X58051D01*
X57852Y194418D01*
X57313Y195469D01*
Y197899D01*
X58437Y199023D01*
X58883Y199690D01*
X59040Y200476D01*
X59040Y200476D01*
Y205217D01*
X59040Y205217D01*
X58984Y205494D01*
Y217078D01*
X60891Y218984D01*
X74016D01*
Y233016D01*
X57984D01*
Y223477D01*
X55272D01*
X55272Y223477D01*
X54486Y223320D01*
X53819Y222875D01*
X53819Y222875D01*
X50984Y220040D01*
X37016D01*
X36594Y220461D01*
X35928Y220907D01*
X35141Y221063D01*
X35141Y221063D01*
X30805D01*
Y227000D01*
X30649Y227787D01*
X30203Y228453D01*
X29537Y228899D01*
X28750Y229056D01*
X21250D01*
X20463Y228899D01*
X19797Y228453D01*
X19351Y227787D01*
X19195Y227000D01*
Y221000D01*
X19351Y220213D01*
X19797Y219547D01*
X20463Y219101D01*
X21250Y218944D01*
X27151D01*
X27297Y218726D01*
X27647Y218375D01*
Y217120D01*
X26613Y216056D01*
X21250D01*
X20463Y215899D01*
X19797Y215453D01*
X19351Y214787D01*
X19195Y214000D01*
Y210973D01*
X17924Y210447D01*
X17266Y211105D01*
X15796Y211714D01*
X14204D01*
X12734Y211105D01*
X11609Y209980D01*
X11000Y208510D01*
Y206919D01*
X11609Y205449D01*
X12435Y204623D01*
Y200040D01*
X10515D01*
Y194960D01*
X14897D01*
X15024Y194935D01*
X17500D01*
X17627Y194960D01*
X24485D01*
Y200040D01*
X17627D01*
X17565Y200052D01*
Y204623D01*
X18391Y205449D01*
X18625Y206014D01*
X18946Y206160D01*
X20129Y206325D01*
X20463Y206101D01*
X21250Y205944D01*
X28750D01*
X29537Y206101D01*
X30203Y206546D01*
X30649Y207213D01*
X30805Y208000D01*
Y213937D01*
X33040D01*
X33462Y213515D01*
X33462Y213514D01*
X34129Y213069D01*
X34916Y212913D01*
X35984Y212268D01*
Y201984D01*
X49616D01*
X50330Y200807D01*
X50329Y200714D01*
X50187Y199999D01*
X50187Y199999D01*
Y195469D01*
X49648Y194418D01*
X49449Y194378D01*
X42693D01*
Y185622D01*
X49449D01*
X49648Y185582D01*
X50187Y184531D01*
Y182526D01*
X50187Y182525D01*
X50343Y181739D01*
X50788Y181072D01*
X56314Y175547D01*
X56981Y175101D01*
X57767Y174944D01*
X57768Y174944D01*
X64194D01*
X64582Y174091D01*
X64628Y173675D01*
X52504Y161551D01*
X43561D01*
X42872Y161413D01*
X42287Y161023D01*
X37173Y155909D01*
X36968Y155961D01*
X36000Y156532D01*
Y157796D01*
X35391Y159266D01*
X34266Y160391D01*
X32796Y161000D01*
X31971D01*
X31500Y161704D01*
Y163296D01*
X30891Y164766D01*
X29766Y165891D01*
X28584Y166381D01*
X28080Y167673D01*
X31453Y171047D01*
X31453Y171047D01*
X31674Y171377D01*
X32945Y170992D01*
Y170000D01*
X32945Y170000D01*
X33101Y169213D01*
X33547Y168547D01*
X36047Y166047D01*
X36713Y165601D01*
X37500Y165445D01*
X37500Y165445D01*
X41522D01*
X41609Y165234D01*
X42734Y164109D01*
X44204Y163500D01*
X45796D01*
X47266Y164109D01*
X48391Y165234D01*
X49000Y166704D01*
Y168296D01*
X48391Y169766D01*
X47266Y170891D01*
X45796Y171500D01*
X44204D01*
X42734Y170891D01*
X41609Y169766D01*
X41522Y169555D01*
X38351D01*
X37055Y170851D01*
Y180000D01*
X36899Y180787D01*
X36453Y181453D01*
X36453Y181453D01*
X28953Y188953D01*
X28287Y189399D01*
X27500Y189555D01*
X27500Y189555D01*
X24485D01*
Y190040D01*
X10515D01*
Y185065D01*
X2757D01*
X1776Y184870D01*
X943Y184314D01*
X630Y184000D01*
X-796D01*
X-2266Y183391D01*
X-3391Y182266D01*
X-4000Y180796D01*
Y179204D01*
X-3391Y177734D01*
X-2266Y176609D01*
X-796Y176000D01*
X576D01*
X1004Y175393D01*
X1158Y174944D01*
X364Y174000D01*
X-796D01*
X-2266Y173391D01*
X-3391Y172266D01*
X-4000Y170796D01*
Y169204D01*
X-3391Y167734D01*
X-2266Y166609D01*
X-796Y166000D01*
X796D01*
X2266Y166609D01*
X3391Y167734D01*
X4000Y169204D01*
Y170372D01*
X8563Y174935D01*
X17500D01*
X17627Y174960D01*
X24485D01*
Y185445D01*
X26649D01*
X29420Y182673D01*
X28916Y181381D01*
X27734Y180891D01*
X26609Y179766D01*
X26000Y178296D01*
Y176704D01*
X26609Y175234D01*
X27433Y174410D01*
X27509Y173126D01*
X27447Y172854D01*
X25389Y170796D01*
X24485Y170040D01*
Y170040D01*
X24485Y170040D01*
X10515D01*
Y158934D01*
X10220Y158875D01*
X9553Y158429D01*
X8062Y156938D01*
X7616Y156271D01*
X7459Y155484D01*
X7459Y155484D01*
Y145632D01*
X-2273Y135899D01*
X-2451Y135884D01*
X-3697Y136271D01*
X-4109Y137266D01*
X-5234Y138391D01*
X-6704Y139000D01*
X-8296D01*
X-9766Y138391D01*
X-10891Y137266D01*
X-11500Y135796D01*
Y134628D01*
X-22063Y124065D01*
X-69619D01*
X-70360Y125335D01*
X-70000Y126204D01*
Y127796D01*
X-70087Y128006D01*
X-68547Y129546D01*
X-68547Y129546D01*
X-68101Y130213D01*
X-67944Y131000D01*
Y140000D01*
X-68101Y140787D01*
X-68547Y141454D01*
X-68547Y141454D01*
X-80396Y153303D01*
Y174631D01*
X-80552Y175418D01*
X-80918Y175965D01*
X-79931Y176775D01*
X-79766Y176609D01*
X-78296Y176000D01*
X-76704D01*
X-75234Y176609D01*
X-74109Y177734D01*
X-73500Y179204D01*
Y180796D01*
X-74109Y182266D01*
X-74112Y182268D01*
X-74126Y182465D01*
X-73740Y183692D01*
X-72734Y184109D01*
X-71609Y185234D01*
X-71000Y186704D01*
Y188296D01*
X-71609Y189766D01*
X-72734Y190891D01*
X-74204Y191500D01*
X-75796D01*
X-77266Y190891D01*
X-78391Y189766D01*
X-78478Y189555D01*
X-83128D01*
X-83271Y189804D01*
X-83518Y190826D01*
X-82609Y191734D01*
X-82000Y193204D01*
Y194796D01*
X-82609Y196266D01*
X-83734Y197391D01*
X-85204Y198000D01*
X-86796D01*
X-88266Y197391D01*
X-89245Y196412D01*
X-89932Y196524D01*
X-90515Y196801D01*
Y200040D01*
X-104485D01*
Y199859D01*
X-105755Y199774D01*
X-106364Y200826D01*
X-106000Y201704D01*
Y203296D01*
X-106609Y204766D01*
X-107734Y205891D01*
X-109204Y206500D01*
X-110796D01*
X-112266Y205891D01*
X-113391Y204766D01*
X-114000Y203296D01*
Y201704D01*
X-113391Y200234D01*
X-112266Y199109D01*
X-111084Y198619D01*
X-110580Y197327D01*
X-120454Y187453D01*
X-120899Y186787D01*
X-121055Y186000D01*
X-121055Y186000D01*
Y150415D01*
X-122325Y149679D01*
X-123204Y150043D01*
X-124796D01*
X-126266Y149434D01*
X-127391Y148309D01*
X-127496Y148055D01*
X-181072D01*
X-181859Y147899D01*
X-182526Y147453D01*
X-182526Y147453D01*
X-184183Y145796D01*
X-185602Y146173D01*
X-185966Y147052D01*
X-187091Y148178D01*
X-188561Y148786D01*
X-190152D01*
X-191622Y148178D01*
X-192748Y147052D01*
X-193122Y146149D01*
X-194530Y145890D01*
X-195639Y147314D01*
X-195610Y147385D01*
X-195641Y147460D01*
X-194099Y149591D01*
X-185601Y159959D01*
X-184729Y160871D01*
X-184725Y160880D01*
X-183939Y161868D01*
X-176560Y169845D01*
X-175679Y170797D01*
X-175064Y171367D01*
X-174767Y171638D01*
X-174764Y171644D01*
X-174766Y171770D01*
X-174011Y172500D01*
X-169887Y176455D01*
X-164317Y181797D01*
X-164188Y181790D01*
X-164179Y181794D01*
X-163285Y182682D01*
X-153142Y191306D01*
X-153016Y191292D01*
X-153015Y191292D01*
X-153008Y191295D01*
X-153008Y191295D01*
X-152060Y192126D01*
X-142357Y199422D01*
X-141295Y200108D01*
X-141287Y200111D01*
X-140287Y200884D01*
X-133374Y205461D01*
X-133374Y205461D01*
X-130167Y207584D01*
X-129067Y208206D01*
X-129060Y208209D01*
X-128016Y208918D01*
X-117512Y215001D01*
X-116377Y215557D01*
X-116369Y215561D01*
X-115282Y216205D01*
X-104435Y221648D01*
X-103261Y222139D01*
X-102137Y222717D01*
X-94191Y226125D01*
X-90985Y227500D01*
X-89791Y227917D01*
X-89783Y227921D01*
X-88625Y228430D01*
X-78402Y232108D01*
X-77207Y232538D01*
X-75990Y232882D01*
X-75990Y232882D01*
X-75789Y232957D01*
X-74796Y233324D01*
X-62023Y237073D01*
X-61917Y237011D01*
X-61893Y237019D01*
X-60694Y237383D01*
X-48828Y240106D01*
X-47625Y240291D01*
X-47623Y240289D01*
X-47614Y240293D01*
X-46384Y240589D01*
X-34415Y242591D01*
X-33157Y242706D01*
X-33133Y242711D01*
X-31930Y242931D01*
X-25787Y243583D01*
X-19834Y244216D01*
X-18573Y244253D01*
X-18573Y244253D01*
X-17858Y244342D01*
X-17311Y244407D01*
X-15454Y244493D01*
X-14535Y243616D01*
Y233486D01*
X-14766Y233391D01*
X-15422Y232735D01*
X-16260Y232415D01*
X-17069Y232741D01*
X-17734Y233407D01*
X-19204Y234016D01*
X-20796D01*
X-22266Y233407D01*
X-22931Y232742D01*
X-23740Y232415D01*
X-24578Y232735D01*
X-25234Y233391D01*
X-26704Y234000D01*
X-28296D01*
X-29766Y233391D01*
X-30891Y232266D01*
X-31500Y230796D01*
Y229204D01*
X-30891Y227734D01*
X-29766Y226609D01*
X-28296Y226000D01*
X-27435D01*
X-27259Y225755D01*
X-27909Y224485D01*
X-58449D01*
X-58935Y225658D01*
X-56633Y227960D01*
X-48478D01*
X-48391Y227750D01*
X-47266Y226625D01*
X-45796Y226016D01*
X-44204D01*
X-42734Y226625D01*
X-41609Y227750D01*
X-41000Y229220D01*
Y230812D01*
X-41609Y232282D01*
X-42734Y233407D01*
X-44204Y234016D01*
X-45796D01*
X-47266Y233407D01*
X-48391Y232282D01*
X-48478Y232071D01*
X-57484D01*
X-57484Y232071D01*
X-58271Y231915D01*
X-58938Y231469D01*
X-58938Y231469D01*
X-63836Y226571D01*
X-64281Y225904D01*
X-64438Y225118D01*
X-65426Y224485D01*
X-70040D01*
Y217142D01*
X-70072Y216984D01*
X-70072Y216984D01*
Y206010D01*
X-71342Y205758D01*
X-71609Y206403D01*
X-72734Y207529D01*
X-74204Y208138D01*
X-74935D01*
Y217500D01*
X-74960Y217627D01*
Y224485D01*
X-80040D01*
Y217627D01*
X-80065Y217500D01*
Y207031D01*
X-79870Y206049D01*
X-79314Y205217D01*
X-79000Y204903D01*
Y203342D01*
X-78391Y201872D01*
X-77266Y200747D01*
X-75796Y200138D01*
X-74204D01*
X-72734Y200747D01*
X-71609Y201872D01*
X-71342Y202518D01*
X-70072Y202265D01*
Y190680D01*
X-70072Y190680D01*
X-69915Y189893D01*
X-69469Y189226D01*
X-67122Y186879D01*
X-67122Y186878D01*
X-67122Y186878D01*
X-64774Y184531D01*
X-64774Y184531D01*
X-64107Y184085D01*
X-63320Y183929D01*
X-62131D01*
X-52056Y173853D01*
Y170978D01*
X-52266Y170891D01*
X-53391Y169766D01*
X-54000Y168296D01*
Y166704D01*
X-53391Y165234D01*
X-52266Y164109D01*
X-50796Y163500D01*
X-49262D01*
Y161967D01*
X-48653Y160496D01*
X-47528Y159371D01*
X-46058Y158762D01*
X-44467D01*
X-42997Y159371D01*
X-41871Y160496D01*
X-41262Y161967D01*
Y162327D01*
X-40796Y163500D01*
X-40173D01*
X-39174Y163326D01*
X-39000Y162327D01*
Y161704D01*
X-38391Y160234D01*
X-37266Y159109D01*
X-35796Y158500D01*
X-34204D01*
X-32734Y159109D01*
X-31609Y160234D01*
X-31000Y161704D01*
Y162327D01*
X-29597Y162978D01*
X-29061Y162676D01*
X-29000Y162327D01*
Y161704D01*
X-28391Y160234D01*
X-27266Y159109D01*
X-25796Y158500D01*
X-24204D01*
X-22734Y159109D01*
X-21609Y160234D01*
X-21000Y161704D01*
Y163296D01*
X-21609Y164766D01*
X-22734Y165891D01*
X-22945Y165978D01*
Y172500D01*
X-22945Y172500D01*
X-23101Y173287D01*
X-23547Y173953D01*
X-30445Y180851D01*
Y200992D01*
X-29174Y201377D01*
X-28953Y201047D01*
X-27315Y199408D01*
X-26540Y198525D01*
X-26517Y198470D01*
X-26415Y198449D01*
X-25540Y196280D01*
X-25726Y196094D01*
X-26335Y194624D01*
Y193033D01*
X-25726Y191563D01*
X-24601Y190438D01*
X-23131Y189829D01*
X-21539D01*
X-20069Y190438D01*
X-18944Y191563D01*
X-18335Y193033D01*
Y194624D01*
X-18944Y196094D01*
X-20069Y197220D01*
X-21539Y197829D01*
X-21732D01*
X-22646Y200096D01*
X-22617Y200107D01*
X-22624Y200146D01*
X-23274Y201118D01*
X-23276Y201122D01*
X-23276Y201122D01*
X-23509Y201469D01*
X-23544Y201451D01*
X-25445Y203351D01*
Y210515D01*
X40D01*
Y224485D01*
X40Y224485D01*
X40D01*
X801Y225394D01*
X1494Y226087D01*
X1704Y226000D01*
X3296D01*
X4766Y226609D01*
X5891Y227734D01*
X6500Y229204D01*
Y230796D01*
X5891Y232266D01*
X4766Y233391D01*
X3296Y234000D01*
X1704D01*
X234Y233391D01*
X-427Y232730D01*
X-1250Y232407D01*
X-2073Y232730D01*
X-2734Y233391D01*
X-4204Y234000D01*
X-5796D01*
X-7266Y233391D01*
X-7927Y232730D01*
X-8750Y232407D01*
X-9573Y232730D01*
X-10234Y233391D01*
X-10424Y233470D01*
Y246687D01*
X-10190Y247049D01*
X-9697Y247606D01*
X-9384Y247791D01*
X-9379Y247792D01*
X-3968Y248040D01*
X10882Y247833D01*
D02*
G37*
G36*
X-74158Y141251D02*
X-74703Y140000D01*
X-75796D01*
X-77266Y139391D01*
X-78391Y138266D01*
X-79000Y136796D01*
Y135204D01*
X-78391Y133734D01*
X-77266Y132609D01*
X-75796Y132000D01*
X-75700D01*
X-75447Y130730D01*
X-76266Y130391D01*
X-77391Y129266D01*
X-78000Y127796D01*
Y126204D01*
X-77640Y125335D01*
X-78382Y124065D01*
X-81319D01*
X-81609Y124766D01*
X-82734Y125891D01*
X-84204Y126500D01*
X-85796D01*
X-87266Y125891D01*
X-88091Y125065D01*
X-97500D01*
X-97627Y125040D01*
X-104485D01*
Y119960D01*
X-105587Y119556D01*
X-107500D01*
X-107500Y119556D01*
X-108287Y119399D01*
X-108954Y118954D01*
X-109802Y118105D01*
X-110972Y118731D01*
X-110913Y119032D01*
X-110913Y119032D01*
Y133460D01*
X-110239Y133841D01*
X-109642Y134058D01*
X-108296Y133500D01*
X-106704D01*
X-105755Y133893D01*
X-104485Y133199D01*
Y129960D01*
X-90617D01*
X-89766Y129109D01*
X-88296Y128500D01*
X-86704D01*
X-85234Y129109D01*
X-84109Y130234D01*
X-83500Y131704D01*
Y133296D01*
X-84109Y134766D01*
X-85234Y135891D01*
X-86704Y136500D01*
X-88296D01*
X-89245Y136107D01*
X-90515Y136801D01*
Y138199D01*
X-89245Y138893D01*
X-88296Y138500D01*
X-86704D01*
X-85234Y139109D01*
X-84109Y140234D01*
X-83500Y141704D01*
Y143296D01*
X-84109Y144766D01*
X-85234Y145891D01*
X-86704Y146500D01*
X-88296D01*
X-88564Y146389D01*
X-89284Y147465D01*
X-88249Y148500D01*
X-86704D01*
X-85234Y149109D01*
X-84109Y150234D01*
X-83302Y150395D01*
X-74158Y141251D01*
D02*
G37*
G36*
X-81136Y114174D02*
X-81500Y113296D01*
Y111704D01*
X-80891Y110234D01*
X-80065Y109409D01*
Y102500D01*
X-80040Y102373D01*
Y95515D01*
X-74556D01*
Y72371D01*
X-75622Y71878D01*
X-81471D01*
X-83925Y74332D01*
X-84592Y74777D01*
X-85378Y74934D01*
X-85379Y74934D01*
X-98703D01*
X-99189Y76107D01*
X-96102Y79194D01*
X-91000D01*
X-90213Y79351D01*
X-89547Y79797D01*
X-89101Y80463D01*
X-88945Y81250D01*
Y88750D01*
X-89101Y89537D01*
X-89547Y90204D01*
X-90213Y90649D01*
X-91000Y90806D01*
X-97000D01*
X-97787Y90649D01*
X-98454Y90204D01*
X-98899Y89537D01*
X-99056Y88750D01*
Y82055D01*
X-103055Y78056D01*
X-115216D01*
X-115342Y79325D01*
X-115213Y79351D01*
X-114547Y79797D01*
X-114101Y80463D01*
X-113945Y81250D01*
Y87899D01*
X-111047Y90796D01*
X-111046Y90796D01*
X-110601Y91463D01*
X-110444Y92250D01*
X-110444Y92250D01*
Y93379D01*
X-109174Y94229D01*
X-109000Y94194D01*
X-103000D01*
X-102213Y94351D01*
X-101547Y94796D01*
X-101101Y95463D01*
X-100944Y96250D01*
Y103750D01*
X-101101Y104537D01*
X-101547Y105204D01*
X-102213Y105649D01*
X-103000Y105806D01*
X-109000D01*
X-109174Y105771D01*
X-110444Y106621D01*
Y111649D01*
X-106649Y115444D01*
X-81872D01*
X-81136Y114174D01*
D02*
G37*
G36*
X-132500Y71616D02*
X-132766D01*
Y65000D01*
X-150000D01*
Y78402D01*
X-149343Y79274D01*
X-149155Y80000D01*
X-132500D01*
Y71616D01*
D02*
G37*
G36*
X-168250Y53450D02*
X-231750D01*
Y60850D01*
X-168250D01*
Y53450D01*
D02*
G37*
G36*
X-140000Y45000D02*
X-139900Y44900D01*
X-128250D01*
Y36750D01*
X-139352Y25648D01*
X-140622Y26174D01*
Y29378D01*
X-149807D01*
Y29378D01*
X-150193D01*
Y29378D01*
X-159378D01*
Y25000D01*
X-235000D01*
Y50000D01*
X-140000D01*
Y45000D01*
D02*
G37*
G36*
X-168250Y-10050D02*
X-231750D01*
Y10050D01*
X-168250D01*
Y-10050D01*
D02*
G37*
%LPC*%
G36*
X90796Y226500D02*
X89204D01*
X87734Y225891D01*
X86609Y224766D01*
X86000Y223296D01*
Y221704D01*
X86609Y220234D01*
X87734Y219109D01*
X89204Y218500D01*
X90796D01*
X92266Y219109D01*
X93391Y220234D01*
X94000Y221704D01*
Y223296D01*
X93391Y224766D01*
X92266Y225891D01*
X90796Y226500D01*
D02*
G37*
G36*
X100796Y197500D02*
X99204D01*
X97734Y196891D01*
X96609Y195766D01*
X96000Y194296D01*
Y192704D01*
X96609Y191234D01*
X97734Y190109D01*
X99204Y189500D01*
X100796D01*
X102266Y190109D01*
X103391Y191234D01*
X104000Y192704D01*
Y194296D01*
X103391Y195766D01*
X102266Y196891D01*
X100796Y197500D01*
D02*
G37*
G36*
X-134204Y195250D02*
X-135796D01*
X-136361Y195016D01*
X-143516D01*
Y187484D01*
X-136361D01*
X-135796Y187250D01*
X-134204D01*
X-133639Y187484D01*
X-126484D01*
Y195016D01*
X-133639D01*
X-134204Y195250D01*
D02*
G37*
G36*
X80796Y222000D02*
X79204D01*
X77734Y221391D01*
X76609Y220266D01*
X76000Y218796D01*
Y217204D01*
X76609Y215734D01*
X77734Y214609D01*
X79204Y214000D01*
X80372D01*
X92186Y202186D01*
X93018Y201630D01*
X94000Y201435D01*
X119937D01*
X127086Y194286D01*
X126984Y193016D01*
X126984D01*
Y185984D01*
X137016D01*
Y193016D01*
X132565D01*
Y195000D01*
X132370Y195982D01*
X131814Y196814D01*
X122814Y205814D01*
X121982Y206370D01*
X121000Y206565D01*
X114364D01*
X113516Y207484D01*
X113516Y207835D01*
Y215016D01*
X104675D01*
X103827Y216286D01*
X104000Y216704D01*
Y218296D01*
X103391Y219766D01*
X102266Y220891D01*
X100796Y221500D01*
X99204D01*
X97734Y220891D01*
X96609Y219766D01*
X96000Y218296D01*
Y216704D01*
X96188Y216250D01*
X96484Y215016D01*
X96484D01*
X96484Y215016D01*
Y207835D01*
X96484Y207484D01*
X96117Y207086D01*
X94568Y207060D01*
X84000Y217628D01*
Y218796D01*
X83391Y220266D01*
X82266Y221391D01*
X80796Y222000D01*
D02*
G37*
G36*
X83296Y191500D02*
X81704D01*
X80234Y190891D01*
X79109Y189766D01*
X78500Y188296D01*
Y186704D01*
X79109Y185234D01*
X80234Y184109D01*
X81704Y183500D01*
X83296D01*
X84766Y184109D01*
X85891Y185234D01*
X86500Y186704D01*
Y188296D01*
X85891Y189766D01*
X84766Y190891D01*
X83296Y191500D01*
D02*
G37*
G36*
X148796Y193500D02*
X147204D01*
X146036Y193016D01*
X142984D01*
Y185984D01*
X146036D01*
X146057Y185975D01*
X146247Y184522D01*
X145645Y184016D01*
X142984D01*
Y176984D01*
X146036D01*
X147204Y176500D01*
X148796D01*
X149964Y176984D01*
X153016D01*
Y184016D01*
X149964D01*
X149943Y184025D01*
X149753Y185478D01*
X150356Y185984D01*
X153016D01*
Y193016D01*
X149964D01*
X148796Y193500D01*
D02*
G37*
G36*
X123296Y184000D02*
X121704D01*
X120234Y183391D01*
X119109Y182266D01*
X118500Y180796D01*
Y179204D01*
X119109Y177734D01*
X120234Y176609D01*
X121704Y176000D01*
X123296D01*
X124766Y176609D01*
X125891Y177734D01*
X126500Y179204D01*
Y180796D01*
X125891Y182266D01*
X124766Y183391D01*
X123296Y184000D01*
D02*
G37*
G36*
X-154204D02*
X-155796D01*
X-157266Y183391D01*
X-158391Y182266D01*
X-159000Y180796D01*
Y179204D01*
X-158391Y177734D01*
X-157266Y176609D01*
X-155796Y176000D01*
X-154204D01*
X-152734Y176609D01*
X-151609Y177734D01*
X-151000Y179204D01*
Y180796D01*
X-151609Y182266D01*
X-152734Y183391D01*
X-154204Y184000D01*
D02*
G37*
G36*
X123956Y173571D02*
X123956Y173571D01*
X116016D01*
X116016Y173571D01*
X115229Y173415D01*
X114563Y172969D01*
X114563Y172969D01*
X112073Y170480D01*
X111518Y170370D01*
X110686Y169814D01*
X109314D01*
X108482Y170370D01*
X107500Y170565D01*
X106518Y170370D01*
X105686Y169814D01*
X105130Y168982D01*
X104935Y168000D01*
Y162250D01*
Y150500D01*
X105130Y149518D01*
X105686Y148686D01*
X106022Y148350D01*
X106000Y148296D01*
Y146704D01*
X106609Y145234D01*
X107734Y144109D01*
X109204Y143500D01*
X110796D01*
X112266Y144109D01*
X113391Y145234D01*
X114000Y146704D01*
Y148296D01*
X113391Y149766D01*
X112266Y150891D01*
X110796Y151500D01*
X110128D01*
X110065Y151563D01*
Y153573D01*
X111335Y154252D01*
X111518Y154130D01*
X112500Y153935D01*
X113482Y154130D01*
X114314Y154686D01*
X115686D01*
X116518Y154130D01*
X117500Y153935D01*
X118482Y154130D01*
X119207Y154614D01*
X119421Y154692D01*
X119497Y154697D01*
X120616Y154271D01*
X120636Y154263D01*
X120792Y153476D01*
X121238Y152809D01*
X124485Y149563D01*
X125152Y149117D01*
X125938Y148961D01*
X125938Y148961D01*
X128039D01*
X128973Y147690D01*
X128935Y147500D01*
X129130Y146518D01*
X129686Y145686D01*
X130518Y145130D01*
X131500Y144935D01*
X143000D01*
X143982Y145130D01*
X144814Y145686D01*
X144922Y145848D01*
X146480Y146085D01*
X153928Y138637D01*
Y98266D01*
X153928Y98266D01*
X154085Y97479D01*
X154531Y96812D01*
X158444Y92899D01*
Y86250D01*
X158601Y85463D01*
X159046Y84796D01*
X159713Y84351D01*
X160500Y84194D01*
X166500D01*
X167287Y84351D01*
X167953Y84796D01*
X168399Y85463D01*
X168556Y86250D01*
Y93750D01*
X168399Y94537D01*
X167953Y95204D01*
X167287Y95649D01*
X166500Y95806D01*
X161351D01*
X158568Y98589D01*
X159378Y99575D01*
X159713Y99351D01*
X160500Y99194D01*
X166500D01*
X167287Y99351D01*
X167953Y99796D01*
X168399Y100463D01*
X168556Y101250D01*
Y108750D01*
X168399Y109537D01*
X167953Y110204D01*
X167287Y110649D01*
X166500Y110806D01*
X161351D01*
X161056Y111101D01*
Y120628D01*
X162325Y121364D01*
X163204Y121000D01*
X164796D01*
X166266Y121609D01*
X167391Y122734D01*
X167563Y123149D01*
X168937D01*
X169109Y122734D01*
X169774Y122069D01*
X170089Y121238D01*
X169770Y120427D01*
X169099Y119755D01*
X168490Y118285D01*
Y116694D01*
X169099Y115224D01*
X170224Y114099D01*
X171694Y113490D01*
X173285D01*
X174755Y114099D01*
X175881Y115224D01*
X176215Y116032D01*
X176984Y116984D01*
X187016D01*
Y124016D01*
X181248D01*
X181000Y124065D01*
X177664D01*
X176827Y125131D01*
X177128Y125895D01*
X177692Y125984D01*
X187016D01*
Y133016D01*
X181248D01*
X181000Y133065D01*
X179534D01*
X178472Y134128D01*
Y135296D01*
X177863Y136766D01*
X176738Y137891D01*
X175268Y138500D01*
X173676D01*
X172206Y137891D01*
X171081Y136766D01*
X170472Y135296D01*
Y133704D01*
X171081Y132234D01*
X172206Y131109D01*
X173676Y130500D01*
X174844D01*
X176389Y128954D01*
X176443Y128510D01*
X176195Y128264D01*
X175988Y128173D01*
X175006Y128151D01*
X174766Y128391D01*
X173296Y129000D01*
X171704D01*
X170234Y128391D01*
X169109Y127266D01*
X168937Y126851D01*
X167563D01*
X167391Y127266D01*
X166266Y128391D01*
X164796Y129000D01*
X163204D01*
X162325Y128636D01*
X161056Y129372D01*
Y140166D01*
X162325Y140419D01*
X162609Y139734D01*
X163734Y138609D01*
X165204Y138000D01*
X166796D01*
X168266Y138609D01*
X169391Y139734D01*
X170000Y141204D01*
Y142796D01*
X169391Y144266D01*
X168266Y145391D01*
X167251Y145811D01*
X167016Y146984D01*
X167016Y147179D01*
Y154016D01*
X159961D01*
X159295Y154833D01*
X159793Y155984D01*
X167016D01*
Y163016D01*
X159891D01*
X153437Y169470D01*
X152771Y169915D01*
X151984Y170072D01*
X151984Y170072D01*
X138016D01*
X138016Y170072D01*
X137229Y169915D01*
X136562Y169470D01*
X136562Y169469D01*
X133506Y166413D01*
X133296Y166500D01*
X131704D01*
X130234Y165891D01*
X129341Y164998D01*
X128249Y165281D01*
X128071Y165388D01*
Y169456D01*
X128071Y169456D01*
X127915Y170243D01*
X127469Y170910D01*
X127469Y170910D01*
X125410Y172969D01*
X124743Y173415D01*
X124612Y173441D01*
X123956Y173571D01*
D02*
G37*
G36*
X-129204Y175000D02*
X-130796D01*
X-132266Y174391D01*
X-133391Y173266D01*
X-134000Y171796D01*
Y170204D01*
X-133391Y168734D01*
X-132266Y167609D01*
X-130796Y167000D01*
X-129204D01*
X-127734Y167609D01*
X-126609Y168734D01*
X-126000Y170204D01*
Y171796D01*
X-126609Y173266D01*
X-127734Y174391D01*
X-129204Y175000D01*
D02*
G37*
G36*
X-160382Y166120D02*
X-161974D01*
X-163444Y165511D01*
X-164569Y164386D01*
X-165178Y162916D01*
Y161324D01*
X-164569Y159854D01*
X-163444Y158729D01*
X-161974Y158120D01*
X-160382D01*
X-158912Y158729D01*
X-157787Y159854D01*
X-157178Y161324D01*
Y162916D01*
X-157787Y164386D01*
X-158912Y165511D01*
X-160382Y166120D01*
D02*
G37*
G36*
X178796Y163500D02*
X177204D01*
X176036Y163016D01*
X172984D01*
Y155984D01*
X176036D01*
X176057Y155975D01*
X176247Y154522D01*
X175645Y154016D01*
X172984D01*
Y146984D01*
X176036D01*
X177204Y146500D01*
X178796D01*
X179964Y146984D01*
X183016D01*
Y154016D01*
X179964D01*
X179943Y154025D01*
X179753Y155478D01*
X180355Y155984D01*
X183016D01*
Y163016D01*
X179964D01*
X178796Y163500D01*
D02*
G37*
G36*
X123296Y146500D02*
X121704D01*
X120234Y145891D01*
X119109Y144766D01*
X118500Y143296D01*
Y141704D01*
X119109Y140234D01*
X120234Y139109D01*
X121704Y138500D01*
X122864D01*
X123658Y137556D01*
X123504Y137107D01*
X123076Y136500D01*
X121704D01*
X120234Y135891D01*
X119109Y134766D01*
X118500Y133296D01*
Y131704D01*
X119109Y130234D01*
X120234Y129109D01*
X121704Y128500D01*
X123076D01*
X123504Y127893D01*
X123658Y127444D01*
X122864Y126500D01*
X121704D01*
X120234Y125891D01*
X119109Y124766D01*
X118500Y123296D01*
Y121704D01*
X119109Y120234D01*
X120234Y119109D01*
X121704Y118500D01*
X123296D01*
X124766Y119109D01*
X125891Y120234D01*
X126500Y121704D01*
Y122872D01*
X128563Y124935D01*
X143000D01*
X143982Y125130D01*
X144814Y125686D01*
X145370Y126518D01*
X145565Y127500D01*
X145370Y128482D01*
X144814Y129314D01*
Y130686D01*
X145370Y131518D01*
X145565Y132500D01*
X145370Y133482D01*
X144814Y134314D01*
Y135686D01*
X145370Y136518D01*
X145565Y137500D01*
X145370Y138482D01*
X144814Y139314D01*
X143982Y139870D01*
X143000Y140065D01*
X128563D01*
X126500Y142128D01*
Y143296D01*
X125891Y144766D01*
X124766Y145891D01*
X123296Y146500D01*
D02*
G37*
G36*
X198796Y133500D02*
X197204D01*
X196036Y133016D01*
X192984D01*
Y125984D01*
X196036D01*
X196057Y125975D01*
X196247Y124522D01*
X195645Y124016D01*
X192984D01*
Y116984D01*
X196036D01*
X197204Y116500D01*
X198796D01*
X199964Y116984D01*
X203016D01*
Y124016D01*
X199964D01*
X199943Y124025D01*
X199753Y125478D01*
X200355Y125984D01*
X203016D01*
Y133016D01*
X199964D01*
X198796Y133500D01*
D02*
G37*
G36*
X143000Y120065D02*
X131500D01*
X130518Y119870D01*
X129686Y119314D01*
X129130Y118482D01*
X128935Y117500D01*
X129130Y116518D01*
X129252Y116335D01*
X128573Y115065D01*
X125592D01*
X124766Y115891D01*
X123296Y116500D01*
X121704D01*
X120234Y115891D01*
X119109Y114766D01*
X118500Y113296D01*
Y111704D01*
X119109Y110234D01*
X120234Y109109D01*
X121704Y108500D01*
X123296D01*
X124766Y109109D01*
X125591Y109935D01*
X143000D01*
X143982Y110130D01*
X144814Y110686D01*
X145370Y111518D01*
X145565Y112500D01*
X145370Y113482D01*
X144814Y114314D01*
Y115686D01*
X145370Y116518D01*
X145565Y117500D01*
X145370Y118482D01*
X144814Y119314D01*
X143982Y119870D01*
X143000Y120065D01*
D02*
G37*
G36*
X80796Y121500D02*
X79204D01*
X77734Y120891D01*
X76609Y119766D01*
X76000Y118296D01*
Y116704D01*
X76609Y115234D01*
X77734Y114109D01*
X79204Y113500D01*
X80796D01*
X82266Y114109D01*
X83391Y115234D01*
X84000Y116704D01*
Y118296D01*
X83391Y119766D01*
X82266Y120891D01*
X80796Y121500D01*
D02*
G37*
G36*
X123296Y106500D02*
X121704D01*
X120234Y105891D01*
X119109Y104766D01*
X118500Y103296D01*
Y101704D01*
X119109Y100234D01*
X120234Y99109D01*
X121704Y98500D01*
X123296D01*
X124766Y99109D01*
X125591Y99935D01*
X129500D01*
X129500Y99935D01*
X143000D01*
X143982Y100130D01*
X144814Y100686D01*
X145370Y101518D01*
X145565Y102500D01*
X145370Y103482D01*
X144814Y104314D01*
X143982Y104870D01*
X143000Y105065D01*
X129500D01*
X129500Y105065D01*
X125591D01*
X124766Y105891D01*
X123296Y106500D01*
D02*
G37*
G36*
X23296Y105500D02*
X21704D01*
X20234Y104891D01*
X19109Y103766D01*
X18500Y102296D01*
Y100704D01*
X19109Y99234D01*
X20234Y98109D01*
X21704Y97500D01*
X23296D01*
X24766Y98109D01*
X25891Y99234D01*
X26500Y100704D01*
Y102296D01*
X25891Y103766D01*
X24766Y104891D01*
X23296Y105500D01*
D02*
G37*
G36*
X179500Y110806D02*
X173500D01*
X172713Y110649D01*
X172047Y110204D01*
X171601Y109537D01*
X171444Y108750D01*
Y101250D01*
X171601Y100463D01*
X172047Y99796D01*
X172713Y99351D01*
X173500Y99194D01*
X177928D01*
X179436Y97686D01*
X180268Y97130D01*
X181250Y96935D01*
X191984D01*
Y95984D01*
X202016D01*
Y103016D01*
X191984D01*
Y102065D01*
X182313D01*
X181556Y102822D01*
Y108750D01*
X181399Y109537D01*
X180953Y110204D01*
X180287Y110649D01*
X179500Y110806D01*
D02*
G37*
G36*
X143000Y95065D02*
X131500D01*
X130518Y94870D01*
X129686Y94314D01*
X129130Y93482D01*
X128935Y92500D01*
X129130Y91518D01*
X129686Y90686D01*
X130518Y90130D01*
X131500Y89935D01*
X143000D01*
X143982Y90130D01*
X144814Y90686D01*
X145370Y91518D01*
X145565Y92500D01*
X145370Y93482D01*
X144814Y94314D01*
X143982Y94870D01*
X143000Y95065D01*
D02*
G37*
G36*
X218016Y103016D02*
X207984D01*
Y99500D01*
X206689D01*
X205219Y98891D01*
X204093Y97766D01*
X203484Y96295D01*
Y94704D01*
X204093Y93234D01*
X205219Y92109D01*
X206689Y91500D01*
X207984D01*
Y86984D01*
X218016D01*
Y94016D01*
X215565D01*
Y95984D01*
X218016D01*
Y103016D01*
D02*
G37*
G36*
X179500Y95806D02*
X173500D01*
X172713Y95649D01*
X172047Y95204D01*
X171601Y94537D01*
X171444Y93750D01*
Y86250D01*
X171601Y85463D01*
X172047Y84796D01*
X172713Y84351D01*
X173500Y84194D01*
X179500D01*
X180287Y84351D01*
X180953Y84796D01*
X181399Y85463D01*
X181556Y86250D01*
Y87685D01*
X191984D01*
Y86984D01*
X202016D01*
Y94016D01*
X191984D01*
Y92815D01*
X181556D01*
Y93750D01*
X181399Y94537D01*
X180953Y95204D01*
X180287Y95649D01*
X179500Y95806D01*
D02*
G37*
G36*
X123296Y94000D02*
X121704D01*
X120234Y93391D01*
X119109Y92266D01*
X118500Y90796D01*
Y89628D01*
X115686Y86814D01*
X115222Y86119D01*
X115045Y85963D01*
X113774Y85675D01*
X113482Y85870D01*
X112500Y86065D01*
X111518Y85870D01*
X110686Y85314D01*
X110130Y84482D01*
X109935Y83500D01*
Y72000D01*
X110130Y71018D01*
X110686Y70186D01*
X111518Y69630D01*
X112073Y69520D01*
X115047Y66547D01*
X115047Y66547D01*
X115353Y66342D01*
X114968Y65072D01*
X111767D01*
X111767Y65072D01*
X110980Y64915D01*
X110313Y64469D01*
X106046Y60203D01*
X105601Y59536D01*
X105444Y58749D01*
X105444Y58749D01*
Y43351D01*
X104479Y42386D01*
X103306Y42872D01*
Y46500D01*
X103149Y47287D01*
X102704Y47953D01*
X102037Y48399D01*
X101250Y48555D01*
X93750D01*
X92963Y48399D01*
X92296Y47953D01*
X91851Y47287D01*
X91694Y46500D01*
Y42266D01*
X91226Y41953D01*
X91226Y41953D01*
X90857Y41584D01*
X90000Y40830D01*
X89143Y41584D01*
X88774Y41953D01*
X88306Y42266D01*
Y46500D01*
X88149Y47287D01*
X87704Y47953D01*
X87037Y48399D01*
X86250Y48555D01*
X78750D01*
X77963Y48399D01*
X77297Y47953D01*
X76851Y47287D01*
X76694Y46500D01*
Y40500D01*
X76851Y39713D01*
X77297Y39046D01*
X77963Y38601D01*
X78750Y38444D01*
X85500D01*
X85500Y38444D01*
X86437D01*
Y36251D01*
X86437Y36251D01*
X86593Y35464D01*
X87038Y34797D01*
X91305Y30531D01*
X91972Y30085D01*
X92759Y29929D01*
X92759Y29929D01*
X101249D01*
X101249Y29929D01*
X102036Y30085D01*
X102703Y30531D01*
X103780Y31608D01*
X105050Y31082D01*
Y30385D01*
X105240Y29927D01*
Y15433D01*
X112860D01*
Y29927D01*
X113050Y30385D01*
Y31977D01*
X112441Y33447D01*
X111316Y34572D01*
X109846Y35181D01*
X109149D01*
X108623Y36451D01*
X111969Y39797D01*
X112415Y40464D01*
X112571Y41251D01*
X112571Y41251D01*
Y56649D01*
X113867Y57944D01*
X115622D01*
Y51077D01*
X115622Y50193D01*
X115622Y48923D01*
Y40622D01*
X119694D01*
Y32197D01*
X117940D01*
Y15433D01*
X125560D01*
Y32197D01*
X123806D01*
Y40622D01*
X124378D01*
Y48923D01*
X124378Y49807D01*
X124378Y51077D01*
Y54653D01*
X125149Y54806D01*
X125816Y55252D01*
X127453Y56890D01*
X127453Y56890D01*
X127899Y57557D01*
X128055Y58343D01*
Y60000D01*
X129159Y60960D01*
X131133D01*
X135622Y56471D01*
Y51077D01*
X135622Y50193D01*
X135622Y48923D01*
Y43528D01*
X132997Y40903D01*
X132551Y40237D01*
X132395Y39450D01*
X132395Y39450D01*
Y32197D01*
X130640D01*
Y15433D01*
X138260D01*
Y32197D01*
X136505D01*
Y38599D01*
X138529Y40622D01*
X144378D01*
Y48923D01*
X144378Y49807D01*
X144378Y51077D01*
Y59378D01*
X138529D01*
X137629Y60278D01*
X138348Y61354D01*
X139204Y61000D01*
X140796D01*
X142266Y61609D01*
X143391Y62734D01*
X144000Y64204D01*
Y65796D01*
X143391Y67266D01*
X142545Y68112D01*
X142483Y68410D01*
X142543Y69239D01*
X142662Y69602D01*
X142953Y69797D01*
X143399Y70463D01*
X143555Y71250D01*
Y78750D01*
X143399Y79537D01*
X142953Y80204D01*
X142287Y80649D01*
X141500Y80806D01*
X135500D01*
X134713Y80649D01*
X134046Y80204D01*
X133601Y79537D01*
X133444Y78750D01*
Y72101D01*
X131398Y70055D01*
X125754D01*
X125459Y70377D01*
X124931Y71325D01*
X125065Y72000D01*
Y83500D01*
X124870Y84482D01*
X124453Y85105D01*
X124550Y86086D01*
X124702Y86582D01*
X124766Y86609D01*
X125891Y87734D01*
X126500Y89204D01*
Y90796D01*
X125891Y92266D01*
X124766Y93391D01*
X123296Y94000D01*
D02*
G37*
G36*
X103296Y91500D02*
X101704D01*
X100234Y90891D01*
X99109Y89766D01*
X98500Y88296D01*
Y87161D01*
X97559Y86130D01*
X97398Y86045D01*
X96518Y85870D01*
X95686Y85314D01*
X94314D01*
X93482Y85870D01*
X92500Y86065D01*
X91518Y85870D01*
X90686Y85314D01*
X89314D01*
X88482Y85870D01*
X87602Y86045D01*
X87441Y86130D01*
X86500Y87161D01*
Y88296D01*
X85891Y89766D01*
X84766Y90891D01*
X83296Y91500D01*
X81704D01*
X80234Y90891D01*
X79109Y89766D01*
X78500Y88296D01*
Y86704D01*
X79109Y85234D01*
X79935Y84409D01*
Y72000D01*
X80130Y71018D01*
X80686Y70186D01*
X81518Y69630D01*
X82500Y69435D01*
X83482Y69630D01*
X84314Y70186D01*
X85374D01*
X86437Y69264D01*
Y63331D01*
X86437Y63331D01*
X86437Y63330D01*
Y61556D01*
X85500D01*
X85500Y61556D01*
X78750D01*
X77963Y61399D01*
X77297Y60953D01*
X76851Y60287D01*
X76694Y59500D01*
Y53500D01*
X76851Y52713D01*
X77297Y52046D01*
X77963Y51601D01*
X78750Y51445D01*
X86250D01*
X87037Y51601D01*
X87704Y52046D01*
X88149Y52713D01*
X88306Y53500D01*
Y57734D01*
X88774Y58046D01*
X89143Y58416D01*
X90000Y59170D01*
X90857Y58416D01*
X91226Y58047D01*
X91226Y58046D01*
X91694Y57734D01*
Y53500D01*
X91851Y52713D01*
X92296Y52046D01*
X92963Y51601D01*
X93750Y51445D01*
X101250D01*
X102037Y51601D01*
X102704Y52046D01*
X103149Y52713D01*
X103306Y53500D01*
Y59500D01*
X103149Y60287D01*
X102704Y60953D01*
X102037Y61399D01*
X101250Y61556D01*
X94500D01*
X94500Y61556D01*
X93563Y62341D01*
Y64580D01*
X93563Y64580D01*
Y69685D01*
X94207Y70114D01*
X94404Y70186D01*
X95686D01*
X96518Y69630D01*
X97500Y69435D01*
X98482Y69630D01*
X99314Y70186D01*
X100686D01*
X101518Y69630D01*
X102500Y69435D01*
X103482Y69630D01*
X104314Y70186D01*
X104870Y71018D01*
X105065Y72000D01*
Y84408D01*
X105891Y85234D01*
X106500Y86704D01*
Y88296D01*
X105891Y89766D01*
X104766Y90891D01*
X103296Y91500D01*
D02*
G37*
G36*
X72500Y86065D02*
X71518Y85870D01*
X70686Y85314D01*
X69314D01*
X68482Y85870D01*
X67500Y86065D01*
X66518Y85870D01*
X65686Y85314D01*
X65130Y84482D01*
X64935Y83500D01*
Y72071D01*
X64935Y72000D01*
X64917Y71962D01*
X63933Y71742D01*
X63606Y71746D01*
X63391Y72266D01*
X62266Y73391D01*
X60796Y74000D01*
X59204D01*
X57734Y73391D01*
X56609Y72266D01*
X56000Y70796D01*
Y69204D01*
X56609Y67734D01*
X57734Y66609D01*
X59204Y66000D01*
X60796D01*
X61625Y66344D01*
X62345Y65267D01*
X58633Y61556D01*
X55500D01*
X55500Y61556D01*
X48750D01*
X47963Y61399D01*
X47297Y60953D01*
X46851Y60287D01*
X46694Y59500D01*
Y53500D01*
X46851Y52713D01*
X47297Y52046D01*
X47963Y51601D01*
X48750Y51445D01*
X56250D01*
X57037Y51601D01*
X57703Y52046D01*
X58149Y52713D01*
X58306Y53500D01*
Y57358D01*
X59485Y57445D01*
X60271Y57601D01*
X60424Y57703D01*
X61694Y57066D01*
Y53500D01*
X61851Y52713D01*
X62297Y52046D01*
X62963Y51601D01*
X63750Y51445D01*
X71250D01*
X72037Y51601D01*
X72703Y52046D01*
X73149Y52713D01*
X73306Y53500D01*
Y59500D01*
X73149Y60287D01*
X72703Y60953D01*
X72037Y61399D01*
X71472Y61511D01*
X70833Y62669D01*
X72961Y64797D01*
X72961Y64797D01*
X73407Y65464D01*
X73563Y66251D01*
X73563Y66251D01*
Y69685D01*
X74314Y70186D01*
X74870Y71018D01*
X75065Y72000D01*
Y83500D01*
X74870Y84482D01*
X74314Y85314D01*
X73482Y85870D01*
X72500Y86065D01*
D02*
G37*
G36*
X185796Y79000D02*
X184204D01*
X182734Y78391D01*
X182073Y77730D01*
X181250Y77407D01*
X180427Y77730D01*
X179766Y78391D01*
X178296Y79000D01*
X176704D01*
X175234Y78391D01*
X174573Y77730D01*
X173750Y77407D01*
X172927Y77730D01*
X172266Y78391D01*
X170796Y79000D01*
X169204D01*
X167734Y78391D01*
X166609Y77266D01*
X166000Y75796D01*
Y74204D01*
X166609Y72734D01*
X167734Y71609D01*
X169204Y71000D01*
X170796D01*
X172266Y71609D01*
X172927Y72270D01*
X173750Y72593D01*
X174573Y72270D01*
X175234Y71609D01*
X176704Y71000D01*
X178296D01*
X179766Y71609D01*
X180427Y72270D01*
X181250Y72593D01*
X182073Y72270D01*
X182734Y71609D01*
X184204Y71000D01*
X185796D01*
X187266Y71609D01*
X188391Y72734D01*
X189000Y74204D01*
Y75796D01*
X188391Y77266D01*
X187266Y78391D01*
X185796Y79000D01*
D02*
G37*
G36*
X23296Y75500D02*
X21704D01*
X20234Y74891D01*
X19109Y73766D01*
X18500Y72296D01*
Y70704D01*
X19109Y69234D01*
X20234Y68109D01*
X21704Y67500D01*
X23296D01*
X24766Y68109D01*
X25891Y69234D01*
X26500Y70704D01*
Y72296D01*
X25891Y73766D01*
X24766Y74891D01*
X23296Y75500D01*
D02*
G37*
G36*
X201251Y82550D02*
X198749D01*
X196333Y81903D01*
X194167Y80652D01*
X192398Y78883D01*
X191147Y76717D01*
X190500Y74301D01*
Y71799D01*
X191147Y69383D01*
X192398Y67217D01*
X194167Y65448D01*
X196333Y64197D01*
X198749Y63550D01*
X201251D01*
X203667Y64197D01*
X205833Y65448D01*
X207602Y67217D01*
X208853Y69383D01*
X209500Y71799D01*
Y74301D01*
X208853Y76717D01*
X207602Y78883D01*
X205833Y80652D01*
X203667Y81903D01*
X201251Y82550D01*
D02*
G37*
G36*
X-198749D02*
X-201251D01*
X-203667Y81903D01*
X-205833Y80652D01*
X-207602Y78883D01*
X-208853Y76717D01*
X-209500Y74301D01*
Y71799D01*
X-208853Y69383D01*
X-207602Y67217D01*
X-205833Y65448D01*
X-203667Y64197D01*
X-201251Y63550D01*
X-198749D01*
X-196333Y64197D01*
X-194167Y65448D01*
X-192398Y67217D01*
X-191147Y69383D01*
X-190500Y71799D01*
Y74301D01*
X-191147Y76717D01*
X-192398Y78883D01*
X-194167Y80652D01*
X-196333Y81903D01*
X-198749Y82550D01*
D02*
G37*
G36*
X23296Y64000D02*
X21704D01*
X20234Y63391D01*
X19109Y62266D01*
X18500Y60796D01*
Y59204D01*
X19109Y57734D01*
X20234Y56609D01*
X21704Y56000D01*
X23296D01*
X24766Y56609D01*
X25891Y57734D01*
X26500Y59204D01*
Y60796D01*
X25891Y62266D01*
X24766Y63391D01*
X23296Y64000D01*
D02*
G37*
G36*
X130796Y54000D02*
X129204D01*
X127734Y53391D01*
X126609Y52266D01*
X126000Y50796D01*
Y49204D01*
X126609Y47734D01*
X127734Y46609D01*
X129204Y46000D01*
X130796D01*
X132266Y46609D01*
X133391Y47734D01*
X134000Y49204D01*
Y50796D01*
X133391Y52266D01*
X132266Y53391D01*
X130796Y54000D01*
D02*
G37*
G36*
X38296Y50500D02*
X36704D01*
X35234Y49891D01*
X34109Y48766D01*
X33500Y47296D01*
Y45704D01*
X34109Y44234D01*
X35234Y43109D01*
X36704Y42500D01*
X38296D01*
X39766Y43109D01*
X40891Y44234D01*
X41500Y45704D01*
Y47296D01*
X40891Y48766D01*
X39766Y49891D01*
X38296Y50500D01*
D02*
G37*
G36*
X71250Y48555D02*
X63750D01*
X62963Y48399D01*
X62297Y47953D01*
X61851Y47287D01*
X61694Y46500D01*
Y42266D01*
X61226Y41953D01*
X61226Y41953D01*
X60857Y41584D01*
X60000Y40830D01*
X59143Y41584D01*
X58774Y41953D01*
X58306Y42266D01*
Y46500D01*
X58149Y47287D01*
X57703Y47953D01*
X57037Y48399D01*
X56250Y48555D01*
X48750D01*
X47963Y48399D01*
X47297Y47953D01*
X46851Y47287D01*
X46694Y46500D01*
Y40500D01*
X46851Y39713D01*
X47297Y39046D01*
X47963Y38601D01*
X48750Y38444D01*
X54500D01*
X54500Y38444D01*
X54500Y38444D01*
X55148D01*
X55674Y37174D01*
X50630Y32130D01*
X49360Y32197D01*
Y32197D01*
X42087D01*
X41740Y32197D01*
X40470Y32187D01*
X39766Y32891D01*
X38296Y33500D01*
X36704D01*
X35234Y32891D01*
X34109Y31766D01*
X33500Y30296D01*
Y28704D01*
X34109Y27234D01*
X35234Y26109D01*
X36704Y25500D01*
X38296D01*
X39766Y26109D01*
X40470Y26813D01*
X41740Y26287D01*
Y15433D01*
X49360D01*
Y27906D01*
X51368D01*
X51368Y27906D01*
X52155Y28062D01*
X52822Y28508D01*
X53267Y28953D01*
X54440Y28467D01*
Y15433D01*
X62060D01*
Y32197D01*
X62060D01*
X61684Y33105D01*
X62961Y34382D01*
X62961Y34382D01*
X63407Y35049D01*
X63563Y35836D01*
Y38444D01*
X65500D01*
X65500Y38444D01*
X65500Y38444D01*
X71250D01*
X72037Y38601D01*
X72703Y39046D01*
X73149Y39713D01*
X73306Y40500D01*
Y46500D01*
X73149Y47287D01*
X72703Y47953D01*
X72037Y48399D01*
X71250Y48555D01*
D02*
G37*
G36*
X87296Y24000D02*
X85704D01*
X84234Y23391D01*
X83109Y22266D01*
X82500Y20796D01*
Y19204D01*
X83109Y17734D01*
X84234Y16609D01*
X85704Y16000D01*
X87296D01*
X88766Y16609D01*
X89891Y17734D01*
X90500Y19204D01*
Y20796D01*
X89891Y22266D01*
X88766Y23391D01*
X87296Y24000D01*
D02*
G37*
G36*
X74760Y32197D02*
X67140D01*
Y15433D01*
X74760D01*
Y20844D01*
X75598Y21191D01*
X76723Y22316D01*
X77332Y23786D01*
Y25378D01*
X76723Y26848D01*
X75598Y27973D01*
X74760Y28320D01*
Y32197D01*
D02*
G37*
G36*
X159796Y19000D02*
X158204D01*
X156734Y18391D01*
X155609Y17266D01*
X155000Y15796D01*
Y14204D01*
X155609Y12734D01*
X156734Y11609D01*
X158204Y11000D01*
X159796D01*
X161266Y11609D01*
X162391Y12734D01*
X163000Y14204D01*
Y15796D01*
X162391Y17266D01*
X161266Y18391D01*
X159796Y19000D01*
D02*
G37*
G36*
X20796Y14000D02*
X19204D01*
X17734Y13391D01*
X16609Y12266D01*
X16000Y10796D01*
Y9204D01*
X16609Y7734D01*
X17270Y7073D01*
X17593Y6250D01*
X17270Y5427D01*
X16609Y4766D01*
X16000Y3296D01*
Y1704D01*
X16609Y234D01*
X17270Y-427D01*
X17593Y-1250D01*
X17270Y-2073D01*
X16609Y-2734D01*
X16000Y-4204D01*
Y-5796D01*
X16609Y-7266D01*
X17734Y-8391D01*
X19204Y-9000D01*
X20796D01*
X22266Y-8391D01*
X23391Y-7266D01*
X24000Y-5796D01*
Y-4204D01*
X23391Y-2734D01*
X22730Y-2073D01*
X22407Y-1250D01*
X22730Y-427D01*
X23391Y234D01*
X24000Y1704D01*
Y3296D01*
X23391Y4766D01*
X22730Y5427D01*
X22407Y6250D01*
X22730Y7073D01*
X23391Y7734D01*
X24000Y9204D01*
Y10796D01*
X23391Y12266D01*
X22266Y13391D01*
X20796Y14000D01*
D02*
G37*
G36*
X101796Y-6000D02*
X100204D01*
X98734Y-6609D01*
X97609Y-7734D01*
X97000Y-9204D01*
Y-10796D01*
X97609Y-12266D01*
X98734Y-13391D01*
X100204Y-14000D01*
X101796D01*
X103266Y-13391D01*
X104391Y-12266D01*
X105000Y-10796D01*
Y-9204D01*
X104391Y-7734D01*
X103266Y-6609D01*
X101796Y-6000D01*
D02*
G37*
G36*
X74296D02*
X72704D01*
X71234Y-6609D01*
X70109Y-7734D01*
X69500Y-9204D01*
Y-10796D01*
X70109Y-12266D01*
X71234Y-13391D01*
X72704Y-14000D01*
X74296D01*
X75766Y-13391D01*
X76891Y-12266D01*
X77500Y-10796D01*
Y-9204D01*
X76891Y-7734D01*
X75766Y-6609D01*
X74296Y-6000D01*
D02*
G37*
G36*
X214645Y-14050D02*
X212656D01*
X212172Y-14250D01*
X187828D01*
X187345Y-14050D01*
X185355D01*
X184872Y-14250D01*
X168250D01*
X168048Y-14334D01*
X167234D01*
Y-15148D01*
X167150Y-15350D01*
Y-60850D01*
X167234Y-61052D01*
Y-61866D01*
X168048D01*
X168250Y-61950D01*
X184872D01*
X185355Y-62150D01*
X187345D01*
X187828Y-61950D01*
X212172D01*
X212656Y-62150D01*
X214645D01*
X215128Y-61950D01*
X231750D01*
X231952Y-61866D01*
X232766D01*
Y-61052D01*
X232850Y-60850D01*
Y-15350D01*
X232766Y-15148D01*
Y-14334D01*
X231952D01*
X231750Y-14250D01*
X215128D01*
X214645Y-14050D01*
D02*
G37*
G36*
X130796Y-11000D02*
X129204D01*
X127734Y-11609D01*
X126609Y-12734D01*
X126000Y-14204D01*
Y-15796D01*
X126609Y-17266D01*
X127734Y-18391D01*
X129204Y-19000D01*
X130796D01*
X132266Y-18391D01*
X133391Y-17266D01*
X134000Y-15796D01*
Y-14204D01*
X133391Y-12734D01*
X132266Y-11609D01*
X130796Y-11000D01*
D02*
G37*
G36*
X-84204Y-13500D02*
X-85796D01*
X-87266Y-14109D01*
X-88391Y-15234D01*
X-89000Y-16704D01*
Y-18296D01*
X-88391Y-19766D01*
X-87266Y-20891D01*
X-85796Y-21500D01*
X-84204D01*
X-82734Y-20891D01*
X-81609Y-19766D01*
X-81000Y-18296D01*
Y-16704D01*
X-81609Y-15234D01*
X-82734Y-14109D01*
X-84204Y-13500D01*
D02*
G37*
G36*
X-109188D02*
X-110780D01*
X-112250Y-14109D01*
X-113375Y-15234D01*
X-113984Y-16704D01*
Y-18296D01*
X-113375Y-19766D01*
X-112250Y-20891D01*
X-110780Y-21500D01*
X-109188D01*
X-107718Y-20891D01*
X-106593Y-19766D01*
X-105984Y-18296D01*
Y-16704D01*
X-106593Y-15234D01*
X-107718Y-14109D01*
X-109188Y-13500D01*
D02*
G37*
G36*
X-64204Y-16000D02*
X-65796D01*
X-67266Y-16609D01*
X-68391Y-17734D01*
X-69000Y-19204D01*
Y-20796D01*
X-68391Y-22266D01*
X-67730Y-22927D01*
X-67407Y-23750D01*
X-67730Y-24573D01*
X-68391Y-25234D01*
X-69000Y-26704D01*
Y-28296D01*
X-68391Y-29766D01*
X-67730Y-30427D01*
X-67407Y-31250D01*
X-67730Y-32073D01*
X-68391Y-32734D01*
X-69000Y-34204D01*
Y-35796D01*
X-68391Y-37266D01*
X-67266Y-38391D01*
X-65796Y-39000D01*
X-64204D01*
X-62734Y-38391D01*
X-61609Y-37266D01*
X-61000Y-35796D01*
Y-34204D01*
X-61609Y-32734D01*
X-62270Y-32073D01*
X-62593Y-31250D01*
X-62270Y-30427D01*
X-61609Y-29766D01*
X-61000Y-28296D01*
Y-26704D01*
X-61609Y-25234D01*
X-62270Y-24573D01*
X-62593Y-23750D01*
X-62270Y-22927D01*
X-61609Y-22266D01*
X-61270Y-21448D01*
X-60000Y-21700D01*
Y-21796D01*
X-59391Y-23266D01*
X-58266Y-24391D01*
X-56796Y-25000D01*
X-55204D01*
X-53734Y-24391D01*
X-52609Y-23266D01*
X-52000Y-21796D01*
Y-20204D01*
X-52609Y-18734D01*
X-53734Y-17609D01*
X-55204Y-17000D01*
X-56796D01*
X-58266Y-17609D01*
X-59391Y-18734D01*
X-59730Y-19553D01*
X-61000Y-19300D01*
Y-19204D01*
X-61609Y-17734D01*
X-62734Y-16609D01*
X-64204Y-16000D01*
D02*
G37*
G36*
X-34236Y-26000D02*
X-35828D01*
X-37298Y-26609D01*
X-38423Y-27734D01*
X-39032Y-29204D01*
Y-30796D01*
X-38423Y-32266D01*
X-37298Y-33391D01*
X-35828Y-34000D01*
X-34236D01*
X-32766Y-33391D01*
X-31641Y-32266D01*
X-31032Y-30796D01*
Y-29204D01*
X-31641Y-27734D01*
X-32766Y-26609D01*
X-34236Y-26000D01*
D02*
G37*
G36*
X-185355Y-26750D02*
X-187345D01*
X-188030Y-27034D01*
X-198466D01*
Y-36466D01*
X-188030D01*
X-187345Y-36750D01*
X-185355D01*
X-184670Y-36466D01*
X-167234D01*
Y-27034D01*
X-184670D01*
X-185355Y-26750D01*
D02*
G37*
G36*
X-212656D02*
X-214645D01*
X-215330Y-27034D01*
X-232766D01*
Y-36466D01*
X-215330D01*
X-214645Y-36750D01*
X-212656D01*
X-211970Y-36466D01*
X-201534D01*
Y-27034D01*
X-211970D01*
X-212656Y-26750D01*
D02*
G37*
G36*
X-84204Y-23500D02*
X-85796D01*
X-87266Y-24109D01*
X-88391Y-25234D01*
X-89000Y-26704D01*
Y-28296D01*
X-88391Y-29766D01*
X-87730Y-30427D01*
X-87407Y-31250D01*
X-87730Y-32073D01*
X-88391Y-32734D01*
X-89000Y-34204D01*
Y-35796D01*
X-88391Y-37266D01*
X-87266Y-38391D01*
X-85796Y-39000D01*
X-84204D01*
X-82734Y-38391D01*
X-81609Y-37266D01*
X-81000Y-35796D01*
Y-34204D01*
X-81609Y-32734D01*
X-82270Y-32073D01*
X-82593Y-31250D01*
X-82270Y-30427D01*
X-81609Y-29766D01*
X-81000Y-28296D01*
Y-26704D01*
X-81609Y-25234D01*
X-82734Y-24109D01*
X-84204Y-23500D01*
D02*
G37*
G36*
X101796Y-36000D02*
X100204D01*
X98734Y-36609D01*
X97609Y-37734D01*
X97000Y-39204D01*
Y-40796D01*
X97609Y-42266D01*
X98734Y-43391D01*
X100204Y-44000D01*
X101796D01*
X103266Y-43391D01*
X104391Y-42266D01*
X105000Y-40796D01*
Y-39204D01*
X104391Y-37734D01*
X103266Y-36609D01*
X101796Y-36000D01*
D02*
G37*
G36*
X138016Y-45960D02*
X138016Y-45960D01*
X121984D01*
X121984Y-45960D01*
X121197Y-46117D01*
X120531Y-46562D01*
X120531Y-46563D01*
X113546Y-53547D01*
X113101Y-54213D01*
X113075Y-54344D01*
X112752Y-55074D01*
X111823Y-55433D01*
X106270D01*
X105240Y-55433D01*
X105000Y-54262D01*
Y-54204D01*
X104391Y-52734D01*
X103266Y-51609D01*
X101796Y-51000D01*
X100204D01*
X98734Y-51609D01*
X97609Y-52734D01*
X97000Y-54204D01*
Y-55796D01*
X97609Y-57266D01*
X98734Y-58391D01*
X100204Y-59000D01*
X101796D01*
X103266Y-58391D01*
X103970Y-57687D01*
X105240Y-58213D01*
Y-64861D01*
X105191Y-65109D01*
Y-69013D01*
X104000Y-69204D01*
X103391Y-67734D01*
X102266Y-66609D01*
X100796Y-66000D01*
X99204D01*
X97734Y-66609D01*
X96609Y-67734D01*
X96000Y-69204D01*
Y-70796D01*
X96609Y-72266D01*
X97734Y-73391D01*
X99204Y-74000D01*
X99826D01*
X100352Y-75270D01*
X97178Y-78444D01*
X91250D01*
X90463Y-78601D01*
X89796Y-79047D01*
X89351Y-79713D01*
X89194Y-80500D01*
Y-86500D01*
X89351Y-87287D01*
X89796Y-87953D01*
X90463Y-88399D01*
X91250Y-88555D01*
X98750D01*
X99537Y-88399D01*
X100204Y-87953D01*
X100649Y-87287D01*
X100806Y-86500D01*
Y-82072D01*
X102279Y-80599D01*
X103450Y-81224D01*
X103444Y-81250D01*
Y-87899D01*
X99660Y-91683D01*
X99537Y-91601D01*
X98750Y-91445D01*
X91250D01*
X90463Y-91601D01*
X89796Y-92046D01*
X89351Y-92713D01*
X89194Y-93500D01*
Y-93587D01*
X85806D01*
Y-93500D01*
X85649Y-92713D01*
X85204Y-92046D01*
X84537Y-91601D01*
X83750Y-91445D01*
X76250D01*
X75463Y-91601D01*
X74797Y-92046D01*
X74351Y-92713D01*
X74194Y-93500D01*
Y-93587D01*
X69378D01*
Y-90193D01*
X60622D01*
Y-99378D01*
X69378D01*
Y-97698D01*
X74194D01*
Y-99500D01*
X74351Y-100287D01*
X74797Y-100953D01*
X75463Y-101399D01*
X76250Y-101556D01*
X83750D01*
X84537Y-101399D01*
X85204Y-100953D01*
X85649Y-100287D01*
X85806Y-99500D01*
Y-97698D01*
X89194D01*
Y-99500D01*
X89351Y-100287D01*
X89796Y-100953D01*
X90415Y-101367D01*
X90580Y-102010D01*
X90618Y-102725D01*
X89609Y-103734D01*
X89000Y-105204D01*
Y-106796D01*
X89609Y-108266D01*
X90518Y-109174D01*
X90271Y-110196D01*
X90128Y-110444D01*
X79235D01*
X78448Y-110601D01*
X77781Y-111046D01*
X77781Y-111047D01*
X76015Y-112813D01*
X76014Y-112813D01*
X71305Y-117522D01*
X71305Y-117522D01*
X71305Y-117523D01*
X69538Y-119289D01*
X69093Y-119956D01*
X68937Y-120743D01*
X68937Y-120743D01*
Y-134178D01*
X68552D01*
X68353Y-134218D01*
X61932D01*
Y-153268D01*
X70568D01*
Y-138141D01*
X70607Y-138133D01*
X71274Y-137688D01*
X71643Y-137318D01*
X72500Y-136564D01*
X73357Y-137318D01*
X73726Y-137687D01*
X73726Y-137688D01*
X74393Y-138133D01*
X74432Y-138141D01*
Y-153268D01*
X83068D01*
Y-134218D01*
X76647D01*
X76448Y-134178D01*
X76063Y-133024D01*
Y-122843D01*
X81335Y-117571D01*
X107491D01*
X107491Y-117571D01*
X108278Y-117415D01*
X108945Y-116969D01*
X130461Y-95453D01*
X130462Y-95453D01*
X130907Y-94786D01*
X131063Y-93999D01*
X131063Y-93999D01*
Y-90806D01*
X136500D01*
X137287Y-90649D01*
X137954Y-90204D01*
X138399Y-89537D01*
X138555Y-88750D01*
Y-81250D01*
X138399Y-80463D01*
X137954Y-79797D01*
X137287Y-79351D01*
X136500Y-79194D01*
X131063D01*
Y-77541D01*
X131507Y-76877D01*
X131664Y-76090D01*
X131664Y-76090D01*
Y-72197D01*
X138260D01*
Y-55433D01*
X130640D01*
Y-67934D01*
X129993Y-68062D01*
X129326Y-68508D01*
X129326Y-68508D01*
X128957Y-68877D01*
X128100Y-69632D01*
X127243Y-68877D01*
X126874Y-68508D01*
X126207Y-68062D01*
X125560Y-67934D01*
Y-55433D01*
X119270D01*
X118744Y-54163D01*
X122835Y-50072D01*
X137164D01*
X144445Y-57351D01*
Y-79194D01*
X143500D01*
X142713Y-79351D01*
X142047Y-79797D01*
X141601Y-80463D01*
X141445Y-81250D01*
Y-88750D01*
X141601Y-89537D01*
X142047Y-90204D01*
X142713Y-90649D01*
X143500Y-90806D01*
X149500D01*
X150287Y-90649D01*
X150954Y-90204D01*
X151399Y-89537D01*
X151556Y-88750D01*
Y-81250D01*
X151399Y-80463D01*
X150954Y-79797D01*
X150287Y-79351D01*
X149500Y-79194D01*
X148555D01*
Y-56500D01*
X148399Y-55713D01*
X147954Y-55047D01*
X147953Y-55047D01*
X139469Y-46562D01*
X138803Y-46117D01*
X138672Y-46091D01*
X138016Y-45960D01*
D02*
G37*
G36*
X70796Y-41000D02*
X69204D01*
X67734Y-41609D01*
X66609Y-42734D01*
X66000Y-44204D01*
Y-45796D01*
X66609Y-47266D01*
X67734Y-48391D01*
X69204Y-49000D01*
X69827D01*
X70826Y-49174D01*
X71000Y-50173D01*
Y-50796D01*
X71609Y-52266D01*
X72734Y-53391D01*
X74204Y-54000D01*
X75796D01*
X77266Y-53391D01*
X78391Y-52266D01*
X79000Y-50796D01*
Y-49204D01*
X78391Y-47734D01*
X77266Y-46609D01*
X75796Y-46000D01*
X75173D01*
X74174Y-45826D01*
X74000Y-44827D01*
Y-44204D01*
X73391Y-42734D01*
X72266Y-41609D01*
X70796Y-41000D01*
D02*
G37*
G36*
X86831Y-47035D02*
X85240D01*
X83770Y-47645D01*
X82645Y-48770D01*
X82036Y-50240D01*
Y-51831D01*
X82645Y-53301D01*
X83770Y-54426D01*
X85240Y-55036D01*
X85325D01*
X86031Y-56091D01*
X85984Y-56204D01*
Y-57796D01*
X86593Y-59266D01*
X87718Y-60391D01*
X89188Y-61000D01*
X90780D01*
X92250Y-60391D01*
X93375Y-59266D01*
X93984Y-57796D01*
Y-56204D01*
X93375Y-54734D01*
X92250Y-53609D01*
X90780Y-53000D01*
X90694D01*
X89989Y-51944D01*
X90035Y-51831D01*
Y-50240D01*
X89426Y-48770D01*
X88301Y-47645D01*
X86831Y-47035D01*
D02*
G37*
G36*
X-185355Y-52150D02*
X-187345D01*
X-188030Y-52434D01*
X-198466D01*
Y-61866D01*
X-191556D01*
Y-66263D01*
X-192826Y-66790D01*
X-194167Y-65448D01*
X-196333Y-64197D01*
X-198749Y-63550D01*
X-201251D01*
X-203667Y-64197D01*
X-205833Y-65448D01*
X-207174Y-66789D01*
X-208444Y-66263D01*
Y-61866D01*
X-201534D01*
Y-52434D01*
X-211970D01*
X-212656Y-52150D01*
X-214645D01*
X-215330Y-52434D01*
X-232766D01*
Y-61866D01*
X-215330D01*
X-214645Y-62150D01*
X-212656D01*
X-212556Y-62217D01*
Y-77399D01*
X-212556Y-77399D01*
X-212399Y-78186D01*
X-211953Y-78853D01*
X-205803Y-85003D01*
X-205803Y-85003D01*
X-205136Y-85449D01*
X-204349Y-85605D01*
X-203563D01*
Y-87627D01*
X-203563Y-87628D01*
X-203563Y-87628D01*
Y-89194D01*
X-209500D01*
X-210287Y-89351D01*
X-210954Y-89796D01*
X-211399Y-90463D01*
X-211556Y-91250D01*
Y-98750D01*
X-211399Y-99537D01*
X-210954Y-100204D01*
X-210287Y-100649D01*
X-209500Y-100806D01*
X-203563D01*
Y-105722D01*
X-203563Y-105723D01*
X-203407Y-106509D01*
X-202961Y-107176D01*
X-200005Y-110132D01*
X-200150Y-111784D01*
X-201505Y-112732D01*
Y-112732D01*
X-206856Y-116479D01*
X-199381Y-127154D01*
X-194057Y-123426D01*
Y-123426D01*
X-189746Y-120408D01*
X-188706Y-119679D01*
X-187666Y-118951D01*
X-183382Y-115951D01*
X-183382Y-115951D01*
X-178057Y-112223D01*
X-185532Y-101548D01*
X-190882Y-105294D01*
X-190882Y-105294D01*
X-193165Y-106893D01*
X-196437Y-103622D01*
Y-100806D01*
X-190500D01*
X-189713Y-100649D01*
X-189046Y-100204D01*
X-188601Y-99537D01*
X-188444Y-98750D01*
Y-91250D01*
X-188601Y-90463D01*
X-189046Y-89796D01*
X-189713Y-89351D01*
X-190500Y-89194D01*
X-196437D01*
Y-86492D01*
X-195651Y-85605D01*
X-194864Y-85449D01*
X-194197Y-85003D01*
X-188047Y-78853D01*
X-188046Y-78853D01*
X-187601Y-78186D01*
X-187444Y-77399D01*
Y-62217D01*
X-187344Y-62150D01*
X-185355D01*
X-184670Y-61866D01*
X-167234D01*
Y-52434D01*
X-184670D01*
X-185355Y-52150D01*
D02*
G37*
G36*
X62060Y-55433D02*
X54440D01*
Y-67934D01*
X53793Y-68062D01*
X53126Y-68508D01*
X53126Y-68508D01*
X52757Y-68877D01*
X51900Y-69632D01*
X51043Y-68877D01*
X50674Y-68508D01*
X50007Y-68062D01*
X49360Y-67934D01*
Y-55433D01*
X41740D01*
Y-72197D01*
X48337D01*
Y-101086D01*
X44538Y-104884D01*
X44093Y-105551D01*
X43937Y-106338D01*
X43937Y-106338D01*
Y-134178D01*
X43552D01*
X43353Y-134218D01*
X36932D01*
Y-153268D01*
X45568D01*
Y-138141D01*
X45607Y-138133D01*
X46274Y-137688D01*
X46643Y-137318D01*
X47500Y-136564D01*
X48357Y-137318D01*
X48726Y-137687D01*
X48726Y-137688D01*
X49393Y-138133D01*
X49432Y-138141D01*
Y-153268D01*
X58068D01*
Y-134218D01*
X51647D01*
X51448Y-134178D01*
X51063Y-133024D01*
Y-108438D01*
X54861Y-104641D01*
X54861Y-104641D01*
X55307Y-103974D01*
X55464Y-103187D01*
Y-72197D01*
X62060D01*
Y-55433D01*
D02*
G37*
G36*
X201251Y-63550D02*
X198749D01*
X196333Y-64197D01*
X194167Y-65448D01*
X192398Y-67217D01*
X191147Y-69383D01*
X190500Y-71799D01*
Y-74301D01*
X191147Y-76717D01*
X192398Y-78883D01*
X194167Y-80652D01*
X196333Y-81903D01*
X198749Y-82550D01*
X201251D01*
X203667Y-81903D01*
X205833Y-80652D01*
X207602Y-78883D01*
X208853Y-76717D01*
X209500Y-74301D01*
Y-71799D01*
X208853Y-69383D01*
X207602Y-67217D01*
X205833Y-65448D01*
X203667Y-64197D01*
X201251Y-63550D01*
D02*
G37*
G36*
X-164204Y-76000D02*
X-165796D01*
X-167266Y-76609D01*
X-168391Y-77734D01*
X-169000Y-79204D01*
Y-80796D01*
X-168391Y-82266D01*
X-167266Y-83391D01*
X-165796Y-84000D01*
X-164204D01*
X-162734Y-83391D01*
X-161609Y-82266D01*
X-161000Y-80796D01*
Y-79204D01*
X-161609Y-77734D01*
X-162734Y-76609D01*
X-164204Y-76000D01*
D02*
G37*
G36*
X74760Y-55433D02*
X67140D01*
Y-72197D01*
X68385D01*
Y-75200D01*
X68580Y-76182D01*
X69136Y-77014D01*
X74194Y-82072D01*
Y-86500D01*
X74351Y-87287D01*
X74797Y-87953D01*
X75463Y-88399D01*
X76250Y-88555D01*
X83750D01*
X84537Y-88399D01*
X85204Y-87953D01*
X85649Y-87287D01*
X85806Y-86500D01*
Y-80500D01*
X85649Y-79713D01*
X85204Y-79047D01*
X84537Y-78601D01*
X83750Y-78444D01*
X77822D01*
X73515Y-74137D01*
Y-72197D01*
X74760D01*
Y-55433D01*
D02*
G37*
G36*
X210796Y-89500D02*
X209204D01*
X207734Y-90109D01*
X206609Y-91234D01*
X206000Y-92704D01*
Y-94296D01*
X206609Y-95766D01*
X207734Y-96891D01*
X209204Y-97500D01*
X210796D01*
X212266Y-96891D01*
X213391Y-95766D01*
X214000Y-94296D01*
Y-92704D01*
X213391Y-91234D01*
X212266Y-90109D01*
X210796Y-89500D01*
D02*
G37*
G36*
X8296Y-98500D02*
X6704D01*
X5234Y-99109D01*
X4109Y-100234D01*
X3500Y-101704D01*
Y-103296D01*
X4109Y-104766D01*
X5234Y-105891D01*
X6704Y-106500D01*
X8296D01*
X9766Y-105891D01*
X10891Y-104766D01*
X11500Y-103296D01*
Y-101704D01*
X10891Y-100234D01*
X9766Y-99109D01*
X8296Y-98500D01*
D02*
G37*
G36*
X-166250Y-98945D02*
X-173750D01*
X-174537Y-99101D01*
X-175203Y-99547D01*
X-175649Y-100213D01*
X-175805Y-101000D01*
Y-107000D01*
X-175649Y-107787D01*
X-175203Y-108454D01*
X-174537Y-108899D01*
X-173750Y-109056D01*
X-166250D01*
X-165463Y-108899D01*
X-164797Y-108454D01*
X-164351Y-107787D01*
X-164195Y-107000D01*
Y-101000D01*
X-164351Y-100213D01*
X-164797Y-99547D01*
X-165463Y-99101D01*
X-166250Y-98945D01*
D02*
G37*
G36*
X141796Y-104000D02*
X140204D01*
X138734Y-104609D01*
X137609Y-105734D01*
X137000Y-107204D01*
Y-108796D01*
X137609Y-110266D01*
X138734Y-111391D01*
X140204Y-112000D01*
X141796D01*
X143266Y-111391D01*
X144391Y-110266D01*
X145000Y-108796D01*
Y-107204D01*
X144391Y-105734D01*
X143266Y-104609D01*
X141796Y-104000D01*
D02*
G37*
G36*
X130796Y-103500D02*
X129204D01*
X127734Y-104109D01*
X126609Y-105234D01*
X126000Y-106704D01*
Y-108296D01*
X126609Y-109766D01*
X127734Y-110891D01*
X128728Y-111303D01*
X129121Y-112567D01*
X129109Y-112718D01*
X128500Y-114188D01*
Y-115780D01*
X129109Y-117250D01*
X130234Y-118375D01*
X131704Y-118984D01*
X133296D01*
X134766Y-118375D01*
X135891Y-117250D01*
X136500Y-115780D01*
Y-114188D01*
X135891Y-112718D01*
X134766Y-111593D01*
X133772Y-111181D01*
X133379Y-109917D01*
X133391Y-109766D01*
X134000Y-108296D01*
Y-106704D01*
X133391Y-105234D01*
X132266Y-104109D01*
X130796Y-103500D01*
D02*
G37*
G36*
X-6704Y-117500D02*
X-8296D01*
X-9766Y-118109D01*
X-10891Y-119234D01*
X-11500Y-120704D01*
Y-122296D01*
X-10891Y-123766D01*
X-9766Y-124891D01*
X-8296Y-125500D01*
X-6704D01*
X-5234Y-124891D01*
X-4109Y-123766D01*
X-3500Y-122296D01*
Y-120704D01*
X-4109Y-119234D01*
X-5234Y-118109D01*
X-6704Y-117500D01*
D02*
G37*
G36*
X-145072Y-107945D02*
X-145072Y-107945D01*
X-153016D01*
X-153803Y-108101D01*
X-154470Y-108547D01*
X-154470Y-108547D01*
X-159178Y-113254D01*
X-159401Y-113421D01*
X-176988Y-122944D01*
X-189571D01*
X-190358Y-123101D01*
X-191024Y-123546D01*
X-191025Y-123547D01*
X-193953Y-126475D01*
X-194399Y-127142D01*
X-194555Y-127929D01*
X-194555Y-127929D01*
Y-133473D01*
X-194555Y-133474D01*
X-194399Y-134260D01*
X-193953Y-134927D01*
X-191875Y-137005D01*
X-191943Y-137777D01*
X-191943Y-137777D01*
X-184468Y-148452D01*
X-179118Y-144706D01*
X-185888Y-135036D01*
X-185432Y-133473D01*
X-185234Y-133391D01*
X-184109Y-132266D01*
X-183902Y-131767D01*
X-181432D01*
X-177600Y-135599D01*
X-177597Y-135601D01*
X-173819Y-140996D01*
X-173619Y-140856D01*
X-170644Y-145106D01*
X-172353Y-146303D01*
X-167331Y-153476D01*
X-159806Y-148207D01*
X-164829Y-141034D01*
X-166441Y-142163D01*
X-169217Y-138199D01*
X-168495Y-137268D01*
X-163144Y-133521D01*
X-164327Y-131831D01*
X-151477Y-118981D01*
X-150534Y-119770D01*
X-151143Y-121240D01*
Y-122831D01*
X-150534Y-124301D01*
X-149409Y-125427D01*
X-147938Y-126036D01*
X-146347D01*
X-144877Y-125427D01*
X-143752Y-124301D01*
X-143143Y-122831D01*
Y-121240D01*
X-143198Y-121105D01*
X-140689Y-118596D01*
X-140689Y-118596D01*
X-140244Y-117929D01*
X-140087Y-117143D01*
Y-112929D01*
X-140244Y-112142D01*
X-140689Y-111476D01*
X-140689Y-111476D01*
X-143618Y-108547D01*
X-144285Y-108101D01*
X-144416Y-108075D01*
X-145072Y-107945D01*
D02*
G37*
G36*
X-97604Y-118600D02*
X-99196D01*
X-100666Y-119209D01*
X-101791Y-120334D01*
X-102400Y-121804D01*
Y-123396D01*
X-101791Y-124866D01*
X-100666Y-125991D01*
X-99196Y-126600D01*
X-97604D01*
X-96134Y-125991D01*
X-95009Y-124866D01*
X-94400Y-123396D01*
Y-121804D01*
X-95009Y-120334D01*
X-96134Y-119209D01*
X-97604Y-118600D01*
D02*
G37*
G36*
X110796Y-120786D02*
X109204D01*
X107734Y-121395D01*
X106609Y-122520D01*
X106000Y-123990D01*
Y-125581D01*
X106609Y-127051D01*
X107734Y-128177D01*
X109204Y-128786D01*
X110796D01*
X112266Y-128177D01*
X113391Y-127051D01*
X114000Y-125581D01*
Y-123990D01*
X113391Y-122520D01*
X112266Y-121395D01*
X110796Y-120786D01*
D02*
G37*
G36*
X-166250Y-85944D02*
X-173750D01*
X-174537Y-86101D01*
X-175203Y-86547D01*
X-175649Y-87213D01*
X-175805Y-88000D01*
Y-94000D01*
X-175649Y-94787D01*
X-175203Y-95454D01*
X-174537Y-95899D01*
X-173750Y-96055D01*
X-166250D01*
X-165463Y-95899D01*
X-164797Y-95454D01*
X-164351Y-94787D01*
X-164195Y-94000D01*
Y-93055D01*
X-145851D01*
X-113313Y-125594D01*
X-113400Y-125804D01*
Y-127396D01*
X-112791Y-128866D01*
X-111666Y-129991D01*
X-110196Y-130600D01*
X-108604D01*
X-108394Y-130513D01*
X-103854Y-135054D01*
X-103187Y-135499D01*
X-102400Y-135655D01*
X-39400D01*
X-39400Y-135655D01*
X-38613Y-135499D01*
X-37947Y-135054D01*
X-33406Y-130513D01*
X-33196Y-130600D01*
X-31604D01*
X-30134Y-129991D01*
X-29009Y-128866D01*
X-28400Y-127396D01*
Y-125804D01*
X-29009Y-124334D01*
X-30134Y-123209D01*
X-31604Y-122600D01*
X-33196D01*
X-34666Y-123209D01*
X-35791Y-124334D01*
X-36400Y-125804D01*
Y-127396D01*
X-36313Y-127606D01*
X-40251Y-131545D01*
X-41566D01*
X-41818Y-130274D01*
X-41134Y-129991D01*
X-40009Y-128866D01*
X-39400Y-127396D01*
Y-125804D01*
X-40009Y-124334D01*
X-41134Y-123209D01*
X-42604Y-122600D01*
X-44196D01*
X-45666Y-123209D01*
X-46791Y-124334D01*
X-47400Y-125804D01*
Y-127396D01*
X-46791Y-128866D01*
X-45666Y-129991D01*
X-44981Y-130274D01*
X-45234Y-131545D01*
X-63566D01*
X-63818Y-130274D01*
X-63134Y-129991D01*
X-62009Y-128866D01*
X-61400Y-127396D01*
Y-125804D01*
X-62009Y-124334D01*
X-63134Y-123209D01*
X-64604Y-122600D01*
X-66196D01*
X-67666Y-123209D01*
X-68791Y-124334D01*
X-69400Y-125804D01*
Y-127396D01*
X-68791Y-128866D01*
X-67666Y-129991D01*
X-66982Y-130274D01*
X-67234Y-131545D01*
X-101549D01*
X-105487Y-127606D01*
X-105400Y-127396D01*
Y-125804D01*
X-106009Y-124334D01*
X-107134Y-123209D01*
X-108604Y-122600D01*
X-110196D01*
X-110406Y-122687D01*
X-143546Y-89547D01*
X-144213Y-89101D01*
X-145000Y-88945D01*
X-145000Y-88945D01*
X-164195D01*
Y-88000D01*
X-164351Y-87213D01*
X-164797Y-86547D01*
X-165463Y-86101D01*
X-166250Y-85944D01*
D02*
G37*
G36*
X-119204Y-123500D02*
X-120796D01*
X-122266Y-124109D01*
X-123391Y-125234D01*
X-124000Y-126704D01*
Y-128296D01*
X-123391Y-129766D01*
X-122266Y-130891D01*
X-120796Y-131500D01*
X-119204D01*
X-117734Y-130891D01*
X-116609Y-129766D01*
X-116000Y-128296D01*
Y-126704D01*
X-116609Y-125234D01*
X-117734Y-124109D01*
X-119204Y-123500D01*
D02*
G37*
G36*
X103296Y-127234D02*
X101704D01*
X100234Y-127843D01*
X99109Y-128968D01*
X98500Y-130438D01*
Y-132030D01*
X98949Y-133114D01*
X99109Y-133500D01*
X99220Y-133747D01*
X99432Y-134218D01*
X99432Y-134218D01*
X99432Y-134218D01*
Y-136773D01*
X98284Y-137410D01*
X97927Y-137270D01*
X97266Y-136609D01*
X95796Y-136000D01*
X95568D01*
Y-134218D01*
X86932D01*
Y-153268D01*
X95568D01*
Y-144000D01*
X95796D01*
X97266Y-143391D01*
X97927Y-142730D01*
X98284Y-142590D01*
X99432Y-143227D01*
Y-153268D01*
X108068D01*
Y-134218D01*
X106832D01*
X106120Y-132948D01*
X106500Y-132030D01*
Y-130438D01*
X105891Y-128968D01*
X104766Y-127843D01*
X103296Y-127234D01*
D02*
G37*
G36*
X125796Y-123500D02*
X124204D01*
X122734Y-124109D01*
X121609Y-125234D01*
X121000Y-126704D01*
Y-128296D01*
X121609Y-129766D01*
X122070Y-130227D01*
X121756Y-131709D01*
X121722Y-131722D01*
X121400Y-132500D01*
Y-160000D01*
X121722Y-160778D01*
X122500Y-161100D01*
X155000D01*
X155778Y-160778D01*
X156100Y-160000D01*
Y-132500D01*
X155778Y-131722D01*
X155000Y-131400D01*
X141500D01*
X140722Y-131722D01*
X140400Y-132500D01*
Y-133077D01*
X139959Y-134143D01*
X139143Y-134959D01*
X138077Y-135400D01*
X136923D01*
X135857Y-134959D01*
X135041Y-134143D01*
X134600Y-133077D01*
Y-132500D01*
X134278Y-131722D01*
X133500Y-131400D01*
X128553D01*
X128027Y-130130D01*
X128391Y-129766D01*
X129000Y-128296D01*
Y-126704D01*
X128391Y-125234D01*
X127266Y-124109D01*
X125796Y-123500D01*
D02*
G37*
G36*
X6516Y-137984D02*
X-6516D01*
Y-166016D01*
X6516D01*
Y-137984D01*
D02*
G37*
G36*
X-13484D02*
X-26516D01*
Y-166016D01*
X-13484D01*
Y-137984D01*
D02*
G37*
G36*
X-33484D02*
X-46516D01*
Y-166016D01*
X-33484D01*
Y-137984D01*
D02*
G37*
G36*
X-53484D02*
X-66516D01*
Y-166016D01*
X-53484D01*
Y-137984D01*
D02*
G37*
G36*
X-73484D02*
X-86516D01*
Y-166016D01*
X-73484D01*
Y-137984D01*
D02*
G37*
G36*
X-93484D02*
X-106516D01*
Y-166016D01*
X-93484D01*
Y-137984D01*
D02*
G37*
G36*
X35546Y-172500D02*
X33954D01*
X32484Y-173109D01*
X31359Y-174234D01*
X30750Y-175704D01*
Y-177296D01*
X31359Y-178766D01*
X32484Y-179891D01*
X33954Y-180500D01*
X35546D01*
X37016Y-179891D01*
X38141Y-178766D01*
X38750Y-177296D01*
Y-175704D01*
X38141Y-174234D01*
X37016Y-173109D01*
X35546Y-172500D01*
D02*
G37*
G36*
X86450Y-158984D02*
X83550D01*
X80748Y-159735D01*
X78236Y-161185D01*
X76185Y-163236D01*
X74735Y-165748D01*
X73984Y-168550D01*
Y-171450D01*
X74735Y-174252D01*
X76185Y-176764D01*
X78236Y-178815D01*
X80748Y-180265D01*
X83550Y-181016D01*
X86450D01*
X89252Y-180265D01*
X91764Y-178815D01*
X93815Y-176764D01*
X95265Y-174252D01*
X96016Y-171450D01*
Y-168550D01*
X95265Y-165748D01*
X93815Y-163236D01*
X91764Y-161185D01*
X89252Y-159735D01*
X86450Y-158984D01*
D02*
G37*
%LPD*%
G36*
X151980Y159184D02*
Y156965D01*
X151980Y156965D01*
X152136Y156178D01*
X152582Y155511D01*
X156984Y151109D01*
Y147457D01*
X155752Y146893D01*
X147159Y155485D01*
X146492Y155931D01*
X145706Y156088D01*
X145705Y156088D01*
X128071D01*
Y159612D01*
X128249Y159719D01*
X129341Y160002D01*
X130234Y159109D01*
X131704Y158500D01*
X133296D01*
X134766Y159109D01*
X135427Y159770D01*
X136250Y160093D01*
X137073Y159770D01*
X137734Y159109D01*
X139204Y158500D01*
X140796D01*
X142266Y159109D01*
X143391Y160234D01*
X144000Y161704D01*
Y162781D01*
X144163Y162945D01*
X148220D01*
X151980Y159184D01*
D02*
G37*
G36*
X231750Y-60850D02*
X168250D01*
Y-15350D01*
X231750D01*
Y-60850D01*
D02*
G37*
G36*
X116504Y-80948D02*
X116445Y-81250D01*
Y-88750D01*
X116601Y-89537D01*
X117047Y-90204D01*
X117713Y-90649D01*
X118500Y-90806D01*
X123509D01*
X123760Y-92076D01*
X105391Y-110444D01*
X95872D01*
X95729Y-110196D01*
X95482Y-109174D01*
X96391Y-108266D01*
X97000Y-106796D01*
Y-105204D01*
X96391Y-103734D01*
X95482Y-102825D01*
X95729Y-101804D01*
X95872Y-101556D01*
X98750D01*
X99537Y-101399D01*
X100204Y-100953D01*
X100649Y-100287D01*
X100806Y-99500D01*
Y-95945D01*
X101037Y-95899D01*
X101704Y-95453D01*
X106351Y-90806D01*
X111500D01*
X112287Y-90649D01*
X112954Y-90204D01*
X113399Y-89537D01*
X113555Y-88750D01*
Y-82101D01*
X115334Y-80323D01*
X116504Y-80948D01*
D02*
G37*
G36*
X155000Y-160000D02*
X122500D01*
Y-132500D01*
X133500D01*
Y-133296D01*
X134109Y-134766D01*
X135234Y-135891D01*
X136704Y-136500D01*
X138296D01*
X139766Y-135891D01*
X140891Y-134766D01*
X141500Y-133296D01*
Y-132500D01*
X155000D01*
Y-160000D01*
D02*
G37*
D12*
X-24553Y199327D02*
G03*
X-24991Y199991I-1855J-748D01*
G01*
X-48092Y242384D02*
G03*
X-48094Y242384I445J-1950D01*
G01*
X-47977Y242407D02*
G03*
X-48092Y242384I330J-1973D01*
G01*
X-117440Y217418D02*
X-117441Y217418D01*
X-117341Y217472D02*
G03*
X-117440Y217418I900J-1786D01*
G01*
X-165585Y183425D02*
G03*
X-165668Y183350I1299J-1520D01*
G01*
X-165582Y183427D02*
G03*
X-165585Y183425I1297J-1522D01*
G01*
X-154394Y192939D02*
G03*
X-154395Y192938I1289J-1529D01*
G01*
X-154314Y193003D02*
G03*
X-154394Y192939I1209J-1593D01*
G01*
X-154312Y193004D02*
G03*
X-154314Y193003I1207J-1594D01*
G01*
X-142480Y201897D02*
G03*
X-142578Y201828I1104J-1668D01*
G01*
X-186309Y162332D02*
G03*
X-186388Y162242I1468J-1358D01*
G01*
X-176261Y173191D02*
G03*
X-176345Y173105I1384J-1444D01*
G01*
X-197388Y148552D02*
G03*
X-197348Y146164I1624J-1167D01*
G01*
X-197388Y148553D02*
X-197388Y148552D01*
X-177302Y123605D02*
G03*
X-172977Y120023I4802J1395D01*
G01*
X-18672Y246403D02*
G03*
X-18792Y246394I92J-1998D01*
G01*
X-33384Y244844D02*
G03*
X-33503Y244827I211J-1989D01*
G01*
X-90516Y229934D02*
G03*
X-90627Y229890I677J-1882D01*
G01*
X-76594Y234939D02*
G03*
X-76708Y234902I563J-1919D01*
G01*
X-62397Y239101D02*
G03*
X-62512Y239071I447J-1949D01*
G01*
X-130148Y210058D02*
G03*
X-130238Y210002I1008J-1727D01*
G01*
X-104117Y224104D02*
G03*
X-104219Y224057I792J-1836D01*
G01*
X-194265Y140110D02*
G03*
X-187773Y133023I4265J-2610D01*
G01*
X-184921Y130882D02*
G03*
X-179439Y125032I4922J-882D01*
G01*
X-177302Y123605D02*
G03*
X-179439Y125032I-1919J-562D01*
G01*
X-184921Y130882D02*
G03*
X-187773Y133023I-1970J346D01*
G01*
X-194265Y140110D02*
G03*
X-194394Y142372I-1711J1036D01*
G01*
X17500Y122500D02*
X27500D01*
X27308Y152500D02*
X31808Y157000D01*
X17500Y152500D02*
X27308D01*
X17500Y147500D02*
X27500D01*
X31808Y157000D02*
X32000D01*
X-24997Y199997D02*
X-24991Y199991D01*
X-24553Y199327D02*
X-22335Y193829D01*
X-27500Y202500D02*
X-24997Y199997D01*
X-62500Y217500D02*
X-62382Y217618D01*
Y225118D01*
X-57484Y230016D01*
X-45000D01*
X132500Y162500D02*
X138016Y168016D01*
X151984D02*
X160500Y159500D01*
X138016Y168016D02*
X151984D01*
X160500Y159500D02*
X162000D01*
X140812Y162500D02*
X143312Y165000D01*
X149071D01*
X154036Y156965D02*
Y160036D01*
X149071Y165000D02*
X154036Y160036D01*
X140000Y162500D02*
X140812D01*
X154036Y156965D02*
X160500Y150500D01*
X162000D01*
X-45262Y162762D02*
X-45000Y163025D01*
X-50000Y167500D02*
Y174704D01*
X-45000Y163025D02*
Y173969D01*
X-47500Y180735D02*
X-40000Y173235D01*
Y167500D02*
Y173235D01*
X-35000Y162500D02*
Y172500D01*
X-37500Y112500D02*
X-36926Y111926D01*
X-47500Y102500D02*
Y112500D01*
X-42500Y102500D02*
Y114571D01*
X-27111Y112111D02*
X-24111D01*
X-27500Y112500D02*
X-27111Y112111D01*
X-45429Y117500D02*
X-42500Y114571D01*
X-36926Y111926D02*
X-34426D01*
X-21984Y57283D02*
X-21929Y57228D01*
Y44571D02*
Y57228D01*
X-21984Y62024D02*
X-21508Y62500D01*
Y66508D01*
X-18492Y61251D02*
Y66508D01*
X-18968Y58532D02*
Y60775D01*
Y58532D02*
X-17796Y57361D01*
X-30000Y36500D02*
X-21929Y44571D01*
X-21984Y57283D02*
Y62024D01*
X-12860Y57361D02*
X-9000Y53500D01*
X-17796Y57361D02*
X-12860D01*
X-18968Y60775D02*
X-18492Y61251D01*
X-97500Y187500D02*
X-75000D01*
X-97500Y182500D02*
X-80172D01*
X-77671Y180000D01*
X-77500D01*
X-18024Y96632D02*
Y101976D01*
X-22156Y92500D02*
X-18024Y96632D01*
X70000Y131688D02*
X72500Y134188D01*
Y135000D01*
X70000Y125000D02*
Y131688D01*
X-124043Y146000D02*
X-124000Y146043D01*
X-181072Y146000D02*
X-124043D01*
X-74000Y127000D02*
X-70000Y131000D01*
Y140000D01*
X-165973Y-130570D02*
X-150977Y-115574D01*
X-147717D01*
X-147143Y-115000D01*
X-147036Y-122036D02*
X-142143Y-117143D01*
X-147143Y-122036D02*
X-147036D01*
X-176467Y-125000D02*
X-158291Y-115157D01*
X-157829Y-114813D02*
X-153016Y-110000D01*
X-145072D01*
X-169557Y-130057D02*
X-169043Y-130570D01*
X-142143Y-117143D02*
Y-112929D01*
X-158291Y-115157D02*
X-157829Y-114813D01*
X-145072Y-110000D02*
X-142143Y-112929D01*
X-169043Y-130570D02*
X-165973D01*
X-66508Y84243D02*
Y94772D01*
X-63492Y85492D02*
X-57759Y79759D01*
X-57759D01*
X-66508Y84243D02*
X-59008Y76743D01*
X-57759Y79759D02*
X-55992Y77992D01*
X-63492Y85492D02*
Y94772D01*
X-59008Y71034D02*
Y76743D01*
X-59008D02*
X-59008D01*
X-55992Y71034D02*
Y77992D01*
X-67500Y102500D02*
X-66976Y101976D01*
X-63492Y94772D02*
X-63024Y95240D01*
X-60180Y69862D02*
X-59008Y71034D01*
X-54820Y69862D02*
X-52362D01*
X-65000Y67286D02*
Y67500D01*
X-55992Y71034D02*
X-54820Y69862D01*
X-66976Y95240D02*
Y101976D01*
X-63024Y95240D02*
Y101976D01*
X-65000Y67500D02*
X-62638Y69862D01*
X-50000Y67286D02*
Y67500D01*
X-63024Y101976D02*
X-62500Y102500D01*
X-62638Y69862D02*
X-60180D01*
X-52362D02*
X-50000Y67500D01*
X-66976Y95240D02*
X-66508Y94772D01*
X-56508Y89743D02*
X-49633Y82867D01*
X-53492Y90992D02*
Y94772D01*
Y90992D02*
X-46617Y84117D01*
X-56508Y89743D02*
Y94772D01*
X-55992Y54956D02*
Y63537D01*
X-55992Y54956D02*
X-55992Y54956D01*
X-55992Y44685D02*
Y54956D01*
Y44685D02*
X-55250Y43943D01*
Y39375D02*
Y43943D01*
Y39375D02*
X-53375Y37500D01*
X-65000Y67071D02*
Y67286D01*
Y67071D02*
X-62638Y64709D01*
X-60180D01*
X-61625Y37500D02*
X-59750Y39375D01*
X-55992Y63537D02*
X-54820Y64709D01*
X-60180D02*
X-59008Y63537D01*
Y56205D02*
Y63537D01*
X-59750Y39375D02*
Y43943D01*
X-54820Y64709D02*
X-52362D01*
X-59008Y44685D02*
Y56205D01*
X-50000Y67071D02*
Y67286D01*
X-59750Y43943D02*
X-59008Y44685D01*
X-52362Y64709D02*
X-50000Y67071D01*
X-59008Y56205D02*
X-59008Y56205D01*
X-82451Y152451D02*
Y174631D01*
Y152451D02*
X-70000Y140000D01*
X-48094Y242384D02*
X-48092Y242384D01*
X-61544Y239297D02*
X-48094Y242384D01*
X-117441Y217418D02*
X-117440Y217418D01*
X-130148Y210058D02*
X-117441Y217418D01*
X-154395Y192938D02*
X-154394Y192939D01*
X-165582Y183427D02*
X-154395Y192938D01*
X-165585Y183425D02*
X-165582Y183427D01*
X-154312Y193004D02*
X-142578Y201828D01*
X-154314Y193003D02*
X-154312Y193004D01*
X-142480Y201897D02*
X-134508Y207175D01*
X-186309Y162332D02*
X-176345Y173105D01*
X-171310Y177939D02*
X-165668Y183350D01*
X-176261Y173191D02*
X-171310Y177939D01*
X-195728Y150846D02*
X-186388Y162242D01*
X-197388Y148553D02*
X-195728Y150846D01*
X-197388Y148552D02*
X-197388Y148553D01*
X-172977Y120023D02*
X-164179Y119179D01*
X-12500Y230000D02*
X-12480Y230020D01*
Y246687D01*
X-26005Y245627D02*
X-18792Y246394D01*
X-18672Y246403D02*
X-12480Y246687D01*
X-47977Y242407D02*
X-33503Y244827D01*
X-33384Y244844D02*
X-26005Y245627D01*
X-76594Y234939D02*
X-62512Y239071D01*
X-95001Y228014D02*
X-90627Y229890D01*
X-90516Y229934D02*
X-76708Y234902D01*
X-62397Y239101D02*
X-61544Y239297D01*
X-117341Y217472D02*
X-104219Y224057D01*
X-104117Y224104D02*
X-95001Y228014D01*
X-134508Y207175D02*
X-130238Y210002D01*
X-197348Y146164D02*
X-194394Y142372D01*
X-190000Y137500D02*
X-189572D01*
X-181072Y146000D01*
X-107090Y157500D02*
X-97500D01*
X-112968Y119032D02*
Y161328D01*
X-123766Y112500D02*
X-115984Y120281D01*
X-129643Y102357D02*
X-112968Y119032D01*
X-115984Y120281D02*
Y168000D01*
X-119000Y186000D02*
X-107500Y197500D01*
X-115984Y168000D02*
Y184016D01*
X-119000Y129114D02*
Y186000D01*
X-124571Y123543D02*
X-119000Y129114D01*
X-115984Y168000D02*
X-107969D01*
X-112968Y161328D02*
X-111796Y162500D01*
X-97500D01*
X-115984Y184016D02*
X-107500Y192500D01*
Y147844D02*
X-103368Y151976D01*
X-107500Y147500D02*
Y147844D01*
Y137500D02*
X-97500D01*
X-103368Y151976D02*
X-98024D01*
X-97500Y152500D01*
X80484Y-115516D02*
X107491D01*
X133500Y-85750D02*
Y-85000D01*
X107491Y-115516D02*
X129008Y-93999D01*
X79235Y-112500D02*
X106242D01*
X125992Y-92750D01*
X121500Y-85000D02*
Y-84250D01*
X133500Y-85000D02*
Y-84250D01*
X121500Y-85750D02*
Y-85000D01*
X-107969Y168000D02*
X-107469Y167500D01*
X-39433Y93074D02*
X-37621Y94886D01*
X-29426Y93074D02*
X-28024Y94476D01*
X-42500Y92500D02*
X-41926Y93074D01*
X-39433D01*
X-31926D02*
X-29426D01*
X-32500Y92500D02*
X-31926Y93074D01*
X-2361Y127639D02*
X-1787Y128213D01*
Y133478D01*
X9515Y144780D02*
Y155484D01*
X-1787Y133478D02*
X9515Y144780D01*
X3000Y134000D02*
X10976Y141976D01*
X16976D02*
X17500Y142500D01*
X3000Y30531D02*
Y134000D01*
X10976Y141976D02*
X16976D01*
X-18024Y101976D02*
X-17500Y102500D01*
X-13641Y93312D02*
X-13024Y93929D01*
Y101976D02*
X-12500Y102500D01*
X-13024Y93929D02*
Y101976D01*
X-13641Y92500D02*
Y93312D01*
X-22500Y92500D02*
X-22156D01*
X-25000Y162500D02*
Y172500D01*
X-32500Y180000D02*
Y217500D01*
Y180000D02*
X-25000Y172500D01*
X-37500Y180000D02*
X-30000Y172500D01*
X-42500Y180000D02*
X-35000Y172500D01*
X-30000Y167500D02*
Y172500D01*
X-37500Y180000D02*
Y217500D01*
X-61280Y185984D02*
X-50000Y174704D01*
X-60030Y189000D02*
X-45000Y173969D01*
X-63320Y185984D02*
X-61280D01*
X-47500Y180735D02*
Y217500D01*
X-62071Y189000D02*
X-60030D01*
X-42500Y180000D02*
Y217500D01*
X70992Y-135062D02*
Y-120743D01*
X72759Y-118976D01*
X72759D02*
X77468Y-114267D01*
Y-114267D01*
X74008Y-121992D02*
X74008D01*
X74008Y-135062D02*
Y-121992D01*
X77468Y-114267D02*
X79235Y-112500D01*
X74008Y-121992D02*
X80484Y-115516D01*
Y-115516D01*
X72759Y-118976D02*
X72759D01*
X-192500Y-127929D02*
X-189571Y-125000D01*
X-176467D01*
X-192500Y-133474D02*
X-185973Y-140000D01*
X-192500Y-133474D02*
Y-127929D01*
X-112500Y92250D02*
Y112500D01*
X-107500Y117500D02*
X-45429D01*
X-112500Y112500D02*
X-107500Y117500D01*
X-68016Y216984D02*
X-67500Y217500D01*
X-68016Y190680D02*
Y216984D01*
X-87500Y152156D02*
Y152500D01*
X-91632Y148024D02*
X-87500Y152156D01*
X-27500Y202500D02*
Y217500D01*
X35000Y170000D02*
X37500Y167500D01*
X35000Y170000D02*
Y180000D01*
X37500Y167500D02*
X45000D01*
X27500Y187500D02*
X35000Y180000D01*
X17500Y187500D02*
X27500D01*
X-65668Y188332D02*
X-65668D01*
X-63320Y185984D01*
X-65000Y191929D02*
X-62071Y189000D01*
X-68016Y190680D02*
X-65668Y188332D01*
X-65000Y196071D02*
X-57500Y203571D01*
X-65000Y191929D02*
Y196071D01*
X-57500Y203571D02*
Y217500D01*
X-97470Y172530D02*
X-87481D01*
X-85380Y177560D02*
X-82451Y174631D01*
X-87481Y172530D02*
X-87451Y172560D01*
X-97500Y172500D02*
X-97470Y172530D01*
X-97440Y177560D02*
X-85380D01*
X-96976Y166976D02*
X-90288D01*
X-88312Y165000D02*
X-87500D01*
X-97500Y167500D02*
X-96976Y166976D01*
X-90288D02*
X-88312Y165000D01*
X-97500Y177500D02*
X-97440Y177560D01*
X11007Y156976D02*
X16976D01*
X9515Y155484D02*
X11007Y156976D01*
X16976D02*
X17500Y157500D01*
X60191Y147309D02*
X65000Y142500D01*
X-60000Y194000D02*
X-52500Y201500D01*
Y217500D01*
X17500Y162500D02*
X27500D01*
X30000Y172500D02*
Y177500D01*
X17618Y167618D02*
X25118D01*
X17500Y167500D02*
X17618Y167618D01*
X25118D02*
X30000Y172500D01*
X126000Y58343D02*
Y60000D01*
X131984Y63016D02*
X140000Y55000D01*
X107500Y58749D02*
X111767Y63016D01*
X131984D01*
X121920Y56706D02*
X124362D01*
X126000Y58343D01*
X110516Y57500D02*
X113016Y60000D01*
X120000Y54786D02*
X121920Y56706D01*
X113016Y60000D02*
X126000D01*
X138500Y74250D02*
Y75000D01*
X116500Y68000D02*
X132250D01*
X138500Y74250D01*
X-24111Y112111D02*
X-22500Y110500D01*
Y102500D02*
Y110500D01*
X-28024Y94476D02*
Y101976D01*
X-27500Y102500D01*
X-105065Y42151D02*
X-105000Y42086D01*
X-105065Y42151D02*
Y46486D01*
X-105639Y47060D02*
X-105065Y46486D01*
X-105000Y40429D02*
Y42086D01*
X-37621Y102379D02*
X-37500Y102500D01*
X-37621Y94886D02*
Y102379D01*
X-33024Y103024D02*
Y110524D01*
X-34426Y111926D02*
X-33024Y110524D01*
Y103024D02*
X-32500Y102500D01*
X-119000Y85750D02*
X-112500Y92250D01*
X-139857Y102357D02*
X-129643D01*
X-132214Y112500D02*
X-123766D01*
X-119000Y85000D02*
Y85750D01*
X-15000Y70000D02*
X-14786D01*
X-25000D02*
X-21508Y66508D01*
X-25214Y70000D02*
X-25000D01*
X-18492Y66508D02*
X-15000Y70000D01*
X-31000Y36500D02*
X-30000D01*
X-46617Y84117D02*
X-44065Y81565D01*
X-22445D01*
X-18492Y77612D01*
Y73492D02*
Y77612D01*
X-45314Y78549D02*
X-23694D01*
X-21508Y73492D02*
Y76362D01*
X-25000Y70000D02*
X-21508Y73492D01*
X-23694Y78549D02*
X-21508Y76362D01*
X-18492Y73492D02*
X-15000Y70000D01*
X-49633Y82867D02*
X-45314Y78549D01*
X-46617Y84117D02*
Y84117D01*
X-53024Y95240D02*
Y101976D01*
X-52500Y102500D01*
X-57500D02*
X-56976Y101976D01*
X-53492Y94772D02*
X-53024Y95240D01*
X-56976D02*
X-56508Y94772D01*
X-56976Y95240D02*
Y101976D01*
X-112165Y44884D02*
X-110984Y46065D01*
X-109000Y51812D02*
Y52623D01*
X-113266Y44884D02*
X-112165D01*
X-115000Y42150D02*
X-114250Y42900D01*
X-110984Y49828D02*
X-109000Y51812D01*
X-110984Y46065D02*
Y49828D01*
X-114250Y42900D02*
Y43900D01*
X-113266Y44884D01*
X-97500Y142500D02*
X-87500D01*
X-97500Y142500D02*
X-97500Y142500D01*
Y132500D02*
X-87500D01*
X-97500Y132500D02*
X-97500Y132500D01*
X-96976Y148024D02*
X-91632D01*
X-97500Y147500D02*
X-96976Y148024D01*
X-145000Y-91000D02*
X-102400Y-133600D01*
X-39400D01*
X-32400Y-126600D01*
X-20000Y229828D02*
X-17500Y227328D01*
X-20000Y229828D02*
Y230016D01*
X-17500Y217500D02*
Y227328D01*
X-7500Y217500D02*
Y227328D01*
X-5000Y229828D02*
Y230000D01*
X-7500Y227328D02*
X-5000Y229828D01*
X-2382Y217618D02*
Y225118D01*
X-2500Y217500D02*
X-2382Y217618D01*
Y225118D02*
X2500Y230000D01*
X-23024Y218024D02*
Y225524D01*
Y218024D02*
X-22500Y217500D01*
X-27500Y230000D02*
X-23024Y225524D01*
X-12500Y217500D02*
Y230000D01*
X66250Y-138536D02*
X68552Y-136234D01*
X69820D01*
X70992Y-135062D01*
X66250Y-143743D02*
Y-138536D01*
X74008Y-135062D02*
X75180Y-136234D01*
X76448D01*
X78750Y-138536D01*
Y-143743D02*
Y-138536D01*
X130500Y-88750D02*
X133500Y-85750D01*
X124820Y-88750D02*
X125992Y-89922D01*
X129008D02*
X130180Y-88750D01*
X125992Y-92750D02*
Y-89922D01*
X121500Y-85750D02*
X124500Y-88750D01*
X124820D01*
X130180D02*
X130500D01*
X129008Y-93999D02*
Y-89922D01*
X126592Y-74841D02*
Y-71133D01*
X125420Y-69961D02*
X126592Y-71133D01*
X121750Y-68167D02*
Y-63815D01*
X130500Y-81250D02*
X133500Y-84250D01*
X121500D02*
X124500Y-81250D01*
X132656Y-69961D02*
X134450Y-68167D01*
Y-63815D01*
X123544Y-69961D02*
X125420D01*
X130780D02*
X132656D01*
X129608Y-71133D02*
X130780Y-69961D01*
X121750Y-68167D02*
X123544Y-69961D01*
X125992Y-75441D02*
X126592Y-74841D01*
X129608Y-76090D02*
Y-71133D01*
X124500Y-81250D02*
X124820D01*
X129008Y-76691D02*
X129608Y-76090D01*
X124820Y-81250D02*
X125992Y-80078D01*
X129008D02*
Y-76691D01*
X125992Y-80078D02*
Y-75441D01*
X130180Y-81250D02*
X130500D01*
X129008Y-80078D02*
X130180Y-81250D01*
X41250Y-138536D02*
X43552Y-136234D01*
X44820D02*
X45992Y-135062D01*
X45550Y-68167D02*
X47344Y-69961D01*
X45550Y-68167D02*
Y-63815D01*
X45992Y-135062D02*
Y-106338D01*
X53750Y-143743D02*
Y-138536D01*
X49220Y-69961D02*
X50392Y-71133D01*
X51448Y-136234D02*
X53750Y-138536D01*
X47344Y-69961D02*
X49220D01*
X56456D02*
X58250Y-68167D01*
X53408Y-71133D02*
X54580Y-69961D01*
X49008Y-107587D02*
X53408Y-103187D01*
X49008Y-135062D02*
X50180Y-136234D01*
X50392Y-101938D02*
Y-71133D01*
X45992Y-106338D02*
X50392Y-101938D01*
X58250Y-68167D02*
Y-63815D01*
X43552Y-136234D02*
X44820D01*
X54580Y-69961D02*
X56456D01*
X41250Y-143743D02*
Y-138536D01*
X53408Y-103187D02*
Y-71133D01*
X49008Y-135062D02*
Y-107587D01*
X50180Y-136234D02*
X51448D01*
X-170000Y-91000D02*
X-145000D01*
X-123750Y96250D02*
X-122000D01*
X-127500Y92500D02*
X-123750Y96250D01*
X-122000D02*
X-119000Y99250D01*
Y100000D01*
X-3546Y23984D02*
X3000Y30531D01*
X-1048Y17952D02*
X9032Y28032D01*
Y130804D01*
X-2297Y20968D02*
X6016Y29281D01*
Y132054D01*
X-52797Y20968D02*
X-2297D01*
X-51548Y17952D02*
X-1048D01*
X-54047Y23984D02*
X-3546D01*
X10938Y136976D02*
X16976D01*
X9032Y130804D02*
X10204Y131976D01*
X6016Y132054D02*
X10938Y136976D01*
X10204Y131976D02*
X16976D01*
X17500Y132500D01*
X16976Y136976D02*
X17500Y137500D01*
X-107500Y192500D02*
X-97500D01*
X-107500Y197500D02*
X-97500D01*
X-124571Y122642D02*
Y123543D01*
X-129250Y38250D02*
Y41400D01*
X-130000Y42150D02*
X-129250Y41400D01*
Y38250D02*
X-122000Y31000D01*
X-120016Y34016D02*
X-105734D01*
X-124250Y38250D02*
X-120016Y34016D01*
X-122000Y31000D02*
X-95000D01*
X-105734Y34016D02*
X-95750Y44000D01*
X-135000Y42150D02*
X-134750Y41900D01*
X-125000Y42150D02*
X-124250Y41400D01*
Y38250D02*
Y41400D01*
X-119250Y39049D02*
X-117585Y37384D01*
X-108045D02*
X-105000Y40429D01*
X-117585Y37384D02*
X-108045D01*
X-119250Y39049D02*
Y41400D01*
X-120000Y42150D02*
X-119250Y41400D01*
X-92000Y41000D02*
X-90750D01*
X-80750Y31000D01*
X-95000Y44000D02*
X-92000Y41000D01*
X-80750Y31000D02*
X-80000D01*
X-72500Y24765D02*
Y102500D01*
X-124250Y68600D02*
Y73250D01*
X-121500Y76000D02*
X-102203D01*
X-124250Y73250D02*
X-121500Y76000D01*
X-130000Y73250D02*
X-119000Y84250D01*
X-130000Y67850D02*
Y73250D01*
X-119000Y84250D02*
Y85000D01*
X-95750Y82500D02*
X-94000D01*
X-97000Y81203D02*
Y81250D01*
X-95750Y82500D01*
X-102203Y76000D02*
X-97000Y81203D01*
X-117323Y72878D02*
X-85378D01*
X-119250Y70951D02*
X-117323Y72878D01*
X-125000Y67850D02*
X-124250Y68600D01*
X-119250D02*
Y70951D01*
X-80000Y67286D02*
Y67500D01*
X-85378Y72878D02*
X-80000Y67500D01*
X-120000Y67850D02*
X-119250Y68600D01*
X-95564Y67850D02*
X-95000Y67286D01*
X-115000Y67850D02*
X-95564D01*
X-95750Y44000D02*
X-95000D01*
X52941Y147309D02*
X60191D01*
X52750Y147500D02*
X52941Y147309D01*
X59017Y180016D02*
X89249D01*
X55258Y183775D02*
Y186466D01*
Y183775D02*
X59017Y180016D01*
X52242Y182525D02*
X57767Y177000D01*
X89249Y180016D02*
X95325Y173941D01*
X88000Y177000D02*
X92309Y172691D01*
X57767Y177000D02*
X88000D01*
X159000Y110250D02*
X163500Y105750D01*
X159000Y110250D02*
Y140738D01*
X144456Y151016D02*
X155984Y139488D01*
X145706Y154032D02*
X159000Y140738D01*
X155984Y98266D02*
Y139488D01*
Y98266D02*
X163500Y90750D01*
Y105000D02*
Y105750D01*
X127188Y154032D02*
X145706D01*
X122691Y154263D02*
X125938Y151016D01*
X122500Y162250D02*
X122691Y162059D01*
X126016Y155204D02*
X127188Y154032D01*
X125938Y151016D02*
X144456D01*
X126016Y155204D02*
Y169456D01*
X122691Y154263D02*
Y162059D01*
X123956Y171516D02*
X126016Y169456D01*
X116016Y171516D02*
X123956D01*
X112500Y168000D02*
X116016Y171516D01*
X112500Y162250D02*
Y168000D01*
X62500Y112500D02*
X70000Y120000D01*
Y115000D02*
Y120000D01*
Y125000D01*
X52750Y112500D02*
X62500D01*
X62500Y107500D02*
X70000Y115000D01*
X52750Y107500D02*
X62500D01*
X62500Y117500D02*
X70000Y125000D01*
X52750Y117500D02*
X62500D01*
X140000Y54786D02*
Y55000D01*
X107500Y42500D02*
Y58749D01*
X112500Y72000D02*
X116500Y68000D01*
X100000Y35000D02*
X107500Y42500D01*
X101249Y31984D02*
X110516Y41251D01*
Y57500D01*
X92680Y40500D02*
X94500D01*
X92759Y31984D02*
X101249D01*
X82500Y43500D02*
X85500Y40500D01*
X88492Y36251D02*
X92759Y31984D01*
X91508Y37500D02*
X94008Y35000D01*
X88492Y36251D02*
Y39328D01*
X94008Y35000D02*
X100000D01*
X87320Y40500D02*
X88492Y39328D01*
X85500Y40500D02*
X87320D01*
X94500D02*
X97500Y43500D01*
X91508Y39328D02*
X92680Y40500D01*
X91508Y37500D02*
Y39328D01*
X45550Y23815D02*
Y28167D01*
X51368Y29961D02*
X58492Y37085D01*
X57320Y40500D02*
X58492Y39328D01*
X58250Y23815D02*
X58682Y24247D01*
X52500Y42500D02*
X54500Y40500D01*
X65500D02*
X67500Y42500D01*
X58492Y37085D02*
Y39328D01*
X62680Y40500D02*
X65500D01*
X47344Y29961D02*
X51368D01*
X61508Y39328D02*
X62680Y40500D01*
X61508Y35836D02*
Y39328D01*
X45550Y28167D02*
X47344Y29961D01*
X58682Y24247D02*
Y33009D01*
X54500Y40500D02*
X57320D01*
X58682Y33009D02*
X61508Y35836D01*
X85500Y59500D02*
X87320D01*
X88492Y60672D02*
Y63331D01*
X91508Y70737D02*
X92500Y71729D01*
X82500Y56500D02*
X85500Y59500D01*
X91508Y64580D02*
X91508Y64580D01*
Y60672D02*
Y64580D01*
X87500Y71729D02*
Y77750D01*
X91508Y60672D02*
X92680Y59500D01*
X88492Y63331D02*
X88492Y63331D01*
X92500Y71729D02*
Y77750D01*
X91508Y64580D02*
Y70737D01*
X88492Y63331D02*
Y70737D01*
X92680Y59500D02*
X94500D01*
X87320D02*
X88492Y60672D01*
X94500Y59500D02*
X97500Y56500D01*
X87500Y71729D02*
X88492Y70737D01*
X52500Y56500D02*
X55500Y59500D01*
X59485D01*
X66313Y66328D01*
X67320D01*
X68492Y67500D01*
Y70737D01*
X67500Y71729D02*
X68492Y70737D01*
X67500Y71729D02*
Y77750D01*
Y56500D02*
X67586Y56586D01*
Y62328D01*
X72500Y71729D02*
Y77750D01*
X71508Y66251D02*
Y70737D01*
X72500Y71729D01*
X67586Y62328D02*
X71508Y66251D01*
X-213150Y-57200D02*
X-210500Y-59850D01*
X-213650Y-57200D02*
X-213150D01*
X-203500Y-91250D02*
X-202680D01*
X-210500Y-77399D02*
Y-59850D01*
X-206500Y-94250D02*
X-203500Y-91250D01*
X-210500Y-77399D02*
X-204349Y-83550D01*
X-206500Y-95000D02*
Y-94250D01*
X-204349Y-83550D02*
X-202680D01*
X-201508Y-87628D02*
X-201508Y-87628D01*
X-202680Y-91250D02*
X-201508Y-90078D01*
X-202680Y-83550D02*
X-201508Y-84721D01*
X-201508Y-90078D02*
Y-87628D01*
X-201508Y-87628D02*
Y-84721D01*
X-189500Y-77399D02*
Y-59850D01*
X-186850Y-57200D01*
X-197320Y-83550D02*
X-195651D01*
X-189500Y-77399D01*
X-198492Y-86378D02*
Y-84721D01*
X-197320Y-83550D01*
X-197320Y-91250D02*
X-196500D01*
X-198492Y-90078D02*
X-197320Y-91250D01*
X-193500Y-95000D02*
Y-94250D01*
X-196500Y-91250D02*
X-193500Y-94250D01*
X-186850Y-57200D02*
X-186350D01*
X-198492Y-90078D02*
Y-86378D01*
X-198492Y-86378D02*
X-198492Y-86378D01*
X-201508Y-105723D02*
Y-99922D01*
X-197121Y-114213D02*
X-195119Y-116215D01*
X-202680Y-98750D02*
X-201508Y-99922D01*
X-203500Y-98750D02*
X-202680D01*
X-206500Y-95750D02*
X-203500Y-98750D01*
X-201508Y-105723D02*
X-197121Y-110109D01*
Y-114213D02*
Y-110109D01*
X-193500Y-95750D02*
Y-95000D01*
X-196500Y-98750D02*
X-193500Y-95750D01*
X-197320Y-98750D02*
X-196500D01*
X-198492Y-99922D02*
X-197320Y-98750D01*
X-198492Y-104473D02*
Y-99922D01*
X-190478Y-112487D02*
X-189794D01*
X-198492Y-104473D02*
X-190478Y-112487D01*
X-92484Y17016D02*
X-70600D01*
X-67584Y20032D02*
X-57998D01*
X-69351Y14000D02*
X-66335Y17016D01*
X-70600D02*
X-67584Y20032D01*
X-66335Y17016D02*
X-56749D01*
X-100000Y9500D02*
X-92484Y17016D01*
X-120000Y9500D02*
X-115500Y14000D01*
X-115000D02*
X-105952Y23048D01*
X-74217D01*
X-115500Y14000D02*
X-115000D01*
X-120000Y2000D02*
Y9500D01*
X-74217Y23048D02*
X-72500Y24765D01*
X-57998Y20032D02*
X-54047Y23984D01*
X-60000Y9500D02*
X-51548Y17952D01*
X-56749Y17016D02*
X-52797Y20968D01*
X-75500Y14000D02*
X-69351D01*
X138016Y-48016D02*
X146500Y-56500D01*
X115000Y-55000D02*
X121984Y-48016D01*
X138016D01*
X146500Y-85000D02*
Y-56500D01*
X-60000Y2000D02*
Y9500D01*
X-100000Y2000D02*
Y9500D01*
X-80000Y2000D02*
Y9500D01*
X-75500Y14000D01*
X95325Y170446D02*
Y173941D01*
X92309Y162441D02*
Y172691D01*
X95325Y170446D02*
X97500Y168271D01*
X92309Y162441D02*
X92500Y162250D01*
X60421Y221421D02*
X61421D01*
X55272D02*
X60421D01*
X56929Y217929D02*
X60421Y221421D01*
X28750Y214820D02*
X29922Y215992D01*
X28750Y214000D02*
Y214820D01*
X25750Y211000D02*
X28750Y214000D01*
X25000Y211000D02*
X25750D01*
X61421Y221421D02*
X66000Y226000D01*
X43000Y209000D02*
X44000D01*
X37032Y214968D02*
X43000Y209000D01*
X51835Y217984D02*
X55272Y221421D01*
X34916Y214968D02*
X37032D01*
X36165Y217984D02*
X51835D01*
X33892Y215992D02*
X34916Y214968D01*
X35141Y219008D02*
X36165Y217984D01*
X29922Y215992D02*
X33892D01*
X29922Y219008D02*
X35141D01*
X28750Y220180D02*
X29922Y219008D01*
X28750Y220180D02*
Y221000D01*
X25750Y224000D02*
X28750Y221000D01*
X25000Y224000D02*
X25750D01*
X49648Y192362D02*
X51070D01*
X47286Y190000D02*
X49648Y192362D01*
X51070D02*
X52242Y193534D01*
X53968Y201725D02*
Y203968D01*
X52242Y199999D02*
X53968Y201725D01*
X52242Y193534D02*
Y199999D01*
X44000Y209000D02*
X47860Y205140D01*
X52796D01*
X53968Y203968D01*
X55258Y193534D02*
Y198750D01*
Y193534D02*
X56430Y192362D01*
X56929Y205272D02*
Y217929D01*
X56984Y200476D02*
Y205217D01*
X56929Y205272D02*
X56984Y205217D01*
X56430Y192362D02*
X57852D01*
X60214Y190000D01*
X55258Y198750D02*
X56984Y200476D01*
X52242Y182525D02*
Y186466D01*
X51070Y187638D02*
X52242Y186466D01*
X47286Y190000D02*
X49648Y187638D01*
X56430D02*
X57852D01*
X49648D02*
X51070D01*
X57852D02*
X60214Y190000D01*
X55258Y186466D02*
X56430Y187638D01*
X97500Y162250D02*
Y168271D01*
X134450Y39450D02*
X140000Y45000D01*
X134450Y23815D02*
Y39450D01*
X140000Y45000D02*
Y45214D01*
X120000D02*
X121750Y43464D01*
Y23815D02*
Y43464D01*
X112500Y72000D02*
Y77750D01*
X108500Y-84250D02*
X115000Y-77750D01*
Y-55000D01*
X108500Y-85750D02*
Y-84250D01*
X97500Y-94000D02*
X100250D01*
X108500Y-85750D01*
X65857Y-95643D02*
X94143D01*
X95000Y-96500D02*
X97500Y-94000D01*
X65000Y-94786D02*
X65857Y-95643D01*
X94143D02*
X95000Y-96500D01*
X163500Y90000D02*
Y90750D01*
D15*
X25295Y127545D02*
X41298Y143548D01*
X17500Y127500D02*
X17545Y127545D01*
X25295D01*
X28134Y137500D02*
X36266Y145632D01*
X29039Y141964D02*
X33750Y146674D01*
X18037Y141964D02*
X29039D01*
X26819Y132627D02*
X38782Y144590D01*
X33750Y146674D02*
Y149939D01*
X76552Y147269D02*
X80533Y151250D01*
X81869D02*
X87500Y156881D01*
Y162250D01*
X80533Y151250D02*
X81869D01*
X75510Y149785D02*
X82500Y156776D01*
X70000Y147250D02*
X75250D01*
X75269Y147269D02*
X76552D01*
X75250Y147250D02*
X75269Y147269D01*
X82500Y156776D02*
Y162250D01*
X65273Y149785D02*
X75510D01*
X46485Y152000D02*
X59500D01*
X44401Y157032D02*
X61584D01*
X43561Y159750D02*
X53250D01*
X36266Y145632D02*
Y148897D01*
X45443Y154516D02*
X60542D01*
X41298Y146813D02*
X46485Y152000D01*
X41298Y143548D02*
Y146813D01*
X33750Y149939D02*
X43561Y159750D01*
X36266Y148897D02*
X44401Y157032D01*
X38782Y144590D02*
Y147855D01*
X45443Y154516D01*
X65000Y135000D02*
X70000Y140000D01*
X59500Y152000D02*
X64250Y147250D01*
X60542Y154516D02*
X65273Y149785D01*
X66315Y152302D02*
X73274D01*
X64250Y147250D02*
X70000D01*
X61584Y157032D02*
X66315Y152302D01*
X70000Y140000D02*
Y147250D01*
X77160Y161910D02*
X77500Y162250D01*
X73274Y152302D02*
X77160Y156187D01*
X53250Y159750D02*
X66000Y172500D01*
X77160Y156187D02*
Y161910D01*
X17500Y142500D02*
X18037Y141964D01*
X17627Y132627D02*
X26819D01*
X17500Y132500D02*
X17627Y132627D01*
X66000Y172500D02*
X71328D01*
X72500Y171328D01*
Y162250D02*
Y171328D01*
X72500Y162250D02*
X72500Y162250D01*
X17500Y137500D02*
X28134D01*
D18*
X-77500Y102500D02*
D03*
X-72500D02*
D03*
X-67500D02*
D03*
X-62500D02*
D03*
X-57500D02*
D03*
X-52500D02*
D03*
X-47500D02*
D03*
X-42500D02*
D03*
X-37500D02*
D03*
X-32500D02*
D03*
X-27500D02*
D03*
X-22500D02*
D03*
X-17500D02*
D03*
X-12500D02*
D03*
X-7500D02*
D03*
X-2500D02*
D03*
Y217500D02*
D03*
X-7500D02*
D03*
X-12500D02*
D03*
X-17500D02*
D03*
X-22500D02*
D03*
X-27500D02*
D03*
X-32500D02*
D03*
X-37500D02*
D03*
X-42500D02*
D03*
X-47500D02*
D03*
X-52500D02*
D03*
X-57500D02*
D03*
X-62500D02*
D03*
X-67500D02*
D03*
X-72500D02*
D03*
X-77500D02*
D03*
D19*
X17500Y122500D02*
D03*
Y147500D02*
D03*
Y152500D02*
D03*
Y157500D02*
D03*
Y162500D02*
D03*
Y167500D02*
D03*
Y172500D02*
D03*
Y177500D02*
D03*
Y182500D02*
D03*
Y187500D02*
D03*
Y192500D02*
D03*
Y197500D02*
D03*
X-97500D02*
D03*
Y192500D02*
D03*
Y187500D02*
D03*
Y182500D02*
D03*
Y177500D02*
D03*
Y172500D02*
D03*
Y167500D02*
D03*
Y162500D02*
D03*
Y157500D02*
D03*
Y152500D02*
D03*
Y147500D02*
D03*
Y142500D02*
D03*
Y137500D02*
D03*
Y132500D02*
D03*
Y127500D02*
D03*
Y122500D02*
D03*
X17500Y127500D02*
D03*
Y132500D02*
D03*
Y137500D02*
D03*
Y142500D02*
D03*
D20*
X-170000Y-91000D02*
D03*
Y-104000D02*
D03*
X-80000Y31000D02*
D03*
Y44000D02*
D03*
X-95000Y31000D02*
D03*
Y44000D02*
D03*
X67500Y56500D02*
D03*
Y43500D02*
D03*
X52500Y56500D02*
D03*
Y43500D02*
D03*
X95000Y-96500D02*
D03*
Y-83500D02*
D03*
X80000Y-96500D02*
D03*
Y-83500D02*
D03*
X97500Y56500D02*
D03*
Y43500D02*
D03*
X82500Y56500D02*
D03*
Y43500D02*
D03*
X25000Y224000D02*
D03*
Y211000D02*
D03*
D21*
X-106000Y100000D02*
D03*
X-119000D02*
D03*
Y85000D02*
D03*
X-106000D02*
D03*
X-94000D02*
D03*
X-81000D02*
D03*
X-206500Y-95000D02*
D03*
X-193500D02*
D03*
X163500Y105000D02*
D03*
X176500D02*
D03*
X163500Y90000D02*
D03*
X176500D02*
D03*
X133500Y-85000D02*
D03*
X146500D02*
D03*
X108500D02*
D03*
X121500D02*
D03*
X151500Y75000D02*
D03*
X138500D02*
D03*
D22*
X-135000Y42150D02*
D03*
X-130000D02*
D03*
X-125000D02*
D03*
X-120000D02*
D03*
X-115000D02*
D03*
X-135000Y67850D02*
D03*
X-130000D02*
D03*
X-125000D02*
D03*
X-120000D02*
D03*
X-115000D02*
D03*
D23*
X-125000Y55000D02*
D03*
D24*
X41250Y-143743D02*
D03*
X53750D02*
D03*
X66250D02*
D03*
X78750D02*
D03*
X91250D02*
D03*
X103750D02*
D03*
X116250D02*
D03*
X128750D02*
D03*
D25*
X217150Y-57150D02*
D03*
X182850D02*
D03*
X217150Y-44450D02*
D03*
X182850D02*
D03*
X217150Y-31750D02*
D03*
X182850D02*
D03*
X217150Y-19050D02*
D03*
X182850D02*
D03*
X217150Y-6350D02*
D03*
X182850D02*
D03*
X217150Y6350D02*
D03*
X182850D02*
D03*
X217150Y19050D02*
D03*
X182850D02*
D03*
X217150Y31750D02*
D03*
X182850D02*
D03*
X217150Y44450D02*
D03*
X182850D02*
D03*
X217150Y57150D02*
D03*
X182850D02*
D03*
X-182850Y-57150D02*
D03*
X-217150D02*
D03*
X-182850Y-44450D02*
D03*
X-217150D02*
D03*
X-182850Y-31750D02*
D03*
X-217150D02*
D03*
X-182850Y-19050D02*
D03*
X-217150D02*
D03*
X-182850Y-6350D02*
D03*
X-217150D02*
D03*
X-182850Y6350D02*
D03*
X-217150D02*
D03*
X-182850Y19050D02*
D03*
X-217150D02*
D03*
X-182850Y31750D02*
D03*
X-217150D02*
D03*
X-182850Y44450D02*
D03*
X-217150D02*
D03*
X-182850Y57150D02*
D03*
X-217150D02*
D03*
D26*
X66000Y226000D02*
D03*
X44000D02*
D03*
Y209000D02*
D03*
X66000D02*
D03*
X-9000Y36500D02*
D03*
X-31000D02*
D03*
Y53500D02*
D03*
X-9000D02*
D03*
D27*
X-185530Y-141241D02*
D03*
X-180206Y-137513D02*
D03*
X-174881Y-133785D02*
D03*
X-169557Y-130057D02*
D03*
X-184470Y-108759D02*
D03*
X-189794Y-112487D02*
D03*
X-195119Y-116215D02*
D03*
X-200443Y-119943D02*
D03*
D28*
X-166080Y-147255D02*
D03*
X-173920Y-152745D02*
D03*
D29*
X-95000Y57714D02*
D03*
Y67286D02*
D03*
X-80000Y57714D02*
D03*
Y67286D02*
D03*
X-50000D02*
D03*
Y57714D02*
D03*
X-155000Y54786D02*
D03*
Y45214D02*
D03*
X-65000Y57714D02*
D03*
Y67286D02*
D03*
X140000Y45214D02*
D03*
Y54786D02*
D03*
X120000Y45214D02*
D03*
Y54786D02*
D03*
X65000Y-85214D02*
D03*
Y-94786D02*
D03*
D30*
X52750Y92500D02*
D03*
Y97500D02*
D03*
Y102500D02*
D03*
Y107500D02*
D03*
Y112500D02*
D03*
Y117500D02*
D03*
Y122500D02*
D03*
Y127500D02*
D03*
Y132500D02*
D03*
Y137500D02*
D03*
Y142500D02*
D03*
Y147500D02*
D03*
X137250D02*
D03*
Y142500D02*
D03*
Y137500D02*
D03*
Y132500D02*
D03*
Y127500D02*
D03*
Y122500D02*
D03*
Y117500D02*
D03*
Y112500D02*
D03*
Y107500D02*
D03*
Y102500D02*
D03*
Y97500D02*
D03*
Y92500D02*
D03*
D31*
X67500Y162250D02*
D03*
X72500D02*
D03*
X77500D02*
D03*
X82500D02*
D03*
X87500D02*
D03*
X92500D02*
D03*
X97500D02*
D03*
X102500D02*
D03*
X107500D02*
D03*
X112500D02*
D03*
X117500D02*
D03*
X122500D02*
D03*
Y77750D02*
D03*
X117500D02*
D03*
X112500D02*
D03*
X107500D02*
D03*
X102500D02*
D03*
X97500D02*
D03*
X82500D02*
D03*
X77500D02*
D03*
X92500D02*
D03*
X87500D02*
D03*
X72500D02*
D03*
X67500D02*
D03*
D32*
X-154786Y25000D02*
D03*
X-145214D02*
D03*
X-34786Y70000D02*
D03*
X-25214D02*
D03*
X-5214D02*
D03*
X-14786D02*
D03*
X37714Y190000D02*
D03*
X47286D02*
D03*
X69786D02*
D03*
X60214D02*
D03*
D33*
X45550Y23815D02*
D03*
X58250D02*
D03*
X45550Y-63815D02*
D03*
X58250D02*
D03*
X134450Y23815D02*
D03*
X121750D02*
D03*
X109050D02*
D03*
X70950D02*
D03*
Y-63815D02*
D03*
X109050D02*
D03*
X121750D02*
D03*
X134450D02*
D03*
D34*
X105000Y178750D02*
D03*
Y211250D02*
D03*
X-135000Y191250D02*
D03*
Y158750D02*
D03*
D35*
X132000Y189500D02*
D03*
X148000D02*
D03*
X132000Y180500D02*
D03*
X148000D02*
D03*
X197000Y99500D02*
D03*
X213000D02*
D03*
X197000Y90500D02*
D03*
X213000D02*
D03*
X198000Y120500D02*
D03*
X182000D02*
D03*
X198000Y129500D02*
D03*
X182000D02*
D03*
X178000Y150500D02*
D03*
X162000D02*
D03*
X178000Y159500D02*
D03*
X162000D02*
D03*
D36*
X-53375Y37500D02*
D03*
X-61625D02*
D03*
D37*
X-140000Y2000D02*
D03*
X-120000D02*
D03*
X-100000D02*
D03*
X-80000D02*
D03*
X-60000D02*
D03*
X-40000D02*
D03*
X-20000D02*
D03*
X0D02*
D03*
Y-152000D02*
D03*
X-20000D02*
D03*
X-40000D02*
D03*
X-60000D02*
D03*
X-80000D02*
D03*
X-100000D02*
D03*
X-120000D02*
D03*
D38*
X-140000Y-151000D02*
D03*
D54*
X22750Y-175743D02*
D03*
X147250D02*
D03*
D55*
X94000Y204000D02*
X121000D01*
X80000Y218000D02*
X94000Y204000D01*
X100000Y212500D02*
Y217500D01*
X122500Y142500D02*
X127500Y137500D01*
X137250D01*
X-85000Y122500D02*
X-84459D01*
X-97500D02*
X-85000D01*
X-84459D02*
X-83459Y121500D01*
X-21000D01*
X-7500Y135000D01*
X-9000Y126500D02*
Y132959D01*
Y126500D02*
X-2500Y120000D01*
X-77500Y207031D02*
Y217500D01*
Y207031D02*
X-75000Y204531D01*
Y204138D02*
Y204531D01*
X-2500Y102500D02*
Y120000D01*
X-180369Y-129201D02*
X-175786Y-133785D01*
X-186959Y-130000D02*
X-186160Y-129201D01*
X-175786Y-133785D02*
X-174881D01*
X-186160Y-129201D02*
X-180369D01*
X-187500Y-130000D02*
X-186959D01*
X172757Y125000D02*
X176257Y121500D01*
X172500Y125000D02*
X172757D01*
X98250Y-81000D02*
X107756Y-71494D01*
Y-65109D01*
X109050Y-63815D01*
X98250Y-81000D02*
Y-81000D01*
X95750Y-83500D02*
X98250Y-81000D01*
X-77500Y102500D02*
Y112500D01*
X122500Y132500D02*
X137250D01*
X181000Y121500D02*
X182000Y120500D01*
X176257Y121500D02*
X181000D01*
X-172961Y-137324D02*
X-167099Y-145695D01*
X-174881Y-133785D02*
X-172961Y-137324D01*
X-167099Y-145695D02*
X-166080Y-147255D01*
X-170000Y-104000D02*
X-169143Y-103143D01*
X15000Y197524D02*
X15024Y197500D01*
X17500D01*
X15000Y197524D02*
Y207714D01*
X2757Y182500D02*
X17500D01*
X0Y180000D02*
X257D01*
X2757Y182500D01*
X0Y170000D02*
X7500Y177500D01*
X17500D01*
X117500Y85000D02*
X122500Y90000D01*
X117500Y77750D02*
Y85000D01*
X102500Y87500D02*
X102500Y87500D01*
X102500Y77750D02*
Y87500D01*
X82500Y77750D02*
Y87500D01*
X107500Y150500D02*
X110000Y148000D01*
X107500Y150500D02*
Y162250D01*
X110000Y147500D02*
Y148000D01*
X70950Y-75200D02*
X79250Y-83500D01*
X70950Y-75200D02*
Y-63815D01*
X79250Y-83500D02*
X80000D01*
X100000Y212500D02*
X105000Y211250D01*
X121000Y204000D02*
X130000Y195000D01*
X174472Y134500D02*
Y134500D01*
X181000Y130500D02*
X182000Y129500D01*
X178472Y130500D02*
X181000D01*
X174472Y134500D02*
X178472Y130500D01*
X127500Y127500D02*
X137250D01*
X122500Y112500D02*
X137250D01*
X122500Y122500D02*
X127500Y127500D01*
X122500Y112500D02*
X122500Y112500D01*
X130000Y190500D02*
X131000Y189500D01*
X132000D01*
X130000Y190500D02*
Y195000D01*
X213000Y90500D02*
Y99500D01*
X129500Y102500D02*
X129500Y102500D01*
X137250D01*
X122500Y102500D02*
X129500D01*
X95000Y-83500D02*
X95750D01*
X176500Y104250D02*
X181250Y99500D01*
X197000D01*
X176500Y104250D02*
Y105000D01*
X176750Y90250D02*
X196750D01*
X197000Y90500D01*
X176500Y90000D02*
X176750Y90250D01*
D56*
X-160000Y5000D02*
X-153709Y11291D01*
X-162500Y5000D02*
X-160000D01*
X-153709Y11291D02*
Y24138D01*
X-154571Y25000D02*
X-153709Y24138D01*
X-154786Y25000D02*
X-154571D01*
D57*
X85000Y-170000D02*
D03*
X115000D02*
D03*
D58*
X200000Y-73050D02*
D03*
Y73050D02*
D03*
X-200000Y-73050D02*
D03*
Y73050D02*
D03*
X200000Y-73050D02*
D03*
Y73050D02*
D03*
X-200000Y-73050D02*
D03*
Y73050D02*
D03*
D59*
X-134714Y130285D02*
D03*
D60*
X-155143Y82072D02*
D03*
X-165286Y89715D02*
D03*
X-147500Y92214D02*
D03*
X-157643Y99857D02*
D03*
X-139857Y102357D02*
D03*
X-150000Y110000D02*
D03*
X-132214Y112500D02*
D03*
X-142357Y120143D02*
D03*
X-124571Y122642D02*
D03*
D61*
X80000Y117500D02*
D03*
X66000Y162250D02*
D03*
X27500Y122500D02*
D03*
X40000Y114968D02*
D03*
Y135000D02*
D03*
X27500Y147500D02*
D03*
X82500Y187500D02*
D03*
X-22335Y193829D02*
D03*
X-45000Y230016D02*
D03*
X147000Y160000D02*
D03*
X140000Y162500D02*
D03*
X132500D02*
D03*
X-45262Y162762D02*
D03*
X-50000Y167500D02*
D03*
X-40000D02*
D03*
X-35000Y162500D02*
D03*
X-74000Y127000D02*
D03*
X-37500Y112500D02*
D03*
X-47500D02*
D03*
X-27500D02*
D03*
X-18000Y86000D02*
D03*
X-40096Y-17500D02*
D03*
X-110000Y202500D02*
D03*
X-75000Y187500D02*
D03*
X-86000Y194000D02*
D03*
X-77500Y180000D02*
D03*
X72500Y135000D02*
D03*
X82500Y146500D02*
D03*
X65000Y90000D02*
D03*
X32000Y157000D02*
D03*
X-124000Y146043D02*
D03*
X137500Y-132500D02*
D03*
X89984Y-57000D02*
D03*
X-147143Y-115000D02*
D03*
Y-122036D02*
D03*
X-34786Y70000D02*
D03*
X37500Y101500D02*
D03*
X22500Y101500D02*
D03*
X20000Y10000D02*
D03*
X22000Y48500D02*
D03*
X70000Y-45000D02*
D03*
X-85000Y-35000D02*
D03*
Y-27500D02*
D03*
X65000Y135000D02*
D03*
X-81000Y128000D02*
D03*
X-75000Y160000D02*
D03*
X-177500D02*
D03*
X-207500Y122500D02*
D03*
X-215000Y70000D02*
D03*
X-200000Y87500D02*
D03*
X-212500D02*
D03*
X-172500Y125000D02*
D03*
X-180000Y130000D02*
D03*
X-190000Y137500D02*
D03*
X-181611Y138389D02*
D03*
X-164179Y119179D02*
D03*
X-107090Y157500D02*
D03*
X-107500Y137500D02*
D03*
Y147500D02*
D03*
X-155000Y180000D02*
D03*
X80000Y218000D02*
D03*
X90000Y222500D02*
D03*
X100000Y217500D02*
D03*
X207484Y95500D02*
D03*
X166000Y135000D02*
D03*
X122500Y142500D02*
D03*
X132500Y-114984D02*
D03*
X130000Y-107500D02*
D03*
X141000Y-108000D02*
D03*
X109000Y-95000D02*
D03*
X93000Y-106000D02*
D03*
X102500Y-131234D02*
D03*
X-107469Y167500D02*
D03*
X160000Y181000D02*
D03*
X-32500Y92500D02*
D03*
X-42500D02*
D03*
X-2361Y127639D02*
D03*
X-13641Y92500D02*
D03*
X-75000Y204138D02*
D03*
X-7500Y135000D02*
D03*
X150000Y137000D02*
D03*
X166000Y142000D02*
D03*
X22500Y60000D02*
D03*
X86500Y20000D02*
D03*
X73332Y24582D02*
D03*
X75000Y-50000D02*
D03*
X83000Y-121000D02*
D03*
X86035Y-51035D02*
D03*
X87543Y-33207D02*
D03*
X80000Y-105000D02*
D03*
X60000D02*
D03*
X73500Y-10000D02*
D03*
X102500Y-140000D02*
D03*
X95000D02*
D03*
X-170000Y-104000D02*
D03*
X-187500Y-130000D02*
D03*
X60000Y70000D02*
D03*
X37500Y46500D02*
D03*
X130000Y50000D02*
D03*
X172500Y125000D02*
D03*
X-107500Y100000D02*
D03*
X-130000Y171000D02*
D03*
X-87500Y152500D02*
D03*
X-27500Y145000D02*
D03*
X100000Y-70000D02*
D03*
X101000Y-55000D02*
D03*
Y-40000D02*
D03*
X-35032Y-30000D02*
D03*
X7500Y-102500D02*
D03*
X125000Y-127500D02*
D03*
X-45016Y45000D02*
D03*
X45000Y167500D02*
D03*
X-30000D02*
D03*
X-44968Y30000D02*
D03*
Y37500D02*
D03*
X-77500Y112500D02*
D03*
X-25000Y162500D02*
D03*
X-22500Y92500D02*
D03*
X-87451Y172560D02*
D03*
X-109984Y-17500D02*
D03*
X-87500Y165000D02*
D03*
X-85000Y-17500D02*
D03*
X-120000Y-127500D02*
D03*
X65000Y142500D02*
D03*
X-60000Y194000D02*
D03*
X27500Y162500D02*
D03*
X30000Y177500D02*
D03*
X122500Y132500D02*
D03*
X172490Y117490D02*
D03*
X164000Y125000D02*
D03*
X37500Y71500D02*
D03*
X140000Y65000D02*
D03*
X97500Y42500D02*
D03*
X82500Y42500D02*
D03*
X-56000Y-21000D02*
D03*
X-105639Y47060D02*
D03*
X-81000Y85000D02*
D03*
X-107500Y110000D02*
D03*
X-165000Y-80000D02*
D03*
X-109000Y52623D02*
D03*
X-75000Y136000D02*
D03*
X-87500Y132500D02*
D03*
Y142500D02*
D03*
X-162500Y5000D02*
D03*
Y12500D02*
D03*
Y20000D02*
D03*
X-130000Y-130000D02*
D03*
X-65000Y-27500D02*
D03*
Y-35000D02*
D03*
Y-20000D02*
D03*
X-20000Y230016D02*
D03*
X-27500Y230000D02*
D03*
X-12500D02*
D03*
X-5000D02*
D03*
X2500D02*
D03*
X110000Y-124786D02*
D03*
X147500Y-152500D02*
D03*
Y-145000D02*
D03*
X-32400Y-126600D02*
D03*
X-109400D02*
D03*
X-127500Y92500D02*
D03*
X34750Y-176500D02*
D03*
X22500Y71500D02*
D03*
X20000Y-5000D02*
D03*
Y2500D02*
D03*
X37500Y29500D02*
D03*
X-157500Y122500D02*
D03*
X-7500Y-121500D02*
D03*
X-161178Y162120D02*
D03*
X-85000Y122500D02*
D03*
X15000Y207714D02*
D03*
X0Y180000D02*
D03*
Y170000D02*
D03*
X-137500Y75000D02*
D03*
X-145000D02*
D03*
X210000Y-93500D02*
D03*
X102500Y122500D02*
D03*
X122500Y90000D02*
D03*
X102500Y87500D02*
D03*
X82500D02*
D03*
X110000Y147500D02*
D03*
X109050Y31181D02*
D03*
X67500Y42500D02*
D03*
X52500Y42500D02*
D03*
X159000Y15000D02*
D03*
X101000Y-10000D02*
D03*
X10000Y-22500D02*
D03*
X-5000Y12500D02*
D03*
Y5000D02*
D03*
Y-2500D02*
D03*
X80000Y-75000D02*
D03*
X-145000Y5000D02*
D03*
X-135000D02*
D03*
X-145000Y15000D02*
D03*
X-135000D02*
D03*
X-130000Y50000D02*
D03*
Y60000D02*
D03*
X-120000Y50000D02*
D03*
Y60000D02*
D03*
X37500Y-86500D02*
D03*
X31000D02*
D03*
X24000D02*
D03*
X17500D02*
D03*
X37500Y-93500D02*
D03*
X31000D02*
D03*
X24000D02*
D03*
X17500D02*
D03*
X-157500Y-155000D02*
D03*
X-189357Y144787D02*
D03*
X122500Y180000D02*
D03*
X170000Y75000D02*
D03*
X177500D02*
D03*
X174472Y134500D02*
D03*
X122500Y122500D02*
D03*
Y112500D02*
D03*
X127500Y-53016D02*
D03*
X100000Y193500D02*
D03*
X-165000Y127500D02*
D03*
X-80000Y-152000D02*
D03*
X-98400Y-122600D02*
D03*
X-43400Y-126600D02*
D03*
X-65400D02*
D03*
X-100000Y-147500D02*
D03*
Y-155000D02*
D03*
X-54400Y-128600D02*
D03*
X130000Y-15000D02*
D03*
X-135000Y191250D02*
D03*
X185000Y75000D02*
D03*
X122500Y102500D02*
D03*
X142500Y0D02*
D03*
X137500Y5000D02*
D03*
X147500D02*
D03*
Y-5000D02*
D03*
X137500D02*
D03*
X148000Y180500D02*
D03*
Y189500D02*
D03*
X198000Y129500D02*
D03*
Y120500D02*
D03*
X178000Y159500D02*
D03*
Y150500D02*
D03*
D62*
X-213650Y57150D02*
D03*
X-186350D02*
D03*
X-213650Y44450D02*
D03*
X-186350D02*
D03*
Y19050D02*
D03*
X-213650D02*
D03*
X-186350Y31750D02*
D03*
X-213650D02*
D03*
X-186350Y-6350D02*
D03*
X-213650D02*
D03*
X-186350Y6350D02*
D03*
X-213650D02*
D03*
X-186350Y-31750D02*
D03*
X-213650D02*
D03*
X-186350Y-19050D02*
D03*
X-213650D02*
D03*
X-186350Y-57150D02*
D03*
X-213650D02*
D03*
X-186350Y-44450D02*
D03*
X-213650D02*
D03*
X186350D02*
D03*
X213650D02*
D03*
X186350Y-57150D02*
D03*
X213650D02*
D03*
X186350Y-19050D02*
D03*
X213650D02*
D03*
X186350Y-31750D02*
D03*
X213650D02*
D03*
X186350Y6350D02*
D03*
X213650D02*
D03*
X186350Y-6350D02*
D03*
X213650D02*
D03*
X186350Y31750D02*
D03*
X213650D02*
D03*
X186350Y19050D02*
D03*
X213650D02*
D03*
Y44450D02*
D03*
X186350D02*
D03*
X213650Y57150D02*
D03*
X186350D02*
D03*
M02*
