G04*
G04 #@! TF.GenerationSoftware,Altium Limited,Altium Designer,24.4.1 (13)*
G04*
G04 Layer_Physical_Order=3*
G04 Layer_Color=16440176*
%FSLAX44Y44*%
%MOMM*%
G71*
G04*
G04 #@! TF.SameCoordinates,80C5A69E-986F-416B-A988-7B454DC68AB1*
G04*
G04*
G04 #@! TF.FilePolarity,Positive*
G04*
G01*
G75*
%ADD12C,0.2000*%
%ADD55C,0.3000*%
%ADD56C,0.5000*%
%ADD57C,2.0000*%
%ADD58C,1.4000*%
%ADD59P,1.4991X4X98.0*%
%ADD60C,1.0600*%
%ADD61C,0.5000*%
%ADD62C,0.7000*%
%ADD64C,0.2000*%
%ADD65C,0.7500*%
G36*
X10882Y247833D02*
X25694Y246738D01*
X40413Y244758D01*
X54988Y241901D01*
X69366Y238177D01*
X83495Y233599D01*
X97324Y228184D01*
X110805Y221950D01*
X123889Y214921D01*
X136528Y207123D01*
X148679Y198581D01*
X160296Y189328D01*
X171339Y179396D01*
X181767Y168821D01*
X191544Y157640D01*
X200634Y145896D01*
X209006Y133627D01*
X216628Y120881D01*
X223474Y107700D01*
X223712Y107165D01*
X223020Y106100D01*
X160000D01*
X159222Y105778D01*
X158900Y105000D01*
Y60000D01*
X159222Y59222D01*
X160000Y58900D01*
X182129D01*
X182906Y59222D01*
X184141Y60457D01*
X185574Y61050D01*
X187126D01*
X188559Y60457D01*
X189793Y59222D01*
X190571Y58900D01*
X198900D01*
Y-8900D01*
X189771D01*
X188993Y-9222D01*
X188559Y-9657D01*
X187126Y-10250D01*
X185574D01*
X184141Y-9657D01*
X183706Y-9222D01*
X182929Y-8900D01*
X180000D01*
X179222Y-9222D01*
X178900Y-10000D01*
Y-65000D01*
X179222Y-65778D01*
X180000Y-66100D01*
X191927D01*
X192310Y-67370D01*
X191147Y-69383D01*
X190500Y-71799D01*
Y-74301D01*
X191147Y-76717D01*
X192398Y-78883D01*
X194167Y-80652D01*
X196333Y-81903D01*
X198749Y-82550D01*
X201251D01*
X203667Y-81903D01*
X205833Y-80652D01*
X207602Y-78883D01*
X208853Y-76717D01*
X209500Y-74301D01*
Y-71799D01*
X208853Y-69383D01*
X207690Y-67370D01*
X208073Y-66100D01*
X237971D01*
X238747Y-67105D01*
X238222Y-69103D01*
X234363Y-81236D01*
X229886Y-93154D01*
X224803Y-104827D01*
X219128Y-116223D01*
X212876Y-127314D01*
X206063Y-138069D01*
X198708Y-148460D01*
X190828Y-158461D01*
X182446Y-168043D01*
X173584Y-177183D01*
X168974Y-181473D01*
X167113Y-182983D01*
X162862Y-185438D01*
X158264Y-187111D01*
X153446Y-187961D01*
X151000Y-187961D01*
X9216D01*
X7678Y-187655D01*
X6229Y-187055D01*
X4925Y-186184D01*
X3816Y-185075D01*
X2945Y-183771D01*
X2345Y-182322D01*
X2039Y-180784D01*
Y-180000D01*
X2029Y-179950D01*
X2037Y-179900D01*
X1988Y-178920D01*
X1952Y-178773D01*
X1952Y-178622D01*
X1569Y-176700D01*
X1492Y-176514D01*
X1453Y-176317D01*
X703Y-174506D01*
X591Y-174339D01*
X514Y-174154D01*
X-575Y-172524D01*
X-717Y-172382D01*
X-829Y-172215D01*
X-2215Y-170829D01*
X-2382Y-170718D01*
X-2524Y-170576D01*
X-4154Y-169487D01*
X-4339Y-169410D01*
X-4506Y-169298D01*
X-6317Y-168548D01*
X-6514Y-168509D01*
X-6700Y-168432D01*
X-8622Y-168050D01*
X-8773Y-168050D01*
X-8920Y-168013D01*
X-9900Y-167966D01*
X-9950Y-167973D01*
X-10000Y-167963D01*
X-169750Y-167961D01*
X-171276Y-167961D01*
X-174312Y-167629D01*
X-177292Y-166968D01*
X-180183Y-165986D01*
X-182950Y-164696D01*
X-185560Y-163112D01*
X-187983Y-161254D01*
X-190188Y-159142D01*
X-191161Y-157982D01*
X-195862Y-152243D01*
X-204624Y-140245D01*
X-212650Y-127748D01*
X-219914Y-114794D01*
X-226389Y-101428D01*
X-232054Y-87698D01*
X-236886Y-73654D01*
X-240869Y-59346D01*
X-243989Y-44825D01*
X-246234Y-30144D01*
X-247596Y-15355D01*
X-248072Y-510D01*
X-247658Y14336D01*
X-246356Y29131D01*
X-244171Y43822D01*
X-241111Y58355D01*
X-237187Y72679D01*
X-232412Y86743D01*
X-226805Y100496D01*
X-220384Y113889D01*
X-213174Y126873D01*
X-205199Y139403D01*
X-202860Y142633D01*
X-201652Y142241D01*
Y134597D01*
X-201652Y134597D01*
X-201496Y133810D01*
X-201050Y133143D01*
X-195453Y127547D01*
X-195453Y127547D01*
X-194787Y127101D01*
X-194000Y126945D01*
X-194000Y126945D01*
X-187851D01*
X-179454Y118547D01*
X-179454Y118546D01*
X-178787Y118101D01*
X-178000Y117944D01*
X-170429D01*
X-170429Y117944D01*
X-169642Y118101D01*
X-169399Y118263D01*
X-169281Y118275D01*
X-168180Y117970D01*
X-167934Y117792D01*
X-167570Y116913D01*
X-166445Y115788D01*
X-164975Y115179D01*
X-163383D01*
X-161913Y115788D01*
X-160788Y116913D01*
X-160311Y118065D01*
X-160138Y118395D01*
X-158909Y118754D01*
X-158296Y118500D01*
X-156704D01*
X-155234Y119109D01*
X-154109Y120234D01*
X-153500Y121704D01*
Y123296D01*
X-154109Y124766D01*
X-155234Y125891D01*
X-156704Y126500D01*
X-158296D01*
X-159766Y125891D01*
X-160101Y125556D01*
X-161178Y126275D01*
X-161000Y126704D01*
Y128296D01*
X-161609Y129766D01*
X-162734Y130891D01*
X-164204Y131500D01*
X-165796D01*
X-167266Y130891D01*
X-168391Y129766D01*
X-168808Y128760D01*
X-170035Y128374D01*
X-170232Y128388D01*
X-170234Y128391D01*
X-171704Y129000D01*
X-173296D01*
X-174766Y128391D01*
X-175101Y128056D01*
X-176178Y128775D01*
X-176000Y129204D01*
Y130796D01*
X-176609Y132266D01*
X-177734Y133391D01*
X-178836Y133848D01*
X-179004Y134227D01*
X-179132Y134958D01*
X-179112Y135232D01*
X-178221Y136123D01*
X-177612Y137593D01*
Y139184D01*
X-177699Y139394D01*
X-167149Y149944D01*
X-127551D01*
X-127025Y148674D01*
X-127391Y148309D01*
X-128000Y146839D01*
Y145247D01*
X-127391Y143777D01*
X-126266Y142652D01*
X-124796Y142043D01*
X-123204D01*
X-121734Y142652D01*
X-120609Y143777D01*
X-120000Y145247D01*
Y146839D01*
X-120609Y148309D01*
X-120975Y148674D01*
X-120448Y149944D01*
X-115851D01*
X-112343Y146436D01*
X-112343Y146436D01*
X-111676Y145990D01*
X-111162Y145888D01*
X-110891Y145234D01*
X-109766Y144109D01*
X-108296Y143500D01*
X-106704D01*
X-105234Y144109D01*
X-104109Y145234D01*
X-103500Y146704D01*
Y148296D01*
X-103864Y149174D01*
X-103128Y150444D01*
X-90978D01*
X-90891Y150234D01*
X-89766Y149109D01*
X-88296Y148500D01*
X-86704D01*
X-85826Y148864D01*
X-84556Y148128D01*
Y146872D01*
X-85826Y146136D01*
X-86704Y146500D01*
X-88296D01*
X-89766Y145891D01*
X-90891Y144766D01*
X-91500Y143296D01*
Y141704D01*
X-90891Y140234D01*
X-91025Y138953D01*
X-140328Y89650D01*
X-141471Y90303D01*
X-141071Y91849D01*
X-141421Y94337D01*
X-141830Y95031D01*
X-141002Y96129D01*
X-140223Y95928D01*
X-137734Y96277D01*
X-135569Y97553D01*
X-134057Y99559D01*
X-133428Y101992D01*
X-133778Y104480D01*
X-134186Y105174D01*
X-133359Y106272D01*
X-132579Y106070D01*
X-130091Y106420D01*
X-127926Y107695D01*
X-126414Y109702D01*
X-125785Y112135D01*
X-126135Y114623D01*
X-126543Y115317D01*
X-125716Y116415D01*
X-124936Y116213D01*
X-122448Y116563D01*
X-120283Y117838D01*
X-118771Y119845D01*
X-118142Y122277D01*
X-118491Y124765D01*
X-119767Y126930D01*
X-121774Y128442D01*
X-124206Y129072D01*
X-126358Y128769D01*
X-127076Y129688D01*
X-127138Y129845D01*
X-125869Y131529D01*
X-135957Y139131D01*
X-143559Y129042D01*
X-133471Y121440D01*
X-132202Y123124D01*
X-132034Y123108D01*
X-130953Y122671D01*
X-130651Y120519D01*
X-130242Y119825D01*
X-131069Y118727D01*
X-131849Y118929D01*
X-134337Y118579D01*
X-136502Y117304D01*
X-138014Y115297D01*
X-138644Y112865D01*
X-138294Y110377D01*
X-137885Y109683D01*
X-138712Y108585D01*
X-139492Y108786D01*
X-141980Y108437D01*
X-144145Y107161D01*
X-145658Y105155D01*
X-146287Y102722D01*
X-145937Y100234D01*
X-145528Y99540D01*
X-146355Y98442D01*
X-147135Y98644D01*
X-149623Y98294D01*
X-150317Y97885D01*
X-151415Y98713D01*
X-151214Y99492D01*
X-151563Y101980D01*
X-152839Y104145D01*
X-154845Y105658D01*
X-157278Y106287D01*
X-159766Y105937D01*
X-161931Y104662D01*
X-163443Y102655D01*
X-164072Y100223D01*
X-163723Y97734D01*
X-163314Y97040D01*
X-164141Y95942D01*
X-164921Y96144D01*
X-167409Y95794D01*
X-169574Y94519D01*
X-171086Y92512D01*
X-171716Y90080D01*
X-171366Y87591D01*
X-170091Y85427D01*
X-168084Y83914D01*
X-165651Y83285D01*
X-163163Y83635D01*
X-162469Y84044D01*
X-161371Y83216D01*
X-161573Y82437D01*
X-161223Y79949D01*
X-159948Y77783D01*
X-157941Y76271D01*
X-155508Y75642D01*
X-153020Y75992D01*
X-150855Y77267D01*
X-149343Y79274D01*
X-149151Y80016D01*
X-146661D01*
X-146409Y78746D01*
X-147266Y78391D01*
X-148391Y77266D01*
X-149000Y75796D01*
Y74204D01*
X-148391Y72734D01*
X-147266Y71609D01*
X-145796Y71000D01*
X-144204D01*
X-142734Y71609D01*
X-142073Y72270D01*
X-141250Y72593D01*
X-140427Y72270D01*
X-139766Y71609D01*
X-138296Y71000D01*
X-136704D01*
X-135848Y71354D01*
X-135129Y70278D01*
X-146166Y59240D01*
X-146612Y58574D01*
X-146769Y57787D01*
X-146769Y57787D01*
Y23638D01*
X-157327Y13080D01*
X-158619Y13584D01*
X-159109Y14766D01*
X-159770Y15427D01*
X-160093Y16250D01*
X-159770Y17073D01*
X-159109Y17734D01*
X-158500Y19204D01*
Y20796D01*
X-159109Y22266D01*
X-160234Y23391D01*
X-161704Y24000D01*
X-163296D01*
X-164766Y23391D01*
X-165891Y22266D01*
X-166500Y20796D01*
Y19204D01*
X-165891Y17734D01*
X-165230Y17073D01*
X-164907Y16250D01*
X-165230Y15427D01*
X-165891Y14766D01*
X-166500Y13296D01*
Y11704D01*
X-166366Y11380D01*
X-167520Y10847D01*
X-168250Y11150D01*
X-184872D01*
X-185355Y11350D01*
X-187345D01*
X-187828Y11150D01*
X-212172D01*
X-212656Y11350D01*
X-214645D01*
X-215128Y11150D01*
X-231750D01*
X-232528Y10828D01*
X-232850Y10050D01*
Y-10050D01*
X-232528Y-10828D01*
X-231750Y-11150D01*
X-215128D01*
X-214645Y-11350D01*
X-212656D01*
X-212172Y-11150D01*
X-187828D01*
X-187345Y-11350D01*
X-185355D01*
X-184872Y-11150D01*
X-168250D01*
X-167472Y-10828D01*
X-167150Y-10050D01*
Y2456D01*
X-165943Y2723D01*
X-165880Y2723D01*
X-164766Y1609D01*
X-163296Y1000D01*
X-161704D01*
X-160234Y1609D01*
X-159109Y2734D01*
X-158500Y4204D01*
Y5796D01*
X-158587Y6006D01*
X-143260Y21333D01*
X-143259Y21334D01*
X-142814Y22000D01*
X-142657Y22787D01*
Y56936D01*
X-126047Y73547D01*
X-126046Y73547D01*
X-125601Y74213D01*
X-125444Y75000D01*
X-125444Y75000D01*
Y89022D01*
X-125234Y89109D01*
X-124109Y90234D01*
X-123500Y91704D01*
Y93296D01*
X-124109Y94766D01*
X-125234Y95891D01*
X-126113Y96255D01*
X-126491Y97673D01*
X-92673Y131491D01*
X-91255Y131113D01*
X-90891Y130234D01*
X-89766Y129109D01*
X-88296Y128500D01*
X-86704D01*
X-85234Y129109D01*
X-84109Y130234D01*
X-83500Y131704D01*
Y133296D01*
X-84109Y134766D01*
X-83975Y136046D01*
X-81047Y138975D01*
X-81046Y138975D01*
X-80601Y139642D01*
X-80444Y140429D01*
X-80444Y140429D01*
Y154571D01*
X-80444Y154571D01*
X-80601Y155358D01*
X-81046Y156025D01*
X-84475Y159453D01*
X-85142Y159899D01*
X-85474Y161260D01*
X-85388Y161545D01*
X-85234Y161609D01*
X-84109Y162734D01*
X-83500Y164204D01*
Y165796D01*
X-84109Y167266D01*
X-84798Y167955D01*
X-85072Y168813D01*
X-84778Y169577D01*
X-84060Y170294D01*
X-83451Y171765D01*
Y173356D01*
X-84060Y174826D01*
X-85186Y175951D01*
X-86656Y176560D01*
X-88247D01*
X-89717Y175951D01*
X-90842Y174826D01*
X-91451Y173356D01*
Y171765D01*
X-90842Y170294D01*
X-90153Y169605D01*
X-89880Y168747D01*
X-90173Y167984D01*
X-90891Y167266D01*
X-91381Y166084D01*
X-92673Y165580D01*
X-104546Y177453D01*
X-105213Y177899D01*
X-106000Y178055D01*
X-106000Y178055D01*
X-125000D01*
X-125787Y177899D01*
X-126453Y177453D01*
X-126454Y177453D01*
X-128994Y174913D01*
X-129204Y175000D01*
X-130796D01*
X-132266Y174391D01*
X-133391Y173266D01*
X-134000Y171796D01*
Y170204D01*
X-133391Y168734D01*
X-132266Y167609D01*
X-130796Y167000D01*
X-129204D01*
X-127734Y167609D01*
X-126609Y168734D01*
X-126000Y170204D01*
Y171796D01*
X-126087Y172006D01*
X-124149Y173944D01*
X-106851D01*
X-105151Y172244D01*
X-105870Y171167D01*
X-106673Y171500D01*
X-108265D01*
X-109735Y170891D01*
X-110860Y169766D01*
X-111469Y168296D01*
Y166704D01*
X-110860Y165234D01*
X-109735Y164109D01*
X-108265Y163500D01*
X-106673D01*
X-105203Y164109D01*
X-104078Y165234D01*
X-103469Y166704D01*
Y168296D01*
X-103802Y169099D01*
X-102725Y169818D01*
X-90053Y157147D01*
X-89995Y156891D01*
X-90106Y155577D01*
X-90162Y155495D01*
X-90891Y154766D01*
X-90978Y154556D01*
X-102718D01*
X-103454Y155826D01*
X-103090Y156704D01*
Y158296D01*
X-103699Y159766D01*
X-104824Y160891D01*
X-106294Y161500D01*
X-107885D01*
X-109356Y160891D01*
X-110481Y159766D01*
X-111090Y158296D01*
Y157681D01*
X-112117Y156990D01*
X-112360Y156941D01*
X-113016Y157072D01*
X-113016Y157072D01*
X-159595D01*
X-159848Y158342D01*
X-158912Y158729D01*
X-157787Y159854D01*
X-157178Y161324D01*
Y162916D01*
X-157787Y164386D01*
X-158912Y165511D01*
X-160382Y166120D01*
X-161974D01*
X-163444Y165511D01*
X-164569Y164386D01*
X-165178Y162916D01*
Y161324D01*
X-164569Y159854D01*
X-163444Y158729D01*
X-162509Y158342D01*
X-162761Y157072D01*
X-169984D01*
X-169984Y157072D01*
X-170771Y156915D01*
X-171437Y156469D01*
X-181065Y146842D01*
X-185878D01*
X-185966Y147052D01*
X-187091Y148178D01*
X-188561Y148786D01*
X-189216D01*
X-189817Y150056D01*
X-187116Y153352D01*
X-183301Y158008D01*
X-182458Y158889D01*
X-182453Y158889D01*
X-182453D01*
X-182453Y158890D01*
X-182452Y158893D01*
X-182450Y158897D01*
X-181661Y159889D01*
X-176194Y165800D01*
X-172986Y169007D01*
X-172954Y168976D01*
X-171894Y170216D01*
X-170977Y171095D01*
X-170974Y171096D01*
X-170968Y171112D01*
X-170973Y171235D01*
X-163139Y178748D01*
X-162165Y179551D01*
X-162157Y179555D01*
X-161262Y180443D01*
X-160117Y181416D01*
X-159284Y180954D01*
X-159000Y180700D01*
Y179204D01*
X-158391Y177734D01*
X-157266Y176609D01*
X-155796Y176000D01*
X-154204D01*
X-152734Y176609D01*
X-151609Y177734D01*
X-151000Y179204D01*
Y180796D01*
X-151609Y182266D01*
X-152734Y183391D01*
X-154204Y184000D01*
X-155118D01*
X-155585Y185270D01*
X-151256Y188950D01*
X-151130Y188936D01*
X-151123Y188939D01*
X-150174Y189771D01*
X-139913Y197486D01*
X-139626Y197655D01*
X-139555Y197643D01*
X-139555Y197643D01*
X-139547Y197646D01*
X-138817Y198132D01*
X-138817Y198132D01*
X-137837Y198889D01*
X-128579Y205019D01*
X-127470Y205644D01*
X-127470Y205645D01*
X-126419Y206357D01*
X-115059Y212937D01*
X-114943Y212902D01*
X-114943D01*
X-114936Y212905D01*
X-113850Y213549D01*
X-111765Y214596D01*
X-103150Y218919D01*
X-101996Y219400D01*
X-101988Y219403D01*
X-100863Y219981D01*
X-89879Y224693D01*
X-88704Y225103D01*
X-88684Y225110D01*
X-88676Y225114D01*
X-87514Y225625D01*
X-77466Y229239D01*
X-76271Y229669D01*
X-75054Y230013D01*
X-75054Y230013D01*
X-74853Y230088D01*
X-73860Y230456D01*
X-72642Y230813D01*
X-62367Y233829D01*
X-61155Y234091D01*
X-60648Y234246D01*
X-59934Y234463D01*
X-48242Y237146D01*
X-47039Y237332D01*
X-47036Y237330D01*
X-47028Y237333D01*
X-45798Y237629D01*
X-35261Y239391D01*
X-34006Y239601D01*
X-32749Y239717D01*
X-32725Y239721D01*
X-31522Y239941D01*
X-31496Y239944D01*
X-30372Y239607D01*
X-29555Y238873D01*
Y233478D01*
X-29766Y233391D01*
X-30891Y232266D01*
X-31500Y230796D01*
Y229204D01*
X-30891Y227734D01*
X-29766Y226609D01*
X-28296Y226000D01*
X-26704D01*
X-25234Y226609D01*
X-24569Y227274D01*
X-23760Y227601D01*
X-22922Y227281D01*
X-22266Y226625D01*
X-20796Y226016D01*
X-19204D01*
X-17734Y226625D01*
X-17078Y227281D01*
X-16240Y227601D01*
X-15431Y227274D01*
X-14766Y226609D01*
X-13296Y226000D01*
X-11704D01*
X-10234Y226609D01*
X-9573Y227270D01*
X-8750Y227593D01*
X-7927Y227270D01*
X-7266Y226609D01*
X-5796Y226000D01*
X-4204D01*
X-2734Y226609D01*
X-2073Y227270D01*
X-1250Y227593D01*
X-427Y227270D01*
X234Y226609D01*
X1704Y226000D01*
X3296D01*
X4766Y226609D01*
X5891Y227734D01*
X6500Y229204D01*
Y230796D01*
X5891Y232266D01*
X4766Y233391D01*
X3296Y234000D01*
X1704D01*
X234Y233391D01*
X-427Y232730D01*
X-1250Y232407D01*
X-2073Y232730D01*
X-2734Y233391D01*
X-4204Y234000D01*
X-5796D01*
X-7266Y233391D01*
X-7927Y232730D01*
X-8750Y232407D01*
X-9573Y232730D01*
X-10234Y233391D01*
X-11704Y234000D01*
X-13296D01*
X-14766Y233391D01*
X-15422Y232735D01*
X-16260Y232415D01*
X-17069Y232741D01*
X-17734Y233407D01*
X-17945Y233494D01*
Y244859D01*
X-18101Y245645D01*
X-18408Y246105D01*
X-18205Y246840D01*
X-17841Y247403D01*
X-3968Y248040D01*
X10882Y247833D01*
D02*
G37*
G36*
X-168250Y-10050D02*
X-231750D01*
Y10050D01*
X-168250D01*
Y-10050D01*
D02*
G37*
G36*
X229518Y94134D02*
X234740Y80230D01*
X239121Y66038D01*
X242644Y51610D01*
X245298Y36997D01*
X247072Y22251D01*
X247961Y7426D01*
Y-0D01*
X247961Y-6366D01*
X247308Y-19080D01*
X246003Y-31744D01*
X244050Y-44326D01*
X241454Y-56789D01*
X239299Y-65000D01*
X205057D01*
X203667Y-64197D01*
X201251Y-63550D01*
X198749D01*
X196333Y-64197D01*
X194943Y-65000D01*
X180000D01*
Y-10000D01*
X182929D01*
X183518Y-10589D01*
X185355Y-11350D01*
X187345D01*
X189182Y-10589D01*
X189771Y-10000D01*
X200000D01*
Y60000D01*
X190571D01*
X189182Y61389D01*
X187345Y62150D01*
X185355D01*
X183518Y61389D01*
X182129Y60000D01*
X160000D01*
Y105000D01*
X224677D01*
X229518Y94134D01*
D02*
G37*
%LPC*%
G36*
X-44204Y234016D02*
X-45796D01*
X-47266Y233407D01*
X-48391Y232282D01*
X-49000Y230812D01*
Y229220D01*
X-48391Y227750D01*
X-47266Y226625D01*
X-45796Y226016D01*
X-44204D01*
X-42734Y226625D01*
X-41609Y227750D01*
X-41000Y229220D01*
Y230812D01*
X-41609Y232282D01*
X-42734Y233407D01*
X-44204Y234016D01*
D02*
G37*
G36*
X90796Y226500D02*
X89204D01*
X87734Y225891D01*
X86609Y224766D01*
X86000Y223296D01*
Y221704D01*
X86609Y220234D01*
X87734Y219109D01*
X89204Y218500D01*
X90796D01*
X92266Y219109D01*
X93391Y220234D01*
X94000Y221704D01*
Y223296D01*
X93391Y224766D01*
X92266Y225891D01*
X90796Y226500D01*
D02*
G37*
G36*
X80796Y222000D02*
X79204D01*
X77734Y221391D01*
X76609Y220266D01*
X76000Y218796D01*
Y217204D01*
X76609Y215734D01*
X77734Y214609D01*
X79204Y214000D01*
X80796D01*
X82266Y214609D01*
X83391Y215734D01*
X84000Y217204D01*
Y218796D01*
X83391Y220266D01*
X82266Y221391D01*
X80796Y222000D01*
D02*
G37*
G36*
X100796Y221500D02*
X99204D01*
X97734Y220891D01*
X96609Y219766D01*
X96000Y218296D01*
Y216704D01*
X96609Y215234D01*
X97734Y214109D01*
X99204Y213500D01*
X100796D01*
X102266Y214109D01*
X103391Y215234D01*
X104000Y216704D01*
Y218296D01*
X103391Y219766D01*
X102266Y220891D01*
X100796Y221500D01*
D02*
G37*
G36*
X15796Y211714D02*
X14204D01*
X12734Y211105D01*
X11609Y209980D01*
X11194Y208978D01*
X9938Y207722D01*
X-73202D01*
X-74204Y208138D01*
X-75796D01*
X-77266Y207529D01*
X-78391Y206403D01*
X-79000Y204933D01*
Y203342D01*
X-78391Y201872D01*
X-77266Y200747D01*
X-75796Y200138D01*
X-74204D01*
X-73202Y200553D01*
X11415D01*
Y177293D01*
X5173Y171051D01*
X3743Y171416D01*
X3391Y172266D01*
X2266Y173391D01*
X796Y174000D01*
X-796D01*
X-2266Y173391D01*
X-3391Y172266D01*
X-4000Y170796D01*
Y169204D01*
X-3391Y167734D01*
X-2266Y166609D01*
X-1416Y166257D01*
X-1051Y164827D01*
X-10035Y155843D01*
X-10812Y154679D01*
X-11085Y153308D01*
Y138287D01*
X-16580Y132793D01*
X-17633Y131216D01*
X-18003Y129357D01*
Y123143D01*
X-17633Y121284D01*
X-16580Y119707D01*
X141Y102987D01*
Y25000D01*
X510Y23140D01*
X1564Y21564D01*
X5855Y17273D01*
X5369Y16100D01*
X0D01*
X-778Y15778D01*
X-1100Y15000D01*
Y-3900D01*
X-1843D01*
X-2621Y-4222D01*
X-3357Y-4959D01*
X-4423Y-5400D01*
X-5577D01*
X-6643Y-4959D01*
X-7379Y-4222D01*
X-8157Y-3900D01*
X-70000D01*
X-70778Y-4222D01*
X-71100Y-5000D01*
Y-40000D01*
X-71040Y-40145D01*
X-71800Y-41415D01*
X-73515D01*
X-81194Y-33736D01*
X-81415Y-33202D01*
Y-29298D01*
X-81000Y-28296D01*
Y-26704D01*
X-81087Y-26494D01*
X-78547Y-23953D01*
X-78547Y-23953D01*
X-78101Y-23287D01*
X-77944Y-22500D01*
Y9165D01*
X-50141Y36968D01*
X-48863Y36450D01*
X-48359Y35234D01*
X-47234Y34109D01*
X-45764Y33500D01*
X-44172D01*
X-42702Y34109D01*
X-41577Y35234D01*
X-40968Y36704D01*
Y38296D01*
X-41577Y39766D01*
X-42256Y40444D01*
X-42584Y41219D01*
X-42272Y42087D01*
X-41625Y42734D01*
X-41016Y44204D01*
Y45796D01*
X-41625Y47266D01*
X-42750Y48391D01*
X-44220Y49000D01*
X-45812D01*
X-47282Y48391D01*
X-48407Y47266D01*
X-49016Y45796D01*
Y44204D01*
X-48929Y43994D01*
X-81454Y11470D01*
X-81674Y11139D01*
X-82944Y11524D01*
Y14511D01*
X-82896Y14752D01*
X-82896Y14752D01*
Y60197D01*
X-48008Y95085D01*
X-46983Y94987D01*
X-46286Y93812D01*
X-46500Y93296D01*
Y91704D01*
X-45891Y90234D01*
X-44766Y89109D01*
X-43296Y88500D01*
X-41704D01*
X-40234Y89109D01*
X-39109Y90234D01*
X-38500Y91704D01*
Y93296D01*
X-38854Y94151D01*
X-37778Y94871D01*
X-36413Y93506D01*
X-36500Y93296D01*
Y91704D01*
X-35891Y90234D01*
X-34766Y89109D01*
X-33296Y88500D01*
X-31704D01*
X-30234Y89109D01*
X-29109Y90234D01*
X-28500Y91704D01*
Y93296D01*
X-29109Y94766D01*
X-30234Y95891D01*
X-31704Y96500D01*
X-33296D01*
X-33506Y96413D01*
X-36047Y98953D01*
X-36713Y99399D01*
X-37500Y99556D01*
X-37500Y99556D01*
X-46143D01*
X-46630Y100729D01*
X-38693Y108665D01*
X-38296Y108500D01*
X-36704D01*
X-35234Y109109D01*
X-34109Y110234D01*
X-33500Y111704D01*
Y113296D01*
X-34109Y114766D01*
X-35234Y115891D01*
X-36704Y116500D01*
X-38296D01*
X-39766Y115891D01*
X-40891Y114766D01*
X-41500Y113296D01*
Y111704D01*
X-41491Y111682D01*
X-42590Y110582D01*
X-43667Y111301D01*
X-43500Y111704D01*
Y113296D01*
X-44109Y114766D01*
X-45234Y115891D01*
X-46704Y116500D01*
X-48296D01*
X-49766Y115891D01*
X-50891Y114766D01*
X-51500Y113296D01*
Y111704D01*
X-50891Y110234D01*
X-49766Y109109D01*
X-48296Y108500D01*
X-46704D01*
X-46301Y108667D01*
X-45582Y107590D01*
X-87803Y65369D01*
X-88976Y65855D01*
Y83117D01*
X-58031Y114062D01*
X-58031Y114062D01*
X-57585Y114729D01*
X-57428Y115516D01*
X-57428Y115516D01*
Y184484D01*
X-57428Y184484D01*
X-57585Y185271D01*
X-58031Y185938D01*
X-58031Y185938D01*
X-60842Y188749D01*
X-60297Y190000D01*
X-59204D01*
X-57734Y190609D01*
X-56609Y191734D01*
X-56000Y193204D01*
Y194796D01*
X-56609Y196266D01*
X-57734Y197391D01*
X-59204Y198000D01*
X-60796D01*
X-62266Y197391D01*
X-63391Y196266D01*
X-64000Y194796D01*
Y193703D01*
X-65251Y193158D01*
X-69546Y197453D01*
X-70213Y197899D01*
X-71000Y198055D01*
X-71000Y198055D01*
X-83328D01*
X-84115Y197899D01*
X-84439Y197683D01*
X-85204Y198000D01*
X-86796D01*
X-88266Y197391D01*
X-89391Y196266D01*
X-90000Y194796D01*
Y193204D01*
X-89636Y192325D01*
X-90372Y191056D01*
X-95649D01*
X-106087Y201494D01*
X-106000Y201704D01*
Y203296D01*
X-106609Y204766D01*
X-107734Y205891D01*
X-109204Y206500D01*
X-110796D01*
X-112266Y205891D01*
X-113391Y204766D01*
X-114000Y203296D01*
Y201704D01*
X-113391Y200234D01*
X-112266Y199109D01*
X-110796Y198500D01*
X-109204D01*
X-108994Y198587D01*
X-97954Y187547D01*
X-97287Y187101D01*
X-96500Y186945D01*
X-96500Y186945D01*
X-83929D01*
X-83929Y186945D01*
X-83142Y187101D01*
X-82476Y187547D01*
X-79985Y190037D01*
X-79636Y190080D01*
X-79380Y189869D01*
X-78891Y188558D01*
X-79000Y188296D01*
Y186704D01*
X-78391Y185234D01*
X-78388Y185232D01*
X-78374Y185035D01*
X-78760Y183808D01*
X-79766Y183391D01*
X-80891Y182266D01*
X-81500Y180796D01*
Y179204D01*
X-80891Y177734D01*
X-79766Y176609D01*
X-78296Y176000D01*
X-76704D01*
X-75234Y176609D01*
X-74109Y177734D01*
X-73500Y179204D01*
Y180796D01*
X-74109Y182266D01*
X-74112Y182268D01*
X-74126Y182465D01*
X-73740Y183692D01*
X-72734Y184109D01*
X-71609Y185234D01*
X-71000Y186704D01*
Y187032D01*
X-69730Y187558D01*
X-64556Y182383D01*
Y118351D01*
X-72778Y110129D01*
X-73854Y110848D01*
X-73500Y111704D01*
Y113296D01*
X-74109Y114766D01*
X-75234Y115891D01*
X-76236Y116306D01*
X-81186Y121256D01*
X-81000Y121704D01*
Y123296D01*
X-81609Y124766D01*
X-82734Y125891D01*
X-84204Y126500D01*
X-85796D01*
X-87266Y125891D01*
X-88391Y124766D01*
X-89000Y123296D01*
Y121704D01*
X-88585Y120702D01*
Y120000D01*
X-88312Y118628D01*
X-87535Y117465D01*
X-81306Y111236D01*
X-80891Y110234D01*
X-79766Y109109D01*
X-78296Y108500D01*
X-76704D01*
X-75848Y108855D01*
X-75129Y107778D01*
X-95501Y87406D01*
X-95947Y86739D01*
X-96103Y85952D01*
X-96103Y85952D01*
Y10803D01*
X-119453Y-12546D01*
X-119899Y-13213D01*
X-120056Y-14000D01*
X-120056Y-14000D01*
Y-29000D01*
X-120056Y-29000D01*
X-119899Y-29787D01*
X-119453Y-30454D01*
X-8454Y-141454D01*
X-7787Y-141899D01*
X-7000Y-142056D01*
X-7000Y-142056D01*
X91522D01*
X91609Y-142266D01*
X92734Y-143391D01*
X94204Y-144000D01*
X95796D01*
X97266Y-143391D01*
X97927Y-142730D01*
X98750Y-142407D01*
X99573Y-142730D01*
X100234Y-143391D01*
X101704Y-144000D01*
X103296D01*
X104766Y-143391D01*
X105891Y-142266D01*
X106500Y-140796D01*
Y-139204D01*
X105891Y-137734D01*
X104766Y-136609D01*
X104030Y-136304D01*
Y-134930D01*
X104766Y-134625D01*
X105891Y-133500D01*
X106500Y-132030D01*
Y-130438D01*
X105891Y-128968D01*
X104766Y-127843D01*
X103296Y-127234D01*
X101704D01*
X100234Y-127843D01*
X99109Y-128968D01*
X98500Y-130438D01*
Y-131710D01*
X98442Y-132083D01*
X97504Y-132944D01*
X94857D01*
X94370Y-131771D01*
X94453Y-131688D01*
X94453Y-131688D01*
X94899Y-131021D01*
X95056Y-130235D01*
Y-109478D01*
X95266Y-109391D01*
X96391Y-108266D01*
X97000Y-106796D01*
Y-105229D01*
X97071Y-105161D01*
X98094Y-104526D01*
X107435Y-113867D01*
Y-121694D01*
X106609Y-122520D01*
X106000Y-123990D01*
Y-125581D01*
X106609Y-127051D01*
X107734Y-128177D01*
X109204Y-128786D01*
X110796D01*
X112266Y-128177D01*
X113391Y-127051D01*
X114000Y-125581D01*
Y-123990D01*
X113391Y-122520D01*
X113241Y-122370D01*
X113767Y-121100D01*
X137500D01*
X138278Y-120778D01*
X138600Y-120000D01*
Y-112710D01*
X139870Y-111861D01*
X140204Y-112000D01*
X141796D01*
X143266Y-111391D01*
X144391Y-110266D01*
X145000Y-108796D01*
Y-107204D01*
X144391Y-105734D01*
X143266Y-104609D01*
X141796Y-104000D01*
X140204D01*
X139870Y-104139D01*
X138600Y-103290D01*
Y-100000D01*
X138278Y-99222D01*
X98882Y-59827D01*
X99602Y-58750D01*
X100204Y-59000D01*
X101796D01*
X103266Y-58391D01*
X104391Y-57266D01*
X105000Y-55796D01*
Y-54204D01*
X104391Y-52734D01*
X103266Y-51609D01*
X101796Y-51000D01*
X100204D01*
X98734Y-51609D01*
X97609Y-52734D01*
X97000Y-54204D01*
Y-55796D01*
X97250Y-56398D01*
X96173Y-57118D01*
X95935Y-56880D01*
X95753Y-56804D01*
X95621Y-56660D01*
X95380Y-56650D01*
X95157Y-56558D01*
X93984Y-56204D01*
X93375Y-54734D01*
X92250Y-53609D01*
X90780Y-53000D01*
X90694D01*
X89989Y-51944D01*
X90035Y-51831D01*
Y-50240D01*
X89928Y-49979D01*
X95453Y-44454D01*
X95454Y-44454D01*
X95899Y-43787D01*
X96055Y-43000D01*
X96132Y-41819D01*
X97325Y-41581D01*
X97609Y-42266D01*
X98734Y-43391D01*
X100204Y-44000D01*
X101796D01*
X103266Y-43391D01*
X104391Y-42266D01*
X105000Y-40796D01*
Y-39204D01*
X104391Y-37734D01*
X103266Y-36609D01*
X101796Y-36000D01*
X100204D01*
X98734Y-36609D01*
X97609Y-37734D01*
X97325Y-38419D01*
X96055Y-38166D01*
Y-17851D01*
X99994Y-13913D01*
X100204Y-14000D01*
X101796D01*
X103266Y-13391D01*
X104391Y-12266D01*
X105000Y-10796D01*
Y-9204D01*
X104391Y-7734D01*
X103266Y-6609D01*
X101796Y-6000D01*
X100204D01*
X98734Y-6609D01*
X97609Y-7734D01*
X97000Y-9204D01*
Y-10796D01*
X97087Y-11006D01*
X92547Y-15546D01*
X92101Y-16213D01*
X91945Y-17000D01*
X91945Y-17000D01*
Y-42149D01*
X86991Y-47102D01*
X86831Y-47035D01*
X86307D01*
X86175Y-47001D01*
X85098Y-46498D01*
X85062Y-46412D01*
X84912Y-45887D01*
X84818Y-45824D01*
X84775Y-45720D01*
X78278Y-39222D01*
X77500Y-38900D01*
X66760D01*
Y-20368D01*
X73128Y-14000D01*
X74296D01*
X75766Y-13391D01*
X76891Y-12266D01*
X77500Y-10796D01*
Y-9204D01*
X76891Y-7734D01*
X75766Y-6609D01*
X74296Y-6000D01*
X72704D01*
X71234Y-6609D01*
X70109Y-7734D01*
X69500Y-9204D01*
Y-10372D01*
X63326Y-16547D01*
X62056Y-16021D01*
Y66522D01*
X62266Y66609D01*
X63391Y67734D01*
X64000Y69204D01*
Y70796D01*
X63636Y71674D01*
X64372Y72944D01*
X81883D01*
X124929Y29899D01*
Y-9165D01*
X123546Y-10546D01*
X123101Y-11213D01*
X122944Y-12000D01*
X122944Y-12000D01*
Y-17071D01*
X122944Y-17071D01*
X123101Y-17858D01*
X123546Y-18525D01*
X126475Y-21453D01*
X126475Y-21453D01*
X127142Y-21899D01*
X127929Y-22055D01*
X139571D01*
X139571Y-22055D01*
X140358Y-21899D01*
X141025Y-21453D01*
X155452Y-7026D01*
X155452Y-7026D01*
X155898Y-6359D01*
X156054Y-5573D01*
Y9147D01*
X157994Y11087D01*
X158204Y11000D01*
X159796D01*
X161266Y11609D01*
X162391Y12734D01*
X163000Y14204D01*
Y15796D01*
X162391Y17266D01*
X161266Y18391D01*
X159796Y19000D01*
X158204D01*
X156734Y18391D01*
X155609Y17266D01*
X155000Y15796D01*
Y14204D01*
X155087Y13994D01*
X152545Y11452D01*
X152100Y10785D01*
X151943Y9998D01*
X151943Y9998D01*
Y-4721D01*
X138720Y-17945D01*
X134372D01*
X133636Y-16674D01*
X134000Y-15796D01*
Y-14204D01*
X133391Y-12734D01*
X132266Y-11609D01*
X132056Y-11522D01*
Y46522D01*
X132266Y46609D01*
X133391Y47734D01*
X134000Y49204D01*
Y50796D01*
X133391Y52266D01*
X132266Y53391D01*
X130796Y54000D01*
X129204D01*
X127734Y53391D01*
X126609Y52266D01*
X126522Y52056D01*
X113780D01*
X83509Y82327D01*
X83887Y83745D01*
X84298Y83915D01*
X100702D01*
X101704Y83500D01*
X103296D01*
X104298Y83915D01*
X120000D01*
X121372Y84188D01*
X122535Y84965D01*
X123764Y86194D01*
X124766Y86609D01*
X125891Y87734D01*
X126500Y89204D01*
Y90796D01*
X126085Y91798D01*
Y100702D01*
X126500Y101704D01*
Y103296D01*
X126085Y104298D01*
Y110702D01*
X126500Y111704D01*
Y113296D01*
X125891Y114766D01*
X124766Y115891D01*
X123764Y116306D01*
X122840Y117230D01*
X123296Y118500D01*
X124766Y119109D01*
X125891Y120234D01*
X126500Y121704D01*
Y123296D01*
X125891Y124766D01*
X124766Y125891D01*
X123296Y126500D01*
X121704D01*
X120234Y125891D01*
X119109Y124766D01*
X118500Y123296D01*
X117230Y122840D01*
X116085Y123985D01*
Y128915D01*
X120702D01*
X121704Y128500D01*
X123296D01*
X124766Y129109D01*
X125891Y130234D01*
X126500Y131704D01*
Y132797D01*
X127751Y133343D01*
X137547Y123546D01*
X138213Y123101D01*
X139000Y122944D01*
X139000Y122944D01*
X160522D01*
X160609Y122734D01*
X161734Y121609D01*
X163204Y121000D01*
X164796D01*
X166266Y121609D01*
X167391Y122734D01*
X167563Y123149D01*
X168937D01*
X169109Y122734D01*
X169774Y122069D01*
X170089Y121238D01*
X169770Y120427D01*
X169099Y119755D01*
X168490Y118285D01*
Y116694D01*
X169099Y115224D01*
X170224Y114099D01*
X171694Y113490D01*
X173285D01*
X174755Y114099D01*
X175881Y115224D01*
X176490Y116694D01*
Y118285D01*
X176402Y118496D01*
X180925Y123018D01*
X180925Y123018D01*
X181371Y123685D01*
X181527Y124472D01*
X181527Y124472D01*
Y136571D01*
X181371Y137358D01*
X180925Y138025D01*
X180925Y138025D01*
X144996Y173953D01*
X144330Y174399D01*
X143543Y174555D01*
X143543Y174555D01*
X42929D01*
X42142Y174399D01*
X41476Y173953D01*
X41476Y173953D01*
X40093Y172572D01*
X31873D01*
X31620Y173841D01*
X32266Y174109D01*
X33391Y175234D01*
X34000Y176704D01*
Y178296D01*
X33391Y179766D01*
X32266Y180891D01*
X30796Y181500D01*
X29204D01*
X27734Y180891D01*
X26609Y179766D01*
X26000Y178296D01*
Y176704D01*
X26609Y175234D01*
X27734Y174109D01*
X28380Y173841D01*
X28127Y172572D01*
X24180D01*
X24180Y172572D01*
X23393Y172415D01*
X22726Y171970D01*
X22726Y171969D01*
X18031Y167274D01*
X17585Y166607D01*
X17428Y165820D01*
X17428Y165820D01*
Y119180D01*
X17428Y119180D01*
X17585Y118393D01*
X18031Y117726D01*
X21902Y113855D01*
X21376Y112585D01*
X20000D01*
X18628Y112312D01*
X17465Y111535D01*
X11087Y105157D01*
X9739Y105605D01*
X9489Y106860D01*
X8436Y108436D01*
X-8284Y125156D01*
Y126991D01*
X-7614Y127512D01*
X-6361Y126948D01*
Y126843D01*
X-5752Y125373D01*
X-4627Y124248D01*
X-3157Y123639D01*
X-1565D01*
X-95Y124248D01*
X1030Y125373D01*
X1639Y126843D01*
Y128435D01*
X1030Y129905D01*
X-95Y131030D01*
X-1565Y131639D01*
X-2486D01*
X-3168Y132904D01*
X-3011Y133140D01*
X-2641Y135000D01*
X-3011Y136860D01*
X-3915Y138213D01*
Y151823D01*
X17535Y173273D01*
X18312Y174436D01*
X18585Y175808D01*
Y205917D01*
X19000Y206919D01*
Y208510D01*
X18391Y209980D01*
X17266Y211105D01*
X15796Y211714D01*
D02*
G37*
G36*
X-21539Y197829D02*
X-23131D01*
X-24601Y197220D01*
X-25726Y196094D01*
X-26335Y194624D01*
Y193033D01*
X-25726Y191563D01*
X-24601Y190438D01*
X-23131Y189829D01*
X-21539D01*
X-20069Y190438D01*
X-18944Y191563D01*
X-18335Y193033D01*
Y194624D01*
X-18944Y196094D01*
X-20069Y197220D01*
X-21539Y197829D01*
D02*
G37*
G36*
X100796Y197500D02*
X99204D01*
X97734Y196891D01*
X96609Y195766D01*
X96000Y194296D01*
Y192704D01*
X96609Y191234D01*
X97734Y190109D01*
X99204Y189500D01*
X100796D01*
X102266Y190109D01*
X103391Y191234D01*
X104000Y192704D01*
Y194296D01*
X103391Y195766D01*
X102266Y196891D01*
X100796Y197500D01*
D02*
G37*
G36*
X-134204Y195250D02*
X-135796D01*
X-137266Y194641D01*
X-138391Y193516D01*
X-139000Y192046D01*
Y190454D01*
X-138391Y188984D01*
X-137266Y187859D01*
X-135796Y187250D01*
X-134204D01*
X-132734Y187859D01*
X-131609Y188984D01*
X-131000Y190454D01*
Y192046D01*
X-131609Y193516D01*
X-132734Y194641D01*
X-134204Y195250D01*
D02*
G37*
G36*
X83296Y191500D02*
X81704D01*
X80234Y190891D01*
X79109Y189766D01*
X78500Y188296D01*
Y186704D01*
X79109Y185234D01*
X80234Y184109D01*
X81704Y183500D01*
X83296D01*
X84766Y184109D01*
X85891Y185234D01*
X86500Y186704D01*
Y188296D01*
X85891Y189766D01*
X84766Y190891D01*
X83296Y191500D01*
D02*
G37*
G36*
X148796Y193500D02*
X147204D01*
X145734Y192891D01*
X144609Y191766D01*
X144000Y190296D01*
Y188704D01*
X144609Y187234D01*
X145734Y186109D01*
X146786Y185673D01*
Y184327D01*
X145734Y183891D01*
X144609Y182766D01*
X144000Y181296D01*
Y179704D01*
X144609Y178234D01*
X145734Y177109D01*
X147204Y176500D01*
X148796D01*
X150266Y177109D01*
X151391Y178234D01*
X152000Y179704D01*
Y181296D01*
X151391Y182766D01*
X150266Y183891D01*
X149214Y184327D01*
Y185673D01*
X150266Y186109D01*
X151391Y187234D01*
X152000Y188704D01*
Y190296D01*
X151391Y191766D01*
X150266Y192891D01*
X148796Y193500D01*
D02*
G37*
G36*
X796Y184000D02*
X-796D01*
X-2266Y183391D01*
X-3391Y182266D01*
X-4000Y180796D01*
Y179204D01*
X-3391Y177734D01*
X-2266Y176609D01*
X-796Y176000D01*
X796D01*
X2266Y176609D01*
X3391Y177734D01*
X4000Y179204D01*
Y180796D01*
X3391Y182266D01*
X2266Y183391D01*
X796Y184000D01*
D02*
G37*
G36*
X123296Y184000D02*
X121704D01*
X120234Y183391D01*
X119109Y182266D01*
X118500Y180796D01*
Y179204D01*
X119109Y177734D01*
X120234Y176609D01*
X121704Y176000D01*
X123296D01*
X124766Y176609D01*
X125891Y177734D01*
X126500Y179204D01*
Y180796D01*
X125891Y182266D01*
X124766Y183391D01*
X123296Y184000D01*
D02*
G37*
G36*
X-29204Y171500D02*
X-30796D01*
X-32266Y170891D01*
X-33391Y169766D01*
X-34000Y168296D01*
Y167673D01*
X-34174Y166674D01*
X-35000Y166530D01*
X-35826Y166674D01*
X-36000Y167673D01*
Y168296D01*
X-36609Y169766D01*
X-37734Y170891D01*
X-39204Y171500D01*
X-40796D01*
X-42266Y170891D01*
X-43391Y169766D01*
X-44000Y168296D01*
Y167936D01*
X-44467Y166762D01*
X-46000D01*
Y168296D01*
X-46609Y169766D01*
X-47734Y170891D01*
X-49204Y171500D01*
X-50796D01*
X-52266Y170891D01*
X-53391Y169766D01*
X-54000Y168296D01*
Y166704D01*
X-53391Y165234D01*
X-52266Y164109D01*
X-50796Y163500D01*
X-49262D01*
Y161967D01*
X-48653Y160496D01*
X-47528Y159371D01*
X-46058Y158762D01*
X-44467D01*
X-42997Y159371D01*
X-41871Y160496D01*
X-41262Y161967D01*
Y162327D01*
X-40796Y163500D01*
X-40173D01*
X-39174Y163326D01*
X-39000Y162327D01*
Y161704D01*
X-38391Y160234D01*
X-37266Y159109D01*
X-35796Y158500D01*
X-34204D01*
X-32734Y159109D01*
X-31609Y160234D01*
X-31000Y161704D01*
Y162327D01*
X-30826Y163326D01*
X-30000Y163470D01*
X-29174Y163326D01*
X-29000Y162327D01*
Y161704D01*
X-28391Y160234D01*
X-27266Y159109D01*
X-25796Y158500D01*
X-24204D01*
X-22734Y159109D01*
X-21609Y160234D01*
X-21000Y161704D01*
Y163296D01*
X-21609Y164766D01*
X-22734Y165891D01*
X-24204Y166500D01*
X-24827D01*
X-25826Y166674D01*
X-26000Y167673D01*
Y168296D01*
X-26609Y169766D01*
X-27734Y170891D01*
X-29204Y171500D01*
D02*
G37*
G36*
X178796Y163500D02*
X177204D01*
X175734Y162891D01*
X174609Y161766D01*
X174000Y160296D01*
Y158704D01*
X174609Y157234D01*
X175734Y156109D01*
X176786Y155673D01*
Y154327D01*
X175734Y153891D01*
X174609Y152766D01*
X174000Y151296D01*
Y149704D01*
X174609Y148234D01*
X175734Y147109D01*
X177204Y146500D01*
X178796D01*
X180266Y147109D01*
X181391Y148234D01*
X182000Y149704D01*
Y151296D01*
X181391Y152766D01*
X180266Y153891D01*
X179214Y154327D01*
Y155673D01*
X180266Y156109D01*
X181391Y157234D01*
X182000Y158704D01*
Y160296D01*
X181391Y161766D01*
X180266Y162891D01*
X178796Y163500D01*
D02*
G37*
G36*
X-106704Y141500D02*
X-108296D01*
X-109766Y140891D01*
X-110891Y139766D01*
X-111500Y138296D01*
Y136704D01*
X-110891Y135234D01*
X-109766Y134109D01*
X-108296Y133500D01*
X-106704D01*
X-105234Y134109D01*
X-104109Y135234D01*
X-103500Y136704D01*
Y138296D01*
X-104109Y139766D01*
X-105234Y140891D01*
X-106704Y141500D01*
D02*
G37*
G36*
X-74204Y140000D02*
X-75796D01*
X-77266Y139391D01*
X-78391Y138266D01*
X-79000Y136796D01*
Y135204D01*
X-78391Y133734D01*
X-77266Y132609D01*
X-75796Y132000D01*
X-75700D01*
X-75447Y130730D01*
X-76266Y130391D01*
X-77391Y129266D01*
X-78000Y127796D01*
Y126204D01*
X-77391Y124734D01*
X-76266Y123609D01*
X-74796Y123000D01*
X-73204D01*
X-71734Y123609D01*
X-70609Y124734D01*
X-70000Y126204D01*
Y127796D01*
X-70609Y129266D01*
X-71734Y130391D01*
X-73204Y131000D01*
X-73300D01*
X-73553Y132270D01*
X-72734Y132609D01*
X-71609Y133734D01*
X-71000Y135204D01*
Y136796D01*
X-71609Y138266D01*
X-72734Y139391D01*
X-74204Y140000D01*
D02*
G37*
G36*
X198796Y133500D02*
X197204D01*
X195734Y132891D01*
X194609Y131766D01*
X194000Y130296D01*
Y128704D01*
X194609Y127234D01*
X195734Y126109D01*
X196786Y125673D01*
Y124327D01*
X195734Y123891D01*
X194609Y122766D01*
X194000Y121296D01*
Y119704D01*
X194609Y118234D01*
X195734Y117109D01*
X197204Y116500D01*
X198796D01*
X200266Y117109D01*
X201391Y118234D01*
X202000Y119704D01*
Y121296D01*
X201391Y122766D01*
X200266Y123891D01*
X199214Y124327D01*
Y125673D01*
X200266Y126109D01*
X201391Y127234D01*
X202000Y128704D01*
Y130296D01*
X201391Y131766D01*
X200266Y132891D01*
X198796Y133500D01*
D02*
G37*
G36*
X-26704Y116500D02*
X-28296D01*
X-29766Y115891D01*
X-30891Y114766D01*
X-31500Y113296D01*
Y111704D01*
X-30891Y110234D01*
X-29766Y109109D01*
X-28296Y108500D01*
X-26704D01*
X-25234Y109109D01*
X-24109Y110234D01*
X-23500Y111704D01*
Y113296D01*
X-24109Y114766D01*
X-25234Y115891D01*
X-26704Y116500D01*
D02*
G37*
G36*
X-106704Y104000D02*
X-108296D01*
X-109766Y103391D01*
X-110891Y102266D01*
X-111500Y100796D01*
Y99204D01*
X-110891Y97734D01*
X-109766Y96609D01*
X-108296Y96000D01*
X-106704D01*
X-105234Y96609D01*
X-104109Y97734D01*
X-103500Y99204D01*
Y100796D01*
X-104109Y102266D01*
X-105234Y103391D01*
X-106704Y104000D01*
D02*
G37*
G36*
X-12845Y96500D02*
X-14437D01*
X-15907Y95891D01*
X-17032Y94766D01*
X-17383Y93918D01*
X-18758D01*
X-19109Y94766D01*
X-20234Y95891D01*
X-21704Y96500D01*
X-23296D01*
X-24766Y95891D01*
X-25891Y94766D01*
X-26500Y93296D01*
Y91704D01*
X-25891Y90234D01*
X-24766Y89109D01*
X-23296Y88500D01*
X-21704D01*
X-20234Y89109D01*
X-19109Y90234D01*
X-18758Y91082D01*
X-17383D01*
X-17032Y90234D01*
X-15907Y89109D01*
X-14437Y88500D01*
X-12845D01*
X-11375Y89109D01*
X-10250Y90234D01*
X-9641Y91704D01*
Y93296D01*
X-10250Y94766D01*
X-11375Y95891D01*
X-12845Y96500D01*
D02*
G37*
G36*
X-198749Y82550D02*
X-201251D01*
X-203667Y81903D01*
X-205833Y80652D01*
X-207602Y78883D01*
X-208853Y76717D01*
X-209500Y74301D01*
Y71799D01*
X-208853Y69383D01*
X-207602Y67217D01*
X-205833Y65448D01*
X-203667Y64197D01*
X-201251Y63550D01*
X-198749D01*
X-196333Y64197D01*
X-194167Y65448D01*
X-192398Y67217D01*
X-191147Y69383D01*
X-190500Y71799D01*
Y74301D01*
X-191147Y76717D01*
X-192398Y78883D01*
X-194167Y80652D01*
X-196333Y81903D01*
X-198749Y82550D01*
D02*
G37*
G36*
X-185355Y62150D02*
X-187345D01*
X-187828Y61950D01*
X-212172D01*
X-212656Y62150D01*
X-214645D01*
X-215128Y61950D01*
X-231750D01*
X-232528Y61628D01*
X-232850Y60850D01*
Y53450D01*
X-232528Y52672D01*
X-231750Y52350D01*
X-215128D01*
X-214645Y52150D01*
X-212656D01*
X-212172Y52350D01*
X-187828D01*
X-187345Y52150D01*
X-185355D01*
X-184872Y52350D01*
X-168250D01*
X-167472Y52672D01*
X-167150Y53450D01*
Y60850D01*
X-167472Y61628D01*
X-168250Y61950D01*
X-184872D01*
X-185355Y62150D01*
D02*
G37*
G36*
X140796Y69000D02*
X139204D01*
X137734Y68391D01*
X136609Y67266D01*
X136000Y65796D01*
Y64204D01*
X136609Y62734D01*
X137734Y61609D01*
X139204Y61000D01*
X140796D01*
X142266Y61609D01*
X143391Y62734D01*
X144000Y64204D01*
Y65796D01*
X143391Y67266D01*
X142266Y68391D01*
X140796Y69000D01*
D02*
G37*
G36*
X-185355Y49450D02*
X-187345D01*
X-187828Y49250D01*
X-212172D01*
X-212656Y49450D01*
X-214645D01*
X-215128Y49250D01*
X-231750D01*
X-232528Y48928D01*
X-232850Y48150D01*
Y28050D01*
X-232528Y27272D01*
X-231750Y26950D01*
X-215128D01*
X-214645Y26750D01*
X-212656D01*
X-212172Y26950D01*
X-187828D01*
X-187345Y26750D01*
X-185355D01*
X-184872Y26950D01*
X-168250D01*
X-167472Y27272D01*
X-167150Y28050D01*
Y48150D01*
X-167472Y48928D01*
X-168250Y49250D01*
X-184872D01*
X-185355Y49450D01*
D02*
G37*
G36*
X-108204Y56623D02*
X-109796D01*
X-111266Y56014D01*
X-112391Y54889D01*
X-113000Y53419D01*
Y51828D01*
X-112391Y50358D01*
X-111266Y49232D01*
X-110451Y48895D01*
X-109639Y47856D01*
Y46264D01*
X-109030Y44794D01*
X-107905Y43669D01*
X-106434Y43060D01*
X-104843D01*
X-103373Y43669D01*
X-102248Y44794D01*
X-101639Y46264D01*
Y47856D01*
X-102248Y49326D01*
X-103373Y50451D01*
X-104187Y50788D01*
X-105000Y51828D01*
Y53419D01*
X-105609Y54889D01*
X-106734Y56014D01*
X-108204Y56623D01*
D02*
G37*
G36*
X98296Y46500D02*
X96704D01*
X95234Y45891D01*
X94109Y44766D01*
X93500Y43296D01*
Y41704D01*
X94109Y40234D01*
X95234Y39109D01*
X96704Y38500D01*
X98296D01*
X99766Y39109D01*
X100891Y40234D01*
X101500Y41704D01*
Y43296D01*
X100891Y44766D01*
X99766Y45891D01*
X98296Y46500D01*
D02*
G37*
G36*
X68296D02*
X66704D01*
X65234Y45891D01*
X64109Y44766D01*
X63500Y43296D01*
Y41704D01*
X64109Y40234D01*
X65234Y39109D01*
X66704Y38500D01*
X68296D01*
X69766Y39109D01*
X70891Y40234D01*
X71500Y41704D01*
Y43296D01*
X70891Y44766D01*
X69766Y45891D01*
X68296Y46500D01*
D02*
G37*
G36*
X83296Y46500D02*
X81704D01*
X80234Y45891D01*
X79109Y44766D01*
X78500Y43296D01*
Y41704D01*
X79109Y40234D01*
X80234Y39109D01*
X81704Y38500D01*
X83296D01*
X84766Y39109D01*
X85891Y40234D01*
X86500Y41704D01*
Y43296D01*
X85891Y44766D01*
X84766Y45891D01*
X83296Y46500D01*
D02*
G37*
G36*
X109846Y35181D02*
X108254D01*
X106784Y34572D01*
X105659Y33447D01*
X105050Y31977D01*
Y30385D01*
X105659Y28915D01*
X106784Y27790D01*
X108254Y27181D01*
X109846D01*
X111316Y27790D01*
X112441Y28915D01*
X113050Y30385D01*
Y31977D01*
X112441Y33447D01*
X111316Y34572D01*
X109846Y35181D01*
D02*
G37*
G36*
X74127Y28582D02*
X72536D01*
X71066Y27973D01*
X69941Y26848D01*
X69332Y25378D01*
Y23786D01*
X69941Y22316D01*
X71066Y21191D01*
X72536Y20582D01*
X74127D01*
X75598Y21191D01*
X76723Y22316D01*
X77332Y23786D01*
Y25378D01*
X76723Y26848D01*
X75598Y27973D01*
X74127Y28582D01*
D02*
G37*
G36*
X87296Y24000D02*
X85704D01*
X84234Y23391D01*
X83109Y22266D01*
X82500Y20796D01*
Y19204D01*
X83109Y17734D01*
X84234Y16609D01*
X85704Y16000D01*
X87296D01*
X88766Y16609D01*
X89891Y17734D01*
X90500Y19204D01*
Y20796D01*
X89891Y22266D01*
X88766Y23391D01*
X87296Y24000D01*
D02*
G37*
G36*
X-185355Y-26750D02*
X-187345D01*
X-189182Y-27511D01*
X-190589Y-28918D01*
X-191350Y-30755D01*
Y-32745D01*
X-190589Y-34582D01*
X-189182Y-35989D01*
X-187345Y-36750D01*
X-185355D01*
X-183518Y-35989D01*
X-182111Y-34582D01*
X-181350Y-32745D01*
Y-30755D01*
X-182111Y-28918D01*
X-183518Y-27511D01*
X-185355Y-26750D01*
D02*
G37*
G36*
X-212656D02*
X-214645D01*
X-216482Y-27511D01*
X-217889Y-28918D01*
X-218650Y-30755D01*
Y-32745D01*
X-217889Y-34582D01*
X-216482Y-35989D01*
X-214645Y-36750D01*
X-212656D01*
X-210818Y-35989D01*
X-209411Y-34582D01*
X-208650Y-32745D01*
Y-30755D01*
X-209411Y-28918D01*
X-210818Y-27511D01*
X-212656Y-26750D01*
D02*
G37*
G36*
X-185355Y-52150D02*
X-187345D01*
X-189182Y-52911D01*
X-190589Y-54318D01*
X-191350Y-56155D01*
Y-58145D01*
X-190589Y-59982D01*
X-189182Y-61389D01*
X-187345Y-62150D01*
X-185355D01*
X-183518Y-61389D01*
X-182111Y-59982D01*
X-181350Y-58145D01*
Y-56155D01*
X-182111Y-54318D01*
X-183518Y-52911D01*
X-185355Y-52150D01*
D02*
G37*
G36*
X-212656D02*
X-214645D01*
X-216482Y-52911D01*
X-217889Y-54318D01*
X-218650Y-56155D01*
Y-58145D01*
X-217889Y-59982D01*
X-216482Y-61389D01*
X-214645Y-62150D01*
X-212656D01*
X-210818Y-61389D01*
X-209411Y-59982D01*
X-208650Y-58145D01*
Y-56155D01*
X-209411Y-54318D01*
X-210818Y-52911D01*
X-212656Y-52150D01*
D02*
G37*
G36*
X-198749Y-63550D02*
X-201251D01*
X-203667Y-64197D01*
X-205833Y-65448D01*
X-207602Y-67217D01*
X-208853Y-69383D01*
X-209500Y-71799D01*
Y-74301D01*
X-208853Y-76717D01*
X-207602Y-78883D01*
X-205833Y-80652D01*
X-203667Y-81903D01*
X-201251Y-82550D01*
X-198749D01*
X-196333Y-81903D01*
X-194167Y-80652D01*
X-192398Y-78883D01*
X-191147Y-76717D01*
X-190500Y-74301D01*
Y-71799D01*
X-191147Y-69383D01*
X-192398Y-67217D01*
X-194167Y-65448D01*
X-196333Y-64197D01*
X-198749Y-63550D01*
D02*
G37*
G36*
X-164204Y-76000D02*
X-165796D01*
X-167266Y-76609D01*
X-168391Y-77734D01*
X-169000Y-79204D01*
Y-80796D01*
X-168391Y-82266D01*
X-167266Y-83391D01*
X-165796Y-84000D01*
X-164204D01*
X-162734Y-83391D01*
X-161609Y-82266D01*
X-161000Y-80796D01*
Y-79204D01*
X-161609Y-77734D01*
X-162734Y-76609D01*
X-164204Y-76000D01*
D02*
G37*
G36*
X210796Y-89500D02*
X209204D01*
X207734Y-90109D01*
X206609Y-91234D01*
X206000Y-92704D01*
Y-94296D01*
X206609Y-95766D01*
X207734Y-96891D01*
X209204Y-97500D01*
X210796D01*
X212266Y-96891D01*
X213391Y-95766D01*
X214000Y-94296D01*
Y-92704D01*
X213391Y-91234D01*
X212266Y-90109D01*
X210796Y-89500D01*
D02*
G37*
G36*
X-169204Y-100000D02*
X-170796D01*
X-172266Y-100609D01*
X-173391Y-101734D01*
X-174000Y-103204D01*
Y-104796D01*
X-173391Y-106266D01*
X-172266Y-107391D01*
X-170796Y-108000D01*
X-169204D01*
X-167734Y-107391D01*
X-166609Y-106266D01*
X-166000Y-104796D01*
Y-103204D01*
X-166609Y-101734D01*
X-167734Y-100609D01*
X-169204Y-100000D01*
D02*
G37*
G36*
X-146347Y-111000D02*
X-147938D01*
X-149409Y-111609D01*
X-150534Y-112734D01*
X-151143Y-114204D01*
Y-115796D01*
X-150534Y-117266D01*
X-150112Y-117688D01*
X-149502Y-118518D01*
X-150112Y-119347D01*
X-150534Y-119770D01*
X-151143Y-121240D01*
Y-122831D01*
X-150534Y-124301D01*
X-149409Y-125427D01*
X-147938Y-126036D01*
X-146347D01*
X-144877Y-125427D01*
X-143752Y-124301D01*
X-143143Y-122831D01*
Y-121240D01*
X-143752Y-119770D01*
X-144174Y-119347D01*
X-144784Y-118518D01*
X-144174Y-117688D01*
X-143752Y-117266D01*
X-143143Y-115796D01*
Y-114204D01*
X-143752Y-112734D01*
X-144877Y-111609D01*
X-146347Y-111000D01*
D02*
G37*
G36*
X-97604Y-118600D02*
X-99196D01*
X-100666Y-119209D01*
X-101791Y-120334D01*
X-102400Y-121804D01*
Y-123396D01*
X-101791Y-124866D01*
X-100666Y-125991D01*
X-99196Y-126600D01*
X-97604D01*
X-96134Y-125991D01*
X-95009Y-124866D01*
X-94400Y-123396D01*
Y-121804D01*
X-95009Y-120334D01*
X-96134Y-119209D01*
X-97604Y-118600D01*
D02*
G37*
G36*
X-31604Y-122600D02*
X-33196D01*
X-34666Y-123209D01*
X-35791Y-124334D01*
X-36400Y-125804D01*
Y-127396D01*
X-35791Y-128866D01*
X-34666Y-129991D01*
X-33196Y-130600D01*
X-31604D01*
X-30134Y-129991D01*
X-29009Y-128866D01*
X-28400Y-127396D01*
Y-125804D01*
X-29009Y-124334D01*
X-30134Y-123209D01*
X-31604Y-122600D01*
D02*
G37*
G36*
X-42604D02*
X-44196D01*
X-45666Y-123209D01*
X-46791Y-124334D01*
X-47400Y-125804D01*
Y-127396D01*
X-46791Y-128866D01*
X-45666Y-129991D01*
X-44196Y-130600D01*
X-42604D01*
X-41134Y-129991D01*
X-40009Y-128866D01*
X-39400Y-127396D01*
Y-125804D01*
X-40009Y-124334D01*
X-41134Y-123209D01*
X-42604Y-122600D01*
D02*
G37*
G36*
X-64604D02*
X-66196D01*
X-67666Y-123209D01*
X-68791Y-124334D01*
X-69400Y-125804D01*
Y-127396D01*
X-68791Y-128866D01*
X-67666Y-129991D01*
X-66196Y-130600D01*
X-64604D01*
X-63134Y-129991D01*
X-62009Y-128866D01*
X-61400Y-127396D01*
Y-125804D01*
X-62009Y-124334D01*
X-63134Y-123209D01*
X-64604Y-122600D01*
D02*
G37*
G36*
X-108604D02*
X-110196D01*
X-111666Y-123209D01*
X-112791Y-124334D01*
X-113400Y-125804D01*
Y-127396D01*
X-112791Y-128866D01*
X-111666Y-129991D01*
X-110196Y-130600D01*
X-108604D01*
X-107134Y-129991D01*
X-106009Y-128866D01*
X-105400Y-127396D01*
Y-125804D01*
X-106009Y-124334D01*
X-107134Y-123209D01*
X-108604Y-122600D01*
D02*
G37*
G36*
X125796Y-123500D02*
X124204D01*
X122734Y-124109D01*
X121609Y-125234D01*
X121000Y-126704D01*
Y-128296D01*
X121609Y-129766D01*
X122734Y-130891D01*
X124204Y-131500D01*
X125796D01*
X127266Y-130891D01*
X128391Y-129766D01*
X129000Y-128296D01*
Y-126704D01*
X128391Y-125234D01*
X127266Y-124109D01*
X125796Y-123500D01*
D02*
G37*
G36*
X-119204D02*
X-120796D01*
X-122266Y-124109D01*
X-123391Y-125234D01*
X-124000Y-126704D01*
Y-128296D01*
X-123391Y-129766D01*
X-122266Y-130891D01*
X-120796Y-131500D01*
X-119204D01*
X-117734Y-130891D01*
X-116609Y-129766D01*
X-116000Y-128296D01*
Y-126704D01*
X-116609Y-125234D01*
X-117734Y-124109D01*
X-119204Y-123500D01*
D02*
G37*
G36*
X-186704Y-126000D02*
X-188296D01*
X-189766Y-126609D01*
X-190891Y-127734D01*
X-191500Y-129204D01*
Y-130796D01*
X-190891Y-132266D01*
X-189766Y-133391D01*
X-188296Y-134000D01*
X-186704D01*
X-185234Y-133391D01*
X-184109Y-132266D01*
X-183500Y-130796D01*
Y-129204D01*
X-184109Y-127734D01*
X-185234Y-126609D01*
X-186704Y-126000D01*
D02*
G37*
G36*
X-79204Y-148000D02*
X-80796D01*
X-82266Y-148609D01*
X-83391Y-149734D01*
X-84000Y-151204D01*
Y-152796D01*
X-83391Y-154266D01*
X-82266Y-155391D01*
X-80796Y-156000D01*
X-79204D01*
X-77734Y-155391D01*
X-76609Y-154266D01*
X-76000Y-152796D01*
Y-151204D01*
X-76609Y-149734D01*
X-77734Y-148609D01*
X-79204Y-148000D01*
D02*
G37*
G36*
X148296Y-141000D02*
X146704D01*
X145234Y-141609D01*
X144109Y-142734D01*
X143500Y-144204D01*
Y-145796D01*
X144109Y-147266D01*
X144770Y-147927D01*
X145093Y-148750D01*
X144770Y-149573D01*
X144109Y-150234D01*
X143500Y-151704D01*
Y-153296D01*
X144109Y-154766D01*
X145234Y-155891D01*
X146704Y-156500D01*
X148296D01*
X149766Y-155891D01*
X150891Y-154766D01*
X151500Y-153296D01*
Y-151704D01*
X150891Y-150234D01*
X150230Y-149573D01*
X149907Y-148750D01*
X150230Y-147927D01*
X150891Y-147266D01*
X151500Y-145796D01*
Y-144204D01*
X150891Y-142734D01*
X149766Y-141609D01*
X148296Y-141000D01*
D02*
G37*
G36*
X-99204Y-143500D02*
X-100796D01*
X-102266Y-144109D01*
X-103391Y-145234D01*
X-104000Y-146704D01*
Y-148296D01*
X-103391Y-149766D01*
X-102730Y-150427D01*
X-102407Y-151250D01*
X-102730Y-152073D01*
X-103391Y-152734D01*
X-104000Y-154204D01*
Y-155796D01*
X-103391Y-157266D01*
X-102266Y-158391D01*
X-100796Y-159000D01*
X-99204D01*
X-97734Y-158391D01*
X-96609Y-157266D01*
X-96000Y-155796D01*
Y-154204D01*
X-96609Y-152734D01*
X-97270Y-152073D01*
X-97593Y-151250D01*
X-97270Y-150427D01*
X-96609Y-149766D01*
X-96000Y-148296D01*
Y-146704D01*
X-96609Y-145234D01*
X-97734Y-144109D01*
X-99204Y-143500D01*
D02*
G37*
G36*
X35546Y-172500D02*
X33954D01*
X32484Y-173109D01*
X31359Y-174234D01*
X30750Y-175704D01*
Y-177296D01*
X31359Y-178766D01*
X32484Y-179891D01*
X33954Y-180500D01*
X35546D01*
X37016Y-179891D01*
X38141Y-178766D01*
X38750Y-177296D01*
Y-175704D01*
X38141Y-174234D01*
X37016Y-173109D01*
X35546Y-172500D01*
D02*
G37*
G36*
X86450Y-158984D02*
X83550D01*
X80748Y-159735D01*
X78236Y-161185D01*
X76185Y-163236D01*
X74735Y-165748D01*
X73984Y-168550D01*
Y-171450D01*
X74735Y-174252D01*
X76185Y-176764D01*
X78236Y-178815D01*
X80748Y-180265D01*
X83550Y-181016D01*
X86450D01*
X89252Y-180265D01*
X91764Y-178815D01*
X93815Y-176764D01*
X95265Y-174252D01*
X96016Y-171450D01*
Y-168550D01*
X95265Y-165748D01*
X93815Y-163236D01*
X91764Y-161185D01*
X89252Y-159735D01*
X86450Y-158984D01*
D02*
G37*
%LPD*%
G36*
X165866Y147270D02*
X165340Y146000D01*
X165204D01*
X163734Y145391D01*
X162609Y144266D01*
X162000Y142796D01*
Y141204D01*
X162609Y139734D01*
X163734Y138609D01*
X165204Y138000D01*
X166796D01*
X168266Y138609D01*
X169391Y139734D01*
X170000Y141204D01*
Y141340D01*
X171270Y141866D01*
X173463Y139673D01*
X173085Y138255D01*
X172206Y137891D01*
X171081Y136766D01*
X170472Y135296D01*
Y133704D01*
X171081Y132234D01*
X172206Y131109D01*
X173676Y130500D01*
X175268D01*
X176146Y130864D01*
X177416Y130128D01*
Y126902D01*
X176146Y126650D01*
X175891Y127266D01*
X174766Y128391D01*
X173296Y129000D01*
X171704D01*
X170234Y128391D01*
X169109Y127266D01*
X168937Y126851D01*
X167563D01*
X167391Y127266D01*
X166266Y128391D01*
X164796Y129000D01*
X163204D01*
X161734Y128391D01*
X160609Y127266D01*
X160522Y127056D01*
X139852D01*
X127954Y138953D01*
X127287Y139399D01*
X126851Y139486D01*
X126780Y139541D01*
X126274Y140343D01*
X126136Y140826D01*
X126500Y141704D01*
Y143296D01*
X125891Y144766D01*
X124766Y145891D01*
X123296Y146500D01*
X121704D01*
X120234Y145891D01*
X119109Y144766D01*
X118500Y143296D01*
Y141704D01*
X118864Y140826D01*
X118128Y139556D01*
X106065D01*
X92275Y153346D01*
X91608Y153792D01*
X90821Y153948D01*
X90821Y153948D01*
X80822D01*
X80035Y153792D01*
X79368Y153346D01*
X79368Y153346D01*
X76047Y150024D01*
X75601Y149358D01*
X75444Y148571D01*
X75444Y148571D01*
Y139372D01*
X74174Y138636D01*
X73296Y139000D01*
X71704D01*
X70234Y138391D01*
X69573Y137730D01*
X68750Y137407D01*
X68019Y137694D01*
X67464Y138895D01*
X67730Y139573D01*
X68391Y140234D01*
X69000Y141704D01*
Y143296D01*
X68391Y144766D01*
X67266Y145891D01*
X65796Y146500D01*
X64204D01*
X62734Y145891D01*
X61609Y144766D01*
X61522Y144556D01*
X33351D01*
X31413Y146494D01*
X31500Y146704D01*
Y148296D01*
X30891Y149766D01*
X29766Y150891D01*
X28296Y151500D01*
X26704D01*
X25826Y151136D01*
X24555Y151872D01*
Y158128D01*
X25826Y158864D01*
X26704Y158500D01*
X27529D01*
X28000Y157796D01*
Y156204D01*
X28609Y154734D01*
X29734Y153609D01*
X31204Y153000D01*
X32796D01*
X34266Y153609D01*
X35391Y154734D01*
X35478Y154944D01*
X60750D01*
X60750Y154944D01*
X61537Y155101D01*
X62203Y155547D01*
X64994Y158337D01*
X65204Y158250D01*
X66796D01*
X68266Y158859D01*
X69391Y159984D01*
X70000Y161454D01*
Y163046D01*
X69391Y164516D01*
X68266Y165641D01*
X66796Y166250D01*
X65204D01*
X63734Y165641D01*
X62609Y164516D01*
X62000Y163046D01*
Y161454D01*
X62087Y161244D01*
X59899Y159056D01*
X35478D01*
X35391Y159266D01*
X34266Y160391D01*
X32796Y161000D01*
X31971D01*
X31500Y161704D01*
Y163296D01*
X31136Y164174D01*
X31872Y165445D01*
X41522D01*
X41609Y165234D01*
X42734Y164109D01*
X44204Y163500D01*
X45796D01*
X47266Y164109D01*
X48391Y165234D01*
X49000Y166704D01*
Y168296D01*
X48636Y169174D01*
X49372Y170445D01*
X142691D01*
X165866Y147270D01*
D02*
G37*
G36*
X100608Y129965D02*
X101771Y129188D01*
X103143Y128915D01*
X108915D01*
Y122500D01*
X109188Y121128D01*
X109965Y119965D01*
X118694Y111236D01*
X118915Y110702D01*
Y104298D01*
X118500Y103296D01*
Y101704D01*
X118915Y100702D01*
Y91798D01*
X118694Y91264D01*
X118515Y91085D01*
X104298D01*
X103296Y91500D01*
X101704D01*
X100702Y91085D01*
X84298D01*
X83296Y91500D01*
X81704D01*
X80826Y91136D01*
X79795Y91647D01*
X79559Y91837D01*
X79534Y91871D01*
X79399Y92552D01*
X78953Y93219D01*
X78953Y93219D01*
X49401Y122771D01*
X49887Y123945D01*
X71000D01*
X71000Y123945D01*
X71787Y124101D01*
X72453Y124546D01*
X78953Y131046D01*
X78953Y131046D01*
X79399Y131713D01*
X79556Y132500D01*
Y142128D01*
X80826Y142864D01*
X81704Y142500D01*
X83296D01*
X84298Y142915D01*
X87658D01*
X100608Y129965D01*
D02*
G37*
G36*
X26704Y143500D02*
X28296D01*
X28506Y143587D01*
X31047Y141047D01*
X31047Y141046D01*
X31713Y140601D01*
X32500Y140444D01*
X61522D01*
X61609Y140234D01*
X62270Y139573D01*
X62593Y138750D01*
X62270Y137927D01*
X61609Y137266D01*
X61000Y135796D01*
Y134204D01*
X61609Y132734D01*
X62734Y131609D01*
X64204Y131000D01*
X65796D01*
X67266Y131609D01*
X67927Y132270D01*
X68750Y132593D01*
X69573Y132270D01*
X70234Y131609D01*
X71416Y131119D01*
X71920Y129827D01*
X70149Y128055D01*
X35000D01*
X35000Y128055D01*
X34213Y127899D01*
X33547Y127453D01*
X33547Y127453D01*
X31084Y124991D01*
X30666D01*
X29766Y125891D01*
X28296Y126500D01*
X26704D01*
X25826Y126136D01*
X24555Y126872D01*
Y143128D01*
X25826Y143864D01*
X26704Y143500D01*
D02*
G37*
G36*
X50198Y111895D02*
Y74441D01*
X44312Y68555D01*
X38429D01*
X37642Y68399D01*
X36976Y67954D01*
X36976Y67953D01*
X31078Y62056D01*
X25978D01*
X25891Y62266D01*
X24766Y63391D01*
X23296Y64000D01*
X21704D01*
X20234Y63391D01*
X19109Y62266D01*
X18500Y60796D01*
Y59204D01*
X19109Y57734D01*
X20234Y56609D01*
X21704Y56000D01*
X23296D01*
X24766Y56609D01*
X25891Y57734D01*
X25978Y57944D01*
X31929D01*
X31929Y57944D01*
X32716Y58101D01*
X33382Y58547D01*
X39280Y64444D01*
X45164D01*
X45164Y64444D01*
X45946Y63305D01*
Y57853D01*
X38506Y50413D01*
X38296Y50500D01*
X36704D01*
X35234Y49891D01*
X34109Y48766D01*
X33500Y47296D01*
Y45704D01*
X34109Y44234D01*
X35234Y43109D01*
X36704Y42500D01*
X38296D01*
X39766Y43109D01*
X40891Y44234D01*
X41500Y45704D01*
Y47296D01*
X41413Y47506D01*
X49455Y55548D01*
X49455Y55548D01*
X49901Y56215D01*
X50057Y57002D01*
X50057Y57002D01*
Y64221D01*
X54827Y68991D01*
X56245Y68613D01*
X56609Y67734D01*
X57734Y66609D01*
X57944Y66522D01*
Y-94149D01*
X32649Y-119445D01*
X-4022D01*
X-4109Y-119234D01*
X-4436Y-118907D01*
X-4547Y-117453D01*
X6494Y-106413D01*
X6704Y-106500D01*
X8296D01*
X9766Y-105891D01*
X10891Y-104766D01*
X11500Y-103296D01*
Y-101704D01*
X10891Y-100234D01*
X9766Y-99109D01*
X8296Y-98500D01*
X6704D01*
X5234Y-99109D01*
X4109Y-100234D01*
X3500Y-101704D01*
Y-103296D01*
X3587Y-103506D01*
X-6851Y-113945D01*
X-9071D01*
X-9071Y-113945D01*
X-9858Y-114101D01*
X-10524Y-114546D01*
X-13953Y-117976D01*
X-14399Y-118642D01*
X-14555Y-119429D01*
X-14555Y-119429D01*
Y-123613D01*
X-15729Y-124099D01*
X-112928Y-26899D01*
Y-21872D01*
X-111658Y-21136D01*
X-110780Y-21500D01*
X-109188D01*
X-107718Y-20891D01*
X-106593Y-19766D01*
X-105984Y-18296D01*
Y-16704D01*
X-106593Y-15234D01*
X-106960Y-14867D01*
X-88229Y3864D01*
X-87056Y3378D01*
Y-14022D01*
X-87266Y-14109D01*
X-88391Y-15234D01*
X-89000Y-16704D01*
Y-18296D01*
X-88391Y-19766D01*
X-87266Y-20891D01*
X-85796Y-21500D01*
X-84204D01*
X-83348Y-21145D01*
X-82629Y-22222D01*
X-83994Y-23587D01*
X-84204Y-23500D01*
X-85796D01*
X-87266Y-24109D01*
X-88391Y-25234D01*
X-89000Y-26704D01*
Y-28296D01*
X-88585Y-29298D01*
Y-33202D01*
X-89000Y-34204D01*
Y-35796D01*
X-88391Y-37266D01*
X-87266Y-38391D01*
X-86264Y-38806D01*
X-77535Y-47535D01*
X-76372Y-48312D01*
X-75000Y-48585D01*
X22500D01*
X23872Y-48312D01*
X25035Y-47535D01*
X30035Y-42535D01*
X30812Y-41372D01*
X31085Y-40000D01*
Y12776D01*
X30812Y14148D01*
X30035Y15311D01*
X16223Y29123D01*
Y100153D01*
X17230Y101160D01*
X18500Y100704D01*
X19109Y99234D01*
X20234Y98109D01*
X21704Y97500D01*
X23296D01*
X24766Y98109D01*
X25891Y99234D01*
X26500Y100704D01*
Y102296D01*
X25891Y103766D01*
X25512Y104145D01*
X26038Y105415D01*
X34032D01*
X35404Y105688D01*
X36567Y106465D01*
X41264Y111162D01*
X42266Y111577D01*
X43391Y112702D01*
X44000Y114172D01*
Y115764D01*
X43636Y116643D01*
X43660Y116699D01*
X44700Y117394D01*
X50198Y111895D01*
D02*
G37*
G36*
X75444Y90914D02*
Y85429D01*
X75444Y85429D01*
X75601Y84642D01*
X76047Y83975D01*
X81697Y78326D01*
X81171Y77056D01*
X57929D01*
X57142Y76899D01*
X56476Y76453D01*
X56476Y76453D01*
X55482Y75460D01*
X54309Y75946D01*
Y110390D01*
X55482Y110876D01*
X75444Y90914D01*
D02*
G37*
G36*
X23915Y11291D02*
Y-38515D01*
X22430Y-40000D01*
X-70000D01*
Y-5000D01*
X-8157D01*
X-7266Y-5891D01*
X-5796Y-6500D01*
X-4204D01*
X-2734Y-5891D01*
X-1843Y-5000D01*
X0D01*
Y15000D01*
X20206D01*
X23915Y11291D01*
D02*
G37*
G36*
X81643Y-72541D02*
X82459Y-73357D01*
X82900Y-74423D01*
Y-75577D01*
X82459Y-76643D01*
X81643Y-77459D01*
X80957Y-77743D01*
X80904Y-77796D01*
X80830Y-77806D01*
X80654Y-78034D01*
X80335Y-78337D01*
X79112Y-78289D01*
X76711Y-75888D01*
X76663Y-74665D01*
X76966Y-74346D01*
X77194Y-74170D01*
X77204Y-74096D01*
X77257Y-74043D01*
X77541Y-73357D01*
X78357Y-72541D01*
X79423Y-72100D01*
X80577D01*
X81643Y-72541D01*
D02*
G37*
G36*
X83998Y-46498D02*
X83770Y-47645D01*
X82645Y-48770D01*
X82036Y-50240D01*
Y-51831D01*
X82645Y-53301D01*
X83770Y-54426D01*
X85240Y-55036D01*
X85325D01*
X86031Y-56091D01*
X85984Y-56204D01*
Y-57796D01*
X86593Y-59266D01*
X87718Y-60391D01*
X89188Y-61000D01*
X90780D01*
X92250Y-60391D01*
X93375Y-59266D01*
X93842Y-58138D01*
X95157Y-57657D01*
X137500Y-100000D01*
Y-105997D01*
X137000Y-107204D01*
Y-108796D01*
X137500Y-110003D01*
Y-120000D01*
X112565D01*
Y-112805D01*
X112370Y-111823D01*
X111814Y-110991D01*
X80997Y-80173D01*
X81378Y-78759D01*
X82266Y-78391D01*
X83391Y-77266D01*
X84000Y-75796D01*
Y-74204D01*
X83391Y-72734D01*
X82266Y-71609D01*
X80796Y-71000D01*
X79204D01*
X77734Y-71609D01*
X76609Y-72734D01*
X76241Y-73622D01*
X74827Y-74004D01*
X66760Y-65937D01*
Y-40000D01*
X77500D01*
X83998Y-46498D01*
D02*
G37*
G36*
X94474Y-100906D02*
X93840Y-101929D01*
X93771Y-102000D01*
X92204D01*
X90734Y-102609D01*
X89609Y-103734D01*
X89000Y-105204D01*
Y-106796D01*
X89609Y-108266D01*
X90734Y-109391D01*
X90944Y-109478D01*
Y-129383D01*
X88415Y-131912D01*
X-3650D01*
X-8965Y-126597D01*
X-8347Y-125584D01*
X-8267Y-125500D01*
X-6704D01*
X-5234Y-124891D01*
X-4109Y-123766D01*
X-4022Y-123555D01*
X33500D01*
X33500Y-123555D01*
X34287Y-123399D01*
X34953Y-122953D01*
X61453Y-96454D01*
X61899Y-95787D01*
X62056Y-95000D01*
X62056Y-95000D01*
Y-70284D01*
X63326Y-69758D01*
X94474Y-100906D01*
D02*
G37*
%LPC*%
G36*
X140796Y166500D02*
X139204D01*
X137734Y165891D01*
X137073Y165230D01*
X136250Y164907D01*
X135427Y165230D01*
X134766Y165891D01*
X133296Y166500D01*
X131704D01*
X130234Y165891D01*
X129109Y164766D01*
X128500Y163296D01*
Y161704D01*
X129109Y160234D01*
X130234Y159109D01*
X131704Y158500D01*
X133296D01*
X134766Y159109D01*
X135427Y159770D01*
X136250Y160093D01*
X137073Y159770D01*
X137734Y159109D01*
X139204Y158500D01*
X140796D01*
X142266Y159109D01*
X143391Y160234D01*
X144000Y161704D01*
Y163296D01*
X143391Y164766D01*
X142266Y165891D01*
X140796Y166500D01*
D02*
G37*
G36*
X110796Y151500D02*
X109204D01*
X107734Y150891D01*
X106609Y149766D01*
X106000Y148296D01*
Y146704D01*
X106609Y145234D01*
X107734Y144109D01*
X109204Y143500D01*
X110796D01*
X112266Y144109D01*
X113391Y145234D01*
X114000Y146704D01*
Y148296D01*
X113391Y149766D01*
X112266Y150891D01*
X110796Y151500D01*
D02*
G37*
G36*
X80796Y121500D02*
X79204D01*
X77734Y120891D01*
X76609Y119766D01*
X76000Y118296D01*
Y116704D01*
X76609Y115234D01*
X77734Y114109D01*
X79204Y113500D01*
X80796D01*
X82266Y114109D01*
X83391Y115234D01*
X84000Y116704D01*
Y118296D01*
X83391Y119766D01*
X82266Y120891D01*
X80796Y121500D01*
D02*
G37*
G36*
X23296Y75500D02*
X21704D01*
X20234Y74891D01*
X19109Y73766D01*
X18500Y72296D01*
Y70704D01*
X19109Y69234D01*
X20234Y68109D01*
X21704Y67500D01*
X23296D01*
X24766Y68109D01*
X25891Y69234D01*
X26500Y70704D01*
Y72296D01*
X25891Y73766D01*
X24766Y74891D01*
X23296Y75500D01*
D02*
G37*
G36*
X53296Y46500D02*
X51704D01*
X50234Y45891D01*
X49109Y44766D01*
X48500Y43296D01*
Y41704D01*
X49109Y40234D01*
X50234Y39109D01*
X51704Y38500D01*
X53296D01*
X54766Y39109D01*
X55891Y40234D01*
X56500Y41704D01*
Y43296D01*
X55891Y44766D01*
X54766Y45891D01*
X53296Y46500D01*
D02*
G37*
G36*
X38296Y33500D02*
X36704D01*
X35234Y32891D01*
X34109Y31766D01*
X33500Y30296D01*
Y28704D01*
X34109Y27234D01*
X35234Y26109D01*
X36704Y25500D01*
X38296D01*
X39766Y26109D01*
X40891Y27234D01*
X41500Y28704D01*
Y30296D01*
X40891Y31766D01*
X39766Y32891D01*
X38296Y33500D01*
D02*
G37*
G36*
X-39300Y-13500D02*
X-40892D01*
X-42362Y-14109D01*
X-43487Y-15234D01*
X-44096Y-16704D01*
Y-18296D01*
X-43487Y-19766D01*
X-42362Y-20891D01*
X-40892Y-21500D01*
X-39300D01*
X-37830Y-20891D01*
X-36705Y-19766D01*
X-36096Y-18296D01*
Y-16704D01*
X-36705Y-15234D01*
X-37830Y-14109D01*
X-39300Y-13500D01*
D02*
G37*
G36*
X-55204Y-17000D02*
X-56796D01*
X-58266Y-17609D01*
X-59391Y-18734D01*
X-60000Y-20204D01*
Y-21796D01*
X-59391Y-23266D01*
X-58266Y-24391D01*
X-56796Y-25000D01*
X-55204D01*
X-53734Y-24391D01*
X-52609Y-23266D01*
X-52000Y-21796D01*
Y-20204D01*
X-52609Y-18734D01*
X-53734Y-17609D01*
X-55204Y-17000D01*
D02*
G37*
G36*
X10796Y-18500D02*
X9204D01*
X7734Y-19109D01*
X6609Y-20234D01*
X6000Y-21704D01*
Y-23296D01*
X6609Y-24766D01*
X7734Y-25891D01*
X9204Y-26500D01*
X10796D01*
X12266Y-25891D01*
X13391Y-24766D01*
X14000Y-23296D01*
Y-21704D01*
X13391Y-20234D01*
X12266Y-19109D01*
X10796Y-18500D01*
D02*
G37*
G36*
X-34236Y-26000D02*
X-35828D01*
X-37298Y-26609D01*
X-38423Y-27734D01*
X-39032Y-29204D01*
Y-30796D01*
X-38423Y-32266D01*
X-37298Y-33391D01*
X-35828Y-34000D01*
X-34236D01*
X-32766Y-33391D01*
X-31641Y-32266D01*
X-31032Y-30796D01*
Y-29204D01*
X-31641Y-27734D01*
X-32766Y-26609D01*
X-34236Y-26000D01*
D02*
G37*
%LPD*%
G36*
X-38453Y-15041D02*
X-37637Y-15857D01*
X-37196Y-16923D01*
Y-18077D01*
X-37637Y-19143D01*
X-38453Y-19959D01*
X-39519Y-20400D01*
X-40673D01*
X-41739Y-19959D01*
X-42555Y-19143D01*
X-42996Y-18077D01*
Y-16923D01*
X-42555Y-15857D01*
X-41739Y-15041D01*
X-40673Y-14600D01*
X-39519D01*
X-38453Y-15041D01*
D02*
G37*
G36*
X11643Y-20041D02*
X12459Y-20857D01*
X12900Y-21923D01*
Y-23077D01*
X12459Y-24143D01*
X11643Y-24959D01*
X10577Y-25400D01*
X9423D01*
X8357Y-24959D01*
X7541Y-24143D01*
X7100Y-23077D01*
Y-21923D01*
X7541Y-20857D01*
X8357Y-20041D01*
X9423Y-19600D01*
X10577D01*
X11643Y-20041D01*
D02*
G37*
%LPC*%
G36*
X100796Y-66000D02*
X99204D01*
X97734Y-66609D01*
X96609Y-67734D01*
X96000Y-69204D01*
Y-70796D01*
X96609Y-72266D01*
X97734Y-73391D01*
X99204Y-74000D01*
X100796D01*
X102266Y-73391D01*
X103391Y-72266D01*
X104000Y-70796D01*
Y-69204D01*
X103391Y-67734D01*
X102266Y-66609D01*
X100796Y-66000D01*
D02*
G37*
G36*
X109796Y-91000D02*
X108204D01*
X106734Y-91609D01*
X105609Y-92734D01*
X105000Y-94204D01*
Y-95796D01*
X105609Y-97266D01*
X106734Y-98391D01*
X108204Y-99000D01*
X109796D01*
X111266Y-98391D01*
X112391Y-97266D01*
X113000Y-95796D01*
Y-94204D01*
X112391Y-92734D01*
X111266Y-91609D01*
X109796Y-91000D01*
D02*
G37*
%LPD*%
G36*
X110643Y-92541D02*
X111459Y-93357D01*
X111900Y-94423D01*
Y-95577D01*
X111459Y-96643D01*
X110643Y-97459D01*
X109577Y-97900D01*
X108423D01*
X107357Y-97459D01*
X106541Y-96643D01*
X106100Y-95577D01*
Y-94423D01*
X106541Y-93357D01*
X107357Y-92541D01*
X108423Y-92100D01*
X109577D01*
X110643Y-92541D01*
D02*
G37*
G36*
X-168250Y53450D02*
X-231750D01*
Y60850D01*
X-168250D01*
Y53450D01*
D02*
G37*
G36*
Y28050D02*
X-231750D01*
Y48150D01*
X-168250D01*
Y28050D01*
D02*
G37*
%LPC*%
G36*
X208280Y99500D02*
X206689D01*
X205219Y98891D01*
X204093Y97766D01*
X203484Y96295D01*
Y94704D01*
X204093Y93234D01*
X205219Y92109D01*
X206689Y91500D01*
X208280D01*
X209750Y92109D01*
X210875Y93234D01*
X211484Y94704D01*
Y96295D01*
X210875Y97766D01*
X209750Y98891D01*
X208280Y99500D01*
D02*
G37*
G36*
X201251Y82550D02*
X198749D01*
X196333Y81903D01*
X194167Y80652D01*
X192398Y78883D01*
X191147Y76717D01*
X190500Y74301D01*
Y71799D01*
X191147Y69383D01*
X192398Y67217D01*
X194167Y65448D01*
X196333Y64197D01*
X198749Y63550D01*
X201251D01*
X203667Y64197D01*
X205833Y65448D01*
X207602Y67217D01*
X208853Y69383D01*
X209500Y71799D01*
Y74301D01*
X208853Y76717D01*
X207602Y78883D01*
X205833Y80652D01*
X203667Y81903D01*
X201251Y82550D01*
D02*
G37*
G36*
X214645Y62150D02*
X212656D01*
X210818Y61389D01*
X209411Y59982D01*
X208650Y58145D01*
Y56155D01*
X209411Y54318D01*
X210818Y52911D01*
X212656Y52150D01*
X214645D01*
X216482Y52911D01*
X217889Y54318D01*
X218650Y56155D01*
Y58145D01*
X217889Y59982D01*
X216482Y61389D01*
X214645Y62150D01*
D02*
G37*
G36*
Y49450D02*
X212656D01*
X210818Y48689D01*
X209411Y47282D01*
X208650Y45445D01*
Y43455D01*
X209411Y41618D01*
X210818Y40211D01*
X212656Y39450D01*
X214645D01*
X216482Y40211D01*
X217889Y41618D01*
X218650Y43455D01*
Y45445D01*
X217889Y47282D01*
X216482Y48689D01*
X214645Y49450D01*
D02*
G37*
G36*
Y36750D02*
X212656D01*
X210818Y35989D01*
X209411Y34582D01*
X208650Y32745D01*
Y30755D01*
X209411Y28918D01*
X210818Y27511D01*
X212656Y26750D01*
X214645D01*
X216482Y27511D01*
X217889Y28918D01*
X218650Y30755D01*
Y32745D01*
X217889Y34582D01*
X216482Y35989D01*
X214645Y36750D01*
D02*
G37*
G36*
Y24050D02*
X212656D01*
X210818Y23289D01*
X209411Y21882D01*
X208650Y20045D01*
Y18055D01*
X209411Y16218D01*
X210818Y14811D01*
X212656Y14050D01*
X214645D01*
X216482Y14811D01*
X217889Y16218D01*
X218650Y18055D01*
Y20045D01*
X217889Y21882D01*
X216482Y23289D01*
X214645Y24050D01*
D02*
G37*
G36*
Y11350D02*
X212656D01*
X210818Y10589D01*
X209411Y9182D01*
X208650Y7345D01*
Y5355D01*
X209411Y3518D01*
X210818Y2111D01*
X212656Y1350D01*
X214645D01*
X216482Y2111D01*
X217889Y3518D01*
X218650Y5355D01*
Y7345D01*
X217889Y9182D01*
X216482Y10589D01*
X214645Y11350D01*
D02*
G37*
G36*
Y-1350D02*
X212656D01*
X210818Y-2111D01*
X209411Y-3518D01*
X208650Y-5355D01*
Y-7345D01*
X209411Y-9182D01*
X210818Y-10589D01*
X212656Y-11350D01*
X214645D01*
X216482Y-10589D01*
X217889Y-9182D01*
X218650Y-7345D01*
Y-5355D01*
X217889Y-3518D01*
X216482Y-2111D01*
X214645Y-1350D01*
D02*
G37*
%LPD*%
G36*
X215859Y60457D02*
X216957Y59359D01*
X217550Y57926D01*
Y56374D01*
X216957Y54941D01*
X215859Y53843D01*
X214426Y53250D01*
X212874D01*
X211441Y53843D01*
X210343Y54941D01*
X209750Y56374D01*
Y57926D01*
X210343Y59359D01*
X211441Y60457D01*
X212874Y61050D01*
X214426D01*
X215859Y60457D01*
D02*
G37*
G36*
Y47757D02*
X216957Y46659D01*
X217550Y45226D01*
Y43674D01*
X216957Y42241D01*
X215859Y41143D01*
X214426Y40550D01*
X212874D01*
X211441Y41143D01*
X210343Y42241D01*
X209750Y43674D01*
Y45226D01*
X210343Y46659D01*
X211441Y47757D01*
X212874Y48350D01*
X214426D01*
X215859Y47757D01*
D02*
G37*
G36*
Y35057D02*
X216957Y33959D01*
X217550Y32526D01*
Y30974D01*
X216957Y29541D01*
X215859Y28444D01*
X214426Y27850D01*
X212874D01*
X211441Y28444D01*
X210343Y29541D01*
X209750Y30974D01*
Y32526D01*
X210343Y33959D01*
X211441Y35057D01*
X212874Y35650D01*
X214426D01*
X215859Y35057D01*
D02*
G37*
G36*
Y22357D02*
X216957Y21259D01*
X217550Y19826D01*
Y18274D01*
X216957Y16841D01*
X215859Y15743D01*
X214426Y15150D01*
X212874D01*
X211441Y15743D01*
X210343Y16841D01*
X209750Y18274D01*
Y19826D01*
X210343Y21259D01*
X211441Y22357D01*
X212874Y22950D01*
X214426D01*
X215859Y22357D01*
D02*
G37*
G36*
Y9657D02*
X216957Y8559D01*
X217550Y7126D01*
Y5574D01*
X216957Y4141D01*
X215859Y3043D01*
X214426Y2450D01*
X212874D01*
X211441Y3043D01*
X210343Y4141D01*
X209750Y5574D01*
Y7126D01*
X210343Y8559D01*
X211441Y9657D01*
X212874Y10250D01*
X214426D01*
X215859Y9657D01*
D02*
G37*
G36*
Y-3043D02*
X216957Y-4141D01*
X217550Y-5574D01*
Y-7126D01*
X216957Y-8559D01*
X215859Y-9657D01*
X214426Y-10250D01*
X212874D01*
X211441Y-9657D01*
X210343Y-8559D01*
X209750Y-7126D01*
Y-5574D01*
X210343Y-4141D01*
X211441Y-3043D01*
X212874Y-2450D01*
X214426D01*
X215859Y-3043D01*
D02*
G37*
D12*
X-128648Y207438D02*
G03*
X-128649Y207437I1098J-1672D01*
G01*
X-193368Y148962D02*
G03*
X-193370Y148960I1615J-1180D01*
G01*
X-184034Y160351D02*
G03*
X-184036Y160348I1468J-1358D01*
G01*
X-194703Y135801D02*
G03*
X-186582Y133851I4703J1699D01*
G01*
X-89413Y227126D02*
G03*
X-89522Y227083I680J-1881D01*
G01*
X-89410Y227127D02*
G03*
X-89413Y227126I678J-1882D01*
G01*
X-61637Y236182D02*
G03*
X-61750Y236152I450J-1949D01*
G01*
X-61634Y236182D02*
G03*
X-61637Y236182I447J-1949D01*
G01*
X-47505Y239424D02*
G03*
X-47508Y239424I445J-1950D01*
G01*
X-47390Y239447D02*
G03*
X-47505Y239424I330J-1973D01*
G01*
X-47879Y242423D02*
G03*
X-48169Y242366I818J-4949D01*
G01*
X-90422Y229968D02*
G03*
X-90711Y229855I1689J-4723D01*
G01*
X-33284Y244854D02*
G03*
X-33604Y244810I519J-4989D01*
G01*
X-32976Y241854D02*
G03*
X-33094Y241838I211J-1989D01*
G01*
X-76504Y234965D02*
G03*
X-76779Y234876I1409J-4814D01*
G01*
X-75658Y232070D02*
G03*
X-75772Y232033I563J-1919D01*
G01*
X-62321Y239119D02*
G03*
X-62600Y239046I1133J-4886D01*
G01*
X-115913Y214814D02*
G03*
X-116004Y214764I905J-1784D01*
G01*
X-115912Y214814D02*
G03*
X-115913Y214814I904J-1784D01*
G01*
X-128550Y207499D02*
G03*
X-128648Y207438I999J-1732D01*
G01*
X-140740Y199432D02*
G03*
X-140837Y199363I1104J-1668D01*
G01*
X-152427Y190649D02*
G03*
X-152511Y190581I1207J-1594D01*
G01*
X-172474Y172644D02*
G03*
X-172636Y172467I1390J-1438D01*
G01*
X-172472Y172645D02*
G03*
X-172474Y172644I1389J-1439D01*
G01*
X-163560Y181188D02*
G03*
X-163645Y181111I1297J-1522D01*
G01*
X-174440Y170461D02*
G03*
X-172636Y172467I-17960J17960D01*
G01*
X-184036Y160348D02*
G03*
X-184107Y160268I1471J-1355D01*
G01*
X-195117Y146547D02*
G03*
X-195448Y145829I1615J-1180D01*
G01*
X-193300Y149050D02*
G03*
X-193368Y148962I1547J-1268D01*
G01*
X-196447Y141569D02*
G03*
X-196381Y140447I1949J-448D01*
G01*
X-102847Y221367D02*
G03*
X-102950Y221319I795J-1835D01*
G01*
X-104118Y224104D02*
G03*
X-104219Y224057I792J-1836D01*
G01*
X-111344Y220481D02*
G03*
X-111348Y220479I897J-1788D01*
G01*
X-117348Y217468D02*
G03*
X-117430Y217424I902J-1785D01*
G01*
X-117265Y217510D02*
G03*
X-117272Y217506I1353J-2696D01*
G01*
X-130148Y210058D02*
G03*
X-130238Y210002I1008J-1727D01*
G01*
X-139152Y204100D02*
G03*
X-139156Y204098I1104J-1668D01*
G01*
X-142396Y201952D02*
G03*
X-142649Y201774I2761J-4188D01*
G01*
X-154314Y193003D02*
G03*
X-154394Y192939I1209J-1593D01*
G01*
X-154312Y193004D02*
G03*
X-154314Y193003I1207J-1594D01*
G01*
X-165520Y183480D02*
G03*
X-165725Y183295I3257J-3815D01*
G01*
X-176261Y173191D02*
G03*
X-176345Y173105I1384J-1444D01*
G01*
X-186309Y162332D02*
G03*
X-186388Y162242I1468J-1358D01*
G01*
X-195690Y150892D02*
G03*
X-195763Y150797I1547J-1268D01*
G01*
X-183803Y133803D02*
G03*
X-186582Y133851I-1414J-1414D01*
G01*
X-199216Y146027D02*
G03*
X-199597Y144854I1620J-1173D01*
G01*
X60750Y157000D02*
X66000Y162250D01*
X32000Y157000D02*
X60750D01*
X19484Y119180D02*
Y165820D01*
Y119180D02*
X24180Y114484D01*
X22500Y120429D02*
Y164571D01*
Y120429D02*
X25429Y117500D01*
X27936Y122936D02*
X31936D01*
X27500Y122500D02*
X27936Y122936D01*
X27500Y147500D02*
X32500Y142500D01*
X-37765Y112500D02*
X-37500D01*
X-88016Y62249D02*
X-37765Y112500D01*
X-110000Y202500D02*
X-96500Y189000D01*
X-83929D01*
X-79945Y192984D02*
X-72249D01*
X-83929Y189000D02*
X-79945Y192984D01*
X-72249D02*
X-62500Y183235D01*
Y117500D02*
Y183235D01*
X-85328Y194000D02*
X-83328Y196000D01*
X-71000D01*
X-59484Y184484D01*
X-86000Y194000D02*
X-85328D01*
X-59484Y115516D02*
Y184484D01*
X-91032Y83968D02*
X-59484Y115516D01*
X77500Y132500D02*
Y148571D01*
X35000Y126000D02*
X71000D01*
X77500Y132500D01*
X80822Y151893D02*
X90821D01*
X77500Y148571D02*
X80822Y151893D01*
X30765Y117500D02*
X36249Y122984D01*
X32015Y114484D02*
X37499Y119968D01*
X46281Y122984D02*
X77500Y91765D01*
X36249Y122984D02*
X46281D01*
X45032Y119968D02*
X52253Y112747D01*
X37499Y119968D02*
X45032D01*
X31936Y122936D02*
X35000Y126000D01*
X25429Y117500D02*
X30765D01*
X24180Y114484D02*
X32015D01*
X105214Y137500D02*
X126500D01*
X90821Y151893D02*
X105214Y137500D01*
X-80000Y10016D02*
X-45016Y45000D01*
X-80000Y-22500D02*
Y10016D01*
X-85000Y-27500D02*
X-80000Y-22500D01*
X112929Y50000D02*
X130000D01*
X77500Y85429D02*
X112929Y50000D01*
X77500Y85429D02*
Y91765D01*
X52253Y73590D02*
Y112747D01*
X-199597Y134597D02*
X-194000Y129000D01*
X-187000D02*
X-178000Y120000D01*
X-194000Y129000D02*
X-187000D01*
X-178000Y120000D02*
X-170429D01*
X-152427Y190649D02*
X-152427Y190649D01*
X-61637Y236182D02*
X-61634Y236182D01*
X-152511Y190581D02*
X-152511Y190581D01*
X-115913Y214814D02*
X-115912Y214814D01*
X-172474Y172644D02*
X-172472Y172645D01*
X-47508Y239424D02*
X-47505Y239424D01*
X-183803Y133803D02*
X-180000Y130000D01*
X-25193Y245714D02*
X-22211Y246030D01*
X-21172D01*
X-20000Y244859D01*
Y230016D02*
Y244859D01*
X-28672Y242201D02*
X-27500Y241029D01*
X-32976Y241854D02*
X-29711Y242201D01*
X-27500Y230000D02*
Y241029D01*
X-29711Y242201D02*
X-28672D01*
X-102847Y221367D02*
X-89522Y227083D01*
X-61634Y236182D02*
X-47508Y239424D01*
X-88993Y227277D02*
X-75772Y232033D01*
X-89410Y227127D02*
X-88993Y227277D01*
X-33284Y244854D02*
X-25193Y245714D01*
X-76504Y234965D02*
X-62600Y239046D01*
X-91253Y229622D02*
X-90711Y229855D01*
X-47390Y239447D02*
X-33094Y241838D01*
X-75658Y232070D02*
X-61750Y236152D01*
X-62321Y239119D02*
X-48169Y242366D01*
X-47879Y242423D02*
X-33604Y244810D01*
X-96407Y227411D02*
X-91253Y229622D01*
X-90422Y229968D02*
X-76779Y234876D01*
X-115912Y214814D02*
X-112687Y216433D01*
X-116005Y214764D02*
X-116004Y214764D01*
X-128550Y207499D02*
X-116005Y214764D01*
X-128649Y207437D02*
X-128648Y207438D01*
X-140002Y199921D02*
X-128649Y207437D01*
X-140740Y199432D02*
X-140010Y199915D01*
X-140010Y199915D02*
X-140002Y199921D01*
X-152427Y190649D02*
X-140837Y199363D01*
X-172472Y172645D02*
X-163645Y181111D01*
X-156767Y186963D02*
X-152511Y190581D01*
X-163560Y181188D02*
X-156767Y186963D01*
X-177675Y167225D02*
X-174440Y170461D01*
X-184034Y160351D02*
X-177675Y167225D01*
X-184036Y160348D02*
X-184034Y160351D01*
X-193370Y148960D02*
X-193368Y148962D01*
X-195117Y146547D02*
X-193370Y148960D01*
X-196447Y141569D02*
X-195448Y145829D01*
X-196381Y140447D02*
X-194703Y135801D01*
X-104118Y224104D02*
X-96407Y227411D01*
X-112687Y216433D02*
X-102950Y221319D01*
X-117265Y217510D02*
X-111348Y220479D01*
X-111344Y220481D02*
X-104219Y224057D01*
X-117348Y217468D02*
X-117272Y217506D01*
X-130148Y210058D02*
X-117444Y217416D01*
X-117430Y217424D01*
X-135194Y206721D02*
X-130238Y210002D01*
X-139152Y204100D02*
X-135194Y206721D01*
X-142396Y201952D02*
X-139156Y204098D01*
X-165520Y183480D02*
X-156422Y191215D01*
X-154395Y192938D01*
X-154312Y193004D02*
X-152911Y194058D01*
X-142649Y201774D01*
X-154395Y192938D02*
X-154394Y192939D01*
X-174799Y174593D02*
X-165725Y183295D01*
X-176261Y173191D02*
X-174799Y174593D01*
X-186309Y162332D02*
X-176345Y173105D01*
X-195690Y150892D02*
X-186388Y162242D01*
X-188706Y154655D02*
X-184107Y160268D01*
X-199216Y146027D02*
X-195763Y150797D01*
X-181611Y138389D02*
X-168000Y152000D01*
X-193300Y149050D02*
X-188706Y154655D01*
X-199597Y134597D02*
Y144854D01*
X-170429Y120000D02*
X-167500Y122929D01*
Y124188D01*
X-165000Y126688D01*
Y127500D01*
X-180213Y144787D02*
X-169984Y155016D01*
X-113016D01*
X-189357Y144787D02*
X-180213D01*
X-113016Y155016D02*
X-110500Y152500D01*
X-87500D01*
X-115000Y152000D02*
X-110889Y147889D01*
X-107889D01*
X-168000Y152000D02*
X-115000D01*
X-107889Y147889D02*
X-107500Y147500D01*
X93000Y-130235D02*
Y-106000D01*
X-130000Y171000D02*
X-125000Y176000D01*
X-106000D01*
X-88000Y158000D01*
X-85929D01*
X-37500Y97500D02*
X-32500Y92500D01*
X40945Y170516D02*
X42929Y172500D01*
X143543D02*
X179472Y136571D01*
X42929Y172500D02*
X143543D01*
X172500Y117500D02*
X179472Y124472D01*
Y136571D01*
X24180Y170516D02*
X40945D01*
X19484Y165820D02*
X24180Y170516D01*
X45164Y66500D02*
X52253Y73590D01*
X38429Y66500D02*
X45164D01*
X31929Y60000D02*
X38429Y66500D01*
X22500Y60000D02*
X31929D01*
X48001Y65072D02*
X57929Y75000D01*
X48001Y57002D02*
Y65072D01*
X37500Y46500D02*
X48001Y57002D01*
X86035Y-50964D02*
X94000Y-43000D01*
X86035Y-51035D02*
Y-50964D01*
X60000Y-95000D02*
Y70000D01*
X33500Y-121500D02*
X60000Y-95000D01*
X94000Y-43000D02*
Y-17000D01*
X92500Y-135000D02*
X98308D01*
X102500Y-140000D02*
Y-139192D01*
X98308Y-135000D02*
X102500Y-139192D01*
X-7000Y-140000D02*
X95000D01*
X-4502Y-133968D02*
X89267D01*
X93000Y-130235D01*
X90516Y-136984D02*
X92500Y-135000D01*
X-5751Y-136984D02*
X90516D01*
X-114984Y-27751D02*
X-5751Y-136984D01*
X126984Y-10016D02*
Y30751D01*
X125000Y-17071D02*
Y-12000D01*
X126984Y-10016D01*
X125000Y-17071D02*
X127929Y-20000D01*
X139571D02*
X153998Y-5573D01*
X127929Y-20000D02*
X139571D01*
X153998Y-5573D02*
Y9998D01*
X159000Y15000D01*
X82735Y75000D02*
X126984Y30751D01*
X57929Y75000D02*
X82735D01*
X130000Y-15000D02*
Y50000D01*
X32500Y142500D02*
X65000D01*
X22500Y164571D02*
X25429Y167500D01*
X45000D01*
X126500Y137500D02*
X139000Y125000D01*
X-114984Y-27751D02*
Y-15249D01*
X-12500Y-125969D02*
Y-119429D01*
X-118000Y-29000D02*
X-7000Y-140000D01*
X-12500Y-125969D02*
X-4502Y-133968D01*
X-12500Y-119429D02*
X-9071Y-116000D01*
X-6000D01*
X7500Y-102500D01*
X-118000Y-29000D02*
Y-14000D01*
X-85929Y158000D02*
X-82500Y154571D01*
Y140429D02*
Y154571D01*
X-85429Y137500D02*
X-82500Y140429D01*
X-89571Y137500D02*
X-85429D01*
X-144999Y82072D02*
X-89571Y137500D01*
X-155143Y82072D02*
X-144999D01*
X94000Y-17000D02*
X101000Y-10000D01*
X-7500Y-121500D02*
X33500D01*
X-109984Y-17500D02*
X-109426Y-16942D01*
X-114984Y-15249D02*
X-91032Y8703D01*
X-109426Y-16942D02*
Y-14426D01*
X-118000Y-14000D02*
X-94048Y9952D01*
X-88016Y6984D02*
Y62249D01*
X-109426Y-14426D02*
X-88016Y6984D01*
X-91032Y8703D02*
Y83968D01*
X-94048Y9952D02*
Y85952D01*
X-62500Y117500D01*
X-85000Y14704D02*
X-84952Y14752D01*
X-85000Y-17500D02*
Y14704D01*
X-84952Y61048D02*
X-48500Y97500D01*
X-84952Y14752D02*
Y61048D01*
X139000Y125000D02*
X164000D01*
X-48500Y97500D02*
X-37500D01*
X-144713Y57787D02*
X-127500Y75000D01*
X-144713Y22787D02*
Y57787D01*
X-162500Y5000D02*
X-144713Y22787D01*
X-127500Y75000D02*
Y92500D01*
D55*
X64195Y-67000D02*
X110000Y-112805D01*
X64195Y-67000D02*
Y-19305D01*
X73500Y-10000D01*
X110000Y-124786D02*
Y-112805D01*
D56*
X34032Y109000D02*
X40000Y114968D01*
X20000Y109000D02*
X34032D01*
X82500Y146500D02*
X89143D01*
X112500Y132500D02*
X122500D01*
X103143D02*
X112500D01*
Y122500D02*
Y132500D01*
X89143Y146500D02*
X103143Y132500D01*
X12638Y101638D02*
X20000Y109000D01*
X12638Y27638D02*
Y101638D01*
Y27638D02*
X27500Y12776D01*
Y-40000D02*
Y12776D01*
X22500Y-45000D02*
X27500Y-40000D01*
X-75000Y-45000D02*
X22500D01*
X-85000Y-35000D02*
X-75000Y-45000D01*
X-85000Y-35000D02*
Y-27500D01*
X-7500Y135000D02*
Y153308D01*
X15000Y175808D01*
Y207714D01*
X11423Y204138D02*
X15000Y207714D01*
X-75000Y204138D02*
X11423D01*
X-85000Y120000D02*
Y122500D01*
Y120000D02*
X-77500Y112500D01*
X112500Y122500D02*
X122500Y112500D01*
Y102500D02*
Y112500D01*
Y90000D02*
Y102500D01*
X102500Y87500D02*
X120000D01*
X82500D02*
X102500D01*
X120000D02*
X122500Y90000D01*
D57*
X85000Y-170000D02*
D03*
X115000D02*
D03*
D58*
X200000Y-73050D02*
D03*
Y73050D02*
D03*
X-200000Y-73050D02*
D03*
Y73050D02*
D03*
X200000Y-73050D02*
D03*
Y73050D02*
D03*
X-200000Y-73050D02*
D03*
Y73050D02*
D03*
D59*
X-134714Y130285D02*
D03*
D60*
X-155143Y82072D02*
D03*
X-165286Y89715D02*
D03*
X-147500Y92214D02*
D03*
X-157643Y99857D02*
D03*
X-139857Y102357D02*
D03*
X-150000Y110000D02*
D03*
X-132214Y112500D02*
D03*
X-142357Y120143D02*
D03*
X-124571Y122642D02*
D03*
D61*
X80000Y117500D02*
D03*
X66000Y162250D02*
D03*
X27500Y122500D02*
D03*
X40000Y114968D02*
D03*
Y135000D02*
D03*
X27500Y147500D02*
D03*
X82500Y187500D02*
D03*
X-22335Y193829D02*
D03*
X-45000Y230016D02*
D03*
X147000Y160000D02*
D03*
X140000Y162500D02*
D03*
X132500D02*
D03*
X-45262Y162762D02*
D03*
X-50000Y167500D02*
D03*
X-40000D02*
D03*
X-35000Y162500D02*
D03*
X-74000Y127000D02*
D03*
X-37500Y112500D02*
D03*
X-47500D02*
D03*
X-27500D02*
D03*
X-18000Y86000D02*
D03*
X-40096Y-17500D02*
D03*
X-110000Y202500D02*
D03*
X-75000Y187500D02*
D03*
X-86000Y194000D02*
D03*
X-77500Y180000D02*
D03*
X72500Y135000D02*
D03*
X82500Y146500D02*
D03*
X65000Y90000D02*
D03*
X32000Y157000D02*
D03*
X-124000Y146043D02*
D03*
X137500Y-132500D02*
D03*
X89984Y-57000D02*
D03*
X-147143Y-115000D02*
D03*
Y-122036D02*
D03*
X-34786Y70000D02*
D03*
X37500Y101500D02*
D03*
X22500Y101500D02*
D03*
X20000Y10000D02*
D03*
X22000Y48500D02*
D03*
X70000Y-45000D02*
D03*
X-85000Y-35000D02*
D03*
Y-27500D02*
D03*
X65000Y135000D02*
D03*
X-81000Y128000D02*
D03*
X-75000Y160000D02*
D03*
X-177500D02*
D03*
X-207500Y122500D02*
D03*
X-215000Y70000D02*
D03*
X-200000Y87500D02*
D03*
X-212500D02*
D03*
X-172500Y125000D02*
D03*
X-180000Y130000D02*
D03*
X-190000Y137500D02*
D03*
X-181611Y138389D02*
D03*
X-164179Y119179D02*
D03*
X-107090Y157500D02*
D03*
X-107500Y137500D02*
D03*
Y147500D02*
D03*
X-155000Y180000D02*
D03*
X80000Y218000D02*
D03*
X90000Y222500D02*
D03*
X100000Y217500D02*
D03*
X207484Y95500D02*
D03*
X166000Y135000D02*
D03*
X122500Y142500D02*
D03*
X132500Y-114984D02*
D03*
X130000Y-107500D02*
D03*
X141000Y-108000D02*
D03*
X109000Y-95000D02*
D03*
X93000Y-106000D02*
D03*
X102500Y-131234D02*
D03*
X-107469Y167500D02*
D03*
X160000Y181000D02*
D03*
X-32500Y92500D02*
D03*
X-42500D02*
D03*
X-2361Y127639D02*
D03*
X-13641Y92500D02*
D03*
X-75000Y204138D02*
D03*
X-7500Y135000D02*
D03*
X150000Y137000D02*
D03*
X166000Y142000D02*
D03*
X22500Y60000D02*
D03*
X86500Y20000D02*
D03*
X73332Y24582D02*
D03*
X75000Y-50000D02*
D03*
X83000Y-121000D02*
D03*
X86035Y-51035D02*
D03*
X87543Y-33207D02*
D03*
X80000Y-105000D02*
D03*
X60000D02*
D03*
X73500Y-10000D02*
D03*
X102500Y-140000D02*
D03*
X95000D02*
D03*
X-170000Y-104000D02*
D03*
X-187500Y-130000D02*
D03*
X60000Y70000D02*
D03*
X37500Y46500D02*
D03*
X130000Y50000D02*
D03*
X172500Y125000D02*
D03*
X-107500Y100000D02*
D03*
X-130000Y171000D02*
D03*
X-87500Y152500D02*
D03*
X-27500Y145000D02*
D03*
X100000Y-70000D02*
D03*
X101000Y-55000D02*
D03*
Y-40000D02*
D03*
X-35032Y-30000D02*
D03*
X7500Y-102500D02*
D03*
X125000Y-127500D02*
D03*
X-45016Y45000D02*
D03*
X45000Y167500D02*
D03*
X-30000D02*
D03*
X-44968Y30000D02*
D03*
Y37500D02*
D03*
X-77500Y112500D02*
D03*
X-25000Y162500D02*
D03*
X-22500Y92500D02*
D03*
X-87451Y172560D02*
D03*
X-109984Y-17500D02*
D03*
X-87500Y165000D02*
D03*
X-85000Y-17500D02*
D03*
X-120000Y-127500D02*
D03*
X65000Y142500D02*
D03*
X-60000Y194000D02*
D03*
X27500Y162500D02*
D03*
X30000Y177500D02*
D03*
X122500Y132500D02*
D03*
X172490Y117490D02*
D03*
X164000Y125000D02*
D03*
X37500Y71500D02*
D03*
X140000Y65000D02*
D03*
X97500Y42500D02*
D03*
X82500Y42500D02*
D03*
X-56000Y-21000D02*
D03*
X-105639Y47060D02*
D03*
X-81000Y85000D02*
D03*
X-107500Y110000D02*
D03*
X-165000Y-80000D02*
D03*
X-109000Y52623D02*
D03*
X-75000Y136000D02*
D03*
X-87500Y132500D02*
D03*
Y142500D02*
D03*
X-162500Y5000D02*
D03*
Y12500D02*
D03*
Y20000D02*
D03*
X-130000Y-130000D02*
D03*
X-65000Y-27500D02*
D03*
Y-35000D02*
D03*
Y-20000D02*
D03*
X-20000Y230016D02*
D03*
X-27500Y230000D02*
D03*
X-12500D02*
D03*
X-5000D02*
D03*
X2500D02*
D03*
X110000Y-124786D02*
D03*
X147500Y-152500D02*
D03*
Y-145000D02*
D03*
X-32400Y-126600D02*
D03*
X-109400D02*
D03*
X-127500Y92500D02*
D03*
X34750Y-176500D02*
D03*
X22500Y71500D02*
D03*
X20000Y-5000D02*
D03*
Y2500D02*
D03*
X37500Y29500D02*
D03*
X-157500Y122500D02*
D03*
X-7500Y-121500D02*
D03*
X-161178Y162120D02*
D03*
X-85000Y122500D02*
D03*
X15000Y207714D02*
D03*
X0Y180000D02*
D03*
Y170000D02*
D03*
X-137500Y75000D02*
D03*
X-145000D02*
D03*
X210000Y-93500D02*
D03*
X102500Y122500D02*
D03*
X122500Y90000D02*
D03*
X102500Y87500D02*
D03*
X82500D02*
D03*
X110000Y147500D02*
D03*
X109050Y31181D02*
D03*
X67500Y42500D02*
D03*
X52500Y42500D02*
D03*
X159000Y15000D02*
D03*
X101000Y-10000D02*
D03*
X10000Y-22500D02*
D03*
X-5000Y12500D02*
D03*
Y5000D02*
D03*
Y-2500D02*
D03*
X80000Y-75000D02*
D03*
X-145000Y5000D02*
D03*
X-135000D02*
D03*
X-145000Y15000D02*
D03*
X-135000D02*
D03*
X-130000Y50000D02*
D03*
Y60000D02*
D03*
X-120000Y50000D02*
D03*
Y60000D02*
D03*
X37500Y-86500D02*
D03*
X31000D02*
D03*
X24000D02*
D03*
X17500D02*
D03*
X37500Y-93500D02*
D03*
X31000D02*
D03*
X24000D02*
D03*
X17500D02*
D03*
X-157500Y-155000D02*
D03*
X-189357Y144787D02*
D03*
X122500Y180000D02*
D03*
X170000Y75000D02*
D03*
X177500D02*
D03*
X174472Y134500D02*
D03*
X122500Y122500D02*
D03*
Y112500D02*
D03*
X127500Y-53016D02*
D03*
X100000Y193500D02*
D03*
X-165000Y127500D02*
D03*
X-80000Y-152000D02*
D03*
X-98400Y-122600D02*
D03*
X-43400Y-126600D02*
D03*
X-65400D02*
D03*
X-100000Y-147500D02*
D03*
Y-155000D02*
D03*
X-54400Y-128600D02*
D03*
X130000Y-15000D02*
D03*
X-135000Y191250D02*
D03*
X185000Y75000D02*
D03*
X122500Y102500D02*
D03*
X142500Y0D02*
D03*
X137500Y5000D02*
D03*
X147500D02*
D03*
Y-5000D02*
D03*
X137500D02*
D03*
X148000Y180500D02*
D03*
Y189500D02*
D03*
X198000Y129500D02*
D03*
Y120500D02*
D03*
X178000Y159500D02*
D03*
Y150500D02*
D03*
D62*
X-213650Y57150D02*
D03*
X-186350D02*
D03*
X-213650Y44450D02*
D03*
X-186350D02*
D03*
Y19050D02*
D03*
X-213650D02*
D03*
X-186350Y31750D02*
D03*
X-213650D02*
D03*
X-186350Y-6350D02*
D03*
X-213650D02*
D03*
X-186350Y6350D02*
D03*
X-213650D02*
D03*
X-186350Y-31750D02*
D03*
X-213650D02*
D03*
X-186350Y-19050D02*
D03*
X-213650D02*
D03*
X-186350Y-57150D02*
D03*
X-213650D02*
D03*
X-186350Y-44450D02*
D03*
X-213650D02*
D03*
X186350D02*
D03*
X213650D02*
D03*
X186350Y-57150D02*
D03*
X213650D02*
D03*
X186350Y-19050D02*
D03*
X213650D02*
D03*
X186350Y-31750D02*
D03*
X213650D02*
D03*
X186350Y6350D02*
D03*
X213650D02*
D03*
X186350Y-6350D02*
D03*
X213650D02*
D03*
X186350Y31750D02*
D03*
X213650D02*
D03*
X186350Y19050D02*
D03*
X213650D02*
D03*
Y44450D02*
D03*
X186350D02*
D03*
X213650Y57150D02*
D03*
X186350D02*
D03*
D64*
X-89410Y227127D02*
D03*
X-140010Y199915D02*
D03*
X-152511Y190581D02*
D03*
X-152427Y190649D02*
D03*
D65*
X5000Y25000D02*
X20000Y10000D01*
X5000Y25000D02*
Y105000D01*
X-13143Y129357D02*
X-7500Y135000D01*
X-13143Y123143D02*
X5000Y105000D01*
X-13143Y123143D02*
Y129357D01*
M02*
