G04*
G04 #@! TF.GenerationSoftware,Altium Limited,Altium Designer,24.4.1 (13)*
G04*
G04 Layer_Physical_Order=2*
G04 Layer_Color=36540*
%FSLAX44Y44*%
%MOMM*%
G71*
G04*
G04 #@! TF.SameCoordinates,80C5A69E-986F-416B-A988-7B454DC68AB1*
G04*
G04*
G04 #@! TF.FilePolarity,Positive*
G04*
G01*
G75*
%ADD12C,0.2000*%
%ADD55C,0.3000*%
%ADD56C,0.5000*%
%ADD57C,2.0000*%
%ADD58C,1.4000*%
%ADD59P,1.4991X4X98.0*%
%ADD60C,1.0600*%
%ADD61C,0.5000*%
%ADD62C,0.7000*%
%ADD63C,0.3000*%
G36*
X13024Y231398D02*
X13030Y231397D01*
X19719Y231010D01*
X20991Y230937D01*
X21199Y230909D01*
X22248Y230768D01*
X22248Y230768D01*
X23498Y230658D01*
X50674Y226164D01*
X51937Y225956D01*
X51947Y225953D01*
X53165Y225660D01*
X53165Y225660D01*
X54384Y225399D01*
X55612Y225043D01*
X68113Y221409D01*
X69928Y219593D01*
Y180422D01*
X56530Y167024D01*
X56085Y166357D01*
X55929Y165570D01*
X55929Y165570D01*
Y155295D01*
X51547Y150913D01*
X51101Y150246D01*
X50944Y149459D01*
X50944Y149459D01*
Y132382D01*
X46767Y128204D01*
X36968D01*
X33203Y131969D01*
X32536Y132415D01*
X31749Y132571D01*
X31749Y132571D01*
X24180D01*
X24180Y132571D01*
X23393Y132415D01*
X22726Y131969D01*
X22726Y131969D01*
X18031Y127274D01*
X17585Y126607D01*
X17428Y125820D01*
X17428Y125820D01*
Y115336D01*
X13031Y110938D01*
X12585Y110271D01*
X12428Y109484D01*
X12428Y109484D01*
Y98180D01*
X12428Y98180D01*
X12585Y97393D01*
X13031Y96726D01*
X17726Y92031D01*
X17726Y92031D01*
X18393Y91585D01*
X19180Y91428D01*
X19180Y91428D01*
X25820D01*
X25820Y91428D01*
X26607Y91585D01*
X27274Y92031D01*
X31969Y96726D01*
X31969Y96726D01*
X32415Y97393D01*
X32571Y98180D01*
X32571Y98180D01*
Y104874D01*
X32594Y104896D01*
X80788D01*
X80788Y104896D01*
X81575Y105053D01*
X82242Y105499D01*
X89469Y112726D01*
X89915Y113393D01*
X90071Y114180D01*
Y139828D01*
X107672Y157429D01*
X127593D01*
X128975Y156047D01*
X128975Y156047D01*
X129642Y155601D01*
X130429Y155444D01*
X135000D01*
X135000Y155444D01*
X135787Y155601D01*
X136454Y156047D01*
X138994Y158587D01*
X139204Y158500D01*
X140796D01*
X142266Y159109D01*
X143391Y160234D01*
X144000Y161704D01*
Y163296D01*
X143391Y164766D01*
X142266Y165891D01*
X140796Y166500D01*
X139204D01*
X137734Y165891D01*
X137073Y165230D01*
X136250Y164907D01*
X135427Y165230D01*
X134766Y165891D01*
X133296Y166500D01*
X131704D01*
X130234Y165891D01*
X129109Y164766D01*
X129022Y164555D01*
X105571D01*
X104784Y164399D01*
X104118Y163953D01*
X104117Y163953D01*
X87673Y147509D01*
X86255Y147887D01*
X85891Y148766D01*
X84766Y149891D01*
X83296Y150500D01*
X81704D01*
X80234Y149891D01*
X79109Y148766D01*
X78500Y147296D01*
Y145704D01*
X79109Y144234D01*
X80234Y143109D01*
X81704Y142500D01*
X82476D01*
X82944Y141929D01*
X82944Y141929D01*
Y138408D01*
X82249Y138043D01*
X81674Y137953D01*
X72565Y147063D01*
Y150465D01*
X99535Y177435D01*
X119409D01*
X120234Y176609D01*
X121704Y176000D01*
X123296D01*
X124766Y176609D01*
X125891Y177734D01*
X126500Y179204D01*
Y180796D01*
X125891Y182266D01*
X124766Y183391D01*
X123296Y184000D01*
X121704D01*
X120234Y183391D01*
X119409Y182565D01*
X98472D01*
X97491Y182370D01*
X96658Y181814D01*
X93229Y178384D01*
X92056Y178870D01*
Y219022D01*
X92266Y219109D01*
X93391Y220234D01*
X94000Y221704D01*
Y223296D01*
X93752Y223895D01*
X94718Y224880D01*
X94821Y224840D01*
X94821Y224840D01*
X94855Y224823D01*
X95704Y224411D01*
X95723Y224403D01*
X96880Y223953D01*
X99439Y222770D01*
X99222Y221593D01*
X99181Y221490D01*
X97734Y220891D01*
X96609Y219766D01*
X96000Y218296D01*
Y216704D01*
X96609Y215234D01*
X97734Y214109D01*
X99204Y213500D01*
X100576D01*
X101004Y212893D01*
X101199Y212327D01*
X98186Y209314D01*
X98186Y209314D01*
X97630Y208482D01*
X97435Y207500D01*
X97435Y196592D01*
X96609Y195766D01*
X96000Y194296D01*
Y192704D01*
X96609Y191234D01*
X97734Y190109D01*
X99204Y189500D01*
X100796D01*
X102266Y190109D01*
X103391Y191234D01*
X104000Y192704D01*
Y194296D01*
X103391Y195766D01*
X102565Y196592D01*
X102565Y206437D01*
X109314Y213186D01*
X109870Y214018D01*
X110065Y215000D01*
Y219541D01*
X110073D01*
X109884Y220977D01*
X110475Y221604D01*
X110973Y221860D01*
X123889Y214921D01*
X136528Y207123D01*
X148679Y198581D01*
X160296Y189328D01*
X171339Y179396D01*
X181767Y168821D01*
X191544Y157640D01*
X200634Y145896D01*
X209006Y133627D01*
X216628Y120881D01*
X223474Y107700D01*
X229518Y94134D01*
X234740Y80230D01*
X239121Y66038D01*
X242644Y51610D01*
X245298Y36997D01*
X247072Y22251D01*
X247961Y7426D01*
Y-0D01*
X247961Y-6366D01*
X247308Y-19080D01*
X246003Y-31744D01*
X244050Y-44326D01*
X241454Y-56789D01*
X238222Y-69103D01*
X234363Y-81236D01*
X229886Y-93154D01*
X224803Y-104827D01*
X219128Y-116223D01*
X212876Y-127314D01*
X206063Y-138069D01*
X198708Y-148460D01*
X190828Y-158461D01*
X182446Y-168043D01*
X173584Y-177183D01*
X168974Y-181473D01*
X167113Y-182983D01*
X162862Y-185438D01*
X158264Y-187111D01*
X153446Y-187961D01*
X151000Y-187961D01*
X9216D01*
X7678Y-187655D01*
X6229Y-187055D01*
X4925Y-186184D01*
X3816Y-185075D01*
X2945Y-183771D01*
X2345Y-182322D01*
X2039Y-180784D01*
Y-180000D01*
X2029Y-179950D01*
X2037Y-179900D01*
X1988Y-178920D01*
X1952Y-178773D01*
X1952Y-178622D01*
X1569Y-176700D01*
X1492Y-176514D01*
X1453Y-176317D01*
X703Y-174506D01*
X591Y-174339D01*
X514Y-174154D01*
X-575Y-172524D01*
X-717Y-172382D01*
X-829Y-172215D01*
X-2215Y-170829D01*
X-2382Y-170718D01*
X-2524Y-170576D01*
X-4154Y-169487D01*
X-4339Y-169410D01*
X-4506Y-169298D01*
X-6317Y-168548D01*
X-6514Y-168509D01*
X-6700Y-168432D01*
X-8622Y-168050D01*
X-8773Y-168050D01*
X-8920Y-168013D01*
X-9900Y-167966D01*
X-9950Y-167973D01*
X-10000Y-167963D01*
X-169750Y-167961D01*
X-171276Y-167961D01*
X-174312Y-167629D01*
X-177292Y-166968D01*
X-180183Y-165986D01*
X-182950Y-164696D01*
X-185560Y-163112D01*
X-187983Y-161254D01*
X-190188Y-159142D01*
X-191161Y-157982D01*
X-195862Y-152243D01*
X-204624Y-140245D01*
X-212650Y-127748D01*
X-219914Y-114794D01*
X-226389Y-101428D01*
X-232054Y-87698D01*
X-236886Y-73654D01*
X-240869Y-59346D01*
X-243989Y-44825D01*
X-246234Y-30144D01*
X-247596Y-15355D01*
X-248072Y-510D01*
X-247658Y14336D01*
X-246356Y29131D01*
X-244171Y43822D01*
X-241451Y56740D01*
X-241131Y57022D01*
X-240187Y57412D01*
X-240028Y57381D01*
X-239883Y57308D01*
X-239541Y57284D01*
X-239205Y57217D01*
X-232850D01*
Y53450D01*
X-232528Y52672D01*
X-231750Y52350D01*
X-215128D01*
X-214645Y52150D01*
X-212656D01*
X-212172Y52350D01*
X-187828D01*
X-187345Y52150D01*
X-185355D01*
X-184872Y52350D01*
X-168250D01*
X-167472Y52672D01*
X-167150Y53450D01*
Y60850D01*
X-167472Y61628D01*
X-168250Y61950D01*
X-184872D01*
X-185355Y62150D01*
X-187345D01*
X-187828Y61950D01*
X-212172D01*
X-212656Y62150D01*
X-214645D01*
X-215128Y61950D01*
X-216875D01*
X-217002Y62002D01*
X-220005Y62397D01*
Y62348D01*
X-234796D01*
X-235566Y63357D01*
X-234069Y68821D01*
X-233339Y71487D01*
X-233267Y71467D01*
X-233258Y71487D01*
X-233331Y71512D01*
X-229041Y84150D01*
X-228569Y85299D01*
X-228562Y85316D01*
X-228166Y86493D01*
X-223594Y97706D01*
X-223055Y98824D01*
X-223048Y98841D01*
X-222581Y99993D01*
X-217347Y110911D01*
X-216742Y111994D01*
X-216733Y112014D01*
X-216198Y113134D01*
X-209713Y124813D01*
X-202515Y136122D01*
X-201820Y137089D01*
X-201813Y137090D01*
X-201813Y137090D01*
X-201805Y137109D01*
X-201137Y138147D01*
X-193346Y148909D01*
X-193251Y148924D01*
X-193251Y148924D01*
X-193243Y148944D01*
X-192486Y149966D01*
X-184834Y159302D01*
X-183997Y160226D01*
X-183989Y160247D01*
X-183181Y161200D01*
X-177674Y167154D01*
X-176787Y168033D01*
X-176781Y168047D01*
X-175931Y168966D01*
X-175826Y169072D01*
X-174555Y168545D01*
Y129219D01*
X-174772Y129103D01*
X-176000Y129887D01*
Y130796D01*
X-176609Y132266D01*
X-177734Y133391D01*
X-178836Y133848D01*
X-179004Y134227D01*
X-179132Y134958D01*
X-179112Y135232D01*
X-178221Y136123D01*
X-177612Y137593D01*
Y139184D01*
X-178221Y140654D01*
X-179346Y141779D01*
X-180816Y142388D01*
X-182407D01*
X-183877Y141779D01*
X-185002Y140654D01*
X-186476Y140318D01*
X-186535Y140356D01*
X-186697Y141790D01*
X-185966Y142521D01*
X-185357Y143991D01*
Y145582D01*
X-185966Y147052D01*
X-187091Y148178D01*
X-188561Y148786D01*
X-190152D01*
X-191622Y148178D01*
X-192748Y147052D01*
X-193357Y145582D01*
Y143991D01*
X-192748Y142521D01*
X-192426Y142199D01*
X-192266Y140891D01*
X-193391Y139766D01*
X-194000Y138296D01*
Y136704D01*
X-193391Y135234D01*
X-192266Y134109D01*
X-190796Y133500D01*
X-189204D01*
X-187734Y134109D01*
X-186609Y135234D01*
X-186309Y135958D01*
X-185548Y136054D01*
X-184906Y136026D01*
X-183877Y134997D01*
X-182775Y134541D01*
X-182607Y134161D01*
X-182479Y133431D01*
X-182500Y133157D01*
X-183391Y132266D01*
X-184000Y130796D01*
Y129204D01*
X-183391Y127734D01*
X-182266Y126609D01*
X-180796Y126000D01*
X-179204D01*
X-177734Y126609D01*
X-177399Y126944D01*
X-176322Y126225D01*
X-176500Y125796D01*
Y124204D01*
X-175891Y122734D01*
X-174766Y121609D01*
X-173296Y121000D01*
X-171704D01*
X-170234Y121609D01*
X-169109Y122734D01*
X-168836Y123394D01*
X-167519Y123849D01*
X-166964Y123552D01*
X-166826Y122189D01*
X-167570Y121445D01*
X-168179Y119975D01*
Y118383D01*
X-167570Y116913D01*
X-166445Y115788D01*
X-164975Y115179D01*
X-163383D01*
X-161913Y115788D01*
X-160788Y116913D01*
X-160311Y118065D01*
X-160138Y118395D01*
X-158909Y118754D01*
X-158296Y118500D01*
X-156704D01*
X-155234Y119109D01*
X-154109Y120234D01*
X-153500Y121704D01*
Y123296D01*
X-154109Y124766D01*
X-155234Y125891D01*
X-155444Y125978D01*
Y127500D01*
X-155444Y127500D01*
X-155601Y128287D01*
X-156046Y128954D01*
X-156047Y128954D01*
X-166945Y139851D01*
Y168149D01*
X-157875Y177218D01*
X-157266Y176609D01*
X-155796Y176000D01*
X-154204D01*
X-152734Y176609D01*
X-151609Y177734D01*
X-151000Y179204D01*
Y180796D01*
X-151609Y182266D01*
X-152734Y183391D01*
X-153780Y183824D01*
X-154155Y185173D01*
X-151527Y187407D01*
X-150498Y188158D01*
X-149542Y188995D01*
X-148326Y189910D01*
X-147056Y189276D01*
Y162343D01*
X-148229Y161857D01*
X-150306Y163934D01*
X-151138Y164490D01*
X-152120Y164685D01*
X-158087D01*
X-158912Y165511D01*
X-160382Y166120D01*
X-161974D01*
X-163444Y165511D01*
X-164569Y164386D01*
X-165178Y162916D01*
Y161324D01*
X-164569Y159854D01*
X-163444Y158729D01*
X-161974Y158120D01*
X-160382D01*
X-158912Y158729D01*
X-158087Y159555D01*
X-153182D01*
X-129431Y135803D01*
X-130266Y134842D01*
X-135957Y139131D01*
X-143559Y129042D01*
X-133471Y121440D01*
X-132202Y123124D01*
X-132034Y123108D01*
X-130953Y122671D01*
X-130651Y120519D01*
X-130242Y119825D01*
X-131069Y118727D01*
X-131849Y118929D01*
X-134337Y118579D01*
X-136502Y117304D01*
X-138014Y115297D01*
X-138644Y112865D01*
X-138294Y110377D01*
X-137885Y109683D01*
X-138712Y108585D01*
X-139492Y108786D01*
X-141980Y108437D01*
X-144145Y107161D01*
X-145658Y105155D01*
X-146287Y102722D01*
X-145937Y100234D01*
X-145528Y99540D01*
X-146355Y98442D01*
X-147135Y98644D01*
X-149623Y98294D01*
X-150317Y97885D01*
X-151415Y98713D01*
X-151214Y99492D01*
X-151563Y101980D01*
X-152839Y104145D01*
X-154845Y105658D01*
X-157278Y106287D01*
X-159766Y105937D01*
X-161931Y104662D01*
X-163443Y102655D01*
X-164072Y100223D01*
X-163723Y97734D01*
X-163314Y97040D01*
X-164141Y95942D01*
X-164921Y96144D01*
X-167409Y95794D01*
X-169574Y94519D01*
X-171086Y92512D01*
X-171716Y90080D01*
X-171366Y87591D01*
X-170091Y85427D01*
X-168084Y83914D01*
X-165651Y83285D01*
X-163163Y83635D01*
X-162469Y84044D01*
X-161371Y83216D01*
X-161573Y82437D01*
X-161223Y79949D01*
X-159948Y77783D01*
X-157941Y76271D01*
X-155508Y75642D01*
X-153020Y75992D01*
X-150855Y77267D01*
X-149343Y79274D01*
X-148835Y81238D01*
X-147565Y81076D01*
Y78092D01*
X-148391Y77266D01*
X-149000Y75796D01*
Y74204D01*
X-148391Y72734D01*
X-147266Y71609D01*
X-145796Y71000D01*
X-144204D01*
X-142734Y71609D01*
X-142073Y72270D01*
X-141250Y72593D01*
X-140427Y72270D01*
X-139766Y71609D01*
X-138296Y71000D01*
X-136704D01*
X-135848Y71354D01*
X-135129Y70278D01*
X-165977Y39430D01*
X-167150Y39916D01*
Y48150D01*
X-167472Y48928D01*
X-168250Y49250D01*
X-184872D01*
X-185355Y49450D01*
X-187345D01*
X-187828Y49250D01*
X-212172D01*
X-212656Y49450D01*
X-214645D01*
X-215128Y49250D01*
X-231750D01*
X-232528Y48928D01*
X-232850Y48150D01*
Y28050D01*
X-232528Y27272D01*
X-231750Y26950D01*
X-215128D01*
X-214645Y26750D01*
X-212656D01*
X-212172Y26950D01*
X-187828D01*
X-187345Y26750D01*
X-185355D01*
X-184872Y26950D01*
X-169555D01*
Y17500D01*
X-169555Y17500D01*
X-169399Y16713D01*
X-168953Y16047D01*
X-166413Y13506D01*
X-166500Y13296D01*
Y11704D01*
X-166366Y11380D01*
X-167520Y10847D01*
X-168250Y11150D01*
X-184872D01*
X-185355Y11350D01*
X-187345D01*
X-187828Y11150D01*
X-212172D01*
X-212656Y11350D01*
X-214645D01*
X-215128Y11150D01*
X-231750D01*
X-232528Y10828D01*
X-232850Y10050D01*
Y-10050D01*
X-232528Y-10828D01*
X-231750Y-11150D01*
X-215128D01*
X-214645Y-11350D01*
X-212656D01*
X-212172Y-11150D01*
X-187828D01*
X-187345Y-11350D01*
X-185355D01*
X-184872Y-11150D01*
X-168250D01*
X-167472Y-10828D01*
X-167150Y-10050D01*
Y2456D01*
X-165943Y2723D01*
X-165880Y2723D01*
X-164766Y1609D01*
X-163296Y1000D01*
X-161704D01*
X-160234Y1609D01*
X-159109Y2734D01*
X-158500Y4204D01*
Y5796D01*
X-159109Y7266D01*
X-159770Y7927D01*
X-160093Y8750D01*
X-159770Y9573D01*
X-159109Y10234D01*
X-158500Y11704D01*
Y13296D01*
X-159109Y14766D01*
X-159770Y15427D01*
X-160093Y16250D01*
X-159770Y17073D01*
X-159109Y17734D01*
X-159022Y17945D01*
X-132699D01*
X-132699Y17945D01*
X-131912Y18101D01*
X-131245Y18547D01*
X-106645Y43147D01*
X-106434Y43060D01*
X-104843D01*
X-103373Y43669D01*
X-102358Y44685D01*
X-101848Y44622D01*
X-101088Y44295D01*
Y-11601D01*
X-101103Y-11681D01*
X-101103Y-11681D01*
Y-64931D01*
X-114117Y-77944D01*
X-161522D01*
X-161609Y-77734D01*
X-162734Y-76609D01*
X-164204Y-76000D01*
X-165796D01*
X-167266Y-76609D01*
X-168391Y-77734D01*
X-169000Y-79204D01*
Y-80796D01*
X-168391Y-82266D01*
X-167266Y-83391D01*
X-165796Y-84000D01*
X-164204D01*
X-162734Y-83391D01*
X-161609Y-82266D01*
X-161522Y-82056D01*
X-115622D01*
X-115136Y-83229D01*
X-144196Y-112289D01*
X-144877Y-111609D01*
X-146347Y-111000D01*
X-147938D01*
X-149409Y-111609D01*
X-150534Y-112734D01*
X-151143Y-114204D01*
Y-115796D01*
X-150534Y-117266D01*
X-150112Y-117688D01*
X-149502Y-118518D01*
X-150112Y-119347D01*
X-150534Y-119770D01*
X-151143Y-121240D01*
Y-122831D01*
X-150534Y-124301D01*
X-149409Y-125427D01*
X-147938Y-126036D01*
X-146347D01*
X-144877Y-125427D01*
X-143752Y-124301D01*
X-143143Y-122831D01*
Y-121315D01*
X-93229Y-71401D01*
X-92056Y-71887D01*
Y-96288D01*
X-102264Y-106496D01*
X-108123D01*
X-108123Y-106496D01*
X-108910Y-106653D01*
X-109577Y-107099D01*
X-109577Y-107099D01*
X-126453Y-123975D01*
X-126899Y-124642D01*
X-127056Y-125429D01*
X-127056Y-125429D01*
Y-129571D01*
X-127056Y-129571D01*
X-126899Y-130358D01*
X-126453Y-131025D01*
X-126370Y-131108D01*
X-126319Y-131367D01*
X-125873Y-132034D01*
X-118954Y-138953D01*
X-118953Y-138954D01*
X-118287Y-139399D01*
X-117500Y-139556D01*
X-117500Y-139556D01*
X-95351D01*
X-83913Y-150994D01*
X-84000Y-151204D01*
Y-152796D01*
X-83391Y-154266D01*
X-82266Y-155391D01*
X-80796Y-156000D01*
X-79204D01*
X-77734Y-155391D01*
X-76609Y-154266D01*
X-76000Y-152796D01*
Y-151204D01*
X-76609Y-149734D01*
X-77734Y-148609D01*
X-79204Y-148000D01*
X-80796D01*
X-81006Y-148087D01*
X-92168Y-136925D01*
X-91642Y-135655D01*
X-50400D01*
X-50400Y-135655D01*
X-49613Y-135499D01*
X-48946Y-135054D01*
X-44406Y-130513D01*
X-44196Y-130600D01*
X-42604D01*
X-41134Y-129991D01*
X-40009Y-128866D01*
X-39400Y-127396D01*
Y-125804D01*
X-40009Y-124334D01*
X-41134Y-123209D01*
X-42604Y-122600D01*
X-44196D01*
X-45666Y-123209D01*
X-46791Y-124334D01*
X-47400Y-125804D01*
Y-127396D01*
X-47313Y-127606D01*
X-51251Y-131545D01*
X-63566D01*
X-63818Y-130274D01*
X-63134Y-129991D01*
X-62009Y-128866D01*
X-61400Y-127396D01*
Y-125804D01*
X-62009Y-124334D01*
X-63134Y-123209D01*
X-64604Y-122600D01*
X-66196D01*
X-67666Y-123209D01*
X-68791Y-124334D01*
X-68878Y-124544D01*
X-93733D01*
X-94438Y-123489D01*
X-94400Y-123396D01*
Y-121804D01*
X-94487Y-121594D01*
X-68547Y-95653D01*
X-68547Y-95653D01*
X-68101Y-94987D01*
X-67944Y-94200D01*
Y-39372D01*
X-66674Y-38636D01*
X-65796Y-39000D01*
X-64204D01*
X-62734Y-38391D01*
X-61609Y-37266D01*
X-61000Y-35796D01*
Y-34204D01*
X-61609Y-32734D01*
X-62270Y-32073D01*
X-62593Y-31250D01*
X-62270Y-30427D01*
X-61609Y-29766D01*
X-61000Y-28296D01*
Y-26704D01*
X-61609Y-25234D01*
X-62270Y-24573D01*
X-62593Y-23750D01*
X-62270Y-22927D01*
X-61609Y-22266D01*
X-61270Y-21448D01*
X-60000Y-21700D01*
Y-21796D01*
X-59391Y-23266D01*
X-58266Y-24391D01*
X-56796Y-25000D01*
X-55204D01*
X-53734Y-24391D01*
X-52726Y-23382D01*
X-52183Y-23453D01*
X-51455Y-23772D01*
Y-95865D01*
X-51455Y-95865D01*
X-51299Y-96652D01*
X-50854Y-97319D01*
X29650Y-177822D01*
X30317Y-178268D01*
X31103Y-178424D01*
X31217D01*
X31359Y-178766D01*
X32484Y-179891D01*
X33954Y-180500D01*
X35546D01*
X37016Y-179891D01*
X38141Y-178766D01*
X38750Y-177296D01*
Y-175704D01*
X38141Y-174234D01*
X37016Y-173109D01*
X35546Y-172500D01*
X33954D01*
X32484Y-173109D01*
X31617Y-173976D01*
X-7896Y-134463D01*
X-7409Y-133289D01*
X99022D01*
X99109Y-133500D01*
X100234Y-134625D01*
X100970Y-134930D01*
Y-136304D01*
X100234Y-136609D01*
X99573Y-137270D01*
X98750Y-137593D01*
X97927Y-137270D01*
X97266Y-136609D01*
X95796Y-136000D01*
X94204D01*
X92734Y-136609D01*
X91609Y-137734D01*
X91000Y-139204D01*
Y-140796D01*
X91609Y-142266D01*
X92734Y-143391D01*
X94204Y-144000D01*
X95796D01*
X97266Y-143391D01*
X97927Y-142730D01*
X98750Y-142407D01*
X99573Y-142730D01*
X100234Y-143391D01*
X101704Y-144000D01*
X103296D01*
X104766Y-143391D01*
X105891Y-142266D01*
X106500Y-140796D01*
Y-139204D01*
X105891Y-137734D01*
X104766Y-136609D01*
X104030Y-136304D01*
Y-134930D01*
X104766Y-134625D01*
X105891Y-133500D01*
X106500Y-132030D01*
Y-130438D01*
X105891Y-128968D01*
X104766Y-127843D01*
X103418Y-127285D01*
X103151Y-126713D01*
X102943Y-125964D01*
X104730Y-124177D01*
X106000Y-124703D01*
Y-125581D01*
X106609Y-127051D01*
X107734Y-128177D01*
X109204Y-128786D01*
X110796D01*
X112266Y-128177D01*
X113391Y-127051D01*
X114000Y-125581D01*
Y-123990D01*
X113636Y-123111D01*
X114372Y-121841D01*
X116434D01*
X121087Y-126494D01*
X121000Y-126704D01*
Y-128296D01*
X121609Y-129766D01*
X122734Y-130891D01*
X124204Y-131500D01*
X125796D01*
X127266Y-130891D01*
X128391Y-129766D01*
X129000Y-128296D01*
Y-126704D01*
X128827Y-126286D01*
X128837Y-126211D01*
X129692Y-125056D01*
X139032D01*
X139032Y-125056D01*
X139819Y-124899D01*
X140485Y-124453D01*
X147867Y-117072D01*
X199984D01*
X199984Y-117072D01*
X200771Y-116915D01*
X201437Y-116469D01*
X224453Y-93454D01*
X224454Y-93454D01*
X224899Y-92787D01*
X225056Y-92000D01*
Y97000D01*
X225056Y97000D01*
X224899Y97787D01*
X224454Y98454D01*
X211453Y111454D01*
X210787Y111899D01*
X210000Y112056D01*
X210000Y112056D01*
X195851D01*
X176768Y131139D01*
X177863Y132234D01*
X178472Y133704D01*
Y135296D01*
X177863Y136766D01*
X176738Y137891D01*
X175268Y138500D01*
X173676D01*
X172206Y137891D01*
X171081Y136766D01*
X170472Y135296D01*
Y133704D01*
X171081Y132234D01*
X172206Y131109D01*
X172219Y129848D01*
X171786Y129114D01*
X171576Y128947D01*
X170234Y128391D01*
X169109Y127266D01*
X168937Y126851D01*
X167563D01*
X167391Y127266D01*
X166266Y128391D01*
X164796Y129000D01*
X163204D01*
X162335Y128640D01*
X161065Y129382D01*
Y136642D01*
X163383Y138960D01*
X163734Y138609D01*
X165204Y138000D01*
X166796D01*
X168266Y138609D01*
X169391Y139734D01*
X170000Y141204D01*
Y142796D01*
X169391Y144266D01*
X168266Y145391D01*
X166796Y146000D01*
X165204D01*
X163734Y145391D01*
X162609Y144266D01*
X162575Y144183D01*
X162413D01*
X161431Y143987D01*
X160599Y143431D01*
X156686Y139518D01*
X156130Y138686D01*
X155935Y137704D01*
Y123489D01*
X154665Y122963D01*
X127814Y149814D01*
X126982Y150370D01*
X126000Y150565D01*
X112592D01*
X112266Y150891D01*
X110796Y151500D01*
X109204D01*
X107734Y150891D01*
X106609Y149766D01*
X106000Y148296D01*
Y146704D01*
X106609Y145234D01*
X107734Y144109D01*
X109204Y143500D01*
X110796D01*
X112266Y144109D01*
X113391Y145234D01*
X113474Y145435D01*
X118118D01*
X118860Y144165D01*
X118500Y143296D01*
Y141704D01*
X119109Y140234D01*
X120234Y139109D01*
X121704Y138500D01*
X123296D01*
X124766Y139109D01*
X125891Y140234D01*
X126500Y141704D01*
Y142076D01*
X127770Y142602D01*
X173186Y97186D01*
X174018Y96630D01*
X175000Y96435D01*
X202922D01*
X203484Y95872D01*
Y94704D01*
X203844Y93835D01*
X203103Y92565D01*
X165000D01*
X164018Y92370D01*
X163186Y91814D01*
X140372Y69000D01*
X139204D01*
X137734Y68391D01*
X136609Y67266D01*
X136000Y65796D01*
Y64204D01*
X136415Y63202D01*
Y47485D01*
X82515Y-6415D01*
X75298D01*
X74764Y-6194D01*
X71035Y-2465D01*
X69872Y-1688D01*
X68500Y-1415D01*
X23538D01*
X23012Y-145D01*
X23391Y234D01*
X24000Y1704D01*
Y3296D01*
X23391Y4766D01*
X22730Y5427D01*
X22407Y6250D01*
X22730Y7073D01*
X23391Y7734D01*
X24000Y9204D01*
Y10796D01*
X23538Y11910D01*
X37128Y25500D01*
X38296D01*
X39766Y26109D01*
X40891Y27234D01*
X41500Y28704D01*
Y30296D01*
X40891Y31766D01*
X39766Y32891D01*
X38296Y33500D01*
X36704D01*
X35234Y32891D01*
X34109Y31766D01*
X33500Y30296D01*
Y29128D01*
X18569Y14197D01*
X18144Y13561D01*
X17734Y13391D01*
X16609Y12266D01*
X16000Y10796D01*
Y9204D01*
X16609Y7734D01*
X17270Y7073D01*
X17593Y6250D01*
X17270Y5427D01*
X16609Y4766D01*
X16000Y3296D01*
Y1704D01*
X16609Y234D01*
X17270Y-427D01*
X17593Y-1250D01*
X17270Y-2073D01*
X16609Y-2734D01*
X16000Y-4204D01*
Y-5796D01*
X16609Y-7266D01*
X17734Y-8391D01*
X19204Y-9000D01*
X20796D01*
X21798Y-8585D01*
X67015D01*
X69694Y-11264D01*
X70109Y-12266D01*
X71234Y-13391D01*
X72704Y-14000D01*
X74296D01*
X75298Y-13585D01*
X84000D01*
X85372Y-13312D01*
X86535Y-12535D01*
X142535Y43465D01*
X143312Y44628D01*
X143585Y46000D01*
Y63202D01*
X144000Y64204D01*
Y65372D01*
X166063Y87435D01*
X212174D01*
X213155Y87630D01*
X213988Y88186D01*
X215814Y90012D01*
X216370Y90845D01*
X216565Y91826D01*
Y93177D01*
X217835Y93855D01*
X217929Y93793D01*
Y-14250D01*
X215128D01*
X214645Y-14050D01*
X212656D01*
X212172Y-14250D01*
X187828D01*
X187345Y-14050D01*
X185355D01*
X184872Y-14250D01*
X168250D01*
X167472Y-14572D01*
X167150Y-15350D01*
Y-60850D01*
X167472Y-61628D01*
X168250Y-61950D01*
X184872D01*
X185355Y-62150D01*
X187345D01*
X187828Y-61950D01*
X212172D01*
X212656Y-62150D01*
X214645D01*
X215128Y-61950D01*
X217929D01*
Y-89736D01*
X215173Y-92491D01*
X213755Y-92113D01*
X213391Y-91234D01*
X212266Y-90109D01*
X210796Y-89500D01*
X209204D01*
X207734Y-90109D01*
X206609Y-91234D01*
X206000Y-92704D01*
Y-94296D01*
X206087Y-94506D01*
X194649Y-105944D01*
X144478D01*
X144391Y-105734D01*
X143266Y-104609D01*
X141796Y-104000D01*
X140204D01*
X139994Y-104087D01*
X114087Y-78181D01*
Y-35431D01*
X114087Y-35431D01*
X113931Y-34644D01*
X113485Y-33977D01*
X113485Y-33977D01*
X105991Y-26483D01*
X105324Y-26037D01*
X104537Y-25880D01*
X104537Y-25880D01*
X-3152D01*
X-8666Y-20366D01*
X-8666Y-20366D01*
X-12849Y-16184D01*
Y54244D01*
X2056Y69149D01*
X19194D01*
X20234Y68109D01*
X21704Y67500D01*
X23296D01*
X24766Y68109D01*
X25891Y69234D01*
X26500Y70704D01*
Y72296D01*
X25891Y73766D01*
X24766Y74891D01*
X23296Y75500D01*
X21704D01*
X20234Y74891D01*
X19109Y73766D01*
X18899Y73260D01*
X3561D01*
X3075Y74433D01*
X9437Y80796D01*
X9438Y80796D01*
X9883Y81463D01*
X10039Y82249D01*
Y106016D01*
X10039Y106016D01*
X9883Y106803D01*
X9438Y107470D01*
X9437Y107470D01*
X-14944Y131852D01*
Y163094D01*
X-15101Y163881D01*
X-15546Y164548D01*
X-20445Y169445D01*
Y186084D01*
X-20347Y187325D01*
X-20345Y187329D01*
X-20413Y188571D01*
X-20368Y190314D01*
X-20069Y190438D01*
X-18944Y191563D01*
X-18335Y193033D01*
Y194624D01*
X-18944Y196094D01*
X-20069Y197220D01*
X-20948Y197584D01*
X-21326Y199002D01*
X2542Y222869D01*
X2597Y222847D01*
X2703Y222891D01*
X2720Y222941D01*
X3801Y223095D01*
X4331Y223165D01*
X6038Y223872D01*
X7504Y224996D01*
X8628Y226462D01*
X9335Y228169D01*
X9390Y228584D01*
X9603Y229778D01*
X9609Y229780D01*
X9651Y229882D01*
X10750Y230725D01*
X11767Y231375D01*
X11777Y231371D01*
X11846Y231399D01*
X13024Y231398D01*
D02*
G37*
G36*
X-48721Y231486D02*
X-49000Y230812D01*
Y229220D01*
X-48391Y227750D01*
X-47266Y226625D01*
X-45796Y226016D01*
X-44204D01*
X-42734Y226625D01*
X-41609Y227750D01*
X-41000Y229220D01*
Y230096D01*
X-40838Y230911D01*
X-39913Y231480D01*
X-39538Y231546D01*
X-37605Y231870D01*
X-36348Y231987D01*
X-36347Y231988D01*
X-35102Y232174D01*
X-33780Y232304D01*
X-33778Y232305D01*
X-33347Y232336D01*
X-33333Y232342D01*
X-33303Y232384D01*
X-32056Y232462D01*
X-31251Y231398D01*
X-31500Y230796D01*
Y229204D01*
X-30891Y227734D01*
X-29766Y226609D01*
X-29555Y226522D01*
Y217912D01*
X-54881Y192587D01*
X-55834Y193113D01*
X-56000Y193264D01*
Y194796D01*
X-56609Y196266D01*
X-57734Y197391D01*
X-59204Y198000D01*
X-60796D01*
X-62266Y197391D01*
X-63391Y196266D01*
X-64000Y194796D01*
Y193204D01*
X-63391Y191734D01*
X-62266Y190609D01*
X-60796Y190000D01*
X-59264D01*
X-59113Y189834D01*
X-58587Y188881D01*
X-69597Y177871D01*
X-70043Y177204D01*
X-70199Y176417D01*
X-70199Y176417D01*
Y138182D01*
X-71469Y137929D01*
X-71609Y138266D01*
X-72734Y139391D01*
X-74204Y140000D01*
X-75796D01*
X-77266Y139391D01*
X-78391Y138266D01*
X-78478Y138055D01*
X-82649D01*
X-83546Y138954D01*
X-83575Y138972D01*
X-84058Y140113D01*
X-83945Y140631D01*
X-83500Y141704D01*
Y143296D01*
X-84109Y144766D01*
X-85234Y145891D01*
X-86704Y146500D01*
X-88296D01*
X-89766Y145891D01*
X-90891Y144766D01*
X-91500Y143296D01*
Y141704D01*
X-91144Y140844D01*
X-91767Y139797D01*
X-93037Y139694D01*
X-97296Y143954D01*
X-97963Y144399D01*
X-98750Y144556D01*
X-98750Y144556D01*
X-103128D01*
X-103864Y145826D01*
X-103500Y146704D01*
Y148296D01*
X-104109Y149766D01*
X-105234Y150891D01*
X-106704Y151500D01*
X-108296D01*
X-109766Y150891D01*
X-110891Y149766D01*
X-111500Y148296D01*
Y146704D01*
X-110891Y145234D01*
X-110962Y144548D01*
X-111215Y143763D01*
X-113481Y141497D01*
X-115101Y141320D01*
X-115234Y141454D01*
X-115901Y141899D01*
X-116688Y142056D01*
X-116688Y142056D01*
X-120535D01*
X-121061Y143326D01*
X-120609Y143777D01*
X-120000Y145247D01*
Y146839D01*
X-120075Y147019D01*
X-111738Y155355D01*
X-110531D01*
X-110481Y155234D01*
X-109356Y154109D01*
X-107885Y153500D01*
X-106294D01*
X-104824Y154109D01*
X-103699Y155234D01*
X-103090Y156704D01*
Y158296D01*
X-103699Y159766D01*
X-104824Y160891D01*
X-106294Y161500D01*
X-107885D01*
X-109356Y160891D01*
X-110481Y159766D01*
X-110605Y159466D01*
X-112590D01*
X-113376Y159309D01*
X-114043Y158864D01*
X-122963Y149943D01*
X-123204Y150043D01*
X-124796D01*
X-126266Y149434D01*
X-127391Y148309D01*
X-127755Y147430D01*
X-129173Y147053D01*
X-142944Y160824D01*
Y189727D01*
X-141339Y191332D01*
X-141085Y191446D01*
X-140945Y191544D01*
X-140786Y191609D01*
X-140270Y191951D01*
X-139000Y191268D01*
Y190454D01*
X-138391Y188984D01*
X-137266Y187859D01*
X-135796Y187250D01*
X-134204D01*
X-132734Y187859D01*
X-131609Y188984D01*
X-131000Y190454D01*
Y192046D01*
X-131609Y193516D01*
X-132734Y194641D01*
X-133452Y194938D01*
X-133590Y196370D01*
X-120153Y205259D01*
X-119052Y205881D01*
X-119044Y205884D01*
X-117998Y206593D01*
X-116898Y207230D01*
X-114171Y208810D01*
X-114140Y208825D01*
X-113027Y209370D01*
X-113027Y209370D01*
X-111924Y209990D01*
X-93853Y218539D01*
X-92729Y218976D01*
X-92102Y219181D01*
X-91727Y219336D01*
X-91586Y219387D01*
X-91538Y219404D01*
X-91442Y219419D01*
X-70502Y227083D01*
X-69304Y227521D01*
X-68101Y227868D01*
X-68101Y227868D01*
X-67214Y228157D01*
X-66896Y228260D01*
X-49649Y232563D01*
X-48721Y231486D01*
D02*
G37*
G36*
X-19056Y161932D02*
Y133027D01*
X-19105Y132929D01*
X-20265Y132056D01*
X-20265Y132056D01*
X-38088D01*
X-38944Y132912D01*
Y143149D01*
X-24121Y157972D01*
X-23675Y158639D01*
X-23658Y158727D01*
X-22734Y159109D01*
X-21609Y160234D01*
X-21000Y161704D01*
Y161946D01*
X-19772Y162494D01*
X-19056Y161932D01*
D02*
G37*
G36*
X-78391Y133734D02*
X-77266Y132609D01*
X-75796Y132000D01*
X-75700D01*
X-75447Y130730D01*
X-76266Y130391D01*
X-77391Y129266D01*
X-78000Y127796D01*
Y126204D01*
X-77391Y124734D01*
X-76266Y123609D01*
X-76055Y123522D01*
Y121466D01*
X-76055Y121466D01*
X-75899Y120679D01*
X-75454Y120013D01*
X-73215Y117774D01*
Y115668D01*
X-74485Y115142D01*
X-75234Y115891D01*
X-76704Y116500D01*
X-78296D01*
X-79766Y115891D01*
X-80891Y114766D01*
X-81500Y113296D01*
Y111704D01*
X-80891Y110234D01*
X-79766Y109109D01*
X-78296Y108500D01*
X-76704D01*
X-75234Y109109D01*
X-74485Y109858D01*
X-73215Y109332D01*
Y4263D01*
X-89771Y-12293D01*
X-90944Y-11807D01*
Y125338D01*
X-87783Y128500D01*
X-86704D01*
X-85234Y129109D01*
X-84109Y130234D01*
X-83500Y131704D01*
Y133296D01*
X-82394Y133945D01*
X-78478D01*
X-78391Y133734D01*
D02*
G37*
G36*
X-117571Y134180D02*
X-117571Y134180D01*
X-117415Y133393D01*
X-116969Y132726D01*
X-112274Y128031D01*
X-111607Y127585D01*
X-110820Y127429D01*
X-108866D01*
X-104103Y122666D01*
Y104056D01*
X-104732Y103687D01*
X-105373Y103449D01*
X-106704Y104000D01*
X-108296D01*
X-109766Y103391D01*
X-110891Y102266D01*
X-111500Y100796D01*
Y99204D01*
X-110891Y97734D01*
X-110067Y96910D01*
X-109991Y95626D01*
X-110053Y95353D01*
X-132778Y72629D01*
X-133855Y73348D01*
X-133500Y74204D01*
Y75796D01*
X-134109Y77266D01*
X-135234Y78391D01*
X-136704Y79000D01*
X-138296D01*
X-139766Y78391D01*
X-140427Y77730D01*
X-141250Y77407D01*
X-142073Y77730D01*
X-142435Y78092D01*
Y81437D01*
X-135686Y88186D01*
X-135130Y89018D01*
X-134935Y90000D01*
Y91437D01*
X-132673Y93699D01*
X-132107Y93504D01*
X-131500Y93076D01*
Y91704D01*
X-130891Y90234D01*
X-129766Y89109D01*
X-128296Y88500D01*
X-126704D01*
X-125234Y89109D01*
X-124109Y90234D01*
X-123500Y91704D01*
Y93296D01*
X-124109Y94766D01*
X-125234Y95891D01*
X-126704Y96500D01*
X-128076D01*
X-128504Y97107D01*
X-128699Y97673D01*
X-128186Y98186D01*
X-127630Y99018D01*
X-127435Y100000D01*
Y101437D01*
X-120686Y108186D01*
X-120130Y109018D01*
X-119935Y110000D01*
Y111437D01*
X-114186Y117186D01*
X-113630Y118018D01*
X-113435Y119000D01*
Y126000D01*
X-113630Y126982D01*
X-114186Y127814D01*
X-123143Y136771D01*
X-122657Y137944D01*
X-117571D01*
Y134180D01*
D02*
G37*
G36*
X-36136Y94174D02*
X-36500Y93296D01*
Y91704D01*
X-35891Y90234D01*
X-34766Y89109D01*
X-33296Y88500D01*
X-31704D01*
X-30234Y89109D01*
X-29109Y90234D01*
X-28500Y91704D01*
Y93296D01*
X-28855Y94152D01*
X-27778Y94871D01*
X-26413Y93506D01*
X-26500Y93296D01*
Y91704D01*
X-25891Y90234D01*
X-24766Y89109D01*
X-23296Y88500D01*
X-21704D01*
X-20234Y89109D01*
X-19109Y90234D01*
X-18758Y91082D01*
X-17383D01*
X-17032Y90234D01*
X-15907Y89109D01*
X-14437Y88500D01*
X-12845D01*
X-11849Y88913D01*
X-10632Y88448D01*
X-10425Y88263D01*
X-10393Y88105D01*
X-41469Y57029D01*
X-41915Y56362D01*
X-42071Y55575D01*
X-42071Y55575D01*
Y49372D01*
X-43341Y48636D01*
X-44220Y49000D01*
X-45812D01*
X-46691Y48636D01*
X-47961Y49372D01*
Y90253D01*
X-47428Y90667D01*
X-45903Y90264D01*
X-45891Y90234D01*
X-44766Y89109D01*
X-43296Y88500D01*
X-41704D01*
X-40234Y89109D01*
X-39109Y90234D01*
X-38500Y91704D01*
Y93296D01*
X-38864Y94174D01*
X-38128Y95444D01*
X-36872D01*
X-36136Y94174D01*
D02*
G37*
G36*
X-104103Y94585D02*
Y54573D01*
X-105373Y54321D01*
X-105609Y54889D01*
X-106734Y56014D01*
X-108204Y56623D01*
X-109796D01*
X-111266Y56014D01*
X-112391Y54889D01*
X-113000Y53419D01*
Y51828D01*
X-112391Y50358D01*
X-111266Y49232D01*
X-110451Y48895D01*
X-109639Y47856D01*
Y46264D01*
X-109552Y46054D01*
X-133550Y22055D01*
X-159022D01*
X-159109Y22266D01*
X-160234Y23391D01*
X-161704Y24000D01*
X-163296D01*
X-164174Y23636D01*
X-165445Y24372D01*
Y34149D01*
X-106047Y93546D01*
X-106046Y93546D01*
X-105601Y94213D01*
X-105444Y95000D01*
Y95223D01*
X-105358Y95356D01*
X-104103Y94585D01*
D02*
G37*
G36*
X-168250Y53450D02*
X-231750D01*
Y60850D01*
X-168250D01*
Y53450D01*
D02*
G37*
G36*
Y37157D02*
X-168953Y36453D01*
X-169399Y35787D01*
X-169425Y35656D01*
X-169555Y35000D01*
X-169555Y35000D01*
Y28050D01*
X-231750D01*
Y48150D01*
X-168250D01*
Y37157D01*
D02*
G37*
G36*
Y-10050D02*
X-231750D01*
Y10050D01*
X-168250D01*
Y-10050D01*
D02*
G37*
G36*
X-45764Y33500D02*
X-44172D01*
X-43962Y33587D01*
X-35055Y24681D01*
Y-26000D01*
X-35828D01*
X-37298Y-26609D01*
X-38423Y-27734D01*
X-39032Y-29204D01*
Y-30796D01*
X-38423Y-32266D01*
X-37298Y-33391D01*
X-36652Y-33658D01*
X-36905Y-34929D01*
X-39249D01*
X-39249Y-34929D01*
X-39330Y-34945D01*
X-41812D01*
X-41812Y-34945D01*
X-42599Y-35101D01*
X-42674Y-35151D01*
X-43136Y-35031D01*
X-43945Y-34472D01*
Y-19000D01*
X-44101Y-18213D01*
X-44546Y-17546D01*
X-44547Y-17546D01*
X-47913Y-14181D01*
Y33128D01*
X-46642Y33864D01*
X-45764Y33500D01*
D02*
G37*
G36*
X95495Y-31261D02*
X89860Y-36897D01*
X87069D01*
X81337Y-31165D01*
X81823Y-29992D01*
X94969D01*
X95495Y-31261D01*
D02*
G37*
G36*
X-9204Y-38438D02*
X-8537Y-38883D01*
X-7751Y-39039D01*
X-7751Y-39039D01*
X74398D01*
X81812Y-46453D01*
X82479Y-46899D01*
X82679Y-46939D01*
X83137Y-48277D01*
X82645Y-48770D01*
X82036Y-50240D01*
Y-51831D01*
X82645Y-53301D01*
X83770Y-54426D01*
X85240Y-55036D01*
X85325D01*
X86031Y-56091D01*
X85984Y-56204D01*
Y-57796D01*
X86593Y-59266D01*
X87718Y-60391D01*
X87944Y-60485D01*
Y-83071D01*
X87944Y-83071D01*
X88101Y-83858D01*
X88546Y-84524D01*
X106793Y-102771D01*
X106307Y-103945D01*
X96478D01*
X96391Y-103734D01*
X95266Y-102609D01*
X93796Y-102000D01*
X92204D01*
X90734Y-102609D01*
X89609Y-103734D01*
X89000Y-105204D01*
Y-106796D01*
X89609Y-108266D01*
X90734Y-109391D01*
X92204Y-110000D01*
X93796D01*
X95266Y-109391D01*
X96391Y-108266D01*
X96478Y-108055D01*
X107812D01*
X116217Y-116460D01*
X115691Y-117730D01*
X106214D01*
X105428Y-117887D01*
X104761Y-118332D01*
X104761Y-118332D01*
X96931Y-126163D01*
X41140D01*
X11025Y-96046D01*
X10358Y-95601D01*
X9571Y-95444D01*
X9571Y-95444D01*
X4500D01*
X3713Y-95601D01*
X3047Y-96046D01*
X3047Y-96047D01*
X1665Y-97429D01*
X-32134D01*
X-37912Y-91650D01*
Y-42819D01*
X-37149Y-42056D01*
X-33265D01*
X-33265Y-42056D01*
X-32479Y-41899D01*
X-31812Y-41453D01*
X-25515Y-35156D01*
X-25515Y-35156D01*
X-25069Y-34489D01*
X-24913Y-33703D01*
X-24913Y-33703D01*
Y-24388D01*
X-23739Y-23902D01*
X-9204Y-38438D01*
D02*
G37*
G36*
X103945Y-44372D02*
Y-49149D01*
X102006Y-51087D01*
X101796Y-51000D01*
X100204D01*
X98734Y-51609D01*
X97609Y-52734D01*
X97000Y-54204D01*
Y-55796D01*
X97609Y-57266D01*
X98734Y-58391D01*
X100204Y-59000D01*
X101796D01*
X103266Y-58391D01*
X104391Y-57266D01*
X105000Y-55796D01*
Y-54204D01*
X104913Y-53994D01*
X105787Y-53120D01*
X106960Y-53606D01*
Y-60133D01*
X101006Y-66087D01*
X100796Y-66000D01*
X99204D01*
X97734Y-66609D01*
X96609Y-67734D01*
X96000Y-69204D01*
Y-70796D01*
X96609Y-72266D01*
X97734Y-73391D01*
X99204Y-74000D01*
X100796D01*
X102266Y-73391D01*
X103391Y-72266D01*
X104000Y-70796D01*
Y-69204D01*
X103913Y-68994D01*
X108803Y-64104D01*
X109977Y-64590D01*
Y-79032D01*
X109977Y-79032D01*
X110133Y-79819D01*
X110578Y-80485D01*
X137087Y-106994D01*
X137000Y-107204D01*
Y-108796D01*
X137609Y-110266D01*
X138734Y-111391D01*
X140204Y-112000D01*
X141064D01*
X141590Y-113270D01*
X137823Y-117037D01*
X137378Y-116979D01*
X136500Y-115780D01*
Y-114188D01*
X135891Y-112718D01*
X134766Y-111593D01*
X133772Y-111181D01*
X133379Y-109917D01*
X133391Y-109766D01*
X134000Y-108296D01*
Y-106704D01*
X133391Y-105234D01*
X132266Y-104109D01*
X130796Y-103500D01*
X129204D01*
X127734Y-104109D01*
X126609Y-105234D01*
X126000Y-106704D01*
Y-108296D01*
X126609Y-109766D01*
X127734Y-110891D01*
X128728Y-111303D01*
X129121Y-112567D01*
X129109Y-112718D01*
X128500Y-114188D01*
Y-114734D01*
X128438Y-115788D01*
X127327Y-115944D01*
X125780D01*
X92056Y-82220D01*
Y-60472D01*
X92250Y-60391D01*
X93375Y-59266D01*
X93984Y-57796D01*
Y-56204D01*
X93375Y-54734D01*
X92250Y-53609D01*
X90780Y-53000D01*
X90694D01*
X89989Y-51944D01*
X90035Y-51831D01*
Y-50240D01*
X89426Y-48770D01*
X88982Y-48326D01*
X89508Y-47056D01*
X96000D01*
X96000Y-47056D01*
X96787Y-46899D01*
X97453Y-46453D01*
X99994Y-43913D01*
X100204Y-44000D01*
X101796D01*
X102675Y-43636D01*
X103945Y-44372D01*
D02*
G37*
G36*
X217929Y-60850D02*
X168250D01*
Y-15350D01*
X217929D01*
Y-60850D01*
D02*
G37*
%LPC*%
G36*
X15796Y211714D02*
X14204D01*
X12734Y211105D01*
X11609Y209980D01*
X11000Y208510D01*
Y206919D01*
X11609Y205449D01*
X12734Y204323D01*
X14204Y203714D01*
X15796D01*
X17266Y204323D01*
X18391Y205449D01*
X19000Y206919D01*
Y208510D01*
X18391Y209980D01*
X17266Y211105D01*
X15796Y211714D01*
D02*
G37*
G36*
X148796Y193500D02*
X147204D01*
X145734Y192891D01*
X144609Y191766D01*
X144000Y190296D01*
Y188704D01*
X144609Y187234D01*
X145734Y186109D01*
X146786Y185673D01*
Y184327D01*
X145734Y183891D01*
X144609Y182766D01*
X144000Y181296D01*
Y179704D01*
X144609Y178234D01*
X145734Y177109D01*
X147204Y176500D01*
X148796D01*
X150266Y177109D01*
X151391Y178234D01*
X152000Y179704D01*
Y181296D01*
X151391Y182766D01*
X150266Y183891D01*
X149214Y184327D01*
Y185673D01*
X150266Y186109D01*
X151391Y187234D01*
X152000Y188704D01*
Y190296D01*
X151391Y191766D01*
X150266Y192891D01*
X148796Y193500D01*
D02*
G37*
G36*
X796Y184000D02*
X-796D01*
X-2266Y183391D01*
X-3391Y182266D01*
X-4000Y180796D01*
Y179204D01*
X-3391Y177734D01*
X-2266Y176609D01*
X-796Y176000D01*
X796D01*
X2266Y176609D01*
X3391Y177734D01*
X4000Y179204D01*
Y180796D01*
X3391Y182266D01*
X2266Y183391D01*
X796Y184000D01*
D02*
G37*
G36*
X30796Y181500D02*
X29204D01*
X27734Y180891D01*
X26609Y179766D01*
X26000Y178296D01*
Y176704D01*
X26609Y175234D01*
X27734Y174109D01*
X29204Y173500D01*
X30796D01*
X32266Y174109D01*
X33391Y175234D01*
X34000Y176704D01*
Y178296D01*
X33391Y179766D01*
X32266Y180891D01*
X30796Y181500D01*
D02*
G37*
G36*
X796Y174000D02*
X-796D01*
X-2266Y173391D01*
X-3391Y172266D01*
X-4000Y170796D01*
Y169204D01*
X-3391Y167734D01*
X-2266Y166609D01*
X-796Y166000D01*
X796D01*
X2266Y166609D01*
X3391Y167734D01*
X4000Y169204D01*
Y170796D01*
X3391Y172266D01*
X2266Y173391D01*
X796Y174000D01*
D02*
G37*
G36*
X45796Y171500D02*
X44204D01*
X42734Y170891D01*
X41609Y169766D01*
X41000Y168296D01*
Y166704D01*
X41609Y165234D01*
X42734Y164109D01*
X44204Y163500D01*
X45796D01*
X47266Y164109D01*
X48391Y165234D01*
X49000Y166704D01*
Y168296D01*
X48391Y169766D01*
X47266Y170891D01*
X45796Y171500D01*
D02*
G37*
G36*
X28296Y166500D02*
X26704D01*
X25234Y165891D01*
X24109Y164766D01*
X23500Y163296D01*
Y161704D01*
X24109Y160234D01*
X25234Y159109D01*
X26704Y158500D01*
X27529D01*
X28000Y157796D01*
Y156204D01*
X28609Y154734D01*
X29734Y153609D01*
X31204Y153000D01*
X32796D01*
X34266Y153609D01*
X35391Y154734D01*
X36000Y156204D01*
Y157796D01*
X35391Y159266D01*
X34266Y160391D01*
X32796Y161000D01*
X31971D01*
X31500Y161704D01*
Y163296D01*
X30891Y164766D01*
X29766Y165891D01*
X28296Y166500D01*
D02*
G37*
G36*
X178796Y163500D02*
X177204D01*
X175734Y162891D01*
X174609Y161766D01*
X174000Y160296D01*
Y158704D01*
X174609Y157234D01*
X175734Y156109D01*
X176786Y155673D01*
Y154327D01*
X175734Y153891D01*
X174609Y152766D01*
X174000Y151296D01*
Y149704D01*
X174609Y148234D01*
X175734Y147109D01*
X177204Y146500D01*
X178796D01*
X180266Y147109D01*
X181391Y148234D01*
X182000Y149704D01*
Y151296D01*
X181391Y152766D01*
X180266Y153891D01*
X179214Y154327D01*
Y155673D01*
X180266Y156109D01*
X181391Y157234D01*
X182000Y158704D01*
Y160296D01*
X181391Y161766D01*
X180266Y162891D01*
X178796Y163500D01*
D02*
G37*
G36*
X28296Y151500D02*
X26704D01*
X25234Y150891D01*
X24109Y149766D01*
X23500Y148296D01*
Y146704D01*
X24109Y145234D01*
X25234Y144109D01*
X26704Y143500D01*
X28296D01*
X29766Y144109D01*
X30891Y145234D01*
X31500Y146704D01*
Y148296D01*
X30891Y149766D01*
X29766Y150891D01*
X28296Y151500D01*
D02*
G37*
G36*
X123296Y136500D02*
X121704D01*
X120234Y135891D01*
X119109Y134766D01*
X118500Y133296D01*
Y131704D01*
X119109Y130234D01*
X120234Y129109D01*
X121704Y128500D01*
X123296D01*
X124766Y129109D01*
X125891Y130234D01*
X126500Y131704D01*
Y133296D01*
X125891Y134766D01*
X124766Y135891D01*
X123296Y136500D01*
D02*
G37*
G36*
X-6704Y139000D02*
X-8296D01*
X-9766Y138391D01*
X-10891Y137266D01*
X-11500Y135796D01*
Y134204D01*
X-10891Y132734D01*
X-9766Y131609D01*
X-8296Y131000D01*
X-6704D01*
X-6275Y131178D01*
X-5556Y130101D01*
X-5752Y129905D01*
X-6361Y128435D01*
Y126843D01*
X-5752Y125373D01*
X-4627Y124248D01*
X-3157Y123639D01*
X-1565D01*
X-95Y124248D01*
X1030Y125373D01*
X1639Y126843D01*
Y128435D01*
X1030Y129905D01*
X-95Y131030D01*
X-1565Y131639D01*
X-3157D01*
X-3586Y131461D01*
X-4305Y132538D01*
X-4109Y132734D01*
X-3500Y134204D01*
Y135796D01*
X-4109Y137266D01*
X-5234Y138391D01*
X-6704Y139000D01*
D02*
G37*
G36*
X123296Y126500D02*
X121704D01*
X120234Y125891D01*
X119109Y124766D01*
X118500Y123296D01*
Y121704D01*
X119109Y120234D01*
X120234Y119109D01*
X121704Y118500D01*
X123296D01*
X124766Y119109D01*
X125891Y120234D01*
X126500Y121704D01*
Y123296D01*
X125891Y124766D01*
X124766Y125891D01*
X123296Y126500D01*
D02*
G37*
G36*
X198796Y133500D02*
X197204D01*
X195734Y132891D01*
X194609Y131766D01*
X194000Y130296D01*
Y128704D01*
X194609Y127234D01*
X195734Y126109D01*
X196786Y125673D01*
Y124327D01*
X195734Y123891D01*
X194609Y122766D01*
X194000Y121296D01*
Y119704D01*
X194609Y118234D01*
X195734Y117109D01*
X197204Y116500D01*
X198796D01*
X200266Y117109D01*
X201391Y118234D01*
X202000Y119704D01*
Y121296D01*
X201391Y122766D01*
X200266Y123891D01*
X199214Y124327D01*
Y125673D01*
X200266Y126109D01*
X201391Y127234D01*
X202000Y128704D01*
Y130296D01*
X201391Y131766D01*
X200266Y132891D01*
X198796Y133500D01*
D02*
G37*
G36*
X123296Y116500D02*
X121704D01*
X120234Y115891D01*
X119109Y114766D01*
X118500Y113296D01*
Y111704D01*
X119109Y110234D01*
X120234Y109109D01*
X121704Y108500D01*
X123296D01*
X124766Y109109D01*
X125891Y110234D01*
X126500Y111704D01*
Y113296D01*
X125891Y114766D01*
X124766Y115891D01*
X123296Y116500D01*
D02*
G37*
G36*
Y106500D02*
X121704D01*
X120234Y105891D01*
X119109Y104766D01*
X118500Y103296D01*
Y101704D01*
X119109Y100234D01*
X120234Y99109D01*
X121704Y98500D01*
X123296D01*
X124766Y99109D01*
X125891Y100234D01*
X126500Y101704D01*
Y103296D01*
X125891Y104766D01*
X124766Y105891D01*
X123296Y106500D01*
D02*
G37*
G36*
Y94000D02*
X121704D01*
X120234Y93391D01*
X119109Y92266D01*
X118500Y90796D01*
Y89204D01*
X119109Y87734D01*
X120234Y86609D01*
X121704Y86000D01*
X123296D01*
X124766Y86609D01*
X125891Y87734D01*
X126500Y89204D01*
Y90796D01*
X125891Y92266D01*
X124766Y93391D01*
X123296Y94000D01*
D02*
G37*
G36*
X103296Y91500D02*
X101704D01*
X100234Y90891D01*
X99109Y89766D01*
X98500Y88296D01*
Y86704D01*
X99109Y85234D01*
X100234Y84109D01*
X101704Y83500D01*
X103296D01*
X104766Y84109D01*
X105891Y85234D01*
X106500Y86704D01*
Y88296D01*
X105891Y89766D01*
X104766Y90891D01*
X103296Y91500D01*
D02*
G37*
G36*
X185796Y79000D02*
X184204D01*
X182734Y78391D01*
X182073Y77730D01*
X181250Y77407D01*
X180427Y77730D01*
X179766Y78391D01*
X178296Y79000D01*
X176704D01*
X175234Y78391D01*
X174573Y77730D01*
X173750Y77407D01*
X172927Y77730D01*
X172266Y78391D01*
X170796Y79000D01*
X169204D01*
X167734Y78391D01*
X166609Y77266D01*
X166000Y75796D01*
Y74204D01*
X166609Y72734D01*
X167734Y71609D01*
X169204Y71000D01*
X170796D01*
X172266Y71609D01*
X172927Y72270D01*
X173750Y72593D01*
X174573Y72270D01*
X175234Y71609D01*
X176704Y71000D01*
X178296D01*
X179766Y71609D01*
X180427Y72270D01*
X181250Y72593D01*
X182073Y72270D01*
X182734Y71609D01*
X184204Y71000D01*
X185796D01*
X187266Y71609D01*
X188391Y72734D01*
X189000Y74204D01*
Y75796D01*
X188391Y77266D01*
X187266Y78391D01*
X185796Y79000D01*
D02*
G37*
G36*
X60796Y74000D02*
X59204D01*
X57734Y73391D01*
X56609Y72266D01*
X56000Y70796D01*
Y69204D01*
X56609Y67734D01*
X57734Y66609D01*
X59204Y66000D01*
X60796D01*
X62266Y66609D01*
X63391Y67734D01*
X64000Y69204D01*
Y70796D01*
X63391Y72266D01*
X62266Y73391D01*
X60796Y74000D01*
D02*
G37*
G36*
X201251Y82550D02*
X198749D01*
X196333Y81903D01*
X194167Y80652D01*
X192398Y78883D01*
X191147Y76717D01*
X190500Y74301D01*
Y71799D01*
X191147Y69383D01*
X192398Y67217D01*
X194167Y65448D01*
X196333Y64197D01*
X198749Y63550D01*
X201251D01*
X203667Y64197D01*
X205833Y65448D01*
X207602Y67217D01*
X208853Y69383D01*
X209500Y71799D01*
Y74301D01*
X208853Y76717D01*
X207602Y78883D01*
X205833Y80652D01*
X203667Y81903D01*
X201251Y82550D01*
D02*
G37*
G36*
X-198749D02*
X-201251D01*
X-203667Y81903D01*
X-205833Y80652D01*
X-207602Y78883D01*
X-208853Y76717D01*
X-209500Y74301D01*
Y71799D01*
X-208853Y69383D01*
X-207602Y67217D01*
X-205833Y65448D01*
X-203667Y64197D01*
X-201251Y63550D01*
X-198749D01*
X-196333Y64197D01*
X-194167Y65448D01*
X-192398Y67217D01*
X-191147Y69383D01*
X-190500Y71799D01*
Y74301D01*
X-191147Y76717D01*
X-192398Y78883D01*
X-194167Y80652D01*
X-196333Y81903D01*
X-198749Y82550D01*
D02*
G37*
G36*
X23296Y64000D02*
X21704D01*
X20234Y63391D01*
X19109Y62266D01*
X18500Y60796D01*
Y59204D01*
X19109Y57734D01*
X20234Y56609D01*
X21704Y56000D01*
X23296D01*
X24766Y56609D01*
X25891Y57734D01*
X26500Y59204D01*
Y60796D01*
X25891Y62266D01*
X24766Y63391D01*
X23296Y64000D01*
D02*
G37*
G36*
X130796Y54000D02*
X129204D01*
X127734Y53391D01*
X126609Y52266D01*
X126000Y50796D01*
Y49204D01*
X126609Y47734D01*
X127734Y46609D01*
X129204Y46000D01*
X130796D01*
X132266Y46609D01*
X133391Y47734D01*
X134000Y49204D01*
Y50796D01*
X133391Y52266D01*
X132266Y53391D01*
X130796Y54000D01*
D02*
G37*
G36*
X38296Y50500D02*
X36704D01*
X35234Y49891D01*
X34109Y48766D01*
X33500Y47296D01*
Y45704D01*
X34109Y44234D01*
X35234Y43109D01*
X36704Y42500D01*
X38296D01*
X39766Y43109D01*
X40891Y44234D01*
X41500Y45704D01*
Y47296D01*
X40891Y48766D01*
X39766Y49891D01*
X38296Y50500D01*
D02*
G37*
G36*
X98296Y46500D02*
X96704D01*
X95234Y45891D01*
X94109Y44766D01*
X93500Y43296D01*
Y41704D01*
X94109Y40234D01*
X95234Y39109D01*
X96704Y38500D01*
X98296D01*
X99766Y39109D01*
X100891Y40234D01*
X101500Y41704D01*
Y43296D01*
X100891Y44766D01*
X99766Y45891D01*
X98296Y46500D01*
D02*
G37*
G36*
X68296D02*
X66704D01*
X65234Y45891D01*
X64109Y44766D01*
X63500Y43296D01*
Y41704D01*
X64109Y40234D01*
X65234Y39109D01*
X66704Y38500D01*
X68296D01*
X69766Y39109D01*
X70891Y40234D01*
X71500Y41704D01*
Y43296D01*
X70891Y44766D01*
X69766Y45891D01*
X68296Y46500D01*
D02*
G37*
G36*
X83296Y46500D02*
X81704D01*
X80234Y45891D01*
X79109Y44766D01*
X78500Y43296D01*
Y41704D01*
X79109Y40234D01*
X80234Y39109D01*
X81704Y38500D01*
X83296D01*
X84766Y39109D01*
X85891Y40234D01*
X86500Y41704D01*
Y43296D01*
X85891Y44766D01*
X84766Y45891D01*
X83296Y46500D01*
D02*
G37*
G36*
X53296D02*
X51704D01*
X50234Y45891D01*
X49109Y44766D01*
X48500Y43296D01*
Y41704D01*
X49109Y40234D01*
X50234Y39109D01*
X51704Y38500D01*
X53296D01*
X54766Y39109D01*
X55891Y40234D01*
X56500Y41704D01*
Y43296D01*
X55891Y44766D01*
X54766Y45891D01*
X53296Y46500D01*
D02*
G37*
G36*
X109846Y35181D02*
X108254D01*
X106784Y34572D01*
X105659Y33447D01*
X105050Y31977D01*
Y30385D01*
X105659Y28915D01*
X106784Y27790D01*
X108254Y27181D01*
X109846D01*
X111316Y27790D01*
X112441Y28915D01*
X113050Y30385D01*
Y31977D01*
X112441Y33447D01*
X111316Y34572D01*
X109846Y35181D01*
D02*
G37*
G36*
X74127Y28582D02*
X72536D01*
X71066Y27973D01*
X69941Y26848D01*
X69332Y25378D01*
Y23786D01*
X69941Y22316D01*
X71066Y21191D01*
X72536Y20582D01*
X74127D01*
X75598Y21191D01*
X76723Y22316D01*
X77332Y23786D01*
Y25378D01*
X76723Y26848D01*
X75598Y27973D01*
X74127Y28582D01*
D02*
G37*
G36*
X83296Y91500D02*
X81704D01*
X80234Y90891D01*
X79109Y89766D01*
X78500Y88296D01*
Y86704D01*
X79109Y85234D01*
X80234Y84109D01*
X81704Y83500D01*
X83296D01*
X83506Y83587D01*
X87944Y79149D01*
Y25106D01*
X87296Y24000D01*
X85704D01*
X84234Y23391D01*
X83109Y22266D01*
X82500Y20796D01*
Y19204D01*
X83109Y17734D01*
X84234Y16609D01*
X85704Y16000D01*
X87296D01*
X88766Y16609D01*
X89891Y17734D01*
X90500Y19204D01*
Y20796D01*
X90413Y21006D01*
X91453Y22046D01*
X91454Y22046D01*
X91899Y22713D01*
X92056Y23500D01*
X92056Y23500D01*
Y80000D01*
X91899Y80787D01*
X91454Y81454D01*
X91453Y81454D01*
X86413Y86494D01*
X86500Y86704D01*
Y88296D01*
X85891Y89766D01*
X84766Y90891D01*
X83296Y91500D01*
D02*
G37*
G36*
X159796Y19000D02*
X158204D01*
X156734Y18391D01*
X155609Y17266D01*
X155000Y15796D01*
Y14204D01*
X155609Y12734D01*
X156734Y11609D01*
X158204Y11000D01*
X159796D01*
X161266Y11609D01*
X162391Y12734D01*
X163000Y14204D01*
Y15796D01*
X162391Y17266D01*
X161266Y18391D01*
X159796Y19000D01*
D02*
G37*
G36*
X101796Y-6000D02*
X100204D01*
X98734Y-6609D01*
X97609Y-7734D01*
X97000Y-9204D01*
Y-10796D01*
X97609Y-12266D01*
X98734Y-13391D01*
X100204Y-14000D01*
X101796D01*
X103266Y-13391D01*
X104391Y-12266D01*
X105000Y-10796D01*
Y-9204D01*
X104391Y-7734D01*
X103266Y-6609D01*
X101796Y-6000D01*
D02*
G37*
G36*
X130796Y-11000D02*
X129204D01*
X127734Y-11609D01*
X126609Y-12734D01*
X126000Y-14204D01*
Y-15796D01*
X126609Y-17266D01*
X127734Y-18391D01*
X129204Y-19000D01*
X130796D01*
X132266Y-18391D01*
X133391Y-17266D01*
X134000Y-15796D01*
Y-14204D01*
X133391Y-12734D01*
X132266Y-11609D01*
X130796Y-11000D01*
D02*
G37*
G36*
X-109188Y-13500D02*
X-110780D01*
X-112250Y-14109D01*
X-113375Y-15234D01*
X-113984Y-16704D01*
Y-18296D01*
X-113375Y-19766D01*
X-112250Y-20891D01*
X-110780Y-21500D01*
X-109188D01*
X-107718Y-20891D01*
X-106593Y-19766D01*
X-105984Y-18296D01*
Y-16704D01*
X-106593Y-15234D01*
X-107718Y-14109D01*
X-109188Y-13500D01*
D02*
G37*
G36*
X-185355Y-26750D02*
X-187345D01*
X-189182Y-27511D01*
X-190589Y-28918D01*
X-191350Y-30755D01*
Y-32745D01*
X-190589Y-34582D01*
X-189182Y-35989D01*
X-187345Y-36750D01*
X-185355D01*
X-183518Y-35989D01*
X-182111Y-34582D01*
X-181350Y-32745D01*
Y-30755D01*
X-182111Y-28918D01*
X-183518Y-27511D01*
X-185355Y-26750D01*
D02*
G37*
G36*
X-212656D02*
X-214645D01*
X-216482Y-27511D01*
X-217889Y-28918D01*
X-218650Y-30755D01*
Y-32745D01*
X-217889Y-34582D01*
X-216482Y-35989D01*
X-214645Y-36750D01*
X-212656D01*
X-210818Y-35989D01*
X-209411Y-34582D01*
X-208650Y-32745D01*
Y-30755D01*
X-209411Y-28918D01*
X-210818Y-27511D01*
X-212656Y-26750D01*
D02*
G37*
G36*
X-185355Y-52150D02*
X-187345D01*
X-189182Y-52911D01*
X-190589Y-54318D01*
X-191350Y-56155D01*
Y-58145D01*
X-190589Y-59982D01*
X-189182Y-61389D01*
X-187345Y-62150D01*
X-185355D01*
X-183518Y-61389D01*
X-182111Y-59982D01*
X-181350Y-58145D01*
Y-56155D01*
X-182111Y-54318D01*
X-183518Y-52911D01*
X-185355Y-52150D01*
D02*
G37*
G36*
X-212656D02*
X-214645D01*
X-216482Y-52911D01*
X-217889Y-54318D01*
X-218650Y-56155D01*
Y-58145D01*
X-217889Y-59982D01*
X-216482Y-61389D01*
X-214645Y-62150D01*
X-212656D01*
X-210818Y-61389D01*
X-209411Y-59982D01*
X-208650Y-58145D01*
Y-56155D01*
X-209411Y-54318D01*
X-210818Y-52911D01*
X-212656Y-52150D01*
D02*
G37*
G36*
X201251Y-63550D02*
X198749D01*
X196333Y-64197D01*
X194167Y-65448D01*
X192398Y-67217D01*
X191147Y-69383D01*
X190500Y-71799D01*
Y-74301D01*
X191147Y-76717D01*
X192398Y-78883D01*
X194167Y-80652D01*
X196333Y-81903D01*
X198749Y-82550D01*
X201251D01*
X203667Y-81903D01*
X205833Y-80652D01*
X207602Y-78883D01*
X208853Y-76717D01*
X209500Y-74301D01*
Y-71799D01*
X208853Y-69383D01*
X207602Y-67217D01*
X205833Y-65448D01*
X203667Y-64197D01*
X201251Y-63550D01*
D02*
G37*
G36*
X-198749D02*
X-201251D01*
X-203667Y-64197D01*
X-205833Y-65448D01*
X-207602Y-67217D01*
X-208853Y-69383D01*
X-209500Y-71799D01*
Y-74301D01*
X-208853Y-76717D01*
X-207602Y-78883D01*
X-205833Y-80652D01*
X-203667Y-81903D01*
X-201251Y-82550D01*
X-198749D01*
X-196333Y-81903D01*
X-194167Y-80652D01*
X-192398Y-78883D01*
X-191147Y-76717D01*
X-190500Y-74301D01*
Y-71799D01*
X-191147Y-69383D01*
X-192398Y-67217D01*
X-194167Y-65448D01*
X-196333Y-64197D01*
X-198749Y-63550D01*
D02*
G37*
G36*
X-169204Y-100000D02*
X-170796D01*
X-172266Y-100609D01*
X-173391Y-101734D01*
X-174000Y-103204D01*
Y-104796D01*
X-173391Y-106266D01*
X-172266Y-107391D01*
X-170796Y-108000D01*
X-169204D01*
X-167734Y-107391D01*
X-166609Y-106266D01*
X-166000Y-104796D01*
Y-103204D01*
X-166609Y-101734D01*
X-167734Y-100609D01*
X-169204Y-100000D01*
D02*
G37*
G36*
X-31604Y-122600D02*
X-33196D01*
X-34666Y-123209D01*
X-35791Y-124334D01*
X-36400Y-125804D01*
Y-127396D01*
X-35791Y-128866D01*
X-34666Y-129991D01*
X-33196Y-130600D01*
X-31604D01*
X-30134Y-129991D01*
X-29009Y-128866D01*
X-28400Y-127396D01*
Y-125804D01*
X-29009Y-124334D01*
X-30134Y-123209D01*
X-31604Y-122600D01*
D02*
G37*
G36*
X-186704Y-126000D02*
X-188296D01*
X-189766Y-126609D01*
X-190891Y-127734D01*
X-191500Y-129204D01*
Y-130796D01*
X-190891Y-132266D01*
X-189766Y-133391D01*
X-188296Y-134000D01*
X-186704D01*
X-185234Y-133391D01*
X-184109Y-132266D01*
X-183500Y-130796D01*
Y-129204D01*
X-184109Y-127734D01*
X-185234Y-126609D01*
X-186704Y-126000D01*
D02*
G37*
G36*
X148296Y-141000D02*
X146704D01*
X145234Y-141609D01*
X144109Y-142734D01*
X143500Y-144204D01*
Y-145796D01*
X144109Y-147266D01*
X144770Y-147927D01*
X145093Y-148750D01*
X144770Y-149573D01*
X144109Y-150234D01*
X143500Y-151704D01*
Y-153296D01*
X144109Y-154766D01*
X145234Y-155891D01*
X146704Y-156500D01*
X148296D01*
X149766Y-155891D01*
X150891Y-154766D01*
X151500Y-153296D01*
Y-151704D01*
X150891Y-150234D01*
X150230Y-149573D01*
X149907Y-148750D01*
X150230Y-147927D01*
X150891Y-147266D01*
X151500Y-145796D01*
Y-144204D01*
X150891Y-142734D01*
X149766Y-141609D01*
X148296Y-141000D01*
D02*
G37*
G36*
X-99204Y-143500D02*
X-100796D01*
X-102266Y-144109D01*
X-103391Y-145234D01*
X-104000Y-146704D01*
Y-148296D01*
X-103391Y-149766D01*
X-102730Y-150427D01*
X-102407Y-151250D01*
X-102730Y-152073D01*
X-103391Y-152734D01*
X-104000Y-154204D01*
Y-155796D01*
X-103391Y-157266D01*
X-102266Y-158391D01*
X-100796Y-159000D01*
X-99204D01*
X-97734Y-158391D01*
X-96609Y-157266D01*
X-96000Y-155796D01*
Y-154204D01*
X-96609Y-152734D01*
X-97270Y-152073D01*
X-97593Y-151250D01*
X-97270Y-150427D01*
X-96609Y-149766D01*
X-96000Y-148296D01*
Y-146704D01*
X-96609Y-145234D01*
X-97734Y-144109D01*
X-99204Y-143500D01*
D02*
G37*
G36*
X86450Y-158984D02*
X83550D01*
X80748Y-159735D01*
X78236Y-161185D01*
X76185Y-163236D01*
X74735Y-165748D01*
X73984Y-168550D01*
Y-171450D01*
X74735Y-174252D01*
X76185Y-176764D01*
X78236Y-178815D01*
X80748Y-180265D01*
X83550Y-181016D01*
X86450D01*
X89252Y-180265D01*
X91764Y-178815D01*
X93815Y-176764D01*
X95265Y-174252D01*
X96016Y-171450D01*
Y-168550D01*
X95265Y-165748D01*
X93815Y-163236D01*
X91764Y-161185D01*
X89252Y-159735D01*
X86450Y-158984D01*
D02*
G37*
G36*
X-74204Y208138D02*
X-75796D01*
X-77266Y207529D01*
X-78391Y206403D01*
X-79000Y204933D01*
Y203342D01*
X-78391Y201872D01*
X-77266Y200747D01*
X-75796Y200138D01*
X-74204D01*
X-72734Y200747D01*
X-71609Y201872D01*
X-71000Y203342D01*
Y204933D01*
X-71609Y206403D01*
X-72734Y207529D01*
X-74204Y208138D01*
D02*
G37*
G36*
X-109204Y206500D02*
X-110796D01*
X-112266Y205891D01*
X-113391Y204766D01*
X-114000Y203296D01*
Y201704D01*
X-113391Y200234D01*
X-112266Y199109D01*
X-110796Y198500D01*
X-109204D01*
X-107734Y199109D01*
X-106609Y200234D01*
X-106000Y201704D01*
Y203296D01*
X-106609Y204766D01*
X-107734Y205891D01*
X-109204Y206500D01*
D02*
G37*
G36*
X-85204Y198000D02*
X-86796D01*
X-88266Y197391D01*
X-89391Y196266D01*
X-90000Y194796D01*
Y193204D01*
X-89391Y191734D01*
X-88266Y190609D01*
X-86796Y190000D01*
X-85204D01*
X-83734Y190609D01*
X-82609Y191734D01*
X-82000Y193204D01*
Y194796D01*
X-82609Y196266D01*
X-83734Y197391D01*
X-85204Y198000D01*
D02*
G37*
G36*
X-74204Y191500D02*
X-75796D01*
X-77266Y190891D01*
X-78391Y189766D01*
X-79000Y188296D01*
Y186704D01*
X-78391Y185234D01*
X-78388Y185232D01*
X-78374Y185035D01*
X-78760Y183808D01*
X-79766Y183391D01*
X-80891Y182266D01*
X-81500Y180796D01*
Y179204D01*
X-80891Y177734D01*
X-79766Y176609D01*
X-78296Y176000D01*
X-76704D01*
X-75234Y176609D01*
X-74109Y177734D01*
X-73500Y179204D01*
Y180796D01*
X-74109Y182266D01*
X-74112Y182268D01*
X-74126Y182465D01*
X-73740Y183692D01*
X-72734Y184109D01*
X-71609Y185234D01*
X-71000Y186704D01*
Y188296D01*
X-71609Y189766D01*
X-72734Y190891D01*
X-74204Y191500D01*
D02*
G37*
G36*
X-129204Y175000D02*
X-130796D01*
X-132266Y174391D01*
X-133391Y173266D01*
X-134000Y171796D01*
Y170204D01*
X-133391Y168734D01*
X-132266Y167609D01*
X-130796Y167000D01*
X-129204D01*
X-127734Y167609D01*
X-126609Y168734D01*
X-126000Y170204D01*
Y171796D01*
X-126609Y173266D01*
X-127734Y174391D01*
X-129204Y175000D01*
D02*
G37*
G36*
X-106673Y171500D02*
X-108265D01*
X-109735Y170891D01*
X-110860Y169766D01*
X-111469Y168296D01*
Y166704D01*
X-110860Y165234D01*
X-109735Y164109D01*
X-108265Y163500D01*
X-106673D01*
X-105203Y164109D01*
X-104078Y165234D01*
X-103469Y166704D01*
Y168296D01*
X-104078Y169766D01*
X-105203Y170891D01*
X-106673Y171500D01*
D02*
G37*
G36*
X-86656Y176560D02*
X-88247D01*
X-89717Y175951D01*
X-90842Y174826D01*
X-91451Y173356D01*
Y171765D01*
X-90842Y170294D01*
X-90153Y169605D01*
X-89880Y168747D01*
X-90173Y167984D01*
X-90891Y167266D01*
X-91500Y165796D01*
Y164204D01*
X-90891Y162734D01*
X-89766Y161609D01*
X-88296Y161000D01*
X-86704D01*
X-85234Y161609D01*
X-84109Y162734D01*
X-83500Y164204D01*
Y165796D01*
X-84109Y167266D01*
X-84798Y167955D01*
X-85072Y168813D01*
X-84778Y169577D01*
X-84060Y170294D01*
X-83451Y171765D01*
Y173356D01*
X-84060Y174826D01*
X-85186Y175951D01*
X-86656Y176560D01*
D02*
G37*
G36*
X-86704Y156500D02*
X-88296D01*
X-89766Y155891D01*
X-90891Y154766D01*
X-91500Y153296D01*
Y151704D01*
X-90891Y150234D01*
X-89766Y149109D01*
X-88296Y148500D01*
X-86704D01*
X-85234Y149109D01*
X-84109Y150234D01*
X-83500Y151704D01*
Y153296D01*
X-84109Y154766D01*
X-85234Y155891D01*
X-86704Y156500D01*
D02*
G37*
G36*
X-84204Y126500D02*
X-85796D01*
X-87266Y125891D01*
X-88391Y124766D01*
X-89000Y123296D01*
Y121704D01*
X-88391Y120234D01*
X-87266Y119109D01*
X-85796Y118500D01*
X-84204D01*
X-82734Y119109D01*
X-81609Y120234D01*
X-81000Y121704D01*
Y123296D01*
X-81609Y124766D01*
X-82734Y125891D01*
X-84204Y126500D01*
D02*
G37*
G36*
X70796Y-41000D02*
X69204D01*
X67734Y-41609D01*
X66609Y-42734D01*
X66000Y-44204D01*
Y-45796D01*
X66609Y-47266D01*
X67734Y-48391D01*
X69204Y-49000D01*
X69827D01*
X70826Y-49174D01*
X71000Y-50173D01*
Y-50796D01*
X71609Y-52266D01*
X72734Y-53391D01*
X74204Y-54000D01*
X75796D01*
X77266Y-53391D01*
X78391Y-52266D01*
X79000Y-50796D01*
Y-49204D01*
X78391Y-47734D01*
X77266Y-46609D01*
X75796Y-46000D01*
X75173D01*
X74174Y-45826D01*
X74000Y-44827D01*
Y-44204D01*
X73391Y-42734D01*
X72266Y-41609D01*
X70796Y-41000D01*
D02*
G37*
%LPD*%
D12*
X-6388Y236639D02*
G03*
X-6391Y236639I41J-2000D01*
G01*
D02*
G03*
X-6655Y236615I44J-1999D01*
G01*
X-8523Y236470D02*
G03*
X-6655Y236615I0J12053D01*
G01*
X-41125Y233365D02*
G03*
X-42207Y232809I330J-1973D01*
G01*
X85000Y218000D02*
G03*
X84799Y219402I-5000J0D01*
G01*
X2559Y225000D02*
G03*
X1188Y224422I36J-2000D01*
G01*
X2559Y225000D02*
G03*
X7499Y229932I-59J5000D01*
G01*
X-32017Y191217D02*
G03*
X-32385Y190704I1422J-1407D01*
G01*
D02*
G03*
X-35000Y179479I22785J-11225D01*
G01*
X22583Y232892D02*
G03*
X22373Y232916I-326J-1973D01*
G01*
X53747Y227725D02*
G03*
X53515Y227778I-558J-1920D01*
G01*
X8139Y231356D02*
G03*
X7499Y229932I1360J-1466D01*
G01*
X10820Y233282D02*
G03*
X8139Y231356I6680J-12127D01*
G01*
X11901Y233522D02*
G03*
X10820Y233282I-125J-1996D01*
G01*
X-22499Y187379D02*
G03*
X-22500Y187329I1999J-51D01*
G01*
X-162895Y180441D02*
X-162895Y180440D01*
X39656Y239835D02*
X39655Y239835D01*
X54417Y230672D02*
G03*
X54185Y230724I-558J-1920D01*
G01*
X22918Y235894D02*
G03*
X22707Y235917I-326J-1973D01*
G01*
X5936Y236888D02*
G03*
X5779Y236891I-115J-1997D01*
G01*
X-16940Y236420D02*
G03*
X-17132Y236407I41J-2000D01*
G01*
X-33598Y234470D02*
G03*
X-33810Y234433I234J-1986D01*
G01*
X-36702Y234105D02*
G03*
X-33810Y234433I0J12891D01*
G01*
X-36702Y234105D02*
G03*
X-36712Y234103I330J-1973D01*
G01*
X-172499Y169543D02*
G03*
X-172500Y169487I1999J-56D01*
G01*
X-171899Y171653D02*
G03*
X-172478Y170301I1421J-1408D01*
G01*
X-151890Y189797D02*
G03*
X-151891Y189796I1295J-1524D01*
G01*
X-151797Y189871D02*
G03*
X-151890Y189797I1202J-1599D01*
G01*
X-140162Y198615D02*
G03*
X-140258Y198547I1104J-1668D01*
G01*
X-168079Y175473D02*
G03*
X-168112Y175441I1384J-1444D01*
G01*
X-162895Y180440D02*
G03*
X-162976Y180366I1303J-1517D01*
G01*
X53958Y237027D02*
G03*
X53795Y237063I-742J-2923D01*
G01*
X39529Y239855D02*
G03*
X39510Y239858I-285J-1980D01*
G01*
X82610Y226856D02*
G03*
X82629Y226807I1871J706D01*
G01*
X67917Y233411D02*
G03*
X67890Y233418I-787J-2912D01*
G01*
X82824Y226248D02*
G03*
X82629Y226807I-4824J-1373D01*
G01*
X23252Y238896D02*
G03*
X23049Y238919I-326J-1973D01*
G01*
X82500Y227147D02*
G03*
X81762Y228929I-2520J0D01*
G01*
X68059Y233368D02*
G03*
X68042Y233374I-930J-2869D01*
G01*
X25242Y241777D02*
G03*
X25118Y241790I-268J-1982D01*
G01*
X55086Y233618D02*
G03*
X54863Y233669I-558J-1921D01*
G01*
X68042Y233374D02*
G03*
X67917Y233411I-629J-1899D01*
G01*
X80000Y224875D02*
G03*
X78558Y226795I-2000J-0D01*
G01*
X25118Y241790D02*
G03*
X25089Y241792I-258J-3005D01*
G01*
X39655Y239835D02*
G03*
X39567Y239850I-373J-1965D01*
G01*
X10737Y242853D02*
G03*
X10604Y242860I-161J-1993D01*
G01*
X10752Y242852D02*
G03*
X10737Y242854I-221J-3008D01*
G01*
X-17535Y242435D02*
G03*
X-17550Y242434I81J-1998D01*
G01*
X-32950Y240848D02*
G03*
X-32952Y240847I320J-1974D01*
G01*
X-32841Y240863D02*
G03*
X-32950Y240848I211J-1989D01*
G01*
X-61385Y235213D02*
G03*
X-61498Y235184I450J-1949D01*
G01*
X-61382Y235214D02*
G03*
X-61385Y235213I447J-1949D01*
G01*
X-47166Y238471D02*
G03*
X-47184Y238468I498J-2975D01*
G01*
Y238468D02*
G03*
X-47300Y238445I318J-1975D01*
G01*
Y238445D02*
G03*
X-47340Y238436I632J-2949D01*
G01*
X-89055Y226192D02*
G03*
X-89155Y226152I687J-1878D01*
G01*
X-89015Y226206D02*
G03*
X-89055Y226191I1021J-2838D01*
G01*
X-75318Y231128D02*
G03*
X-75333Y231123I849J-2894D01*
G01*
X-75451Y231086D02*
G03*
X-75489Y231072I982J-2852D01*
G01*
X-75333Y231123D02*
G03*
X-75451Y231086I549J-1923D01*
G01*
X-91882Y224982D02*
G03*
X-92171Y224829I789J-1838D01*
G01*
X-94144Y224012D02*
G03*
X-92171Y224829I0J2792D01*
G01*
X-96414Y223038D02*
G03*
X-96420Y223036I783J-1840D01*
G01*
X-96413Y223038D02*
G03*
X-96414Y223038I782J-1841D01*
G01*
X-115433Y213936D02*
G03*
X-115514Y213893I900J-1786D01*
G01*
X-128120Y206588D02*
G03*
X-128122Y206587I1098J-1672D01*
G01*
X-128004Y206659D02*
G03*
X-128120Y206588I982J-1742D01*
G01*
X10604Y242860D02*
G03*
X10577Y242860I-53J-1999D01*
G01*
X5993Y239906D02*
G03*
X5845Y239909I-115J-1997D01*
G01*
X-17145Y239433D02*
G03*
X-17335Y239420I39J-2000D01*
G01*
X-3807Y243061D02*
G03*
X-3973Y243058I-33J-3016D01*
G01*
X-18408Y242392D02*
G03*
X-18516Y242384I97J-1998D01*
G01*
X-37078Y237097D02*
G03*
X-37167Y237085I234J-1986D01*
G01*
X-45740Y235651D02*
G03*
X-45883Y235621I336J-1972D01*
G01*
X-68620Y229949D02*
G03*
X-68823Y229886I484J-1941D01*
G01*
X-93097Y221091D02*
G03*
X-93609Y220928I343J-1970D01*
G01*
X-93097Y221091D02*
G03*
X-92149Y221350I-1047J5712D01*
G01*
X-113954Y211303D02*
G03*
X-114093Y211230I855J-1808D01*
G01*
X-102424Y220460D02*
G03*
X-102532Y220410I792J-1837D01*
G01*
X-120127Y207736D02*
G03*
X-120228Y207673I1002J-1731D01*
G01*
X75000Y178321D02*
Y224689D01*
X66340Y169660D02*
X66340D01*
X75000Y178321D01*
X57984Y154444D02*
Y165570D01*
X71984Y179570D02*
Y220445D01*
X61000Y153194D02*
Y164321D01*
X66340Y169660D01*
X57984Y165570D02*
X71984Y179570D01*
X69193Y223236D02*
X71984Y220445D01*
X135000Y157500D02*
X140000Y162500D01*
X130429Y157500D02*
X135000D01*
X128445Y159484D02*
X130429Y157500D01*
X106820Y159484D02*
X128445D01*
X88016Y140680D02*
X106820Y159484D01*
X85000Y141929D02*
X105571Y162500D01*
X132500D01*
X88016Y114180D02*
Y140680D01*
X31742Y106952D02*
X80788D01*
X88016Y114180D01*
X29909Y109968D02*
X79539D01*
X85000Y115429D02*
Y141929D01*
X79539Y109968D02*
X85000Y115429D01*
X30516Y105725D02*
X31742Y106952D01*
X25820Y93484D02*
X30516Y98180D01*
Y105725D01*
X14484Y98180D02*
X19180Y93484D01*
X25820D01*
X14484Y98180D02*
Y109484D01*
X17500Y108067D02*
X22500Y113067D01*
X17500Y99429D02*
Y108067D01*
X14484Y109484D02*
X19484Y114484D01*
Y125820D02*
X24180Y130516D01*
X19484Y114484D02*
Y125820D01*
X24180Y130516D02*
X31749D01*
X36117Y126149D01*
X30500Y127500D02*
X34867Y123133D01*
X25429Y127500D02*
X30500D01*
X36117Y126149D02*
X47618D01*
X53000Y131531D01*
Y149459D01*
X59032Y129032D02*
Y145532D01*
X56016Y148210D02*
X61000Y153194D01*
X56016Y130281D02*
Y148210D01*
X48867Y123133D02*
X56016Y130281D01*
X59032Y145532D02*
X90000Y176500D01*
X50000Y120000D02*
X59032Y129032D01*
X53000Y149459D02*
X57984Y154444D01*
X53747Y227725D02*
X69193Y223236D01*
X71271Y225773D02*
X75000Y224689D01*
X27500Y99429D02*
Y107559D01*
X29909Y109968D01*
X24571Y96500D02*
X27500Y99429D01*
X17500D02*
X20429Y96500D01*
X24571D01*
X22500Y101500D02*
Y107500D01*
X35000Y120000D01*
X22500Y124571D02*
X25429Y127500D01*
X22500Y113067D02*
Y124571D01*
X34867Y123133D02*
X48867D01*
X35000Y120000D02*
X50000D01*
X-6388Y236639D02*
X67Y236773D01*
X-14546Y236470D02*
X-8523D01*
X-45000Y230016D02*
X-42207Y232809D01*
X82500Y187672D02*
X85000Y190172D01*
X82500Y187500D02*
Y187672D01*
X85000Y190172D02*
Y218000D01*
X90000Y176500D02*
Y222500D01*
X-32017Y191217D02*
X1188Y224422D01*
X-32017Y191217D02*
X-32017Y191217D01*
X-35000Y162500D02*
Y179479D01*
X52205Y227995D02*
X53515Y227778D01*
X17396Y233204D02*
X22373Y232916D01*
X22583Y232892D02*
X52205Y227995D01*
X11901Y233522D02*
X17396Y233204D01*
X-22499Y187379D02*
X-22335Y193829D01*
X-22500Y168594D02*
Y187329D01*
X39656Y239835D02*
X39657Y239835D01*
X-162895Y180441D02*
X-162894Y180441D01*
X66186Y227251D02*
X71271Y225773D01*
X52697Y230970D02*
X54185Y230724D01*
X54417Y230672D02*
X66186Y227251D01*
X36853Y233590D02*
X52697Y230970D01*
X19773Y236087D02*
X22707Y235917D01*
X22918Y235894D02*
X36853Y233590D01*
X10345Y236633D02*
X19773Y236087D01*
X5936Y236888D02*
X10345Y236633D01*
X67Y236773D02*
X5779Y236891D01*
X-26857Y235263D02*
X-17132Y236407D01*
X-16940Y236420D02*
X-14546Y236470D01*
X-33598Y234470D02*
X-26857Y235263D01*
X-41125Y233365D02*
X-36712Y234103D01*
X-37078Y237097D02*
X-17339Y239419D01*
X-44016Y130812D02*
X-39752Y126548D01*
X-42251Y120516D02*
X-24180D01*
X-50048Y128313D02*
X-42251Y120516D01*
X-41002Y123532D02*
X-22931D01*
X-50048Y128313D02*
Y157452D01*
X-41000Y132061D02*
X-38939Y130000D01*
X-47032Y129563D02*
Y156116D01*
X-39752Y126548D02*
X-21681D01*
X-53064Y127064D02*
X-43500Y117500D01*
X-25429D01*
X-53064Y127064D02*
Y158701D01*
X-41000Y132061D02*
Y144000D01*
X-38939Y130000D02*
X-20265D01*
X-47032Y129563D02*
X-41002Y123532D01*
X-44016Y130812D02*
Y146413D01*
X-25574Y161926D02*
X-25000Y162500D01*
X-41000Y144000D02*
X-25574Y159426D01*
Y161926D01*
X-45262Y162238D02*
Y162762D01*
X-43586Y157367D02*
X-40000Y160954D01*
X-50262Y167238D02*
X-50000Y167500D01*
X-40000Y160954D02*
Y167500D01*
X-53064Y158701D02*
X-50262Y161503D01*
X-50048Y157452D02*
X-45262Y162238D01*
X-44016Y146413D02*
X-30000Y160429D01*
Y167500D01*
X-50262Y161503D02*
Y167238D01*
X-56080Y171420D02*
X2500Y230000D01*
X-68144Y20D02*
Y176417D01*
X-62112Y173918D02*
X-12500Y223531D01*
X-59096Y172669D02*
X-5574Y226191D01*
X-59096Y-4096D02*
Y172669D01*
X-68144Y176417D02*
X-27500Y217061D01*
X-62112Y-2847D02*
Y173918D01*
X-65128Y175168D02*
X-20000Y220296D01*
X-90000Y-15429D02*
X-71160Y3411D01*
X-56080Y15034D02*
X-56000Y14954D01*
X-56080Y15034D02*
Y171420D01*
X-76032Y-12133D02*
X-65128Y-1229D01*
Y175168D01*
X-73016Y-13751D02*
X-62112Y-2847D01*
X-71160Y3411D02*
Y118626D01*
X-79048Y-10884D02*
X-68144Y20D01*
X-70000Y-15000D02*
X-59096Y-4096D01*
X-47032Y156116D02*
X-45780Y157367D01*
X-74000Y121466D02*
X-71160Y118626D01*
X-74000Y121466D02*
Y127000D01*
X1952Y84748D02*
Y102915D01*
X-21681Y126548D02*
X1952Y102915D01*
X-23952Y58844D02*
X1952Y84748D01*
X-20265Y130000D02*
X4968Y104767D01*
X-17000Y131000D02*
X7984Y106016D01*
Y82249D02*
Y106016D01*
X-17000Y131000D02*
Y163094D01*
X4968Y83498D02*
Y104767D01*
X-1064Y85997D02*
Y101665D01*
X-7500Y88091D02*
Y99571D01*
X-4080Y87246D02*
Y100416D01*
X-22500Y114571D02*
X-7500Y99571D01*
X-24180Y120516D02*
X-19332Y115668D01*
X-39000Y101000D02*
X-27500Y112500D01*
X-25429Y117500D02*
X-22500Y114571D01*
X-19332Y115668D02*
X-4080Y100416D01*
X-19332Y115668D02*
Y115668D01*
X-22931Y123532D02*
X-1064Y101665D01*
X-22500Y114571D02*
Y114571D01*
X-26968Y60093D02*
X-1064Y85997D01*
X-17920Y56345D02*
X7984Y82249D01*
X-20936Y-19533D02*
Y57594D01*
X-23952Y-20783D02*
Y58844D01*
X-14904Y55096D02*
X1204Y71204D01*
X-14904Y-17035D02*
Y55096D01*
X-33000Y-27328D02*
Y25532D01*
X-17920Y-18284D02*
X-5252Y-30952D01*
X-17920Y-18284D02*
Y56345D01*
X-35032Y-30000D02*
Y-29360D01*
X-14904Y-17035D02*
X-10120Y-21819D01*
X-44968Y37500D02*
X-33000Y25532D01*
X-23952Y-20783D02*
X-7751Y-36984D01*
X-20936Y-19533D02*
X-6502Y-33968D01*
X-35032Y-29360D02*
X-33000Y-27328D01*
X-29984Y-32055D02*
Y61342D01*
X-34913Y-36984D02*
X-29984Y-32055D01*
Y61342D02*
X-4080Y87246D01*
X-26968Y-33703D02*
Y60093D01*
X-20936Y57594D02*
X4968Y83498D01*
X-33265Y-40000D02*
X-26968Y-33703D01*
X-7751Y-36984D02*
X75249D01*
X1204Y71204D02*
X22204D01*
X-5252Y-30952D02*
X78217D01*
X-40016Y55575D02*
X-7500Y88091D01*
X-6502Y-33968D02*
X76968D01*
X-40016Y42452D02*
Y55575D01*
X22204Y71204D02*
X22500Y71500D01*
X-123957Y146043D02*
X-112590Y157410D01*
X-124000Y146043D02*
X-123957D01*
X89968Y-57016D02*
X89984Y-57000D01*
X-146825Y-114682D02*
X-143682D01*
X-147143Y-115000D02*
X-146825Y-114682D01*
X-143682D02*
X-96032Y-67032D01*
X-147143Y-122036D02*
X-146770D01*
X-93016Y-68281D01*
Y-14180D01*
X-101413Y-108552D02*
X-90000Y-97139D01*
X-96032Y-67032D02*
Y-12931D01*
X-90000Y-97139D02*
Y-15429D01*
X-99048Y-65783D02*
Y-11681D01*
X-113265Y-80000D02*
X-99048Y-65783D01*
X39529Y239855D02*
X39567Y239850D01*
X-169000Y169000D02*
X-158389Y179611D01*
X-172499Y169543D02*
X-172478Y170301D01*
X-169000Y139000D02*
X-157500Y127500D01*
X-172500Y125000D02*
Y169487D01*
X-169000Y139000D02*
Y169000D01*
X-162894Y180441D02*
X-151891Y189796D01*
X-112590Y157410D02*
X-107179D01*
X-107090Y157500D01*
X-107500Y137500D02*
X-96016Y126016D01*
X-155389Y179611D02*
X-155000Y180000D01*
X-158389Y179611D02*
X-155389D01*
X-145000Y190579D02*
X-142944Y192635D01*
X-146026Y194210D02*
X-140258Y198547D01*
X-168112Y175441D02*
X-168112Y175441D01*
X-142944Y192635D02*
X-142523Y193055D01*
X-141920Y193324D01*
X-171899Y171653D02*
X-168112Y175441D01*
X-140162Y198615D02*
X-128122Y206587D01*
X-145000Y159972D02*
Y190579D01*
X-165518Y177929D02*
X-162976Y180366D01*
X-151797Y189871D02*
X-146026Y194210D01*
X-168079Y175473D02*
X-165518Y177929D01*
X-141920Y193324D02*
X-120228Y207673D01*
X-157500Y122500D02*
Y127500D01*
X-145000Y159972D02*
X-125028Y140000D01*
X80000Y218000D02*
Y224875D01*
X82824Y226248D02*
X84799Y219402D01*
X5993Y239906D02*
X23041Y238919D01*
X82500Y227147D02*
X82610Y226856D01*
X54854Y233671D02*
X54863Y233669D01*
X23041Y238919D02*
X23049Y238919D01*
X10752Y242852D02*
X23255Y241928D01*
X39657Y239835D02*
X53795Y237063D01*
X68059Y233368D02*
X80859Y229221D01*
X53958Y237027D02*
X55568Y236610D01*
X55086Y233618D02*
X78558Y226795D01*
X80859Y229221D02*
X81762Y228929D01*
X23255Y241928D02*
X25089Y241792D01*
X68042Y233374D02*
X68042Y233374D01*
X55568Y236610D02*
X67890Y233418D01*
X23252Y238896D02*
X54854Y233671D01*
X25242Y241777D02*
X39510Y239858D01*
X10737Y242853D02*
X10737Y242854D01*
X-17535Y242435D02*
X-17514Y242436D01*
X-37672Y240058D02*
X-32952Y240847D01*
X-47184Y238468D02*
X-47184Y238468D01*
X-61382Y235214D02*
X-47340Y238436D01*
X-47300Y238445D02*
X-47300Y238445D01*
X-89055Y226192D02*
X-89055Y226191D01*
X-75451Y231086D02*
X-75451Y231086D01*
X-75333Y231123D02*
X-75333Y231123D01*
X-96413Y223038D02*
X-94144Y224012D01*
X-115433Y213936D02*
X-102532Y220410D01*
X-115524Y213887D02*
X-115514Y213893D01*
X5836Y239909D02*
X5845Y239909D01*
X-17145Y239433D02*
X5836Y239909D01*
X5860Y242926D02*
X10577Y242860D01*
X-3807Y243061D02*
X5860Y242926D01*
X-17514Y242436D02*
X-3973Y243058D01*
X-17339Y239419D02*
X-17335Y239420D01*
X-18408Y242392D02*
X-17550Y242434D01*
X-32841Y240863D02*
X-18516Y242384D01*
X-37175Y237084D02*
X-37167Y237085D01*
X-45740Y235651D02*
X-37175Y237084D01*
X-45889Y235620D02*
X-45883Y235621D01*
X-68620Y229949D02*
X-45889Y235620D01*
X-46427Y238594D02*
X-37672Y240058D01*
X-47166Y238471D02*
X-46427Y238594D01*
X-69706Y232775D02*
X-61498Y235184D01*
X-92149Y221350D02*
X-68823Y229886D01*
X-91882Y224982D02*
X-89155Y226152D01*
X-89015Y226206D02*
X-75489Y231072D01*
X-113954Y211303D02*
X-93609Y220928D01*
X-75318Y231128D02*
X-69706Y232775D01*
X-114101Y211226D02*
X-114093Y211230D01*
X-120127Y207736D02*
X-114101Y211226D01*
X-102424Y220460D02*
X-96420Y223036D01*
X-121767Y210271D02*
X-115524Y213887D01*
X-128004Y206659D02*
X-121767Y210271D01*
X199984Y-115016D02*
X223000Y-92000D01*
X219984Y-90587D02*
Y95751D01*
X208751Y106984D02*
X219984Y95751D01*
X198571Y-112000D02*
X219984Y-90587D01*
X210000Y110000D02*
X223000Y97000D01*
Y-92000D02*
Y97000D01*
X193016Y106984D02*
X208751D01*
X195000Y110000D02*
X210000D01*
X175574Y124426D02*
X193016Y106984D01*
X174472Y130528D02*
X195000Y110000D01*
X172500Y125000D02*
X173074Y124426D01*
X175574D01*
X139032Y-123000D02*
X147016Y-115016D01*
X137783Y-119984D02*
X145767Y-112000D01*
X130413Y-119984D02*
X137783D01*
X128429Y-118000D02*
X130413Y-119984D01*
X129000Y-123000D02*
X139032D01*
X127168Y-121168D02*
X129000Y-123000D01*
X124929Y-118000D02*
X128429D01*
X90000Y-83071D02*
X124929Y-118000D01*
X145767Y-112000D02*
X198571D01*
X147016Y-115016D02*
X199984D01*
X141000Y-108000D02*
X195500D01*
X210000Y-93500D01*
X174472Y130528D02*
Y134500D01*
X123832Y-121168D02*
X127168D01*
X108664Y-106000D02*
X123832Y-121168D01*
X93000Y-106000D02*
X108664D01*
X106214Y-119786D02*
X117286D01*
X125000Y-127500D01*
X112032Y-79032D02*
X141000Y-108000D01*
X90000Y-83071D02*
Y-57000D01*
X-9766Y-131234D02*
X102500D01*
X97782Y-128218D02*
X106214Y-119786D01*
X40289Y-128218D02*
X97782D01*
X82500Y87500D02*
X90000Y80000D01*
Y23500D02*
Y80000D01*
X86500Y20000D02*
X90000Y23500D01*
X75249Y-36984D02*
X83265Y-45000D01*
X96000D01*
X104537Y-27936D02*
X112032Y-35431D01*
X76968Y-33968D02*
X84968Y-41968D01*
X-4003Y-27936D02*
X104537D01*
X78217Y-30952D02*
X86217Y-38952D01*
X-10120Y-21819D02*
X-4003Y-27936D01*
X84968Y-41968D02*
X91961D01*
X86217Y-38952D02*
X90712D01*
X96000Y-45000D02*
X101000Y-40000D01*
X91961Y-41968D02*
X98929Y-35000D01*
X90712Y-38952D02*
X97680Y-31984D01*
X109016Y-60984D02*
Y-36680D01*
X100000Y-70000D02*
X109016Y-60984D01*
X112032Y-79032D02*
Y-35431D01*
X-10120Y-21819D02*
X-10120D01*
X-116688Y140000D02*
X-115516Y138828D01*
X-125028Y140000D02*
X-116688D01*
X-115516Y134180D02*
Y138828D01*
Y134180D02*
X-110820Y129484D01*
X-108014D01*
X-102048Y123518D01*
Y51247D02*
Y123518D01*
X-96016Y-12915D02*
Y126016D01*
X-99032Y-11665D02*
Y124767D01*
X-93000Y-14164D02*
Y126190D01*
X-107500Y95000D02*
Y100000D01*
X-167500Y35000D02*
X-107500Y95000D01*
X-105639Y47060D02*
Y47656D01*
X-102048Y51247D01*
X-83500Y136000D02*
X-75000D01*
X-85000Y137500D02*
X-83500Y136000D01*
X-93750Y137500D02*
X-85000D01*
X-98750Y142500D02*
X-93750Y137500D01*
X-112500Y137500D02*
Y139571D01*
X-112500Y137500D02*
X-112500Y137500D01*
Y139571D02*
X-109571Y142500D01*
X-98750D01*
X-112500Y135429D02*
Y137500D01*
X-109571Y132500D02*
X-106765D01*
X-112500Y135429D02*
X-109571Y132500D01*
X-106765D02*
X-99032Y124767D01*
X-162500Y20000D02*
X-132699D01*
X-105639Y47060D01*
X97680Y-31984D02*
X104320D01*
X109016Y-36680D01*
X106000Y-50000D02*
Y-37929D01*
X103071Y-35000D02*
X106000Y-37929D01*
X98929Y-35000D02*
X103071D01*
X-22500Y168594D02*
X-17000Y163094D01*
X101000Y-55000D02*
X106000Y-50000D01*
X-45780Y157367D02*
X-43586D01*
X-32985Y-99484D02*
X2516D01*
X4500Y-97500D02*
X9571D01*
X-34235Y-102500D02*
X7500D01*
X2516Y-99484D02*
X4500Y-97500D01*
X9571D02*
X40289Y-128218D01*
X-39265Y-37000D02*
X-39249Y-36984D01*
X-38000Y-40000D02*
X-33265D01*
X-39249Y-36984D02*
X-34913D01*
X-39968Y-41968D02*
X-38000Y-40000D01*
X-39968Y-92501D02*
X-32985Y-99484D01*
X-39968Y-92501D02*
Y-41968D01*
X-41812Y-37000D02*
X-39265D01*
X-42984Y-38172D02*
X-41812Y-37000D01*
X-50016Y92055D02*
X-44571Y97500D01*
X-53032Y93968D02*
X-46000Y101000D01*
X-50016Y40117D02*
X-49968Y40069D01*
X-53032Y38867D02*
X-52984Y38819D01*
X-50016Y40117D02*
Y92055D01*
X-56000Y-21000D02*
Y14954D01*
X-49968Y-15032D02*
Y40069D01*
X-53032Y38867D02*
Y93968D01*
X-52984Y-16281D02*
Y38819D01*
X-42984Y-93751D02*
X-34235Y-102500D01*
X-42984Y-93751D02*
Y-38172D01*
X-44968Y37500D02*
X-40016Y42452D01*
X-52984Y-16281D02*
X-49400Y-19865D01*
X-49968Y-15032D02*
X-46000Y-19000D01*
X-5574Y229426D02*
X-5000Y230000D01*
X-76032Y-91701D02*
Y-12133D01*
X-79048Y-90452D02*
Y-10884D01*
X-73016Y-92951D02*
Y-13751D01*
X-5574Y226191D02*
Y229426D01*
X-27500Y97500D02*
X-22500Y92500D01*
X-93016Y-14180D02*
X-93000Y-14164D01*
X-96032Y-12931D02*
X-96016Y-12915D01*
X-99048Y-11681D02*
X-99032Y-11665D01*
X-70000Y-94200D02*
Y-15000D01*
X-93000Y126190D02*
X-87500Y131690D01*
X-108123Y-108552D02*
X-101413D01*
X-125000Y-125429D02*
X-108123Y-108552D01*
X-125000Y-129571D02*
Y-125429D01*
Y-129571D02*
X-124420Y-130151D01*
Y-130580D02*
Y-130151D01*
X-112720Y-118584D02*
X-111084D01*
X-117416Y-123280D02*
X-112720Y-118584D01*
X-111471Y-121600D02*
X-109835D01*
X-114400Y-124529D02*
X-111471Y-121600D01*
X-120000Y-127500D02*
Y-127412D01*
X-117416Y-124828D01*
X-117500Y-137500D02*
X-94500D01*
X-124420Y-130580D02*
X-117500Y-137500D01*
X-117416Y-124828D02*
Y-123280D01*
X-111084Y-118584D02*
X-104068Y-111568D01*
X-109835Y-121600D02*
X-102819Y-114584D01*
X-104068Y-111568D02*
X-100164D01*
X-114400Y-128671D02*
Y-124529D01*
X-102819Y-114584D02*
X-98914D01*
X-94500Y-137500D02*
X-80000Y-152000D01*
X-114400Y-128671D02*
X-109471Y-133600D01*
X-50400D01*
X-46000Y101000D02*
X-39000D01*
X-44571Y97500D02*
X-27500D01*
X-49400Y-95865D02*
Y-19865D01*
X-46000Y-95000D02*
Y-19000D01*
X34618Y-176369D02*
X34750Y-176500D01*
X31103Y-176369D02*
X34618D01*
X-49400Y-95865D02*
X31103Y-176369D01*
X-46000Y-95000D02*
X-9766Y-131234D01*
X-87500Y131690D02*
Y132500D01*
X-165000Y-80000D02*
X-113265D01*
X-167500Y17500D02*
Y35000D01*
Y17500D02*
X-162500Y12500D01*
X-100164Y-111568D02*
X-79048Y-90452D01*
X-97665Y-117600D02*
X-73016Y-92951D01*
X-98400Y-122600D02*
X-70000Y-94200D01*
X-98914Y-114584D02*
X-76032Y-91701D01*
X-95329Y-126600D02*
X-65400D01*
X-100471Y-117600D02*
X-97665D01*
X-103400Y-120529D02*
X-100471Y-117600D01*
X-27500Y217061D02*
Y230000D01*
X-96329Y-127600D02*
X-95329Y-126600D01*
X-50400Y-133600D02*
X-43400Y-126600D01*
X-103400Y-124671D02*
Y-120529D01*
Y-124671D02*
X-100471Y-127600D01*
X-20000Y220296D02*
Y230016D01*
X-100471Y-127600D02*
X-96329D01*
X-12500Y223531D02*
Y230000D01*
D55*
X-185914Y162023D02*
G03*
X-186027Y161893I2205J-2034D01*
G01*
X-142307Y201406D02*
G03*
X-142308Y201405I1797J-2403D01*
G01*
X-153981Y192628D02*
G03*
X-154097Y192535I1813J-2390D01*
G01*
X-178635Y169890D02*
G03*
X-178709Y169813I2128J-2115D01*
G01*
X-142171Y201502D02*
G03*
X-142307Y201406I1661J-2498D01*
G01*
X-165231Y183070D02*
G03*
X-165350Y182962I1951J-2279D01*
G01*
X-195278Y150606D02*
G03*
X-195380Y150473I2323J-1898D01*
G01*
D02*
G03*
X-195381Y150472I2426J-1764D01*
G01*
X83157Y232162D02*
G03*
X82856Y232270I-2011J-5136D01*
G01*
X69106Y236725D02*
G03*
X68821Y236809I-1692J-5250D01*
G01*
X96832Y226801D02*
G03*
X96667Y226872I-1259J-2723D01*
G01*
X25409Y245294D02*
G03*
X25342Y245299I-549J-6509D01*
G01*
X25709Y245262D02*
G03*
X25409Y245294I-736J-5467D01*
G01*
X68821Y236809D02*
G03*
X68776Y236820I-1691J-6309D01*
G01*
X26968Y245092D02*
G03*
X26971Y245092I400J2973D01*
G01*
X54839Y240430D02*
G03*
X54472Y240513I-1624J-6327D01*
G01*
X107500Y219541D02*
G03*
X106307Y222421I-4072J0D01*
G01*
X69143Y236713D02*
G03*
X69106Y236725I-2014J-6214D01*
G01*
X40350Y243282D02*
G03*
X40022Y243337I-1074J-5410D01*
G01*
X23520Y245434D02*
G03*
X23510Y245434I-265J-3506D01*
G01*
X10977Y246361D02*
G03*
X10672Y246375I-402J-5501D01*
G01*
X11009Y246359D02*
G03*
X10977Y246361I-478J-6514D01*
G01*
X10672Y246375D02*
G03*
X10632Y246376I-121J-5515D01*
G01*
X-17700Y245947D02*
G03*
X-17720Y245946I246J-5511D01*
G01*
X-3855Y246578D02*
G03*
X-4035Y246575I-42J-3000D01*
G01*
X-18578Y245904D02*
G03*
X-18900Y245879I267J-5510D01*
G01*
X-33221Y244358D02*
G03*
X-33529Y244316I592J-5484D01*
G01*
X-47746Y241938D02*
G03*
X-47785Y241932I1078J-6442D01*
G01*
X-47785Y241932D02*
G03*
X-48092Y241871I919J-5439D01*
G01*
D02*
G03*
X-48131Y241862I751J-3435D01*
G01*
X-62181Y238638D02*
G03*
X-62498Y238555I1246J-5373D01*
G01*
X-76599Y234409D02*
G03*
X-76670Y234384I2130J-6175D01*
G01*
X-90205Y229515D02*
G03*
X-90233Y229505I2211J-6146D01*
G01*
X-76334Y234494D02*
G03*
X-76599Y234409I1549J-5294D01*
G01*
X-90233Y229504D02*
G03*
X-90536Y229385I1865J-5191D01*
G01*
X-103823Y223686D02*
G03*
X-104112Y223551I2191J-5062D01*
G01*
X-117014Y217076D02*
G03*
X-117279Y216934I2482J-4926D01*
G01*
X-129779Y209694D02*
G03*
X-130069Y209515I2756J-4778D01*
G01*
X-213650Y57150D02*
G03*
X-220005Y59782I-6355J-6355D01*
G01*
X-235760Y72336D02*
G03*
X-235813Y72165I2841J-964D01*
G01*
X-219042Y113296D02*
G03*
X-219125Y113137I2623J-1456D01*
G01*
X-225499Y99830D02*
G03*
X-225499Y99829I2774J-1142D01*
G01*
X-225434Y99977D02*
G03*
X-225499Y99830I2709J-1289D01*
G01*
X-204034Y138513D02*
G03*
X-204034Y138512I2526J-1618D01*
G01*
X-203942Y138648D02*
G03*
X-204034Y138513I2434J-1753D01*
G01*
X-231013Y86306D02*
G03*
X-231069Y86157I2782J-1124D01*
G01*
X98472Y180000D02*
X122500D01*
X80000Y117500D02*
Y136000D01*
X70000Y146000D02*
X80000Y136000D01*
X70000Y151528D02*
X98472Y180000D01*
X70000Y146000D02*
Y151528D01*
X20000Y10000D02*
X20383Y10383D01*
Y12383D02*
X37500Y29500D01*
X20383Y10383D02*
Y12383D01*
X-154103Y192531D02*
X-154100Y192533D01*
X-154097Y192535D01*
X-185914Y162023D02*
X-178709Y169813D01*
X-165231Y183070D02*
X-165228Y183071D01*
X-178635Y169890D02*
X-170554Y177971D01*
X25709Y245262D02*
X26968Y245092D01*
X-170554Y177971D02*
X-165350Y182962D01*
X-153981Y192628D02*
X-153970Y192636D01*
X-142308Y201405D01*
X-165228Y183071D02*
X-154103Y192531D01*
X-142171Y201502D02*
X-139803Y203069D01*
X-195021Y150919D02*
X-186027Y161893D01*
X-203942Y138648D02*
X-195381Y150472D01*
X-195278Y150606D02*
X-195021Y150919D01*
X81361Y232755D02*
X82856Y232270D01*
X23520Y245434D02*
X25342Y245299D01*
X40350Y243282D02*
X52999Y240802D01*
X95757Y227229D02*
X96667Y226872D01*
X52999Y240802D02*
X54472Y240513D01*
X25409Y245294D02*
Y245294D01*
X55996Y240131D02*
X68776Y236820D01*
X83157Y232162D02*
X95757Y227229D01*
X37008Y243742D02*
X40022Y243337D01*
X69143Y236713D02*
X81361Y232755D01*
X96832Y226801D02*
X106307Y222421D01*
X26975Y245091D02*
X26987Y245090D01*
X37008Y243742D01*
X54839Y240430D02*
X55996Y240131D01*
X26971Y245092D02*
X26975Y245091D01*
X107500Y215000D02*
Y219541D01*
X100000Y207500D02*
X107500Y215000D01*
X100000Y207500D02*
X100000D01*
X100000D02*
X100000Y193500D01*
X11009Y246359D02*
X23510Y245434D01*
X5860Y246442D02*
X10632Y246376D01*
X2375Y246491D02*
X5860Y246442D01*
X-1147Y246540D02*
X2375Y246491D01*
X-3855Y246578D02*
X-1147Y246540D01*
X-21202Y245634D02*
X-18900Y245879D01*
X-14142Y246110D02*
X-11441Y246234D01*
X-8328Y246378D02*
X-4035Y246575D01*
X-11441Y246234D02*
X-8328Y246378D01*
X-17700Y245947D02*
X-14142Y246110D01*
X-18578Y245904D02*
X-17720Y245946D01*
X-33221Y244358D02*
X-21202Y245634D01*
X-47007Y242062D02*
X-34807Y244102D01*
X-33529Y244316D01*
X-47746Y241938D02*
X-47007Y242062D01*
X-48153Y241857D02*
X-48131Y241862D01*
X-50471Y241325D02*
X-48153Y241857D01*
X-62181Y238638D02*
X-50471Y241325D01*
X-67340Y237133D02*
X-62498Y238555D01*
X-76334Y234494D02*
X-67340Y237133D01*
X-76599Y234409D02*
X-76599Y234409D01*
X-94144Y227838D02*
X-90536Y229385D01*
X-90233Y229505D02*
X-90233Y229504D01*
X-97809Y226266D02*
X-94144Y227838D01*
X-90205Y229515D02*
X-76670Y234384D01*
X-103823Y223686D02*
X-97809Y226266D01*
X-129779Y209694D02*
X-117279Y216934D01*
X-117014Y217076D02*
X-104112Y223551D01*
X175000Y99000D02*
X203984D01*
X126000Y148000D02*
X175000Y99000D01*
X203984D02*
X207484Y95500D01*
X165000Y90000D02*
X212174D01*
X214000Y91826D01*
X140000Y65000D02*
X165000Y90000D01*
X207294Y103468D02*
X214000Y96762D01*
Y91826D02*
Y96762D01*
X177754Y103468D02*
X207294D01*
X111041Y148000D02*
X126000D01*
X158500Y122722D02*
X177754Y103468D01*
X158500Y122722D02*
Y137704D01*
X162413Y141617D01*
X165617D02*
X166000Y142000D01*
X162413Y141617D02*
X165617D01*
X110541Y147500D02*
X111041Y148000D01*
X110000Y147500D02*
X110541D01*
X-138183Y204143D02*
X-130069Y209515D01*
X-139803Y203069D02*
X-138183Y204143D01*
X-239205Y59782D02*
X-220005D01*
X-236543Y69498D02*
X-235813Y72165D01*
X-235760Y72336D02*
X-231069Y86157D01*
X-225434Y99977D02*
X-219125Y113137D01*
X-228380Y92762D02*
X-225499Y99829D01*
X-219042Y113296D02*
X-211918Y126126D01*
X-204034Y138512D01*
X-239205Y59782D02*
X-236543Y69498D01*
X-231013Y86306D02*
X-228380Y92762D01*
X-161178Y162120D02*
X-152120D01*
X-116000Y119000D02*
Y126000D01*
X-152120Y162120D02*
X-116000Y126000D01*
X-122500Y112500D02*
X-116000Y119000D01*
X-130000Y100000D02*
Y102500D01*
X-145000Y82500D02*
X-137500Y90000D01*
Y92500D02*
X-130000Y100000D01*
X-137500Y90000D02*
Y92500D01*
X-130000Y102500D02*
X-122500Y110000D01*
Y112500D01*
X-145000Y75000D02*
Y82500D01*
D56*
X73500Y-10000D02*
X84000D01*
X140000Y46000D02*
Y65000D01*
X84000Y-10000D02*
X140000Y46000D01*
X20000Y-5000D02*
X68500D01*
X73500Y-10000D01*
D57*
X85000Y-170000D02*
D03*
X115000D02*
D03*
D58*
X200000Y-73050D02*
D03*
Y73050D02*
D03*
X-200000Y-73050D02*
D03*
Y73050D02*
D03*
X200000Y-73050D02*
D03*
Y73050D02*
D03*
X-200000Y-73050D02*
D03*
Y73050D02*
D03*
D59*
X-134714Y130285D02*
D03*
D60*
X-155143Y82072D02*
D03*
X-165286Y89715D02*
D03*
X-147500Y92214D02*
D03*
X-157643Y99857D02*
D03*
X-139857Y102357D02*
D03*
X-150000Y110000D02*
D03*
X-132214Y112500D02*
D03*
X-142357Y120143D02*
D03*
X-124571Y122642D02*
D03*
D61*
X80000Y117500D02*
D03*
X66000Y162250D02*
D03*
X27500Y122500D02*
D03*
X40000Y114968D02*
D03*
Y135000D02*
D03*
X27500Y147500D02*
D03*
X82500Y187500D02*
D03*
X-22335Y193829D02*
D03*
X-45000Y230016D02*
D03*
X147000Y160000D02*
D03*
X140000Y162500D02*
D03*
X132500D02*
D03*
X-45262Y162762D02*
D03*
X-50000Y167500D02*
D03*
X-40000D02*
D03*
X-35000Y162500D02*
D03*
X-74000Y127000D02*
D03*
X-37500Y112500D02*
D03*
X-47500D02*
D03*
X-27500D02*
D03*
X-18000Y86000D02*
D03*
X-40096Y-17500D02*
D03*
X-110000Y202500D02*
D03*
X-75000Y187500D02*
D03*
X-86000Y194000D02*
D03*
X-77500Y180000D02*
D03*
X72500Y135000D02*
D03*
X82500Y146500D02*
D03*
X65000Y90000D02*
D03*
X32000Y157000D02*
D03*
X-124000Y146043D02*
D03*
X137500Y-132500D02*
D03*
X89984Y-57000D02*
D03*
X-147143Y-115000D02*
D03*
Y-122036D02*
D03*
X-34786Y70000D02*
D03*
X37500Y101500D02*
D03*
X22500Y101500D02*
D03*
X20000Y10000D02*
D03*
X22000Y48500D02*
D03*
X70000Y-45000D02*
D03*
X-85000Y-35000D02*
D03*
Y-27500D02*
D03*
X65000Y135000D02*
D03*
X-81000Y128000D02*
D03*
X-75000Y160000D02*
D03*
X-177500D02*
D03*
X-207500Y122500D02*
D03*
X-215000Y70000D02*
D03*
X-200000Y87500D02*
D03*
X-212500D02*
D03*
X-172500Y125000D02*
D03*
X-180000Y130000D02*
D03*
X-190000Y137500D02*
D03*
X-181611Y138389D02*
D03*
X-164179Y119179D02*
D03*
X-107090Y157500D02*
D03*
X-107500Y137500D02*
D03*
Y147500D02*
D03*
X-155000Y180000D02*
D03*
X80000Y218000D02*
D03*
X90000Y222500D02*
D03*
X100000Y217500D02*
D03*
X207484Y95500D02*
D03*
X166000Y135000D02*
D03*
X122500Y142500D02*
D03*
X132500Y-114984D02*
D03*
X130000Y-107500D02*
D03*
X141000Y-108000D02*
D03*
X109000Y-95000D02*
D03*
X93000Y-106000D02*
D03*
X102500Y-131234D02*
D03*
X-107469Y167500D02*
D03*
X160000Y181000D02*
D03*
X-32500Y92500D02*
D03*
X-42500D02*
D03*
X-2361Y127639D02*
D03*
X-13641Y92500D02*
D03*
X-75000Y204138D02*
D03*
X-7500Y135000D02*
D03*
X150000Y137000D02*
D03*
X166000Y142000D02*
D03*
X22500Y60000D02*
D03*
X86500Y20000D02*
D03*
X73332Y24582D02*
D03*
X75000Y-50000D02*
D03*
X83000Y-121000D02*
D03*
X86035Y-51035D02*
D03*
X87543Y-33207D02*
D03*
X80000Y-105000D02*
D03*
X60000D02*
D03*
X73500Y-10000D02*
D03*
X102500Y-140000D02*
D03*
X95000D02*
D03*
X-170000Y-104000D02*
D03*
X-187500Y-130000D02*
D03*
X60000Y70000D02*
D03*
X37500Y46500D02*
D03*
X130000Y50000D02*
D03*
X172500Y125000D02*
D03*
X-107500Y100000D02*
D03*
X-130000Y171000D02*
D03*
X-87500Y152500D02*
D03*
X-27500Y145000D02*
D03*
X100000Y-70000D02*
D03*
X101000Y-55000D02*
D03*
Y-40000D02*
D03*
X-35032Y-30000D02*
D03*
X7500Y-102500D02*
D03*
X125000Y-127500D02*
D03*
X-45016Y45000D02*
D03*
X45000Y167500D02*
D03*
X-30000D02*
D03*
X-44968Y30000D02*
D03*
Y37500D02*
D03*
X-77500Y112500D02*
D03*
X-25000Y162500D02*
D03*
X-22500Y92500D02*
D03*
X-87451Y172560D02*
D03*
X-109984Y-17500D02*
D03*
X-87500Y165000D02*
D03*
X-85000Y-17500D02*
D03*
X-120000Y-127500D02*
D03*
X65000Y142500D02*
D03*
X-60000Y194000D02*
D03*
X27500Y162500D02*
D03*
X30000Y177500D02*
D03*
X122500Y132500D02*
D03*
X172490Y117490D02*
D03*
X164000Y125000D02*
D03*
X37500Y71500D02*
D03*
X140000Y65000D02*
D03*
X97500Y42500D02*
D03*
X82500Y42500D02*
D03*
X-56000Y-21000D02*
D03*
X-105639Y47060D02*
D03*
X-81000Y85000D02*
D03*
X-107500Y110000D02*
D03*
X-165000Y-80000D02*
D03*
X-109000Y52623D02*
D03*
X-75000Y136000D02*
D03*
X-87500Y132500D02*
D03*
Y142500D02*
D03*
X-162500Y5000D02*
D03*
Y12500D02*
D03*
Y20000D02*
D03*
X-130000Y-130000D02*
D03*
X-65000Y-27500D02*
D03*
Y-35000D02*
D03*
Y-20000D02*
D03*
X-20000Y230016D02*
D03*
X-27500Y230000D02*
D03*
X-12500D02*
D03*
X-5000D02*
D03*
X2500D02*
D03*
X110000Y-124786D02*
D03*
X147500Y-152500D02*
D03*
Y-145000D02*
D03*
X-32400Y-126600D02*
D03*
X-109400D02*
D03*
X-127500Y92500D02*
D03*
X34750Y-176500D02*
D03*
X22500Y71500D02*
D03*
X20000Y-5000D02*
D03*
Y2500D02*
D03*
X37500Y29500D02*
D03*
X-157500Y122500D02*
D03*
X-7500Y-121500D02*
D03*
X-161178Y162120D02*
D03*
X-85000Y122500D02*
D03*
X15000Y207714D02*
D03*
X0Y180000D02*
D03*
Y170000D02*
D03*
X-137500Y75000D02*
D03*
X-145000D02*
D03*
X210000Y-93500D02*
D03*
X102500Y122500D02*
D03*
X122500Y90000D02*
D03*
X102500Y87500D02*
D03*
X82500D02*
D03*
X110000Y147500D02*
D03*
X109050Y31181D02*
D03*
X67500Y42500D02*
D03*
X52500Y42500D02*
D03*
X159000Y15000D02*
D03*
X101000Y-10000D02*
D03*
X10000Y-22500D02*
D03*
X-5000Y12500D02*
D03*
Y5000D02*
D03*
Y-2500D02*
D03*
X80000Y-75000D02*
D03*
X-145000Y5000D02*
D03*
X-135000D02*
D03*
X-145000Y15000D02*
D03*
X-135000D02*
D03*
X-130000Y50000D02*
D03*
Y60000D02*
D03*
X-120000Y50000D02*
D03*
Y60000D02*
D03*
X37500Y-86500D02*
D03*
X31000D02*
D03*
X24000D02*
D03*
X17500D02*
D03*
X37500Y-93500D02*
D03*
X31000D02*
D03*
X24000D02*
D03*
X17500D02*
D03*
X-157500Y-155000D02*
D03*
X-189357Y144787D02*
D03*
X122500Y180000D02*
D03*
X170000Y75000D02*
D03*
X177500D02*
D03*
X174472Y134500D02*
D03*
X122500Y122500D02*
D03*
Y112500D02*
D03*
X127500Y-53016D02*
D03*
X100000Y193500D02*
D03*
X-165000Y127500D02*
D03*
X-80000Y-152000D02*
D03*
X-98400Y-122600D02*
D03*
X-43400Y-126600D02*
D03*
X-65400D02*
D03*
X-100000Y-147500D02*
D03*
Y-155000D02*
D03*
X-54400Y-128600D02*
D03*
X130000Y-15000D02*
D03*
X-135000Y191250D02*
D03*
X185000Y75000D02*
D03*
X122500Y102500D02*
D03*
X142500Y0D02*
D03*
X137500Y5000D02*
D03*
X147500D02*
D03*
Y-5000D02*
D03*
X137500D02*
D03*
X148000Y180500D02*
D03*
Y189500D02*
D03*
X198000Y129500D02*
D03*
Y120500D02*
D03*
X178000Y159500D02*
D03*
Y150500D02*
D03*
D62*
X-213650Y57150D02*
D03*
X-186350D02*
D03*
X-213650Y44450D02*
D03*
X-186350D02*
D03*
Y19050D02*
D03*
X-213650D02*
D03*
X-186350Y31750D02*
D03*
X-213650D02*
D03*
X-186350Y-6350D02*
D03*
X-213650D02*
D03*
X-186350Y6350D02*
D03*
X-213650D02*
D03*
X-186350Y-31750D02*
D03*
X-213650D02*
D03*
X-186350Y-19050D02*
D03*
X-213650D02*
D03*
X-186350Y-57150D02*
D03*
X-213650D02*
D03*
X-186350Y-44450D02*
D03*
X-213650D02*
D03*
X186350D02*
D03*
X213650D02*
D03*
X186350Y-57150D02*
D03*
X213650D02*
D03*
X186350Y-19050D02*
D03*
X213650D02*
D03*
X186350Y-31750D02*
D03*
X213650D02*
D03*
X186350Y6350D02*
D03*
X213650D02*
D03*
X186350Y-6350D02*
D03*
X213650D02*
D03*
X186350Y31750D02*
D03*
X213650D02*
D03*
X186350Y19050D02*
D03*
X213650D02*
D03*
Y44450D02*
D03*
X186350D02*
D03*
X213650Y57150D02*
D03*
X186350D02*
D03*
D63*
X-47007Y242062D02*
D03*
M02*
