G04*
G04 #@! TF.GenerationSoftware,Altium Limited,Altium Designer,24.4.1 (13)*
G04*
G04 Layer_Color=8421504*
%FSLAX44Y44*%
%MOMM*%
G71*
G04*
G04 #@! TF.SameCoordinates,80C5A69E-986F-416B-A988-7B454DC68AB1*
G04*
G04*
G04 #@! TF.FilePolarity,Positive*
G04*
G01*
G75*
%ADD18R,0.3048X1.1938*%
%ADD19R,1.1938X0.3048*%
G04:AMPARAMS|DCode=20|XSize=0.95mm|YSize=0.8mm|CornerRadius=0.1mm|HoleSize=0mm|Usage=FLASHONLY|Rotation=180.000|XOffset=0mm|YOffset=0mm|HoleType=Round|Shape=RoundedRectangle|*
%AMROUNDEDRECTD20*
21,1,0.9500,0.6000,0,0,180.0*
21,1,0.7500,0.8000,0,0,180.0*
1,1,0.2000,-0.3750,0.3000*
1,1,0.2000,0.3750,0.3000*
1,1,0.2000,0.3750,-0.3000*
1,1,0.2000,-0.3750,-0.3000*
%
%ADD20ROUNDEDRECTD20*%
G04:AMPARAMS|DCode=21|XSize=0.95mm|YSize=0.8mm|CornerRadius=0.1mm|HoleSize=0mm|Usage=FLASHONLY|Rotation=90.000|XOffset=0mm|YOffset=0mm|HoleType=Round|Shape=RoundedRectangle|*
%AMROUNDEDRECTD21*
21,1,0.9500,0.6000,0,0,90.0*
21,1,0.7500,0.8000,0,0,90.0*
1,1,0.2000,0.3000,0.3750*
1,1,0.2000,0.3000,-0.3750*
1,1,0.2000,-0.3000,-0.3750*
1,1,0.2000,-0.3000,0.3750*
%
%ADD21ROUNDEDRECTD21*%
%ADD22R,0.3500X0.5500*%
%ADD23R,2.4000X1.6200*%
%ADD24R,0.6604X1.7018*%
%ADD25R,2.9200X0.7400*%
%ADD26R,1.4000X1.2000*%
G04:AMPARAMS|DCode=27|XSize=1.1mm|YSize=0.45mm|CornerRadius=0mm|HoleSize=0mm|Usage=FLASHONLY|Rotation=125.000|XOffset=0mm|YOffset=0mm|HoleType=Round|Shape=Rectangle|*
%AMROTATEDRECTD27*
4,1,4,0.4998,-0.3215,0.1312,-0.5796,-0.4998,0.3215,-0.1312,0.5796,0.4998,-0.3215,0.0*
%
%ADD27ROTATEDRECTD27*%

G04:AMPARAMS|DCode=28|XSize=0.7154mm|YSize=0.6725mm|CornerRadius=0mm|HoleSize=0mm|Usage=FLASHONLY|Rotation=215.000|XOffset=0mm|YOffset=0mm|HoleType=Round|Shape=Rectangle|*
%AMROTATEDRECTD28*
4,1,4,0.1001,0.4806,0.4859,-0.0703,-0.1001,-0.4806,-0.4859,0.0703,0.1001,0.4806,0.0*
%
%ADD28ROTATEDRECTD28*%

%ADD29R,0.6725X0.7154*%
%ADD30O,1.4500X0.3000*%
%ADD31O,0.3000X1.4500*%
%ADD32R,0.7154X0.6725*%
%ADD33R,0.5588X1.4732*%
%ADD34R,1.5000X0.5500*%
%ADD35R,0.8000X0.5000*%
%ADD36R,0.5750X1.1400*%
%ADD37R,1.1000X2.6000*%
%ADD38R,1.1000X2.8000*%
D18*
X-77500Y102500D02*
D03*
X-72500D02*
D03*
X-67500D02*
D03*
X-62500D02*
D03*
X-57500D02*
D03*
X-52500D02*
D03*
X-47500D02*
D03*
X-42500D02*
D03*
X-37500D02*
D03*
X-32500D02*
D03*
X-27500D02*
D03*
X-22500D02*
D03*
X-17500D02*
D03*
X-12500D02*
D03*
X-7500D02*
D03*
X-2500D02*
D03*
Y217500D02*
D03*
X-7500D02*
D03*
X-12500D02*
D03*
X-17500D02*
D03*
X-22500D02*
D03*
X-27500D02*
D03*
X-32500D02*
D03*
X-37500D02*
D03*
X-42500D02*
D03*
X-47500D02*
D03*
X-52500D02*
D03*
X-57500D02*
D03*
X-62500D02*
D03*
X-67500D02*
D03*
X-72500D02*
D03*
X-77500D02*
D03*
D19*
X17500Y122500D02*
D03*
Y147500D02*
D03*
Y152500D02*
D03*
Y157500D02*
D03*
Y162500D02*
D03*
Y167500D02*
D03*
Y172500D02*
D03*
Y177500D02*
D03*
Y182500D02*
D03*
Y187500D02*
D03*
Y192500D02*
D03*
Y197500D02*
D03*
X-97500D02*
D03*
Y192500D02*
D03*
Y187500D02*
D03*
Y182500D02*
D03*
Y177500D02*
D03*
Y172500D02*
D03*
Y167500D02*
D03*
Y162500D02*
D03*
Y157500D02*
D03*
Y152500D02*
D03*
Y147500D02*
D03*
Y142500D02*
D03*
Y137500D02*
D03*
Y132500D02*
D03*
Y127500D02*
D03*
Y122500D02*
D03*
X17500Y127500D02*
D03*
Y132500D02*
D03*
Y137500D02*
D03*
Y142500D02*
D03*
D20*
X-170000Y-91000D02*
D03*
Y-104000D02*
D03*
X-80000Y31000D02*
D03*
Y44000D02*
D03*
X-95000Y31000D02*
D03*
Y44000D02*
D03*
X67500Y56500D02*
D03*
Y43500D02*
D03*
X52500Y56500D02*
D03*
Y43500D02*
D03*
X95000Y-96500D02*
D03*
Y-83500D02*
D03*
X80000Y-96500D02*
D03*
Y-83500D02*
D03*
X97500Y56500D02*
D03*
Y43500D02*
D03*
X82500Y56500D02*
D03*
Y43500D02*
D03*
X25000Y224000D02*
D03*
Y211000D02*
D03*
D21*
X-106000Y100000D02*
D03*
X-119000D02*
D03*
Y85000D02*
D03*
X-106000D02*
D03*
X-94000D02*
D03*
X-81000D02*
D03*
X-206500Y-95000D02*
D03*
X-193500D02*
D03*
X163500Y105000D02*
D03*
X176500D02*
D03*
X163500Y90000D02*
D03*
X176500D02*
D03*
X133500Y-85000D02*
D03*
X146500D02*
D03*
X108500D02*
D03*
X121500D02*
D03*
X151500Y75000D02*
D03*
X138500D02*
D03*
D22*
X-135000Y42150D02*
D03*
X-130000D02*
D03*
X-125000D02*
D03*
X-120000D02*
D03*
X-115000D02*
D03*
X-135000Y67850D02*
D03*
X-130000D02*
D03*
X-125000D02*
D03*
X-120000D02*
D03*
X-115000D02*
D03*
D23*
X-125000Y55000D02*
D03*
D24*
X41250Y-143743D02*
D03*
X53750D02*
D03*
X66250D02*
D03*
X78750D02*
D03*
X91250D02*
D03*
X103750D02*
D03*
X116250D02*
D03*
X128750D02*
D03*
D25*
X217150Y-57150D02*
D03*
X182850D02*
D03*
X217150Y-44450D02*
D03*
X182850D02*
D03*
X217150Y-31750D02*
D03*
X182850D02*
D03*
X217150Y-19050D02*
D03*
X182850D02*
D03*
X217150Y-6350D02*
D03*
X182850D02*
D03*
X217150Y6350D02*
D03*
X182850D02*
D03*
X217150Y19050D02*
D03*
X182850D02*
D03*
X217150Y31750D02*
D03*
X182850D02*
D03*
X217150Y44450D02*
D03*
X182850D02*
D03*
X217150Y57150D02*
D03*
X182850D02*
D03*
X-182850Y-57150D02*
D03*
X-217150D02*
D03*
X-182850Y-44450D02*
D03*
X-217150D02*
D03*
X-182850Y-31750D02*
D03*
X-217150D02*
D03*
X-182850Y-19050D02*
D03*
X-217150D02*
D03*
X-182850Y-6350D02*
D03*
X-217150D02*
D03*
X-182850Y6350D02*
D03*
X-217150D02*
D03*
X-182850Y19050D02*
D03*
X-217150D02*
D03*
X-182850Y31750D02*
D03*
X-217150D02*
D03*
X-182850Y44450D02*
D03*
X-217150D02*
D03*
X-182850Y57150D02*
D03*
X-217150D02*
D03*
D26*
X66000Y226000D02*
D03*
X44000D02*
D03*
Y209000D02*
D03*
X66000D02*
D03*
X-9000Y36500D02*
D03*
X-31000D02*
D03*
Y53500D02*
D03*
X-9000D02*
D03*
D27*
X-185530Y-141241D02*
D03*
X-180206Y-137513D02*
D03*
X-174881Y-133785D02*
D03*
X-169557Y-130057D02*
D03*
X-184470Y-108759D02*
D03*
X-189794Y-112487D02*
D03*
X-195119Y-116215D02*
D03*
X-200443Y-119943D02*
D03*
D28*
X-166080Y-147255D02*
D03*
X-173920Y-152745D02*
D03*
D29*
X-95000Y57714D02*
D03*
Y67286D02*
D03*
X-80000Y57714D02*
D03*
Y67286D02*
D03*
X-50000D02*
D03*
Y57714D02*
D03*
X-155000Y54786D02*
D03*
Y45214D02*
D03*
X-65000Y57714D02*
D03*
Y67286D02*
D03*
X140000Y45214D02*
D03*
Y54786D02*
D03*
X120000Y45214D02*
D03*
Y54786D02*
D03*
X65000Y-85214D02*
D03*
Y-94786D02*
D03*
D30*
X52750Y92500D02*
D03*
Y97500D02*
D03*
Y102500D02*
D03*
Y107500D02*
D03*
Y112500D02*
D03*
Y117500D02*
D03*
Y122500D02*
D03*
Y127500D02*
D03*
Y132500D02*
D03*
Y137500D02*
D03*
Y142500D02*
D03*
Y147500D02*
D03*
X137250D02*
D03*
Y142500D02*
D03*
Y137500D02*
D03*
Y132500D02*
D03*
Y127500D02*
D03*
Y122500D02*
D03*
Y117500D02*
D03*
Y112500D02*
D03*
Y107500D02*
D03*
Y102500D02*
D03*
Y97500D02*
D03*
Y92500D02*
D03*
D31*
X67500Y162250D02*
D03*
X72500D02*
D03*
X77500D02*
D03*
X82500D02*
D03*
X87500D02*
D03*
X92500D02*
D03*
X97500D02*
D03*
X102500D02*
D03*
X107500D02*
D03*
X112500D02*
D03*
X117500D02*
D03*
X122500D02*
D03*
Y77750D02*
D03*
X117500D02*
D03*
X112500D02*
D03*
X107500D02*
D03*
X102500D02*
D03*
X97500D02*
D03*
X82500D02*
D03*
X77500D02*
D03*
X92500D02*
D03*
X87500D02*
D03*
X72500D02*
D03*
X67500D02*
D03*
D32*
X-154786Y25000D02*
D03*
X-145214D02*
D03*
X-34786Y70000D02*
D03*
X-25214D02*
D03*
X-5214D02*
D03*
X-14786D02*
D03*
X37714Y190000D02*
D03*
X47286D02*
D03*
X69786D02*
D03*
X60214D02*
D03*
D33*
X45550Y23815D02*
D03*
X58250D02*
D03*
X45550Y-63815D02*
D03*
X58250D02*
D03*
X134450Y23815D02*
D03*
X121750D02*
D03*
X109050D02*
D03*
X70950D02*
D03*
Y-63815D02*
D03*
X109050D02*
D03*
X121750D02*
D03*
X134450D02*
D03*
D34*
X105000Y178750D02*
D03*
Y211250D02*
D03*
X-135000Y191250D02*
D03*
Y158750D02*
D03*
D35*
X132000Y189500D02*
D03*
X148000D02*
D03*
X132000Y180500D02*
D03*
X148000D02*
D03*
X197000Y99500D02*
D03*
X213000D02*
D03*
X197000Y90500D02*
D03*
X213000D02*
D03*
X198000Y120500D02*
D03*
X182000D02*
D03*
X198000Y129500D02*
D03*
X182000D02*
D03*
X178000Y150500D02*
D03*
X162000D02*
D03*
X178000Y159500D02*
D03*
X162000D02*
D03*
D36*
X-53375Y37500D02*
D03*
X-61625D02*
D03*
D37*
X-140000Y2000D02*
D03*
X-120000D02*
D03*
X-100000D02*
D03*
X-80000D02*
D03*
X-60000D02*
D03*
X-40000D02*
D03*
X-20000D02*
D03*
X0D02*
D03*
Y-152000D02*
D03*
X-20000D02*
D03*
X-40000D02*
D03*
X-60000D02*
D03*
X-80000D02*
D03*
X-100000D02*
D03*
X-120000D02*
D03*
D38*
X-140000Y-151000D02*
D03*
M02*
