G04*
G04 #@! TF.GenerationSoftware,Altium Limited,Altium Designer,24.4.1 (13)*
G04*
G04 Layer_Color=8421504*
%FSLAX44Y44*%
%MOMM*%
G71*
G04*
G04 #@! TF.SameCoordinates,55532D4A-085B-46E5-86D8-018E79720E20*
G04*
G04*
G04 #@! TF.FilePolarity,Positive*
G04*
G01*
G75*
%ADD15R,0.9000X2.0000*%
%ADD16R,0.8000X0.8500*%
%ADD17R,0.5500X0.3500*%
%ADD18R,1.6200X2.4000*%
%ADD19R,1.0000X2.7000*%
%ADD20R,0.6000X1.7000*%
G04:AMPARAMS|DCode=21|XSize=0.95mm|YSize=0.8mm|CornerRadius=0.1mm|HoleSize=0mm|Usage=FLASHONLY|Rotation=90.000|XOffset=0mm|YOffset=0mm|HoleType=Round|Shape=RoundedRectangle|*
%AMROUNDEDRECTD21*
21,1,0.9500,0.6000,0,0,90.0*
21,1,0.7500,0.8000,0,0,90.0*
1,1,0.2000,0.3000,0.3750*
1,1,0.2000,0.3000,-0.3750*
1,1,0.2000,-0.3000,-0.3750*
1,1,0.2000,-0.3000,0.3750*
%
%ADD21ROUNDEDRECTD21*%
%ADD22R,0.7154X0.6725*%
%ADD23R,0.4500X1.1000*%
G04:AMPARAMS|DCode=24|XSize=1.1mm|YSize=0.45mm|CornerRadius=0mm|HoleSize=0mm|Usage=FLASHONLY|Rotation=125.000|XOffset=0mm|YOffset=0mm|HoleType=Round|Shape=Rectangle|*
%AMROTATEDRECTD24*
4,1,4,0.4998,-0.3215,0.1312,-0.5796,-0.4998,0.3215,-0.1312,0.5796,0.4998,-0.3215,0.0*
%
%ADD24ROTATEDRECTD24*%

%ADD25R,1.2000X1.4000*%
%ADD26R,0.6725X0.7154*%
%ADD27R,0.5750X1.1400*%
%ADD28R,0.6500X0.6500*%
%ADD29R,2.9200X0.7400*%
%ADD30R,0.9000X2.2500*%
%ADD31R,0.9000X2.8000*%
%ADD32R,0.8000X1.5000*%
%ADD33R,1.3000X1.4000*%
%ADD34R,1.0000X0.9500*%
%ADD35R,1.4000X1.9000*%
G04:AMPARAMS|DCode=36|XSize=0.2125mm|YSize=1.3552mm|CornerRadius=0.1062mm|HoleSize=0mm|Usage=FLASHONLY|Rotation=180.000|XOffset=0mm|YOffset=0mm|HoleType=Round|Shape=RoundedRectangle|*
%AMROUNDEDRECTD36*
21,1,0.2125,1.1428,0,0,180.0*
21,1,0.0000,1.3552,0,0,180.0*
1,1,0.2125,0.0000,0.5714*
1,1,0.2125,0.0000,0.5714*
1,1,0.2125,0.0000,-0.5714*
1,1,0.2125,0.0000,-0.5714*
%
%ADD36ROUNDEDRECTD36*%
G04:AMPARAMS|DCode=37|XSize=1.3552mm|YSize=0.2125mm|CornerRadius=0.1062mm|HoleSize=0mm|Usage=FLASHONLY|Rotation=180.000|XOffset=0mm|YOffset=0mm|HoleType=Round|Shape=RoundedRectangle|*
%AMROUNDEDRECTD37*
21,1,1.3552,0.0000,0,0,180.0*
21,1,1.1428,0.2125,0,0,180.0*
1,1,0.2125,-0.5714,0.0000*
1,1,0.2125,0.5714,0.0000*
1,1,0.2125,0.5714,0.0000*
1,1,0.2125,-0.5714,0.0000*
%
%ADD37ROUNDEDRECTD37*%
%ADD38R,1.3552X0.2125*%
%ADD39R,0.8000X1.5500*%
%ADD40R,0.6500X0.6500*%
G04:AMPARAMS|DCode=41|XSize=0.95mm|YSize=0.8mm|CornerRadius=0.1mm|HoleSize=0mm|Usage=FLASHONLY|Rotation=0.000|XOffset=0mm|YOffset=0mm|HoleType=Round|Shape=RoundedRectangle|*
%AMROUNDEDRECTD41*
21,1,0.9500,0.6000,0,0,0.0*
21,1,0.7500,0.8000,0,0,0.0*
1,1,0.2000,0.3750,-0.3000*
1,1,0.2000,-0.3750,-0.3000*
1,1,0.2000,-0.3750,0.3000*
1,1,0.2000,0.3750,0.3000*
%
%ADD41ROUNDEDRECTD41*%
%ADD42R,0.8000X0.5000*%
%ADD43C,0.2300*%
%ADD44O,0.5500X0.3500*%
%ADD45O,0.3500X0.5500*%
%ADD46R,0.8500X0.6250*%
%ADD47R,1.5000X0.5500*%
%ADD48R,0.6000X1.1000*%
D15*
X140000Y-170000D02*
D03*
X110000Y-170000D02*
D03*
D16*
X125000Y-154751D02*
D03*
D17*
X-107850Y35000D02*
D03*
Y30000D02*
D03*
Y25000D02*
D03*
Y20000D02*
D03*
Y15000D02*
D03*
X-82150Y35000D02*
D03*
Y30000D02*
D03*
Y25000D02*
D03*
Y20000D02*
D03*
Y15000D02*
D03*
D18*
X-95000Y25000D02*
D03*
D19*
X15250Y-174250D02*
D03*
X64750D02*
D03*
D20*
X33750Y-142250D02*
D03*
X46250D02*
D03*
D21*
X-128500Y10000D02*
D03*
X-141500D02*
D03*
X16500Y-92500D02*
D03*
X3500D02*
D03*
X-206500Y-95000D02*
D03*
X-193500D02*
D03*
D22*
X157714Y115000D02*
D03*
X167286D02*
D03*
X157714Y132500D02*
D03*
X167286D02*
D03*
X-134786Y55000D02*
D03*
X-125214D02*
D03*
X10214Y-25000D02*
D03*
X19786D02*
D03*
X-214D02*
D03*
X-9786D02*
D03*
D23*
X19750Y-75500D02*
D03*
X13250D02*
D03*
X6750D02*
D03*
X250D02*
D03*
Y-49500D02*
D03*
X6750D02*
D03*
X13250D02*
D03*
X19750D02*
D03*
D24*
X-200443Y-119943D02*
D03*
X-195119Y-116215D02*
D03*
X-189794Y-112487D02*
D03*
X-184470Y-108759D02*
D03*
X-169557Y-130057D02*
D03*
X-174881Y-133785D02*
D03*
X-180206Y-137513D02*
D03*
X-185530Y-141241D02*
D03*
D25*
X136000Y153500D02*
D03*
Y131500D02*
D03*
X119000D02*
D03*
Y153500D02*
D03*
D26*
X102500Y125214D02*
D03*
Y134786D02*
D03*
Y157286D02*
D03*
Y147714D02*
D03*
X-115000Y84786D02*
D03*
Y75214D02*
D03*
X-130000Y84786D02*
D03*
Y75214D02*
D03*
D27*
X179125Y95000D02*
D03*
X170875D02*
D03*
D28*
X110000Y-140000D02*
D03*
X100000D02*
D03*
D29*
X217150Y-57150D02*
D03*
X182850D02*
D03*
X217150Y-44450D02*
D03*
X182850D02*
D03*
X217150Y-31750D02*
D03*
X182850D02*
D03*
X217150Y-19050D02*
D03*
X182850D02*
D03*
X217150Y-6350D02*
D03*
X182850D02*
D03*
X217150Y6350D02*
D03*
X182850D02*
D03*
X217150Y19050D02*
D03*
X182850D02*
D03*
X217150Y31750D02*
D03*
X182850D02*
D03*
X217150Y44450D02*
D03*
X182850D02*
D03*
X217150Y57150D02*
D03*
X182850D02*
D03*
X-182850Y-57150D02*
D03*
X-217150D02*
D03*
X-182850Y-44450D02*
D03*
X-217150D02*
D03*
X-182850Y-31750D02*
D03*
X-217150D02*
D03*
X-182850Y-19050D02*
D03*
X-217150D02*
D03*
X-182850Y-6350D02*
D03*
X-217150D02*
D03*
X-182850Y6350D02*
D03*
X-217150D02*
D03*
X-182850Y19050D02*
D03*
X-217150D02*
D03*
X-182850Y31750D02*
D03*
X-217150D02*
D03*
X-182850Y44450D02*
D03*
X-217150D02*
D03*
X-182850Y57150D02*
D03*
X-217150D02*
D03*
D30*
X144000Y91750D02*
D03*
X131500D02*
D03*
X106000D02*
D03*
X144000Y38250D02*
D03*
X131500D02*
D03*
X118500D02*
D03*
X106000D02*
D03*
D31*
X118500Y89000D02*
D03*
D32*
X-150100Y-126600D02*
D03*
X-139100D02*
D03*
X-128100Y-128600D02*
D03*
X-117100Y-126600D02*
D03*
X-106100Y-128600D02*
D03*
X-95100Y-126600D02*
D03*
X-84100Y-122600D02*
D03*
X-73100Y-126600D02*
D03*
D33*
X-142000Y-18000D02*
D03*
X-85000D02*
D03*
D34*
X-128100Y-15750D02*
D03*
D35*
X-158000Y-149500D02*
D03*
X-26500Y-159500D02*
D03*
D36*
X35000Y74245D02*
D03*
X40000Y74245D02*
D03*
X60000D02*
D03*
X55000Y74245D02*
D03*
X50000Y74245D02*
D03*
X45000Y74245D02*
D03*
X30000Y74245D02*
D03*
X25000Y74245D02*
D03*
X20000Y74245D02*
D03*
X15000Y74245D02*
D03*
X10000Y74245D02*
D03*
X5000D02*
D03*
X-0D02*
D03*
X-5000D02*
D03*
X-10000Y74245D02*
D03*
X-15000D02*
D03*
X-20000Y74245D02*
D03*
X-25000Y74245D02*
D03*
X-30000Y74245D02*
D03*
X-35000Y74245D02*
D03*
X-40000D02*
D03*
X-45000Y74245D02*
D03*
X-50000Y74245D02*
D03*
X-55000Y74245D02*
D03*
X-60000Y74245D02*
D03*
Y225755D02*
D03*
X-55000Y225755D02*
D03*
X-50000Y225755D02*
D03*
X-45000Y225755D02*
D03*
X-40000Y225755D02*
D03*
X-35000Y225755D02*
D03*
X-30000Y225755D02*
D03*
X-25000Y225755D02*
D03*
X-20000Y225755D02*
D03*
X-15000Y225755D02*
D03*
X-10000Y225755D02*
D03*
X-5000D02*
D03*
X0D02*
D03*
X5000D02*
D03*
X10000Y225755D02*
D03*
X15000D02*
D03*
X20000Y225755D02*
D03*
X25000Y225755D02*
D03*
X30000Y225755D02*
D03*
X35000Y225755D02*
D03*
X40000D02*
D03*
X45000Y225755D02*
D03*
X50000Y225755D02*
D03*
X55000Y225755D02*
D03*
X60000Y225755D02*
D03*
D37*
X-75755Y90000D02*
D03*
X-75755Y95000D02*
D03*
X-75755Y100000D02*
D03*
X-75755Y105000D02*
D03*
X-75755Y110000D02*
D03*
X-75755Y115000D02*
D03*
X-75755Y120000D02*
D03*
X-75755Y125000D02*
D03*
X-75755Y130000D02*
D03*
X-75755Y135000D02*
D03*
X-75755Y140000D02*
D03*
Y145000D02*
D03*
Y150000D02*
D03*
Y155000D02*
D03*
X-75755Y160000D02*
D03*
Y165000D02*
D03*
X-75755Y170000D02*
D03*
X-75755Y175000D02*
D03*
X-75755Y180000D02*
D03*
X-75755Y185000D02*
D03*
Y190000D02*
D03*
X-75755Y195000D02*
D03*
X-75755Y200000D02*
D03*
X-75755Y205000D02*
D03*
X-75755Y210000D02*
D03*
X75755D02*
D03*
X75755Y205000D02*
D03*
X75755Y200000D02*
D03*
X75755Y195000D02*
D03*
X75755Y190000D02*
D03*
X75755Y185000D02*
D03*
X75755Y180000D02*
D03*
X75755Y175000D02*
D03*
X75755Y170000D02*
D03*
X75755Y165000D02*
D03*
X75755Y160000D02*
D03*
Y155000D02*
D03*
Y150000D02*
D03*
Y145000D02*
D03*
X75755Y140000D02*
D03*
Y135000D02*
D03*
X75755Y130000D02*
D03*
X75755Y125000D02*
D03*
X75755Y120000D02*
D03*
X75755Y115000D02*
D03*
Y110000D02*
D03*
X75755Y105000D02*
D03*
X75755Y100000D02*
D03*
X75755Y95000D02*
D03*
D38*
X75755Y90000D02*
D03*
D39*
X139000Y1000D02*
D03*
X128000D02*
D03*
X117000D02*
D03*
X106000D02*
D03*
X95000D02*
D03*
X84000D02*
D03*
X73000D02*
D03*
X62000D02*
D03*
X51000D02*
D03*
X139000Y-91000D02*
D03*
X128000D02*
D03*
X117000D02*
D03*
X106000D02*
D03*
X95000D02*
D03*
X84000D02*
D03*
X73000D02*
D03*
X62000D02*
D03*
X51000D02*
D03*
D40*
X158500Y5000D02*
D03*
Y15000D02*
D03*
D41*
X-127850Y36500D02*
D03*
Y23500D02*
D03*
D42*
X213000Y90500D02*
D03*
X197000D02*
D03*
X213000Y99500D02*
D03*
X197000D02*
D03*
X132000Y189500D02*
D03*
X148000D02*
D03*
X132000Y180500D02*
D03*
X148000D02*
D03*
X162000Y159500D02*
D03*
X178000D02*
D03*
X162000Y150500D02*
D03*
X178000D02*
D03*
X182000Y129500D02*
D03*
X198000D02*
D03*
X182000Y120500D02*
D03*
X198000D02*
D03*
D43*
X-97000Y77000D02*
D03*
X-93000D02*
D03*
X-97000Y73000D02*
D03*
X-93000D02*
D03*
D44*
X-11750Y7500D02*
D03*
Y2500D02*
D03*
Y-2500D02*
D03*
Y-7500D02*
D03*
X11750D02*
D03*
Y-2500D02*
D03*
Y2500D02*
D03*
Y7500D02*
D03*
D45*
X-5000Y-9250D02*
D03*
X0D02*
D03*
X5000D02*
D03*
Y9250D02*
D03*
X0D02*
D03*
X-5000D02*
D03*
D46*
X130000Y-118375D02*
D03*
Y-131625D02*
D03*
D47*
X-105000Y211250D02*
D03*
Y178750D02*
D03*
X-135000Y158750D02*
D03*
Y191250D02*
D03*
X105000Y178750D02*
D03*
Y211250D02*
D03*
D48*
X80750Y54000D02*
D03*
Y32000D02*
D03*
X68250D02*
D03*
Y54000D02*
D03*
X55750D02*
D03*
Y32000D02*
D03*
X43250Y54000D02*
D03*
Y32000D02*
D03*
M02*
