G04*
G04 #@! TF.GenerationSoftware,Altium Limited,Altium Designer,24.4.1 (13)*
G04*
G04 Layer_Color=128*
%FSLAX44Y44*%
%MOMM*%
G71*
G04*
G04 #@! TF.SameCoordinates,55532D4A-085B-46E5-86D8-018E79720E20*
G04*
G04*
G04 #@! TF.FilePolarity,Positive*
G04*
G01*
G75*
G04:AMPARAMS|DCode=21|XSize=0.95mm|YSize=0.8mm|CornerRadius=0.1mm|HoleSize=0mm|Usage=FLASHONLY|Rotation=90.000|XOffset=0mm|YOffset=0mm|HoleType=Round|Shape=RoundedRectangle|*
%AMROUNDEDRECTD21*
21,1,0.9500,0.6000,0,0,90.0*
21,1,0.7500,0.8000,0,0,90.0*
1,1,0.2000,0.3000,0.3750*
1,1,0.2000,0.3000,-0.3750*
1,1,0.2000,-0.3000,-0.3750*
1,1,0.2000,-0.3000,0.3750*
%
%ADD21ROUNDEDRECTD21*%
%ADD22R,0.7154X0.6725*%
%ADD26R,0.6725X0.7154*%
%ADD28R,0.6500X0.6500*%
G04:AMPARAMS|DCode=41|XSize=0.95mm|YSize=0.8mm|CornerRadius=0.1mm|HoleSize=0mm|Usage=FLASHONLY|Rotation=0.000|XOffset=0mm|YOffset=0mm|HoleType=Round|Shape=RoundedRectangle|*
%AMROUNDEDRECTD41*
21,1,0.9500,0.6000,0,0,0.0*
21,1,0.7500,0.8000,0,0,0.0*
1,1,0.2000,0.3750,-0.3000*
1,1,0.2000,-0.3750,-0.3000*
1,1,0.2000,-0.3750,0.3000*
1,1,0.2000,0.3750,0.3000*
%
%ADD41ROUNDEDRECTD41*%
%ADD84R,1.0000X1.0000*%
%ADD85R,2.9400X2.9400*%
%ADD86O,0.6500X0.3500*%
%ADD87O,0.3500X0.6500*%
%ADD88R,2.6500X1.4000*%
%ADD89R,2.6500X0.8000*%
%ADD90O,0.2500X0.8500*%
%ADD91O,0.8500X0.2500*%
%ADD92R,0.4800X0.4000*%
%ADD93R,0.9000X0.7000*%
%ADD94R,2.0320X1.1430*%
%ADD95R,1.1000X1.4500*%
%ADD96R,1.3500X2.9000*%
%ADD97R,0.7000X0.9000*%
G04:AMPARAMS|DCode=98|XSize=0.95mm|YSize=0.8mm|CornerRadius=0.1mm|HoleSize=0mm|Usage=FLASHONLY|Rotation=53.000|XOffset=0mm|YOffset=0mm|HoleType=Round|Shape=RoundedRectangle|*
%AMROUNDEDRECTD98*
21,1,0.9500,0.6000,0,0,53.0*
21,1,0.7500,0.8000,0,0,53.0*
1,1,0.2000,0.4653,0.1189*
1,1,0.2000,0.0139,-0.4800*
1,1,0.2000,-0.4653,-0.1189*
1,1,0.2000,-0.0139,0.4800*
%
%ADD98ROUNDEDRECTD98*%
G04:AMPARAMS|DCode=99|XSize=0.7154mm|YSize=0.6725mm|CornerRadius=0mm|HoleSize=0mm|Usage=FLASHONLY|Rotation=323.000|XOffset=0mm|YOffset=0mm|HoleType=Round|Shape=Rectangle|*
%AMROTATEDRECTD99*
4,1,4,-0.4880,-0.0533,-0.0833,0.4838,0.4880,0.0533,0.0833,-0.4838,-0.4880,-0.0533,0.0*
%
%ADD99ROTATEDRECTD99*%

%ADD100R,0.7000X0.2500*%
%ADD101R,1.6500X1.3500*%
%ADD102R,0.4000X0.5000*%
G04:AMPARAMS|DCode=103|XSize=0.9779mm|YSize=0.3048mm|CornerRadius=0mm|HoleSize=0mm|Usage=FLASHONLY|Rotation=233.000|XOffset=0mm|YOffset=0mm|HoleType=Round|Shape=Rectangle|*
%AMROTATEDRECTD103*
4,1,4,0.1725,0.4822,0.4160,0.2988,-0.1725,-0.4822,-0.4160,-0.2988,0.1725,0.4822,0.0*
%
%ADD103ROTATEDRECTD103*%

%ADD104R,2.2200X0.7400*%
D21*
X-66000Y172500D02*
D03*
X-79000D02*
D03*
X-66000Y157500D02*
D03*
X-79000D02*
D03*
X-116500Y177500D02*
D03*
X-103500D02*
D03*
X-131000Y35000D02*
D03*
X-144000D02*
D03*
X-144000Y-5000D02*
D03*
X-131000D02*
D03*
X-131000Y10000D02*
D03*
X-144000D02*
D03*
X49000Y222500D02*
D03*
X36000D02*
D03*
X-144000Y-20000D02*
D03*
X-131000D02*
D03*
X-66000Y127500D02*
D03*
X-79000D02*
D03*
X-66000Y142500D02*
D03*
X-79000D02*
D03*
X-46500Y100000D02*
D03*
X-33500D02*
D03*
X24000Y87500D02*
D03*
X11000D02*
D03*
X24000Y107500D02*
D03*
X11000D02*
D03*
X216500Y-97500D02*
D03*
X203500D02*
D03*
X151500Y-140000D02*
D03*
X138500D02*
D03*
X-116500Y162500D02*
D03*
X-103500D02*
D03*
X-116500Y192500D02*
D03*
X-103500D02*
D03*
X197750Y131750D02*
D03*
X184750D02*
D03*
X197750Y118250D02*
D03*
X184750D02*
D03*
X177750Y161750D02*
D03*
X164750D02*
D03*
X177750Y148250D02*
D03*
X164750D02*
D03*
X-98500Y45000D02*
D03*
X-111500D02*
D03*
X-56500D02*
D03*
X-43500D02*
D03*
X-111500Y30000D02*
D03*
X-98500D02*
D03*
X-56500Y-22500D02*
D03*
X-43500D02*
D03*
D22*
X-189571Y-122286D02*
D03*
X-180000D02*
D03*
X-107714Y-127500D02*
D03*
X-117286D02*
D03*
X-107714Y-102500D02*
D03*
X-117286D02*
D03*
X127714Y-67500D02*
D03*
X137286D02*
D03*
X69786Y17500D02*
D03*
X60214D02*
D03*
X80214D02*
D03*
X89786D02*
D03*
X37714Y87500D02*
D03*
X47286D02*
D03*
X37714Y117500D02*
D03*
X47286D02*
D03*
X-35214Y115000D02*
D03*
X-44786D02*
D03*
X-79786Y100000D02*
D03*
X-70214D02*
D03*
X37714Y207500D02*
D03*
X47286D02*
D03*
X37714Y132500D02*
D03*
X47286D02*
D03*
X37714Y147500D02*
D03*
X47286D02*
D03*
X-35214Y130000D02*
D03*
X-44786D02*
D03*
X-105214Y207500D02*
D03*
X-114786D02*
D03*
X-189786Y90000D02*
D03*
X-180214D02*
D03*
X12714Y222500D02*
D03*
X22286D02*
D03*
X37714Y102500D02*
D03*
X47286D02*
D03*
X-54786Y30000D02*
D03*
X-45214D02*
D03*
X-54786Y15000D02*
D03*
X-45214D02*
D03*
X40214Y17500D02*
D03*
X49786D02*
D03*
X40214Y2500D02*
D03*
X49786D02*
D03*
X40214Y-12500D02*
D03*
X49786D02*
D03*
X-45214Y-7500D02*
D03*
X-54786D02*
D03*
D26*
X5000Y-45214D02*
D03*
Y-54786D02*
D03*
X90000Y67714D02*
D03*
Y77286D02*
D03*
X105000Y67714D02*
D03*
Y77286D02*
D03*
X130000Y-17714D02*
D03*
Y-27286D02*
D03*
X145000Y-165214D02*
D03*
Y-174786D02*
D03*
X147500Y-94786D02*
D03*
Y-85214D02*
D03*
X75000Y-85214D02*
D03*
Y-94786D02*
D03*
X87500Y-85214D02*
D03*
Y-94786D02*
D03*
X52500Y-47714D02*
D03*
Y-57286D02*
D03*
X47500Y162714D02*
D03*
Y172286D02*
D03*
X-45000Y229786D02*
D03*
Y220214D02*
D03*
X47500Y192286D02*
D03*
Y182714D02*
D03*
X-60000Y229786D02*
D03*
Y220214D02*
D03*
X-30000Y229786D02*
D03*
Y220214D02*
D03*
X75000Y172286D02*
D03*
Y162714D02*
D03*
X90000Y195214D02*
D03*
Y204786D02*
D03*
X32500Y162714D02*
D03*
Y172286D02*
D03*
Y192286D02*
D03*
Y182714D02*
D03*
D28*
X57500Y67500D02*
D03*
X47500D02*
D03*
D41*
X-15000Y231500D02*
D03*
Y218500D02*
D03*
X0Y231500D02*
D03*
Y218500D02*
D03*
X-135000Y191500D02*
D03*
Y178500D02*
D03*
X75000Y193500D02*
D03*
Y206500D02*
D03*
X90000Y161000D02*
D03*
Y174000D02*
D03*
X120000Y206500D02*
D03*
Y193500D02*
D03*
Y168500D02*
D03*
Y181500D02*
D03*
X152500Y104000D02*
D03*
Y91000D02*
D03*
X137500Y91000D02*
D03*
Y104000D02*
D03*
X105000Y2500D02*
D03*
Y-10500D02*
D03*
X85000Y118500D02*
D03*
Y131500D02*
D03*
X70000Y131500D02*
D03*
Y118500D02*
D03*
X-10000Y-43500D02*
D03*
Y-56500D02*
D03*
X-70000Y79000D02*
D03*
Y66000D02*
D03*
X-85000Y79000D02*
D03*
Y66000D02*
D03*
X-107500Y79000D02*
D03*
Y66000D02*
D03*
X-40000Y66000D02*
D03*
Y79000D02*
D03*
X-55000Y66000D02*
D03*
Y79000D02*
D03*
X-25000Y66000D02*
D03*
Y79000D02*
D03*
X130000Y-51500D02*
D03*
Y-38500D02*
D03*
X102500Y-96500D02*
D03*
Y-83500D02*
D03*
X167500Y104000D02*
D03*
Y91000D02*
D03*
X157500Y-56000D02*
D03*
Y-69000D02*
D03*
X205000Y-111000D02*
D03*
Y-124000D02*
D03*
X162500Y-96500D02*
D03*
Y-83500D02*
D03*
X165000Y-149000D02*
D03*
Y-136000D02*
D03*
Y-174000D02*
D03*
Y-161000D02*
D03*
X132500Y-96500D02*
D03*
Y-83500D02*
D03*
X60000Y-83500D02*
D03*
Y-96500D02*
D03*
X117500Y-83500D02*
D03*
Y-96500D02*
D03*
X45000Y-83500D02*
D03*
Y-96500D02*
D03*
X40000Y51500D02*
D03*
Y38500D02*
D03*
X55000Y38500D02*
D03*
Y51500D02*
D03*
X105000Y193500D02*
D03*
Y206500D02*
D03*
X210000Y91000D02*
D03*
Y104000D02*
D03*
X182500Y91000D02*
D03*
Y104000D02*
D03*
X105000Y168500D02*
D03*
Y181500D02*
D03*
D84*
X-146500Y-47500D02*
D03*
X-128500D02*
D03*
D85*
X0Y0D02*
D03*
D86*
X-19750Y12500D02*
D03*
Y7500D02*
D03*
Y2500D02*
D03*
Y-2500D02*
D03*
Y-7500D02*
D03*
Y-12500D02*
D03*
X19750D02*
D03*
Y-7500D02*
D03*
Y-2500D02*
D03*
Y2500D02*
D03*
Y7500D02*
D03*
Y12500D02*
D03*
D87*
X-12500Y-19750D02*
D03*
X-7500D02*
D03*
X-2500D02*
D03*
X2500D02*
D03*
X7500D02*
D03*
X12500D02*
D03*
Y19750D02*
D03*
X7500D02*
D03*
X2500D02*
D03*
X-2500D02*
D03*
X-7500D02*
D03*
X-12500D02*
D03*
D88*
X90000Y-38750D02*
D03*
D89*
Y-54350D02*
D03*
D90*
X102500Y-25750D02*
D03*
X97500D02*
D03*
X92500D02*
D03*
X87500D02*
D03*
X82500D02*
D03*
X77500D02*
D03*
Y-64250D02*
D03*
X82500D02*
D03*
X87500D02*
D03*
X92500D02*
D03*
X97500D02*
D03*
X102500D02*
D03*
D91*
X70750Y-32500D02*
D03*
Y-37500D02*
D03*
Y-42500D02*
D03*
Y-47500D02*
D03*
Y-52500D02*
D03*
Y-57500D02*
D03*
X109250D02*
D03*
Y-52500D02*
D03*
Y-47500D02*
D03*
Y-42500D02*
D03*
Y-37500D02*
D03*
Y-32500D02*
D03*
D92*
X-130900Y-35000D02*
D03*
X-144100D02*
D03*
D93*
X-125500Y55000D02*
D03*
X-144500Y61500D02*
D03*
Y48500D02*
D03*
X100500Y118500D02*
D03*
Y131500D02*
D03*
X119500Y125000D02*
D03*
D94*
X150000Y-43335D02*
D03*
Y-16665D02*
D03*
D95*
X35000Y-112750D02*
D03*
X55000D02*
D03*
X75000D02*
D03*
X95000D02*
D03*
D96*
X123950Y-172500D02*
D03*
X6050D02*
D03*
D97*
X185000Y-147000D02*
D03*
X191500Y-128000D02*
D03*
X178500D02*
D03*
X68500Y52000D02*
D03*
X81500D02*
D03*
X75000Y33000D02*
D03*
X178500Y-95500D02*
D03*
X191500D02*
D03*
X185000Y-114500D02*
D03*
D98*
X-205191Y113912D02*
D03*
X-194809Y106088D02*
D03*
D99*
X-141178Y147120D02*
D03*
X-148822Y152880D02*
D03*
X-168822Y167880D02*
D03*
X-161178Y162120D02*
D03*
D100*
X166750Y-112500D02*
D03*
Y-117500D02*
D03*
Y-122500D02*
D03*
X138250D02*
D03*
Y-117500D02*
D03*
Y-112500D02*
D03*
D101*
X152500Y-117500D02*
D03*
D102*
X11000Y177000D02*
D03*
X19000D02*
D03*
D103*
X-177696Y151353D02*
D03*
X-173702Y148343D02*
D03*
X-169708Y145333D02*
D03*
X-165714Y142323D02*
D03*
X-161719Y139313D02*
D03*
X-157725Y136304D02*
D03*
X-153731Y133294D02*
D03*
X-172304Y108647D02*
D03*
X-176298Y111657D02*
D03*
X-180292Y114667D02*
D03*
X-184286Y117677D02*
D03*
X-188281Y120687D02*
D03*
X-192275Y123696D02*
D03*
X-196269Y126706D02*
D03*
D104*
X213650Y-57150D02*
D03*
Y-44450D02*
D03*
Y-31750D02*
D03*
Y-19050D02*
D03*
Y-6350D02*
D03*
Y6350D02*
D03*
Y19050D02*
D03*
Y31750D02*
D03*
Y44450D02*
D03*
Y57150D02*
D03*
X186350Y-57150D02*
D03*
Y-44450D02*
D03*
Y-31750D02*
D03*
Y-19050D02*
D03*
Y-6350D02*
D03*
Y6350D02*
D03*
Y19050D02*
D03*
Y31750D02*
D03*
Y44450D02*
D03*
Y57150D02*
D03*
X-186350Y-57150D02*
D03*
Y-44450D02*
D03*
Y-31750D02*
D03*
Y-19050D02*
D03*
Y-6350D02*
D03*
Y6350D02*
D03*
Y19050D02*
D03*
Y31750D02*
D03*
Y44450D02*
D03*
Y57150D02*
D03*
X-213650Y-57150D02*
D03*
Y-44450D02*
D03*
Y-31750D02*
D03*
Y-19050D02*
D03*
Y-6350D02*
D03*
Y6350D02*
D03*
Y19050D02*
D03*
Y31750D02*
D03*
Y44450D02*
D03*
Y57150D02*
D03*
M02*
