G04*
G04 #@! TF.GenerationSoftware,Altium Limited,Altium Designer,24.4.1 (13)*
G04*
G04 Layer_Physical_Order=4*
G04 Layer_Color=16711680*
%FSLAX44Y44*%
%MOMM*%
G71*
G04*
G04 #@! TF.SameCoordinates,55532D4A-085B-46E5-86D8-018E79720E20*
G04*
G04*
G04 #@! TF.FilePolarity,Positive*
G04*
G01*
G75*
%ADD11C,0.2500*%
%ADD12C,0.2000*%
G04:AMPARAMS|DCode=21|XSize=0.95mm|YSize=0.8mm|CornerRadius=0.1mm|HoleSize=0mm|Usage=FLASHONLY|Rotation=90.000|XOffset=0mm|YOffset=0mm|HoleType=Round|Shape=RoundedRectangle|*
%AMROUNDEDRECTD21*
21,1,0.9500,0.6000,0,0,90.0*
21,1,0.7500,0.8000,0,0,90.0*
1,1,0.2000,0.3000,0.3750*
1,1,0.2000,0.3000,-0.3750*
1,1,0.2000,-0.3000,-0.3750*
1,1,0.2000,-0.3000,0.3750*
%
%ADD21ROUNDEDRECTD21*%
%ADD22R,0.7154X0.6725*%
%ADD26R,0.6725X0.7154*%
%ADD28R,0.6500X0.6500*%
G04:AMPARAMS|DCode=41|XSize=0.95mm|YSize=0.8mm|CornerRadius=0.1mm|HoleSize=0mm|Usage=FLASHONLY|Rotation=0.000|XOffset=0mm|YOffset=0mm|HoleType=Round|Shape=RoundedRectangle|*
%AMROUNDEDRECTD41*
21,1,0.9500,0.6000,0,0,0.0*
21,1,0.7500,0.8000,0,0,0.0*
1,1,0.2000,0.3750,-0.3000*
1,1,0.2000,-0.3750,-0.3000*
1,1,0.2000,-0.3750,0.3000*
1,1,0.2000,0.3750,0.3000*
%
%ADD41ROUNDEDRECTD41*%
%ADD72C,0.3000*%
%ADD76C,1.5000*%
%ADD78C,1.4000*%
%ADD79C,1.0600*%
%ADD80P,1.4991X4X98.0*%
%ADD81C,0.5000*%
%ADD82C,0.7000*%
%ADD84R,1.0000X1.0000*%
%ADD85R,2.9400X2.9400*%
%ADD86O,0.6500X0.3500*%
%ADD87O,0.3500X0.6500*%
%ADD88R,2.6500X1.4000*%
%ADD89R,2.6500X0.8000*%
%ADD90O,0.2500X0.8500*%
%ADD91O,0.8500X0.2500*%
%ADD92R,0.4800X0.4000*%
%ADD93R,0.9000X0.7000*%
%ADD94R,2.0320X1.1430*%
%ADD95R,1.1000X1.4500*%
%ADD96R,1.3500X2.9000*%
%ADD97R,0.7000X0.9000*%
G04:AMPARAMS|DCode=98|XSize=0.95mm|YSize=0.8mm|CornerRadius=0.1mm|HoleSize=0mm|Usage=FLASHONLY|Rotation=53.000|XOffset=0mm|YOffset=0mm|HoleType=Round|Shape=RoundedRectangle|*
%AMROUNDEDRECTD98*
21,1,0.9500,0.6000,0,0,53.0*
21,1,0.7500,0.8000,0,0,53.0*
1,1,0.2000,0.4653,0.1189*
1,1,0.2000,0.0139,-0.4800*
1,1,0.2000,-0.4653,-0.1189*
1,1,0.2000,-0.0139,0.4800*
%
%ADD98ROUNDEDRECTD98*%
G04:AMPARAMS|DCode=99|XSize=0.7154mm|YSize=0.6725mm|CornerRadius=0mm|HoleSize=0mm|Usage=FLASHONLY|Rotation=323.000|XOffset=0mm|YOffset=0mm|HoleType=Round|Shape=Rectangle|*
%AMROTATEDRECTD99*
4,1,4,-0.4880,-0.0533,-0.0833,0.4838,0.4880,0.0533,0.0833,-0.4838,-0.4880,-0.0533,0.0*
%
%ADD99ROTATEDRECTD99*%

%ADD100R,0.7000X0.2500*%
%ADD101R,1.6500X1.3500*%
%ADD102R,0.4000X0.5000*%
G04:AMPARAMS|DCode=103|XSize=0.9779mm|YSize=0.3048mm|CornerRadius=0mm|HoleSize=0mm|Usage=FLASHONLY|Rotation=233.000|XOffset=0mm|YOffset=0mm|HoleType=Round|Shape=Rectangle|*
%AMROTATEDRECTD103*
4,1,4,0.1725,0.4822,0.4160,0.2988,-0.1725,-0.4822,-0.4160,-0.2988,0.1725,0.4822,0.0*
%
%ADD103ROTATEDRECTD103*%

%ADD104R,2.2200X0.7400*%
G36*
X10895Y247833D02*
X25706Y246737D01*
X40425Y244756D01*
X54999Y241898D01*
X69376Y238174D01*
X83504Y233595D01*
X97333Y228180D01*
X110813Y221946D01*
X123896Y214917D01*
X136535Y207118D01*
X148684Y198577D01*
X158429Y190814D01*
X158404Y190671D01*
X157500Y189555D01*
X157500Y189555D01*
X141922D01*
X133525Y197953D01*
X132858Y198399D01*
X132071Y198556D01*
X132071Y198556D01*
X123000D01*
X123000Y198556D01*
X123000Y198556D01*
X116250D01*
X115463Y198399D01*
X114796Y197953D01*
X114351Y197287D01*
X114194Y196500D01*
Y190500D01*
X114351Y189713D01*
X114796Y189047D01*
X115463Y188601D01*
X116250Y188444D01*
X123750D01*
X124537Y188601D01*
X125204Y189047D01*
X125649Y189713D01*
X125806Y190500D01*
Y194445D01*
X130166D01*
X130419Y193174D01*
X129734Y192891D01*
X128609Y191766D01*
X128000Y190296D01*
Y188704D01*
X128609Y187234D01*
X127992Y186056D01*
X125051D01*
X124537Y186399D01*
X123750Y186556D01*
X116250D01*
X115463Y186399D01*
X114796Y185954D01*
X114351Y185287D01*
X114194Y184500D01*
Y178500D01*
X113091Y177540D01*
X112617D01*
X110806Y179351D01*
Y184500D01*
X110649Y185287D01*
X110204Y185954D01*
X109537Y186399D01*
X108750Y186556D01*
X102653D01*
X102046Y187826D01*
X102523Y188444D01*
X108750D01*
X109537Y188601D01*
X110204Y189047D01*
X110649Y189713D01*
X110806Y190500D01*
Y196500D01*
X110649Y197287D01*
X110204Y197953D01*
X109537Y198399D01*
X108750Y198556D01*
X101250D01*
X100463Y198399D01*
X99796Y197953D01*
X99351Y197287D01*
X99194Y196500D01*
Y191351D01*
X94899Y187055D01*
X87851D01*
X85056Y189851D01*
Y199157D01*
X85622Y200193D01*
X86326Y200193D01*
X94378D01*
Y204445D01*
X99194D01*
Y203500D01*
X99351Y202713D01*
X99796Y202047D01*
X100463Y201601D01*
X101250Y201444D01*
X108750D01*
X109537Y201601D01*
X110204Y202047D01*
X110649Y202713D01*
X110806Y203500D01*
Y204445D01*
X114194D01*
Y203500D01*
X114351Y202713D01*
X114796Y202047D01*
X115463Y201601D01*
X116250Y201444D01*
X123750D01*
X124537Y201601D01*
X125204Y202047D01*
X125649Y202713D01*
X125806Y203500D01*
Y209500D01*
X125649Y210287D01*
X125204Y210954D01*
X124537Y211399D01*
X123750Y211556D01*
X116250D01*
X115463Y211399D01*
X114796Y210954D01*
X114351Y210287D01*
X114194Y209500D01*
Y208556D01*
X110806D01*
Y209500D01*
X110649Y210287D01*
X110204Y210954D01*
X109537Y211399D01*
X109000Y211506D01*
Y212046D01*
X108391Y213516D01*
X107266Y214641D01*
X105796Y215250D01*
X104204D01*
X102734Y214641D01*
X101609Y213516D01*
X101000Y212046D01*
Y211506D01*
X100463Y211399D01*
X99796Y210954D01*
X99351Y210287D01*
X99194Y209500D01*
Y208556D01*
X94378D01*
Y209378D01*
X85622Y209378D01*
X85056Y210414D01*
Y212188D01*
X84899Y212975D01*
X84453Y213642D01*
X84453Y213642D01*
X83675Y214420D01*
X84000Y215204D01*
Y216796D01*
X83391Y218266D01*
X82407Y219250D01*
X83391Y220234D01*
X84000Y221704D01*
Y223296D01*
X83391Y224766D01*
X82266Y225891D01*
X80796Y226500D01*
X79204D01*
X77734Y225891D01*
X76609Y224766D01*
X76000Y223296D01*
Y222969D01*
X75826Y222853D01*
X74556Y223531D01*
Y227500D01*
X74556Y227500D01*
X74399Y228287D01*
X73953Y228953D01*
X70490Y232416D01*
X69824Y232862D01*
X69037Y233018D01*
X69037Y233018D01*
X39888D01*
X36413Y236494D01*
X36500Y236704D01*
Y238296D01*
X35891Y239766D01*
X34766Y240891D01*
X33296Y241500D01*
X31704D01*
X30234Y240891D01*
X29573Y240230D01*
X28750Y239907D01*
X27927Y240230D01*
X27266Y240891D01*
X25796Y241500D01*
X24204D01*
X22734Y240891D01*
X22073Y240230D01*
X21250Y239907D01*
X20427Y240230D01*
X19766Y240891D01*
X18296Y241500D01*
X16704D01*
X15234Y240891D01*
X14573Y240230D01*
X13750Y239907D01*
X12927Y240230D01*
X12266Y240891D01*
X10796Y241500D01*
X9204D01*
X7734Y240891D01*
X6609Y239766D01*
X6000Y238296D01*
Y236873D01*
X5474Y236477D01*
X4834Y236200D01*
X4537Y236399D01*
X3750Y236556D01*
X-3750D01*
X-4537Y236399D01*
X-5203Y235954D01*
X-5649Y235287D01*
X-5806Y234500D01*
Y229851D01*
X-8084Y227573D01*
X-9255Y228199D01*
X-9194Y228500D01*
Y234500D01*
X-9351Y235287D01*
X-9797Y235954D01*
X-10463Y236399D01*
X-11250Y236556D01*
X-12945D01*
Y239022D01*
X-12734Y239109D01*
X-11609Y240234D01*
X-11000Y241704D01*
Y243296D01*
X-11609Y244766D01*
X-12734Y245891D01*
X-13767Y246319D01*
X-13542Y247600D01*
X-3955Y248041D01*
X10895Y247833D01*
D02*
G37*
G36*
X-16541Y246191D02*
X-17266Y245891D01*
X-18391Y244766D01*
X-19000Y243296D01*
Y241704D01*
X-18391Y240234D01*
X-17266Y239109D01*
X-17055Y239022D01*
Y236556D01*
X-18750D01*
X-19537Y236399D01*
X-20203Y235954D01*
X-20649Y235287D01*
X-20805Y234500D01*
Y228500D01*
X-20649Y227713D01*
X-20203Y227047D01*
X-19537Y226601D01*
X-18750Y226444D01*
X-11250D01*
X-10948Y226504D01*
X-10323Y225334D01*
X-12101Y223556D01*
X-18750D01*
X-19537Y223399D01*
X-20203Y222953D01*
X-20649Y222287D01*
X-20805Y221500D01*
Y215601D01*
X-21453Y214953D01*
X-21899Y214287D01*
X-22055Y213500D01*
X-22055Y213500D01*
Y208478D01*
X-22266Y208391D01*
X-22927Y207730D01*
X-23750Y207407D01*
X-24573Y207730D01*
X-25234Y208391D01*
X-26704Y209000D01*
X-28296D01*
X-29766Y208391D01*
X-30427Y207730D01*
X-31250Y207407D01*
X-32073Y207730D01*
X-32734Y208391D01*
X-34204Y209000D01*
X-35796D01*
X-37266Y208391D01*
X-37927Y207730D01*
X-38750Y207407D01*
X-39573Y207730D01*
X-40234Y208391D01*
X-41704Y209000D01*
X-42331D01*
X-42435Y209104D01*
Y215622D01*
X-40622D01*
Y217649D01*
X-34378D01*
Y215622D01*
X-25622D01*
Y224807D01*
X-34378D01*
Y222780D01*
X-40622D01*
Y224807D01*
X-49378D01*
Y215622D01*
X-47565D01*
Y208041D01*
X-47370Y207059D01*
X-46814Y206227D01*
X-46466Y205879D01*
X-46500Y205796D01*
Y204204D01*
X-45891Y202734D01*
X-44766Y201609D01*
X-43296Y201000D01*
X-41704D01*
X-40234Y201609D01*
X-39573Y202270D01*
X-38750Y202593D01*
X-37927Y202270D01*
X-37266Y201609D01*
X-35796Y201000D01*
X-34204D01*
X-32734Y201609D01*
X-32073Y202270D01*
X-31250Y202593D01*
X-30427Y202270D01*
X-29766Y201609D01*
X-28296Y201000D01*
X-26704D01*
X-25234Y201609D01*
X-24573Y202270D01*
X-23750Y202593D01*
X-22927Y202270D01*
X-22266Y201609D01*
X-20796Y201000D01*
X-19204D01*
X-17734Y201609D01*
X-16609Y202734D01*
X-16000Y204204D01*
Y205796D01*
X-16609Y207266D01*
X-17734Y208391D01*
X-17945Y208478D01*
Y212649D01*
X-17297Y213297D01*
X-17297Y213297D01*
X-17198Y213444D01*
X-11250D01*
X-10463Y213601D01*
X-9797Y214047D01*
X-9351Y214713D01*
X-9194Y215500D01*
Y220649D01*
X-3399Y226444D01*
X-3000D01*
X-3000Y226444D01*
X-3000Y226444D01*
X3750D01*
X4537Y226601D01*
X5203Y227047D01*
X5649Y227713D01*
X5806Y228500D01*
Y234242D01*
X6426Y234652D01*
X7040Y234803D01*
X7734Y234109D01*
X9204Y233500D01*
X10796D01*
X12266Y234109D01*
X12927Y234770D01*
X13750Y235093D01*
X14573Y234770D01*
X15234Y234109D01*
X16704Y233500D01*
X18296D01*
X19766Y234109D01*
X20427Y234770D01*
X21250Y235093D01*
X22073Y234770D01*
X22734Y234109D01*
X22945Y234022D01*
Y226878D01*
X17693D01*
Y218122D01*
X26878D01*
Y220445D01*
X30944D01*
Y218750D01*
X31101Y217963D01*
X31546Y217297D01*
X32213Y216851D01*
X33000Y216695D01*
X39000D01*
X39787Y216851D01*
X40454Y217297D01*
X40899Y217963D01*
X41055Y218750D01*
Y226250D01*
X40899Y227037D01*
X40498Y227638D01*
X40574Y228004D01*
X40938Y228908D01*
X44062D01*
X44426Y228004D01*
X44503Y227638D01*
X44101Y227037D01*
X43945Y226250D01*
Y218750D01*
X44101Y217963D01*
X44546Y217297D01*
X45213Y216851D01*
X46000Y216695D01*
X52000D01*
X52787Y216851D01*
X53453Y217297D01*
X53899Y217963D01*
X54056Y218750D01*
Y220445D01*
X64022D01*
X64109Y220234D01*
X65234Y219109D01*
X66532Y218571D01*
X67084Y217327D01*
X61547Y211790D01*
X61193Y211260D01*
X60595Y210955D01*
X59766Y210891D01*
X58296Y211500D01*
X56704D01*
X55234Y210891D01*
X54408Y210065D01*
X51878D01*
Y211878D01*
X42693D01*
Y203122D01*
X51878D01*
Y204935D01*
X54408D01*
X55234Y204109D01*
X56704Y203500D01*
X58296D01*
X59766Y204109D01*
X60944Y203492D01*
Y191508D01*
X59766Y190891D01*
X58296Y191500D01*
X56704D01*
X55234Y190891D01*
X54109Y189766D01*
X53500Y188296D01*
Y187669D01*
X53187Y187356D01*
X49362D01*
X49114Y187307D01*
X43122D01*
Y185280D01*
X36878D01*
Y187307D01*
X28122D01*
Y181749D01*
X26437Y180065D01*
X22016D01*
Y180516D01*
X15984D01*
Y173484D01*
X22016D01*
Y174935D01*
X26437D01*
X28122Y173251D01*
Y167693D01*
X36878D01*
Y169720D01*
X43122D01*
Y167693D01*
X51878D01*
Y169827D01*
X54516D01*
X55234Y169109D01*
X56704Y168500D01*
X58296D01*
X59766Y169109D01*
X60944Y168492D01*
Y165617D01*
X57383Y162055D01*
X55429D01*
X54642Y161899D01*
X53976Y161453D01*
X53976Y161453D01*
X51047Y158525D01*
X50601Y157858D01*
X50444Y157071D01*
X50444Y157071D01*
Y152929D01*
X50444Y152929D01*
X49456Y151908D01*
X49366Y151878D01*
X42693D01*
Y143122D01*
X44720D01*
Y136878D01*
X42693D01*
Y128122D01*
X51878D01*
Y136878D01*
X49851D01*
Y142297D01*
X51121Y142751D01*
X53500Y140372D01*
Y139204D01*
X54109Y137734D01*
X55234Y136609D01*
X56704Y136000D01*
X58296D01*
X59766Y136609D01*
X60891Y137734D01*
X61500Y139204D01*
Y140796D01*
X60891Y142266D01*
X59766Y143391D01*
X58296Y144000D01*
X57128D01*
X54119Y147009D01*
X54327Y147442D01*
X54868Y148056D01*
X55429Y147944D01*
X121649D01*
X135444Y134149D01*
Y109056D01*
X133750D01*
X132963Y108899D01*
X132296Y108454D01*
X131851Y107787D01*
X131694Y107000D01*
Y101000D01*
X131851Y100213D01*
X132296Y99547D01*
X132963Y99101D01*
X133750Y98945D01*
X141250D01*
X142037Y99101D01*
X142704Y99547D01*
X143149Y100213D01*
X143306Y101000D01*
Y101945D01*
X146694D01*
Y101000D01*
X146851Y100213D01*
X147296Y99546D01*
X147963Y99101D01*
X148750Y98945D01*
X156250D01*
X157037Y99101D01*
X157704Y99546D01*
X158149Y100213D01*
X158306Y101000D01*
Y107000D01*
X158149Y107787D01*
X157704Y108454D01*
X157037Y108899D01*
X156250Y109056D01*
X148750D01*
X147963Y108899D01*
X147296Y108454D01*
X146851Y107787D01*
X146694Y107000D01*
Y106055D01*
X143306D01*
Y107000D01*
X143149Y107787D01*
X142704Y108454D01*
X142037Y108899D01*
X141250Y109056D01*
X139556D01*
Y135000D01*
X139399Y135787D01*
X138954Y136454D01*
X138953Y136454D01*
X123954Y151454D01*
X123287Y151899D01*
X122500Y152056D01*
X122500Y152056D01*
X61872D01*
X61136Y153326D01*
X61500Y154204D01*
Y155796D01*
X61413Y156006D01*
X66066Y160659D01*
X70622D01*
Y158122D01*
X79378D01*
Y167307D01*
X70622D01*
Y164770D01*
X66251D01*
X65214Y164770D01*
X65055Y165998D01*
Y209485D01*
X71771Y216201D01*
X72944Y215714D01*
Y211556D01*
X71250D01*
X70463Y211399D01*
X69797Y210954D01*
X69351Y210287D01*
X69194Y209500D01*
Y203500D01*
X69351Y202713D01*
X69797Y202047D01*
X70463Y201601D01*
X71250Y201444D01*
X78750D01*
X79537Y201601D01*
X79675Y201693D01*
X80944Y201044D01*
Y198956D01*
X79675Y198307D01*
X79537Y198399D01*
X78750Y198556D01*
X71250D01*
X70463Y198399D01*
X69797Y197953D01*
X69351Y197287D01*
X69194Y196500D01*
Y190500D01*
X69351Y189713D01*
X69797Y189047D01*
X70463Y188601D01*
X71250Y188444D01*
X76718D01*
X76804Y188010D01*
X77250Y187343D01*
X84686Y179907D01*
X84796Y178453D01*
X84351Y177787D01*
X84194Y177000D01*
Y171000D01*
X84351Y170213D01*
X84796Y169547D01*
X85463Y169101D01*
X86250Y168944D01*
X93750D01*
X94537Y169101D01*
X95204Y169547D01*
X95649Y170213D01*
X95806Y171000D01*
Y177000D01*
X95649Y177787D01*
X95204Y178454D01*
X94537Y178899D01*
X93750Y179056D01*
X93685D01*
X93391Y179766D01*
X92266Y180891D01*
X90796Y181500D01*
X89898D01*
X89769Y181674D01*
X90410Y182945D01*
X95750D01*
X95750Y182945D01*
X96537Y183101D01*
X97204Y183547D01*
X97924Y184268D01*
X99194Y183741D01*
Y178500D01*
X99351Y177713D01*
X99796Y177047D01*
X100463Y176601D01*
X101250Y176444D01*
X107899D01*
X110312Y174030D01*
X110979Y173585D01*
X111766Y173428D01*
X111766Y173428D01*
X134055D01*
X134055Y173428D01*
X134842Y173585D01*
X135508Y174030D01*
X138453Y176975D01*
X138899Y177642D01*
X139056Y178429D01*
X139056Y178429D01*
Y184500D01*
X139056Y184500D01*
X138965Y184955D01*
X139498Y185529D01*
X139691Y185654D01*
X139994Y185795D01*
X140284Y185601D01*
X141071Y185445D01*
X141071Y185445D01*
X146166D01*
X146419Y184174D01*
X145734Y183891D01*
X144609Y182766D01*
X144000Y181296D01*
Y179704D01*
X144609Y178234D01*
X145734Y177109D01*
X147204Y176500D01*
X148796D01*
X150266Y177109D01*
X151391Y178234D01*
X152000Y179704D01*
Y181296D01*
X151391Y182766D01*
X150266Y183891D01*
X149581Y184174D01*
X149834Y185445D01*
X155662D01*
X155930Y185054D01*
X155463Y183486D01*
X155234Y183391D01*
X154109Y182266D01*
X153500Y180796D01*
Y179204D01*
X154109Y177734D01*
X155234Y176609D01*
X156704Y176000D01*
X158296D01*
X159766Y176609D01*
X160427Y177270D01*
X161250Y177593D01*
X162073Y177270D01*
X162734Y176609D01*
X164204Y176000D01*
X165796D01*
X166225Y176178D01*
X166944Y175101D01*
X166609Y174766D01*
X166000Y173296D01*
Y171704D01*
X166035Y171621D01*
X165436Y171023D01*
X164880Y170191D01*
X164685Y169209D01*
Y167556D01*
X161750D01*
X160963Y167399D01*
X160296Y166954D01*
X159851Y166287D01*
X159694Y165500D01*
Y158000D01*
X159851Y157213D01*
X160296Y156546D01*
X160963Y156101D01*
X161750Y155944D01*
X162185D01*
Y154056D01*
X161750D01*
X160963Y153899D01*
X160296Y153454D01*
X159851Y152787D01*
X159694Y152000D01*
Y144500D01*
X159851Y143713D01*
X160296Y143047D01*
X160963Y142601D01*
X161750Y142444D01*
X162185D01*
Y140250D01*
X162380Y139268D01*
X162936Y138436D01*
X168186Y133186D01*
X169018Y132630D01*
X170000Y132435D01*
X179694D01*
Y128000D01*
X179851Y127213D01*
X180296Y126546D01*
X180963Y126101D01*
X181750Y125944D01*
X182185D01*
Y124056D01*
X181750D01*
X180963Y123899D01*
X180296Y123454D01*
X179851Y122787D01*
X179694Y122000D01*
Y117565D01*
X179250D01*
X178268Y117370D01*
X177436Y116814D01*
X169678Y109056D01*
X163750D01*
X162963Y108899D01*
X162297Y108454D01*
X161851Y107787D01*
X161695Y107000D01*
Y101000D01*
X161851Y100213D01*
X162297Y99547D01*
X162963Y99101D01*
X163750Y98945D01*
X171250D01*
X172037Y99101D01*
X172372Y99325D01*
X173182Y98339D01*
X170899Y96055D01*
X163750D01*
X162963Y95899D01*
X162297Y95454D01*
X161851Y94787D01*
X161695Y94000D01*
Y88000D01*
X161851Y87213D01*
X162297Y86547D01*
X162963Y86101D01*
X163750Y85944D01*
X165445D01*
Y82500D01*
X165445Y82500D01*
X165601Y81713D01*
X166047Y81046D01*
X171087Y76006D01*
X171000Y75796D01*
Y74204D01*
X171355Y73348D01*
X170278Y72629D01*
X158306Y84601D01*
Y94000D01*
X158149Y94787D01*
X157704Y95454D01*
X157037Y95899D01*
X156250Y96055D01*
X148750D01*
X147963Y95899D01*
X147296Y95454D01*
X146851Y94787D01*
X146694Y94000D01*
Y88000D01*
X146851Y87213D01*
X147296Y86546D01*
X147963Y86101D01*
X148750Y85944D01*
X154194D01*
Y83750D01*
X154194Y83750D01*
X154351Y82963D01*
X154796Y82297D01*
X168547Y68547D01*
X169213Y68101D01*
X170000Y67944D01*
X170000Y67944D01*
X177500D01*
X177500Y67944D01*
X178287Y68101D01*
X178953Y68547D01*
X191901Y81495D01*
X193214D01*
X193739Y80225D01*
X192398Y78883D01*
X191147Y76717D01*
X190500Y74301D01*
Y71799D01*
X191147Y69383D01*
X192398Y67217D01*
X194167Y65448D01*
X196333Y64197D01*
X198749Y63550D01*
X201251D01*
X203667Y64197D01*
X205833Y65448D01*
X207602Y67217D01*
X208853Y69383D01*
X209500Y71799D01*
Y74301D01*
X208853Y76717D01*
X207602Y78883D01*
X206261Y80225D01*
X206786Y81495D01*
X216050D01*
X216050Y81495D01*
X216837Y81651D01*
X217504Y82097D01*
X221494Y86087D01*
X221704Y86000D01*
X223296D01*
X224766Y86609D01*
X225891Y87734D01*
X226500Y89204D01*
Y90796D01*
X225891Y92266D01*
X224766Y93391D01*
X223296Y94000D01*
X221704D01*
X220234Y93391D01*
X219109Y92266D01*
X218500Y90796D01*
Y89204D01*
X218587Y88994D01*
X216978Y87385D01*
X215824Y87990D01*
X215805Y88008D01*
Y94000D01*
X215649Y94787D01*
X215203Y95454D01*
X214537Y95899D01*
X213750Y96055D01*
X206250D01*
X205463Y95899D01*
X204797Y95454D01*
X204351Y94787D01*
X204195Y94000D01*
Y93315D01*
X199841D01*
X199266Y93891D01*
X198214Y94327D01*
Y95673D01*
X199266Y96109D01*
X200391Y97234D01*
X201000Y98704D01*
Y100296D01*
X200391Y101766D01*
X199266Y102891D01*
X197796Y103500D01*
X196204D01*
X194734Y102891D01*
X193609Y101766D01*
X193363Y101173D01*
X191367D01*
X191367Y101173D01*
X190581Y101016D01*
X189914Y100571D01*
X189416Y100073D01*
X188246Y100698D01*
X188305Y101000D01*
Y107000D01*
X188149Y107787D01*
X187703Y108454D01*
X187037Y108899D01*
X186250Y109056D01*
X178750D01*
X178724Y109050D01*
X178099Y110221D01*
X180312Y112435D01*
X182250D01*
X182299Y112444D01*
X186178D01*
X189452Y109170D01*
X190284Y108614D01*
X191266Y108419D01*
X202206D01*
X203188Y108614D01*
X204020Y109170D01*
X210889Y116039D01*
X212266Y116609D01*
X213391Y117734D01*
X214000Y119204D01*
Y120796D01*
X213391Y122266D01*
X212266Y123391D01*
X210796Y124000D01*
X209204D01*
X207734Y123391D01*
X206609Y122266D01*
X206000Y120796D01*
Y119204D01*
X206234Y118639D01*
X203979Y116384D01*
X202806Y116870D01*
Y122000D01*
X202649Y122787D01*
X202204Y123454D01*
X201537Y123899D01*
X200750Y124056D01*
X200126D01*
X199848Y124512D01*
X199806Y125456D01*
X200372Y125944D01*
X200750D01*
X201537Y126101D01*
X202203Y126546D01*
X202649Y127213D01*
X202806Y128000D01*
Y135500D01*
X202649Y136287D01*
X202203Y136953D01*
X201537Y137399D01*
X200750Y137556D01*
X194750D01*
X193963Y137399D01*
X193297Y136953D01*
X192851Y136287D01*
X192694Y135500D01*
Y128000D01*
X192851Y127213D01*
X193297Y126546D01*
X193963Y126101D01*
X194750Y125944D01*
X195874D01*
X196152Y125488D01*
X196194Y124544D01*
X195628Y124056D01*
X194750D01*
X193963Y123899D01*
X193297Y123454D01*
X192851Y122787D01*
X192694Y122000D01*
Y114979D01*
X191458Y114420D01*
X189806Y116072D01*
Y122000D01*
X189649Y122787D01*
X189203Y123454D01*
X188537Y123899D01*
X187750Y124056D01*
X187315D01*
Y125944D01*
X187750D01*
X188537Y126101D01*
X189203Y126546D01*
X189649Y127213D01*
X189806Y128000D01*
Y135500D01*
X189649Y136287D01*
X189203Y136953D01*
X188537Y137399D01*
X187750Y137556D01*
X182299D01*
X182250Y137565D01*
X171063D01*
X167453Y141174D01*
X167649Y142444D01*
X167750D01*
X168537Y142601D01*
X169203Y143047D01*
X169649Y143713D01*
X169806Y144500D01*
Y152000D01*
X169649Y152787D01*
X169203Y153454D01*
X168537Y153899D01*
X167750Y154056D01*
X167315D01*
Y155944D01*
X167750D01*
X168537Y156101D01*
X169203Y156546D01*
X169649Y157213D01*
X169806Y158000D01*
Y164201D01*
X169815Y164250D01*
Y168146D01*
X170169Y168500D01*
X170796D01*
X172266Y169109D01*
X173391Y170234D01*
X174000Y171704D01*
Y173296D01*
X173391Y174766D01*
X172266Y175891D01*
X170796Y176500D01*
X169204D01*
X168775Y176322D01*
X168056Y177399D01*
X168391Y177734D01*
X169000Y179204D01*
Y179791D01*
X170270Y180357D01*
X171343Y179391D01*
X181771Y168817D01*
X182055Y168492D01*
X181909Y168185D01*
X181279Y167450D01*
X180750Y167556D01*
X174750D01*
X173963Y167399D01*
X173297Y166954D01*
X172851Y166287D01*
X172694Y165500D01*
Y158000D01*
X172851Y157213D01*
X173297Y156546D01*
X173963Y156101D01*
X174750Y155944D01*
X175874D01*
X176152Y155488D01*
X176194Y154544D01*
X175628Y154056D01*
X174750D01*
X173963Y153899D01*
X173297Y153454D01*
X172851Y152787D01*
X172694Y152000D01*
Y144500D01*
X172851Y143713D01*
X173297Y143047D01*
X173963Y142601D01*
X174750Y142444D01*
X180750D01*
X181537Y142601D01*
X182203Y143047D01*
X182649Y143713D01*
X182806Y144500D01*
Y152000D01*
X182649Y152787D01*
X182203Y153454D01*
X181537Y153899D01*
X180750Y154056D01*
X180126D01*
X179848Y154512D01*
X179806Y155456D01*
X180372Y155944D01*
X180750D01*
X181537Y156101D01*
X182203Y156546D01*
X182649Y157213D01*
X182806Y158000D01*
Y165500D01*
X182753Y165765D01*
X183932Y166345D01*
X191548Y157636D01*
X200637Y145892D01*
X209008Y133624D01*
X216630Y120877D01*
X223475Y107697D01*
X229520Y94130D01*
X234741Y80227D01*
X239121Y66036D01*
X242644Y51609D01*
X245298Y36996D01*
X247072Y22251D01*
X247961Y7426D01*
Y-0D01*
X247961Y-6309D01*
X247319Y-18909D01*
X246038Y-31461D01*
X244120Y-43932D01*
X241570Y-56289D01*
X238395Y-68500D01*
X234603Y-80534D01*
X230205Y-92359D01*
X225210Y-103946D01*
X222701Y-109038D01*
X222501Y-109066D01*
X221364Y-108877D01*
X220891Y-107734D01*
X219766Y-106609D01*
X218296Y-106000D01*
X216704D01*
X215234Y-106609D01*
X214408Y-107435D01*
X211964D01*
X211819Y-107240D01*
X211492Y-106165D01*
X214351Y-103306D01*
X219500D01*
X220287Y-103149D01*
X220954Y-102704D01*
X221399Y-102037D01*
X221556Y-101250D01*
Y-93750D01*
X221399Y-92963D01*
X220954Y-92296D01*
X220287Y-91851D01*
X219500Y-91694D01*
X213500D01*
X212713Y-91851D01*
X212047Y-92296D01*
X211601Y-92963D01*
X211444Y-93750D01*
Y-100399D01*
X208915Y-102928D01*
X187835D01*
X183016Y-98109D01*
Y-89984D01*
X176739D01*
X176486Y-88714D01*
X177266Y-88391D01*
X178391Y-87266D01*
X178478Y-87056D01*
X182500D01*
X182500Y-87056D01*
X183287Y-86899D01*
X183953Y-86454D01*
X188953Y-81454D01*
X188953Y-81454D01*
X189399Y-80787D01*
X189555Y-80000D01*
Y-75683D01*
X190826Y-75515D01*
X191147Y-76717D01*
X192398Y-78883D01*
X194167Y-80652D01*
X196333Y-81903D01*
X198749Y-82550D01*
X201251D01*
X203667Y-81903D01*
X205833Y-80652D01*
X207602Y-78883D01*
X208853Y-76717D01*
X209500Y-74301D01*
Y-71799D01*
X208853Y-69383D01*
X207602Y-67217D01*
X205833Y-65448D01*
X204831Y-64870D01*
X205172Y-63600D01*
X227500D01*
X228278Y-63278D01*
X228600Y-62500D01*
Y-10000D01*
X228278Y-9222D01*
X227500Y-8900D01*
X225766D01*
X224988Y-9222D01*
X224680Y-9966D01*
X218830D01*
X218628Y-10050D01*
X218409D01*
X217926Y-10250D01*
X216374D01*
X215891Y-10050D01*
X215672D01*
X215470Y-9966D01*
X202620D01*
X202312Y-9222D01*
X201534Y-8900D01*
X198466D01*
X197688Y-9222D01*
X197380Y-9966D01*
X184530D01*
X184328Y-10050D01*
X184109D01*
X183626Y-10250D01*
X182074D01*
X181591Y-10050D01*
X181372D01*
X181170Y-9966D01*
X175320D01*
X175012Y-9222D01*
X174234Y-8900D01*
X137500D01*
X136722Y-9222D01*
X136400Y-10000D01*
Y-28900D01*
X134378D01*
Y-22693D01*
X125622D01*
Y-28900D01*
X107109D01*
X107055Y-28876D01*
X106100Y-28009D01*
Y-20000D01*
X105778Y-19222D01*
X105000Y-18900D01*
X86904D01*
X86500Y-18296D01*
Y-16704D01*
X85891Y-15234D01*
X84766Y-14109D01*
X83296Y-13500D01*
X81704D01*
X80234Y-14109D01*
X79109Y-15234D01*
X78500Y-16704D01*
Y-18296D01*
X78096Y-18900D01*
X65000D01*
X64222Y-19222D01*
X63900Y-20000D01*
Y-21411D01*
X42500D01*
X40528Y-21670D01*
X39803Y-21044D01*
X39516Y-20644D01*
Y-19204D01*
X39043Y-18063D01*
X39586Y-17100D01*
X39822Y-16878D01*
X44807D01*
Y-8122D01*
X39249D01*
X36907Y-5779D01*
X36814Y-5554D01*
Y-4446D01*
X36907Y-4221D01*
X39249Y-1878D01*
X44807D01*
Y6878D01*
X39195D01*
X38563Y8148D01*
X39000Y9204D01*
Y10796D01*
X38563Y11852D01*
X39195Y13122D01*
X44807D01*
Y21878D01*
X42780D01*
Y23402D01*
X52822Y33444D01*
X58750D01*
X59537Y33601D01*
X60203Y34046D01*
X60649Y34713D01*
X60806Y35500D01*
Y39928D01*
X60813Y39935D01*
X65626D01*
X65669Y39870D01*
X65000Y38600D01*
X64222Y38278D01*
X63900Y37500D01*
Y11100D01*
X57500D01*
X56722Y10778D01*
X56400Y10000D01*
Y-7500D01*
X56722Y-8278D01*
X57500Y-8600D01*
X85000D01*
X85778Y-8278D01*
X86100Y-7500D01*
Y37500D01*
X85778Y38278D01*
X85000Y38600D01*
X73553D01*
X73027Y39870D01*
X73391Y40234D01*
X73561Y40644D01*
X74197Y41069D01*
X79578Y46450D01*
X79748Y46484D01*
X86016D01*
Y57516D01*
X76984D01*
Y51013D01*
X76686Y50814D01*
X74189Y48317D01*
X73016Y48803D01*
Y57516D01*
X63984D01*
Y53555D01*
X60806D01*
Y54500D01*
X60649Y55287D01*
X60203Y55953D01*
X59537Y56399D01*
X58750Y56556D01*
X51250D01*
X50463Y56399D01*
X49797Y55953D01*
X49351Y55287D01*
X49194Y54500D01*
Y53555D01*
X45806D01*
Y54500D01*
X45649Y55287D01*
X45203Y55953D01*
X44537Y56399D01*
X43750Y56556D01*
X36250D01*
X35463Y56399D01*
X34797Y55953D01*
X34351Y55287D01*
X34195Y54500D01*
Y48500D01*
X34351Y47713D01*
X34797Y47047D01*
X35463Y46601D01*
X36250Y46445D01*
X43750D01*
X44537Y46601D01*
X45203Y47047D01*
X45649Y47713D01*
X45806Y48500D01*
Y49444D01*
X49194D01*
Y48500D01*
X49351Y47713D01*
X49797Y47046D01*
X50463Y46601D01*
X51250Y46445D01*
X58750D01*
X59537Y46601D01*
X60203Y47046D01*
X60649Y47713D01*
X60806Y48500D01*
Y49444D01*
X63984D01*
Y46484D01*
X65165D01*
X65844Y45214D01*
X65744Y45065D01*
X59750D01*
X58768Y44870D01*
X57936Y44314D01*
X57178Y43555D01*
X51250D01*
X50463Y43399D01*
X49797Y42954D01*
X49351Y42287D01*
X49194Y41500D01*
Y37072D01*
X46971Y34849D01*
X45800Y35474D01*
X45806Y35500D01*
Y41500D01*
X45649Y42287D01*
X45203Y42954D01*
X44537Y43399D01*
X43750Y43555D01*
X36250D01*
X35463Y43399D01*
X34797Y42954D01*
X34668Y42761D01*
X34416Y42654D01*
X33317Y42568D01*
X33157Y42612D01*
X32378Y43391D01*
X30908Y44000D01*
X29316D01*
X27846Y43391D01*
X26721Y42266D01*
X26112Y40796D01*
Y39204D01*
X26721Y37734D01*
X27846Y36609D01*
X29316Y36000D01*
X30908D01*
X32378Y36609D01*
X32924Y37156D01*
X34195Y36630D01*
Y35500D01*
X34351Y34713D01*
X34797Y34047D01*
X35463Y33601D01*
X36250Y33444D01*
X43750D01*
X43776Y33450D01*
X44401Y32279D01*
X38400Y26278D01*
X37844Y25446D01*
X37649Y24464D01*
Y21878D01*
X35622D01*
Y19021D01*
X32456D01*
X31474Y18826D01*
X30642Y18270D01*
X22533Y10161D01*
X22050D01*
X21250Y10320D01*
X18250D01*
X17171Y10106D01*
X16256Y9494D01*
X15645Y8579D01*
X15430Y7500D01*
X15645Y6421D01*
X16018Y5862D01*
X16168Y5000D01*
X16018Y4138D01*
X15645Y3579D01*
X15430Y2500D01*
X15645Y1421D01*
X16018Y862D01*
X16168Y0D01*
X16018Y-862D01*
X15645Y-1421D01*
X15430Y-2500D01*
X15645Y-3579D01*
X16018Y-4138D01*
X16168Y-5000D01*
X16018Y-5862D01*
X15645Y-6421D01*
X15430Y-7500D01*
X15645Y-8579D01*
X16018Y-9138D01*
X16168Y-10000D01*
X16018Y-10862D01*
X15645Y-11421D01*
X15430Y-12500D01*
X15645Y-13579D01*
X16256Y-14494D01*
X17171Y-15106D01*
X17694Y-15210D01*
Y-19399D01*
X16590Y-20503D01*
X15320Y-19977D01*
Y-18250D01*
X15106Y-17171D01*
X14494Y-16256D01*
X13579Y-15645D01*
X12500Y-15430D01*
X11421Y-15645D01*
X10506Y-16256D01*
X9894Y-17171D01*
X9680Y-18250D01*
Y-21250D01*
X9894Y-22329D01*
X10506Y-23244D01*
X11421Y-23856D01*
X11438Y-23859D01*
X11856Y-25237D01*
X4149Y-32945D01*
X-6522D01*
X-6609Y-32734D01*
X-7734Y-31609D01*
X-9204Y-31000D01*
X-10796D01*
X-12266Y-31609D01*
X-12927Y-32270D01*
X-13750Y-32593D01*
X-14573Y-32270D01*
X-15234Y-31609D01*
X-16704Y-31000D01*
X-18296D01*
X-19766Y-31609D01*
X-20891Y-32734D01*
X-21500Y-34204D01*
Y-35796D01*
X-20891Y-37266D01*
X-19766Y-38391D01*
X-18296Y-39000D01*
X-16704D01*
X-16698Y-38997D01*
X-16211Y-39330D01*
X-15698Y-39958D01*
X-15805Y-40500D01*
Y-46500D01*
X-15649Y-47287D01*
X-15203Y-47954D01*
X-14537Y-48399D01*
X-13750Y-48555D01*
X-6250D01*
X-5463Y-48399D01*
X-4796Y-47954D01*
X-4351Y-47287D01*
X-4195Y-46500D01*
Y-40500D01*
X-4351Y-39713D01*
X-4796Y-39047D01*
X-5463Y-38601D01*
X-5523Y-37294D01*
X-5402Y-37087D01*
X-5345Y-37055D01*
X5000D01*
X5000Y-37055D01*
X5787Y-36899D01*
X6453Y-36453D01*
X10278Y-32629D01*
X11355Y-33348D01*
X11000Y-34204D01*
Y-35796D01*
X11609Y-37266D01*
X12734Y-38391D01*
X14204Y-39000D01*
X15796D01*
X17266Y-38391D01*
X18391Y-37266D01*
X19000Y-35796D01*
Y-34204D01*
X18391Y-32734D01*
X17266Y-31609D01*
X15796Y-31000D01*
X14204D01*
X13348Y-31354D01*
X12629Y-30278D01*
X21203Y-21704D01*
X21203Y-21704D01*
X21649Y-21037D01*
X21806Y-20250D01*
X21806Y-20250D01*
Y-15210D01*
X22329Y-15106D01*
X23244Y-14494D01*
X23856Y-13579D01*
X24070Y-12500D01*
X23856Y-11421D01*
X23798Y-11335D01*
X24477Y-10065D01*
X33937D01*
X35622Y-11750D01*
Y-13250D01*
X33569Y-15303D01*
X33013Y-16136D01*
X32836Y-17023D01*
X32125Y-17734D01*
X31516Y-19204D01*
Y-20796D01*
X32125Y-22266D01*
X33250Y-23391D01*
X34605Y-23952D01*
X34864Y-24503D01*
X35083Y-25270D01*
X21426Y-38926D01*
X20061Y-40705D01*
X19203Y-42777D01*
X18910Y-45000D01*
Y-102475D01*
X18900Y-102500D01*
Y-122500D01*
X19222Y-123278D01*
X20000Y-123600D01*
X62500D01*
X63278Y-123278D01*
X63600Y-122500D01*
Y-102500D01*
X63278Y-101722D01*
X62500Y-101400D01*
X51432D01*
X50787Y-100482D01*
X50680Y-100130D01*
X50806Y-99500D01*
Y-94351D01*
X56601Y-88555D01*
X57000D01*
X57000Y-88555D01*
X57000Y-88555D01*
X63750D01*
X64537Y-88399D01*
X65203Y-87953D01*
X65649Y-87287D01*
X65806Y-86500D01*
Y-82565D01*
X67000Y-82556D01*
X67787Y-82399D01*
X68453Y-81953D01*
X69352Y-81055D01*
X70622Y-81581D01*
Y-89807D01*
X79378D01*
Y-83529D01*
X81852Y-81055D01*
X83122Y-81581D01*
Y-89807D01*
X91878D01*
Y-80622D01*
X89556D01*
Y-79008D01*
X90734Y-78391D01*
X92204Y-79000D01*
X93796D01*
X94183Y-78840D01*
X96694Y-81351D01*
Y-86500D01*
X96851Y-87287D01*
X97296Y-87953D01*
X97963Y-88399D01*
X98750Y-88555D01*
X106250D01*
X107037Y-88399D01*
X107704Y-87953D01*
X108149Y-87287D01*
X108306Y-86500D01*
Y-80500D01*
X108149Y-79713D01*
X107925Y-79378D01*
X108911Y-78568D01*
X111694Y-81351D01*
Y-86500D01*
X111851Y-87287D01*
X112296Y-87953D01*
X112963Y-88399D01*
X113750Y-88555D01*
X121250D01*
X122037Y-88399D01*
X122485Y-88099D01*
X123400Y-89015D01*
X123101Y-89463D01*
X122944Y-90250D01*
X122944Y-90250D01*
Y-101649D01*
X118506Y-106087D01*
X118296Y-106000D01*
X116704D01*
X115234Y-106609D01*
X114109Y-107734D01*
X113500Y-109204D01*
Y-110796D01*
X114109Y-112266D01*
X115234Y-113391D01*
X116704Y-114000D01*
X118296D01*
X119766Y-113391D01*
X120891Y-112266D01*
X121500Y-110796D01*
Y-109204D01*
X121413Y-108994D01*
X126453Y-103954D01*
X126454Y-103954D01*
X126899Y-103287D01*
X127056Y-102500D01*
Y-102320D01*
X127321Y-102050D01*
X128326Y-101471D01*
X128750Y-101556D01*
X129944D01*
Y-121000D01*
X129944Y-121000D01*
X130101Y-121787D01*
X130547Y-122453D01*
X131797Y-123703D01*
X132463Y-124149D01*
X132700Y-124196D01*
X133734Y-124766D01*
X133734Y-124766D01*
X133734Y-124766D01*
X142766D01*
Y-120234D01*
X138199D01*
X138000Y-120195D01*
X138000Y-120195D01*
X134101D01*
X134056Y-120149D01*
Y-114766D01*
X137113D01*
X137268Y-114870D01*
X138250Y-115065D01*
X140000D01*
X140982Y-114870D01*
X141137Y-114766D01*
X142766D01*
Y-112498D01*
X142815Y-112250D01*
Y-109799D01*
X144085Y-108951D01*
X144204Y-109000D01*
X145796D01*
X147266Y-108391D01*
X148391Y-107266D01*
X149000Y-105796D01*
Y-104447D01*
X149314Y-104133D01*
X149870Y-103301D01*
X150065Y-102319D01*
Y-99378D01*
X151878D01*
Y-95066D01*
X152791Y-94264D01*
X153578Y-94108D01*
X154245Y-93662D01*
X155245Y-92662D01*
X155560Y-92696D01*
X156694Y-93500D01*
Y-99500D01*
X156851Y-100287D01*
X157296Y-100954D01*
X157963Y-101399D01*
X158750Y-101556D01*
X166250D01*
X167037Y-101399D01*
X167703Y-100954D01*
X168149Y-100287D01*
X168305Y-99500D01*
Y-98555D01*
X173984D01*
Y-101016D01*
X180109D01*
X185530Y-106437D01*
X185530Y-106437D01*
X186197Y-106883D01*
X186984Y-107039D01*
X186984Y-107039D01*
X198091D01*
X199195Y-108000D01*
Y-109928D01*
X191686Y-117436D01*
X191130Y-118268D01*
X190935Y-119250D01*
Y-122484D01*
X186984D01*
X186984Y-132550D01*
Y-132592D01*
D01*
X186984Y-132781D01*
X186661Y-132915D01*
X185714Y-133307D01*
X183016Y-130609D01*
Y-125391D01*
X184953Y-123453D01*
X184953Y-123453D01*
X185399Y-122787D01*
X185556Y-122000D01*
Y-120016D01*
X189516D01*
Y-108984D01*
X180484D01*
Y-120016D01*
X181113D01*
X181307Y-121286D01*
X180109Y-122484D01*
X174555D01*
Y-118922D01*
X174555Y-118922D01*
X174399Y-118135D01*
X173953Y-117468D01*
X173953Y-117468D01*
X172782Y-116297D01*
X172115Y-115851D01*
X171843Y-115797D01*
X171282Y-114794D01*
X171266Y-114486D01*
X171266Y-113964D01*
Y-110234D01*
X162234D01*
X162234Y-114766D01*
X162234Y-116036D01*
Y-118964D01*
X162234Y-119766D01*
X162234D01*
Y-120234D01*
X162234D01*
Y-124766D01*
X162945D01*
Y-130944D01*
X161250D01*
X160463Y-131101D01*
X159796Y-131546D01*
X159351Y-132213D01*
X159194Y-133000D01*
Y-135569D01*
X156420D01*
X156399Y-135463D01*
X155954Y-134796D01*
X155287Y-134351D01*
X154500Y-134194D01*
X148500D01*
X147713Y-134351D01*
X147046Y-134796D01*
X146601Y-135463D01*
X146445Y-136250D01*
Y-143750D01*
X146601Y-144537D01*
X147046Y-145204D01*
X147713Y-145649D01*
X148500Y-145806D01*
X152143D01*
X152629Y-146979D01*
X149651Y-149957D01*
X148391Y-150234D01*
X147266Y-149109D01*
X145796Y-148500D01*
X144204D01*
X142734Y-149109D01*
X141609Y-150234D01*
X141000Y-151704D01*
Y-153296D01*
X141609Y-154766D01*
X142435Y-155591D01*
Y-160622D01*
X140622D01*
Y-169807D01*
X149378D01*
Y-167780D01*
X154402D01*
X159194Y-172572D01*
Y-177000D01*
X159351Y-177787D01*
X159796Y-178454D01*
X160463Y-178899D01*
X161250Y-179056D01*
X168750D01*
X169537Y-178899D01*
X170203Y-178454D01*
X170649Y-177787D01*
X170805Y-177000D01*
Y-171000D01*
X170649Y-170213D01*
X170203Y-169547D01*
X169537Y-169101D01*
X168750Y-168944D01*
X162822D01*
X161170Y-167293D01*
X161729Y-166056D01*
X168750D01*
X169537Y-165899D01*
X170203Y-165453D01*
X170649Y-164787D01*
X170805Y-164000D01*
Y-158000D01*
X170649Y-157213D01*
X170203Y-156546D01*
X169537Y-156101D01*
X168750Y-155944D01*
X167565D01*
Y-154056D01*
X168750D01*
X169537Y-153899D01*
X170203Y-153454D01*
X170649Y-152787D01*
X170805Y-152000D01*
Y-149065D01*
X180484D01*
Y-152516D01*
X189516D01*
Y-141484D01*
X180484D01*
Y-143935D01*
X172784D01*
X172257Y-142665D01*
X173953Y-140969D01*
X173953Y-140969D01*
X174399Y-140302D01*
X174555Y-139515D01*
Y-133516D01*
X180109D01*
X185546Y-138954D01*
X186213Y-139399D01*
X187000Y-139556D01*
X187000Y-139556D01*
X197500D01*
X197500Y-139556D01*
X198287Y-139399D01*
X198953Y-138954D01*
X206453Y-131454D01*
X206453Y-131454D01*
X206899Y-130787D01*
X207055Y-130000D01*
Y-129056D01*
X208750D01*
X209537Y-128899D01*
X210203Y-128453D01*
X210649Y-127787D01*
X210805Y-127000D01*
Y-121000D01*
X210649Y-120213D01*
X210203Y-119546D01*
X209537Y-119101D01*
X208750Y-118945D01*
X201250D01*
X200463Y-119101D01*
X199797Y-119546D01*
X199351Y-120213D01*
X199195Y-121000D01*
Y-127000D01*
X199351Y-127787D01*
X199797Y-128453D01*
X200463Y-128899D01*
X201250Y-129056D01*
X201768Y-130325D01*
X196649Y-135444D01*
X188194D01*
X187663Y-134763D01*
X187745Y-134347D01*
X188222Y-133516D01*
X196016D01*
Y-126248D01*
X196065Y-126000D01*
Y-120313D01*
X200476Y-115902D01*
X201250Y-116055D01*
X208750D01*
X209537Y-115899D01*
X210203Y-115453D01*
X210649Y-114787D01*
X210805Y-114000D01*
Y-112565D01*
X214408D01*
X215234Y-113391D01*
X216704Y-114000D01*
X218296D01*
X218980Y-113717D01*
X219907Y-114707D01*
X219633Y-115263D01*
X213488Y-126283D01*
X206790Y-136975D01*
X199557Y-147314D01*
X191808Y-157271D01*
X183563Y-166821D01*
X174842Y-175939D01*
X170853Y-179707D01*
X170806Y-179737D01*
X170222Y-180303D01*
X170183Y-180359D01*
X169800Y-180743D01*
X167676Y-182486D01*
X165392Y-184012D01*
X162969Y-185307D01*
X160431Y-186358D01*
X157802Y-187156D01*
X155108Y-187692D01*
X152374Y-187961D01*
X-0D01*
X-784Y-187961D01*
X-2322Y-187655D01*
X-3771Y-187055D01*
X-5075Y-186184D01*
X-6184Y-185075D01*
X-7055Y-183771D01*
X-7655Y-182322D01*
X-7961Y-180784D01*
X-7961Y-180000D01*
X-7971Y-179950D01*
X-7963Y-179900D01*
X-8012Y-178920D01*
X-8048Y-178773D01*
Y-178622D01*
X-8431Y-176699D01*
X-8508Y-176514D01*
X-8547Y-176317D01*
X-9297Y-174506D01*
X-9409Y-174339D01*
X-9485Y-174153D01*
X-10575Y-172523D01*
X-10717Y-172381D01*
X-10828Y-172214D01*
X-12214Y-170828D01*
X-12381Y-170716D01*
X-12523Y-170574D01*
X-14153Y-169485D01*
X-14339Y-169409D01*
X-14506Y-169297D01*
X-16317Y-168547D01*
X-16514Y-168508D01*
X-16699Y-168431D01*
X-18622Y-168048D01*
X-18773D01*
X-18920Y-168012D01*
X-19270Y-167994D01*
X-19425Y-167963D01*
X-19998Y-167961D01*
X-20009Y-167963D01*
X-169800Y-167961D01*
X-171327Y-167961D01*
X-174361Y-167629D01*
X-177342Y-166968D01*
X-180233Y-165986D01*
X-183000Y-164696D01*
X-185610Y-163112D01*
X-188032Y-161254D01*
X-190238Y-159143D01*
X-191209Y-157985D01*
X-195878Y-152223D01*
X-204642Y-140220D01*
X-212666Y-127723D01*
X-219928Y-114768D01*
X-226402Y-101401D01*
X-232064Y-87671D01*
X-236894Y-73627D01*
X-240875Y-59319D01*
X-243994Y-44798D01*
X-246237Y-30117D01*
X-247598Y-15328D01*
X-248072Y-485D01*
X-247656Y14362D01*
X-246353Y29156D01*
X-244167Y43846D01*
X-241105Y58378D01*
X-237180Y72702D01*
X-232404Y86765D01*
X-226796Y100516D01*
X-220374Y113908D01*
X-213163Y126892D01*
X-205187Y139420D01*
X-196476Y151449D01*
X-187062Y162935D01*
X-176976Y173837D01*
X-166256Y184116D01*
X-154941Y193735D01*
X-143070Y202659D01*
X-130686Y210858D01*
X-117834Y218300D01*
X-104559Y224960D01*
X-90910Y230814D01*
X-76935Y235841D01*
X-62684Y240022D01*
X-48208Y243343D01*
X-33560Y245792D01*
X-18791Y247359D01*
X-16821Y247450D01*
X-16541Y246191D01*
D02*
G37*
G36*
X85000Y-7500D02*
X57500D01*
Y10000D01*
X65000D01*
Y37500D01*
X85000D01*
Y-7500D01*
D02*
G37*
G36*
X227500Y-62500D02*
X167657D01*
X163305Y-58149D01*
Y-53000D01*
X163149Y-52213D01*
X162703Y-51547D01*
X162500Y-51411D01*
Y-30000D01*
X137500D01*
Y-10000D01*
X174234D01*
Y-11066D01*
X181170D01*
X181855Y-11350D01*
X183845D01*
X184530Y-11066D01*
X198466D01*
Y-10000D01*
X201534D01*
Y-11066D01*
X215470D01*
X216155Y-11350D01*
X218145D01*
X218830Y-11066D01*
X225766D01*
Y-10000D01*
X227500D01*
Y-62500D01*
D02*
G37*
G36*
X105000Y-28009D02*
X104176Y-28921D01*
X103909Y-29100D01*
X103612Y-29222D01*
X103569Y-29326D01*
X103476Y-29389D01*
X103341Y-29591D01*
X102955Y-29849D01*
X102500Y-29939D01*
X102045Y-29849D01*
X101659Y-29591D01*
X101524Y-29389D01*
X101431Y-29326D01*
X101388Y-29222D01*
X101091Y-29100D01*
X100824Y-28921D01*
X100714Y-28943D01*
X100610Y-28900D01*
X99390D01*
X99286Y-28943D01*
X99176Y-28921D01*
X98909Y-29100D01*
X98612Y-29222D01*
X98569Y-29326D01*
X98476Y-29389D01*
X98341Y-29591D01*
X97955Y-29849D01*
X97500Y-29939D01*
X97045Y-29849D01*
X96659Y-29591D01*
X96524Y-29389D01*
X96431Y-29326D01*
X96388Y-29222D01*
X96091Y-29100D01*
X95824Y-28921D01*
X95714Y-28943D01*
X95610Y-28900D01*
X94390D01*
X94286Y-28943D01*
X94176Y-28921D01*
X93909Y-29100D01*
X93612Y-29222D01*
X93569Y-29326D01*
X93476Y-29389D01*
X93341Y-29591D01*
X92955Y-29849D01*
X92500Y-29939D01*
X92045Y-29849D01*
X91659Y-29591D01*
X91524Y-29389D01*
X91431Y-29326D01*
X91388Y-29222D01*
X91091Y-29100D01*
X90824Y-28921D01*
X90714Y-28943D01*
X90610Y-28900D01*
X89390D01*
X89286Y-28943D01*
X89176Y-28921D01*
X88909Y-29100D01*
X88612Y-29222D01*
X88569Y-29326D01*
X88476Y-29389D01*
X88341Y-29591D01*
X87955Y-29849D01*
X87500Y-29939D01*
X87045Y-29849D01*
X86659Y-29591D01*
X86524Y-29389D01*
X86431Y-29326D01*
X86388Y-29222D01*
X86091Y-29100D01*
X85824Y-28921D01*
X85714Y-28943D01*
X85610Y-28900D01*
X84390D01*
X84286Y-28943D01*
X84176Y-28921D01*
X83909Y-29100D01*
X83612Y-29222D01*
X83569Y-29326D01*
X83476Y-29389D01*
X83341Y-29591D01*
X82955Y-29849D01*
X82500Y-29939D01*
X82045Y-29849D01*
X81659Y-29591D01*
X81524Y-29389D01*
X81431Y-29326D01*
X81388Y-29222D01*
X81091Y-29100D01*
X80824Y-28921D01*
X80714Y-28943D01*
X80610Y-28900D01*
X79390D01*
X79286Y-28943D01*
X79176Y-28921D01*
X78909Y-29100D01*
X78612Y-29222D01*
X78569Y-29326D01*
X78476Y-29389D01*
X78341Y-29591D01*
X77955Y-29849D01*
X77500Y-29939D01*
X77163Y-29872D01*
X76765Y-29951D01*
X76474Y-30000D01*
X75000D01*
Y-31474D01*
X74951Y-31766D01*
X74872Y-32163D01*
X74939Y-32500D01*
X74849Y-32955D01*
X74591Y-33341D01*
X74389Y-33476D01*
X74326Y-33569D01*
X74222Y-33612D01*
X74100Y-33909D01*
X73921Y-34176D01*
X73943Y-34286D01*
X73900Y-34390D01*
Y-35610D01*
X73943Y-35714D01*
X73921Y-35824D01*
X74100Y-36091D01*
X74222Y-36388D01*
X74326Y-36431D01*
X74389Y-36524D01*
X74591Y-36659D01*
X74849Y-37045D01*
X74939Y-37500D01*
X74849Y-37955D01*
X74591Y-38341D01*
X74389Y-38476D01*
X74326Y-38569D01*
X74222Y-38612D01*
X74103Y-38900D01*
X65000D01*
Y-20000D01*
X105000D01*
Y-28009D01*
D02*
G37*
G36*
X136722Y-30778D02*
X137500Y-31100D01*
X161400D01*
Y-50000D01*
X137500D01*
Y-45000D01*
X65000D01*
Y-40000D01*
X75000D01*
Y-39390D01*
X75384Y-39134D01*
X75884Y-38384D01*
X76060Y-37500D01*
X75884Y-36616D01*
X75384Y-35866D01*
X75000Y-35610D01*
Y-34390D01*
X75384Y-34134D01*
X75884Y-33384D01*
X76060Y-32500D01*
X75951Y-31949D01*
X76175Y-31590D01*
X76590Y-31175D01*
X76948Y-30951D01*
X77500Y-31060D01*
X78384Y-30884D01*
X79134Y-30384D01*
X79390Y-30000D01*
X80610D01*
X80866Y-30384D01*
X81616Y-30884D01*
X82500Y-31060D01*
X83384Y-30884D01*
X84134Y-30384D01*
X84390Y-30000D01*
X85610D01*
X85866Y-30384D01*
X86616Y-30884D01*
X87500Y-31060D01*
X88384Y-30884D01*
X89134Y-30384D01*
X89390Y-30000D01*
X90610D01*
X90866Y-30384D01*
X91616Y-30884D01*
X92500Y-31060D01*
X93384Y-30884D01*
X94134Y-30384D01*
X94390Y-30000D01*
X95610D01*
X95866Y-30384D01*
X96616Y-30884D01*
X97500Y-31060D01*
X98384Y-30884D01*
X99134Y-30384D01*
X99390Y-30000D01*
X100610D01*
X100866Y-30384D01*
X101616Y-30884D01*
X102500Y-31060D01*
X103384Y-30884D01*
X104134Y-30384D01*
X104390Y-30000D01*
X136400D01*
X136722Y-30778D01*
D02*
G37*
G36*
X63970Y-39830D02*
X63900Y-40000D01*
Y-45000D01*
X63603Y-45444D01*
X56878D01*
Y-43122D01*
X48122D01*
Y-52307D01*
X56878D01*
Y-49556D01*
X66748D01*
X66866Y-49634D01*
X67750Y-49810D01*
X73750D01*
X74634Y-49634D01*
X75384Y-49134D01*
X75884Y-48384D01*
X76060Y-47500D01*
X76663Y-46766D01*
X104266D01*
Y-46100D01*
X124018D01*
X124172Y-46287D01*
X124581Y-47370D01*
X124351Y-47713D01*
X124194Y-48500D01*
Y-53649D01*
X122399Y-55444D01*
X113252D01*
X113134Y-55366D01*
X112250Y-55190D01*
X106250D01*
X105366Y-55366D01*
X104616Y-55866D01*
X104115Y-56616D01*
X103940Y-57500D01*
X104049Y-58052D01*
X103825Y-58410D01*
X103410Y-58825D01*
X103052Y-59049D01*
X102500Y-58940D01*
X101616Y-59116D01*
X100866Y-59616D01*
X100724Y-59829D01*
X99276D01*
X99134Y-59616D01*
X98384Y-59116D01*
X97500Y-58940D01*
X96616Y-59116D01*
X95866Y-59616D01*
X95724Y-59829D01*
X94276D01*
X94134Y-59616D01*
X93384Y-59116D01*
X92500Y-58940D01*
X91616Y-59116D01*
X90866Y-59616D01*
X90724Y-59829D01*
X89276D01*
X89134Y-59616D01*
X88384Y-59116D01*
X87500Y-58940D01*
X86616Y-59116D01*
X85866Y-59616D01*
X85724Y-59829D01*
X84276D01*
X84134Y-59616D01*
X83384Y-59116D01*
X82500Y-58940D01*
X81616Y-59116D01*
X80866Y-59616D01*
X80724Y-59829D01*
X79276D01*
X79134Y-59616D01*
X78384Y-59116D01*
X77500Y-58940D01*
X76948Y-59049D01*
X76590Y-58825D01*
X76175Y-58410D01*
X75951Y-58052D01*
X76060Y-57500D01*
X75884Y-56616D01*
X75384Y-55866D01*
X74634Y-55366D01*
X73750Y-55190D01*
X65000D01*
X64116Y-55366D01*
X63366Y-55866D01*
X58366Y-60866D01*
X57866Y-61616D01*
X57690Y-62500D01*
Y-66654D01*
X56609Y-67734D01*
X56000Y-69204D01*
Y-70796D01*
X56609Y-72266D01*
X57734Y-73391D01*
X59204Y-74000D01*
X60796D01*
X62266Y-73391D01*
X63391Y-72266D01*
X64000Y-70796D01*
Y-69204D01*
X63391Y-67734D01*
X62310Y-66654D01*
Y-63457D01*
X65957Y-59810D01*
X73750D01*
X74302Y-59701D01*
X74660Y-59925D01*
X75075Y-60340D01*
X75299Y-60698D01*
X75190Y-61250D01*
Y-67250D01*
X75366Y-68134D01*
X75444Y-68252D01*
Y-69149D01*
X66149Y-78444D01*
X63000D01*
X63000Y-78444D01*
X56250D01*
X55463Y-78601D01*
X54797Y-79047D01*
X54351Y-79713D01*
X54194Y-80500D01*
Y-85148D01*
X51916Y-87427D01*
X50746Y-86802D01*
X50806Y-86500D01*
Y-80500D01*
X50649Y-79713D01*
X50203Y-79047D01*
X49537Y-78601D01*
X48966Y-78487D01*
X48518Y-77681D01*
X48391Y-77266D01*
X49000Y-75796D01*
Y-74204D01*
X48391Y-72734D01*
X47266Y-71609D01*
X45796Y-71000D01*
X44204D01*
X42734Y-71609D01*
X41609Y-72734D01*
X41000Y-74204D01*
Y-75796D01*
X41609Y-77266D01*
X41482Y-77681D01*
X41034Y-78487D01*
X40463Y-78601D01*
X39797Y-79047D01*
X39351Y-79713D01*
X39195Y-80500D01*
Y-86500D01*
X39351Y-87287D01*
X39797Y-87953D01*
X40463Y-88399D01*
X41250Y-88555D01*
X48750D01*
X49051Y-88496D01*
X49677Y-89666D01*
X47899Y-91445D01*
X41250D01*
X40463Y-91601D01*
X39797Y-92046D01*
X39351Y-92713D01*
X39195Y-93500D01*
Y-99500D01*
X39320Y-100130D01*
X39213Y-100482D01*
X38568Y-101400D01*
X36089D01*
Y-48558D01*
X46058Y-38589D01*
X63329D01*
X63970Y-39830D01*
D02*
G37*
G36*
X151713Y-52018D02*
X151820Y-52370D01*
X151694Y-53000D01*
Y-59000D01*
X151851Y-59787D01*
X152296Y-60454D01*
X152963Y-60899D01*
X153750Y-61055D01*
X160399D01*
X162177Y-62834D01*
X161551Y-64005D01*
X161250Y-63945D01*
X153750D01*
X152963Y-64101D01*
X152296Y-64547D01*
X151851Y-65213D01*
X151694Y-66000D01*
Y-72000D01*
X151851Y-72787D01*
X152296Y-73453D01*
X152944Y-73886D01*
Y-89149D01*
X151940Y-90153D01*
X149862D01*
X149862Y-90153D01*
X149664Y-90193D01*
X143122D01*
Y-99378D01*
X144935D01*
Y-101000D01*
X144204D01*
X142734Y-101609D01*
X141609Y-102734D01*
X141472Y-103065D01*
X140718Y-103569D01*
X138436Y-105850D01*
X137880Y-106683D01*
X137685Y-107664D01*
Y-110047D01*
X137268Y-110130D01*
X137113Y-110234D01*
X134056D01*
Y-101556D01*
X136250D01*
X137037Y-101399D01*
X137704Y-100954D01*
X138149Y-100287D01*
X138306Y-99500D01*
Y-93500D01*
X138149Y-92713D01*
X137704Y-92047D01*
X137037Y-91601D01*
X136250Y-91445D01*
X128750D01*
X128448Y-91504D01*
X127823Y-90334D01*
X129601Y-88555D01*
X136250D01*
X137037Y-88399D01*
X137704Y-87954D01*
X138149Y-87287D01*
X138306Y-86500D01*
Y-80500D01*
X138149Y-79713D01*
X137704Y-79047D01*
X137037Y-78601D01*
X136250Y-78444D01*
X128750D01*
X127963Y-78601D01*
X127296Y-79047D01*
X126851Y-79713D01*
X126694Y-80500D01*
Y-85649D01*
X123911Y-88432D01*
X122925Y-87622D01*
X123149Y-87287D01*
X123306Y-86500D01*
Y-80500D01*
X123149Y-79713D01*
X122704Y-79047D01*
X122037Y-78601D01*
X121250Y-78444D01*
X114601D01*
X109704Y-73547D01*
X109037Y-73101D01*
X108250Y-72944D01*
X108250Y-72944D01*
X100851D01*
X99556Y-71649D01*
Y-69208D01*
X100826Y-68823D01*
X100866Y-68884D01*
X101616Y-69384D01*
X102500Y-69560D01*
X103384Y-69384D01*
X104134Y-68884D01*
X104635Y-68134D01*
X104810Y-67250D01*
Y-66305D01*
X108399D01*
X111046Y-68953D01*
X111047Y-68953D01*
X111713Y-69399D01*
X112500Y-69556D01*
X123122D01*
Y-71878D01*
X132307D01*
Y-63122D01*
X123122D01*
Y-65444D01*
X113351D01*
X110703Y-62797D01*
X110037Y-62351D01*
X109250Y-62194D01*
X109250Y-62194D01*
X104810D01*
Y-61250D01*
X104701Y-60698D01*
X104925Y-60340D01*
X105340Y-59925D01*
X105698Y-59701D01*
X106250Y-59810D01*
X112250D01*
X113134Y-59634D01*
X113252Y-59556D01*
X123250D01*
X123250Y-59556D01*
X124037Y-59399D01*
X124704Y-58953D01*
X127101Y-56556D01*
X133750D01*
X134122Y-56481D01*
X136284D01*
X136609Y-57266D01*
X137734Y-58391D01*
X139204Y-59000D01*
X140796D01*
X142266Y-58391D01*
X143391Y-57266D01*
X144000Y-55796D01*
Y-54204D01*
X143391Y-52734D01*
X143027Y-52370D01*
X143553Y-51100D01*
X151068D01*
X151713Y-52018D01*
D02*
G37*
G36*
X62500Y-122500D02*
X20000D01*
Y-102500D01*
X62500D01*
Y-122500D01*
D02*
G37*
%LPC*%
G36*
X-55622Y224807D02*
X-64378D01*
Y224555D01*
X-93750D01*
X-93750Y224555D01*
X-94537Y224399D01*
X-95203Y223953D01*
X-103994Y215163D01*
X-104204Y215250D01*
X-105796D01*
X-107266Y214641D01*
X-108391Y213516D01*
X-109000Y212046D01*
X-110193Y211878D01*
X-111077Y211878D01*
X-119378D01*
Y203122D01*
X-114434D01*
X-114264Y201959D01*
X-114108Y201172D01*
X-113662Y200505D01*
X-108555Y195399D01*
Y188750D01*
X-108399Y187963D01*
X-107954Y187297D01*
X-107287Y186851D01*
X-106500Y186695D01*
X-105555D01*
Y183305D01*
X-106500D01*
X-107287Y183149D01*
X-107954Y182703D01*
X-108399Y182037D01*
X-108555Y181250D01*
Y173750D01*
X-108404Y172988D01*
X-108399Y172963D01*
X-108399Y172963D01*
X-108106Y172509D01*
X-109015Y171600D01*
X-109463Y171899D01*
X-110250Y172055D01*
X-110250Y172055D01*
X-110680D01*
X-110950Y172321D01*
X-111529Y173326D01*
X-111445Y173750D01*
Y181250D01*
X-111601Y182037D01*
X-112047Y182703D01*
X-112713Y183149D01*
X-113500Y183305D01*
X-119500D01*
X-120287Y183149D01*
X-120954Y182703D01*
X-121399Y182037D01*
X-121556Y181250D01*
Y173750D01*
X-121471Y173326D01*
X-122050Y172321D01*
X-122320Y172055D01*
X-124899D01*
X-129194Y176351D01*
Y181500D01*
X-129351Y182287D01*
X-129796Y182953D01*
X-130463Y183399D01*
X-131250Y183556D01*
X-138750D01*
X-139537Y183399D01*
X-140204Y182953D01*
X-140649Y182287D01*
X-140806Y181500D01*
Y177258D01*
X-141096Y176987D01*
X-142076Y176532D01*
X-143204Y177000D01*
X-144796D01*
X-146266Y176391D01*
X-147391Y175266D01*
X-148000Y173796D01*
Y172204D01*
X-147391Y170734D01*
X-146565Y169909D01*
Y160663D01*
X-148847Y158381D01*
X-149855Y159141D01*
X-153420Y154410D01*
X-153563Y154295D01*
X-153596Y154236D01*
X-153646Y154192D01*
X-160190Y145555D01*
X-164188Y148568D01*
X-163686Y149630D01*
X-158462Y158028D01*
X-158413Y158158D01*
X-154875Y162853D01*
X-162211Y168381D01*
X-167481Y161387D01*
X-164032Y158788D01*
X-169810Y149499D01*
X-171768Y146862D01*
X-171821Y146750D01*
X-175291Y142145D01*
X-172759Y140238D01*
X-173184Y138968D01*
X-173295D01*
X-174765Y138359D01*
X-175970Y138951D01*
X-176094Y139251D01*
X-177219Y140376D01*
X-178689Y140985D01*
X-179345D01*
X-179914Y142218D01*
X-180353Y143377D01*
X-180299Y144217D01*
X-180149Y144370D01*
X-179222Y145108D01*
X-179222D01*
X-172114Y154541D01*
X-176171Y157598D01*
X-183279Y148165D01*
X-182889Y147872D01*
X-183779Y146537D01*
X-183856Y146351D01*
X-184298Y145690D01*
X-184687Y143733D01*
X-184298Y141776D01*
X-184195Y141622D01*
X-184178Y141630D01*
X-184168Y141626D01*
X-182969Y139027D01*
X-183485Y137780D01*
Y136189D01*
X-182876Y134719D01*
X-182147Y133990D01*
X-182266Y133391D01*
X-183391Y132266D01*
X-184000Y130796D01*
Y129204D01*
X-183391Y127734D01*
X-182266Y126609D01*
X-182025Y126412D01*
X-181779Y125854D01*
X-182333Y124841D01*
X-183641Y124585D01*
X-190504Y129756D01*
X-190384Y130414D01*
X-190044Y131000D01*
X-189204D01*
X-187734Y131609D01*
X-186609Y132734D01*
X-186000Y134204D01*
Y135796D01*
X-186609Y137266D01*
X-187734Y138391D01*
X-189204Y139000D01*
X-190796D01*
X-192266Y138391D01*
X-193391Y137266D01*
X-194000Y135796D01*
Y134204D01*
X-193866Y133880D01*
X-194743Y132951D01*
X-194743Y132951D01*
X-201851Y123518D01*
X-198214Y120778D01*
X-197890Y119305D01*
X-197992Y119204D01*
X-198438Y118537D01*
X-198594Y117750D01*
X-198594Y117750D01*
X-199864Y117167D01*
X-204093Y120354D01*
X-204816Y120702D01*
X-205616Y120748D01*
X-206374Y120483D01*
X-206972Y119949D01*
X-211485Y113959D01*
X-211834Y113237D01*
X-211879Y112436D01*
X-211615Y111679D01*
X-211081Y111081D01*
X-207860Y108654D01*
X-207789Y107251D01*
X-208281Y106759D01*
X-208726Y106092D01*
X-208883Y105305D01*
X-208883Y105305D01*
Y94187D01*
X-220736Y82333D01*
X-220736Y82333D01*
X-234469Y68600D01*
X-234915Y67933D01*
X-235072Y67146D01*
X-235072Y67146D01*
Y-25078D01*
X-235072Y-25078D01*
X-234915Y-25864D01*
X-234469Y-26531D01*
X-231481Y-29519D01*
X-231481Y-29519D01*
X-230814Y-29965D01*
X-230028Y-30122D01*
X-230028Y-30122D01*
X-225766D01*
Y-36466D01*
X-218830D01*
X-218145Y-36750D01*
X-216155D01*
X-215470Y-36466D01*
X-201534D01*
Y-28669D01*
X-200264Y-28143D01*
X-198466Y-29941D01*
Y-36466D01*
X-184530D01*
X-183845Y-36750D01*
X-181855D01*
X-181170Y-36466D01*
X-174234D01*
Y-27034D01*
X-181170D01*
X-181855Y-26750D01*
X-183845D01*
X-184530Y-27034D01*
X-185351D01*
X-185550Y-26995D01*
X-185550Y-26995D01*
X-195599D01*
X-198997Y-23596D01*
X-199663Y-23151D01*
X-200450Y-22994D01*
X-200450Y-22994D01*
X-227927D01*
X-227945Y-22977D01*
Y-11150D01*
X-218628D01*
X-218145Y-11350D01*
X-216155D01*
X-215672Y-11150D01*
X-184289D01*
X-183845Y-11334D01*
X-181855D01*
X-181411Y-11150D01*
X-168250D01*
X-167472Y-10828D01*
X-167341Y-10512D01*
X-166071Y-10764D01*
Y-128165D01*
X-186494Y-148587D01*
X-186704Y-148500D01*
X-188296D01*
X-189766Y-149109D01*
X-190891Y-150234D01*
X-191500Y-151704D01*
Y-153296D01*
X-190891Y-154766D01*
X-189766Y-155891D01*
X-188296Y-156500D01*
X-186704D01*
X-185234Y-155891D01*
X-184109Y-154766D01*
X-183500Y-153296D01*
Y-151704D01*
X-183587Y-151494D01*
X-164229Y-132136D01*
X-163055Y-132622D01*
Y-140149D01*
X-171494Y-148587D01*
X-171704Y-148500D01*
X-173296D01*
X-174766Y-149109D01*
X-175891Y-150234D01*
X-176500Y-151704D01*
Y-153296D01*
X-175891Y-154766D01*
X-174766Y-155891D01*
X-173296Y-156500D01*
X-171704D01*
X-170234Y-155891D01*
X-169109Y-154766D01*
X-168500Y-153296D01*
Y-151704D01*
X-168587Y-151494D01*
X-159547Y-142453D01*
X-159546Y-142453D01*
X-159101Y-141787D01*
X-158945Y-141000D01*
Y53992D01*
X-157675Y54518D01*
X-157266Y54109D01*
X-155796Y53500D01*
X-154204D01*
X-152734Y54109D01*
X-151609Y55234D01*
X-151000Y56704D01*
Y56944D01*
X-147000D01*
X-147000Y56944D01*
X-146801Y56984D01*
X-138984D01*
Y66016D01*
X-150016D01*
Y61055D01*
X-152688D01*
X-152688Y61055D01*
X-152987Y60996D01*
X-154204Y61500D01*
X-154532D01*
X-155058Y62770D01*
X-114899Y102928D01*
X-87516D01*
X-87516Y102928D01*
X-86729Y103085D01*
X-86062Y103531D01*
X-83547Y106046D01*
X-83546Y106046D01*
X-83101Y106713D01*
X-82944Y107500D01*
X-82944Y107500D01*
Y112500D01*
X-82944Y112500D01*
X-83101Y113287D01*
X-83546Y113954D01*
X-86087Y116494D01*
X-86000Y116704D01*
Y118296D01*
X-86609Y119766D01*
X-87734Y120891D01*
X-89204Y121500D01*
X-90796D01*
X-92266Y120891D01*
X-93391Y119766D01*
X-94000Y118296D01*
Y116704D01*
X-93391Y115234D01*
X-92730Y114573D01*
X-92407Y113750D01*
X-92730Y112927D01*
X-93391Y112266D01*
X-94000Y110796D01*
Y110056D01*
X-117000D01*
X-117787Y109899D01*
X-118454Y109453D01*
X-118454Y109453D01*
X-147822Y80085D01*
X-148964Y80739D01*
X-148714Y81706D01*
X-149064Y84195D01*
X-149473Y84889D01*
X-148645Y85986D01*
X-147865Y85785D01*
X-145377Y86135D01*
X-143212Y87410D01*
X-141700Y89417D01*
X-141071Y91849D01*
X-141421Y94337D01*
X-141830Y95031D01*
X-141002Y96129D01*
X-140223Y95928D01*
X-137734Y96277D01*
X-135569Y97553D01*
X-134057Y99559D01*
X-133428Y101992D01*
X-133778Y104480D01*
X-134186Y105174D01*
X-133359Y106272D01*
X-132579Y106070D01*
X-130091Y106420D01*
X-127926Y107695D01*
X-126414Y109702D01*
X-125785Y112135D01*
X-126135Y114623D01*
X-126543Y115317D01*
X-125716Y116415D01*
X-124936Y116213D01*
X-122448Y116563D01*
X-120283Y117838D01*
X-118771Y119845D01*
X-118142Y122277D01*
X-118491Y124765D01*
X-119767Y126930D01*
X-121774Y128442D01*
X-124206Y129072D01*
X-126358Y128769D01*
X-127076Y129688D01*
X-127138Y129845D01*
X-125869Y131529D01*
X-132785Y136740D01*
X-132382Y137944D01*
X-122500D01*
X-122500Y137944D01*
X-121713Y138101D01*
X-121046Y138546D01*
X-114149Y145444D01*
X-110851D01*
X-106454Y141046D01*
X-105787Y140601D01*
X-105000Y140444D01*
X-105000Y140444D01*
X-103478D01*
X-103391Y140234D01*
X-102266Y139109D01*
X-100796Y138500D01*
X-99204D01*
X-98326Y138864D01*
X-97056Y138128D01*
Y124351D01*
X-98994Y122413D01*
X-99204Y122500D01*
X-100796D01*
X-102266Y121891D01*
X-103391Y120766D01*
X-104000Y119296D01*
Y117704D01*
X-103391Y116234D01*
X-102266Y115109D01*
X-100796Y114500D01*
X-99204D01*
X-97734Y115109D01*
X-96609Y116234D01*
X-96000Y117704D01*
Y119296D01*
X-96087Y119506D01*
X-93547Y122046D01*
X-93546Y122047D01*
X-93101Y122713D01*
X-92944Y123500D01*
Y130628D01*
X-91674Y131364D01*
X-90796Y131000D01*
X-89204D01*
X-87734Y131609D01*
X-86973Y132371D01*
X-86027D01*
X-84056Y130399D01*
Y123750D01*
X-83899Y122963D01*
X-83454Y122296D01*
X-82787Y121851D01*
X-82000Y121694D01*
X-76000D01*
X-75213Y121851D01*
X-74547Y122296D01*
X-74101Y122963D01*
X-73945Y123750D01*
Y131250D01*
X-74101Y132037D01*
X-74547Y132704D01*
X-75213Y133149D01*
X-76000Y133306D01*
X-81149D01*
X-83723Y135879D01*
X-84389Y136325D01*
X-85176Y136482D01*
X-85176Y136482D01*
X-86284D01*
X-86609Y137266D01*
X-87270Y137927D01*
X-87593Y138750D01*
X-87270Y139573D01*
X-86609Y140234D01*
X-86522Y140444D01*
X-84056D01*
Y138750D01*
X-83899Y137963D01*
X-83454Y137296D01*
X-82787Y136851D01*
X-82000Y136694D01*
X-76000D01*
X-75213Y136851D01*
X-74547Y137296D01*
X-74101Y137963D01*
X-73945Y138750D01*
Y146250D01*
X-74101Y147037D01*
X-74547Y147704D01*
X-75213Y148149D01*
X-76000Y148306D01*
X-82000D01*
X-82762Y148154D01*
X-82787Y148149D01*
X-83160Y148370D01*
X-83774Y149017D01*
X-83759Y149084D01*
X-81149Y151694D01*
X-76000D01*
X-75213Y151851D01*
X-74547Y152296D01*
X-74101Y152963D01*
X-73945Y153750D01*
Y161250D01*
X-74096Y162012D01*
X-74101Y162037D01*
X-73880Y162409D01*
X-73233Y163024D01*
X-73166Y163009D01*
X-71055Y160899D01*
Y160500D01*
X-71056Y160500D01*
X-71055Y160500D01*
Y153750D01*
X-70899Y152963D01*
X-70454Y152296D01*
X-69787Y151851D01*
X-69000Y151694D01*
X-63000D01*
X-62213Y151851D01*
X-61547Y152296D01*
X-61101Y152963D01*
X-60944Y153750D01*
Y157128D01*
X-60172Y158023D01*
X-59385Y158179D01*
X-58718Y158625D01*
X-58683Y158660D01*
X-58296Y158500D01*
X-56704D01*
X-55234Y159109D01*
X-54109Y160234D01*
X-53500Y161704D01*
Y163296D01*
X-54109Y164766D01*
X-55234Y165891D01*
X-56704Y166500D01*
X-58296D01*
X-59766Y165891D01*
X-60891Y164766D01*
X-61207Y164004D01*
X-62059Y163280D01*
X-62770Y163260D01*
X-63000Y163305D01*
X-67649D01*
X-73945Y169601D01*
Y176250D01*
X-74029Y176674D01*
X-73450Y177679D01*
X-73180Y177945D01*
X-52851D01*
X-10056Y135149D01*
Y118000D01*
X-10796D01*
X-12266Y117391D01*
X-13391Y116266D01*
X-14000Y114796D01*
Y113204D01*
X-13391Y111734D01*
X-12266Y110609D01*
X-10796Y110000D01*
X-9204D01*
X-7734Y110609D01*
X-7390Y110954D01*
X-6119Y110428D01*
Y91072D01*
X-7390Y90546D01*
X-7734Y90891D01*
X-9204Y91500D01*
X-10796D01*
X-12266Y90891D01*
X-12927Y90230D01*
X-13750Y89907D01*
X-14573Y90230D01*
X-15234Y90891D01*
X-16704Y91500D01*
X-18296D01*
X-19766Y90891D01*
X-20891Y89766D01*
X-21500Y88296D01*
Y86704D01*
X-20891Y85234D01*
X-21030Y84778D01*
X-21508Y84056D01*
X-24492D01*
X-25018Y85325D01*
X-24824Y85520D01*
X-24214Y86990D01*
Y88581D01*
X-24824Y90051D01*
X-25585Y90813D01*
Y92544D01*
X-25445Y93250D01*
X-25601Y94037D01*
X-26047Y94704D01*
X-28444Y97101D01*
Y103750D01*
X-28601Y104537D01*
X-29047Y105204D01*
X-29713Y105649D01*
X-30500Y105806D01*
X-36500D01*
X-37287Y105649D01*
X-37954Y105204D01*
X-38399Y104537D01*
X-38556Y103750D01*
Y96250D01*
X-38399Y95463D01*
X-37954Y94796D01*
X-37287Y94351D01*
X-36500Y94194D01*
X-31351D01*
X-29832Y92675D01*
X-29976Y91385D01*
X-30480Y91177D01*
X-31606Y90051D01*
X-31847Y90003D01*
X-32734Y90891D01*
X-34204Y91500D01*
X-35796D01*
X-37266Y90891D01*
X-37927Y90230D01*
X-38750Y89907D01*
X-39573Y90230D01*
X-40234Y90891D01*
X-41704Y91500D01*
X-43296D01*
X-44766Y90891D01*
X-45427Y90230D01*
X-46250Y89907D01*
X-47073Y90230D01*
X-47734Y90891D01*
X-49204Y91500D01*
X-50796D01*
X-52266Y90891D01*
X-53391Y89766D01*
X-54000Y88296D01*
Y86704D01*
X-53391Y85234D01*
X-54008Y84056D01*
X-58750D01*
X-59537Y83899D01*
X-60203Y83454D01*
X-60649Y82787D01*
X-60806Y82000D01*
Y76480D01*
X-62042Y75920D01*
X-64194Y78072D01*
Y82000D01*
X-64351Y82787D01*
X-64797Y83454D01*
X-65463Y83899D01*
X-66250Y84056D01*
X-67435D01*
Y86937D01*
X-58122Y96250D01*
X-56954D01*
X-55484Y96859D01*
X-54359Y97984D01*
X-54272Y98195D01*
X-51556D01*
Y96250D01*
X-51399Y95463D01*
X-50953Y94796D01*
X-50287Y94351D01*
X-49500Y94194D01*
X-43500D01*
X-42713Y94351D01*
X-42047Y94796D01*
X-41601Y95463D01*
X-41445Y96250D01*
Y103750D01*
X-41601Y104537D01*
X-42047Y105204D01*
X-42713Y105649D01*
X-43500Y105806D01*
X-49500D01*
X-50287Y105649D01*
X-50953Y105204D01*
X-51399Y104537D01*
X-51556Y103750D01*
Y102305D01*
X-54272D01*
X-54359Y102516D01*
X-55484Y103641D01*
X-56954Y104250D01*
X-57643D01*
X-58022Y104730D01*
X-57407Y106000D01*
X-56704D01*
X-55234Y106609D01*
X-54408Y107435D01*
X-49786D01*
X-48804Y107630D01*
X-47972Y108186D01*
X-45536Y110622D01*
X-40193D01*
Y119378D01*
X-42220D01*
Y125622D01*
X-40193D01*
Y134378D01*
X-49378D01*
Y125622D01*
X-47351D01*
Y119378D01*
X-49378D01*
Y114035D01*
X-50848Y112565D01*
X-54408D01*
X-55234Y113391D01*
X-56704Y114000D01*
X-58296D01*
X-59766Y113391D01*
X-60891Y112266D01*
X-61500Y110796D01*
Y109595D01*
X-62594Y108999D01*
X-63435Y109694D01*
Y121694D01*
X-63000D01*
X-62213Y121851D01*
X-61547Y122296D01*
X-61101Y122963D01*
X-60944Y123750D01*
Y131250D01*
X-61101Y132037D01*
X-61547Y132704D01*
X-62213Y133149D01*
X-63000Y133306D01*
X-63435D01*
Y136694D01*
X-63000D01*
X-62213Y136851D01*
X-61547Y137296D01*
X-61101Y137963D01*
X-60944Y138750D01*
Y146250D01*
X-61101Y147037D01*
X-61547Y147704D01*
X-62213Y148149D01*
X-63000Y148306D01*
X-69000D01*
X-69787Y148149D01*
X-70454Y147704D01*
X-70899Y147037D01*
X-71055Y146250D01*
Y138750D01*
X-70899Y137963D01*
X-70454Y137296D01*
X-69787Y136851D01*
X-69000Y136694D01*
X-68565D01*
Y133306D01*
X-69000D01*
X-69787Y133149D01*
X-70454Y132704D01*
X-70899Y132037D01*
X-71055Y131250D01*
Y123750D01*
X-70899Y122963D01*
X-70454Y122296D01*
X-69787Y121851D01*
X-69000Y121694D01*
X-68565D01*
Y108500D01*
X-68370Y107518D01*
X-67814Y106686D01*
X-66776Y105648D01*
X-67302Y104378D01*
X-74807D01*
Y95622D01*
X-67666D01*
X-67180Y94448D01*
X-71814Y89814D01*
X-72370Y88982D01*
X-72565Y88000D01*
Y84056D01*
X-73750D01*
X-74537Y83899D01*
X-75203Y83454D01*
X-75649Y82787D01*
X-75806Y82000D01*
Y81565D01*
X-79194D01*
Y82000D01*
X-79351Y82787D01*
X-79797Y83454D01*
X-80463Y83899D01*
X-81250Y84056D01*
X-85685D01*
Y87250D01*
X-85880Y88232D01*
X-86436Y89064D01*
X-90186Y92814D01*
X-91018Y93370D01*
X-92000Y93565D01*
X-100000D01*
X-100982Y93370D01*
X-101814Y92814D01*
X-106064Y88564D01*
X-106620Y87732D01*
X-106815Y86750D01*
Y84056D01*
X-111250D01*
X-112037Y83899D01*
X-112704Y83454D01*
X-113149Y82787D01*
X-113306Y82000D01*
Y81565D01*
X-118173D01*
X-119155Y81370D01*
X-119987Y80814D01*
X-121621Y79180D01*
X-121704Y79214D01*
X-123296D01*
X-124766Y78605D01*
X-125891Y77480D01*
X-126500Y76010D01*
Y74419D01*
X-125891Y72949D01*
X-124766Y71823D01*
X-123296Y71214D01*
X-121704D01*
X-120234Y71823D01*
X-119109Y72949D01*
X-118500Y74419D01*
Y75045D01*
X-117111Y76435D01*
X-113306D01*
Y76000D01*
X-113149Y75213D01*
X-112704Y74547D01*
X-112037Y74101D01*
X-111250Y73945D01*
X-103750D01*
X-102963Y74101D01*
X-102296Y74547D01*
X-101851Y75213D01*
X-101694Y76000D01*
Y81451D01*
X-101685Y81500D01*
Y85687D01*
X-99485Y87887D01*
X-98530Y87127D01*
X-99139Y85657D01*
Y84065D01*
X-98530Y82595D01*
X-97405Y81470D01*
X-97195Y81383D01*
Y75389D01*
X-97195Y75389D01*
X-97038Y74602D01*
X-96593Y73936D01*
X-92024Y69367D01*
X-92734Y68391D01*
X-94204Y69000D01*
X-95796D01*
X-97266Y68391D01*
X-97601Y68056D01*
X-101694D01*
Y69000D01*
X-101851Y69787D01*
X-102296Y70454D01*
X-102963Y70899D01*
X-103750Y71055D01*
X-111250D01*
X-112037Y70899D01*
X-112704Y70454D01*
X-113149Y69787D01*
X-113306Y69000D01*
Y68258D01*
X-114576Y67732D01*
X-115234Y68391D01*
X-116704Y69000D01*
X-118296D01*
X-119766Y68391D01*
X-120891Y67266D01*
X-121500Y65796D01*
Y64204D01*
X-120891Y62734D01*
X-120642Y62485D01*
X-123612Y59516D01*
X-131016D01*
Y50484D01*
X-119984D01*
Y55888D01*
X-115686Y60186D01*
X-115130Y61018D01*
X-114957Y61886D01*
X-114475Y62368D01*
X-113698Y62278D01*
X-113124Y62134D01*
X-113077Y62106D01*
X-112704Y61547D01*
X-112037Y61101D01*
X-111250Y60944D01*
X-103750D01*
X-102963Y61101D01*
X-102296Y61547D01*
X-101851Y62213D01*
X-101694Y63000D01*
Y63945D01*
X-98892D01*
X-98391Y62734D01*
X-97266Y61609D01*
X-95796Y61000D01*
X-94204D01*
X-92734Y61609D01*
X-91975Y62368D01*
X-91198Y62278D01*
X-90624Y62134D01*
X-90577Y62106D01*
X-90204Y61547D01*
X-89537Y61101D01*
X-88750Y60944D01*
X-81250D01*
X-80463Y61101D01*
X-79797Y61547D01*
X-79351Y62213D01*
X-79194Y63000D01*
Y69000D01*
X-79351Y69787D01*
X-79797Y70454D01*
X-80463Y70899D01*
X-81250Y71055D01*
X-87899D01*
X-89677Y72834D01*
X-89052Y74005D01*
X-88750Y73945D01*
X-81250D01*
X-80463Y74101D01*
X-79797Y74547D01*
X-79351Y75213D01*
X-79194Y76000D01*
Y76435D01*
X-75806D01*
Y76000D01*
X-75649Y75213D01*
X-75203Y74547D01*
X-74537Y74101D01*
X-73750Y73945D01*
X-67549D01*
X-67500Y73935D01*
X-67313D01*
X-65599Y72221D01*
X-66224Y71050D01*
X-66250Y71055D01*
X-73750D01*
X-74537Y70899D01*
X-75203Y70454D01*
X-75649Y69787D01*
X-75806Y69000D01*
Y63000D01*
X-75649Y62213D01*
X-75203Y61547D01*
X-74537Y61101D01*
X-73750Y60944D01*
X-67101D01*
X-62203Y56047D01*
X-61537Y55601D01*
X-60750Y55444D01*
X-60750Y55444D01*
X-58478D01*
X-58391Y55234D01*
X-57266Y54109D01*
X-55796Y53500D01*
X-54204D01*
X-52734Y54109D01*
X-51609Y55234D01*
X-51000Y56704D01*
Y58296D01*
X-51609Y59766D01*
X-51482Y60181D01*
X-51034Y60987D01*
X-50463Y61101D01*
X-49797Y61547D01*
X-49351Y62213D01*
X-49194Y63000D01*
Y63435D01*
X-45806D01*
Y63000D01*
X-45649Y62213D01*
X-45203Y61547D01*
X-44537Y61101D01*
X-43750Y60944D01*
X-36250D01*
X-35463Y61101D01*
X-34797Y61547D01*
X-34351Y62213D01*
X-34195Y63000D01*
Y63435D01*
X-30805D01*
Y63000D01*
X-30649Y62213D01*
X-30203Y61547D01*
X-29537Y61101D01*
X-28750Y60944D01*
X-26492D01*
X-25891Y59750D01*
X-26500Y58280D01*
Y56688D01*
X-25891Y55218D01*
X-25241Y54569D01*
X-24908Y53742D01*
X-25241Y52915D01*
X-25891Y52266D01*
X-26500Y50796D01*
Y49204D01*
X-25891Y47734D01*
X-24766Y46609D01*
X-23296Y46000D01*
X-21704D01*
X-20234Y46609D01*
X-19109Y47734D01*
X-18500Y49204D01*
Y50796D01*
X-19109Y52266D01*
X-19758Y52915D01*
X-20092Y53742D01*
X-19758Y54569D01*
X-19109Y55218D01*
X-18500Y56688D01*
Y58280D01*
X-19109Y59750D01*
X-19546Y60187D01*
X-19796Y61542D01*
X-19576Y61876D01*
X-19351Y62213D01*
X-19195Y63000D01*
Y69000D01*
X-19351Y69787D01*
X-19797Y70454D01*
X-20463Y70899D01*
X-21250Y71055D01*
X-28750D01*
X-29537Y70899D01*
X-30203Y70454D01*
X-30649Y69787D01*
X-30805Y69000D01*
Y68565D01*
X-34195D01*
Y69000D01*
X-34351Y69787D01*
X-34797Y70454D01*
X-35463Y70899D01*
X-36250Y71055D01*
X-43750D01*
X-44537Y70899D01*
X-45203Y70454D01*
X-45649Y69787D01*
X-45806Y69000D01*
Y68565D01*
X-49194D01*
Y69000D01*
X-49351Y69787D01*
X-49797Y70454D01*
X-50463Y70899D01*
X-51250Y71055D01*
X-57178D01*
X-58829Y72707D01*
X-58271Y73945D01*
X-51250D01*
X-50463Y74101D01*
X-49797Y74546D01*
X-49351Y75213D01*
X-49194Y76000D01*
Y81149D01*
X-48547Y81797D01*
X-48547Y81797D01*
X-48101Y82463D01*
X-47944Y83250D01*
Y84022D01*
X-47734Y84109D01*
X-47073Y84770D01*
X-46623Y84947D01*
X-45745Y84503D01*
X-45413Y83140D01*
X-45649Y82787D01*
X-45806Y82000D01*
Y76000D01*
X-45649Y75213D01*
X-45203Y74546D01*
X-44537Y74101D01*
X-43750Y73945D01*
X-36250D01*
X-35463Y74101D01*
X-34797Y74546D01*
X-34351Y75213D01*
X-34195Y76000D01*
Y81992D01*
X-34176Y82010D01*
X-33022Y82615D01*
X-30954Y80547D01*
X-30954Y80547D01*
X-30805Y80448D01*
Y76000D01*
X-30649Y75213D01*
X-30203Y74546D01*
X-29537Y74101D01*
X-28750Y73945D01*
X-21250D01*
X-20463Y74101D01*
X-19797Y74546D01*
X-19351Y75213D01*
X-19195Y76000D01*
Y82000D01*
X-19302Y82542D01*
X-18789Y83170D01*
X-18302Y83503D01*
X-18296Y83500D01*
X-16704D01*
X-16494Y83587D01*
X-15072Y82165D01*
Y47101D01*
X-39469Y22703D01*
X-39915Y22036D01*
X-40072Y21249D01*
X-40072Y21249D01*
Y7835D01*
X-45851Y2056D01*
X-112350D01*
X-113137Y1899D01*
X-114047Y2704D01*
X-114085Y2793D01*
X-113500Y4204D01*
Y5796D01*
X-114109Y7266D01*
X-115234Y8391D01*
X-116704Y9000D01*
X-118296D01*
X-119766Y8391D01*
X-120891Y7266D01*
X-120978Y7056D01*
X-125149D01*
X-125796Y7703D01*
X-125944Y7802D01*
Y13750D01*
X-126101Y14537D01*
X-126547Y15203D01*
X-127213Y15649D01*
X-128000Y15805D01*
X-128945D01*
Y29195D01*
X-128000D01*
X-127213Y29351D01*
X-126547Y29797D01*
X-126101Y30463D01*
X-125944Y31250D01*
Y38750D01*
X-126101Y39537D01*
X-126547Y40203D01*
X-127213Y40649D01*
X-128000Y40806D01*
X-134000D01*
X-134787Y40649D01*
X-135454Y40203D01*
X-135899Y39537D01*
X-136055Y38750D01*
Y31250D01*
X-135899Y30463D01*
X-135454Y29797D01*
X-134787Y29351D01*
X-134000Y29195D01*
X-133055D01*
Y15805D01*
X-134000D01*
X-134787Y15649D01*
X-135454Y15203D01*
X-135899Y14537D01*
X-136055Y13750D01*
Y6250D01*
X-135899Y5463D01*
X-135454Y4796D01*
X-134787Y4351D01*
X-134000Y4195D01*
X-128101D01*
X-127453Y3547D01*
X-127453Y3546D01*
X-126787Y3101D01*
X-126000Y2945D01*
X-126000Y2945D01*
X-120978D01*
X-120891Y2734D01*
X-119766Y1609D01*
X-118296Y1000D01*
X-116704D01*
X-115592Y1461D01*
X-114873Y384D01*
X-127094Y-11837D01*
X-127304Y-11750D01*
X-128896D01*
X-130366Y-12359D01*
X-131491Y-13484D01*
X-131785Y-14195D01*
X-134000D01*
X-134787Y-14351D01*
X-135454Y-14797D01*
X-135899Y-15463D01*
X-136055Y-16250D01*
Y-23750D01*
X-137133Y-24711D01*
X-138945Y-22899D01*
Y-16250D01*
X-139101Y-15463D01*
X-139547Y-14797D01*
X-140213Y-14351D01*
X-141000Y-14195D01*
X-147000D01*
X-147961Y-13091D01*
Y-12617D01*
X-146149Y-10805D01*
X-141000D01*
X-140213Y-10649D01*
X-139546Y-10203D01*
X-139101Y-9537D01*
X-138945Y-8750D01*
Y-6392D01*
X-137734Y-5891D01*
X-136609Y-4766D01*
X-136000Y-3296D01*
Y-1704D01*
X-136609Y-234D01*
X-137734Y891D01*
X-139204Y1500D01*
X-140796D01*
X-140889Y1461D01*
X-141945Y2167D01*
Y4195D01*
X-141000D01*
X-140213Y4351D01*
X-139547Y4796D01*
X-139101Y5463D01*
X-138945Y6250D01*
Y13750D01*
X-139101Y14537D01*
X-139547Y15203D01*
X-140213Y15649D01*
X-141000Y15805D01*
X-147000D01*
X-147787Y15649D01*
X-148454Y15203D01*
X-148899Y14537D01*
X-149056Y13750D01*
Y6250D01*
X-148899Y5463D01*
X-148454Y4796D01*
X-147787Y4351D01*
X-147000Y4195D01*
X-146055D01*
Y806D01*
X-147000D01*
X-147787Y649D01*
X-148453Y203D01*
X-148899Y-463D01*
X-149056Y-1250D01*
Y-7898D01*
X-151469Y-10313D01*
X-151915Y-10979D01*
X-152072Y-11766D01*
X-152072Y-11766D01*
Y-29484D01*
X-152072Y-29484D01*
X-151915Y-30271D01*
X-151469Y-30938D01*
X-147516Y-34891D01*
Y-38016D01*
X-140684D01*
Y-31984D01*
X-144609D01*
X-147961Y-28633D01*
Y-26909D01*
X-147000Y-25805D01*
X-141851D01*
X-139438Y-28219D01*
X-138771Y-28665D01*
X-137984Y-28821D01*
X-137984Y-28821D01*
X-100875D01*
X-100875Y-28821D01*
X-100088Y-28665D01*
X-99422Y-28219D01*
X-95758Y-24555D01*
X-61556D01*
Y-26250D01*
X-61399Y-27037D01*
X-60953Y-27703D01*
X-60287Y-28149D01*
X-59500Y-28305D01*
X-53500D01*
X-52713Y-28149D01*
X-52047Y-27703D01*
X-51601Y-27037D01*
X-51445Y-26250D01*
Y-19602D01*
X-49666Y-17823D01*
X-48495Y-18448D01*
X-48555Y-18750D01*
Y-26250D01*
X-48399Y-27037D01*
X-47954Y-27703D01*
X-47287Y-28149D01*
X-46500Y-28305D01*
X-40500D01*
X-39713Y-28149D01*
X-39047Y-27703D01*
X-38601Y-27037D01*
X-38444Y-26250D01*
Y-21806D01*
X-33582D01*
X-33391Y-22266D01*
X-32266Y-23391D01*
X-30796Y-24000D01*
X-29204D01*
X-27734Y-23391D01*
X-26609Y-22266D01*
X-26418Y-21806D01*
X-15210D01*
X-15106Y-22329D01*
X-14494Y-23244D01*
X-13579Y-23856D01*
X-12500Y-24070D01*
X-11421Y-23856D01*
X-10506Y-23244D01*
X-9894Y-22329D01*
X-9680Y-21250D01*
Y-18250D01*
X-9894Y-17171D01*
X-10506Y-16256D01*
X-11421Y-15645D01*
X-12500Y-15430D01*
X-13579Y-15645D01*
X-14494Y-16256D01*
X-15106Y-17171D01*
X-15210Y-17694D01*
X-26649D01*
X-27734Y-16609D01*
X-29204Y-16000D01*
X-30796D01*
X-32266Y-16609D01*
X-33351Y-17694D01*
X-38781D01*
X-39047Y-17297D01*
X-39713Y-16851D01*
X-40500Y-16695D01*
X-46500D01*
X-46802Y-16754D01*
X-47427Y-15584D01*
X-45870Y-14026D01*
X-45424Y-13360D01*
X-45268Y-12573D01*
Y-11878D01*
X-40622D01*
Y-10065D01*
X-35591D01*
X-34766Y-10891D01*
X-33296Y-11500D01*
X-31704D01*
X-30234Y-10891D01*
X-29409Y-10065D01*
X-24477D01*
X-23798Y-11335D01*
X-23856Y-11421D01*
X-24070Y-12500D01*
X-23856Y-13579D01*
X-23244Y-14494D01*
X-22329Y-15106D01*
X-21250Y-15320D01*
X-18250D01*
X-17171Y-15106D01*
X-16256Y-14494D01*
X-15645Y-13579D01*
X-15430Y-12500D01*
X-15645Y-11421D01*
X-16018Y-10862D01*
X-16168Y-10000D01*
X-16018Y-9138D01*
X-15645Y-8579D01*
X-15430Y-7500D01*
X-15645Y-6421D01*
X-16018Y-5862D01*
X-16168Y-5000D01*
X-16018Y-4138D01*
X-15645Y-3579D01*
X-15430Y-2500D01*
X-15645Y-1421D01*
X-16256Y-506D01*
X-17171Y105D01*
X-18250Y320D01*
X-21250D01*
X-22329Y105D01*
X-23244Y-506D01*
X-23856Y-1421D01*
X-24070Y-2500D01*
X-23856Y-3579D01*
X-23798Y-3665D01*
X-24477Y-4935D01*
X-29409D01*
X-30234Y-4109D01*
X-31704Y-3500D01*
X-33296D01*
X-34766Y-4109D01*
X-35591Y-4935D01*
X-40622D01*
Y-3122D01*
X-43565D01*
X-44157Y-1945D01*
X-44142Y-1852D01*
X-43547Y-1453D01*
X-36562Y5530D01*
X-36117Y6197D01*
X-35961Y6984D01*
Y8894D01*
X-34787Y9380D01*
X-31453Y6047D01*
X-31453Y6047D01*
X-30787Y5601D01*
X-30000Y5444D01*
X-23152D01*
X-22329Y4895D01*
X-21250Y4680D01*
X-18250D01*
X-17171Y4895D01*
X-16256Y5506D01*
X-15645Y6421D01*
X-15430Y7500D01*
X-15645Y8579D01*
X-16018Y9138D01*
X-16168Y10000D01*
X-16018Y10862D01*
X-15645Y11421D01*
X-15430Y12500D01*
X-15645Y13579D01*
X-16256Y14494D01*
X-17171Y15106D01*
X-18250Y15320D01*
X-21250D01*
X-22329Y15106D01*
X-23152Y14555D01*
X-25837D01*
X-26000Y14719D01*
Y15796D01*
X-26609Y17266D01*
X-27734Y18391D01*
X-29204Y19000D01*
X-30796D01*
X-31652Y18645D01*
X-32371Y19722D01*
X-15826Y36268D01*
X-14555Y35742D01*
Y23152D01*
X-15106Y22329D01*
X-15320Y21250D01*
Y18250D01*
X-15106Y17171D01*
X-14494Y16256D01*
X-13579Y15645D01*
X-12500Y15430D01*
X-11421Y15645D01*
X-10506Y16256D01*
X-9894Y17171D01*
X-9680Y18250D01*
Y21250D01*
X-9894Y22329D01*
X-10445Y23152D01*
Y36649D01*
X-253Y46840D01*
X1063Y46360D01*
X1529Y45234D01*
X2239Y44524D01*
X2564Y43825D01*
X2269Y42894D01*
X1641Y42266D01*
X1032Y40796D01*
Y39204D01*
X1641Y37734D01*
X2766Y36609D01*
X4236Y36000D01*
X5828D01*
X7298Y36609D01*
X8423Y37734D01*
X9032Y39204D01*
Y40796D01*
X8935Y41029D01*
X17486Y49578D01*
X17931Y50245D01*
X18088Y51032D01*
X18088Y51032D01*
Y67968D01*
X17931Y68755D01*
X17486Y69422D01*
X7039Y79868D01*
Y80591D01*
X8000Y81694D01*
X14000D01*
X14787Y81851D01*
X15453Y82296D01*
X15899Y82963D01*
X16056Y83750D01*
Y91250D01*
X15899Y92037D01*
X15509Y92620D01*
X15533Y92711D01*
X16656Y93520D01*
X16704Y93500D01*
X18296D01*
X18344Y93520D01*
X19467Y92711D01*
X19491Y92621D01*
X19101Y92037D01*
X18944Y91250D01*
Y83750D01*
X19101Y82963D01*
X19547Y82296D01*
X20213Y81851D01*
X21000Y81694D01*
X27000D01*
X27787Y81851D01*
X28454Y82296D01*
X28899Y82963D01*
X29056Y83750D01*
Y89698D01*
X29204Y89796D01*
X32351Y92944D01*
X32500D01*
X32875Y93019D01*
X33250Y92944D01*
X42201D01*
X42693Y91878D01*
Y83122D01*
X51878D01*
Y86797D01*
X53821D01*
X54803Y86992D01*
X55635Y87548D01*
X56621Y88534D01*
X56704Y88500D01*
X58296D01*
X59766Y89109D01*
X60891Y90234D01*
X61500Y91704D01*
Y93296D01*
X60891Y94766D01*
X59766Y95891D01*
X58296Y96500D01*
X56704D01*
X56448Y96394D01*
X56388Y96454D01*
X55721Y96899D01*
X54935Y97056D01*
X54935Y97056D01*
X52371D01*
X51878Y98122D01*
X51878Y98326D01*
Y106878D01*
X49851D01*
Y113122D01*
X51878D01*
Y114031D01*
X53572D01*
X54109Y112734D01*
X55234Y111609D01*
X56704Y111000D01*
X58296D01*
X59766Y111609D01*
X60891Y112734D01*
X61500Y114204D01*
Y115796D01*
X60891Y117266D01*
X60230Y117927D01*
X59907Y118750D01*
X60230Y119573D01*
X60891Y120234D01*
X61500Y121704D01*
Y123296D01*
X60891Y124766D01*
X59766Y125891D01*
X60054Y127147D01*
X62351Y129445D01*
X64194D01*
Y128500D01*
X64351Y127713D01*
X64797Y127047D01*
X65463Y126601D01*
X66250Y126445D01*
X73750D01*
X74537Y126601D01*
X75203Y127047D01*
X75649Y127713D01*
X75806Y128500D01*
Y134500D01*
X75649Y135287D01*
X75203Y135954D01*
X74537Y136399D01*
X73750Y136556D01*
X66250D01*
X65463Y136399D01*
X64797Y135954D01*
X64351Y135287D01*
X64194Y134500D01*
Y133555D01*
X61500D01*
X61500Y133555D01*
X60713Y133399D01*
X60047Y132954D01*
X60047Y132953D01*
X56047Y128954D01*
X55601Y128287D01*
X55444Y127500D01*
X55444Y127500D01*
Y125978D01*
X55234Y125891D01*
X54109Y124766D01*
X53500Y123296D01*
Y121704D01*
X54027Y120432D01*
X53522Y119162D01*
X51878D01*
Y121878D01*
X42693D01*
Y113122D01*
X44720D01*
Y106878D01*
X42693D01*
Y98326D01*
X42693Y98122D01*
X42201Y97056D01*
X33250D01*
X32875Y96981D01*
X32500Y97056D01*
X32351D01*
X28634Y100773D01*
Y102567D01*
X28899Y102963D01*
X29056Y103750D01*
Y111250D01*
X28899Y112037D01*
X28454Y112704D01*
X27787Y113149D01*
X27000Y113306D01*
X21000D01*
X20213Y113149D01*
X19547Y112704D01*
X19101Y112037D01*
X18944Y111250D01*
Y103750D01*
X19004Y103448D01*
X17834Y102823D01*
X16056Y104601D01*
Y111250D01*
X15899Y112037D01*
X15453Y112704D01*
X14787Y113149D01*
X14000Y113306D01*
X8000D01*
X7039Y114409D01*
Y117435D01*
X7056Y117515D01*
Y171413D01*
X8325Y172235D01*
X8435Y172186D01*
Y172000D01*
X8630Y171018D01*
X9186Y170186D01*
X9935Y169437D01*
Y168092D01*
X9109Y167266D01*
X8500Y165796D01*
Y164204D01*
X9109Y162734D01*
X10234Y161609D01*
X11704Y161000D01*
X13296D01*
X14766Y161609D01*
X15891Y162734D01*
X16500Y164204D01*
Y165796D01*
X15891Y167266D01*
X15065Y168092D01*
Y170500D01*
X14870Y171482D01*
X14314Y172314D01*
X14297Y172330D01*
X14016Y173484D01*
X14016D01*
Y180516D01*
X8325D01*
X7984Y180516D01*
X7614Y180845D01*
X7575Y182402D01*
X23117Y197945D01*
X23828D01*
X23828Y197945D01*
X24614Y198101D01*
X25281Y198547D01*
X27219Y200484D01*
X28296D01*
X29766Y201093D01*
X30891Y202218D01*
X31500Y203688D01*
Y205280D01*
X30891Y206750D01*
X29766Y207875D01*
X28296Y208484D01*
X26704D01*
X25234Y207875D01*
X24725Y207365D01*
X23445Y207270D01*
X23178Y207479D01*
X22266Y208391D01*
X20796Y209000D01*
X19204D01*
X17734Y208391D01*
X17073Y207730D01*
X16250Y207407D01*
X15427Y207730D01*
X14766Y208391D01*
X13296Y209000D01*
X11704D01*
X11494Y208913D01*
X8953Y211453D01*
X8287Y211899D01*
X7500Y212055D01*
X7500Y212055D01*
X2929D01*
X2142Y211899D01*
X1476Y211453D01*
X1476Y211453D01*
X-5418Y204560D01*
X-5864Y203893D01*
X-6020Y203106D01*
X-6020Y203106D01*
Y199794D01*
X-6119Y199294D01*
X-6119Y199294D01*
Y138822D01*
X-7390Y138296D01*
X-50546Y181453D01*
X-51213Y181899D01*
X-52000Y182055D01*
X-52000Y182055D01*
X-98614D01*
X-99047Y182703D01*
X-99713Y183149D01*
X-100500Y183305D01*
X-101445D01*
Y186695D01*
X-100500D01*
X-99713Y186851D01*
X-99046Y187297D01*
X-98601Y187963D01*
X-98444Y188750D01*
Y196250D01*
X-98601Y197037D01*
X-99046Y197703D01*
X-99713Y198149D01*
X-100500Y198305D01*
X-105649D01*
X-109195Y201852D01*
X-108669Y203122D01*
X-100622D01*
Y211878D01*
X-100622D01*
X-100320Y213023D01*
X-92899Y220445D01*
X-64378D01*
Y215622D01*
X-62565D01*
Y208041D01*
X-62370Y207059D01*
X-61814Y206227D01*
X-61466Y205879D01*
X-61500Y205796D01*
Y204204D01*
X-60891Y202734D01*
X-59766Y201609D01*
X-58296Y201000D01*
X-56704D01*
X-55234Y201609D01*
X-54109Y202734D01*
X-53500Y204204D01*
Y205796D01*
X-54109Y207266D01*
X-55234Y208391D01*
X-56704Y209000D01*
X-57331D01*
X-57435Y209104D01*
Y215622D01*
X-55622D01*
Y224807D01*
D02*
G37*
G36*
X-89204Y219000D02*
X-90796D01*
X-92266Y218391D01*
X-93391Y217266D01*
X-94000Y215796D01*
Y214204D01*
X-93391Y212734D01*
X-92730Y212073D01*
X-92407Y211250D01*
X-92730Y210427D01*
X-93391Y209766D01*
X-94000Y208296D01*
Y206704D01*
X-93391Y205234D01*
X-92730Y204573D01*
X-92407Y203750D01*
X-92730Y202927D01*
X-93391Y202266D01*
X-94000Y200796D01*
Y199204D01*
X-93391Y197734D01*
X-92730Y197073D01*
X-92407Y196250D01*
X-92730Y195427D01*
X-93391Y194766D01*
X-94000Y193296D01*
Y191704D01*
X-93391Y190234D01*
X-92266Y189109D01*
X-90796Y188500D01*
X-89204D01*
X-87734Y189109D01*
X-86609Y190234D01*
X-86000Y191704D01*
Y193296D01*
X-86609Y194766D01*
X-87270Y195427D01*
X-87593Y196250D01*
X-87270Y197073D01*
X-86609Y197734D01*
X-86000Y199204D01*
Y200796D01*
X-86609Y202266D01*
X-87270Y202927D01*
X-87593Y203750D01*
X-87270Y204573D01*
X-86609Y205234D01*
X-86000Y206704D01*
Y208296D01*
X-86609Y209766D01*
X-87270Y210427D01*
X-87593Y211250D01*
X-87270Y212073D01*
X-86609Y212734D01*
X-86000Y214204D01*
Y215796D01*
X-86609Y217266D01*
X-87734Y218391D01*
X-89204Y219000D01*
D02*
G37*
G36*
X-131250Y196556D02*
X-138750D01*
X-139537Y196399D01*
X-140204Y195954D01*
X-140649Y195287D01*
X-140806Y194500D01*
Y188500D01*
X-140649Y187713D01*
X-140204Y187047D01*
X-139537Y186601D01*
X-138750Y186444D01*
X-131250D01*
X-130463Y186601D01*
X-129796Y187047D01*
X-129351Y187713D01*
X-129194Y188500D01*
Y194500D01*
X-129351Y195287D01*
X-129796Y195954D01*
X-130463Y196399D01*
X-131250Y196556D01*
D02*
G37*
G36*
X26796Y127000D02*
X25204D01*
X23734Y126391D01*
X22609Y125266D01*
X22000Y123796D01*
Y122204D01*
X22609Y120734D01*
X23734Y119609D01*
X25204Y119000D01*
X26796D01*
X28266Y119609D01*
X29391Y120734D01*
X30000Y122204D01*
Y123796D01*
X29391Y125266D01*
X28266Y126391D01*
X26796Y127000D01*
D02*
G37*
G36*
X73750Y123555D02*
X66250D01*
X65463Y123399D01*
X64797Y122954D01*
X64351Y122287D01*
X64194Y121500D01*
Y115500D01*
X64351Y114713D01*
X64797Y114047D01*
X65463Y113601D01*
X66250Y113444D01*
X73750D01*
X74537Y113601D01*
X75203Y114047D01*
X75649Y114713D01*
X75806Y115500D01*
Y116445D01*
X79194D01*
Y115500D01*
X79351Y114713D01*
X79797Y114046D01*
X80463Y113601D01*
X81250Y113444D01*
X88750D01*
X89537Y113601D01*
X90204Y114046D01*
X90649Y114713D01*
X90806Y115500D01*
Y116445D01*
X94984D01*
Y113984D01*
X106016D01*
Y123016D01*
X94984D01*
Y120555D01*
X90806D01*
Y121500D01*
X90649Y122287D01*
X90204Y122953D01*
X89537Y123399D01*
X88750Y123555D01*
X81250D01*
X80463Y123399D01*
X79797Y122953D01*
X79351Y122287D01*
X79194Y121500D01*
Y120555D01*
X75806D01*
Y121500D01*
X75649Y122287D01*
X75203Y122954D01*
X74537Y123399D01*
X73750Y123555D01*
D02*
G37*
G36*
X94378Y72307D02*
X85622D01*
Y70065D01*
X80257D01*
X79276Y69870D01*
X78443Y69314D01*
X78130Y69000D01*
X76704D01*
X75234Y68391D01*
X74573Y67730D01*
X73750Y67407D01*
X72927Y67730D01*
X72266Y68391D01*
X70796Y69000D01*
X69204D01*
X68420Y68675D01*
X68142Y68953D01*
X67475Y69399D01*
X66688Y69556D01*
X66688Y69556D01*
X61766D01*
Y71766D01*
X53234D01*
Y63234D01*
X61766D01*
Y65444D01*
X65837D01*
X66000Y65281D01*
Y64204D01*
X66609Y62734D01*
X67734Y61609D01*
X69204Y61000D01*
X70796D01*
X72266Y61609D01*
X72927Y62270D01*
X73750Y62593D01*
X74573Y62270D01*
X75234Y61609D01*
X76704Y61000D01*
X78296D01*
X79766Y61609D01*
X80891Y62734D01*
X81500Y64204D01*
Y64935D01*
X85622D01*
Y63122D01*
X94378D01*
Y72307D01*
D02*
G37*
G36*
X109378D02*
X100622D01*
Y63122D01*
X102452D01*
Y58038D01*
X102365Y57951D01*
X101499Y57342D01*
X100706Y57951D01*
X100266Y58391D01*
X98796Y59000D01*
X97204D01*
X95734Y58391D01*
X94609Y57266D01*
X94000Y55796D01*
Y54204D01*
X94609Y52734D01*
X95734Y51609D01*
X97204Y51000D01*
X98796D01*
X100266Y51609D01*
X100670Y52014D01*
X101536Y52623D01*
X102330Y52014D01*
X102770Y51573D01*
X102980Y51486D01*
Y18419D01*
X102944Y18240D01*
X102944Y18240D01*
Y7556D01*
X101250D01*
X100463Y7399D01*
X99796Y6953D01*
X99351Y6287D01*
X99194Y5500D01*
Y-500D01*
X99351Y-1287D01*
X99796Y-1953D01*
X100463Y-2399D01*
X101250Y-2555D01*
X108750D01*
X109537Y-2399D01*
X110204Y-1953D01*
X110649Y-1287D01*
X110806Y-500D01*
Y5500D01*
X110649Y6287D01*
X110204Y6953D01*
X109537Y7399D01*
X108750Y7556D01*
X107056D01*
Y18097D01*
X107091Y18276D01*
Y51486D01*
X107301Y51573D01*
X108427Y52699D01*
X109036Y54169D01*
Y55760D01*
X108427Y57230D01*
X107583Y58074D01*
Y63122D01*
X109378D01*
Y72307D01*
D02*
G37*
G36*
X145796Y59000D02*
X144204D01*
X142734Y58391D01*
X141609Y57266D01*
X141000Y55796D01*
Y54204D01*
X141609Y52734D01*
X142734Y51609D01*
X144204Y51000D01*
X145796D01*
X147266Y51609D01*
X148391Y52734D01*
X149000Y54204D01*
Y55796D01*
X148391Y57266D01*
X147266Y58391D01*
X145796Y59000D01*
D02*
G37*
G36*
X-71704Y51484D02*
X-73296D01*
X-74766Y50875D01*
X-75427Y50214D01*
X-76250Y49891D01*
X-77073Y50214D01*
X-77734Y50875D01*
X-79204Y51484D01*
X-80796D01*
X-82266Y50875D01*
X-82927Y50214D01*
X-83750Y49891D01*
X-84573Y50214D01*
X-85234Y50875D01*
X-86704Y51484D01*
X-88296D01*
X-89766Y50875D01*
X-90891Y49750D01*
X-91500Y48280D01*
Y46688D01*
X-91140Y45819D01*
X-91882Y44549D01*
X-93444D01*
Y48750D01*
X-93601Y49537D01*
X-94046Y50203D01*
X-94713Y50649D01*
X-95500Y50806D01*
X-101500D01*
X-102287Y50649D01*
X-102953Y50203D01*
X-103399Y49537D01*
X-103555Y48750D01*
Y41250D01*
X-103399Y40463D01*
X-102953Y39797D01*
X-102287Y39351D01*
X-101500Y39195D01*
X-95500D01*
X-94713Y39351D01*
X-94612Y39419D01*
X-83325D01*
X-76500Y32594D01*
Y31704D01*
X-75891Y30234D01*
X-75230Y29573D01*
X-74907Y28750D01*
X-75230Y27927D01*
X-75891Y27266D01*
X-76500Y25796D01*
Y24204D01*
X-75891Y22734D01*
X-75230Y22073D01*
X-74907Y21250D01*
X-75230Y20427D01*
X-75891Y19766D01*
X-76500Y18296D01*
Y16704D01*
X-75891Y15234D01*
X-75230Y14573D01*
X-74907Y13750D01*
X-75230Y12927D01*
X-75891Y12266D01*
X-76500Y10796D01*
Y9204D01*
X-75891Y7734D01*
X-74766Y6609D01*
X-73296Y6000D01*
X-71704D01*
X-70234Y6609D01*
X-69408Y7435D01*
X-59786D01*
X-58804Y7630D01*
X-57972Y8186D01*
X-55536Y10622D01*
X-50193D01*
Y19378D01*
X-59378D01*
Y14035D01*
X-60848Y12565D01*
X-69408D01*
X-69770Y12927D01*
X-70093Y13750D01*
X-69770Y14573D01*
X-69109Y15234D01*
X-69075Y15317D01*
X-66903D01*
X-65921Y15513D01*
X-65089Y16069D01*
X-55536Y25622D01*
X-50193D01*
Y34378D01*
X-59378D01*
Y29035D01*
X-61382Y27031D01*
X-62553Y27657D01*
X-62435Y28250D01*
Y34688D01*
X-57928Y39195D01*
X-53500D01*
X-52713Y39351D01*
X-52047Y39797D01*
X-51601Y40463D01*
X-51445Y41250D01*
Y48750D01*
X-51601Y49537D01*
X-52047Y50203D01*
X-52713Y50649D01*
X-53500Y50806D01*
X-59500D01*
X-60287Y50649D01*
X-60953Y50203D01*
X-61399Y49537D01*
X-61556Y48750D01*
Y42822D01*
X-66814Y37564D01*
X-67370Y36732D01*
X-67565Y35750D01*
Y34358D01*
X-68835Y34105D01*
X-69109Y34766D01*
X-69770Y35427D01*
X-70093Y36250D01*
X-69770Y37073D01*
X-69109Y37734D01*
X-68500Y39204D01*
Y40796D01*
X-69109Y42266D01*
X-69759Y42915D01*
X-70092Y43742D01*
X-69759Y44569D01*
X-69109Y45218D01*
X-68500Y46688D01*
Y48280D01*
X-69109Y49750D01*
X-70234Y50875D01*
X-71704Y51484D01*
D02*
G37*
G36*
X-108500Y35805D02*
X-114500D01*
X-115287Y35649D01*
X-115954Y35203D01*
X-116399Y34537D01*
X-116556Y33750D01*
Y28685D01*
X-117266Y28391D01*
X-118391Y27266D01*
X-119000Y25796D01*
Y24204D01*
X-118391Y22734D01*
X-117266Y21609D01*
X-115795Y21000D01*
X-114204D01*
X-112734Y21609D01*
X-111609Y22734D01*
X-111004Y24195D01*
X-108500D01*
X-107713Y24351D01*
X-107046Y24797D01*
X-106601Y25463D01*
X-106445Y26250D01*
Y33750D01*
X-106601Y34537D01*
X-107046Y35203D01*
X-107713Y35649D01*
X-108500Y35805D01*
D02*
G37*
G36*
X-138984Y53016D02*
X-150016D01*
Y43984D01*
X-146055D01*
Y40806D01*
X-147000D01*
X-147787Y40649D01*
X-148454Y40203D01*
X-148899Y39537D01*
X-149056Y38750D01*
Y31250D01*
X-148899Y30463D01*
X-148454Y29797D01*
X-147787Y29351D01*
X-147000Y29195D01*
X-146055D01*
Y26500D01*
X-146055Y26500D01*
X-145899Y25713D01*
X-145454Y25047D01*
X-143913Y23506D01*
X-144000Y23296D01*
Y21704D01*
X-143391Y20234D01*
X-142266Y19109D01*
X-140796Y18500D01*
X-139204D01*
X-137734Y19109D01*
X-136609Y20234D01*
X-136000Y21704D01*
Y23296D01*
X-136609Y24766D01*
X-137734Y25891D01*
X-139204Y26500D01*
X-140796D01*
X-141006Y26413D01*
X-141945Y27352D01*
Y29195D01*
X-141000D01*
X-140213Y29351D01*
X-139547Y29797D01*
X-139101Y30463D01*
X-138945Y31250D01*
Y38750D01*
X-139101Y39537D01*
X-139547Y40203D01*
X-140213Y40649D01*
X-141000Y40806D01*
X-141945D01*
Y43984D01*
X-138984D01*
Y53016D01*
D02*
G37*
G36*
X12500Y24070D02*
X11421Y23856D01*
X10506Y23244D01*
X9894Y22329D01*
X9680Y21250D01*
Y18250D01*
X9894Y17171D01*
X10506Y16256D01*
X11421Y15645D01*
X12500Y15430D01*
X13579Y15645D01*
X14494Y16256D01*
X15106Y17171D01*
X15320Y18250D01*
Y21250D01*
X15106Y22329D01*
X14494Y23244D01*
X13579Y23856D01*
X12500Y24070D01*
D02*
G37*
G36*
X125016Y129516D02*
X113984D01*
Y120484D01*
X115444D01*
Y-9022D01*
X115234Y-9109D01*
X114109Y-10234D01*
X113500Y-11704D01*
Y-13296D01*
X114109Y-14766D01*
X115234Y-15891D01*
X116704Y-16500D01*
X118296D01*
X119766Y-15891D01*
X120891Y-14766D01*
X121500Y-13296D01*
Y-11704D01*
X120891Y-10234D01*
X119766Y-9109D01*
X119556Y-9022D01*
Y120484D01*
X125016D01*
Y129516D01*
D02*
G37*
G36*
X108750Y-5444D02*
X101250D01*
X100463Y-5601D01*
X99796Y-6047D01*
X99351Y-6713D01*
X99194Y-7500D01*
Y-13500D01*
X99351Y-14287D01*
X99796Y-14953D01*
X100463Y-15399D01*
X101250Y-15555D01*
X102399D01*
X102734Y-15891D01*
X104204Y-16500D01*
X105796D01*
X107266Y-15891D01*
X107601Y-15555D01*
X108750D01*
X109537Y-15399D01*
X110204Y-14953D01*
X110649Y-14287D01*
X110806Y-13500D01*
Y-7500D01*
X110649Y-6713D01*
X110204Y-6047D01*
X109537Y-5601D01*
X108750Y-5444D01*
D02*
G37*
G36*
X-122484Y-41484D02*
X-134516D01*
Y-53516D01*
X-122484D01*
Y-41484D01*
D02*
G37*
G36*
X-140484D02*
X-152516D01*
Y-53516D01*
X-140484D01*
Y-41484D01*
D02*
G37*
G36*
X-181855Y-52150D02*
X-183845D01*
X-184530Y-52434D01*
X-198466D01*
Y-61866D01*
X-184530D01*
X-183845Y-62150D01*
X-181855D01*
X-181170Y-61866D01*
X-174234D01*
Y-52434D01*
X-181170D01*
X-181855Y-52150D01*
D02*
G37*
G36*
X-216155D02*
X-218145D01*
X-218830Y-52434D01*
X-225766D01*
Y-61866D01*
X-218830D01*
X-218145Y-62150D01*
X-216155D01*
X-215470Y-61866D01*
X-201534D01*
Y-52434D01*
X-215470D01*
X-216155Y-52150D01*
D02*
G37*
G36*
X9378Y-50193D02*
X622D01*
Y-59378D01*
X2435D01*
Y-61908D01*
X1609Y-62734D01*
X1522Y-62944D01*
X101D01*
X-4195Y-58649D01*
Y-53500D01*
X-4351Y-52713D01*
X-4796Y-52047D01*
X-5463Y-51601D01*
X-6250Y-51445D01*
X-13750D01*
X-14537Y-51601D01*
X-15203Y-52047D01*
X-15649Y-52713D01*
X-15805Y-53500D01*
Y-59500D01*
X-15649Y-60287D01*
X-15203Y-60953D01*
X-14537Y-61399D01*
X-13750Y-61556D01*
X-7102D01*
X-2204Y-66453D01*
X-2203Y-66453D01*
X-1537Y-66899D01*
X-750Y-67056D01*
X1522D01*
X1609Y-67266D01*
X2734Y-68391D01*
X4204Y-69000D01*
X5796D01*
X7266Y-68391D01*
X8391Y-67266D01*
X9000Y-65796D01*
Y-64204D01*
X8391Y-62734D01*
X7565Y-61908D01*
Y-59378D01*
X9378D01*
Y-50193D01*
D02*
G37*
G36*
X-198749Y-63550D02*
X-201251D01*
X-203667Y-64197D01*
X-205833Y-65448D01*
X-207602Y-67217D01*
X-208853Y-69383D01*
X-209500Y-71799D01*
Y-74301D01*
X-208853Y-76717D01*
X-207602Y-78883D01*
X-205833Y-80652D01*
X-203667Y-81903D01*
X-201251Y-82550D01*
X-198749D01*
X-196333Y-81903D01*
X-194167Y-80652D01*
X-192398Y-78883D01*
X-191147Y-76717D01*
X-190500Y-74301D01*
Y-71799D01*
X-191147Y-69383D01*
X-192398Y-67217D01*
X-194167Y-65448D01*
X-196333Y-64197D01*
X-198749Y-63550D01*
D02*
G37*
G36*
X-175407Y-117907D02*
X-184593D01*
Y-126664D01*
X-175407D01*
Y-117907D01*
D02*
G37*
G36*
X-103122Y-98122D02*
X-112307D01*
Y-106878D01*
X-109048D01*
Y-112291D01*
X-109491Y-112734D01*
X-110100Y-114204D01*
Y-115796D01*
X-109491Y-117266D01*
X-109048Y-117709D01*
Y-123122D01*
X-112307D01*
Y-131878D01*
X-103122D01*
Y-123122D01*
X-103917D01*
Y-118426D01*
X-103834Y-118391D01*
X-102709Y-117266D01*
X-102100Y-115796D01*
Y-114204D01*
X-102709Y-112734D01*
X-103834Y-111609D01*
X-103917Y-111574D01*
Y-106878D01*
X-103122D01*
Y-98122D01*
D02*
G37*
G36*
X-94204Y-133500D02*
X-95796D01*
X-97266Y-134109D01*
X-98391Y-135234D01*
X-99000Y-136704D01*
Y-138296D01*
X-98391Y-139766D01*
X-97266Y-140891D01*
X-97056Y-140978D01*
Y-144022D01*
X-97266Y-144109D01*
X-98391Y-145234D01*
X-99000Y-146704D01*
Y-148296D01*
X-98391Y-149766D01*
X-97266Y-150891D01*
X-95796Y-151500D01*
X-94204D01*
X-92734Y-150891D01*
X-91609Y-149766D01*
X-91000Y-148296D01*
Y-146704D01*
X-91609Y-145234D01*
X-92734Y-144109D01*
X-92944Y-144022D01*
Y-140978D01*
X-92734Y-140891D01*
X-91609Y-139766D01*
X-91000Y-138296D01*
Y-136704D01*
X-91609Y-135234D01*
X-92734Y-134109D01*
X-94204Y-133500D01*
D02*
G37*
%LPD*%
G36*
X9573Y202270D02*
X10234Y201609D01*
X11704Y201000D01*
X13296D01*
X14766Y201609D01*
X16237Y201396D01*
X16296Y201344D01*
X16302Y201208D01*
X2181Y187088D01*
X1007Y187574D01*
Y197289D01*
X4719Y201000D01*
X5796D01*
X7266Y201609D01*
X7927Y202270D01*
X8750Y202593D01*
X9573Y202270D01*
D02*
G37*
G36*
X-84550Y177679D02*
X-83971Y176674D01*
X-84056Y176250D01*
Y168750D01*
X-83899Y167963D01*
X-83454Y167297D01*
X-82787Y166851D01*
X-82000Y166695D01*
X-76851D01*
X-74241Y164084D01*
X-74226Y164017D01*
X-74841Y163370D01*
X-75213Y163149D01*
X-75238Y163154D01*
X-76000Y163305D01*
X-82000D01*
X-82787Y163149D01*
X-83454Y162703D01*
X-83899Y162037D01*
X-84056Y161250D01*
Y154601D01*
X-89101Y149556D01*
X-92071D01*
X-92071Y149556D01*
X-92858Y149399D01*
X-93525Y148954D01*
X-93525Y148953D01*
X-96454Y146025D01*
X-97734Y145891D01*
X-99204Y146500D01*
X-100796D01*
X-102266Y145891D01*
X-103391Y144766D01*
X-104647Y145054D01*
X-108546Y148953D01*
X-109213Y149399D01*
X-110000Y149556D01*
X-110000Y149556D01*
X-115000D01*
X-115000Y149556D01*
X-115787Y149399D01*
X-116454Y148953D01*
X-123351Y142056D01*
X-138850D01*
X-138850Y142056D01*
X-139636Y141899D01*
X-140303Y141454D01*
X-140303Y141453D01*
X-141054Y140703D01*
X-141118Y140607D01*
X-141206Y140534D01*
X-155920Y122140D01*
X-155961Y122155D01*
X-155962Y122155D01*
X-156071Y122109D01*
X-156077Y122093D01*
X-156077Y122093D01*
X-156091Y122056D01*
X-159489D01*
X-160261Y123326D01*
X-160089Y123658D01*
X-160002Y123675D01*
X-159335Y124121D01*
X-155913Y127543D01*
X-155257Y127049D01*
X-148149Y136482D01*
X-155374Y141926D01*
X-155549Y143184D01*
X-151072Y149093D01*
X-147789Y146619D01*
X-142519Y153613D01*
X-143936Y154681D01*
X-144025Y155948D01*
X-142186Y157786D01*
X-141630Y158619D01*
X-141435Y159600D01*
Y169909D01*
X-140915Y170429D01*
X-133742D01*
X-127110Y163797D01*
X-127110Y163797D01*
X-126444Y163351D01*
X-125657Y163195D01*
X-121556D01*
Y158750D01*
X-121399Y157963D01*
X-120954Y157296D01*
X-120287Y156851D01*
X-119500Y156694D01*
X-113500D01*
X-112713Y156851D01*
X-112046Y157296D01*
X-111601Y157963D01*
X-111445Y158750D01*
Y166250D01*
X-111504Y166551D01*
X-110334Y167177D01*
X-108555Y165399D01*
Y158750D01*
X-108399Y157963D01*
X-107954Y157296D01*
X-107287Y156851D01*
X-106500Y156694D01*
X-100500D01*
X-99713Y156851D01*
X-99046Y157296D01*
X-98601Y157963D01*
X-98444Y158750D01*
Y166250D01*
X-98601Y167037D01*
X-99046Y167703D01*
X-99713Y168149D01*
X-100500Y168305D01*
X-105649D01*
X-108142Y170799D01*
X-107424Y171877D01*
X-107287Y171851D01*
X-107119Y171817D01*
X-106500Y171695D01*
X-100500D01*
X-99713Y171851D01*
X-99047Y172297D01*
X-98601Y172963D01*
X-98444Y173750D01*
Y177945D01*
X-84820D01*
X-84550Y177679D01*
D02*
G37*
G36*
X-143559Y129042D02*
X-143559Y129042D01*
X-133471Y121440D01*
X-132202Y123124D01*
X-132034Y123108D01*
X-130953Y122671D01*
X-130651Y120519D01*
X-130242Y119825D01*
X-131069Y118727D01*
X-131849Y118929D01*
X-134337Y118579D01*
X-136502Y117304D01*
X-138014Y115297D01*
X-138644Y112865D01*
X-138294Y110377D01*
X-137885Y109683D01*
X-138712Y108585D01*
X-139492Y108786D01*
X-141980Y108437D01*
X-144145Y107161D01*
X-145658Y105155D01*
X-146287Y102722D01*
X-145937Y100234D01*
X-145528Y99540D01*
X-146355Y98442D01*
X-147135Y98644D01*
X-149623Y98294D01*
X-150317Y97885D01*
X-151415Y98713D01*
X-151214Y99492D01*
X-151563Y101980D01*
X-152839Y104145D01*
X-154845Y105658D01*
X-157278Y106287D01*
X-159766Y105937D01*
X-161931Y104662D01*
X-163443Y102655D01*
X-164072Y100223D01*
X-163723Y97734D01*
X-163314Y97040D01*
X-164141Y95942D01*
X-164921Y96144D01*
X-167409Y95794D01*
X-169574Y94519D01*
X-171086Y92512D01*
X-171716Y90080D01*
X-171366Y87591D01*
X-170091Y85427D01*
X-168084Y83914D01*
X-165651Y83285D01*
X-163163Y83635D01*
X-162469Y84044D01*
X-161371Y83216D01*
X-161573Y82437D01*
X-161223Y79949D01*
X-159948Y77783D01*
X-157941Y76271D01*
X-155508Y75642D01*
X-153824Y75879D01*
X-153226Y74680D01*
X-165469Y62438D01*
X-165915Y61771D01*
X-165993Y61376D01*
X-167314Y61246D01*
X-167472Y61628D01*
X-168250Y61950D01*
X-179726D01*
Y85622D01*
X-175622D01*
Y94378D01*
X-179936D01*
X-180982Y106340D01*
X-179872Y106955D01*
X-177886Y105459D01*
X-173829Y102402D01*
X-166980Y111491D01*
X-165796Y111000D01*
X-164204D01*
X-162734Y111609D01*
X-161609Y112734D01*
X-161000Y114204D01*
Y115796D01*
X-161364Y116674D01*
X-160628Y117944D01*
X-155961D01*
X-155961Y117905D01*
X-154394Y118217D01*
X-153066Y119105D01*
X-152862Y119410D01*
X-152794Y119467D01*
X-144598Y129712D01*
X-143559Y129042D01*
D02*
G37*
G36*
X-189869Y114489D02*
X-185901Y111499D01*
X-185993Y111361D01*
X-186421Y109209D01*
X-186335Y108778D01*
X-186341Y108724D01*
X-184847Y91639D01*
X-184807Y91503D01*
Y88455D01*
X-184853Y88277D01*
X-184843Y88207D01*
X-184856Y88138D01*
Y61950D01*
X-215672D01*
X-216155Y62150D01*
X-218145D01*
X-218628Y61950D01*
X-227945D01*
Y65046D01*
X-216580Y76410D01*
X-216580Y76410D01*
X-202358Y90632D01*
X-202358Y90632D01*
X-201912Y91299D01*
X-201756Y92086D01*
Y102534D01*
X-201245Y102884D01*
X-200486Y103097D01*
X-195907Y99646D01*
X-195184Y99298D01*
X-194384Y99252D01*
X-193626Y99517D01*
X-193028Y100051D01*
X-188515Y106041D01*
X-188166Y106763D01*
X-188121Y107564D01*
X-188385Y108321D01*
X-188919Y108919D01*
X-192140Y111346D01*
X-192211Y112749D01*
X-192069Y112891D01*
X-192069Y112892D01*
X-191623Y113558D01*
X-191509Y114135D01*
X-190929Y114511D01*
X-190197Y114736D01*
X-189869Y114489D01*
D02*
G37*
G36*
X-168250Y53450D02*
X-227945D01*
Y60850D01*
X-168250D01*
Y53450D01*
D02*
G37*
G36*
Y28050D02*
X-227945D01*
Y48150D01*
X-168250D01*
Y28050D01*
D02*
G37*
G36*
X-166071Y27336D02*
Y10764D01*
X-167341Y10512D01*
X-167472Y10828D01*
X-168250Y11150D01*
X-181372D01*
X-181855Y11350D01*
X-183845D01*
X-184328Y11150D01*
X-215672D01*
X-216155Y11350D01*
X-218145D01*
X-218628Y11150D01*
X-227945D01*
Y26950D01*
X-218628D01*
X-218145Y26750D01*
X-216155D01*
X-215672Y26950D01*
X-184328D01*
X-183845Y26750D01*
X-181855D01*
X-181372Y26950D01*
X-168250D01*
X-167472Y27272D01*
X-167341Y27588D01*
X-166071Y27336D01*
D02*
G37*
G36*
X-168250Y-10050D02*
X-227945D01*
Y10050D01*
X-168250D01*
Y-10050D01*
D02*
G37*
G36*
X-49807Y-3122D02*
Y-11878D01*
X-49807Y-11878D01*
X-49807D01*
X-50492Y-12835D01*
X-54351Y-16695D01*
X-59500D01*
X-60287Y-16851D01*
X-60953Y-17297D01*
X-61399Y-17963D01*
X-61556Y-18750D01*
Y-20445D01*
X-96609D01*
X-97396Y-20601D01*
X-98062Y-21047D01*
X-98062Y-21047D01*
X-101726Y-24711D01*
X-124841D01*
X-125944Y-23750D01*
Y-19187D01*
X-125834Y-19141D01*
X-124709Y-18016D01*
X-124100Y-16546D01*
Y-14954D01*
X-124187Y-14744D01*
X-111499Y-2056D01*
X-50299D01*
X-49807Y-3122D01*
D02*
G37*
%LPC*%
G36*
X-89169Y173965D02*
X-90760D01*
X-92230Y173356D01*
X-93356Y172230D01*
X-93965Y170760D01*
Y169169D01*
X-93356Y167699D01*
X-93054Y167397D01*
X-92373Y166429D01*
X-93054Y165738D01*
X-93494Y165298D01*
X-94103Y163828D01*
Y162236D01*
X-93494Y160766D01*
X-92369Y159641D01*
X-90899Y159032D01*
X-89307D01*
X-87837Y159641D01*
X-86712Y160766D01*
X-86103Y162236D01*
Y163828D01*
X-86712Y165298D01*
X-87014Y165599D01*
X-87695Y166568D01*
X-87014Y167259D01*
X-86573Y167699D01*
X-85964Y169169D01*
Y170760D01*
X-86573Y172230D01*
X-87699Y173356D01*
X-89169Y173965D01*
D02*
G37*
G36*
X-198749Y82550D02*
X-201251D01*
X-203667Y81903D01*
X-205833Y80652D01*
X-207602Y78883D01*
X-208853Y76717D01*
X-209500Y74301D01*
Y71799D01*
X-208853Y69383D01*
X-207602Y67217D01*
X-205833Y65448D01*
X-203667Y64197D01*
X-201251Y63550D01*
X-198749D01*
X-196333Y64197D01*
X-194167Y65448D01*
X-192398Y67217D01*
X-191147Y69383D01*
X-190500Y71799D01*
Y74301D01*
X-191147Y76717D01*
X-192398Y78883D01*
X-194167Y80652D01*
X-196333Y81903D01*
X-198749Y82550D01*
D02*
G37*
%LPD*%
D11*
X60000Y-62500D02*
X65000Y-57500D01*
X60000Y-70000D02*
Y-62500D01*
X65000Y-57500D02*
X70750D01*
D12*
X-155961Y120000D02*
G03*
X-154399Y120751I-0J2000D01*
G01*
X-169003Y120000D02*
G03*
X-170600Y119204I0J-2000D01*
G01*
X-166126Y131000D02*
G03*
X-167732Y130534I0J-3000D01*
G01*
X-161878Y131707D02*
G03*
X-161876Y131708I-949J2846D01*
G01*
X-164487Y131000D02*
G03*
X-163538Y131154I0J3000D01*
G01*
X-161876Y131708D02*
G03*
X-160439Y132737I-951J2845D01*
G01*
X-169243Y137792D02*
G03*
X-168807Y138254I-1952J2278D01*
G01*
X-180951Y147065D02*
G03*
X-181051Y146924I2396J-1806D01*
G01*
X-182069Y145397D02*
G03*
X-182302Y142487I2496J-1664D01*
G01*
X-179749Y123945D02*
G03*
X-179254Y126269I-2447J1736D01*
G01*
X-1048Y76518D02*
X10000Y65469D01*
X-4064Y75268D02*
X-2500Y73704D01*
X-3965Y203106D02*
X2929Y210000D01*
X-3965Y199394D02*
Y203106D01*
X-1048Y76518D02*
Y198140D01*
X5000Y204188D01*
Y205000D01*
X-4064Y75268D02*
Y199294D01*
X-3965Y199394D01*
X-18750Y214750D02*
Y215500D01*
X-15750Y218500D01*
X-14250D01*
X-20000Y213500D02*
X-18750Y214750D01*
X-20000Y205000D02*
Y213500D01*
X-15000Y231500D02*
Y242500D01*
X-14250Y218500D02*
X-4250Y228500D01*
X-3000D02*
X0Y231500D01*
X-4250Y228500D02*
X-3000D01*
X167500Y89750D02*
X181750Y104000D01*
X92500Y-74250D02*
X101750Y-83500D01*
X-180000Y137500D02*
X-179485Y136985D01*
X155000Y-90000D02*
Y-69000D01*
X19611Y204611D02*
X20000Y205000D01*
X19611Y201611D02*
Y204611D01*
X1984Y183984D02*
X19611Y201611D01*
X22265Y200000D02*
X23828D01*
X5000Y117515D02*
Y182735D01*
X1984Y118764D02*
Y183984D01*
X5000Y182735D02*
X22265Y200000D01*
X75000Y218071D02*
X79429Y222500D01*
X83000Y189000D02*
Y212188D01*
X80000Y215188D02*
X83000Y212188D01*
X80000Y215188D02*
Y216000D01*
X79429Y222500D02*
X80000D01*
X87000Y185000D02*
X95750D01*
X83000Y189000D02*
X87000Y185000D01*
X95750D02*
X104250Y193500D01*
X63000Y164765D02*
Y210336D01*
X72500Y219836D02*
Y227500D01*
X63000Y210336D02*
X72500Y219836D01*
X75000Y206500D02*
Y218071D01*
X-143484Y172484D02*
X-132891D01*
X-125657Y165250D02*
X-119250D01*
X-132891Y172484D02*
X-125657Y165250D01*
X-131250Y175500D02*
Y175500D01*
X-125750Y170000D02*
X-110250D01*
X-131250Y175500D02*
X-125750Y170000D01*
X-135000Y178500D02*
X-134250D01*
X-119250Y165250D02*
X-116500Y162500D01*
X-134250Y178500D02*
X-131250Y175500D01*
X-110000Y147500D02*
X-105000Y142500D01*
X-115000Y147500D02*
X-110000D01*
X-105000Y142500D02*
X-100000D01*
X-122500Y140000D02*
X-115000Y147500D01*
X-139600Y139249D02*
X-138850Y140000D01*
X-122500D01*
X-154399Y120751D02*
X-139600Y139249D01*
X104250Y193500D02*
X105000D01*
X78703Y188797D02*
Y190500D01*
Y188797D02*
X90000Y177500D01*
X75000Y193500D02*
X75703D01*
X78703Y190500D01*
X91714Y206500D02*
X105000D01*
X90000Y204786D02*
X91714Y206500D01*
X105000D02*
X120000D01*
Y193500D02*
X123000Y196500D01*
X132071D02*
X141071Y187500D01*
X123000Y196500D02*
X132071D01*
X157500Y187500D02*
X165000Y180000D01*
X141071Y187500D02*
X157500D01*
X132000Y189500D02*
X137000Y184500D01*
Y178429D02*
Y184500D01*
X134055Y175484D02*
X137000Y178429D01*
X111766Y175484D02*
X134055D01*
X105750Y181500D02*
X111766Y175484D01*
X105000Y181500D02*
X105750D01*
X57500Y155000D02*
X65214Y162714D01*
X55429Y160000D02*
X58235D01*
X63000Y164765D01*
X65214Y162714D02*
X72500D01*
X-110250Y170000D02*
X-103500Y163250D01*
Y162500D02*
Y163250D01*
X-100000Y118500D02*
X-95000Y123500D01*
Y144571D02*
X-92071Y147500D01*
X-95000Y123500D02*
Y144571D01*
X-92071Y147500D02*
X-88250D01*
X-57750Y100250D02*
X-46750D01*
X-54250Y79000D02*
X-50000Y83250D01*
Y87500D01*
X-46750Y100250D02*
X-46500Y100000D01*
X27500Y2500D02*
X35000Y10000D01*
X-153731Y132632D02*
Y133294D01*
X-160789Y125574D02*
X-153731Y132632D01*
X-164426Y125574D02*
X-160789D01*
X-165000Y125000D02*
X-164426Y125574D01*
X55429Y150000D02*
X122500D01*
X137500Y135000D01*
X52500Y152929D02*
Y157071D01*
Y152929D02*
X55429Y150000D01*
X52500Y157071D02*
X55429Y160000D01*
X-60172Y160078D02*
X-57750Y162500D01*
X-57500D01*
X49000Y222500D02*
X67500D01*
X-105000Y211250D02*
X-93750Y222500D01*
X-62286D02*
X-60000Y220214D01*
X-93750Y222500D02*
X-62286D01*
X-103500Y192500D02*
Y193250D01*
X-112209Y201959D02*
X-103500Y193250D01*
X-112209Y201959D02*
Y205138D01*
X-114571Y207500D02*
X-112209Y205138D01*
X-114786Y207500D02*
X-114571D01*
X-63422Y160078D02*
X-60172D01*
X-66000Y157500D02*
X-63422Y160078D01*
X-52000Y180000D02*
X-8000Y136000D01*
X-116500Y209214D02*
X-114786Y207500D01*
X-103500Y177500D02*
X-103500Y177500D01*
Y192500D01*
X-100888Y180000D02*
X-52000D01*
X-79000Y171750D02*
X-69000Y161750D01*
Y160500D02*
Y161750D01*
X-79000Y171750D02*
Y172500D01*
X-69000Y160500D02*
X-66000Y157500D01*
X-79000Y156750D02*
Y157500D01*
X-88250Y147500D02*
X-79000Y156750D01*
X-90672Y110000D02*
X-90000D01*
X-115751Y104984D02*
X-87516D01*
X-85000Y107500D01*
Y112500D01*
X-90000Y117500D02*
X-85000Y112500D01*
X-117000Y108000D02*
X-92672D01*
X-90672Y110000D01*
X-90000Y135000D02*
X-89426Y134426D01*
X105035Y18276D02*
Y54964D01*
X117500Y-12500D02*
Y123000D01*
X119500Y125000D01*
X69037Y230963D02*
X72500Y227500D01*
X39037Y230963D02*
X69037D01*
X22286Y222500D02*
X36000D01*
X25000Y223362D02*
Y237500D01*
X32500D02*
X39037Y230963D01*
X137500Y104000D02*
Y135000D01*
X128500Y184000D02*
X132000Y180500D01*
X120000Y184000D02*
X128500D01*
X137500Y104000D02*
X152500D01*
X137500Y104000D02*
X137500Y104000D01*
X156250Y83750D02*
X170000Y70000D01*
X177500D01*
X156250Y83750D02*
Y88000D01*
X152500Y91000D02*
X153250D01*
X156250Y88000D01*
X191050Y83550D02*
X216050D01*
X177500Y70000D02*
X191050Y83550D01*
X216050D02*
X222500Y90000D01*
X-169003Y120000D02*
X-155961D01*
X-150016Y-29484D02*
X-144500Y-35000D01*
X-150016Y-29484D02*
Y-11766D01*
X-144500Y-35000D02*
X-144100D01*
X-144000Y-5750D02*
Y-5000D01*
X-150016Y-11766D02*
X-144000Y-5750D01*
X-144000Y-20750D02*
X-137984Y-26766D01*
X-100875D02*
X-96609Y-22500D01*
X-144000Y-20750D02*
Y-20000D01*
X-137984Y-26766D02*
X-100875D01*
X-96609Y-22500D02*
X-56500D01*
X-144000Y-5000D02*
Y10000D01*
X-144000Y10000D02*
X-144000Y10000D01*
X-131000Y10000D02*
Y35000D01*
Y9250D02*
X-128000Y6250D01*
X-127250D01*
X-126000Y5000D01*
X-117500D01*
X-12500Y19750D02*
Y37500D01*
X-2500Y55000D02*
Y73704D01*
X-12500Y37500D02*
X5000Y55000D01*
X5032Y40032D02*
X16032Y51032D01*
X5032Y40000D02*
Y40032D01*
X30112Y40000D02*
X38500D01*
X-8000Y116672D02*
Y136000D01*
X-10000Y114000D02*
Y114672D01*
X-8000Y116672D01*
X4984Y79016D02*
Y117499D01*
X1968Y77767D02*
Y118749D01*
X4984Y117499D02*
X5000Y117515D01*
X1968Y77767D02*
X13016Y66719D01*
X1968Y118749D02*
X1984Y118764D01*
X4984Y79016D02*
X16032Y67968D01*
X11000Y106750D02*
X16926Y100824D01*
Y98074D02*
X17500Y97500D01*
X16926Y98074D02*
Y100824D01*
X105000Y-12500D02*
Y-10500D01*
Y18240D02*
X105035Y18276D01*
X105000Y2500D02*
Y18240D01*
X-112350Y0D02*
X-45000D01*
X-128100Y-15750D02*
X-112350Y0D01*
X-147000Y59000D02*
X-144500Y61500D01*
X-152688Y59000D02*
X-147000D01*
X-154188Y57500D02*
X-152688Y59000D01*
X-155000Y57500D02*
X-154188D01*
X-144000Y26500D02*
X-140000Y22500D01*
X-144000Y26500D02*
Y35000D01*
Y48000D01*
X-144500Y48500D02*
X-144000Y48000D01*
X-161000Y-141000D02*
Y59735D01*
X-164016Y-129016D02*
Y60984D01*
X-230000Y-23828D02*
Y65897D01*
X-233016Y-25078D02*
Y67146D01*
X-161000Y59735D02*
X-115751Y104984D01*
X-164016Y60984D02*
X-117000Y108000D01*
X-40750Y-19750D02*
X-12500D01*
X-43500Y-22500D02*
X-40750Y-19750D01*
X-60750Y57500D02*
X-55000D01*
X-69250Y66000D02*
X-60750Y57500D01*
X-70000Y66000D02*
X-69250D01*
X57500Y122500D02*
Y127500D01*
X66688Y67500D02*
X69188Y65000D01*
X57500Y67500D02*
X66688D01*
X69188Y65000D02*
X70000D01*
X-187500Y-152500D02*
X-164016Y-129016D01*
X-172500Y-152500D02*
X-161000Y-141000D01*
X70000Y118500D02*
X100500D01*
X100500Y118500D01*
X57500Y127500D02*
X61500Y131500D01*
X70000D01*
X-167237Y114971D02*
X-165029D01*
X-165000Y115000D01*
X-168394Y113814D02*
X-167237Y114971D01*
X-58484Y-24484D02*
X-56500Y-22500D01*
X38500Y40000D02*
X40000Y38500D01*
X4920Y47500D02*
X5000D01*
X13016Y55516D01*
X-38016Y6984D02*
Y21249D01*
X-45000Y0D02*
X-38016Y6984D01*
X-131000Y-20750D02*
Y-20000D01*
X-35000Y12500D02*
Y20000D01*
Y12500D02*
X-30000Y7500D01*
Y15000D02*
X-29188D01*
X-26688Y12500D01*
X-19750D01*
X-35000Y20000D02*
X-10000Y45000D01*
X-30000Y7500D02*
X-19750D01*
X-13016Y46249D02*
Y83016D01*
X-38016Y21249D02*
X-13016Y46249D01*
X-10000Y45000D02*
Y87500D01*
X-17500D02*
X-13016Y83016D01*
X-28214Y87786D02*
X-27641Y88359D01*
Y93110D02*
X-27500Y93250D01*
X-27641Y88359D02*
Y93110D01*
X-42500Y81500D02*
Y87500D01*
X-29500Y82000D02*
X-28000D01*
X-33500Y99250D02*
X-27500Y93250D01*
X-35000Y87500D02*
X-29500Y82000D01*
X-42500Y81500D02*
X-40000Y79000D01*
X-89426Y134426D02*
X-85176D01*
X-79000Y128250D01*
X26578Y99922D02*
X31500Y95000D01*
X26578Y99922D02*
Y104922D01*
X31500Y95000D02*
X32500D01*
X27750Y91250D02*
X31500Y95000D01*
X27000Y91250D02*
X27750D01*
X24000Y88250D02*
X27000Y91250D01*
X24000Y107500D02*
X26578Y104922D01*
X24000Y87500D02*
Y88250D01*
X33250Y95000D02*
X54935D01*
X57435Y92500D01*
X10000Y88500D02*
Y97500D01*
Y88500D02*
X11000Y87500D01*
Y106750D02*
Y107500D01*
X-9250Y-56500D02*
X-750Y-65000D01*
X-10000Y-56500D02*
X-9250D01*
X-750Y-65000D02*
X5000D01*
X-10000Y-43500D02*
Y-35000D01*
X167500Y82500D02*
Y89750D01*
Y82500D02*
X175000Y75000D01*
X5000Y-35000D02*
X19750Y-20250D01*
Y-12500D01*
X-10000Y-35000D02*
X5000D01*
X181750Y104000D02*
X182500D01*
X196617Y99117D02*
X197000Y99500D01*
X182500Y91000D02*
X183250D01*
X191367Y99117D02*
X196617D01*
X183250Y91000D02*
X191367Y99117D01*
X-96812Y66000D02*
X-95812Y65000D01*
X-107500Y66000D02*
X-96812D01*
X-95812Y65000D02*
X-95000D01*
X13016Y55516D02*
Y66719D01*
X2929Y210000D02*
X7500D01*
X10000Y60000D02*
Y65469D01*
X16032Y51032D02*
Y67968D01*
X7500Y210000D02*
X12500Y205000D01*
X23828Y200000D02*
X27500Y203672D01*
Y204484D01*
X5000Y55000D02*
X10000Y60000D01*
X-95139Y75389D02*
Y84861D01*
Y75389D02*
X-85750Y66000D01*
X-85000D01*
X-33500Y99250D02*
Y100000D01*
X-55000Y79000D02*
X-54250D01*
X-28000Y82000D02*
X-25000Y79000D01*
X19750Y2500D02*
X27500D01*
X-47323Y-9609D02*
X-45214Y-7500D01*
X-56500Y-21750D02*
X-47323Y-12573D01*
Y-9609D01*
X-56500Y-22500D02*
Y-21750D01*
X-131000Y-20000D02*
X-130875Y-19875D01*
X-79000Y127500D02*
Y128250D01*
X-90000Y142500D02*
X-79000D01*
X45000Y-83500D02*
Y-75000D01*
X82500Y-77500D02*
Y-64250D01*
X75000Y-85000D02*
X82500Y-77500D01*
X139426Y-54426D02*
X140000Y-55000D01*
X132926Y-54426D02*
X139426D01*
X130000Y-51500D02*
X132926Y-54426D01*
X123250Y-57500D02*
X129250Y-51500D01*
X130000D01*
X109250Y-57500D02*
X123250D01*
X68000Y51500D02*
X68500Y52000D01*
X55000Y51500D02*
X68000D01*
X40000D02*
X55000D01*
X40000Y51500D02*
X40000Y51500D01*
X131750Y-83500D02*
X132500D01*
X125000Y-90250D02*
X131750Y-83500D01*
X125000Y-102500D02*
Y-90250D01*
X117500Y-110000D02*
X125000Y-102500D01*
X175000Y-85000D02*
X182500D01*
X187500Y-80000D01*
Y-67500D01*
X185000Y-65000D02*
X187500Y-67500D01*
X167250Y-65000D02*
X185000D01*
X158250Y-56000D02*
X167250Y-65000D01*
X157500Y-56000D02*
X158250D01*
X163250Y-83500D02*
X174250Y-72500D01*
X182500D01*
X162500Y-83500D02*
X163250D01*
X156875Y-68375D02*
X157500Y-69000D01*
X155625Y-68375D02*
X156875D01*
X155000Y-69000D02*
X155625Y-68375D01*
X152791Y-92209D02*
X155000Y-90000D01*
X149862Y-92209D02*
X152791D01*
X147500Y-94571D02*
X149862Y-92209D01*
X147500Y-94786D02*
Y-94571D01*
X178500Y-129000D02*
X187000Y-137500D01*
X197500D02*
X205000Y-130000D01*
X187000Y-137500D02*
X197500D01*
X216500Y-98250D02*
Y-97500D01*
X209766Y-104984D02*
X216500Y-98250D01*
X186984Y-104984D02*
X209766D01*
X178500Y-96500D02*
X186984Y-104984D01*
X178500Y-96500D02*
Y-95500D01*
X177500Y-96500D02*
X178500Y-95500D01*
X162500Y-96500D02*
X177500D01*
X132000Y-121000D02*
Y-97000D01*
X132500Y-96500D01*
X133250Y-122250D02*
X138000D01*
X132000Y-121000D02*
X133250Y-122250D01*
X138000D02*
X138250Y-122500D01*
X167000Y-117750D02*
X171328D01*
X172500Y-139515D02*
Y-118922D01*
X171328Y-117750D02*
X172500Y-118922D01*
X166750Y-117500D02*
X167000Y-117750D01*
X150015Y-152500D02*
X160499Y-142016D01*
X169999D01*
X145000Y-152500D02*
X150015D01*
X163375Y-137625D02*
X165000Y-136000D01*
X153875Y-137625D02*
X163375D01*
X151500Y-140000D02*
X153875Y-137625D01*
X165000Y-135000D02*
Y-122750D01*
X165250Y-122500D02*
X166750D01*
X165250D02*
X166750D01*
X165000Y-122750D02*
X165250Y-122500D01*
X169999Y-142016D02*
X172500Y-139515D01*
X178500Y-129000D02*
Y-127000D01*
X205000Y-130000D02*
Y-124000D01*
X183500Y-122000D02*
Y-116000D01*
X185000Y-114500D01*
X178500Y-127000D02*
X183500Y-122000D01*
X77500Y-70000D02*
Y-64250D01*
X67000Y-80500D02*
X77500Y-70000D01*
X63000Y-80500D02*
X67000D01*
X60000Y-83500D02*
X63000Y-80500D01*
X55750Y-86500D02*
X57000D01*
X60000Y-83500D01*
X45000Y-96500D02*
X45750D01*
X55750Y-86500D01*
X112500Y-67500D02*
X127714D01*
X109250Y-64250D02*
X112500Y-67500D01*
X102500Y-64250D02*
X109250D01*
X100000Y-75000D02*
X108250D01*
X116750Y-83500D01*
X117500D01*
X97500Y-72500D02*
Y-64250D01*
Y-72500D02*
X100000Y-75000D01*
X92500Y-74250D02*
Y-64250D01*
X101750Y-83500D02*
X102500D01*
X87500Y-85214D02*
Y-64250D01*
X75000Y-85214D02*
Y-85000D01*
X60086Y-54709D02*
X62295Y-52500D01*
X52500Y-57286D02*
Y-57071D01*
X62295Y-52500D02*
X70750D01*
X54862Y-54709D02*
X60086D01*
X52500Y-57071D02*
X54862Y-54709D01*
X52500Y-47714D02*
X52714Y-47500D01*
X70750D01*
X-172500Y134968D02*
Y135000D01*
X-168400Y113806D02*
X-168394Y113814D01*
X-172500Y135000D02*
X-172500Y135000D01*
X-196269Y126706D02*
X-193916Y129803D01*
X-190000Y135000D01*
X-182302Y142487D02*
X-180000Y137500D01*
X-166126Y131000D02*
X-166126Y131000D01*
X-161878Y131707D02*
X-161876Y131708D01*
X-160439Y132737D02*
X-157725Y136304D01*
X-163538Y131154D02*
X-161878Y131707D01*
X-166126Y131000D02*
X-164487D01*
X-172500Y135000D02*
X-169243Y137792D01*
X-172500Y127500D02*
X-167732Y130534D01*
X-168807Y138254D02*
X-165714Y142323D01*
X-182069Y145397D02*
X-181051Y146924D01*
X-180951Y147065D02*
X-180944Y147073D01*
X-177696Y151353D01*
X-182266Y120398D02*
X-179749Y123945D01*
X-180000Y130000D02*
X-179254Y126269D01*
X-184286Y117677D02*
X-182266Y120398D01*
X-170254Y111346D02*
X-168400Y113806D01*
X-172304Y108647D02*
X-170254Y111346D01*
X-173950Y114758D02*
X-170600Y119204D01*
X-176298Y111657D02*
X-173950Y114758D01*
X-196450Y-29050D02*
X-185550D01*
X-182850Y-31750D01*
X-188867Y120687D02*
X-188281D01*
X-192186Y117367D02*
X-188867Y120687D01*
X-192351Y117367D02*
X-192186D01*
X-193522Y116195D02*
X-192351Y117367D01*
X-193522Y114345D02*
Y116195D01*
X-204927Y114176D02*
X-197957D01*
X-196538Y115594D02*
Y117750D01*
X-194809Y106088D02*
X-194545Y106353D01*
Y113323D01*
X-193522Y114345D01*
X-197957Y114176D02*
X-196538Y115594D01*
Y117750D02*
X-192275Y122014D01*
X-205191Y113912D02*
X-204927Y114176D01*
X-192275Y122014D02*
Y123696D01*
X-195073Y105824D02*
X-194809Y106088D01*
X-206827Y93335D02*
Y105305D01*
X-205455Y106677D02*
Y113647D01*
X-218033Y77864D02*
X-203811Y92086D01*
Y104056D02*
X-202043Y105824D01*
X-219282Y80880D02*
X-206827Y93335D01*
Y105305D02*
X-205455Y106677D01*
Y113647D02*
X-205191Y113912D01*
X-203811Y92086D02*
Y104056D01*
X-202043Y105824D02*
X-195073D01*
X-219282Y80880D02*
X-219282D01*
X-233016Y67146D02*
X-219282Y80880D01*
X-218033Y77864D02*
X-218033D01*
X-230000Y65897D02*
X-218033Y77864D01*
X-200450Y-25050D02*
X-196450Y-29050D01*
X-228778Y-25050D02*
X-200450D01*
X-230000Y-23828D02*
X-228778Y-25050D01*
X-224734Y-28066D02*
X-221050Y-31750D01*
X-230028Y-28066D02*
X-224734D01*
X-221050Y-31750D02*
X-217150D01*
X-233016Y-25078D02*
X-230028Y-28066D01*
X-95000Y-147500D02*
Y-137500D01*
D21*
X-66000Y172500D02*
D03*
X-79000D02*
D03*
X-66000Y157500D02*
D03*
X-79000D02*
D03*
X-116500Y177500D02*
D03*
X-103500D02*
D03*
X-131000Y35000D02*
D03*
X-144000D02*
D03*
X-144000Y-5000D02*
D03*
X-131000D02*
D03*
X-131000Y10000D02*
D03*
X-144000D02*
D03*
X49000Y222500D02*
D03*
X36000D02*
D03*
X-144000Y-20000D02*
D03*
X-131000D02*
D03*
X-66000Y127500D02*
D03*
X-79000D02*
D03*
X-66000Y142500D02*
D03*
X-79000D02*
D03*
X-46500Y100000D02*
D03*
X-33500D02*
D03*
X24000Y87500D02*
D03*
X11000D02*
D03*
X24000Y107500D02*
D03*
X11000D02*
D03*
X216500Y-97500D02*
D03*
X203500D02*
D03*
X151500Y-140000D02*
D03*
X138500D02*
D03*
X-116500Y162500D02*
D03*
X-103500D02*
D03*
X-116500Y192500D02*
D03*
X-103500D02*
D03*
X197750Y131750D02*
D03*
X184750D02*
D03*
X197750Y118250D02*
D03*
X184750D02*
D03*
X177750Y161750D02*
D03*
X164750D02*
D03*
X177750Y148250D02*
D03*
X164750D02*
D03*
X-98500Y45000D02*
D03*
X-111500D02*
D03*
X-56500D02*
D03*
X-43500D02*
D03*
X-111500Y30000D02*
D03*
X-98500D02*
D03*
X-56500Y-22500D02*
D03*
X-43500D02*
D03*
D22*
X-189571Y-122286D02*
D03*
X-180000D02*
D03*
X-107714Y-127500D02*
D03*
X-117286D02*
D03*
X-107714Y-102500D02*
D03*
X-117286D02*
D03*
X127714Y-67500D02*
D03*
X137286D02*
D03*
X69786Y17500D02*
D03*
X60214D02*
D03*
X80214D02*
D03*
X89786D02*
D03*
X37714Y87500D02*
D03*
X47286D02*
D03*
X37714Y117500D02*
D03*
X47286D02*
D03*
X-35214Y115000D02*
D03*
X-44786D02*
D03*
X-79786Y100000D02*
D03*
X-70214D02*
D03*
X37714Y207500D02*
D03*
X47286D02*
D03*
X37714Y132500D02*
D03*
X47286D02*
D03*
X37714Y147500D02*
D03*
X47286D02*
D03*
X-35214Y130000D02*
D03*
X-44786D02*
D03*
X-105214Y207500D02*
D03*
X-114786D02*
D03*
X-189786Y90000D02*
D03*
X-180214D02*
D03*
X12714Y222500D02*
D03*
X22286D02*
D03*
X37714Y102500D02*
D03*
X47286D02*
D03*
X-54786Y30000D02*
D03*
X-45214D02*
D03*
X-54786Y15000D02*
D03*
X-45214D02*
D03*
X40214Y17500D02*
D03*
X49786D02*
D03*
X40214Y2500D02*
D03*
X49786D02*
D03*
X40214Y-12500D02*
D03*
X49786D02*
D03*
X-45214Y-7500D02*
D03*
X-54786D02*
D03*
D26*
X5000Y-45214D02*
D03*
Y-54786D02*
D03*
X90000Y67714D02*
D03*
Y77286D02*
D03*
X105000Y67714D02*
D03*
Y77286D02*
D03*
X130000Y-17714D02*
D03*
Y-27286D02*
D03*
X145000Y-165214D02*
D03*
Y-174786D02*
D03*
X147500Y-94786D02*
D03*
Y-85214D02*
D03*
X75000Y-85214D02*
D03*
Y-94786D02*
D03*
X87500Y-85214D02*
D03*
Y-94786D02*
D03*
X52500Y-47714D02*
D03*
Y-57286D02*
D03*
X47500Y162714D02*
D03*
Y172286D02*
D03*
X-45000Y229786D02*
D03*
Y220214D02*
D03*
X47500Y192286D02*
D03*
Y182714D02*
D03*
X-60000Y229786D02*
D03*
Y220214D02*
D03*
X-30000Y229786D02*
D03*
Y220214D02*
D03*
X75000Y172286D02*
D03*
Y162714D02*
D03*
X90000Y195214D02*
D03*
Y204786D02*
D03*
X32500Y162714D02*
D03*
Y172286D02*
D03*
Y192286D02*
D03*
Y182714D02*
D03*
D28*
X57500Y67500D02*
D03*
X47500D02*
D03*
D41*
X-15000Y231500D02*
D03*
Y218500D02*
D03*
X0Y231500D02*
D03*
Y218500D02*
D03*
X-135000Y191500D02*
D03*
Y178500D02*
D03*
X75000Y193500D02*
D03*
Y206500D02*
D03*
X90000Y161000D02*
D03*
Y174000D02*
D03*
X120000Y206500D02*
D03*
Y193500D02*
D03*
Y168500D02*
D03*
Y181500D02*
D03*
X152500Y104000D02*
D03*
Y91000D02*
D03*
X137500Y91000D02*
D03*
Y104000D02*
D03*
X105000Y2500D02*
D03*
Y-10500D02*
D03*
X85000Y118500D02*
D03*
Y131500D02*
D03*
X70000Y131500D02*
D03*
Y118500D02*
D03*
X-10000Y-43500D02*
D03*
Y-56500D02*
D03*
X-70000Y79000D02*
D03*
Y66000D02*
D03*
X-85000Y79000D02*
D03*
Y66000D02*
D03*
X-107500Y79000D02*
D03*
Y66000D02*
D03*
X-40000Y66000D02*
D03*
Y79000D02*
D03*
X-55000Y66000D02*
D03*
Y79000D02*
D03*
X-25000Y66000D02*
D03*
Y79000D02*
D03*
X130000Y-51500D02*
D03*
Y-38500D02*
D03*
X102500Y-96500D02*
D03*
Y-83500D02*
D03*
X167500Y104000D02*
D03*
Y91000D02*
D03*
X157500Y-56000D02*
D03*
Y-69000D02*
D03*
X205000Y-111000D02*
D03*
Y-124000D02*
D03*
X162500Y-96500D02*
D03*
Y-83500D02*
D03*
X165000Y-149000D02*
D03*
Y-136000D02*
D03*
Y-174000D02*
D03*
Y-161000D02*
D03*
X132500Y-96500D02*
D03*
Y-83500D02*
D03*
X60000Y-83500D02*
D03*
Y-96500D02*
D03*
X117500Y-83500D02*
D03*
Y-96500D02*
D03*
X45000Y-83500D02*
D03*
Y-96500D02*
D03*
X40000Y51500D02*
D03*
Y38500D02*
D03*
X55000Y38500D02*
D03*
Y51500D02*
D03*
X105000Y193500D02*
D03*
Y206500D02*
D03*
X210000Y91000D02*
D03*
Y104000D02*
D03*
X182500Y91000D02*
D03*
Y104000D02*
D03*
X105000Y168500D02*
D03*
Y181500D02*
D03*
D72*
X-183146Y111075D02*
G03*
X-183786Y108947I2349J-1866D01*
G01*
X-148822Y154778D02*
X-144000Y159600D01*
Y173000D01*
X-148822Y152880D02*
Y154778D01*
X80257Y67500D02*
X90000D01*
X145375Y-105375D02*
Y-104444D01*
X-106483Y-115383D02*
Y-103732D01*
X145000Y-165214D02*
Y-152500D01*
Y-165214D02*
X155464D01*
X164250Y-174000D01*
X-70214Y100000D02*
X-70089Y99875D01*
X-57750Y100250D02*
X-57625Y100125D01*
X-57750Y99851D02*
Y100250D01*
X-57500Y110000D02*
X-49786D01*
X-70000Y88000D02*
X-57875Y100125D01*
X-57750Y100250D01*
X-70089Y100125D02*
X-57875D01*
X-66000Y108500D02*
X-57750Y100250D01*
X79500Y49000D02*
X81500Y51000D01*
X72383Y42883D02*
X78500Y49000D01*
X70383Y42883D02*
X72383D01*
X78500Y49000D02*
X79500D01*
X81500Y51000D02*
Y52000D01*
X19846Y7596D02*
X23596D01*
X32456Y16456D02*
X39170D01*
X19750Y7500D02*
X19846Y7596D01*
X23596D02*
X32456Y16456D01*
X39170D02*
X40214Y17500D01*
X82500Y-25750D02*
Y-17500D01*
X57393Y172393D02*
X57500Y172500D01*
X47500Y172286D02*
X47607Y172393D01*
X57393D01*
X49362Y184791D02*
X54250D01*
X56959Y187500D01*
X47286Y207500D02*
X57500D01*
X56959Y187500D02*
X57500D01*
X105000Y67714D02*
X105018Y67697D01*
Y54982D02*
Y67697D01*
Y54982D02*
X105035Y54964D01*
X105018Y54947D02*
X105035Y54964D01*
X210000Y118778D02*
Y120000D01*
X202206Y110984D02*
X210000Y118778D01*
X184750Y117500D02*
X191266Y110984D01*
X202206D01*
X-117500Y62000D02*
Y65000D01*
X-124500Y55000D02*
X-117500Y62000D01*
X-125500Y55000D02*
X-124500D01*
X-161178Y162120D02*
X-161178D01*
X-121959Y75214D02*
X-118173Y79000D01*
X-107500D01*
X-122500Y75214D02*
X-121959D01*
X-72778Y32500D02*
X-72500D01*
X-82262Y41984D02*
X-72778Y32500D01*
X-72500Y25000D02*
X-68250D01*
X-65000Y28250D01*
X-70000Y79000D02*
X-67500Y76500D01*
X-66250D02*
X-55750Y66000D01*
X-55000D02*
X-40000D01*
X-67500Y76500D02*
X-66250D01*
X-55750Y66000D02*
X-55000D01*
X55000Y38500D02*
X55750D01*
X54250D02*
X55000D01*
X12500Y165000D02*
Y170500D01*
X164750Y148250D02*
Y161750D01*
Y140250D02*
Y148250D01*
X167250Y164250D02*
Y169209D01*
X170000Y171959D02*
Y172500D01*
X164750Y161750D02*
X167250Y164250D01*
Y169209D02*
X170000Y171959D01*
X164750Y140250D02*
X170000Y135000D01*
X182250D01*
X184750Y131750D02*
Y132500D01*
Y118250D02*
Y131750D01*
Y118250D02*
X184750Y118250D01*
X182250Y135000D02*
X184750Y132500D01*
X164375Y162125D02*
X164750Y161750D01*
X57435Y92500D02*
X57500D01*
X56959D02*
X57435D01*
X-46862Y113138D02*
X-45000Y115000D01*
X-46862Y112923D02*
Y113138D01*
X-49786Y110000D02*
X-46862Y112923D01*
X-45000Y115000D02*
X-44786D01*
X-45000Y208041D02*
X-42500Y205541D01*
Y205000D02*
Y205541D01*
X11000Y172000D02*
X12500Y170500D01*
X11000Y172000D02*
Y177000D01*
X19500Y177500D02*
X27500D01*
X19000Y177000D02*
X19500Y177500D01*
X59750Y42500D02*
X70000D01*
X55750Y38500D02*
X59750Y42500D01*
X40214Y24464D02*
X54250Y38500D01*
X70000Y42500D02*
X70383Y42883D01*
X168250Y104000D02*
X179250Y115000D01*
X182250D02*
X184750Y117500D01*
X167500Y104000D02*
X168250D01*
X179250Y115000D02*
X182250D01*
X184750Y117500D02*
Y118250D01*
X-96000Y41984D02*
X-82262D01*
X-98500Y44484D02*
Y45000D01*
Y44484D02*
X-96000Y41984D01*
X-183146Y111075D02*
X-180292Y114667D01*
X-183786Y108947D02*
X-182291Y91862D01*
X-88250Y81500D02*
X-85750Y79000D01*
X-85000D01*
X-88250Y81500D02*
Y87250D01*
X-92000Y91000D02*
X-88250Y87250D01*
X-100000Y91000D02*
X-92000D01*
X-104250Y86750D02*
X-100000Y91000D01*
X-106750Y79000D02*
X-104250Y81500D01*
X-107500Y79000D02*
X-106750D01*
X-104250Y81500D02*
Y86750D01*
X-70000Y79000D02*
Y88000D01*
X-85000Y79000D02*
X-70000D01*
X-40000Y66000D02*
X-25000D01*
X-70214Y100000D02*
X-70089Y100125D01*
X-60000Y208041D02*
Y220214D01*
Y208041D02*
X-57500Y205541D01*
Y205000D02*
Y205541D01*
X-45000Y208041D02*
Y220214D01*
X-32500Y-7500D02*
X-19750D01*
X-45214D02*
X-32500D01*
X35383Y-19867D02*
X35516Y-20000D01*
X35383Y-19867D02*
Y-17117D01*
X77500Y65000D02*
X77757D01*
X80257Y67500D01*
X-107714Y-102500D02*
X-106483Y-103732D01*
Y-126268D02*
Y-115383D01*
X-107714Y-127500D02*
X-106483Y-126268D01*
Y-115383D02*
X-106100Y-115000D01*
X-66000Y127500D02*
Y142500D01*
Y108500D02*
Y127500D01*
X5000Y-65000D02*
Y-54786D01*
X40214Y17500D02*
Y24464D01*
X35000Y-2500D02*
X40000Y2500D01*
X19750Y-2500D02*
X35000D01*
X40000Y2500D02*
X40214D01*
X35000Y-7500D02*
X40000Y-12500D01*
X19750Y-7500D02*
X35000D01*
X40000Y-12500D02*
X40214D01*
X35383Y-17117D02*
X40000Y-12500D01*
X140250Y-107664D02*
X142531Y-105383D01*
X144617D02*
X145000Y-105000D01*
X142531Y-105383D02*
X144617D01*
X140250Y-112250D02*
Y-107664D01*
X147500Y-102319D02*
Y-94786D01*
X138250Y-112500D02*
X140000D01*
X140250Y-112250D01*
X145375Y-104444D02*
X147500Y-102319D01*
X145166Y-105375D02*
X145375D01*
X164250Y-174000D02*
X165000D01*
X167500Y-146500D02*
X184500D01*
X165000Y-149000D02*
X167500Y-146500D01*
X184500D02*
X185000Y-147000D01*
X165000Y-161000D02*
Y-149000D01*
X204188Y-110188D02*
X205000Y-111000D01*
X202563Y-110188D02*
X204188D01*
X193500Y-119250D02*
X202563Y-110188D01*
X193500Y-126000D02*
Y-119250D01*
X191500Y-128000D02*
X193500Y-126000D01*
X205000Y-111000D02*
X206000Y-110000D01*
X217500D01*
X-167687Y148055D02*
X-160640Y159383D01*
X-169708Y145333D02*
X-167687Y148055D01*
X-161178Y162120D02*
X-160640Y159383D01*
X-159661Y142006D02*
X-151601Y152642D01*
X-161719Y139313D02*
X-159661Y142006D01*
X-151601Y152642D02*
X-148822Y152880D01*
X-182291Y59350D02*
Y88138D01*
X-180214Y90000D01*
X-182850Y57150D02*
X-182291Y59350D01*
Y91862D02*
X-180214Y90000D01*
X-44786Y115000D02*
Y130000D01*
X-56862Y12923D02*
Y13138D01*
X-72500Y10000D02*
X-59786D01*
X-56862Y13138D02*
X-55000Y15000D01*
X-54786D01*
X-59786Y10000D02*
X-56862Y12923D01*
X-72117Y17883D02*
X-66903D01*
X-56862Y28138D02*
X-55000Y30000D01*
X-66903Y17883D02*
X-56862Y27923D01*
Y28138D01*
X-55000Y30000D02*
X-54786D01*
X-65000Y28250D02*
Y35750D01*
X-56500Y44250D01*
Y45000D01*
X-72500Y17500D02*
X-72117Y17883D01*
X47500Y182714D02*
Y182929D01*
X49362Y184791D01*
X32500Y172286D02*
X47500D01*
X27500Y177500D02*
X32500Y172500D01*
Y172286D02*
Y172500D01*
Y182714D02*
X47500D01*
X27500Y177500D02*
X32500Y182500D01*
Y182714D01*
X49148Y145638D02*
X51862D01*
X47286Y147500D02*
X49148Y145638D01*
X51862D02*
X57500Y140000D01*
X47286Y132500D02*
Y147500D01*
Y102500D02*
Y117500D01*
X48189Y116596D02*
X55362D01*
X56959Y115000D02*
X57500D01*
X47286Y117500D02*
X48189Y116596D01*
X55362D02*
X56959Y115000D01*
X49148Y89362D02*
X53821D01*
X47286Y87500D02*
X49148Y89362D01*
X53821D02*
X56959Y92500D01*
X-45000Y220214D02*
X-30000D01*
X197250Y90750D02*
X209750D01*
X210000Y91000D01*
X197000Y90500D02*
X197250Y90750D01*
D76*
X27500Y-115000D02*
Y-45000D01*
X42500Y-30000D01*
X65000D01*
D78*
X200000Y-73050D02*
D03*
Y73050D02*
D03*
X-200000Y-73050D02*
D03*
Y73050D02*
D03*
X200000Y-73050D02*
D03*
Y73050D02*
D03*
X-200000Y-73050D02*
D03*
Y73050D02*
D03*
D79*
X-155143Y82072D02*
D03*
X-165286Y89715D02*
D03*
X-147500Y92214D02*
D03*
X-157643Y99857D02*
D03*
X-139857Y102357D02*
D03*
X-150000Y110000D02*
D03*
X-132214Y112500D02*
D03*
X-142357Y120143D02*
D03*
X-124571Y122642D02*
D03*
D80*
X-134714Y130285D02*
D03*
D81*
X-8964Y201465D02*
D03*
X-20000Y205000D02*
D03*
X-90000Y215000D02*
D03*
Y207500D02*
D03*
Y200000D02*
D03*
X-72500Y232500D02*
D03*
X-22500Y242500D02*
D03*
X-15000D02*
D03*
X-53166Y186726D02*
D03*
X69000Y-66000D02*
D03*
X25000Y19000D02*
D03*
X37714Y132500D02*
D03*
X26000Y123000D02*
D03*
X49886Y20114D02*
D03*
X-161178Y162120D02*
D03*
X-179485Y136985D02*
D03*
X-128500Y-47500D02*
D03*
X-146500D02*
D03*
X-137500Y-57500D02*
D03*
X-180000Y-122500D02*
D03*
X-100000Y30000D02*
D03*
X-90000D02*
D03*
X-100000Y20000D02*
D03*
X-90000D02*
D03*
X0Y0D02*
D03*
X95000Y-38750D02*
D03*
X85000D02*
D03*
X95000Y-54350D02*
D03*
X85000D02*
D03*
X6000Y198000D02*
D03*
X80000Y216000D02*
D03*
Y222500D02*
D03*
X90000Y190000D02*
D03*
X105000Y173000D02*
D03*
X-144000Y173000D02*
D03*
X-110000Y120000D02*
D03*
X-128000Y146000D02*
D03*
X-112500Y142500D02*
D03*
X-100000D02*
D03*
X121000Y135000D02*
D03*
X136000Y153500D02*
D03*
X105000Y211250D02*
D03*
X-135000Y178500D02*
D03*
Y191250D02*
D03*
X-32000Y-53000D02*
D03*
Y-69000D02*
D03*
X-9000Y-100000D02*
D03*
X99000Y19000D02*
D03*
X227000Y-86000D02*
D03*
X180000Y-159000D02*
D03*
X126000Y-170000D02*
D03*
X84000Y-140000D02*
D03*
X51000Y-165000D02*
D03*
X30000Y-172000D02*
D03*
X-9000Y-140000D02*
D03*
X-176000Y-73000D02*
D03*
X-219000D02*
D03*
X-132000Y-148000D02*
D03*
X-46000Y-150000D02*
D03*
X-99000Y-68000D02*
D03*
X-78000Y-65000D02*
D03*
X-132000Y-77000D02*
D03*
X-107000Y-46000D02*
D03*
X-19000Y122000D02*
D03*
X-16000Y185000D02*
D03*
X-24000Y160000D02*
D03*
X-11000Y149000D02*
D03*
X-43000Y146000D02*
D03*
X-45000Y162000D02*
D03*
X-34000Y196000D02*
D03*
X-56000Y174000D02*
D03*
X-57750Y100250D02*
D03*
X-57500Y110000D02*
D03*
Y117500D02*
D03*
X-50000Y87500D02*
D03*
X-27500Y205000D02*
D03*
X-35000D02*
D03*
X35000Y10000D02*
D03*
X82500Y-17500D02*
D03*
X57500Y155000D02*
D03*
X-57500Y162500D02*
D03*
X57500Y172500D02*
D03*
X67500Y222500D02*
D03*
X57500Y207500D02*
D03*
Y187500D02*
D03*
X-117500Y177500D02*
D03*
X-105000Y211250D02*
D03*
X-90000Y185000D02*
D03*
X20000Y118000D02*
D03*
X15000Y145000D02*
D03*
X20000Y190000D02*
D03*
X17500Y237500D02*
D03*
X10000D02*
D03*
X-100000Y118500D02*
D03*
X-90000Y110000D02*
D03*
Y117500D02*
D03*
Y135000D02*
D03*
X90000Y177500D02*
D03*
X105035Y54964D02*
D03*
X117500Y-12500D02*
D03*
X25000Y237500D02*
D03*
X32500D02*
D03*
X132000Y180500D02*
D03*
X210000Y120000D02*
D03*
X222500Y90000D02*
D03*
X117500Y-74500D02*
D03*
X-62500Y-125000D02*
D03*
X92500Y95000D02*
D03*
X145000Y65000D02*
D03*
X135000Y55000D02*
D03*
X-107500Y95000D02*
D03*
X-197500Y90000D02*
D03*
X-85000Y-17500D02*
D03*
X-140000Y-2500D02*
D03*
X-117500Y5000D02*
D03*
X-2500Y55000D02*
D03*
X30112Y40000D02*
D03*
X5032D02*
D03*
X60000Y-70000D02*
D03*
X93000Y-75000D02*
D03*
X-90000Y192500D02*
D03*
X-10000Y114000D02*
D03*
X17500Y97500D02*
D03*
X105000Y-12500D02*
D03*
X-155000Y57500D02*
D03*
X-115000Y25000D02*
D03*
X148000Y180500D02*
D03*
X132000Y189500D02*
D03*
X147500Y-85000D02*
D03*
X150000Y-117500D02*
D03*
X80000Y42500D02*
D03*
X-30000Y-20000D02*
D03*
X-72500Y32500D02*
D03*
X-55000Y57500D02*
D03*
X-72500Y25000D02*
D03*
X12500Y165000D02*
D03*
X57500Y122500D02*
D03*
X170000Y172500D02*
D03*
X-10000Y-35000D02*
D03*
X-42500Y205000D02*
D03*
X-122500Y75214D02*
D03*
X75000Y77500D02*
D03*
X70000Y65000D02*
D03*
X57500Y92500D02*
D03*
X-155000Y50000D02*
D03*
X-142500Y70000D02*
D03*
X-172500Y-152500D02*
D03*
X-187500D02*
D03*
X-180000D02*
D03*
X-190000Y-127500D02*
D03*
X-165000Y115000D02*
D03*
X4920Y54920D02*
D03*
Y47500D02*
D03*
X-30000Y40000D02*
D03*
Y15000D02*
D03*
X-17500Y87500D02*
D03*
X-28214Y87786D02*
D03*
X-42500Y87500D02*
D03*
X-35000D02*
D03*
X-10000D02*
D03*
X70000Y42500D02*
D03*
X-89965Y169965D02*
D03*
X-90103Y163032D02*
D03*
X10000Y97500D02*
D03*
X-17500Y-35000D02*
D03*
X15000D02*
D03*
X175000Y75000D02*
D03*
X-22500Y57484D02*
D03*
X-80000Y47484D02*
D03*
X-87500D02*
D03*
X-72500D02*
D03*
X-95000Y65000D02*
D03*
X165000Y180000D02*
D03*
X157500D02*
D03*
X132500Y75000D02*
D03*
X-117500Y65000D02*
D03*
X5000Y62500D02*
D03*
Y205000D02*
D03*
X20000D02*
D03*
X-22500Y50000D02*
D03*
X-95139Y84861D02*
D03*
X-57500Y205000D02*
D03*
X27500Y204484D02*
D03*
X12500Y205000D02*
D03*
X-32500Y-7500D02*
D03*
X35516Y-20000D02*
D03*
X77500Y65000D02*
D03*
X-90000Y142500D02*
D03*
X-128100Y-15750D02*
D03*
X45000Y-75000D02*
D03*
X5000Y-65000D02*
D03*
X139000Y1000D02*
D03*
X140000Y-55000D02*
D03*
X98000Y55000D02*
D03*
X117500Y-110000D02*
D03*
X182500Y-72500D02*
D03*
X175000Y-85000D02*
D03*
X145000Y-105000D02*
D03*
Y-152500D02*
D03*
X45000Y-67500D02*
D03*
X73000Y1000D02*
D03*
X62000D02*
D03*
X217500Y-110000D02*
D03*
X-172500Y134968D02*
D03*
X-190000Y135000D02*
D03*
X-172500Y127500D02*
D03*
X-165000Y125000D02*
D03*
X-180000Y130000D02*
D03*
X57500Y140000D02*
D03*
Y115000D02*
D03*
X-106100Y-115000D02*
D03*
X-72500Y10000D02*
D03*
Y40000D02*
D03*
Y17500D02*
D03*
X-95000Y-137500D02*
D03*
Y-147500D02*
D03*
X197000Y90500D02*
D03*
Y99500D02*
D03*
X145000Y55000D02*
D03*
X198000Y120500D02*
D03*
Y129500D02*
D03*
X178000Y150500D02*
D03*
Y159500D02*
D03*
X-140000Y22500D02*
D03*
D82*
X-182850Y-6334D02*
D03*
X-217150Y-44750D02*
D03*
X-182850Y-44450D02*
D03*
Y-19334D02*
D03*
Y-31750D02*
D03*
X-217150D02*
D03*
Y57150D02*
D03*
Y-6350D02*
D03*
Y19050D02*
D03*
Y31750D02*
D03*
Y44450D02*
D03*
Y6350D02*
D03*
X-182850Y44450D02*
D03*
Y6350D02*
D03*
Y19050D02*
D03*
Y31750D02*
D03*
Y-57150D02*
D03*
X-217150D02*
D03*
Y-19050D02*
D03*
X217150Y31750D02*
D03*
Y44450D02*
D03*
Y57150D02*
D03*
X182850D02*
D03*
Y44450D02*
D03*
Y31750D02*
D03*
Y19050D02*
D03*
X217150D02*
D03*
Y6350D02*
D03*
X182850D02*
D03*
X217150Y-57150D02*
D03*
Y-44450D02*
D03*
Y-31750D02*
D03*
Y-19050D02*
D03*
Y-6350D02*
D03*
X182850D02*
D03*
Y-19050D02*
D03*
Y-31750D02*
D03*
Y-44450D02*
D03*
Y-57150D02*
D03*
X-182850Y57150D02*
D03*
D84*
X-146500Y-47500D02*
D03*
X-128500D02*
D03*
D85*
X0Y0D02*
D03*
D86*
X-19750Y12500D02*
D03*
Y7500D02*
D03*
Y2500D02*
D03*
Y-2500D02*
D03*
Y-7500D02*
D03*
Y-12500D02*
D03*
X19750D02*
D03*
Y-7500D02*
D03*
Y-2500D02*
D03*
Y2500D02*
D03*
Y7500D02*
D03*
Y12500D02*
D03*
D87*
X-12500Y-19750D02*
D03*
X-7500D02*
D03*
X-2500D02*
D03*
X2500D02*
D03*
X7500D02*
D03*
X12500D02*
D03*
Y19750D02*
D03*
X7500D02*
D03*
X2500D02*
D03*
X-2500D02*
D03*
X-7500D02*
D03*
X-12500D02*
D03*
D88*
X90000Y-38750D02*
D03*
D89*
Y-54350D02*
D03*
D90*
X102500Y-25750D02*
D03*
X97500D02*
D03*
X92500D02*
D03*
X87500D02*
D03*
X82500D02*
D03*
X77500D02*
D03*
Y-64250D02*
D03*
X82500D02*
D03*
X87500D02*
D03*
X92500D02*
D03*
X97500D02*
D03*
X102500D02*
D03*
D91*
X70750Y-32500D02*
D03*
Y-37500D02*
D03*
Y-42500D02*
D03*
Y-47500D02*
D03*
Y-52500D02*
D03*
Y-57500D02*
D03*
X109250D02*
D03*
Y-52500D02*
D03*
Y-47500D02*
D03*
Y-42500D02*
D03*
Y-37500D02*
D03*
Y-32500D02*
D03*
D92*
X-130900Y-35000D02*
D03*
X-144100D02*
D03*
D93*
X-125500Y55000D02*
D03*
X-144500Y61500D02*
D03*
Y48500D02*
D03*
X100500Y118500D02*
D03*
Y131500D02*
D03*
X119500Y125000D02*
D03*
D94*
X150000Y-43335D02*
D03*
Y-16665D02*
D03*
D95*
X35000Y-112750D02*
D03*
X55000D02*
D03*
X75000D02*
D03*
X95000D02*
D03*
D96*
X123950Y-172500D02*
D03*
X6050D02*
D03*
D97*
X185000Y-147000D02*
D03*
X191500Y-128000D02*
D03*
X178500D02*
D03*
X68500Y52000D02*
D03*
X81500D02*
D03*
X75000Y33000D02*
D03*
X178500Y-95500D02*
D03*
X191500D02*
D03*
X185000Y-114500D02*
D03*
D98*
X-205191Y113912D02*
D03*
X-194809Y106088D02*
D03*
D99*
X-141178Y147120D02*
D03*
X-148822Y152880D02*
D03*
X-168822Y167880D02*
D03*
X-161178Y162120D02*
D03*
D100*
X166750Y-112500D02*
D03*
Y-117500D02*
D03*
Y-122500D02*
D03*
X138250D02*
D03*
Y-117500D02*
D03*
Y-112500D02*
D03*
D101*
X152500Y-117500D02*
D03*
D102*
X11000Y177000D02*
D03*
X19000D02*
D03*
D103*
X-177696Y151353D02*
D03*
X-173702Y148343D02*
D03*
X-169708Y145333D02*
D03*
X-165714Y142323D02*
D03*
X-161719Y139313D02*
D03*
X-157725Y136304D02*
D03*
X-153731Y133294D02*
D03*
X-172304Y108647D02*
D03*
X-176298Y111657D02*
D03*
X-180292Y114667D02*
D03*
X-184286Y117677D02*
D03*
X-188281Y120687D02*
D03*
X-192275Y123696D02*
D03*
X-196269Y126706D02*
D03*
D104*
X213650Y-57150D02*
D03*
Y-44450D02*
D03*
Y-31750D02*
D03*
Y-19050D02*
D03*
Y-6350D02*
D03*
Y6350D02*
D03*
Y19050D02*
D03*
Y31750D02*
D03*
Y44450D02*
D03*
Y57150D02*
D03*
X186350Y-57150D02*
D03*
Y-44450D02*
D03*
Y-31750D02*
D03*
Y-19050D02*
D03*
Y-6350D02*
D03*
Y6350D02*
D03*
Y19050D02*
D03*
Y31750D02*
D03*
Y44450D02*
D03*
Y57150D02*
D03*
X-186350Y-57150D02*
D03*
Y-44450D02*
D03*
Y-31750D02*
D03*
Y-19050D02*
D03*
Y-6350D02*
D03*
Y6350D02*
D03*
Y19050D02*
D03*
Y31750D02*
D03*
Y44450D02*
D03*
Y57150D02*
D03*
X-213650Y-57150D02*
D03*
Y-44450D02*
D03*
Y-31750D02*
D03*
Y-19050D02*
D03*
Y-6350D02*
D03*
Y6350D02*
D03*
Y19050D02*
D03*
Y31750D02*
D03*
Y44450D02*
D03*
Y57150D02*
D03*
M02*
