G04*
G04 #@! TF.GenerationSoftware,Altium Limited,Altium Designer,24.4.1 (13)*
G04*
G04 Layer_Color=32896*
%FSLAX44Y44*%
%MOMM*%
G71*
G04*
G04 #@! TF.SameCoordinates,55532D4A-085B-46E5-86D8-018E79720E20*
G04*
G04*
G04 #@! TF.FilePolarity,Positive*
G04*
G01*
G75*
%ADD10C,0.1000*%
%ADD11C,0.2500*%
%ADD12C,0.2000*%
%ADD14C,0.1500*%
%ADD117C,0.1524*%
%ADD118C,0.0762*%
G36*
X-186285Y109880D02*
X-187813Y107851D01*
X-184771Y105558D01*
X-183242Y107587D01*
X-186285Y109880D01*
D02*
G37*
D10*
X-144000Y-41000D02*
G03*
X-144000Y-41000I-500J0D01*
G01*
D11*
X-20250Y29500D02*
G03*
X-20250Y29500I-1250J0D01*
G01*
X119750Y-24500D02*
G03*
X119750Y-24500I-1250J0D01*
G01*
X-143250Y39500D02*
G03*
X-143250Y39500I-1250J0D01*
G01*
X96250Y-99750D02*
G03*
X96250Y-99750I-1250J0D01*
G01*
X101750Y109500D02*
G03*
X101750Y109500I-1250J0D01*
G01*
X170750Y-128000D02*
G03*
X170750Y-128000I-1250J0D01*
G01*
X60750Y52000D02*
G03*
X60750Y52000I-1250J0D01*
G01*
X170750Y-95500D02*
G03*
X170750Y-95500I-1250J0D01*
G01*
X178250Y-112500D02*
G03*
X178250Y-112500I-1250J0D01*
G01*
D12*
X170250Y57150D02*
G03*
X170250Y57150I-1000J0D01*
G01*
X-229750D02*
G03*
X-229750Y57150I-1000J0D01*
G01*
X-8000Y223000D02*
Y227000D01*
X-22000Y223000D02*
Y227000D01*
X7000Y223000D02*
Y227000D01*
X-7000Y223000D02*
Y227000D01*
X-137750Y-52500D02*
X-137250D01*
X-137750Y-42500D02*
X-137250D01*
X23000Y18250D02*
Y23000D01*
X18250D02*
X23000D01*
Y-23000D02*
Y-18250D01*
X18250Y-23000D02*
X23000D01*
X-23000D02*
X-18250D01*
X-23000D02*
Y-18250D01*
Y18250D02*
Y23000D01*
X-18250D01*
X107750Y-67000D02*
X112000D01*
Y-62750D01*
X68000Y-67000D02*
X72250D01*
X68000D02*
Y-62750D01*
Y-27250D02*
Y-23000D01*
X72250D01*
X107750D02*
X112000D01*
Y-27250D02*
Y-23000D01*
X-128000Y183000D02*
Y187000D01*
X-142000Y183000D02*
Y187000D01*
X68000Y198000D02*
Y202000D01*
X82000Y198000D02*
Y202000D01*
X83000Y165500D02*
Y169500D01*
X97000Y165500D02*
Y169500D01*
X-74500Y165500D02*
X-70500D01*
X-74500Y179500D02*
X-70500D01*
X-74500Y150500D02*
X-70500D01*
X-74500Y164500D02*
X-70500D01*
X-112000Y184500D02*
X-108000D01*
X-112000Y170500D02*
X-108000D01*
X127000Y198000D02*
Y202000D01*
X113000Y198000D02*
Y202000D01*
Y173000D02*
Y177000D01*
X127000Y173000D02*
Y177000D01*
X159500Y95500D02*
Y99500D01*
X145500Y95500D02*
Y99500D01*
X130500Y95500D02*
Y99500D01*
X144500Y95500D02*
Y99500D01*
X112000Y-6000D02*
Y-2000D01*
X98000Y-6000D02*
Y-2000D01*
X-139500Y28000D02*
X-135500D01*
X-139500Y42000D02*
X-135500D01*
X-138240Y-31000D02*
X-136760D01*
X-138240Y-38998D02*
X-136760D01*
X-139500Y2000D02*
X-135500D01*
X-139500Y-12000D02*
X-135500D01*
X-139500Y3000D02*
X-135500D01*
X-139500Y17000D02*
X-135500D01*
X-128250Y62500D02*
Y66000D01*
X-136250D02*
X-128250D01*
Y44000D02*
Y47500D01*
X-136250Y44000D02*
X-128250D01*
X158255Y-33870D02*
Y-26130D01*
X141745Y-33870D02*
Y-26130D01*
X12362Y-58362D02*
Y-41638D01*
X-2362Y-58362D02*
Y-41638D01*
X-193148Y-114923D02*
X-176423D01*
X-193148Y-129648D02*
X-176423D01*
X4250Y-154250D02*
Y-111000D01*
X104250D02*
X125750D01*
X4250D02*
X25750D01*
X125750Y-154250D02*
Y-111000D01*
X16550Y-189000D02*
X113450D01*
X78000Y123000D02*
Y127000D01*
X92000Y123000D02*
Y127000D01*
X77000Y123000D02*
Y127000D01*
X63000Y123000D02*
Y127000D01*
X108750Y114000D02*
X116750D01*
Y117500D01*
X108750Y136000D02*
X116750D01*
Y132500D02*
Y136000D01*
X40500Y215500D02*
X44500D01*
X40500Y229500D02*
X44500D01*
X-3000Y-52000D02*
Y-48000D01*
X-17000Y-52000D02*
Y-48000D01*
X-63000Y70500D02*
Y74500D01*
X-77000Y70500D02*
Y74500D01*
X-78000Y70500D02*
Y74500D01*
X-92000Y70500D02*
Y74500D01*
X-100500Y70500D02*
Y74500D01*
X-114500Y70500D02*
Y74500D01*
X82638Y64138D02*
Y80862D01*
X97362Y64138D02*
Y80862D01*
X97638Y64138D02*
Y80862D01*
X112362Y64138D02*
Y80862D01*
X-139500Y-13000D02*
X-135500D01*
X-139500Y-27000D02*
X-135500D01*
X-120862Y-134862D02*
X-104138D01*
X-120862Y-120138D02*
X-104138D01*
X-120862Y-109862D02*
X-104138D01*
X-120862Y-95138D02*
X-104138D01*
X-74500Y120500D02*
X-70500D01*
X-74500Y134500D02*
X-70500D01*
X-74500Y135500D02*
X-70500D01*
X-74500Y149500D02*
X-70500D01*
X-47000Y70500D02*
Y74500D01*
X-33000Y70500D02*
Y74500D01*
X-62000Y70500D02*
Y74500D01*
X-48000Y70500D02*
Y74500D01*
X-42000Y107000D02*
X-38000D01*
X-42000Y93000D02*
X-38000D01*
X-32000Y70500D02*
Y74500D01*
X-18000Y70500D02*
Y74500D01*
X15500Y80500D02*
X19500D01*
X15500Y94500D02*
X19500D01*
X15500Y100500D02*
X19500D01*
X15500Y114500D02*
X19500D01*
X123000Y-47000D02*
Y-43000D01*
X137000Y-47000D02*
Y-43000D01*
X137362Y-30862D02*
Y-14138D01*
X122638Y-30862D02*
Y-14138D01*
X95500Y-92000D02*
Y-88000D01*
X109500Y-92000D02*
Y-88000D01*
X174500Y95500D02*
Y99500D01*
X160500Y95500D02*
Y99500D01*
X164500Y-64500D02*
Y-60500D01*
X150500Y-64500D02*
Y-60500D01*
X192500Y-144250D02*
X196000D01*
Y-136250D01*
X174000Y-144250D02*
X177500D01*
X174000D02*
Y-136250D01*
X152362Y-178362D02*
Y-161638D01*
X137638Y-178362D02*
Y-161638D01*
X212000Y-119500D02*
Y-115500D01*
X198000Y-119500D02*
Y-115500D01*
X155500Y-92000D02*
Y-88000D01*
X169500Y-92000D02*
Y-88000D01*
X158000Y-144500D02*
Y-140500D01*
X172000Y-144500D02*
Y-140500D01*
X208000Y-104500D02*
X212000D01*
X208000Y-90500D02*
X212000D01*
X158000Y-169500D02*
Y-165500D01*
X172000Y-169500D02*
Y-165500D01*
X140138Y-98362D02*
Y-81638D01*
X154862Y-98362D02*
Y-81638D01*
X143000Y-147000D02*
X147000D01*
X143000Y-133000D02*
X147000D01*
X125500Y-92000D02*
Y-88000D01*
X139500Y-92000D02*
Y-88000D01*
X82362Y-98362D02*
Y-81638D01*
X67638Y-98362D02*
Y-81638D01*
X67000Y-92000D02*
Y-88000D01*
X53000Y-92000D02*
Y-88000D01*
X124138Y-60138D02*
X140862D01*
X124138Y-74862D02*
X140862D01*
X124500Y-92000D02*
Y-88000D01*
X110500Y-92000D02*
Y-88000D01*
X94862Y-98362D02*
Y-81638D01*
X80138Y-98362D02*
Y-81638D01*
X52000Y-92000D02*
Y-88000D01*
X38000Y-92000D02*
Y-88000D01*
X59862Y-60862D02*
Y-44138D01*
X45138Y-60862D02*
Y-44138D01*
X47000Y43000D02*
Y47000D01*
X33000Y43000D02*
Y47000D01*
X48000Y43000D02*
Y47000D01*
X62000Y43000D02*
Y47000D01*
X56638Y10138D02*
X73362D01*
X56638Y24862D02*
X73362D01*
X76638D02*
X93362D01*
X76638Y10138D02*
X93362D01*
X34138Y94862D02*
X50862D01*
X34138Y80138D02*
X50862D01*
X-197385Y116794D02*
X-194190Y114387D01*
X-205810Y105613D02*
X-202615Y103206D01*
X-112000Y169500D02*
X-108000D01*
X-112000Y155500D02*
X-108000D01*
X-112000Y199500D02*
X-108000D01*
X-112000Y185500D02*
X-108000D01*
X189250Y124750D02*
X193250D01*
X189250Y138750D02*
X193250D01*
X189250Y111250D02*
X193250D01*
X189250Y125250D02*
X193250D01*
X169250Y154750D02*
X173250D01*
X169250Y168750D02*
X173250D01*
X169250Y141250D02*
X173250D01*
X169250Y155250D02*
X173250D01*
X98000Y198000D02*
Y202000D01*
X112000Y198000D02*
Y202000D01*
X40138Y159138D02*
Y175862D01*
X54862Y159138D02*
Y175862D01*
X34138Y124862D02*
X50862D01*
X34138Y110138D02*
X50862D01*
X-48362Y107638D02*
X-31638D01*
X-48362Y122362D02*
X-31638D01*
X-37638Y216638D02*
Y233362D01*
X-52362Y216638D02*
Y233362D01*
X54862Y179138D02*
Y195862D01*
X40138Y179138D02*
Y195862D01*
X-83362Y107362D02*
X-66638D01*
X-83362Y92638D02*
X-66638D01*
X-52638Y216638D02*
Y233362D01*
X-67362Y216638D02*
Y233362D01*
X34138Y214862D02*
X50862D01*
X34138Y200138D02*
X50862D01*
X34138Y139862D02*
X50862D01*
X34138Y125138D02*
X50862D01*
X34138Y154862D02*
X50862D01*
X34138Y140138D02*
X50862D01*
X-48362Y122638D02*
X-31638D01*
X-48362Y137362D02*
X-31638D01*
X-22638Y216638D02*
Y233362D01*
X-37362Y216638D02*
Y233362D01*
X82362Y159138D02*
Y175862D01*
X67638Y159138D02*
Y175862D01*
X-118362Y200138D02*
X-101638D01*
X-118362Y214862D02*
X-101638D01*
X82638Y191638D02*
Y208362D01*
X97362Y191638D02*
Y208362D01*
X-193362Y97362D02*
X-176638D01*
X-193362Y82638D02*
X-176638D01*
X-156109Y149153D02*
X-142752Y139088D01*
X-147248Y160912D02*
X-133891Y150847D01*
X-167248Y175912D02*
X-153891Y165847D01*
X-176109Y164153D02*
X-162752Y154088D01*
X9138Y229862D02*
X25862D01*
X9138Y215138D02*
X25862D01*
X25138Y159138D02*
Y175862D01*
X39862Y159138D02*
Y175862D01*
X34138Y109862D02*
X50862D01*
X34138Y95138D02*
X50862D01*
X39862Y179138D02*
Y195862D01*
X25138Y179138D02*
Y195862D01*
X203000Y95500D02*
Y99500D01*
X217000Y95500D02*
Y99500D01*
X175500Y95500D02*
Y99500D01*
X189500Y95500D02*
Y99500D01*
X98000Y173000D02*
Y177000D01*
X112000Y173000D02*
Y177000D01*
X-107000Y38000D02*
X-103000D01*
X-107000Y52000D02*
X-103000D01*
X-52000D02*
X-48000D01*
X-52000Y38000D02*
X-48000D01*
X-58362Y37362D02*
X-41638D01*
X-58362Y22638D02*
X-41638D01*
X-58362Y22362D02*
X-41638D01*
X-58362Y7638D02*
X-41638D01*
X-107000Y37000D02*
X-103000D01*
X-107000Y23000D02*
X-103000D01*
X-52000Y-15500D02*
X-48000D01*
X-52000Y-29500D02*
X-48000D01*
X36638Y24862D02*
X53362D01*
X36638Y10138D02*
X53362D01*
X36638Y9862D02*
X53362D01*
X36638Y-4862D02*
X53362D01*
X36638Y-5138D02*
X53362D01*
X36638Y-19862D02*
X53362D01*
X-58362Y-14862D02*
X-41638D01*
X-58362Y-138D02*
X-41638D01*
X64000Y35750D02*
Y43750D01*
Y35750D02*
X67500D01*
X86000D02*
Y43750D01*
X82500Y35750D02*
X86000D01*
X174000Y-111750D02*
Y-103750D01*
Y-111750D02*
X177500D01*
X196000D02*
Y-103750D01*
X192500Y-111750D02*
X196000D01*
X164500Y-107000D02*
X168000D01*
X137000D02*
X140500D01*
X137000Y-128000D02*
Y-127500D01*
Y-107500D02*
Y-107000D01*
X164500Y-128000D02*
X168000D01*
X137000D02*
X140500D01*
X168000D02*
Y-127500D01*
Y-107500D02*
Y-107000D01*
X9750Y170750D02*
X20250D01*
X9750Y183250D02*
X20250D01*
X215250Y-65400D02*
Y-64350D01*
Y64350D02*
Y65400D01*
X184750Y-65400D02*
Y-64350D01*
Y64350D02*
Y65400D01*
X193650D01*
X184750Y-65400D02*
X193650D01*
X206350Y65400D02*
X215250D01*
X206350Y-65400D02*
X215250D01*
X-184750D02*
Y-64350D01*
Y64350D02*
Y65400D01*
X-215250Y-65400D02*
Y-64350D01*
Y64350D02*
Y65400D01*
X-206350D01*
X-215250Y-65400D02*
X-206350D01*
X-193650Y65400D02*
X-184750D01*
X-193650Y-65400D02*
X-184750D01*
D14*
X167492Y6597D02*
Y11595D01*
X164993Y14095D01*
X162494Y11595D01*
Y6597D01*
Y10346D01*
X167492D01*
X154996Y12845D02*
X156246Y14095D01*
X158745D01*
X159994Y12845D01*
Y7847D01*
X158745Y6597D01*
X156246D01*
X154996Y7847D01*
X152497Y14095D02*
X147498D01*
X149998D01*
Y6597D01*
X137502D02*
Y14095D01*
X133753D01*
X132503Y12845D01*
Y10346D01*
X133753Y9096D01*
X137502D01*
X130004Y14095D02*
Y6597D01*
X127505Y9096D01*
X125006Y6597D01*
Y14095D01*
X122506Y6597D02*
Y14095D01*
X118758D01*
X117508Y12845D01*
Y10346D01*
X118758Y9096D01*
X122506D01*
X120007D02*
X117508Y6597D01*
X156246Y-6000D02*
Y1498D01*
X152497D01*
X151247Y248D01*
Y-2251D01*
X152497Y-3501D01*
X156246D01*
X148748Y-6000D02*
Y1498D01*
X144999D01*
X143750Y248D01*
Y-2251D01*
X144999Y-3501D01*
X148748D01*
X146249D02*
X143750Y-6000D01*
X137502Y1498D02*
X140001D01*
X141250Y248D01*
Y-4750D01*
X140001Y-6000D01*
X137502D01*
X136252Y-4750D01*
Y248D01*
X137502Y1498D01*
X133753D02*
X128754D01*
X131254D01*
Y-6000D01*
X89992Y-183500D02*
Y-178502D01*
X87493Y-176002D01*
X84994Y-178502D01*
Y-183500D01*
Y-179751D01*
X89992D01*
X77496Y-177252D02*
X78746Y-176002D01*
X81245D01*
X82494Y-177252D01*
Y-182250D01*
X81245Y-183500D01*
X78746D01*
X77496Y-182250D01*
X74997Y-176002D02*
X69998D01*
X72498D01*
Y-183500D01*
X60002D02*
Y-176002D01*
X56253D01*
X55003Y-177252D01*
Y-179751D01*
X56253Y-181001D01*
X60002D01*
X52504Y-176002D02*
Y-183500D01*
X50005Y-181001D01*
X47506Y-183500D01*
Y-176002D01*
X45006Y-183500D02*
Y-176002D01*
X41258D01*
X40008Y-177252D01*
Y-179751D01*
X41258Y-181001D01*
X45006D01*
X42507D02*
X40008Y-183500D01*
D117*
X-200263Y134248D02*
X-197965Y132516D01*
X-163953Y106886D02*
X-149737Y125752D01*
X-166251Y108618D02*
X-163953Y106886D01*
X-200263Y134248D02*
X-186047Y153114D01*
X-183749Y151382D01*
X-152035Y127484D02*
X-149737Y125752D01*
D118*
X-184126Y163354D02*
X-182460Y151501D01*
X-177367Y158260D02*
X-189220Y156595D01*
X-180747Y160807D02*
X-185840Y154048D01*
X-179914Y154881D02*
X-186673Y159974D01*
M02*
