G04*
G04 #@! TF.GenerationSoftware,Altium Limited,Altium Designer,24.4.1 (13)*
G04*
G04 Layer_Physical_Order=1*
G04 Layer_Color=255*
%FSLAX44Y44*%
%MOMM*%
G71*
G04*
G04 #@! TF.SameCoordinates,55532D4A-085B-46E5-86D8-018E79720E20*
G04*
G04*
G04 #@! TF.FilePolarity,Positive*
G04*
G01*
G75*
%ADD12C,0.2000*%
%ADD17R,0.5500X0.3500*%
%ADD18R,1.6200X2.4000*%
%ADD19R,1.0000X2.7000*%
%ADD20R,0.6000X1.7000*%
G04:AMPARAMS|DCode=21|XSize=0.95mm|YSize=0.8mm|CornerRadius=0.1mm|HoleSize=0mm|Usage=FLASHONLY|Rotation=90.000|XOffset=0mm|YOffset=0mm|HoleType=Round|Shape=RoundedRectangle|*
%AMROUNDEDRECTD21*
21,1,0.9500,0.6000,0,0,90.0*
21,1,0.7500,0.8000,0,0,90.0*
1,1,0.2000,0.3000,0.3750*
1,1,0.2000,0.3000,-0.3750*
1,1,0.2000,-0.3000,-0.3750*
1,1,0.2000,-0.3000,0.3750*
%
%ADD21ROUNDEDRECTD21*%
%ADD22R,0.7154X0.6725*%
%ADD23R,0.4500X1.1000*%
G04:AMPARAMS|DCode=24|XSize=1.1mm|YSize=0.45mm|CornerRadius=0mm|HoleSize=0mm|Usage=FLASHONLY|Rotation=125.000|XOffset=0mm|YOffset=0mm|HoleType=Round|Shape=Rectangle|*
%AMROTATEDRECTD24*
4,1,4,0.4998,-0.3215,0.1312,-0.5796,-0.4998,0.3215,-0.1312,0.5796,0.4998,-0.3215,0.0*
%
%ADD24ROTATEDRECTD24*%

%ADD25R,1.2000X1.4000*%
%ADD26R,0.6725X0.7154*%
%ADD27R,0.5750X1.1400*%
%ADD28R,0.6500X0.6500*%
%ADD29R,2.9200X0.7400*%
%ADD30R,0.9000X2.2500*%
%ADD31R,0.9000X2.8000*%
%ADD32R,0.8000X1.5000*%
%ADD33R,1.3000X1.4000*%
%ADD34R,1.0000X0.9500*%
%ADD35R,1.4000X1.9000*%
G04:AMPARAMS|DCode=36|XSize=0.2125mm|YSize=1.3552mm|CornerRadius=0.1062mm|HoleSize=0mm|Usage=FLASHONLY|Rotation=180.000|XOffset=0mm|YOffset=0mm|HoleType=Round|Shape=RoundedRectangle|*
%AMROUNDEDRECTD36*
21,1,0.2125,1.1428,0,0,180.0*
21,1,0.0000,1.3552,0,0,180.0*
1,1,0.2125,0.0000,0.5714*
1,1,0.2125,0.0000,0.5714*
1,1,0.2125,0.0000,-0.5714*
1,1,0.2125,0.0000,-0.5714*
%
%ADD36ROUNDEDRECTD36*%
G04:AMPARAMS|DCode=37|XSize=1.3552mm|YSize=0.2125mm|CornerRadius=0.1062mm|HoleSize=0mm|Usage=FLASHONLY|Rotation=180.000|XOffset=0mm|YOffset=0mm|HoleType=Round|Shape=RoundedRectangle|*
%AMROUNDEDRECTD37*
21,1,1.3552,0.0000,0,0,180.0*
21,1,1.1428,0.2125,0,0,180.0*
1,1,0.2125,-0.5714,0.0000*
1,1,0.2125,0.5714,0.0000*
1,1,0.2125,0.5714,0.0000*
1,1,0.2125,-0.5714,0.0000*
%
%ADD37ROUNDEDRECTD37*%
%ADD38R,1.3552X0.2125*%
%ADD39R,0.8000X1.5500*%
%ADD40R,0.6500X0.6500*%
G04:AMPARAMS|DCode=41|XSize=0.95mm|YSize=0.8mm|CornerRadius=0.1mm|HoleSize=0mm|Usage=FLASHONLY|Rotation=0.000|XOffset=0mm|YOffset=0mm|HoleType=Round|Shape=RoundedRectangle|*
%AMROUNDEDRECTD41*
21,1,0.9500,0.6000,0,0,0.0*
21,1,0.7500,0.8000,0,0,0.0*
1,1,0.2000,0.3750,-0.3000*
1,1,0.2000,-0.3750,-0.3000*
1,1,0.2000,-0.3750,0.3000*
1,1,0.2000,0.3750,0.3000*
%
%ADD41ROUNDEDRECTD41*%
%ADD42R,0.8000X0.5000*%
%ADD43C,0.2300*%
%ADD44O,0.5500X0.3500*%
%ADD45O,0.3500X0.5500*%
%ADD46R,0.8500X0.6250*%
%ADD47R,1.5000X0.5500*%
%ADD48R,0.6000X1.1000*%
%ADD59R,1.0500X2.2000*%
%ADD60R,1.0000X1.0500*%
%ADD72C,0.3000*%
%ADD73C,0.6000*%
%ADD74C,0.1994*%
%ADD75C,0.2540*%
%ADD76C,1.5000*%
%ADD77C,0.7500*%
%ADD78C,1.4000*%
%ADD79C,1.0600*%
%ADD80P,1.4991X4X98.0*%
%ADD81C,0.5000*%
%ADD82C,0.7000*%
G36*
X10895Y247833D02*
X25706Y246737D01*
X40425Y244756D01*
X54999Y241898D01*
X69376Y238174D01*
X83504Y233595D01*
X97333Y228180D01*
X110813Y221946D01*
X123896Y214917D01*
X136535Y207118D01*
X148684Y198577D01*
X160301Y189323D01*
X164807Y185270D01*
X164320Y184000D01*
X164204D01*
X162734Y183391D01*
X162073Y182730D01*
X161250Y182407D01*
X160427Y182730D01*
X159766Y183391D01*
X158982Y183716D01*
Y184724D01*
X158982Y184724D01*
X158825Y185511D01*
X158379Y186178D01*
X158379Y186178D01*
X154900Y189657D01*
X154233Y190103D01*
X153447Y190259D01*
X153016Y191383D01*
Y193016D01*
X142984D01*
Y185984D01*
X152759D01*
X153769Y184974D01*
X152931Y184016D01*
X149964D01*
X148796Y184500D01*
X147204D01*
X146036Y184016D01*
X142984D01*
Y177358D01*
X142984Y176984D01*
X142085Y176087D01*
X137915D01*
X137016Y176984D01*
Y184016D01*
X133964D01*
X133943Y184025D01*
X133753Y185478D01*
X134355Y185984D01*
X137016D01*
Y193016D01*
X133964D01*
X132796Y193500D01*
X131204D01*
X130036Y193016D01*
X126984D01*
Y185984D01*
X130036D01*
X130057Y185975D01*
X130247Y184522D01*
X129644Y184016D01*
X126984D01*
Y178848D01*
X125811Y178361D01*
X102719Y201453D01*
X102052Y201899D01*
X101265Y202055D01*
X101265Y202055D01*
X83089D01*
X82704Y203326D01*
X82967Y203502D01*
X83426Y204189D01*
X83588Y205000D01*
X83426Y205811D01*
X82967Y206498D01*
X82522Y206796D01*
X82409Y207380D01*
Y207620D01*
X82522Y208204D01*
X82967Y208502D01*
X83426Y209189D01*
X83588Y210000D01*
X83426Y210811D01*
X82967Y211498D01*
X82876Y211560D01*
X82843Y211616D01*
X82723Y213061D01*
X82727Y213070D01*
X83391Y213734D01*
X84000Y215204D01*
Y216796D01*
X83391Y218266D01*
X82407Y219250D01*
X83391Y220234D01*
X84000Y221704D01*
Y223296D01*
X83391Y224766D01*
X82266Y225891D01*
X80796Y226500D01*
X79204D01*
X77734Y225891D01*
X76609Y224766D01*
X76000Y223296D01*
Y221704D01*
X76609Y220234D01*
X77593Y219250D01*
X76609Y218266D01*
X76000Y216796D01*
Y215204D01*
X76609Y213734D01*
X76954Y213389D01*
X76428Y212119D01*
X70041D01*
X69721Y212055D01*
X65979D01*
X65192Y211899D01*
X64525Y211453D01*
X64525Y211453D01*
X62269Y209198D01*
X61024Y209445D01*
X60891Y209766D01*
X59766Y210891D01*
X58296Y211500D01*
X57669D01*
X57565Y211604D01*
Y225755D01*
X57370Y226737D01*
X57119Y227112D01*
Y231469D01*
X56958Y232279D01*
X56498Y232967D01*
X55811Y233426D01*
X55000Y233588D01*
X54189Y233426D01*
X53502Y232967D01*
X53204Y232522D01*
X52620Y232409D01*
X52380D01*
X51796Y232522D01*
X51498Y232967D01*
X50811Y233426D01*
X50000Y233588D01*
X49189Y233426D01*
X48502Y232967D01*
X48204Y232522D01*
X47620Y232409D01*
X47380D01*
X46796Y232522D01*
X46498Y232967D01*
X45811Y233426D01*
X45000Y233588D01*
X44189Y233426D01*
X43502Y232967D01*
X43204Y232522D01*
X42620Y232409D01*
X42380D01*
X41796Y232522D01*
X41498Y232967D01*
X40811Y233426D01*
X40000Y233588D01*
X39189Y233426D01*
X38502Y232967D01*
X38204Y232522D01*
X37620Y232409D01*
X37380D01*
X36796Y232522D01*
X36498Y232967D01*
X35852Y233399D01*
X35809Y233433D01*
X35450Y234793D01*
X35891Y235234D01*
X36500Y236704D01*
Y238296D01*
X35891Y239766D01*
X34766Y240891D01*
X33296Y241500D01*
X31704D01*
X30234Y240891D01*
X29573Y240230D01*
X28750Y239907D01*
X27927Y240230D01*
X27266Y240891D01*
X25796Y241500D01*
X24204D01*
X22734Y240891D01*
X22073Y240230D01*
X21250Y239907D01*
X20427Y240230D01*
X19766Y240891D01*
X18296Y241500D01*
X16704D01*
X15234Y240891D01*
X14573Y240230D01*
X13750Y239907D01*
X12927Y240230D01*
X12266Y240891D01*
X10796Y241500D01*
X9204D01*
X7734Y240891D01*
X6609Y239766D01*
X6000Y238296D01*
Y236704D01*
X6609Y235234D01*
X7521Y234322D01*
X7511Y233151D01*
X7508Y233137D01*
X6498Y232967D01*
X5811Y233426D01*
X5000Y233588D01*
X4189Y233426D01*
X3502Y232967D01*
X3204Y232522D01*
X2620Y232409D01*
X2380D01*
X1796Y232522D01*
X1498Y232967D01*
X811Y233426D01*
X0Y233588D01*
X-811Y233426D01*
X-1498Y232967D01*
X-1796Y232522D01*
X-2380Y232409D01*
X-2620D01*
X-3204Y232522D01*
X-3502Y232967D01*
X-4189Y233426D01*
X-5000Y233588D01*
X-5811Y233426D01*
X-6498Y232967D01*
X-6796Y232522D01*
X-7380Y232409D01*
X-7620D01*
X-8204Y232522D01*
X-8502Y232967D01*
X-9189Y233426D01*
X-10000Y233588D01*
X-10811Y233426D01*
X-11499Y232967D01*
X-11796Y232522D01*
X-12380Y232409D01*
X-12620D01*
X-13204Y232522D01*
X-13502Y232967D01*
X-14189Y233426D01*
X-15000Y233588D01*
X-15811Y233426D01*
X-16498Y232967D01*
X-16796Y232522D01*
X-17380Y232409D01*
X-17620D01*
X-18204Y232522D01*
X-18502Y232967D01*
X-19189Y233426D01*
X-20000Y233588D01*
X-20811Y233426D01*
X-21498Y232967D01*
X-21796Y232522D01*
X-22380Y232409D01*
X-22620D01*
X-23204Y232522D01*
X-23502Y232967D01*
X-24189Y233426D01*
X-25000Y233588D01*
X-25811Y233426D01*
X-26498Y232967D01*
X-26796Y232522D01*
X-27380Y232409D01*
X-27620D01*
X-28204Y232522D01*
X-28502Y232967D01*
X-29189Y233426D01*
X-30000Y233588D01*
X-30811Y233426D01*
X-31498Y232967D01*
X-31796Y232522D01*
X-32380Y232409D01*
X-32620D01*
X-33204Y232522D01*
X-33502Y232967D01*
X-34189Y233426D01*
X-35000Y233588D01*
X-35811Y233426D01*
X-36498Y232967D01*
X-36796Y232522D01*
X-37380Y232409D01*
X-37620D01*
X-38204Y232522D01*
X-38502Y232967D01*
X-39189Y233426D01*
X-40000Y233588D01*
X-40811Y233426D01*
X-41498Y232967D01*
X-41796Y232522D01*
X-42380Y232409D01*
X-42620D01*
X-43204Y232522D01*
X-43502Y232967D01*
X-44189Y233426D01*
X-45000Y233588D01*
X-45811Y233426D01*
X-46498Y232967D01*
X-46796Y232522D01*
X-47380Y232409D01*
X-47620D01*
X-48204Y232522D01*
X-48502Y232967D01*
X-49189Y233426D01*
X-50000Y233588D01*
X-50811Y233426D01*
X-51498Y232967D01*
X-51958Y232280D01*
X-52119Y231469D01*
Y227112D01*
X-52370Y226737D01*
X-52565Y225755D01*
Y212500D01*
X-52370Y211518D01*
X-51814Y210686D01*
X-46500Y205372D01*
Y204204D01*
X-45891Y202734D01*
X-44766Y201609D01*
X-43296Y201000D01*
X-41704D01*
X-40234Y201609D01*
X-39573Y202270D01*
X-38750Y202593D01*
X-37927Y202270D01*
X-37266Y201609D01*
X-35796Y201000D01*
X-34204D01*
X-32734Y201609D01*
X-32073Y202270D01*
X-31250Y202593D01*
X-30427Y202270D01*
X-29766Y201609D01*
X-28296Y201000D01*
X-26704D01*
X-25234Y201609D01*
X-24573Y202270D01*
X-23750Y202593D01*
X-22927Y202270D01*
X-22266Y201609D01*
X-20796Y201000D01*
X-19204D01*
X-18994Y201087D01*
X-8282Y190375D01*
X-7615Y189929D01*
X-6828Y189773D01*
X10828D01*
X10828Y189773D01*
X11615Y189929D01*
X12282Y190375D01*
X18203Y196296D01*
X55423D01*
X55423Y196296D01*
X56210Y196453D01*
X56876Y196898D01*
X64228Y204250D01*
X64674Y204917D01*
X64830Y205704D01*
X64830Y205704D01*
Y205945D01*
X66830Y207945D01*
X68421D01*
X68806Y206674D01*
X68543Y206498D01*
X68083Y205811D01*
X67922Y205000D01*
X68083Y204189D01*
X68543Y203502D01*
X68987Y203204D01*
X69101Y202620D01*
Y202380D01*
X68987Y201796D01*
X68543Y201498D01*
X68083Y200811D01*
X67922Y200000D01*
X68083Y199189D01*
X68543Y198502D01*
X68987Y198204D01*
X69101Y197620D01*
Y197380D01*
X68987Y196796D01*
X68543Y196498D01*
X68083Y195811D01*
X67922Y195000D01*
X68083Y194189D01*
X68320Y193835D01*
X67895Y192730D01*
X67757Y192565D01*
X60541D01*
X59559Y192370D01*
X58727Y191814D01*
X58379Y191465D01*
X58296Y191500D01*
X56704D01*
X55234Y190891D01*
X54109Y189766D01*
X53500Y188296D01*
Y186704D01*
X54109Y185234D01*
X55234Y184109D01*
X56704Y183500D01*
X58076D01*
X58504Y182893D01*
X58699Y182327D01*
X55686Y179314D01*
X55130Y178482D01*
X54935Y177500D01*
Y175592D01*
X54109Y174766D01*
X53500Y173296D01*
Y171704D01*
X54109Y170234D01*
X55234Y169109D01*
X56704Y168500D01*
X58296D01*
X59766Y169109D01*
X60891Y170234D01*
X61500Y171704D01*
Y173296D01*
X60891Y174766D01*
X60065Y175592D01*
Y176437D01*
X66063Y182435D01*
X75755D01*
X76736Y182630D01*
X77112Y182881D01*
X81469D01*
X82280Y183042D01*
X82967Y183502D01*
X83426Y184189D01*
X83588Y185000D01*
X83426Y185811D01*
X82967Y186498D01*
X82522Y186796D01*
X82409Y187380D01*
Y187620D01*
X82522Y188204D01*
X82967Y188502D01*
X83426Y189189D01*
X83588Y190000D01*
X83426Y190811D01*
X82967Y191498D01*
X82704Y191674D01*
X83089Y192945D01*
X101149D01*
X122864Y171229D01*
X122378Y170056D01*
X96000D01*
X96000Y170056D01*
X95213Y169899D01*
X94546Y169454D01*
X94546Y169453D01*
X92149Y167055D01*
X83089D01*
X82704Y168326D01*
X82967Y168502D01*
X83426Y169189D01*
X83588Y170000D01*
X83426Y170811D01*
X82967Y171498D01*
X82704Y171674D01*
X83089Y172945D01*
X86688D01*
X86688Y172945D01*
X87475Y173101D01*
X88142Y173547D01*
X88420Y173825D01*
X89204Y173500D01*
X90796D01*
X92266Y174109D01*
X93391Y175234D01*
X94000Y176704D01*
Y178296D01*
X93391Y179766D01*
X92266Y180891D01*
X90796Y181500D01*
X89204D01*
X87734Y180891D01*
X86609Y179766D01*
X86000Y178296D01*
Y177219D01*
X85837Y177055D01*
X81788D01*
X81469Y177119D01*
X70041D01*
X69230Y176958D01*
X68543Y176498D01*
X68083Y175811D01*
X67922Y175000D01*
X68083Y174189D01*
X68543Y173502D01*
X68987Y173204D01*
X69101Y172620D01*
Y172380D01*
X68987Y171796D01*
X68543Y171498D01*
X68083Y170811D01*
X67922Y170000D01*
X68083Y169189D01*
X68543Y168502D01*
X68987Y168204D01*
X69101Y167620D01*
Y167380D01*
X68987Y166796D01*
X68543Y166498D01*
X68083Y165811D01*
X67922Y165000D01*
X68083Y164189D01*
X68543Y163502D01*
X68987Y163204D01*
X69101Y162621D01*
Y162380D01*
X68987Y161796D01*
X68543Y161499D01*
X68083Y160811D01*
X67922Y160000D01*
X68083Y159189D01*
X68543Y158502D01*
X68806Y158326D01*
X68421Y157056D01*
X60978D01*
X60891Y157266D01*
X59766Y158391D01*
X58296Y159000D01*
X56704D01*
X55234Y158391D01*
X54109Y157266D01*
X53500Y155796D01*
Y154204D01*
X54109Y152734D01*
X55234Y151609D01*
X56704Y151000D01*
X58296D01*
X59766Y151609D01*
X60891Y152734D01*
X60978Y152944D01*
X68421D01*
X68806Y151674D01*
X68543Y151498D01*
X68083Y150811D01*
X67922Y150000D01*
X68083Y149189D01*
X68543Y148502D01*
X68987Y148204D01*
X69101Y147620D01*
Y147380D01*
X68987Y146796D01*
X68543Y146498D01*
X68083Y145811D01*
X67922Y145000D01*
X68083Y144189D01*
X68320Y143835D01*
X67895Y142730D01*
X67757Y142565D01*
X60592D01*
X59766Y143391D01*
X58296Y144000D01*
X56704D01*
X55234Y143391D01*
X54109Y142266D01*
X53500Y140796D01*
Y139204D01*
X54109Y137734D01*
X55234Y136609D01*
X56704Y136000D01*
X58296D01*
X59766Y136609D01*
X60592Y137435D01*
X75755D01*
X76736Y137630D01*
X77112Y137881D01*
X81469D01*
X82280Y138042D01*
X82967Y138502D01*
X83426Y139189D01*
X83588Y140000D01*
X83426Y140811D01*
X82967Y141498D01*
X82522Y141796D01*
X82409Y142380D01*
Y142620D01*
X82522Y143204D01*
X82967Y143502D01*
X83080Y143671D01*
X83346Y143937D01*
X86187D01*
X91835Y138289D01*
X91835Y138288D01*
X92502Y137843D01*
X93289Y137687D01*
X97031D01*
X98082Y137148D01*
X98122Y136949D01*
Y130193D01*
X106878D01*
Y136949D01*
X106918Y137148D01*
X107969Y137687D01*
X111391D01*
X111391Y137687D01*
X112178Y137843D01*
X112844Y138288D01*
X113016Y138461D01*
X115217D01*
X115217Y138461D01*
X115493Y138515D01*
X127078D01*
X128984Y136609D01*
Y123484D01*
X143016D01*
Y139516D01*
X131891D01*
X129382Y142024D01*
X128716Y142470D01*
X127929Y142626D01*
X127929Y142626D01*
X117704D01*
X117209Y143277D01*
X117025Y143896D01*
X117039Y143917D01*
X117195Y144704D01*
X118085Y145484D01*
X126016D01*
Y161516D01*
X111984D01*
Y146232D01*
X110916Y145588D01*
X110129Y145431D01*
X109462Y144986D01*
X109290Y144813D01*
X107969D01*
X106918Y145352D01*
X106878Y145551D01*
Y152307D01*
X98122D01*
Y145551D01*
X98082Y145352D01*
X97031Y144813D01*
X95389D01*
X89741Y150461D01*
X89074Y150907D01*
X88288Y151063D01*
X88288Y151063D01*
X83346D01*
X83080Y151329D01*
X82967Y151498D01*
X82522Y151796D01*
X82409Y152380D01*
Y152620D01*
X82522Y153204D01*
X82967Y153502D01*
X83426Y154189D01*
X83588Y155000D01*
X83426Y155811D01*
X82967Y156498D01*
X82704Y156674D01*
X83089Y157944D01*
X92500D01*
X92500Y157944D01*
X93287Y158101D01*
X93954Y158547D01*
X98335Y162929D01*
X143619D01*
X146945Y159603D01*
Y149000D01*
X146945Y149000D01*
X147101Y148213D01*
X147547Y147547D01*
X153579Y141515D01*
X154245Y141069D01*
X155032Y140913D01*
X155032Y140913D01*
X172477D01*
X173929Y139461D01*
Y125016D01*
X173929Y125016D01*
X174085Y124229D01*
X174531Y123562D01*
X176984Y121109D01*
Y118094D01*
X176210Y117678D01*
X175788Y117565D01*
X175014Y118176D01*
Y120191D01*
X175014Y120191D01*
X174857Y120977D01*
X174412Y121644D01*
X174412Y121644D01*
X171918Y124138D01*
Y130138D01*
X171918Y130138D01*
X171878Y130336D01*
Y136878D01*
X162693D01*
Y130336D01*
X162653Y130138D01*
X162653Y130138D01*
Y127313D01*
X150258D01*
X149471Y127157D01*
X148805Y126712D01*
X143770Y121677D01*
X97995D01*
X89211Y130462D01*
X88544Y130907D01*
X87757Y131063D01*
X87757Y131063D01*
X83346D01*
X83080Y131329D01*
X82967Y131498D01*
X82280Y131958D01*
X81469Y132119D01*
X70041D01*
X69230Y131958D01*
X68543Y131498D01*
X68083Y130811D01*
X67922Y130000D01*
X68083Y129189D01*
X68543Y128502D01*
X68987Y128204D01*
X69101Y127620D01*
Y127380D01*
X68987Y126796D01*
X68543Y126498D01*
X68083Y125811D01*
X67922Y125000D01*
X68083Y124189D01*
X68543Y123502D01*
X68806Y123326D01*
X68421Y122056D01*
X61663D01*
X61500Y122219D01*
Y123296D01*
X60891Y124766D01*
X59766Y125891D01*
X58296Y126500D01*
X56704D01*
X55234Y125891D01*
X54109Y124766D01*
X53500Y123296D01*
Y121704D01*
X54109Y120234D01*
X54770Y119573D01*
X55093Y118750D01*
X54770Y117927D01*
X54109Y117266D01*
X53500Y115796D01*
Y114204D01*
X54109Y112734D01*
X55234Y111609D01*
X56704Y111000D01*
X58296D01*
X59766Y111609D01*
X60592Y112435D01*
X67757D01*
X67895Y112270D01*
X68320Y111165D01*
X68083Y110811D01*
X67922Y110000D01*
X68083Y109189D01*
X68543Y108502D01*
X68987Y108204D01*
X69101Y107620D01*
Y107380D01*
X68987Y106796D01*
X68543Y106498D01*
X68083Y105811D01*
X67922Y105000D01*
X68083Y104189D01*
X68543Y103502D01*
X68987Y103204D01*
X69101Y102620D01*
Y102380D01*
X68987Y101796D01*
X68543Y101498D01*
X68083Y100811D01*
X67922Y100000D01*
X68083Y99189D01*
X68543Y98502D01*
X68806Y98326D01*
X68421Y97056D01*
X66172D01*
X66172Y97056D01*
X65385Y96899D01*
X64718Y96454D01*
X64718Y96453D01*
X63547Y95282D01*
X63101Y94615D01*
X62944Y93828D01*
X62944Y93828D01*
Y93116D01*
X61811Y92374D01*
X61674Y92398D01*
X61500Y92670D01*
Y93296D01*
X60891Y94766D01*
X59766Y95891D01*
X58296Y96500D01*
X56704D01*
X55234Y95891D01*
X54109Y94766D01*
X53500Y93296D01*
Y91704D01*
X54109Y90234D01*
X55234Y89109D01*
X56704Y88500D01*
X57331D01*
X57435Y88396D01*
Y74245D01*
X57630Y73264D01*
X57881Y72888D01*
Y68531D01*
X57922Y68326D01*
X57075Y67056D01*
X53022D01*
X52855Y67160D01*
X52078Y68326D01*
X52119Y68531D01*
Y79959D01*
X52056Y80279D01*
Y99000D01*
X52056Y99000D01*
X51899Y99787D01*
X51453Y100454D01*
X29913Y121994D01*
X30000Y122204D01*
Y123796D01*
X29391Y125266D01*
X28266Y126391D01*
X26796Y127000D01*
X25204D01*
X23734Y126391D01*
X22609Y125266D01*
X22000Y123796D01*
Y122204D01*
X22609Y120734D01*
X23734Y119609D01*
X25204Y119000D01*
X26796D01*
X27006Y119087D01*
X47944Y98149D01*
Y81579D01*
X46674Y81194D01*
X46498Y81457D01*
X45811Y81917D01*
X45000Y82078D01*
X44189Y81917D01*
X43502Y81457D01*
X43204Y81013D01*
X42620Y80899D01*
X42380D01*
X41796Y81013D01*
X41498Y81457D01*
X40811Y81917D01*
X40000Y82078D01*
X39189Y81917D01*
X38502Y81457D01*
X38204Y81013D01*
X37620Y80899D01*
X37380D01*
X36796Y81013D01*
X36498Y81457D01*
X35811Y81917D01*
X35000Y82078D01*
X34189Y81917D01*
X33502Y81457D01*
X33326Y81194D01*
X32055Y81579D01*
Y93000D01*
X31899Y93787D01*
X31453Y94453D01*
X31453Y94454D01*
X10453Y115454D01*
X9787Y115899D01*
X9000Y116055D01*
X9000Y116055D01*
X-6522D01*
X-6609Y116266D01*
X-7734Y117391D01*
X-9204Y118000D01*
X-10796D01*
X-12266Y117391D01*
X-13391Y116266D01*
X-14000Y114796D01*
Y113204D01*
X-13391Y111734D01*
X-12266Y110609D01*
X-10796Y110000D01*
X-9204D01*
X-7734Y110609D01*
X-6609Y111734D01*
X-6522Y111945D01*
X8149D01*
X16454Y103639D01*
X16036Y102261D01*
X15711Y102196D01*
X13953Y103954D01*
X13287Y104399D01*
X12500Y104556D01*
X12500Y104556D01*
X7929D01*
X7929Y104556D01*
X7142Y104399D01*
X6475Y103954D01*
X-1453Y96025D01*
X-1899Y95358D01*
X-2056Y94571D01*
X-2056Y94571D01*
Y84008D01*
X-3325Y83623D01*
X-3547Y83954D01*
X-6087Y86494D01*
X-6000Y86704D01*
Y88296D01*
X-6609Y89766D01*
X-7734Y90891D01*
X-9204Y91500D01*
X-10796D01*
X-12266Y90891D01*
X-12927Y90230D01*
X-13750Y89907D01*
X-14573Y90230D01*
X-15234Y90891D01*
X-16704Y91500D01*
X-18296D01*
X-19766Y90891D01*
X-20891Y89766D01*
X-21500Y88296D01*
Y86704D01*
X-20891Y85234D01*
X-19766Y84109D01*
X-18296Y83500D01*
X-17132D01*
X-16411Y82760D01*
X-16498Y81457D01*
X-16796Y81013D01*
X-17380Y80899D01*
X-17620D01*
X-18204Y81013D01*
X-18502Y81457D01*
X-19189Y81917D01*
X-20000Y82078D01*
X-20811Y81917D01*
X-21498Y81457D01*
X-21674Y81194D01*
X-22945Y81579D01*
Y84571D01*
X-22945Y84571D01*
X-23101Y85358D01*
X-23547Y86025D01*
X-23547Y86025D01*
X-24302Y86780D01*
X-24214Y86990D01*
Y88581D01*
X-24824Y90051D01*
X-25949Y91177D01*
X-27419Y91785D01*
X-29010D01*
X-30480Y91177D01*
X-31606Y90051D01*
X-31847Y90003D01*
X-32734Y90891D01*
X-34204Y91500D01*
X-35796D01*
X-37266Y90891D01*
X-37927Y90230D01*
X-38750Y89907D01*
X-39573Y90230D01*
X-40234Y90891D01*
X-41704Y91500D01*
X-43296D01*
X-44766Y90891D01*
X-45427Y90230D01*
X-46250Y89907D01*
X-47073Y90230D01*
X-47734Y90891D01*
X-49204Y91500D01*
X-49532D01*
X-50058Y92770D01*
X-47531Y95297D01*
X-47530Y95297D01*
X-47085Y95964D01*
X-46929Y96751D01*
X-46929Y96751D01*
Y121984D01*
X-46929Y121984D01*
X-47085Y122771D01*
X-47530Y123438D01*
X-47531Y123438D01*
X-65546Y141453D01*
X-66213Y141899D01*
X-67000Y142056D01*
X-67000Y142056D01*
X-68421D01*
X-68806Y143326D01*
X-68543Y143502D01*
X-68083Y144189D01*
X-67922Y145000D01*
X-68083Y145811D01*
X-68543Y146498D01*
X-68987Y146796D01*
X-69101Y147380D01*
Y147620D01*
X-68987Y148204D01*
X-68543Y148502D01*
X-68083Y149189D01*
X-67922Y150000D01*
X-68083Y150811D01*
X-68543Y151498D01*
X-68987Y151796D01*
X-69101Y152380D01*
Y152620D01*
X-68987Y153204D01*
X-68543Y153502D01*
X-68083Y154189D01*
X-67922Y155000D01*
X-68083Y155811D01*
X-68543Y156498D01*
X-68987Y156796D01*
X-69101Y157380D01*
Y157620D01*
X-68987Y158204D01*
X-68543Y158502D01*
X-68083Y159189D01*
X-67922Y160000D01*
X-68083Y160811D01*
X-68543Y161499D01*
X-68987Y161796D01*
X-69101Y162380D01*
Y162621D01*
X-68987Y163204D01*
X-68543Y163502D01*
X-68083Y164189D01*
X-67922Y165000D01*
X-68083Y165811D01*
X-68543Y166498D01*
X-68987Y166796D01*
X-69101Y167380D01*
Y167620D01*
X-68987Y168204D01*
X-68543Y168502D01*
X-68083Y169189D01*
X-67922Y170000D01*
X-68083Y170811D01*
X-68543Y171498D01*
X-68987Y171796D01*
X-69101Y172380D01*
Y172620D01*
X-68987Y173204D01*
X-68543Y173502D01*
X-68083Y174189D01*
X-67922Y175000D01*
X-68083Y175811D01*
X-68543Y176498D01*
X-68987Y176796D01*
X-69101Y177380D01*
X-69101Y177620D01*
X-68987Y178204D01*
X-68543Y178502D01*
X-68083Y179189D01*
X-67922Y180000D01*
X-68083Y180811D01*
X-68543Y181498D01*
X-68987Y181796D01*
X-69101Y182380D01*
Y182620D01*
X-68987Y183204D01*
X-68543Y183502D01*
X-68083Y184189D01*
X-67922Y185000D01*
X-68083Y185811D01*
X-68543Y186498D01*
X-68987Y186796D01*
X-69101Y187380D01*
Y187620D01*
X-68987Y188204D01*
X-68543Y188502D01*
X-68083Y189189D01*
X-67922Y190000D01*
X-68083Y190811D01*
X-68543Y191498D01*
X-68987Y191796D01*
X-69101Y192380D01*
Y192620D01*
X-68987Y193204D01*
X-68543Y193502D01*
X-68083Y194189D01*
X-67922Y195000D01*
X-68083Y195811D01*
X-68543Y196498D01*
X-68987Y196796D01*
X-69101Y197380D01*
Y197620D01*
X-68987Y198204D01*
X-68543Y198502D01*
X-68083Y199189D01*
X-67922Y200000D01*
X-68083Y200811D01*
X-68543Y201498D01*
X-68987Y201796D01*
X-69101Y202380D01*
Y202620D01*
X-68987Y203204D01*
X-68543Y203502D01*
X-68083Y204189D01*
X-67922Y205000D01*
X-68083Y205811D01*
X-68543Y206498D01*
X-68987Y206796D01*
X-69101Y207380D01*
Y207620D01*
X-68987Y208204D01*
X-68543Y208502D01*
X-68083Y209189D01*
X-67922Y210000D01*
X-68083Y210811D01*
X-68543Y211498D01*
X-69230Y211958D01*
X-70041Y212119D01*
X-81469D01*
X-81788Y212055D01*
X-84149D01*
X-86087Y213994D01*
X-86000Y214204D01*
Y215796D01*
X-86609Y217266D01*
X-87734Y218391D01*
X-89204Y219000D01*
X-90796D01*
X-92266Y218391D01*
X-93391Y217266D01*
X-94000Y215796D01*
Y214204D01*
X-93391Y212734D01*
X-92730Y212073D01*
X-92407Y211250D01*
X-92730Y210427D01*
X-93391Y209766D01*
X-94000Y208296D01*
Y206704D01*
X-93391Y205234D01*
X-92730Y204573D01*
X-92407Y203750D01*
X-92730Y202927D01*
X-93391Y202266D01*
X-94000Y200796D01*
Y199204D01*
X-93391Y197734D01*
X-92730Y197073D01*
X-92407Y196250D01*
X-92730Y195427D01*
X-93391Y194766D01*
X-94000Y193296D01*
Y191704D01*
X-93391Y190234D01*
X-92266Y189109D01*
X-90796Y188500D01*
X-89204D01*
X-87734Y189109D01*
X-86609Y190234D01*
X-86000Y191704D01*
Y192781D01*
X-85837Y192945D01*
X-83089D01*
X-82704Y191674D01*
X-82967Y191498D01*
X-83426Y190811D01*
X-83588Y190000D01*
X-83426Y189189D01*
X-82967Y188502D01*
X-82522Y188204D01*
X-82409Y187620D01*
Y187380D01*
X-82522Y186796D01*
X-82967Y186498D01*
X-83426Y185811D01*
X-83588Y185000D01*
X-83426Y184189D01*
X-82967Y183502D01*
X-82522Y183204D01*
X-82409Y182620D01*
Y182380D01*
X-82522Y181796D01*
X-82967Y181498D01*
X-83426Y180811D01*
X-83588Y180000D01*
X-83426Y179189D01*
X-82967Y178502D01*
X-82522Y178204D01*
X-82409Y177620D01*
X-82409Y177380D01*
X-82522Y176796D01*
X-82967Y176498D01*
X-83426Y175811D01*
X-83588Y175000D01*
X-83426Y174189D01*
X-82967Y173502D01*
X-82677Y173308D01*
X-83062Y172038D01*
X-86494D01*
X-86573Y172230D01*
X-87699Y173356D01*
X-89169Y173965D01*
X-90760D01*
X-92230Y173356D01*
X-93356Y172230D01*
X-93965Y170760D01*
Y169169D01*
X-93356Y167699D01*
X-93054Y167397D01*
X-92373Y166429D01*
X-93054Y165738D01*
X-93494Y165298D01*
X-94103Y163828D01*
Y162236D01*
X-93494Y160766D01*
X-92369Y159641D01*
X-90899Y159032D01*
X-89307D01*
X-87837Y159641D01*
X-86712Y160766D01*
X-86103Y162236D01*
Y162945D01*
X-83089D01*
X-82704Y161674D01*
X-82967Y161499D01*
X-83426Y160811D01*
X-83588Y160000D01*
X-83426Y159189D01*
X-82967Y158502D01*
X-82522Y158204D01*
X-82409Y157620D01*
Y157380D01*
X-82522Y156796D01*
X-82967Y156498D01*
X-83426Y155811D01*
X-83588Y155000D01*
X-83426Y154189D01*
X-82967Y153502D01*
X-82522Y153204D01*
X-82409Y152620D01*
Y152380D01*
X-82522Y151796D01*
X-82967Y151498D01*
X-83426Y150811D01*
X-83588Y150000D01*
X-83426Y149189D01*
X-82967Y148502D01*
X-82522Y148204D01*
X-82409Y147620D01*
Y147380D01*
X-82522Y146796D01*
X-82967Y146498D01*
X-83426Y145811D01*
X-83588Y145000D01*
X-83426Y144189D01*
X-82967Y143502D01*
X-82704Y143326D01*
X-83089Y142056D01*
X-85837D01*
X-86000Y142219D01*
Y143296D01*
X-86609Y144766D01*
X-87734Y145891D01*
X-89204Y146500D01*
X-90796D01*
X-92266Y145891D01*
X-93391Y144766D01*
X-94000Y143296D01*
Y141704D01*
X-93391Y140234D01*
X-92730Y139573D01*
X-92407Y138750D01*
X-92730Y137927D01*
X-93391Y137266D01*
X-94000Y135796D01*
Y134204D01*
X-93391Y132734D01*
X-92266Y131609D01*
X-90796Y131000D01*
X-89204D01*
X-87734Y131609D01*
X-86609Y132734D01*
X-86522Y132944D01*
X-83089D01*
X-82704Y131674D01*
X-82967Y131498D01*
X-83426Y130811D01*
X-83588Y130000D01*
X-83426Y129189D01*
X-82967Y128502D01*
X-82522Y128204D01*
X-82409Y127620D01*
Y127380D01*
X-82522Y126796D01*
X-82967Y126498D01*
X-83426Y125811D01*
X-83588Y125000D01*
X-83426Y124189D01*
X-82967Y123502D01*
X-82522Y123204D01*
X-82409Y122620D01*
Y122380D01*
X-82522Y121796D01*
X-82967Y121498D01*
X-83426Y120811D01*
X-83588Y120000D01*
X-83426Y119189D01*
X-82967Y118502D01*
X-82704Y118326D01*
X-83089Y117056D01*
X-85837D01*
X-86000Y117219D01*
Y118296D01*
X-86609Y119766D01*
X-87734Y120891D01*
X-89204Y121500D01*
X-90796D01*
X-92266Y120891D01*
X-93391Y119766D01*
X-94000Y118296D01*
Y116704D01*
X-93391Y115234D01*
X-92730Y114573D01*
X-92407Y113750D01*
X-92730Y112927D01*
X-93391Y112266D01*
X-94000Y110796D01*
Y109204D01*
X-93636Y108326D01*
X-94372Y107056D01*
X-119149D01*
X-122516Y110423D01*
Y116553D01*
X-122448Y116563D01*
X-120283Y117838D01*
X-118771Y119845D01*
X-118142Y122277D01*
X-118491Y124765D01*
X-119767Y126930D01*
X-121774Y128442D01*
X-124206Y129072D01*
X-126358Y128769D01*
X-127076Y129688D01*
X-127138Y129845D01*
X-125869Y131529D01*
X-135957Y139131D01*
X-143559Y129042D01*
X-133471Y121440D01*
X-132202Y123124D01*
X-132034Y123108D01*
X-130953Y122671D01*
X-130651Y120519D01*
X-130242Y119825D01*
X-131069Y118727D01*
X-131849Y118929D01*
X-134337Y118579D01*
X-136502Y117304D01*
X-138014Y115297D01*
X-138644Y112865D01*
X-138294Y110377D01*
X-137885Y109683D01*
X-138712Y108585D01*
X-139492Y108786D01*
X-141980Y108437D01*
X-144145Y107161D01*
X-145658Y105155D01*
X-146287Y102722D01*
X-145937Y100234D01*
X-145528Y99540D01*
X-146355Y98442D01*
X-147135Y98644D01*
X-149623Y98294D01*
X-150317Y97885D01*
X-151415Y98713D01*
X-151214Y99492D01*
X-151563Y101980D01*
X-152839Y104145D01*
X-154845Y105658D01*
X-157278Y106287D01*
X-159766Y105937D01*
X-161931Y104662D01*
X-163443Y102655D01*
X-164072Y100223D01*
X-163723Y97734D01*
X-163314Y97040D01*
X-164141Y95942D01*
X-164921Y96144D01*
X-167409Y95794D01*
X-169574Y94519D01*
X-171086Y92512D01*
X-171716Y90080D01*
X-171366Y87591D01*
X-170091Y85427D01*
X-168084Y83914D01*
X-165651Y83285D01*
X-163163Y83635D01*
X-162469Y84044D01*
X-161371Y83216D01*
X-161573Y82437D01*
X-161223Y79949D01*
X-159948Y77783D01*
X-157941Y76271D01*
X-155508Y75642D01*
X-153020Y75992D01*
X-150855Y77267D01*
X-149343Y79274D01*
X-148714Y81706D01*
X-149064Y84195D01*
X-149473Y84889D01*
X-148645Y85986D01*
X-147865Y85785D01*
X-145377Y86135D01*
X-143212Y87410D01*
X-141700Y89417D01*
X-141071Y91849D01*
X-141421Y94337D01*
X-141830Y95031D01*
X-141002Y96129D01*
X-140223Y95928D01*
X-137734Y96277D01*
X-135569Y97553D01*
X-134057Y99559D01*
X-133428Y101992D01*
X-133778Y104480D01*
X-134186Y105174D01*
X-133359Y106272D01*
X-132579Y106070D01*
X-130091Y106420D01*
X-127926Y107695D01*
X-127549Y108195D01*
X-126025Y108118D01*
X-121454Y103547D01*
X-121454Y103546D01*
X-120787Y103101D01*
X-120000Y102944D01*
X-120000Y102944D01*
X-83089D01*
X-82704Y101674D01*
X-82967Y101498D01*
X-83426Y100811D01*
X-83588Y100000D01*
X-83426Y99189D01*
X-82967Y98502D01*
X-82280Y98042D01*
X-81469Y97881D01*
X-77112D01*
X-76736Y97630D01*
X-75755Y97435D01*
X-67500D01*
X-66518Y97630D01*
X-65686Y98186D01*
X-63858Y100015D01*
X-62480Y99597D01*
X-62405Y99223D01*
X-69063Y92565D01*
X-75755D01*
X-76736Y92370D01*
X-77112Y92119D01*
X-81469D01*
X-82280Y91958D01*
X-82967Y91498D01*
X-83426Y90811D01*
X-83588Y90000D01*
X-83426Y89189D01*
X-82967Y88502D01*
X-82280Y88042D01*
X-81469Y87881D01*
X-77112D01*
X-76736Y87630D01*
X-75755Y87435D01*
X-68000D01*
X-67087Y87616D01*
X-67007Y87562D01*
X-66480Y86427D01*
X-69469Y83438D01*
X-69915Y82771D01*
X-70072Y81984D01*
X-70072Y81984D01*
Y58016D01*
X-70072Y58016D01*
X-69915Y57229D01*
X-69469Y56562D01*
X-67777Y54870D01*
X-68303Y53600D01*
X-92500D01*
X-93278Y53278D01*
X-93600Y52500D01*
Y38016D01*
X-93278Y37238D01*
X-92500Y36916D01*
X-86742D01*
X-86662Y36722D01*
X-86100Y36490D01*
Y32766D01*
X-85916Y32322D01*
Y22234D01*
Y12234D01*
X-81291D01*
X-77986Y8929D01*
X-77986Y8929D01*
X-77319Y8484D01*
X-76533Y8327D01*
X-76137D01*
X-75891Y7734D01*
X-74766Y6609D01*
X-73296Y6000D01*
X-71704D01*
X-70234Y6609D01*
X-69109Y7734D01*
X-68500Y9204D01*
Y10796D01*
X-69109Y12266D01*
X-69770Y12927D01*
X-70093Y13750D01*
X-69770Y14573D01*
X-69109Y15234D01*
X-68500Y16704D01*
Y18296D01*
X-69109Y19766D01*
X-69770Y20427D01*
X-70093Y21250D01*
X-69770Y22073D01*
X-69109Y22734D01*
X-68500Y24204D01*
Y25796D01*
X-69109Y27266D01*
X-69770Y27927D01*
X-70093Y28750D01*
X-69770Y29573D01*
X-69109Y30234D01*
X-68500Y31704D01*
Y33296D01*
X-67394Y33944D01*
X-66722Y34222D01*
X-66400Y35000D01*
Y51697D01*
X-65130Y52223D01*
X-57151Y44245D01*
Y-87245D01*
X-72335Y-102429D01*
X-133484D01*
X-133484Y-102429D01*
X-134271Y-102585D01*
X-134937Y-103031D01*
X-134937Y-103031D01*
X-148553Y-116646D01*
X-148999Y-117313D01*
X-149152Y-118084D01*
X-155116D01*
Y-135116D01*
X-145386D01*
X-145084Y-135116D01*
Y-135116D01*
X-144116D01*
Y-135116D01*
X-134084D01*
Y-120991D01*
X-122649Y-109556D01*
X-70000D01*
X-70000Y-109556D01*
X-69213Y-109399D01*
X-68547Y-108954D01*
X-52293Y-92700D01*
X-51119Y-93186D01*
Y-98213D01*
X-70991Y-118084D01*
X-78116D01*
X-79084Y-117355D01*
Y-114084D01*
X-89116D01*
Y-117355D01*
X-90084Y-118084D01*
X-100116D01*
Y-119355D01*
X-101084Y-120084D01*
X-101386Y-120084D01*
X-103535D01*
Y-118091D01*
X-102709Y-117266D01*
X-102100Y-115796D01*
Y-114204D01*
X-102709Y-112734D01*
X-103834Y-111609D01*
X-105304Y-111000D01*
X-106896D01*
X-108366Y-111609D01*
X-109491Y-112734D01*
X-110100Y-114204D01*
Y-115796D01*
X-109491Y-117266D01*
X-108665Y-118091D01*
Y-120084D01*
X-110814D01*
X-111116Y-120084D01*
X-112084Y-119355D01*
Y-118084D01*
X-122116D01*
Y-135116D01*
X-119156D01*
Y-137900D01*
X-119156Y-137900D01*
X-118999Y-138687D01*
X-118553Y-139354D01*
X-113954Y-143954D01*
X-113287Y-144399D01*
X-112500Y-144556D01*
X-112500Y-144556D01*
X-99372D01*
X-98636Y-145826D01*
X-99000Y-146704D01*
Y-148296D01*
X-98391Y-149766D01*
X-97266Y-150891D01*
X-95796Y-151500D01*
X-94204D01*
X-92734Y-150891D01*
X-91609Y-149766D01*
X-91522Y-149556D01*
X-67500D01*
X-67500Y-149556D01*
X-66713Y-149399D01*
X-66047Y-148954D01*
X-38563Y-121469D01*
X-38117Y-120803D01*
X-37961Y-120016D01*
X-37961Y-120016D01*
Y49133D01*
X-27211Y59882D01*
X-26134Y59163D01*
X-26500Y58280D01*
Y56688D01*
X-25891Y55218D01*
X-25241Y54569D01*
X-24908Y53742D01*
X-25241Y52915D01*
X-25891Y52266D01*
X-26500Y50796D01*
Y49204D01*
X-25891Y47734D01*
X-24766Y46609D01*
X-23296Y46000D01*
X-21704D01*
X-20234Y46609D01*
X-19109Y47734D01*
X-18500Y49204D01*
Y50796D01*
X-18587Y51006D01*
X-13547Y56047D01*
X-13547Y56047D01*
X-13101Y56713D01*
X-12945Y57500D01*
Y66911D01*
X-11674Y67297D01*
X-11499Y67033D01*
X-10811Y66574D01*
X-10000Y66412D01*
X-9189Y66574D01*
X-8502Y67033D01*
X-8204Y67478D01*
X-7620Y67592D01*
X-7380D01*
X-6796Y67478D01*
X-6498Y67033D01*
X-5811Y66574D01*
X-5000Y66412D01*
X-4189Y66574D01*
X-3568Y66988D01*
X-3144Y66892D01*
X-2293Y66556D01*
X-2188Y65719D01*
X-10469Y57438D01*
X-10915Y56771D01*
X-11071Y55984D01*
X-11071Y55984D01*
Y18835D01*
X-17969Y11938D01*
X-18415Y11271D01*
X-18571Y10484D01*
X-18571Y10484D01*
Y-4060D01*
X-18571Y-4060D01*
X-18415Y-4846D01*
X-17969Y-5513D01*
X-15468Y-8015D01*
X-15355Y-8579D01*
X-14744Y-9494D01*
X-13829Y-10106D01*
X-12750Y-10320D01*
X-10750D01*
X-9671Y-10106D01*
X-9090Y-9718D01*
X-7969Y-10149D01*
X-7815Y-10277D01*
X-7606Y-11329D01*
X-7565Y-11389D01*
Y-15437D01*
X-9523Y-17395D01*
X-10079Y-18227D01*
X-10274Y-19209D01*
Y-20622D01*
X-14378D01*
Y-24300D01*
X-15344Y-24492D01*
X-16176Y-25048D01*
X-19314Y-28186D01*
X-19870Y-29018D01*
X-20065Y-30000D01*
Y-31909D01*
X-20891Y-32734D01*
X-21500Y-34204D01*
Y-35796D01*
X-20891Y-37266D01*
X-19766Y-38391D01*
X-18296Y-39000D01*
X-16704D01*
X-15234Y-38391D01*
X-14573Y-37730D01*
X-13750Y-37407D01*
X-12927Y-37730D01*
X-12266Y-38391D01*
X-10796Y-39000D01*
X-9204D01*
X-7734Y-38391D01*
X-6609Y-37266D01*
X-6000Y-35796D01*
Y-34204D01*
X-6609Y-32734D01*
X-7734Y-31609D01*
X-9204Y-31000D01*
X-10796D01*
X-12266Y-31609D01*
X-12927Y-32270D01*
X-13750Y-32593D01*
X-14573Y-32270D01*
X-14935Y-31909D01*
Y-31063D01*
X-13300Y-29428D01*
X-11434D01*
X-11186Y-29378D01*
X-5193D01*
Y-23386D01*
X-5144Y-23138D01*
Y-20271D01*
X-3186Y-18314D01*
X-2630Y-17482D01*
X-2435Y-16500D01*
Y-11389D01*
X-2394Y-11329D01*
X-2180Y-10250D01*
Y-8250D01*
X-2394Y-7171D01*
X-3006Y-6256D01*
X-3921Y-5645D01*
X-5000Y-5430D01*
X-6079Y-5645D01*
X-6895Y-6190D01*
X-7139Y-6235D01*
X-8160Y-6089D01*
X-8653Y-4913D01*
X-8518Y-4138D01*
X-8145Y-3579D01*
X-7930Y-2500D01*
X-8145Y-1421D01*
X-8518Y-862D01*
X-8668Y0D01*
X-8518Y862D01*
X-8145Y1421D01*
X-7930Y2500D01*
X-8145Y3579D01*
X-8518Y4138D01*
X-8652Y4913D01*
X-8160Y6089D01*
X-7139Y6235D01*
X-6895Y6190D01*
X-6079Y5645D01*
X-5000Y5430D01*
X-3921Y5645D01*
X-3362Y6018D01*
X-2500Y6168D01*
X-1638Y6018D01*
X-1079Y5645D01*
X0Y5430D01*
X1079Y5645D01*
X1994Y6256D01*
X3006D01*
X3921Y5645D01*
X5000Y5430D01*
X6079Y5645D01*
X6896Y6190D01*
X7139Y6235D01*
X8160Y6089D01*
X8653Y4913D01*
X8518Y4138D01*
X8145Y3579D01*
X7930Y2500D01*
X8145Y1421D01*
X8518Y862D01*
X8668Y0D01*
X8518Y-862D01*
X8145Y-1421D01*
X7930Y-2500D01*
X8145Y-3579D01*
X8518Y-4138D01*
X8653Y-4913D01*
X8160Y-6089D01*
X7139Y-6235D01*
X6896Y-6190D01*
X6079Y-5645D01*
X5000Y-5430D01*
X3921Y-5645D01*
X3006Y-6256D01*
X2394Y-7171D01*
X2180Y-8250D01*
Y-10250D01*
X2394Y-11329D01*
X3006Y-12244D01*
X3921Y-12855D01*
X5000Y-13070D01*
X6079Y-12855D01*
X6994Y-12244D01*
X7606Y-11329D01*
X7815Y-10277D01*
X7969Y-10149D01*
X9090Y-9718D01*
X9671Y-10106D01*
X10750Y-10320D01*
X12750D01*
X13829Y-10106D01*
X13889Y-10065D01*
X16437D01*
X17220Y-10848D01*
Y-20622D01*
X15193D01*
Y-26614D01*
X15144Y-26862D01*
Y-30687D01*
X14831Y-31000D01*
X14204D01*
X12734Y-31609D01*
X11609Y-32734D01*
X11000Y-34204D01*
Y-35796D01*
X11609Y-37266D01*
X12018Y-37675D01*
X11492Y-38944D01*
X2672D01*
X2672Y-38944D01*
X1885Y-39101D01*
X1218Y-39546D01*
X1218Y-39547D01*
X47Y-40718D01*
X-399Y-41385D01*
X-556Y-42172D01*
X-1424Y-42984D01*
X-3016D01*
Y-56016D01*
X4185D01*
Y-61008D01*
X2734Y-61609D01*
X1609Y-62734D01*
X1000Y-64204D01*
Y-65796D01*
X1609Y-67266D01*
X2057Y-67714D01*
X1531Y-68984D01*
X-3016D01*
Y-82016D01*
X5399D01*
Y-83062D01*
X5577Y-83954D01*
X5891Y-84424D01*
Y-86567D01*
X5763Y-86694D01*
X500D01*
X-287Y-86851D01*
X-953Y-87296D01*
X-1399Y-87963D01*
X-1556Y-88750D01*
Y-96250D01*
X-1399Y-97037D01*
X-953Y-97704D01*
X-287Y-98149D01*
X500Y-98306D01*
X5763D01*
X5891Y-98433D01*
Y-102493D01*
X6069Y-103385D01*
X6574Y-104141D01*
X20950Y-118517D01*
X21706Y-119022D01*
X22598Y-119199D01*
X25395D01*
X35891Y-129695D01*
Y-131313D01*
X34470Y-132734D01*
X29734D01*
Y-151766D01*
X37766D01*
Y-136030D01*
X39128Y-134668D01*
X40000Y-134022D01*
X40872Y-134668D01*
X42234Y-136030D01*
Y-151766D01*
X50266D01*
Y-132734D01*
X45530D01*
X44109Y-131313D01*
Y-127257D01*
X43931Y-126365D01*
X43426Y-125609D01*
X29482Y-111665D01*
X28726Y-111159D01*
X27834Y-110982D01*
X25036D01*
X14109Y-100055D01*
Y-98433D01*
X14237Y-98306D01*
X19500D01*
X20287Y-98149D01*
X20954Y-97704D01*
X21399Y-97037D01*
X21556Y-96250D01*
Y-88750D01*
X21399Y-87963D01*
X20954Y-87296D01*
X20287Y-86851D01*
X19500Y-86694D01*
X14237D01*
X14109Y-86567D01*
Y-84424D01*
X14423Y-83954D01*
X14601Y-83062D01*
Y-82016D01*
X23016D01*
Y-68984D01*
X8469D01*
X7943Y-67714D01*
X8391Y-67266D01*
X9000Y-65796D01*
Y-64204D01*
X8914Y-63998D01*
X9120Y-63691D01*
X9315Y-62709D01*
Y-56016D01*
X10016D01*
Y-43056D01*
X16484D01*
Y-56016D01*
X23016D01*
Y-45891D01*
X30453Y-38454D01*
X30454Y-38454D01*
X31969Y-36937D01*
X31969Y-36937D01*
X32415Y-36271D01*
X32571Y-35484D01*
Y-24372D01*
X33842Y-23636D01*
X34720Y-24000D01*
X36312D01*
X37782Y-23391D01*
X38907Y-22266D01*
X39516Y-20796D01*
Y-19204D01*
X38907Y-17734D01*
X37782Y-16609D01*
X36312Y-16000D01*
X34720D01*
X33842Y-16364D01*
X32571Y-15628D01*
Y5302D01*
X32992Y5745D01*
X33724Y6199D01*
X34204Y6000D01*
X35796D01*
X37266Y6609D01*
X38391Y7734D01*
X38881Y8916D01*
X40173Y9420D01*
X43297Y6297D01*
X43297Y6296D01*
X43963Y5851D01*
X44750Y5695D01*
X45984D01*
Y-7766D01*
X48155D01*
X49023Y-8579D01*
X49179Y-9365D01*
X49625Y-10032D01*
X53547Y-13953D01*
X53547Y-13953D01*
X54213Y-14399D01*
X55000Y-14555D01*
X78128D01*
X78864Y-15826D01*
X78500Y-16704D01*
Y-18296D01*
X79109Y-19766D01*
X80234Y-20891D01*
X81704Y-21500D01*
X83296D01*
X84766Y-20891D01*
X85891Y-19766D01*
X86500Y-18296D01*
Y-16704D01*
X86136Y-15826D01*
X86872Y-14555D01*
X101522D01*
X101609Y-14766D01*
X102734Y-15891D01*
X104204Y-16500D01*
X105796D01*
X107266Y-15891D01*
X108391Y-14766D01*
X109000Y-13296D01*
Y-11704D01*
X108391Y-10234D01*
X107266Y-9109D01*
X107090Y-9036D01*
X107342Y-7766D01*
X111016D01*
Y-7766D01*
X111984D01*
Y-7766D01*
X115158D01*
X115410Y-9036D01*
X115234Y-9109D01*
X114109Y-10234D01*
X113500Y-11704D01*
Y-13296D01*
X114109Y-14766D01*
X115234Y-15891D01*
X116704Y-16500D01*
X118296D01*
X119766Y-15891D01*
X120891Y-14766D01*
X121500Y-13296D01*
Y-11704D01*
X121937Y-11082D01*
X122463Y-10712D01*
X123016Y-10821D01*
X123016Y-10821D01*
X143835D01*
X143835Y-10821D01*
X144622Y-10665D01*
X145288Y-10220D01*
X146469Y-9039D01*
X146469Y-9039D01*
X146915Y-8372D01*
X147072Y-7585D01*
Y9585D01*
X146915Y10372D01*
X146469Y11039D01*
X146469Y11039D01*
X145288Y12219D01*
X144622Y12665D01*
X143835Y12822D01*
X143835Y12822D01*
X127101D01*
X124469Y15453D01*
X123802Y15899D01*
X123015Y16056D01*
X123015Y16056D01*
X47882D01*
X39723Y24214D01*
X40250Y25484D01*
X47266D01*
Y38516D01*
X45306D01*
Y47484D01*
X47266D01*
Y57609D01*
X52601Y62944D01*
X60822D01*
X60822Y62944D01*
X61609Y63101D01*
X62276Y63547D01*
X64827Y66098D01*
X65055Y66039D01*
X66000Y65475D01*
Y64204D01*
X66384Y63278D01*
X66351Y63229D01*
X66195Y62443D01*
X66195Y62442D01*
Y60516D01*
X64234D01*
Y47484D01*
X68261D01*
X68514Y46214D01*
X67734Y45891D01*
X66609Y44766D01*
X66000Y43296D01*
Y41704D01*
X66609Y40234D01*
X67057Y39786D01*
X66531Y38516D01*
X64234D01*
Y25719D01*
X63170Y24987D01*
X59766Y28391D01*
Y38516D01*
X51734D01*
Y25484D01*
X56859D01*
X62329Y20015D01*
X62329Y20015D01*
X62995Y19569D01*
X63782Y19412D01*
X63782Y19412D01*
X86468D01*
X86468Y19412D01*
X87255Y19569D01*
X87921Y20015D01*
X95453Y27547D01*
X95454Y27547D01*
X95899Y28213D01*
X96055Y29000D01*
X96055Y29000D01*
Y50149D01*
X96994Y51087D01*
X97204Y51000D01*
X98796D01*
X99543Y51309D01*
X100484Y50325D01*
Y25984D01*
X111516D01*
Y50516D01*
X107601D01*
Y51873D01*
X108427Y52699D01*
X109036Y54169D01*
Y55760D01*
X108427Y57230D01*
X107301Y58355D01*
X105831Y58964D01*
X104240D01*
X102770Y58355D01*
X102365Y57951D01*
X101499Y57342D01*
X100706Y57951D01*
X100266Y58391D01*
X98999Y58916D01*
X98652Y59907D01*
X98600Y60227D01*
X99162Y60944D01*
X112649D01*
X121904Y51689D01*
X121418Y50516D01*
X112984D01*
Y25984D01*
X116445D01*
Y24258D01*
X116445Y24257D01*
X116601Y23471D01*
X117046Y22804D01*
X121320Y18531D01*
X121320Y18530D01*
X121987Y18085D01*
X122773Y17929D01*
X122774Y17929D01*
X151249D01*
X151249Y17929D01*
X151330Y17945D01*
X152648D01*
X154234Y16359D01*
Y10734D01*
X162766D01*
Y19266D01*
X157141D01*
X154953Y21453D01*
X154287Y21899D01*
X153500Y22055D01*
X153500Y22055D01*
X151758D01*
X151209Y23302D01*
X155454Y27547D01*
X155899Y28213D01*
X156055Y29000D01*
X156055Y29000D01*
Y105000D01*
X155899Y105787D01*
X155454Y106454D01*
X148454Y113454D01*
X147787Y113899D01*
X147747Y113907D01*
X147583Y114195D01*
X147468Y114619D01*
X147436Y115264D01*
X152359Y120187D01*
X162653D01*
Y117362D01*
X162653Y117362D01*
X162693Y117164D01*
Y110622D01*
X171437D01*
Y103036D01*
X171297Y102896D01*
X170851Y102229D01*
X170749Y101716D01*
X166984D01*
Y88284D01*
X174766D01*
Y88284D01*
X175234D01*
Y88284D01*
X183016D01*
Y101716D01*
X179251D01*
X179149Y102229D01*
X178703Y102896D01*
X178703Y102896D01*
X178563Y103036D01*
Y113516D01*
X178563Y113517D01*
X178407Y114303D01*
X177962Y114970D01*
X177961Y114970D01*
X177217Y115714D01*
X177743Y116984D01*
X177884Y116984D01*
X177884Y116984D01*
X177939Y116984D01*
X187016D01*
Y124016D01*
X180154D01*
X179548Y124785D01*
X180078Y125984D01*
X187016D01*
Y133016D01*
X181056D01*
Y141562D01*
X180899Y142348D01*
X180453Y143015D01*
X180453Y143015D01*
X178239Y145230D01*
X178765Y146500D01*
X178796D01*
X179964Y146984D01*
X183016D01*
Y154016D01*
X179964D01*
X179943Y154025D01*
X179753Y155478D01*
X180355Y155984D01*
X183016D01*
Y163016D01*
X179964D01*
X178796Y163500D01*
X177204D01*
X176036Y163016D01*
X172984D01*
Y155984D01*
X176036D01*
X176057Y155975D01*
X176247Y154522D01*
X175645Y154016D01*
X172984D01*
Y148040D01*
X167016D01*
Y154016D01*
X159961D01*
X159295Y154833D01*
X159793Y155984D01*
X167016D01*
Y163016D01*
X162298D01*
X161056Y163250D01*
X160899Y164037D01*
X160453Y164704D01*
X156342Y168815D01*
X156968Y169985D01*
X157222Y169935D01*
X166908D01*
X167734Y169109D01*
X169204Y168500D01*
X170796D01*
X172266Y169109D01*
X173391Y170234D01*
X174000Y171704D01*
Y173296D01*
X173391Y174766D01*
X172266Y175891D01*
X170796Y176500D01*
X169204D01*
X168775Y176322D01*
X168056Y177399D01*
X168391Y177734D01*
X169000Y179204D01*
Y179791D01*
X170270Y180357D01*
X171343Y179391D01*
X181771Y168817D01*
X191548Y157636D01*
X200637Y145892D01*
X209008Y133624D01*
X216630Y120877D01*
X223475Y107697D01*
X229520Y94130D01*
X234741Y80227D01*
X239121Y66036D01*
X242644Y51609D01*
X245298Y36996D01*
X247072Y22251D01*
X247961Y7426D01*
Y-0D01*
X247961Y-6309D01*
X247319Y-18909D01*
X246038Y-31461D01*
X244120Y-43932D01*
X241570Y-56289D01*
X238395Y-68500D01*
X234603Y-80534D01*
X230205Y-92359D01*
X225210Y-103946D01*
X222701Y-109038D01*
X222501Y-109066D01*
X221364Y-108877D01*
X220891Y-107734D01*
X219766Y-106609D01*
X218296Y-106000D01*
X216704D01*
X215234Y-106609D01*
X214408Y-107435D01*
X211063D01*
X181301Y-77673D01*
X181496Y-77107D01*
X181924Y-76500D01*
X183296D01*
X184766Y-75891D01*
X185891Y-74766D01*
X186500Y-73296D01*
Y-71704D01*
X185891Y-70234D01*
X184766Y-69109D01*
X183296Y-68500D01*
X181704D01*
X181494Y-68587D01*
X178953Y-66047D01*
X178287Y-65601D01*
X177500Y-65444D01*
X177500Y-65444D01*
X91500D01*
X90713Y-65601D01*
X90047Y-66047D01*
X90047Y-66047D01*
X82547Y-73547D01*
X82101Y-74213D01*
X81945Y-75000D01*
X81945Y-75000D01*
Y-82234D01*
X78984D01*
Y-99766D01*
X88714D01*
X89016Y-99766D01*
X89984D01*
X90286Y-99766D01*
X99714D01*
X100016Y-99766D01*
Y-99766D01*
X100984D01*
Y-99766D01*
X111016D01*
Y-99766D01*
X111984D01*
Y-99766D01*
X115444D01*
Y-106522D01*
X115234Y-106609D01*
X114109Y-107734D01*
X113500Y-109204D01*
Y-110796D01*
X114109Y-112266D01*
X115234Y-113391D01*
X116704Y-114000D01*
X118296D01*
X119766Y-113391D01*
X120891Y-112266D01*
X121500Y-110796D01*
Y-109204D01*
X120891Y-107734D01*
X119766Y-106609D01*
X119556Y-106522D01*
Y-99766D01*
X122016D01*
Y-99766D01*
X122984D01*
Y-99766D01*
X127435D01*
Y-114234D01*
X124734D01*
Y-122516D01*
X135266D01*
X135266Y-122516D01*
Y-122516D01*
X135266Y-122516D01*
X136442Y-122743D01*
X138813Y-124562D01*
X140794Y-127143D01*
X142039Y-130149D01*
X142452Y-133287D01*
X142435Y-133375D01*
Y-149409D01*
X141609Y-150234D01*
X141000Y-151704D01*
Y-153296D01*
X141609Y-154766D01*
X142734Y-155891D01*
X144204Y-156500D01*
X145796D01*
X147266Y-155891D01*
X148391Y-154766D01*
X149000Y-153296D01*
Y-151704D01*
X148391Y-150234D01*
X147565Y-149409D01*
Y-133375D01*
X147601D01*
X147262Y-129941D01*
X146261Y-126639D01*
X144635Y-123596D01*
X142446Y-120929D01*
X139778Y-118741D01*
X136735Y-117114D01*
X135266Y-116668D01*
Y-114234D01*
X132565D01*
Y-100849D01*
X133016Y-99766D01*
X133984D01*
Y-99766D01*
X144016D01*
Y-88199D01*
X144056Y-88000D01*
Y-83851D01*
X145851Y-82056D01*
X155005D01*
X155095Y-82275D01*
X156225Y-83405D01*
X157701Y-84016D01*
X159299D01*
X160775Y-83405D01*
X161905Y-82275D01*
X161996Y-82056D01*
X169149D01*
X171087Y-83994D01*
X171000Y-84204D01*
Y-85796D01*
X171609Y-87266D01*
X172734Y-88391D01*
X174204Y-89000D01*
X175796D01*
X177266Y-88391D01*
X178391Y-87266D01*
X179000Y-85796D01*
Y-84424D01*
X179607Y-83996D01*
X180173Y-83801D01*
X208186Y-111814D01*
X209018Y-112370D01*
X210000Y-112565D01*
X214408D01*
X215234Y-113391D01*
X216704Y-114000D01*
X218296D01*
X218980Y-113717D01*
X219907Y-114707D01*
X219633Y-115263D01*
X213488Y-126283D01*
X206790Y-136975D01*
X199557Y-147314D01*
X191808Y-157271D01*
X183563Y-166821D01*
X174842Y-175939D01*
X170853Y-179707D01*
X170806Y-179737D01*
X170222Y-180303D01*
X170183Y-180359D01*
X169800Y-180743D01*
X167676Y-182486D01*
X165392Y-184012D01*
X162969Y-185307D01*
X160431Y-186358D01*
X157802Y-187156D01*
X155108Y-187692D01*
X152374Y-187961D01*
X-0D01*
X-784Y-187961D01*
X-2322Y-187655D01*
X-3771Y-187055D01*
X-5075Y-186184D01*
X-6184Y-185075D01*
X-7055Y-183771D01*
X-7655Y-182322D01*
X-7961Y-180784D01*
X-7961Y-180000D01*
X-7971Y-179950D01*
X-7963Y-179900D01*
X-8012Y-178920D01*
X-8048Y-178773D01*
Y-178622D01*
X-8431Y-176699D01*
X-8508Y-176514D01*
X-8547Y-176317D01*
X-9297Y-174506D01*
X-9409Y-174339D01*
X-9485Y-174153D01*
X-10575Y-172523D01*
X-10717Y-172381D01*
X-10828Y-172214D01*
X-12214Y-170828D01*
X-12381Y-170716D01*
X-12523Y-170574D01*
X-14153Y-169485D01*
X-14339Y-169409D01*
X-14506Y-169297D01*
X-16317Y-168547D01*
X-16514Y-168508D01*
X-16699Y-168431D01*
X-18622Y-168048D01*
X-18773D01*
X-18920Y-168012D01*
X-19270Y-167994D01*
X-19425Y-167963D01*
X-19998Y-167961D01*
X-20009Y-167963D01*
X-169800Y-167961D01*
X-171327Y-167961D01*
X-174361Y-167629D01*
X-177342Y-166968D01*
X-180233Y-165986D01*
X-183000Y-164696D01*
X-185610Y-163112D01*
X-188032Y-161254D01*
X-190238Y-159143D01*
X-191209Y-157985D01*
X-195878Y-152223D01*
X-204642Y-140220D01*
X-212666Y-127723D01*
X-219928Y-114768D01*
X-226402Y-101401D01*
X-232064Y-87671D01*
X-236894Y-73627D01*
X-240875Y-59319D01*
X-243994Y-44798D01*
X-246237Y-30117D01*
X-247598Y-15328D01*
X-248072Y-485D01*
X-247656Y14362D01*
X-246353Y29156D01*
X-244167Y43846D01*
X-241105Y58378D01*
X-237180Y72702D01*
X-232404Y86765D01*
X-226796Y100516D01*
X-220374Y113908D01*
X-213163Y126892D01*
X-205187Y139420D01*
X-196476Y151449D01*
X-187062Y162935D01*
X-176976Y173837D01*
X-166256Y184116D01*
X-154941Y193735D01*
X-143070Y202659D01*
X-130686Y210858D01*
X-117834Y218300D01*
X-104559Y224960D01*
X-90910Y230814D01*
X-76935Y235841D01*
X-62684Y240022D01*
X-48208Y243343D01*
X-33560Y245792D01*
X-18791Y247359D01*
X-16821Y247450D01*
X-16541Y246191D01*
X-17266Y245891D01*
X-18391Y244766D01*
X-19000Y243296D01*
Y241704D01*
X-18391Y240234D01*
X-17266Y239109D01*
X-15796Y238500D01*
X-14204D01*
X-12734Y239109D01*
X-11609Y240234D01*
X-11000Y241704D01*
Y243296D01*
X-11609Y244766D01*
X-12734Y245891D01*
X-13767Y246319D01*
X-13542Y247600D01*
X-3955Y248041D01*
X10895Y247833D01*
D02*
G37*
G36*
X-6796Y218987D02*
X-6498Y218543D01*
X-5811Y218083D01*
X-5000Y217922D01*
X-4189Y218083D01*
X-3502Y218543D01*
X-3204Y218987D01*
X-2620Y219101D01*
X-2380D01*
X-1796Y218987D01*
X-1498Y218543D01*
X-811Y218083D01*
X0Y217922D01*
X811Y218083D01*
X1498Y218543D01*
X1796Y218987D01*
X2380Y219101D01*
X2620D01*
X3204Y218987D01*
X3502Y218543D01*
X4189Y218083D01*
X5000Y217922D01*
X5811Y218083D01*
X6498Y218543D01*
X6796Y218987D01*
X7380Y219101D01*
X7620D01*
X8204Y218987D01*
X8502Y218543D01*
X9189Y218083D01*
X10000Y217922D01*
X10811Y218083D01*
X11499Y218543D01*
X11796Y218987D01*
X12380Y219101D01*
X12620D01*
X13204Y218987D01*
X13502Y218543D01*
X13816Y218332D01*
X14010Y217261D01*
X14010Y217211D01*
X13935Y216842D01*
X6006Y208913D01*
X5796Y209000D01*
X4204D01*
X2734Y208391D01*
X1609Y207266D01*
X1000Y205796D01*
Y204204D01*
X1609Y202734D01*
X2734Y201609D01*
X4204Y201000D01*
X5796D01*
X7266Y201609D01*
X7927Y202270D01*
X8750Y202593D01*
X9573Y202270D01*
X10234Y201609D01*
X11704Y201000D01*
X13296D01*
X14766Y201609D01*
X15427Y202270D01*
X16250Y202593D01*
X17073Y202270D01*
X17666Y201677D01*
X17661Y201612D01*
X17352Y200407D01*
X16565Y200251D01*
X15898Y199805D01*
X9977Y193884D01*
X-5977D01*
X-16087Y203994D01*
X-16000Y204204D01*
Y205796D01*
X-16609Y207266D01*
X-17734Y208391D01*
X-19204Y209000D01*
X-20796D01*
X-22266Y208391D01*
X-22927Y207730D01*
X-23750Y207407D01*
X-24573Y207730D01*
X-25234Y208391D01*
X-26704Y209000D01*
X-28296D01*
X-28506Y208913D01*
X-36829Y217236D01*
X-36020Y218223D01*
X-35811Y218083D01*
X-35000Y217922D01*
X-34189Y218083D01*
X-33502Y218543D01*
X-33204Y218987D01*
X-32620Y219101D01*
X-32380D01*
X-31796Y218987D01*
X-31498Y218543D01*
X-30811Y218083D01*
X-30000Y217922D01*
X-29189Y218083D01*
X-28502Y218543D01*
X-28204Y218987D01*
X-27620Y219101D01*
X-27380D01*
X-26796Y218987D01*
X-26498Y218543D01*
X-25811Y218083D01*
X-25000Y217922D01*
X-24189Y218083D01*
X-23502Y218543D01*
X-23204Y218987D01*
X-22620Y219101D01*
X-22380D01*
X-21796Y218987D01*
X-21498Y218543D01*
X-20811Y218083D01*
X-20000Y217922D01*
X-19189Y218083D01*
X-18502Y218543D01*
X-18204Y218987D01*
X-17620Y219101D01*
X-17380D01*
X-16796Y218987D01*
X-16498Y218543D01*
X-15811Y218083D01*
X-15000Y217922D01*
X-14189Y218083D01*
X-13502Y218543D01*
X-13204Y218987D01*
X-12620Y219101D01*
X-12380D01*
X-11796Y218987D01*
X-11499Y218543D01*
X-10811Y218083D01*
X-10000Y217922D01*
X-9189Y218083D01*
X-8502Y218543D01*
X-8204Y218987D01*
X-7620Y219101D01*
X-7380D01*
X-6796Y218987D01*
D02*
G37*
G36*
X-54056Y119883D02*
Y114008D01*
X-55234Y113391D01*
X-56704Y114000D01*
X-58296D01*
X-59766Y113391D01*
X-60891Y112266D01*
X-61500Y110796D01*
Y109628D01*
X-66751Y104377D01*
X-67922Y105000D01*
X-68083Y105811D01*
X-68543Y106498D01*
X-68987Y106796D01*
X-69101Y107380D01*
Y107620D01*
X-68987Y108204D01*
X-68543Y108502D01*
X-68083Y109189D01*
X-67922Y110000D01*
X-68083Y110811D01*
X-68543Y111498D01*
X-68987Y111796D01*
X-69101Y112380D01*
Y112620D01*
X-68987Y113204D01*
X-68543Y113502D01*
X-68083Y114189D01*
X-67922Y115000D01*
X-68083Y115811D01*
X-68543Y116498D01*
X-68987Y116796D01*
X-69101Y117380D01*
Y117620D01*
X-68987Y118204D01*
X-68543Y118502D01*
X-68083Y119189D01*
X-67922Y120000D01*
X-68083Y120811D01*
X-68543Y121498D01*
X-68987Y121796D01*
X-69101Y122380D01*
Y122620D01*
X-68987Y123204D01*
X-68543Y123502D01*
X-68083Y124189D01*
X-67922Y125000D01*
X-68083Y125811D01*
X-68543Y126498D01*
X-68987Y126796D01*
X-69101Y127380D01*
Y127620D01*
X-68987Y128204D01*
X-68543Y128502D01*
X-68083Y129189D01*
X-67922Y130000D01*
X-68083Y130811D01*
X-68543Y131498D01*
X-68806Y131674D01*
X-68421Y132944D01*
X-67117D01*
X-54056Y119883D01*
D02*
G37*
G36*
X100484Y81219D02*
X99214Y80693D01*
X88454Y91454D01*
X87787Y91899D01*
X87000Y92056D01*
X87000Y92056D01*
X83547D01*
Y92078D01*
X83123D01*
X82738Y93348D01*
X82967Y93502D01*
X83426Y94189D01*
X83588Y95000D01*
X83426Y95811D01*
X82967Y96498D01*
X82704Y96674D01*
X83089Y97944D01*
X89000D01*
X89000Y97944D01*
X89787Y98101D01*
X90454Y98546D01*
X95819Y103912D01*
X100484D01*
Y81219D01*
D02*
G37*
G36*
X146638Y105189D02*
X146152Y104016D01*
X138484D01*
Y79484D01*
X141945D01*
Y74851D01*
X136649Y69556D01*
X110351D01*
X101693Y78214D01*
X102219Y79484D01*
X111516D01*
Y99562D01*
X112786Y100241D01*
X112944Y100135D01*
Y92500D01*
X112944Y92500D01*
X112984Y92301D01*
Y73984D01*
X124016D01*
Y104016D01*
X115891D01*
X114152Y105755D01*
X114638Y106929D01*
X144899D01*
X146638Y105189D01*
D02*
G37*
G36*
X148928Y61835D02*
X146006Y58913D01*
X145796Y59000D01*
X144204D01*
X142734Y58391D01*
X141609Y57266D01*
X141000Y55796D01*
Y54204D01*
X141609Y52734D01*
X142435Y51908D01*
Y50516D01*
X138484D01*
Y30395D01*
X137214Y29717D01*
X137016Y29849D01*
Y50516D01*
X128891D01*
X115232Y64174D01*
X115574Y65275D01*
X115702Y65444D01*
X137500D01*
X137500Y65444D01*
X138287Y65601D01*
X138953Y66047D01*
X145453Y72547D01*
X145454Y72547D01*
X145899Y73213D01*
X146055Y74000D01*
X146055Y74000D01*
Y79484D01*
X148928D01*
Y61835D01*
D02*
G37*
G36*
X84944Y61712D02*
X84766Y60516D01*
X82713Y60516D01*
X81815Y61414D01*
Y62709D01*
X81620Y63691D01*
X81414Y63998D01*
X81500Y64204D01*
Y65796D01*
X80891Y67266D01*
X79766Y68391D01*
X78296Y69000D01*
X76704D01*
X75234Y68391D01*
X74573Y67730D01*
X73750Y67407D01*
X72927Y67730D01*
X72266Y68391D01*
X70796Y69000D01*
X69204D01*
X68235Y68598D01*
X67597Y68912D01*
X67069Y69360D01*
X67056Y69380D01*
Y87046D01*
X67963Y87922D01*
X68326Y87922D01*
X83547D01*
Y87944D01*
X84944D01*
Y61712D01*
D02*
G37*
G36*
X-67500Y35000D02*
X-69343D01*
X-70234Y35891D01*
X-71704Y36500D01*
X-73296D01*
X-74766Y35891D01*
X-75891Y34766D01*
X-76356Y33644D01*
X-77149Y32851D01*
X-78384Y32766D01*
Y32766D01*
X-85000D01*
Y37500D01*
X-85884D01*
Y38016D01*
X-92500D01*
Y52500D01*
X-67500D01*
Y35000D01*
D02*
G37*
G36*
X74573Y62270D02*
X75234Y61609D01*
X76685Y61008D01*
Y55500D01*
X76734Y55252D01*
Y47484D01*
X84766Y47484D01*
X84944Y46288D01*
Y41601D01*
X81859Y38516D01*
X76734D01*
Y26539D01*
X74117D01*
X72266Y28391D01*
Y38516D01*
X72745Y39588D01*
X73391Y40234D01*
X74000Y41704D01*
Y43296D01*
X73391Y44766D01*
X72266Y45891D01*
X71486Y46214D01*
X71739Y47484D01*
X72266D01*
Y60516D01*
X72266Y60516D01*
X72391Y61734D01*
X72927Y62270D01*
X73750Y62593D01*
X74573Y62270D01*
D02*
G37*
G36*
X34420Y15173D02*
X33916Y13881D01*
X32734Y13391D01*
X31609Y12266D01*
X31000Y10796D01*
Y9703D01*
X29749Y9158D01*
X18119Y20787D01*
Y29814D01*
X19293Y30300D01*
X34420Y15173D01*
D02*
G37*
G36*
X142961Y-6711D02*
X133016D01*
Y8711D01*
X142961D01*
Y-6711D01*
D02*
G37*
G36*
X178587Y-71494D02*
X178500Y-71704D01*
Y-73076D01*
X177893Y-73504D01*
X177327Y-73699D01*
X175814Y-72186D01*
X174982Y-71630D01*
X174000Y-71435D01*
X145000D01*
X144018Y-71630D01*
X143186Y-72186D01*
X137937Y-77435D01*
X99257D01*
X98276Y-77630D01*
X97443Y-78186D01*
X95686Y-79943D01*
X95130Y-80776D01*
X94935Y-81757D01*
Y-82234D01*
X90286D01*
X89984Y-82234D01*
X89016D01*
X88714Y-82234D01*
X86055D01*
Y-75851D01*
X87749Y-74158D01*
X89000Y-74703D01*
Y-75796D01*
X89609Y-77266D01*
X90734Y-78391D01*
X92204Y-79000D01*
X93796D01*
X95266Y-78391D01*
X96391Y-77266D01*
X97000Y-75796D01*
Y-74204D01*
X96391Y-72734D01*
X95266Y-71609D01*
X93981Y-71077D01*
X93630Y-70535D01*
X93344Y-69730D01*
X93458Y-69556D01*
X176649D01*
X178587Y-71494D01*
D02*
G37*
G36*
X-48103Y-102670D02*
Y-115197D01*
X-66814Y-133907D01*
X-68084Y-133381D01*
Y-120991D01*
X-49277Y-102184D01*
X-48103Y-102670D01*
D02*
G37*
%LPC*%
G36*
X68296Y226500D02*
X66704D01*
X65234Y225891D01*
X64109Y224766D01*
X63500Y223296D01*
Y221704D01*
X64109Y220234D01*
X65234Y219109D01*
X66704Y218500D01*
X68296D01*
X69766Y219109D01*
X70891Y220234D01*
X71500Y221704D01*
Y223296D01*
X70891Y224766D01*
X69766Y225891D01*
X68296Y226500D01*
D02*
G37*
G36*
X105796Y215250D02*
X104204D01*
X103639Y215016D01*
X96484D01*
Y207484D01*
X103639D01*
X104204Y207250D01*
X105796D01*
X106361Y207484D01*
X113516D01*
Y215016D01*
X106361D01*
X105796Y215250D01*
D02*
G37*
G36*
X-60000Y233588D02*
X-60811Y233426D01*
X-61498Y232967D01*
X-61958Y232280D01*
X-62119Y231469D01*
Y228320D01*
X-90617D01*
X-91599Y228125D01*
X-92431Y227569D01*
X-101507Y218493D01*
X-102063Y217661D01*
X-102258Y216679D01*
Y215016D01*
X-103639D01*
X-104204Y215250D01*
X-105796D01*
X-106361Y215016D01*
X-113516D01*
Y207484D01*
X-106361D01*
X-105796Y207250D01*
X-104204D01*
X-103639Y207484D01*
X-96484D01*
Y215016D01*
X-96484D01*
X-96466Y216278D01*
X-89555Y223190D01*
X-62565D01*
Y207757D01*
X-62370Y206776D01*
X-61814Y205943D01*
X-61500Y205630D01*
Y204204D01*
X-60891Y202734D01*
X-59766Y201609D01*
X-58296Y201000D01*
X-56704D01*
X-55234Y201609D01*
X-54109Y202734D01*
X-53500Y204204D01*
Y205796D01*
X-54109Y207266D01*
X-55234Y208391D01*
X-56704Y209000D01*
X-57435D01*
Y225755D01*
X-57630Y226737D01*
X-57881Y227112D01*
Y231469D01*
X-58042Y232280D01*
X-58502Y232967D01*
X-59189Y233426D01*
X-60000Y233588D01*
D02*
G37*
G36*
X-134204Y195250D02*
X-135796D01*
X-136361Y195016D01*
X-143516D01*
Y187484D01*
X-136361D01*
X-135796Y187250D01*
X-134204D01*
X-133639Y187484D01*
X-126484D01*
Y195016D01*
X-133639D01*
X-134204Y195250D01*
D02*
G37*
G36*
X-96484Y182516D02*
X-113516D01*
Y180448D01*
X-114791D01*
X-115234Y180891D01*
X-116704Y181500D01*
X-118296D01*
X-119766Y180891D01*
X-120891Y179766D01*
X-121500Y178296D01*
Y176704D01*
X-120891Y175234D01*
X-119766Y174109D01*
X-118296Y173500D01*
X-116704D01*
X-115234Y174109D01*
X-114661Y174682D01*
X-113516Y174984D01*
X-113516Y174984D01*
Y174984D01*
X-113516Y174984D01*
X-96484D01*
Y182516D01*
D02*
G37*
G36*
X-134204Y182500D02*
X-135796D01*
X-137266Y181891D01*
X-138391Y180766D01*
X-139000Y179296D01*
Y177704D01*
X-138391Y176234D01*
X-137266Y175109D01*
X-135796Y174500D01*
X-134204D01*
X-132734Y175109D01*
X-131609Y176234D01*
X-131000Y177704D01*
Y179296D01*
X-131609Y180766D01*
X-132734Y181891D01*
X-134204Y182500D01*
D02*
G37*
G36*
X-143204Y177000D02*
X-144796D01*
X-146266Y176391D01*
X-147391Y175266D01*
X-148000Y173796D01*
Y172204D01*
X-147391Y170734D01*
X-146266Y169609D01*
X-144796Y169000D01*
X-143204D01*
X-141734Y169609D01*
X-140609Y170734D01*
X-140000Y172204D01*
Y173796D01*
X-140609Y175266D01*
X-141734Y176391D01*
X-143204Y177000D01*
D02*
G37*
G36*
X13296Y169000D02*
X11704D01*
X10234Y168391D01*
X9109Y167266D01*
X8500Y165796D01*
Y164204D01*
X9109Y162734D01*
X10234Y161609D01*
X11704Y161000D01*
X13296D01*
X14766Y161609D01*
X15891Y162734D01*
X16500Y164204D01*
Y165796D01*
X15891Y167266D01*
X14766Y168391D01*
X13296Y169000D01*
D02*
G37*
G36*
X-56704Y166500D02*
X-58296D01*
X-59766Y165891D01*
X-60891Y164766D01*
X-61500Y163296D01*
Y161704D01*
X-60891Y160234D01*
X-59766Y159109D01*
X-58296Y158500D01*
X-56704D01*
X-55234Y159109D01*
X-54109Y160234D01*
X-53500Y161704D01*
Y163296D01*
X-54109Y164766D01*
X-55234Y165891D01*
X-56704Y166500D01*
D02*
G37*
G36*
X-160382Y166120D02*
X-161974D01*
X-163444Y165511D01*
X-164569Y164386D01*
X-165178Y162916D01*
Y161324D01*
X-164569Y159854D01*
X-163444Y158729D01*
X-161974Y158120D01*
X-160382D01*
X-158912Y158729D01*
X-157787Y159854D01*
X-157178Y161324D01*
Y162916D01*
X-157787Y164386D01*
X-158912Y165511D01*
X-160382Y166120D01*
D02*
G37*
G36*
X-99204Y146500D02*
X-100796D01*
X-102266Y145891D01*
X-103391Y144766D01*
X-104000Y143296D01*
Y141704D01*
X-103391Y140234D01*
X-102266Y139109D01*
X-100796Y138500D01*
X-99204D01*
X-97734Y139109D01*
X-96609Y140234D01*
X-96000Y141704D01*
Y143296D01*
X-96609Y144766D01*
X-97734Y145891D01*
X-99204Y146500D01*
D02*
G37*
G36*
X-189204Y139000D02*
X-190796D01*
X-192266Y138391D01*
X-193391Y137266D01*
X-194000Y135796D01*
Y134204D01*
X-193391Y132734D01*
X-192266Y131609D01*
X-190796Y131000D01*
X-189204D01*
X-187734Y131609D01*
X-186609Y132734D01*
X-186000Y134204D01*
Y135796D01*
X-186609Y137266D01*
X-187734Y138391D01*
X-189204Y139000D01*
D02*
G37*
G36*
X-178689Y140985D02*
X-180280D01*
X-181751Y140376D01*
X-182876Y139251D01*
X-183485Y137780D01*
Y136189D01*
X-182876Y134719D01*
X-182147Y133990D01*
X-182266Y133391D01*
X-183391Y132266D01*
X-184000Y130796D01*
Y129204D01*
X-183391Y127734D01*
X-182266Y126609D01*
X-180796Y126000D01*
X-179204D01*
X-177734Y126609D01*
X-177732Y126612D01*
X-177535Y126626D01*
X-176308Y126240D01*
X-175891Y125234D01*
X-174766Y124109D01*
X-173296Y123500D01*
X-171704D01*
X-170234Y124109D01*
X-170232Y124112D01*
X-170035Y124126D01*
X-168808Y123740D01*
X-168391Y122734D01*
X-167266Y121609D01*
X-165796Y121000D01*
X-164204D01*
X-162734Y121609D01*
X-161609Y122734D01*
X-161000Y124204D01*
Y125796D01*
X-161609Y127266D01*
X-162734Y128391D01*
X-164204Y129000D01*
X-165796D01*
X-167266Y128391D01*
X-167268Y128388D01*
X-167465Y128374D01*
X-168692Y128760D01*
X-169109Y129766D01*
X-169747Y130404D01*
X-170092Y131234D01*
X-169747Y132063D01*
X-169109Y132702D01*
X-168500Y134172D01*
Y135764D01*
X-169109Y137234D01*
X-170234Y138359D01*
X-171704Y138968D01*
X-173295D01*
X-174765Y138359D01*
X-175970Y138951D01*
X-176094Y139251D01*
X-177219Y140376D01*
X-178689Y140985D01*
D02*
G37*
G36*
X198796Y133500D02*
X197204D01*
X196036Y133016D01*
X192984D01*
Y125984D01*
X196036D01*
X196057Y125975D01*
X196247Y124522D01*
X195645Y124016D01*
X192984D01*
Y116984D01*
X196036D01*
X197204Y116500D01*
X198796D01*
X199964Y116984D01*
X203016D01*
Y124016D01*
X199964D01*
X199943Y124025D01*
X199753Y125478D01*
X200355Y125984D01*
X203016D01*
Y133016D01*
X199964D01*
X198796Y133500D01*
D02*
G37*
G36*
X-99204Y122500D02*
X-100796D01*
X-102266Y121891D01*
X-103391Y120766D01*
X-104000Y119296D01*
Y117704D01*
X-103391Y116234D01*
X-102266Y115109D01*
X-100796Y114500D01*
X-99204D01*
X-97734Y115109D01*
X-96609Y116234D01*
X-96000Y117704D01*
Y119296D01*
X-96609Y120766D01*
X-97734Y121891D01*
X-99204Y122500D01*
D02*
G37*
G36*
X-164204Y119000D02*
X-165796D01*
X-167266Y118391D01*
X-168391Y117266D01*
X-169000Y115796D01*
Y114204D01*
X-168391Y112734D01*
X-167266Y111609D01*
X-165796Y111000D01*
X-164204D01*
X-162734Y111609D01*
X-161609Y112734D01*
X-161000Y114204D01*
Y115796D01*
X-161609Y117266D01*
X-162734Y118391D01*
X-164204Y119000D01*
D02*
G37*
G36*
X210796Y124000D02*
X209204D01*
X207734Y123391D01*
X206609Y122266D01*
X206000Y120796D01*
Y119204D01*
X206609Y117734D01*
X207734Y116609D01*
X209204Y116000D01*
X209831D01*
X210435Y115396D01*
Y103016D01*
X207984D01*
Y95984D01*
X218016D01*
Y103016D01*
X215565D01*
Y116459D01*
X215370Y117441D01*
X214814Y118273D01*
X213965Y119121D01*
X214000Y119204D01*
Y120796D01*
X213391Y122266D01*
X212266Y123391D01*
X210796Y124000D01*
D02*
G37*
G36*
X197796Y103500D02*
X196204D01*
X195036Y103016D01*
X191984D01*
Y95984D01*
X195036D01*
X195057Y95975D01*
X195247Y94522D01*
X194645Y94016D01*
X191984D01*
Y86984D01*
X195036D01*
X196204Y86500D01*
X197796D01*
X198964Y86984D01*
X202016D01*
Y94016D01*
X198964D01*
X198943Y94025D01*
X198753Y95478D01*
X199355Y95984D01*
X202016D01*
Y103016D01*
X198964D01*
X197796Y103500D01*
D02*
G37*
G36*
X218016Y94016D02*
X207984D01*
Y86984D01*
X218016D01*
Y87377D01*
X219286Y87557D01*
X220234Y86609D01*
X221704Y86000D01*
X223296D01*
X224766Y86609D01*
X225891Y87734D01*
X226500Y89204D01*
Y90796D01*
X225891Y92266D01*
X224766Y93391D01*
X223296Y94000D01*
X221704D01*
X220234Y93391D01*
X219659Y92815D01*
X218016D01*
Y94016D01*
D02*
G37*
G36*
X-94343Y88861D02*
X-95935D01*
X-97405Y88252D01*
X-98530Y87127D01*
X-99139Y85657D01*
Y84065D01*
X-98530Y82595D01*
X-97405Y81470D01*
X-95935Y80861D01*
X-95056D01*
Y77698D01*
X-95166Y77431D01*
Y76569D01*
X-94836Y75773D01*
X-94801Y75719D01*
X-95693Y74827D01*
X-95748Y74820D01*
X-95773Y74836D01*
X-96569Y75166D01*
X-97431D01*
X-97698Y75055D01*
X-110622D01*
Y79807D01*
X-119378D01*
Y79521D01*
X-119574Y79312D01*
X-120648Y78777D01*
X-121704Y79214D01*
X-123296D01*
X-124352Y78777D01*
X-125426Y79311D01*
X-125622Y79521D01*
Y79807D01*
X-134378D01*
Y70622D01*
X-125622D01*
Y70908D01*
X-125426Y71117D01*
X-124352Y71652D01*
X-123296Y71214D01*
X-121704D01*
X-120648Y71652D01*
X-119574Y71117D01*
X-119378Y70908D01*
Y70622D01*
X-110622D01*
Y70944D01*
X-97698D01*
X-97431Y70834D01*
X-96569D01*
X-96326Y70935D01*
X-95094Y70244D01*
X-95352Y69000D01*
X-95796D01*
X-97266Y68391D01*
X-98391Y67266D01*
X-99000Y65796D01*
Y64204D01*
X-98391Y62734D01*
X-97266Y61609D01*
X-95796Y61000D01*
X-94204D01*
X-92734Y61609D01*
X-91609Y62734D01*
X-91000Y64204D01*
Y65796D01*
X-91353Y66648D01*
X-91101Y67025D01*
X-90944Y67812D01*
X-90944Y67812D01*
Y72302D01*
X-90834Y72569D01*
Y73431D01*
X-91164Y74227D01*
X-91666Y75000D01*
X-91164Y75773D01*
X-90834Y76569D01*
Y77431D01*
X-90944Y77698D01*
Y81910D01*
X-90944Y81910D01*
X-91101Y82697D01*
X-91474Y83256D01*
X-91139Y84065D01*
Y85657D01*
X-91748Y87127D01*
X-92873Y88252D01*
X-94343Y88861D01*
D02*
G37*
G36*
X175796Y79000D02*
X174204D01*
X172734Y78391D01*
X171609Y77266D01*
X171000Y75796D01*
Y74204D01*
X171609Y72734D01*
X172734Y71609D01*
X174204Y71000D01*
X175796D01*
X177266Y71609D01*
X178391Y72734D01*
X179000Y74204D01*
Y75796D01*
X178391Y77266D01*
X177266Y78391D01*
X175796Y79000D01*
D02*
G37*
G36*
X201251Y82550D02*
X198749D01*
X196333Y81903D01*
X194167Y80652D01*
X192398Y78883D01*
X191147Y76717D01*
X190500Y74301D01*
Y71799D01*
X191147Y69383D01*
X192398Y67217D01*
X194167Y65448D01*
X196333Y64197D01*
X198749Y63550D01*
X201251D01*
X203667Y64197D01*
X205833Y65448D01*
X207602Y67217D01*
X208853Y69383D01*
X209500Y71799D01*
Y74301D01*
X208853Y76717D01*
X207602Y78883D01*
X205833Y80652D01*
X203667Y81903D01*
X201251Y82550D01*
D02*
G37*
G36*
X-198749D02*
X-201251D01*
X-203667Y81903D01*
X-205833Y80652D01*
X-207602Y78883D01*
X-208853Y76717D01*
X-209500Y74301D01*
Y71799D01*
X-208853Y69383D01*
X-207602Y67217D01*
X-205833Y65448D01*
X-203667Y64197D01*
X-201251Y63550D01*
X-198749D01*
X-196333Y64197D01*
X-194167Y65448D01*
X-192398Y67217D01*
X-191147Y69383D01*
X-190500Y71799D01*
Y74301D01*
X-191147Y76717D01*
X-192398Y78883D01*
X-194167Y80652D01*
X-196333Y81903D01*
X-198749Y82550D01*
D02*
G37*
G36*
X-116704Y69000D02*
X-118296D01*
X-119766Y68391D01*
X-120891Y67266D01*
X-121500Y65796D01*
Y64204D01*
X-120891Y62734D01*
X-119766Y61609D01*
X-118296Y61000D01*
X-116704D01*
X-115234Y61609D01*
X-114109Y62734D01*
X-113500Y64204D01*
Y65796D01*
X-114109Y67266D01*
X-115234Y68391D01*
X-116704Y69000D01*
D02*
G37*
G36*
X-154204Y61500D02*
X-155796D01*
X-157266Y60891D01*
X-158391Y59766D01*
X-159000Y58296D01*
Y56704D01*
X-158391Y55234D01*
X-157266Y54109D01*
X-155796Y53500D01*
X-154204D01*
X-152734Y54109D01*
X-151609Y55234D01*
X-151000Y56704D01*
Y58296D01*
X-151609Y59766D01*
X-152734Y60891D01*
X-154204Y61500D01*
D02*
G37*
G36*
X-181855Y62150D02*
X-183845D01*
X-184530Y61866D01*
X-198466D01*
Y52434D01*
X-184530D01*
X-183845Y52150D01*
X-181855D01*
X-181170Y52434D01*
X-167234D01*
Y61866D01*
X-181170D01*
X-181855Y62150D01*
D02*
G37*
G36*
X-216155D02*
X-218145D01*
X-218830Y61866D01*
X-232766D01*
Y52434D01*
X-218830D01*
X-218145Y52150D01*
X-216155D01*
X-215470Y52434D01*
X-201534D01*
Y61866D01*
X-215470D01*
X-216155Y62150D01*
D02*
G37*
G36*
X-181855Y49450D02*
X-183845D01*
X-184328Y49250D01*
X-215672D01*
X-216155Y49450D01*
X-218145D01*
X-218628Y49250D01*
X-231750D01*
X-231952Y49166D01*
X-232766D01*
Y48352D01*
X-232850Y48150D01*
Y28050D01*
X-232766Y27848D01*
Y27034D01*
X-231952D01*
X-231750Y26950D01*
X-218628D01*
X-218145Y26750D01*
X-216155D01*
X-215672Y26950D01*
X-184328D01*
X-183845Y26750D01*
X-181855D01*
X-181372Y26950D01*
X-168250D01*
X-168048Y27034D01*
X-167234D01*
Y27848D01*
X-167150Y28050D01*
Y48150D01*
X-167234Y48352D01*
Y49166D01*
X-168048D01*
X-168250Y49250D01*
X-181372D01*
X-181855Y49450D01*
D02*
G37*
G36*
X-125214Y59859D02*
X-127074Y59489D01*
X-127240Y59378D01*
X-129807D01*
Y56340D01*
X-130074Y55000D01*
Y48600D01*
X-142500D01*
X-142536Y48585D01*
X-144723Y48297D01*
X-146795Y47439D01*
X-148574Y46074D01*
X-163574Y31074D01*
X-164939Y29295D01*
X-165797Y27223D01*
X-166089Y25000D01*
Y11369D01*
X-167234Y11066D01*
X-168250Y11150D01*
X-181372D01*
X-181855Y11350D01*
X-183845D01*
X-184328Y11150D01*
X-215672D01*
X-216155Y11350D01*
X-218145D01*
X-218628Y11150D01*
X-231750D01*
X-231952Y11066D01*
X-232766D01*
Y10252D01*
X-232850Y10050D01*
Y-10050D01*
X-232766Y-10252D01*
Y-11066D01*
X-231952D01*
X-231750Y-11150D01*
X-218628D01*
X-218145Y-11350D01*
X-216155D01*
X-215672Y-11150D01*
X-184289D01*
X-183845Y-11334D01*
X-181855D01*
X-181411Y-11150D01*
X-168250D01*
X-168048Y-11066D01*
X-167234D01*
Y-10252D01*
X-167150Y-10050D01*
Y-8590D01*
X-162500D01*
X-160277Y-8297D01*
X-158205Y-7439D01*
X-156426Y-6074D01*
X-151426Y-1074D01*
X-150061Y705D01*
X-149203Y2777D01*
X-148911Y5000D01*
Y21442D01*
X-138952Y31400D01*
X-121100Y31400D01*
Y27765D01*
X-122370Y27539D01*
X-122647Y27954D01*
X-123313Y28399D01*
X-124100Y28556D01*
X-131600D01*
X-132387Y28399D01*
X-133054Y27954D01*
X-133499Y27287D01*
X-133656Y26500D01*
Y20500D01*
X-133499Y19713D01*
X-133054Y19046D01*
X-132387Y18601D01*
X-131600Y18444D01*
X-124100D01*
X-123313Y18601D01*
X-122647Y19046D01*
X-122201Y19713D01*
X-122044Y20500D01*
Y22052D01*
X-117709D01*
X-117266Y21609D01*
X-116084Y21119D01*
X-115580Y19827D01*
X-122175Y13232D01*
X-123444Y13750D01*
X-123601Y14537D01*
X-124047Y15203D01*
X-124713Y15649D01*
X-125500Y15805D01*
X-131500D01*
X-132287Y15649D01*
X-132954Y15203D01*
X-133399Y14537D01*
X-133555Y13750D01*
Y6250D01*
X-133399Y5463D01*
X-132954Y4796D01*
X-132287Y4351D01*
X-131500Y4195D01*
X-125500D01*
X-124713Y4351D01*
X-124047Y4796D01*
X-123601Y5463D01*
X-123444Y6250D01*
Y8687D01*
X-121757D01*
X-121757Y8687D01*
X-121101Y8818D01*
X-120786Y8497D01*
X-120395Y7762D01*
X-120891Y7266D01*
X-121500Y5796D01*
Y4204D01*
X-120952Y2881D01*
X-121427Y1611D01*
X-137328D01*
X-138115Y1454D01*
X-138490Y1204D01*
X-139204Y1500D01*
X-140796D01*
X-142266Y891D01*
X-143391Y-234D01*
X-144000Y-1704D01*
Y-3296D01*
X-143391Y-4766D01*
X-142266Y-5891D01*
X-140796Y-6500D01*
X-139204D01*
X-137734Y-5891D01*
X-136609Y-4766D01*
X-136000Y-3296D01*
Y-2500D01*
X-115874D01*
X-115873Y-2500D01*
X-115087Y-2343D01*
X-114420Y-1898D01*
X-111046Y1476D01*
X-110601Y2142D01*
X-110444Y2929D01*
X-110444Y2929D01*
Y9499D01*
X-107709Y12234D01*
X-104084D01*
Y17234D01*
Y27322D01*
X-103900Y27766D01*
Y47500D01*
X-104222Y48278D01*
X-105000Y48600D01*
X-120355D01*
Y55000D01*
X-120622Y56340D01*
Y59378D01*
X-123188D01*
X-123355Y59489D01*
X-125214Y59859D01*
D02*
G37*
G36*
X-29204Y19000D02*
X-30796D01*
X-32266Y18391D01*
X-33391Y17266D01*
X-34000Y15796D01*
Y14204D01*
X-33391Y12734D01*
X-32266Y11609D01*
X-30796Y11000D01*
X-29204D01*
X-27734Y11609D01*
X-26609Y12734D01*
X-26000Y14204D01*
Y15796D01*
X-26609Y17266D01*
X-27734Y18391D01*
X-29204Y19000D01*
D02*
G37*
G36*
X-139204Y26500D02*
X-140796D01*
X-142266Y25891D01*
X-143391Y24766D01*
X-144000Y23296D01*
Y21704D01*
X-143391Y20234D01*
X-142266Y19109D01*
X-142056Y19022D01*
Y15805D01*
X-144500D01*
X-145287Y15649D01*
X-145954Y15203D01*
X-146399Y14537D01*
X-146556Y13750D01*
Y6250D01*
X-146399Y5463D01*
X-145954Y4796D01*
X-145287Y4351D01*
X-144500Y4195D01*
X-138500D01*
X-137713Y4351D01*
X-137047Y4796D01*
X-136601Y5463D01*
X-136445Y6250D01*
Y13750D01*
X-136601Y14537D01*
X-137047Y15203D01*
X-137713Y15649D01*
X-137944Y15695D01*
Y19022D01*
X-137734Y19109D01*
X-136609Y20234D01*
X-136000Y21704D01*
Y23296D01*
X-136609Y24766D01*
X-137734Y25891D01*
X-139204Y26500D01*
D02*
G37*
G36*
X-31704Y-3500D02*
X-33296D01*
X-34766Y-4109D01*
X-35891Y-5234D01*
X-36500Y-6704D01*
Y-8296D01*
X-35891Y-9766D01*
X-34766Y-10891D01*
X-33296Y-11500D01*
X-31704D01*
X-30234Y-10891D01*
X-29109Y-9766D01*
X-28500Y-8296D01*
Y-6704D01*
X-29109Y-5234D01*
X-30234Y-4109D01*
X-31704Y-3500D01*
D02*
G37*
G36*
X218145Y-14050D02*
X216155D01*
X215672Y-14250D01*
X184328D01*
X183845Y-14050D01*
X181855D01*
X181372Y-14250D01*
X168250D01*
X168048Y-14334D01*
X167234D01*
Y-15148D01*
X167150Y-15350D01*
Y-60850D01*
X167234Y-61052D01*
Y-61866D01*
X168048D01*
X168250Y-61950D01*
X181372D01*
X181855Y-62150D01*
X183845D01*
X184328Y-61950D01*
X215672D01*
X216155Y-62150D01*
X218145D01*
X218628Y-61950D01*
X231750D01*
X231952Y-61866D01*
X232766D01*
Y-61052D01*
X232850Y-60850D01*
Y-15350D01*
X232766Y-15148D01*
Y-14334D01*
X231952D01*
X231750Y-14250D01*
X218628D01*
X218145Y-14050D01*
D02*
G37*
G36*
X-122084Y-9984D02*
X-134116D01*
Y-21516D01*
X-122084D01*
Y-9984D01*
D02*
G37*
G36*
X-29204Y-16000D02*
X-30796D01*
X-32266Y-16609D01*
X-33391Y-17734D01*
X-34000Y-19204D01*
Y-20796D01*
X-33391Y-22266D01*
X-32266Y-23391D01*
X-30796Y-24000D01*
X-29204D01*
X-27734Y-23391D01*
X-26609Y-22266D01*
X-26000Y-20796D01*
Y-19204D01*
X-26609Y-17734D01*
X-27734Y-16609D01*
X-29204Y-16000D01*
D02*
G37*
G36*
X-181855Y-26750D02*
X-183845D01*
X-184530Y-27034D01*
X-198466D01*
Y-36466D01*
X-184530D01*
X-183845Y-36750D01*
X-181855D01*
X-181170Y-36466D01*
X-167234D01*
Y-27034D01*
X-181170D01*
X-181855Y-26750D01*
D02*
G37*
G36*
X-216155D02*
X-218145D01*
X-218830Y-27034D01*
X-232766D01*
Y-36466D01*
X-218830D01*
X-218145Y-36750D01*
X-216155D01*
X-215470Y-36466D01*
X-201534D01*
Y-27034D01*
X-215470D01*
X-216155Y-26750D01*
D02*
G37*
G36*
X95796Y-34750D02*
X94204D01*
X92734Y-35359D01*
X91609Y-36484D01*
X91000Y-37954D01*
Y-39546D01*
X91609Y-41016D01*
X92734Y-42141D01*
X94204Y-42750D01*
X95796D01*
X97266Y-42141D01*
X98391Y-41016D01*
X99000Y-39546D01*
Y-37954D01*
X98391Y-36484D01*
X97266Y-35359D01*
X95796Y-34750D01*
D02*
G37*
G36*
X85796D02*
X84204D01*
X82734Y-35359D01*
X81609Y-36484D01*
X81000Y-37954D01*
Y-39546D01*
X81609Y-41016D01*
X82734Y-42141D01*
X84204Y-42750D01*
X85796D01*
X87266Y-42141D01*
X88391Y-41016D01*
X89000Y-39546D01*
Y-37954D01*
X88391Y-36484D01*
X87266Y-35359D01*
X85796Y-34750D01*
D02*
G37*
G36*
X-127704Y-43500D02*
X-129296D01*
X-130766Y-44109D01*
X-131891Y-45234D01*
X-132500Y-46704D01*
Y-48296D01*
X-131891Y-49766D01*
X-130766Y-50891D01*
X-129296Y-51500D01*
X-127704D01*
X-126234Y-50891D01*
X-125109Y-49766D01*
X-124500Y-48296D01*
Y-46704D01*
X-125109Y-45234D01*
X-126234Y-44109D01*
X-127704Y-43500D01*
D02*
G37*
G36*
X-145704D02*
X-147296D01*
X-148766Y-44109D01*
X-149891Y-45234D01*
X-150500Y-46704D01*
Y-48296D01*
X-149891Y-49766D01*
X-148766Y-50891D01*
X-147296Y-51500D01*
X-145704D01*
X-144234Y-50891D01*
X-143109Y-49766D01*
X-142500Y-48296D01*
Y-46704D01*
X-143109Y-45234D01*
X-144234Y-44109D01*
X-145704Y-43500D01*
D02*
G37*
G36*
X140796Y-51000D02*
X139204D01*
X137734Y-51609D01*
X136609Y-52734D01*
X136000Y-54204D01*
Y-55796D01*
X136609Y-57266D01*
X137734Y-58391D01*
X139204Y-59000D01*
X140796D01*
X142266Y-58391D01*
X143391Y-57266D01*
X144000Y-55796D01*
Y-54204D01*
X143391Y-52734D01*
X142266Y-51609D01*
X140796Y-51000D01*
D02*
G37*
G36*
X-181855Y-52150D02*
X-183845D01*
X-184530Y-52434D01*
X-198466D01*
Y-61866D01*
X-191556D01*
Y-66263D01*
X-192826Y-66789D01*
X-194167Y-65448D01*
X-196333Y-64197D01*
X-198749Y-63550D01*
X-201251D01*
X-203667Y-64197D01*
X-205833Y-65448D01*
X-207174Y-66789D01*
X-208444Y-66263D01*
Y-61866D01*
X-201534D01*
Y-52434D01*
X-215470D01*
X-216155Y-52150D01*
X-218145D01*
X-218830Y-52434D01*
X-232766D01*
Y-61866D01*
X-218830D01*
X-218145Y-62150D01*
X-216155D01*
X-215470Y-61866D01*
X-212556D01*
Y-77399D01*
X-212556Y-77399D01*
X-212399Y-78186D01*
X-211954Y-78853D01*
X-205803Y-85003D01*
X-205803Y-85003D01*
X-205136Y-85449D01*
X-204349Y-85605D01*
X-203563D01*
Y-87627D01*
X-203563Y-87628D01*
X-203563Y-87628D01*
Y-89194D01*
X-209500D01*
X-210287Y-89351D01*
X-210954Y-89796D01*
X-211399Y-90463D01*
X-211556Y-91250D01*
Y-98750D01*
X-211399Y-99537D01*
X-210954Y-100204D01*
X-210287Y-100649D01*
X-209500Y-100806D01*
X-203563D01*
Y-105722D01*
X-203563Y-105723D01*
X-203407Y-106509D01*
X-202961Y-107176D01*
X-200005Y-110132D01*
X-200150Y-111784D01*
X-201532Y-112751D01*
X-202572Y-113479D01*
X-206856Y-116479D01*
X-199381Y-127154D01*
X-195071Y-124136D01*
X-194030Y-123408D01*
X-192990Y-122679D01*
X-188706Y-119679D01*
Y-119679D01*
X-184422Y-116680D01*
X-183382Y-115951D01*
X-182341Y-115223D01*
X-178057Y-112223D01*
X-185532Y-101548D01*
X-189842Y-104566D01*
X-190883Y-105294D01*
X-191923Y-106023D01*
X-193165Y-106893D01*
X-196437Y-103622D01*
Y-100806D01*
X-190500D01*
X-189713Y-100649D01*
X-189046Y-100204D01*
X-188601Y-99537D01*
X-188444Y-98750D01*
Y-91250D01*
X-188601Y-90463D01*
X-189046Y-89796D01*
X-189713Y-89351D01*
X-190500Y-89194D01*
X-196437D01*
Y-86492D01*
X-195651Y-85605D01*
X-194864Y-85449D01*
X-194197Y-85003D01*
X-188047Y-78853D01*
X-188046Y-78853D01*
X-187601Y-78186D01*
X-187444Y-77399D01*
Y-61866D01*
X-184530D01*
X-183845Y-62150D01*
X-181855D01*
X-181170Y-61866D01*
X-167234D01*
Y-52434D01*
X-181170D01*
X-181855Y-52150D01*
D02*
G37*
G36*
X60796Y-66000D02*
X59204D01*
X57734Y-66609D01*
X56609Y-67734D01*
X56000Y-69204D01*
Y-70796D01*
X56609Y-72266D01*
X57734Y-73391D01*
X59204Y-74000D01*
X60796D01*
X62266Y-73391D01*
X63391Y-72266D01*
X64000Y-70796D01*
Y-69204D01*
X63391Y-67734D01*
X62266Y-66609D01*
X60796Y-66000D01*
D02*
G37*
G36*
X45796Y-71000D02*
X44204D01*
X42734Y-71609D01*
X41609Y-72734D01*
X41000Y-74204D01*
Y-75796D01*
X41609Y-77266D01*
X42734Y-78391D01*
X44204Y-79000D01*
X45796D01*
X47266Y-78391D01*
X48391Y-77266D01*
X49000Y-75796D01*
Y-74204D01*
X48391Y-72734D01*
X47266Y-71609D01*
X45796Y-71000D01*
D02*
G37*
G36*
X201251Y-63550D02*
X198749D01*
X196333Y-64197D01*
X194167Y-65448D01*
X192398Y-67217D01*
X191147Y-69383D01*
X190500Y-71799D01*
Y-74301D01*
X191147Y-76717D01*
X192398Y-78883D01*
X194167Y-80652D01*
X196333Y-81903D01*
X198749Y-82550D01*
X201251D01*
X203667Y-81903D01*
X205833Y-80652D01*
X207602Y-78883D01*
X208853Y-76717D01*
X209500Y-74301D01*
Y-71799D01*
X208853Y-69383D01*
X207602Y-67217D01*
X205833Y-65448D01*
X203667Y-64197D01*
X201251Y-63550D01*
D02*
G37*
G36*
X145796Y-101000D02*
X144204D01*
X142734Y-101609D01*
X141609Y-102734D01*
X141000Y-104204D01*
Y-105796D01*
X141609Y-107266D01*
X142734Y-108391D01*
X144204Y-109000D01*
X145796D01*
X147266Y-108391D01*
X148391Y-107266D01*
X149000Y-105796D01*
Y-104204D01*
X148391Y-102734D01*
X147266Y-101609D01*
X145796Y-101000D01*
D02*
G37*
G36*
X135266Y-127484D02*
X124734D01*
Y-132863D01*
X117900Y-139698D01*
X114266D01*
Y-135734D01*
X105734D01*
Y-144266D01*
X114266D01*
Y-143802D01*
X116400D01*
X119811Y-147214D01*
X119619Y-148484D01*
X118984D01*
Y-161016D01*
X131016D01*
Y-148484D01*
X124052D01*
Y-146500D01*
X123896Y-145715D01*
X123451Y-145049D01*
X120903Y-142500D01*
X127637Y-135766D01*
X135266D01*
Y-127484D01*
D02*
G37*
G36*
X67016Y-82234D02*
X56984D01*
Y-99766D01*
X59948D01*
Y-102000D01*
X60104Y-102786D01*
X60549Y-103451D01*
X95734Y-138637D01*
Y-144266D01*
X104266D01*
Y-135734D01*
X98637D01*
X64052Y-101150D01*
Y-99766D01*
X67016D01*
Y-82234D01*
D02*
G37*
G36*
X-179204Y-118500D02*
X-180796D01*
X-182266Y-119109D01*
X-183391Y-120234D01*
X-184000Y-121704D01*
Y-123296D01*
X-183391Y-124766D01*
X-182266Y-125891D01*
X-182264Y-125912D01*
X-181269Y-129192D01*
X-180837Y-130000D01*
X-181294Y-130321D01*
X-173819Y-140996D01*
X-171581Y-139428D01*
X-170562Y-140188D01*
X-173339Y-148518D01*
X-174766Y-149109D01*
X-175891Y-150234D01*
X-176500Y-151704D01*
Y-153296D01*
X-175891Y-154766D01*
X-174766Y-155891D01*
X-173296Y-156500D01*
X-171704D01*
X-170234Y-155891D01*
X-169109Y-154766D01*
X-168500Y-153296D01*
Y-151704D01*
X-169109Y-150234D01*
X-169461Y-149882D01*
X-165706Y-138617D01*
X-165692Y-138505D01*
X-165459Y-137337D01*
X-165555Y-136854D01*
X-165548Y-136700D01*
X-165549Y-136698D01*
X-165552Y-136689D01*
X-165552Y-136679D01*
X-165769Y-135359D01*
X-163144Y-133521D01*
X-170619Y-122846D01*
X-174953Y-125881D01*
X-176359Y-125473D01*
X-176605Y-124778D01*
X-176586Y-124711D01*
X-176000Y-123296D01*
Y-121704D01*
X-176609Y-120234D01*
X-177734Y-119109D01*
X-179204Y-118500D01*
D02*
G37*
G36*
X-186592Y-134031D02*
X-191943Y-137777D01*
X-186348Y-145768D01*
X-187754Y-148500D01*
X-188296D01*
X-189766Y-149109D01*
X-190891Y-150234D01*
X-191500Y-151704D01*
Y-153296D01*
X-190891Y-154766D01*
X-189766Y-155891D01*
X-188296Y-156500D01*
X-186704D01*
X-185234Y-155891D01*
X-184109Y-154766D01*
X-183500Y-153296D01*
Y-151704D01*
X-184070Y-150327D01*
X-182339Y-146961D01*
X-179118Y-144706D01*
X-186592Y-134031D01*
D02*
G37*
%LPD*%
G36*
X-181591Y60850D02*
X-181372D01*
X-181170Y60766D01*
X-168334D01*
Y53534D01*
X-181170D01*
X-181372Y53450D01*
X-181591D01*
X-181591Y53450D01*
X-184109D01*
X-184109Y53450D01*
X-184328D01*
X-184530Y53534D01*
X-197366D01*
Y60766D01*
X-184530D01*
X-184328Y60850D01*
X-184109D01*
X-184109Y60850D01*
X-181591D01*
X-181591Y60850D01*
D02*
G37*
G36*
X-215891D02*
X-215672D01*
X-215470Y60766D01*
X-202634D01*
Y53534D01*
X-215470D01*
X-215672Y53450D01*
X-215891D01*
X-215891Y53450D01*
X-218409D01*
X-218409Y53450D01*
X-218628D01*
X-218830Y53534D01*
X-231666D01*
Y60766D01*
X-218830D01*
X-218628Y60850D01*
X-218409D01*
X-218409Y60850D01*
X-215891D01*
X-215891Y60850D01*
D02*
G37*
G36*
X-168250Y28050D02*
X-231750D01*
Y48150D01*
X-168250D01*
Y28050D01*
D02*
G37*
G36*
X-105000Y27766D02*
X-111616D01*
X-112658Y28315D01*
X-112734Y28391D01*
X-114204Y29000D01*
X-115795D01*
X-117266Y28391D01*
X-118157Y27500D01*
X-120000D01*
Y32500D01*
X-142500Y32500D01*
Y47500D01*
X-105000D01*
Y27766D01*
D02*
G37*
G36*
X-168250Y-10050D02*
X-231750D01*
Y10050D01*
X-168250D01*
Y-10050D01*
D02*
G37*
G36*
X231750Y-60850D02*
X168250D01*
Y-15350D01*
X231750D01*
Y-60850D01*
D02*
G37*
D12*
X-167656Y-137967D02*
G03*
X-167580Y-137014I-1898J630D01*
G01*
X-6828Y191828D02*
X10828D01*
X-20000Y205000D02*
X-6828Y191828D01*
X-90000Y215000D02*
X-85000Y210000D01*
X-89188Y207500D02*
X-86688Y205000D01*
X-90000Y207500D02*
X-89188D01*
X-86688Y205000D02*
X-75755D01*
X-85000Y210000D02*
X-75755D01*
X-90000Y200000D02*
X-75755D01*
X10828Y191828D02*
X17352Y198352D01*
X55423D01*
X62775Y205704D01*
Y206796D01*
X65979Y210000D01*
X75755D01*
X50000Y74245D02*
Y99000D01*
X26000Y123000D02*
X50000Y99000D01*
X43250Y56500D02*
X51750Y65000D01*
X25112Y35919D02*
Y53643D01*
X40000Y68531D01*
Y76000D01*
X44976Y74221D02*
X45000Y74245D01*
X44938Y67438D02*
Y68381D01*
X44976Y68419D01*
X30000Y40112D02*
Y52500D01*
X44938Y67438D01*
X44976Y68419D02*
Y74221D01*
X43250Y32000D02*
Y54000D01*
X51750Y65000D02*
X60822D01*
X43250Y54000D02*
Y56500D01*
X-187500Y-152500D02*
X-183973Y-145645D01*
X-185530Y-141241D02*
X-183973Y-145645D01*
X-167580Y-137012D02*
X-167580Y-137014D01*
X-172500Y-152500D02*
X-167656Y-137967D01*
X-168000Y-134460D02*
X-167580Y-137012D01*
X-169557Y-130057D02*
X-168000Y-134460D01*
X-198492Y-104473D02*
X-190478Y-112487D01*
X-189794D01*
X-198492Y-104473D02*
Y-99922D01*
X-197320Y-98750D01*
X-196500D01*
X-193500Y-95750D01*
Y-95000D01*
X-197121Y-114213D02*
Y-110109D01*
X-201508Y-105723D02*
X-197121Y-110109D01*
X-206500Y-95750D02*
X-203500Y-98750D01*
X-202680D01*
X-201508Y-99922D01*
X-197121Y-114213D02*
X-195119Y-116215D01*
X-201508Y-105723D02*
Y-99922D01*
X-198492Y-86378D02*
X-198492Y-86378D01*
Y-90078D02*
Y-86378D01*
X-186850Y-57200D02*
X-186350D01*
X-196500Y-91250D02*
X-193500Y-94250D01*
Y-95000D02*
Y-94250D01*
X-198492Y-90078D02*
X-197320Y-91250D01*
X-196500D01*
X-198492Y-84722D02*
X-197320Y-83550D01*
X-198492Y-86378D02*
Y-84722D01*
X-195651Y-83550D02*
X-189500Y-77399D01*
X-197320Y-83550D02*
X-195651D01*
X-189500Y-59850D02*
X-186850Y-57200D01*
X-189500Y-77399D02*
Y-59850D01*
X-201508Y-87628D02*
Y-84722D01*
X-201508Y-90078D02*
Y-87628D01*
X-202680Y-83550D02*
X-201508Y-84722D01*
X-202680Y-91250D02*
X-201508Y-90078D01*
X-201508Y-87628D02*
X-201508Y-87628D01*
X-204349Y-83550D02*
X-202680D01*
X-206500Y-95000D02*
Y-94250D01*
X-210500Y-77399D02*
X-204349Y-83550D01*
X-206500Y-94250D02*
X-203500Y-91250D01*
X-210500Y-77399D02*
Y-59850D01*
X-203500Y-91250D02*
X-202680D01*
X-213650Y-57200D02*
X-213150D01*
X-210500Y-59850D01*
X-40000Y217500D02*
X-27500Y205000D01*
X-40000Y217500D02*
Y225755D01*
X-45000Y215000D02*
X-35000Y205000D01*
X-45000Y215000D02*
Y225755D01*
X-50000Y74245D02*
Y87500D01*
Y59000D02*
Y74245D01*
X27500Y-34235D02*
Y4235D01*
X13048Y18687D02*
Y59375D01*
X16064Y19936D02*
Y58126D01*
Y19936D02*
X30516Y5484D01*
Y-35484D02*
Y5484D01*
X13048Y18687D02*
X27500Y4235D01*
X-95139Y84049D02*
Y84861D01*
Y84049D02*
X-93000Y81910D01*
Y77000D02*
Y81910D01*
X29000Y-37000D02*
X30516Y-35484D01*
X20735Y-41000D02*
X27500Y-34235D01*
X57500Y155000D02*
X75755D01*
X89188Y177500D02*
X90000D01*
X86688Y175000D02*
X89188Y177500D01*
X75755Y175000D02*
X86688D01*
X14976Y225779D02*
Y232524D01*
Y225779D02*
X15000Y225755D01*
X10000Y237500D02*
X14976Y232524D01*
X17500Y237443D02*
Y237500D01*
Y237443D02*
X20000Y234943D01*
Y225755D02*
Y234943D01*
X-90000Y110000D02*
X-90000Y110000D01*
X-120000Y105000D02*
X-75755D01*
X-90000Y117500D02*
X-89188D01*
X-86688Y115000D01*
X-75755D01*
X-90000Y110000D02*
X-75755D01*
X-90000Y135000D02*
X-75755D01*
X32500Y237443D02*
Y237500D01*
X30000Y234943D02*
X32500Y237443D01*
X30000Y225755D02*
Y234943D01*
X25000Y225755D02*
Y237500D01*
X101265Y200000D02*
X127233Y174032D01*
X102000Y195000D02*
X125984Y171016D01*
X127233Y174032D02*
X148218D01*
X125984Y171016D02*
X146969D01*
X151507Y122242D02*
X163537D01*
X144622Y119622D02*
X150258Y125258D01*
X163537D01*
X145871Y116606D02*
X151507Y122242D01*
X172958Y117066D02*
Y120191D01*
X173492Y102185D02*
Y112267D01*
X169862Y113439D02*
X172320D01*
X173492Y112267D01*
X169862Y123287D02*
X172958Y120191D01*
Y117066D02*
X176508Y113517D01*
Y102185D02*
Y113517D01*
X168479Y114823D02*
X169862Y113439D01*
X168479Y114823D02*
Y116193D01*
X176508Y102185D02*
X177250Y101443D01*
Y96875D02*
Y101443D01*
X167500Y132500D02*
X169862Y130138D01*
Y123287D02*
Y130138D01*
X167286Y132500D02*
X167500D01*
X177250Y96875D02*
X179125Y95000D01*
X172750Y101443D02*
X173492Y102185D01*
X170875Y95000D02*
X172750Y96875D01*
X167286Y115000D02*
X168479Y116193D01*
X172750Y96875D02*
Y101443D01*
X163537Y125258D02*
X164709Y126430D01*
Y130138D01*
X167071Y132500D01*
X167286D01*
X97144Y119622D02*
X144622D01*
X87757Y129008D02*
X97144Y119622D01*
X81502Y130000D02*
X82494Y129008D01*
X87757D01*
X75755Y130000D02*
X81502D01*
X163537Y122242D02*
X164709Y121070D01*
Y117362D02*
Y121070D01*
Y117362D02*
X167071Y115000D01*
X167286D01*
X86508Y125992D02*
X95000Y117500D01*
X95000D02*
X95894Y116606D01*
X145871D01*
X95000Y117500D02*
X95000D01*
X82494Y125992D02*
X86508D01*
X75755Y125000D02*
X81502D01*
X82494Y125992D01*
X-140000Y-2500D02*
X-139384D01*
X-115873Y-444D02*
X-112500Y2929D01*
X-139384Y-2500D02*
X-137328Y-444D01*
X-115873D01*
X-112500Y2929D02*
Y10350D01*
X-107850Y15000D01*
X-127757Y10743D02*
X-121757D01*
X-128500Y10000D02*
X-127757Y10743D01*
X-121757D02*
X-112750Y19750D01*
X12500Y102500D02*
X17500Y97500D01*
X7929Y102500D02*
X12500D01*
X-0Y94571D02*
X7929Y102500D01*
X-0Y74245D02*
Y94571D01*
Y65000D02*
Y74245D01*
X-9016Y55984D02*
X-0Y65000D01*
X-9016Y17984D02*
Y55984D01*
X-6000Y16000D02*
Y51500D01*
X-2984Y47016D02*
X4920Y54920D01*
X-2984Y12672D02*
Y47016D01*
X-6000Y51500D02*
X-2500Y55000D01*
X-16516Y10484D02*
X-9016Y17984D01*
X-16516Y-4060D02*
Y10484D01*
Y-4060D02*
X-13076Y-7500D01*
X-11750D01*
X-15000Y57500D02*
Y74245D01*
X-22500Y50000D02*
X-15000Y57500D01*
X-11266Y7984D02*
Y10734D01*
X-11750Y7500D02*
X-11266Y7984D01*
Y10734D02*
X-6000Y16000D01*
X-5000Y10656D02*
X-2984Y12672D01*
X30000Y40112D02*
X30112Y40000D01*
X19080Y56877D02*
X25000Y62797D01*
X16064Y58126D02*
X20000Y62062D01*
X10000Y42103D02*
Y74245D01*
X32Y9282D02*
Y42532D01*
X10032Y16968D02*
Y42071D01*
Y16968D02*
X17500Y9500D01*
X13048Y59375D02*
X15000Y61327D01*
X25112Y35919D02*
X47031Y14000D01*
X22096Y34669D02*
X45781Y10984D01*
X22096Y55627D02*
X35000Y68531D01*
X10000Y42103D02*
X10032Y42071D01*
X4920Y22580D02*
Y39888D01*
X-5000Y9250D02*
Y10656D01*
X4920Y39888D02*
X5032Y40000D01*
X19080Y33420D02*
Y56877D01*
X0Y9250D02*
X32Y9282D01*
X19080Y33420D02*
X44750Y7750D01*
X4920Y22580D02*
X5000Y22500D01*
X22096Y34669D02*
Y55627D01*
X32Y42532D02*
X4920Y47420D01*
X-28214Y87786D02*
X-25000Y84571D01*
Y65000D02*
Y84571D01*
X-40016Y-120016D02*
Y49984D01*
X-25000Y65000D01*
X-43032Y57233D02*
X-40000Y60265D01*
Y74245D01*
X-46048Y58482D02*
X-45000Y59531D01*
Y74245D02*
Y84188D01*
Y59531D02*
Y74245D01*
X-43032Y-118032D02*
Y57233D01*
X-40000Y74245D02*
Y82500D01*
X-46048Y-116048D02*
Y58482D01*
X91500Y-67500D02*
X177500D01*
X84000Y-91000D02*
Y-75000D01*
X91500Y-67500D01*
X-89188Y192500D02*
X-86688Y195000D01*
X-90000Y192500D02*
X-89188D01*
X-86688Y195000D02*
X-75755D01*
X-10000Y114000D02*
X9000D01*
X30000Y93000D01*
Y74245D02*
Y93000D01*
X123015Y14000D02*
X126249Y10766D01*
X121766Y10984D02*
X128000Y4750D01*
X45781Y10984D02*
X121766D01*
X47031Y14000D02*
X123015D01*
X126249Y10766D02*
X143835D01*
X145016Y9585D01*
Y-7585D02*
Y9585D01*
X143835Y-8766D02*
X145016Y-7585D01*
X123016Y-8766D02*
X143835D01*
X117000Y-2750D02*
X123016Y-8766D01*
X117000Y-2750D02*
Y1000D01*
X35000Y68531D02*
Y74245D01*
X128000Y1000D02*
Y4750D01*
X25000Y62797D02*
Y74245D01*
X20000Y62062D02*
Y74245D01*
X55000Y-12500D02*
X105000D01*
X51078Y-8578D02*
X55000Y-12500D01*
X51078Y-8578D02*
Y922D01*
X51000Y1000D02*
X51078Y922D01*
X-112750Y19750D02*
X-108100D01*
X-107850Y20000D01*
X148000Y189500D02*
X149296Y188204D01*
X153447D02*
X156926Y184724D01*
Y180574D02*
Y184724D01*
X149296Y188204D02*
X153447D01*
X156926Y180574D02*
X157500Y180000D01*
X148218Y174032D02*
X159000Y163250D01*
X146969Y171016D02*
X155249Y162736D01*
X145719Y168000D02*
X152233Y161486D01*
X96000Y168000D02*
X145719D01*
X144470Y164984D02*
X149000Y160454D01*
X97484Y164984D02*
X144470D01*
X104862Y143930D02*
X106034Y142758D01*
X115140Y149640D02*
X119000Y153500D01*
X110916Y143532D02*
X113968D01*
X104862Y143930D02*
Y145352D01*
X102500Y147714D02*
X104862Y145352D01*
X115140Y144704D02*
Y149640D01*
X113968Y143532D02*
X115140Y144704D01*
X106034Y142758D02*
X110142D01*
X110916Y143532D01*
X104862Y137148D02*
Y138570D01*
X106034Y139742D01*
X102500Y134786D02*
X104862Y137148D01*
X111391Y139742D02*
X112165Y140516D01*
X115217D01*
X115272Y140571D01*
X127929D01*
X136000Y132500D01*
X106034Y139742D02*
X111391D01*
X136000Y131500D02*
Y132500D01*
X81502Y150000D02*
X82494Y149008D01*
X88288D01*
X98966Y142758D02*
X100138Y143930D01*
Y145352D01*
X75755Y150000D02*
X81502D01*
X100138Y145352D02*
X102500Y147714D01*
X88288Y149008D02*
X94538Y142758D01*
X98966D01*
X75755Y145000D02*
X81502D01*
X93289Y139742D02*
X98966D01*
X100138Y138570D01*
Y137148D02*
Y138570D01*
Y137148D02*
X102500Y134786D01*
X82494Y145992D02*
X87039D01*
X93289Y139742D01*
X81502Y145000D02*
X82494Y145992D01*
X155032Y142968D02*
X173328D01*
X174578Y145984D02*
X179000Y141562D01*
X157165Y145984D02*
X174578D01*
X139000Y-91000D02*
X142000Y-88000D01*
Y-83000D02*
X145000Y-80000D01*
X158500D02*
X170000D01*
X142000Y-88000D02*
Y-83000D01*
X145000Y-80000D02*
X158500D01*
X-72681Y32500D02*
X-72500D01*
X-75181Y30000D02*
X-72681Y32500D01*
X-49064Y-99064D02*
Y58064D01*
X-55000Y57500D02*
Y57672D01*
X-50000Y59000D02*
X-49064Y58064D01*
X-60000Y62672D02*
X-55000Y57672D01*
X-82150Y20000D02*
X-75181D01*
X-82150Y25000D02*
X-72500D01*
X-75181Y20000D02*
X-72681Y17500D01*
X-72500D01*
X-65000Y80735D02*
X-48984Y96751D01*
X-68016Y58016D02*
Y81984D01*
Y58016D02*
X-55096Y45096D01*
X-68016Y81984D02*
X-52000Y98000D01*
X-60000Y62672D02*
Y74245D01*
X-65000Y59265D02*
X-52080Y46345D01*
X-65000Y59265D02*
Y80735D01*
X58312Y122500D02*
X60812Y120000D01*
X57500Y122500D02*
X58312D01*
X150984Y60984D02*
Y103751D01*
X145751Y108984D02*
X150984Y103751D01*
X145000Y55000D02*
X150984Y60984D01*
X93719Y108984D02*
X145751D01*
X144000Y74000D02*
Y91750D01*
X113500Y63000D02*
X131500Y45000D01*
X90984Y55984D02*
X98000Y63000D01*
X113500D01*
X115000Y92500D02*
X118500Y89000D01*
X92470Y112000D02*
X147000D01*
X118500Y24257D02*
Y38250D01*
X147000Y112000D02*
X154000Y105000D01*
Y29000D02*
Y105000D01*
X149000Y24000D02*
X154000Y29000D01*
X139000Y24000D02*
X149000D01*
X131500Y31500D02*
X139000Y24000D01*
X131500Y31500D02*
Y38250D01*
Y45000D01*
X118500Y24257D02*
X122773Y19984D01*
X151249D01*
X151265Y20000D01*
X153500D01*
X158500Y15000D01*
X90470Y110000D02*
X92470Y112000D01*
X75755Y110000D02*
X90470D01*
X115000Y92500D02*
Y102000D01*
X111032Y105968D02*
X115000Y102000D01*
X94968Y105968D02*
X111032D01*
X89000Y100000D02*
X94968Y105968D01*
X75755Y100000D02*
X89000D01*
X68250Y29500D02*
Y32000D01*
Y29500D02*
X73266Y24484D01*
X84585D01*
X90984Y30883D01*
Y55984D01*
X137500Y67500D02*
X144000Y74000D01*
X109500Y67500D02*
X137500D01*
X87000Y90000D02*
X109500Y67500D01*
X65000Y69178D02*
Y93828D01*
X60822Y65000D02*
X65000Y69178D01*
X70000Y64193D02*
Y65000D01*
X68250Y62443D02*
X70000Y64193D01*
X68250Y54000D02*
Y62443D01*
X66172Y95000D02*
X75755D01*
X65000Y93828D02*
X66172Y95000D01*
X60812Y120000D02*
X75755D01*
X15000Y61327D02*
Y74245D01*
X4920Y47420D02*
Y47500D01*
X-17500Y87479D02*
X-10000Y79980D01*
Y74245D02*
Y79980D01*
X-17500Y87479D02*
Y87500D01*
X-10000D02*
X-5000Y82500D01*
Y74245D02*
Y82500D01*
X-45000Y84188D02*
X-42500Y86688D01*
Y87500D01*
X-40000Y82500D02*
X-35000Y87500D01*
X-10000Y74245D02*
X-10000Y74245D01*
X75755Y95000D02*
X75755Y95000D01*
X250Y-49500D02*
X1500Y-48250D01*
X5000Y62500D02*
Y74245D01*
X-52080Y-89580D02*
Y46345D01*
X152233Y150916D02*
X157165Y145984D01*
X152233Y150916D02*
Y161486D01*
X75755Y165000D02*
X93000D01*
X-48984Y96751D02*
Y121984D01*
X-67000Y140000D02*
X-48984Y121984D01*
X2672Y-41000D02*
X20735D01*
X19750Y-46250D02*
X29000Y-37000D01*
X1500Y-48250D02*
Y-42172D01*
X-90000Y142500D02*
X-89188D01*
X-22500Y58296D02*
X-20000Y60796D01*
X-22500Y57484D02*
Y58296D01*
X-20000Y60796D02*
Y74245D01*
X1500Y-42172D02*
X2672Y-41000D01*
X-124571Y109571D02*
Y122642D01*
X-75755Y135000D02*
X-66265D01*
X34969Y212500D02*
X40000Y217530D01*
X5000Y205000D02*
X15516Y215516D01*
X173328Y142968D02*
X175984Y140312D01*
X48000Y7750D02*
X51000Y4750D01*
X-67500Y-142500D02*
X-43032Y-118032D01*
X10000Y74245D02*
Y97500D01*
X75755Y195000D02*
X102000D01*
X75755Y200000D02*
X101265D01*
X160500Y159500D02*
X162000D01*
X175984Y125016D02*
Y140312D01*
X-55096Y-88096D02*
Y45096D01*
X75755Y105000D02*
X89735D01*
X-133484Y-104484D02*
X-71484D01*
X-147100Y-123600D02*
Y-118100D01*
X149000Y149000D02*
Y160454D01*
X-150100Y-126600D02*
X-147100Y-123600D01*
X15516Y215516D02*
X33712D01*
X24484Y209484D02*
X36219D01*
X16328Y-2500D02*
X17500Y-1328D01*
X11750Y-2500D02*
X16328D01*
X-75755Y140000D02*
X-67000D01*
X-71484Y-104484D02*
X-55096Y-88096D01*
X155249Y155751D02*
X160500Y150500D01*
X44750Y7750D02*
X48000D01*
X51000Y1000D02*
Y4750D01*
X-112500Y-142500D02*
X-67500D01*
X17500Y-1328D02*
Y9500D01*
X-66265Y135000D02*
X-52000Y120735D01*
X160500Y150500D02*
X162000D01*
X-87323Y165000D02*
X-75755D01*
X33712Y215516D02*
X35000Y216804D01*
X40000Y217530D02*
Y225755D01*
X149000Y149000D02*
X155032Y142968D01*
X12500Y205000D02*
Y205812D01*
X-147100Y-118100D02*
X-133484Y-104484D01*
X-89291Y163032D02*
X-87323Y165000D01*
X159000Y161000D02*
X160500Y159500D01*
X49976Y225731D02*
X50000Y225755D01*
X92500Y160000D02*
X97484Y164984D01*
X28016Y205000D02*
X36000D01*
X27500Y204484D02*
X28016Y205000D01*
X155249Y155751D02*
Y162736D01*
X75755Y90000D02*
X87000D01*
X12500Y205812D02*
X19188Y212500D01*
X-117100Y-137900D02*
X-112500Y-142500D01*
X10000Y74245D02*
X10000Y74245D01*
X89735Y105000D02*
X93719Y108984D01*
X-89947Y169982D02*
X-81486D01*
X35000Y216804D02*
Y225755D01*
X-89965Y169965D02*
X-89947Y169982D01*
X-86688Y140000D02*
X-75755D01*
X36000Y205000D02*
X49976Y218976D01*
X75755Y160000D02*
X92500D01*
X45000Y218265D02*
Y225755D01*
X-90103Y163032D02*
X-89291D01*
X159000Y161000D02*
Y163250D01*
X-81486Y169982D02*
X-81469Y170000D01*
X-89188Y142500D02*
X-86688Y140000D01*
X20000Y205000D02*
X24484Y209484D01*
X-81469Y170000D02*
X-75755Y170000D01*
X49976Y218976D02*
Y225731D01*
X19188Y212500D02*
X34969D01*
X175984Y125016D02*
X180500Y120500D01*
X93000Y165000D02*
X96000Y168000D01*
X36219Y209484D02*
X45000Y218265D01*
X-52000Y98000D02*
Y120735D01*
X-124571Y109571D02*
X-120000Y105000D01*
X180500Y120500D02*
X182000D01*
X-117100Y-137900D02*
Y-126600D01*
X-84100Y-133400D02*
Y-122600D01*
Y-133400D02*
X-80000Y-137500D01*
X-67500D01*
X-46048Y-116048D01*
X-73100Y-123100D02*
X-49064Y-99064D01*
X-73100Y-126600D02*
Y-123100D01*
X19750Y-49500D02*
Y-46250D01*
X-70000Y-107500D02*
X-52080Y-89580D01*
X-123500Y-107500D02*
X-70000D01*
X-139100Y-123100D02*
X-123500Y-107500D01*
X-139100Y-126600D02*
Y-123100D01*
X180500Y129500D02*
X182000D01*
X179000Y131000D02*
X180500Y129500D01*
X179000Y131000D02*
Y141562D01*
X-67500Y-147500D02*
X-40016Y-120016D01*
X-95000Y-147500D02*
X-67500D01*
X-95000Y65000D02*
Y65812D01*
X5000Y9250D02*
Y22500D01*
X-95000Y65812D02*
X-93000Y67812D01*
Y73000D01*
X-115000Y75214D02*
X-112786Y73000D01*
X-97000D01*
X87000Y40750D02*
Y90000D01*
X80750Y34500D02*
X87000Y40750D01*
X55750Y29500D02*
X63782Y21468D01*
X94000Y51000D02*
X98000Y55000D01*
X86468Y21468D02*
X94000Y29000D01*
Y51000D01*
X63782Y21468D02*
X86468D01*
X80750Y32000D02*
Y34500D01*
X117500Y-110000D02*
Y-91500D01*
X117000Y-91000D02*
X117500Y-91500D01*
X177500Y-67500D02*
X182500Y-72500D01*
X170000Y-80000D02*
X175000Y-85000D01*
X-82150Y30000D02*
X-75181D01*
X55750Y29500D02*
Y32000D01*
X-76533Y10383D02*
X-72883D01*
X-72500Y10000D01*
X-95000Y-137500D02*
Y-126700D01*
X-95100Y-126600D02*
X-95000Y-126700D01*
X-141500Y10000D02*
X-140000Y11500D01*
Y22500D01*
X-82150Y15000D02*
X-81150D01*
X-76533Y10383D01*
D17*
X-107850Y35000D02*
D03*
Y30000D02*
D03*
Y25000D02*
D03*
Y20000D02*
D03*
Y15000D02*
D03*
X-82150Y35000D02*
D03*
Y30000D02*
D03*
Y25000D02*
D03*
Y20000D02*
D03*
Y15000D02*
D03*
D18*
X-95000Y25000D02*
D03*
D19*
X15250Y-174250D02*
D03*
X64750D02*
D03*
D20*
X33750Y-142250D02*
D03*
X46250D02*
D03*
D21*
X-128500Y10000D02*
D03*
X-141500D02*
D03*
X16500Y-92500D02*
D03*
X3500D02*
D03*
X-206500Y-95000D02*
D03*
X-193500D02*
D03*
D22*
X157714Y115000D02*
D03*
X167286D02*
D03*
X157714Y132500D02*
D03*
X167286D02*
D03*
X-134786Y55000D02*
D03*
X-125214D02*
D03*
X10214Y-25000D02*
D03*
X19786D02*
D03*
X-214D02*
D03*
X-9786D02*
D03*
D23*
X19750Y-75500D02*
D03*
X13250D02*
D03*
X6750D02*
D03*
X250D02*
D03*
Y-49500D02*
D03*
X6750D02*
D03*
X13250D02*
D03*
X19750D02*
D03*
D24*
X-200443Y-119943D02*
D03*
X-195119Y-116215D02*
D03*
X-189794Y-112487D02*
D03*
X-184470Y-108759D02*
D03*
X-169557Y-130057D02*
D03*
X-174881Y-133785D02*
D03*
X-180206Y-137513D02*
D03*
X-185530Y-141241D02*
D03*
D25*
X136000Y153500D02*
D03*
Y131500D02*
D03*
X119000D02*
D03*
Y153500D02*
D03*
D26*
X102500Y125214D02*
D03*
Y134786D02*
D03*
Y157286D02*
D03*
Y147714D02*
D03*
X-115000Y84786D02*
D03*
Y75214D02*
D03*
X-130000Y84786D02*
D03*
Y75214D02*
D03*
D27*
X179125Y95000D02*
D03*
X170875D02*
D03*
D28*
X110000Y-140000D02*
D03*
X100000D02*
D03*
D29*
X217150Y-57150D02*
D03*
X182850D02*
D03*
X217150Y-44450D02*
D03*
X182850D02*
D03*
X217150Y-31750D02*
D03*
X182850D02*
D03*
X217150Y-19050D02*
D03*
X182850D02*
D03*
X217150Y-6350D02*
D03*
X182850D02*
D03*
X217150Y6350D02*
D03*
X182850D02*
D03*
X217150Y19050D02*
D03*
X182850D02*
D03*
X217150Y31750D02*
D03*
X182850D02*
D03*
X217150Y44450D02*
D03*
X182850D02*
D03*
X217150Y57150D02*
D03*
X182850D02*
D03*
X-182850Y-57150D02*
D03*
X-217150D02*
D03*
X-182850Y-44450D02*
D03*
X-217150D02*
D03*
X-182850Y-31750D02*
D03*
X-217150D02*
D03*
X-182850Y-19050D02*
D03*
X-217150D02*
D03*
X-182850Y-6350D02*
D03*
X-217150D02*
D03*
X-182850Y6350D02*
D03*
X-217150D02*
D03*
X-182850Y19050D02*
D03*
X-217150D02*
D03*
X-182850Y31750D02*
D03*
X-217150D02*
D03*
X-182850Y44450D02*
D03*
X-217150D02*
D03*
X-182850Y57150D02*
D03*
X-217150D02*
D03*
D30*
X144000Y91750D02*
D03*
X131500D02*
D03*
X106000D02*
D03*
X144000Y38250D02*
D03*
X131500D02*
D03*
X118500D02*
D03*
X106000D02*
D03*
D31*
X118500Y89000D02*
D03*
D32*
X-150100Y-126600D02*
D03*
X-139100D02*
D03*
X-128100Y-128600D02*
D03*
X-117100Y-126600D02*
D03*
X-106100Y-128600D02*
D03*
X-95100Y-126600D02*
D03*
X-84100Y-122600D02*
D03*
X-73100Y-126600D02*
D03*
D33*
X-142000Y-18000D02*
D03*
X-85000D02*
D03*
D34*
X-128100Y-15750D02*
D03*
D35*
X-158000Y-149500D02*
D03*
X-26500Y-159500D02*
D03*
D36*
X35000Y74245D02*
D03*
X40000Y74245D02*
D03*
X60000D02*
D03*
X55000Y74245D02*
D03*
X50000Y74245D02*
D03*
X45000Y74245D02*
D03*
X30000Y74245D02*
D03*
X25000Y74245D02*
D03*
X20000Y74245D02*
D03*
X15000Y74245D02*
D03*
X10000Y74245D02*
D03*
X5000D02*
D03*
X-0D02*
D03*
X-5000D02*
D03*
X-10000Y74245D02*
D03*
X-15000D02*
D03*
X-20000Y74245D02*
D03*
X-25000Y74245D02*
D03*
X-30000Y74245D02*
D03*
X-35000Y74245D02*
D03*
X-40000D02*
D03*
X-45000Y74245D02*
D03*
X-50000Y74245D02*
D03*
X-55000Y74245D02*
D03*
X-60000Y74245D02*
D03*
Y225755D02*
D03*
X-55000Y225755D02*
D03*
X-50000Y225755D02*
D03*
X-45000Y225755D02*
D03*
X-40000Y225755D02*
D03*
X-35000Y225755D02*
D03*
X-30000Y225755D02*
D03*
X-25000Y225755D02*
D03*
X-20000Y225755D02*
D03*
X-15000Y225755D02*
D03*
X-10000Y225755D02*
D03*
X-5000D02*
D03*
X0D02*
D03*
X5000D02*
D03*
X10000Y225755D02*
D03*
X15000D02*
D03*
X20000Y225755D02*
D03*
X25000Y225755D02*
D03*
X30000Y225755D02*
D03*
X35000Y225755D02*
D03*
X40000D02*
D03*
X45000Y225755D02*
D03*
X50000Y225755D02*
D03*
X55000Y225755D02*
D03*
X60000Y225755D02*
D03*
D37*
X-75755Y90000D02*
D03*
X-75755Y95000D02*
D03*
X-75755Y100000D02*
D03*
X-75755Y105000D02*
D03*
X-75755Y110000D02*
D03*
X-75755Y115000D02*
D03*
X-75755Y120000D02*
D03*
X-75755Y125000D02*
D03*
X-75755Y130000D02*
D03*
X-75755Y135000D02*
D03*
X-75755Y140000D02*
D03*
Y145000D02*
D03*
Y150000D02*
D03*
Y155000D02*
D03*
X-75755Y160000D02*
D03*
Y165000D02*
D03*
X-75755Y170000D02*
D03*
X-75755Y175000D02*
D03*
X-75755Y180000D02*
D03*
X-75755Y185000D02*
D03*
Y190000D02*
D03*
X-75755Y195000D02*
D03*
X-75755Y200000D02*
D03*
X-75755Y205000D02*
D03*
X-75755Y210000D02*
D03*
X75755D02*
D03*
X75755Y205000D02*
D03*
X75755Y200000D02*
D03*
X75755Y195000D02*
D03*
X75755Y190000D02*
D03*
X75755Y185000D02*
D03*
X75755Y180000D02*
D03*
X75755Y175000D02*
D03*
X75755Y170000D02*
D03*
X75755Y165000D02*
D03*
X75755Y160000D02*
D03*
Y155000D02*
D03*
Y150000D02*
D03*
Y145000D02*
D03*
X75755Y140000D02*
D03*
Y135000D02*
D03*
X75755Y130000D02*
D03*
X75755Y125000D02*
D03*
X75755Y120000D02*
D03*
X75755Y115000D02*
D03*
Y110000D02*
D03*
X75755Y105000D02*
D03*
X75755Y100000D02*
D03*
X75755Y95000D02*
D03*
D38*
X75755Y90000D02*
D03*
D39*
X139000Y1000D02*
D03*
X128000D02*
D03*
X117000D02*
D03*
X106000D02*
D03*
X95000D02*
D03*
X84000D02*
D03*
X73000D02*
D03*
X62000D02*
D03*
X51000D02*
D03*
X139000Y-91000D02*
D03*
X128000D02*
D03*
X117000D02*
D03*
X106000D02*
D03*
X95000D02*
D03*
X84000D02*
D03*
X73000D02*
D03*
X62000D02*
D03*
X51000D02*
D03*
D40*
X158500Y5000D02*
D03*
Y15000D02*
D03*
D41*
X-127850Y36500D02*
D03*
Y23500D02*
D03*
D42*
X213000Y90500D02*
D03*
X197000D02*
D03*
X213000Y99500D02*
D03*
X197000D02*
D03*
X132000Y189500D02*
D03*
X148000D02*
D03*
X132000Y180500D02*
D03*
X148000D02*
D03*
X162000Y159500D02*
D03*
X178000D02*
D03*
X162000Y150500D02*
D03*
X178000D02*
D03*
X182000Y129500D02*
D03*
X198000D02*
D03*
X182000Y120500D02*
D03*
X198000D02*
D03*
D43*
X-97000Y77000D02*
D03*
X-93000D02*
D03*
X-97000Y73000D02*
D03*
X-93000D02*
D03*
D44*
X-11750Y7500D02*
D03*
Y2500D02*
D03*
Y-2500D02*
D03*
Y-7500D02*
D03*
X11750D02*
D03*
Y-2500D02*
D03*
Y2500D02*
D03*
Y7500D02*
D03*
D45*
X-5000Y-9250D02*
D03*
X0D02*
D03*
X5000D02*
D03*
Y9250D02*
D03*
X0D02*
D03*
X-5000D02*
D03*
D46*
X130000Y-118375D02*
D03*
Y-131625D02*
D03*
D47*
X-105000Y211250D02*
D03*
Y178750D02*
D03*
X-135000Y158750D02*
D03*
Y191250D02*
D03*
X105000Y178750D02*
D03*
Y211250D02*
D03*
D48*
X80750Y54000D02*
D03*
Y32000D02*
D03*
X68250D02*
D03*
Y54000D02*
D03*
X55750D02*
D03*
Y32000D02*
D03*
X43250Y54000D02*
D03*
Y32000D02*
D03*
D59*
X139750Y-170000D02*
D03*
X110250D02*
D03*
D60*
X125000Y-154750D02*
D03*
D72*
X-180000Y-122500D02*
G03*
X-175640Y-133026I14886J0D01*
G01*
X130000Y-93000D02*
G03*
X128000Y-91000I-2000J0D01*
G01*
X145000Y-133375D02*
G03*
X130000Y-118375I-15000J0D01*
G01*
X-11434Y-26862D02*
X-7709Y-23138D01*
X-175640Y-133026D02*
X-174881Y-133785D01*
X-57500Y110000D02*
Y110000D01*
X-68000Y90000D02*
X-57750Y100250D01*
X-67500Y100000D02*
X-57500Y110000D01*
X-75755Y90000D02*
X-68000D01*
X57500Y172500D02*
Y177500D01*
X65000Y185000D01*
X58041Y187500D02*
X60541Y190000D01*
X55000Y210541D02*
X57500Y208041D01*
X60541Y190000D02*
X75755D01*
X57500Y187500D02*
X58041D01*
X57500Y207500D02*
Y208041D01*
X55000Y210541D02*
Y225755D01*
X-117500Y177500D02*
X-117117Y177883D01*
X-105867D02*
X-105000Y178750D01*
X-117117Y177883D02*
X-105867D01*
X105035Y39214D02*
X106000Y38250D01*
X105035Y39214D02*
Y54964D01*
X210000Y119459D02*
X213000Y116459D01*
Y99500D02*
Y116459D01*
X210000Y119459D02*
Y120000D01*
X213250Y90250D02*
X222250D01*
X222500Y90000D01*
X213000Y90500D02*
X213250Y90250D01*
X99257Y-80000D02*
X139000D01*
X97500Y-88500D02*
Y-81757D01*
X99257Y-80000D01*
X174000Y-74000D02*
X210000Y-110000D01*
X145000Y-74000D02*
X174000D01*
X139000Y-80000D02*
X145000Y-74000D01*
X95000Y-91000D02*
X97500Y-88500D01*
X-115382Y24617D02*
X-115000Y25000D01*
X-107850D01*
X-107850Y25000D01*
X-126733Y24617D02*
X-115382D01*
X-127850Y23500D02*
X-126733Y24617D01*
X148000Y180500D02*
X149500D01*
X-90617Y225755D02*
X-60000D01*
X-99693Y212500D02*
Y216679D01*
X-90617Y225755D01*
X-105000Y211250D02*
X-100943D01*
X-99693Y212500D01*
X150500Y179222D02*
X157222Y172500D01*
X150500Y179222D02*
Y179500D01*
X149500Y180500D02*
X150500Y179500D01*
X157222Y172500D02*
X170000D01*
X-122500Y75214D02*
X-115000D01*
X-130000D02*
X-122500D01*
X-50000Y212500D02*
X-42500Y205000D01*
X118500Y79500D02*
Y89000D01*
X145000Y39250D02*
Y55000D01*
X144000Y91750D02*
X145000Y90750D01*
X144000Y38250D02*
X145000Y39250D01*
X60000Y74245D02*
Y89459D01*
X57500Y91959D02*
X60000Y89459D01*
X57500Y91959D02*
Y92500D01*
Y115000D02*
X75755D01*
X57500Y140000D02*
X57500Y140000D01*
X75755D01*
X-60000Y207757D02*
X-57500Y205257D01*
X65000Y185000D02*
X75755D01*
X-60000Y207757D02*
Y225755D01*
X75755Y115000D02*
X75755Y115000D01*
X-57500Y205000D02*
Y205257D01*
X-75755Y100000D02*
X-67500D01*
X-50000Y212500D02*
Y225755D01*
X5000Y-65000D02*
Y-64459D01*
X6750Y-62709D01*
Y-49500D01*
X-17500Y-35000D02*
Y-30000D01*
X-14362Y-26862D02*
X-11434D01*
X-17500Y-30000D02*
X-14362Y-26862D01*
X17709D02*
X19571Y-25000D01*
X15000Y-34459D02*
X17709Y-31750D01*
X19571Y-25000D02*
X19786D01*
X17709Y-31750D02*
Y-26862D01*
X15000Y-35000D02*
Y-34459D01*
X79250Y55500D02*
Y62709D01*
Y55500D02*
X80750Y54000D01*
X77500Y64459D02*
X79250Y62709D01*
X77500Y64459D02*
Y65000D01*
X210000Y-110000D02*
X217500D01*
X145000Y-152500D02*
Y-133375D01*
X130000Y-118375D02*
Y-93000D01*
X19786Y-25000D02*
Y-9786D01*
X17500Y-7500D02*
X19786Y-9786D01*
X11750Y-7500D02*
X17500D01*
X-106100Y-128600D02*
Y-115000D01*
X-162500Y-0D02*
X-162500Y0D01*
X-7709Y-19209D02*
X-5000Y-16500D01*
Y-9250D01*
X-7709Y-23138D02*
Y-19209D01*
X-5000Y-9250D02*
X-4904Y-9346D01*
D73*
X158500Y-80000D02*
D03*
D74*
X122000Y-154000D02*
Y-146500D01*
X111750Y-141750D02*
X117250D01*
X122750Y-154750D02*
X125000D01*
X117250Y-141750D02*
X122000Y-146500D01*
Y-154000D02*
X122750Y-154750D01*
X128875Y-131625D02*
X130000D01*
X118750Y-141750D02*
X128875Y-131625D01*
X117250Y-141750D02*
X118750D01*
X110000Y-140000D02*
X111750Y-141750D01*
X62000Y-102000D02*
X100000Y-140000D01*
X62000Y-102000D02*
Y-91000D01*
D75*
X41778Y-132278D02*
X46250Y-136750D01*
X41778Y-132278D02*
Y-127257D01*
X33750Y-142250D02*
Y-136750D01*
X26361Y-116869D02*
X38222Y-128730D01*
X33750Y-136750D02*
X38222Y-132278D01*
Y-128730D01*
X46250Y-142250D02*
Y-136750D01*
X16500Y-93250D02*
Y-92500D01*
X13770Y-95980D02*
X16500Y-93250D01*
X13266Y-95980D02*
X13770D01*
X11778Y-97468D02*
X13266Y-95980D01*
X11778Y-101020D02*
Y-97468D01*
Y-101020D02*
X24071Y-113313D01*
X27834D01*
X41778Y-127257D01*
X3500Y-93250D02*
Y-92500D01*
Y-93250D02*
X6230Y-95980D01*
X6734D01*
X8222Y-97468D01*
Y-102493D02*
Y-97468D01*
Y-102493D02*
X22598Y-116869D01*
X26361D01*
X6734Y-89020D02*
X8222Y-87532D01*
Y-83554D01*
X7730Y-83062D02*
X8222Y-83554D01*
X7730Y-83062D02*
Y-76480D01*
X12270Y-83062D02*
Y-76480D01*
X11778Y-87532D02*
Y-83554D01*
X13266Y-89020D02*
X13770D01*
X3500Y-92500D02*
Y-91750D01*
X16500Y-92500D02*
Y-91750D01*
X6230Y-89020D02*
X6734D01*
X12270Y-76480D02*
X13250Y-75500D01*
X11778Y-83554D02*
X12270Y-83062D01*
X11778Y-87532D02*
X13266Y-89020D01*
X13770D02*
X16500Y-91750D01*
X3500D02*
X6230Y-89020D01*
X6750Y-75500D02*
X7730Y-76480D01*
D76*
X-162500Y0D02*
X-157500Y5000D01*
Y25000D01*
X-142500Y40000D01*
X-168250Y-0D02*
X-162500D01*
D77*
X-127850Y40500D02*
X-125214Y43136D01*
Y55000D01*
D78*
X200000Y-73050D02*
D03*
Y73050D02*
D03*
X-200000Y-73050D02*
D03*
Y73050D02*
D03*
X200000Y-73050D02*
D03*
Y73050D02*
D03*
X-200000Y-73050D02*
D03*
Y73050D02*
D03*
D79*
X-155143Y82072D02*
D03*
X-165286Y89715D02*
D03*
X-147500Y92214D02*
D03*
X-157643Y99857D02*
D03*
X-139857Y102357D02*
D03*
X-150000Y110000D02*
D03*
X-132214Y112500D02*
D03*
X-142357Y120143D02*
D03*
X-124571Y122642D02*
D03*
D80*
X-134714Y130285D02*
D03*
D81*
X-8964Y201465D02*
D03*
X-20000Y205000D02*
D03*
X-90000Y215000D02*
D03*
Y207500D02*
D03*
Y200000D02*
D03*
X-72500Y232500D02*
D03*
X-22500Y242500D02*
D03*
X-15000D02*
D03*
X-53166Y186726D02*
D03*
X69000Y-66000D02*
D03*
X25000Y19000D02*
D03*
X37714Y132500D02*
D03*
X26000Y123000D02*
D03*
X49886Y20114D02*
D03*
X-161178Y162120D02*
D03*
X-179485Y136985D02*
D03*
X-128500Y-47500D02*
D03*
X-146500D02*
D03*
X-137500Y-57500D02*
D03*
X-180000Y-122500D02*
D03*
X-100000Y30000D02*
D03*
X-90000D02*
D03*
X-100000Y20000D02*
D03*
X-90000D02*
D03*
X0Y0D02*
D03*
X95000Y-38750D02*
D03*
X85000D02*
D03*
X95000Y-54350D02*
D03*
X85000D02*
D03*
X6000Y198000D02*
D03*
X80000Y216000D02*
D03*
Y222500D02*
D03*
X90000Y190000D02*
D03*
X105000Y173000D02*
D03*
X-144000Y173000D02*
D03*
X-110000Y120000D02*
D03*
X-128000Y146000D02*
D03*
X-112500Y142500D02*
D03*
X-100000D02*
D03*
X121000Y135000D02*
D03*
X136000Y153500D02*
D03*
X105000Y211250D02*
D03*
X-135000Y178500D02*
D03*
Y191250D02*
D03*
X-32000Y-53000D02*
D03*
Y-69000D02*
D03*
X-9000Y-100000D02*
D03*
X99000Y19000D02*
D03*
X227000Y-86000D02*
D03*
X180000Y-159000D02*
D03*
X126000Y-170000D02*
D03*
X84000Y-140000D02*
D03*
X51000Y-165000D02*
D03*
X30000Y-172000D02*
D03*
X-9000Y-140000D02*
D03*
X-176000Y-73000D02*
D03*
X-219000D02*
D03*
X-132000Y-148000D02*
D03*
X-46000Y-150000D02*
D03*
X-99000Y-68000D02*
D03*
X-78000Y-65000D02*
D03*
X-132000Y-77000D02*
D03*
X-107000Y-46000D02*
D03*
X-19000Y122000D02*
D03*
X-16000Y185000D02*
D03*
X-24000Y160000D02*
D03*
X-11000Y149000D02*
D03*
X-43000Y146000D02*
D03*
X-45000Y162000D02*
D03*
X-34000Y196000D02*
D03*
X-56000Y174000D02*
D03*
X-57750Y100250D02*
D03*
X-57500Y110000D02*
D03*
Y117500D02*
D03*
X-50000Y87500D02*
D03*
X-27500Y205000D02*
D03*
X-35000D02*
D03*
X35000Y10000D02*
D03*
X82500Y-17500D02*
D03*
X57500Y155000D02*
D03*
X-57500Y162500D02*
D03*
X57500Y172500D02*
D03*
X67500Y222500D02*
D03*
X57500Y207500D02*
D03*
Y187500D02*
D03*
X-117500Y177500D02*
D03*
X-105000Y211250D02*
D03*
X-90000Y185000D02*
D03*
X20000Y118000D02*
D03*
X15000Y145000D02*
D03*
X20000Y190000D02*
D03*
X17500Y237500D02*
D03*
X10000D02*
D03*
X-100000Y118500D02*
D03*
X-90000Y110000D02*
D03*
Y117500D02*
D03*
Y135000D02*
D03*
X90000Y177500D02*
D03*
X105035Y54964D02*
D03*
X117500Y-12500D02*
D03*
X25000Y237500D02*
D03*
X32500D02*
D03*
X132000Y180500D02*
D03*
X210000Y120000D02*
D03*
X222500Y90000D02*
D03*
X117500Y-74500D02*
D03*
X-62500Y-125000D02*
D03*
X92500Y95000D02*
D03*
X145000Y65000D02*
D03*
X135000Y55000D02*
D03*
X-107500Y95000D02*
D03*
X-197500Y90000D02*
D03*
X-85000Y-17500D02*
D03*
X-140000Y-2500D02*
D03*
X-117500Y5000D02*
D03*
X-2500Y55000D02*
D03*
X30112Y40000D02*
D03*
X5032D02*
D03*
X60000Y-70000D02*
D03*
X93000Y-75000D02*
D03*
X-90000Y192500D02*
D03*
X-10000Y114000D02*
D03*
X17500Y97500D02*
D03*
X105000Y-12500D02*
D03*
X-155000Y57500D02*
D03*
X-115000Y25000D02*
D03*
X148000Y180500D02*
D03*
X132000Y189500D02*
D03*
X147500Y-85000D02*
D03*
X150000Y-117500D02*
D03*
X80000Y42500D02*
D03*
X-30000Y-20000D02*
D03*
X-72500Y32500D02*
D03*
X-55000Y57500D02*
D03*
X-72500Y25000D02*
D03*
X12500Y165000D02*
D03*
X57500Y122500D02*
D03*
X170000Y172500D02*
D03*
X-10000Y-35000D02*
D03*
X-42500Y205000D02*
D03*
X-122500Y75214D02*
D03*
X75000Y77500D02*
D03*
X70000Y65000D02*
D03*
X57500Y92500D02*
D03*
X-155000Y50000D02*
D03*
X-142500Y70000D02*
D03*
X-172500Y-152500D02*
D03*
X-187500D02*
D03*
X-180000D02*
D03*
X-190000Y-127500D02*
D03*
X-165000Y115000D02*
D03*
X4920Y54920D02*
D03*
Y47500D02*
D03*
X-30000Y40000D02*
D03*
Y15000D02*
D03*
X-17500Y87500D02*
D03*
X-28214Y87786D02*
D03*
X-42500Y87500D02*
D03*
X-35000D02*
D03*
X-10000D02*
D03*
X70000Y42500D02*
D03*
X-89965Y169965D02*
D03*
X-90103Y163032D02*
D03*
X10000Y97500D02*
D03*
X-17500Y-35000D02*
D03*
X15000D02*
D03*
X175000Y75000D02*
D03*
X-22500Y57484D02*
D03*
X-80000Y47484D02*
D03*
X-87500D02*
D03*
X-72500D02*
D03*
X-95000Y65000D02*
D03*
X165000Y180000D02*
D03*
X157500D02*
D03*
X132500Y75000D02*
D03*
X-117500Y65000D02*
D03*
X5000Y62500D02*
D03*
Y205000D02*
D03*
X20000D02*
D03*
X-22500Y50000D02*
D03*
X-95139Y84861D02*
D03*
X-57500Y205000D02*
D03*
X27500Y204484D02*
D03*
X12500Y205000D02*
D03*
X-32500Y-7500D02*
D03*
X35516Y-20000D02*
D03*
X77500Y65000D02*
D03*
X-90000Y142500D02*
D03*
X-128100Y-15750D02*
D03*
X45000Y-75000D02*
D03*
X5000Y-65000D02*
D03*
X139000Y1000D02*
D03*
X140000Y-55000D02*
D03*
X98000Y55000D02*
D03*
X117500Y-110000D02*
D03*
X182500Y-72500D02*
D03*
X175000Y-85000D02*
D03*
X145000Y-105000D02*
D03*
Y-152500D02*
D03*
X45000Y-67500D02*
D03*
X73000Y1000D02*
D03*
X62000D02*
D03*
X217500Y-110000D02*
D03*
X-172500Y134968D02*
D03*
X-190000Y135000D02*
D03*
X-172500Y127500D02*
D03*
X-165000Y125000D02*
D03*
X-180000Y130000D02*
D03*
X57500Y140000D02*
D03*
Y115000D02*
D03*
X-106100Y-115000D02*
D03*
X-72500Y10000D02*
D03*
Y40000D02*
D03*
Y17500D02*
D03*
X-95000Y-137500D02*
D03*
Y-147500D02*
D03*
X197000Y90500D02*
D03*
Y99500D02*
D03*
X145000Y55000D02*
D03*
X198000Y120500D02*
D03*
Y129500D02*
D03*
X178000Y150500D02*
D03*
Y159500D02*
D03*
X-140000Y22500D02*
D03*
D82*
X-182850Y-6334D02*
D03*
X-217150Y-44750D02*
D03*
X-182850Y-44450D02*
D03*
Y-19334D02*
D03*
Y-31750D02*
D03*
X-217150D02*
D03*
Y57150D02*
D03*
Y-6350D02*
D03*
Y19050D02*
D03*
Y31750D02*
D03*
Y44450D02*
D03*
Y6350D02*
D03*
X-182850Y44450D02*
D03*
Y6350D02*
D03*
Y19050D02*
D03*
Y31750D02*
D03*
Y-57150D02*
D03*
X-217150D02*
D03*
Y-19050D02*
D03*
X217150Y31750D02*
D03*
Y44450D02*
D03*
Y57150D02*
D03*
X182850D02*
D03*
Y44450D02*
D03*
Y31750D02*
D03*
Y19050D02*
D03*
X217150D02*
D03*
Y6350D02*
D03*
X182850D02*
D03*
X217150Y-57150D02*
D03*
Y-44450D02*
D03*
Y-31750D02*
D03*
Y-19050D02*
D03*
Y-6350D02*
D03*
X182850D02*
D03*
Y-19050D02*
D03*
Y-31750D02*
D03*
Y-44450D02*
D03*
Y-57150D02*
D03*
X-182850Y57150D02*
D03*
M02*
